<?xml version="1.0" encoding="utf-8"?>
<!-- Generator: Adobe Illustrator 26.0.2, SVG Export Plug-In . SVG Version: 6.00 Build 0)  -->
<svg version="1.1"
	 id="svg2" xmlns:cc="http://creativecommons.org/ns#" xmlns:dc="http://purl.org/dc/elements/1.1/" xmlns:rdf="http://www.w3.org/1999/02/22-rdf-syntax-ns#" xmlns:svg="http://www.w3.org/2000/svg"
	 xmlns="http://www.w3.org/2000/svg" xmlns:xlink="http://www.w3.org/1999/xlink" x="0px" y="0px" viewBox="0 0 679.7 452"
	 style="enable-background:new 0 0 679.7 452;" xml:space="preserve">
<style type="text/css">
	.st0{fill:#00467C;}
	.st1{fill:#99CC00;}
	.st2{fill:none;stroke:#99CC00;stroke-width:1.8418;stroke-miterlimit:1.3333;}
</style>
<g id="path14">
	<polygon class="st0" points="13.8,254.5 0,254.5 0,0 156.6,0 156.6,13.8 13.8,13.8 	"/>
</g>
<g id="path24_00000109733980489105546500000008054978408446577551_">
	<polygon class="st1" points="679.7,452 523,452 523,438.2 665.9,438.2 665.9,197.4 679.7,197.4 	"/>
</g>
<g id="g10" transform="matrix(1.3333333,0,0,-1.3333333,0,452.04)">
	<g id="g12" transform="scale(0.1)">
		<path id="path16" class="st0" d="M1512.4,1480v187.8h139.7V1480h70.9v429.5h-70.9v-169h-139.7v169h-70.9V1480H1512.4z
			 M1220.6,1712.6c10.9,15.3,24.2,22.9,39.8,22.9c16.4,0,29.9-7.9,40.6-23.7c10.6-15.8,16-41.4,16-76.8c0-33.7-5.3-58.3-15.8-73.9
			c-10.6-15.6-23.2-23.4-38.1-23.4c-10.3,0-20.2,3.7-29.6,11s-16.6,18.1-21.7,32.2s-7.6,34.6-7.6,61.4
			C1204.2,1673.9,1209.7,1697.3,1220.6,1712.6L1220.6,1712.6z M1199.8,1480v45.7c9.9-17.2,22-30.3,36.3-39.4
			c14.2-9.1,28.7-13.6,43.3-13.6c28.7,0,53.6,14.2,74.9,42.7c21.2,28.5,31.9,69.1,31.9,121.9c0,53-10.4,93.1-31.2,120.3
			c-20.8,27.2-46.2,40.8-76.2,40.8c-14.2,0-27.5-3.6-39.9-10.8c-12.4-7.2-23.7-18.1-34.1-32.5v154.4h-67.7V1480H1199.8L1199.8,1480z
			 M697.6,1480h67.7v151.3c0,30.5,1.9,52.2,5.6,65c3.7,12.8,9.8,22.5,18.2,29.2s17.6,10,27.5,10c14.8,0,24.7-6.4,29.6-19.4
			c3.7-9.8,5.6-31.6,5.6-65.4V1480h67.7v149.6c0,41.8,4.6,69.9,13.8,84.3s21.3,21.6,36.3,21.6c12.9,0,22.1-5.1,27.5-15.4
			c5.5-10.3,8.2-30.9,8.2-62v-178h67.7v199.1c0,32.1-3.3,55.8-9.8,71.2c-6.6,15.4-16.1,27.3-28.7,35.6c-12.6,8.3-27.6,12.5-45,12.5
			c-14.6,0-28.5-4.1-41.5-12.3c-13-8.2-25.2-20.6-36.5-37.2c-7.6,16.6-17.4,29-29.4,37.2s-26.2,12.3-42.6,12.3
			c-15.4,0-29.8-4.2-43.1-12.4c-13.3-8.3-25.5-20.8-36.6-37.4v42.5h-62.1L697.6,1480L697.6,1480z M565.8,1637.6v-54.3
			c-11.7-11.3-25.1-20.2-40-26.7s-29.3-9.8-43.2-9.8c-29.7,0-53.2,11.6-70.6,34.9c-20.3,26.9-30.5,66.3-30.5,118.1
			c0,48.2,9.4,84.1,28.1,107.7c18.8,23.5,43.3,35.3,73.5,35.3c19.5,0,36.3-5.9,50.4-17.6c14.1-11.7,23.7-28.6,29-50.7l70.3,16.1
			c-7.2,41.4-23.5,72.8-48.8,94.2c-25.3,21.4-58.9,32.1-100.9,32.1c-35,0-65-8.3-90.1-24.9c-25.1-16.6-45.5-41.7-61.2-75.3
			c-15.7-33.6-23.6-74-23.6-121.3c0-46.1,7.8-86.2,23.3-120.3c15.5-34.1,36.6-59.7,63.1-76.8c26.6-17.1,57.2-25.6,92-25.6
			c28.5,0,56.9,6.5,85.3,19.6c28.3,13.1,50.2,28.7,65.6,46.9v171.1H484.4v-72.7L565.8,1637.6L565.8,1637.6"/>
		<path id="path18" class="st0" d="M2880.5,2495.1h239v-131c-69.1-53.3-162.7-87.8-246.2-87.8c-184.3,0-293.8,136.8-293.8,370.1
			c0,216,109.4,339.8,298.1,339.8c116.6,0,201.6-59,231.8-162.7l205.9,38.9c-43.2,200.2-193,302.4-440.6,302.4
			c-56.2,0-100.8-4.3-149.8-15.8c-216-51.8-360-254.9-360-512.6c0-329.8,204.5-537.1,527-537.1c155.5,0,342.7,67.7,437.8,159.8
			v410.4h-449.3v-174.4H2880.5z M1456.4,2116.4h207.4v311l168.5,172.8l283.7-483.8h269.3l-409,629.3l388.8,401.8h-280.8
			l-420.5-457.9v457.9h-207.4V2116.4z M959.6,2523.9H678.8L817,2907L959.6,2523.9z M1342.6,2116.4l-411.8,1031H709l-400.3-1031H529
			l85,233.3h411.8l90.7-233.3H1342.6L1342.6,2116.4"/>
		<path id="path20" class="st1" d="M4130.6,1325.9h168.5c138.2,0,177.1-5.8,216-30.2c36-21.6,56.2-61.9,56.2-110.9
			c0-95-53.3-132.5-190.1-133.9h-57.6h-193V1325.9z M4130.6,1736.3h119.5c151.2,0,174.2-1.4,205.9-8.6
			c46.1-11.5,77.8-54.7,77.8-109.4c0-83.5-56.2-121-178.6-121h-7.2h-80.6h-136.8L4130.6,1736.3L4130.6,1736.3z M3923.2,1907.6v-1031
			h485.3c146.9,0,207.4,17.3,270.7,67.7c66.2,51.9,106.6,142.6,106.6,236.2c0,118.1-72,208.8-194.4,244.8
			c87.8,38.9,144,125.3,144,223.2c0,61.9-23,121-66.2,167.1c-27.4,30.2-57.6,51.8-90.7,64.8c-54.7,20.2-110.9,27.4-243.4,27.4
			L3923.2,1907.6L3923.2,1907.6z M2886.4,876.6h207.4v311l168.5,172.8L3546,876.6h269.3l-408.9,629.3l388.8,401.8h-280.8
			l-420.5-457.9v457.9h-207.4V876.6H2886.4z M2389.7,1284.1h-280.8l138.2,383L2389.7,1284.1z M2772.7,876.6l-411.8,1031h-221.8
			l-400.3-1031h220.3l85,233.3h411.8l90.7-233.3L2772.7,876.6L2772.7,876.6"/>
		<path id="path22" class="st1" d="M4778.9,241.3v82.3h-67.4v-82.3H4778.9z M4594.9,241.3l126.3,429.5h-75.6l-86.3-317.9
			l-89.2,317.9H4393l126-429.5C4519.1,241.3,4594.9,241.3,4594.9,241.3z M4359.1,241.3v82.3h-67.4v-82.3H4359.1z M4068.8,423.6
			c-0.2,23.1,4.7,41.2,14.6,54.1c9.8,12.7,21.8,19.1,36,19.1c13.5,0,25.1-6.1,34.9-18.4s14.9-30.5,15.5-54.8L4068.8,423.6
			L4068.8,423.6z M4122.8,295.5c-15.1,0-28,6.8-38.6,20.3c-10.7,13.5-16.2,32.6-16.6,57.4h169l0.3,9.4c0,60.2-11.9,105.8-35.8,136.7
			c-20.7,27-49.3,40.5-85.8,40.5c-32.8,0-59.6-13.2-80.3-39.6c-24.4-31.3-36.6-73-36.6-125c0-52.8,12.1-93.9,36.4-123.3
			c20.5-25.2,49.7-37.9,87.4-37.9c27.2,0,50.2,7.6,69.2,22.7c19,15.1,32.9,38.3,42,69.6l-67.1,13.8
			C4159.1,310.4,4144.6,295.5,4122.8,295.5L4122.8,295.5L4122.8,295.5"/>
		<path id="path24" class="st2" d="M5045.8,1909.5V51.8h-1123"/>
	</g>
</g>
</svg>
