<svg width="1754" height="1360" viewBox="0 0 1754 1360" fill="none" xmlns="http://www.w3.org/2000/svg">
<path fill-rule="evenodd" clip-rule="evenodd" d="M1168.46 808.513C1181.96 773.595 1189.36 735.655 1189.36 696C1189.36 523.507 1049.32 383.465 876.822 383.465C704.329 383.465 564.287 523.507 564.287 696C564.287 795.334 610.729 883.907 683.066 941.17L681.81 982.615L686.88 984.562L557.488 1314.47C333.822 1198.66 180.822 965.055 180.822 696C180.822 311.867 492.689 0 876.822 0C1260.96 0 1572.82 311.867 1572.82 696C1572.82 863.424 1513.58 1017.12 1414.93 1137.25C1413.09 1110.21 1389.62 1013.64 1385.66 1005C1381.42 995.76 1351.49 915.884 1351.49 915.884L1340.83 877.428C1340.83 877.428 1345.3 854.254 1345.95 846.404C1346.59 838.554 1342.26 824.7 1342.26 824.7L1374.75 830.641H1397.27L1403.23 827.814L1461.64 738.748L1509.66 700.431C1509.66 700.431 1513.99 699.001 1512.75 689.346C1511.5 679.691 1506.57 677.453 1502.36 676.55C1498.14 675.647 1490.67 677.506 1490.67 677.506L1482.67 687.131L1468.41 695.161C1470.8 687.562 1471.53 680.044 1470.88 675.574C1470.23 671.105 1466.24 670.915 1466.24 670.915L1460.39 693.944L1451.39 718.603L1390.11 792.985L1314.55 766.953L1304.61 765.069V758.224H1321.13L1327.16 749.253L1330.21 738.748L1336.69 736.263L1338.99 729.25L1332.85 714.776L1336.69 696.688L1313.55 705.042L1212.11 788.15L1173.42 824.7L1168.46 808.513ZM1377.59 1179.18C1325.11 1233.55 1263.87 1279.41 1196.16 1314.47L1054.44 953.129C1088.9 929.267 1118.34 898.659 1140.85 863.221C1141.91 867.598 1143.73 874.307 1146.27 880.77C1150.54 891.636 1175.82 880.77 1175.82 880.77L1218.5 853.268L1245.78 906.888C1245.78 906.888 1244.57 913.022 1238.89 955.813C1233.22 998.604 1235.77 1053.35 1235.77 1053.35C1245.64 1126.12 1270.04 1179.18 1270.04 1179.18L1288.04 1186.16C1288.04 1186.16 1292.59 1184.71 1313.55 1189.67C1334.51 1194.64 1374.75 1179.18 1374.75 1179.18H1377.59Z" fill="#6DAEE3" fill-opacity="0.3"/>
<path d="M363.95 783.263L372.98 727.438L151.642 691.634L166.322 600.885L456.496 295.395L543.556 309.478L488.059 652.552L555.199 663.413L540.459 754.529L473.32 743.669L455.716 852.493L380.884 840.388C381.461 831.217 381.975 819.588 381.177 815.898C379.797 809.509 370.788 781.533 370.788 781.533L363.95 783.263ZM387.719 636.32L417.616 451.503L263.401 616.211L387.719 636.32Z" fill="#6DAEE3"/>
<path d="M710.811 627.479C710.1 582.769 716.892 545.796 731.187 516.559C752.195 473.733 788.623 446.67 840.47 435.37C892.317 424.069 936.877 433.735 974.151 464.368C1018.51 500.596 1051.75 569.461 1073.87 670.965C1095.94 772.225 1094.28 848.825 1068.88 900.766C1047.88 943.591 1011.45 970.654 959.602 981.955C948.595 984.354 937.845 985.76 927.351 986.175L933.837 982.376L932.334 980.97L915.001 982.376L904.828 979.097L897.641 971.275L908.62 968.624L913.66 961.256L883.162 964.918L876.334 969.974L872.309 966.676L876.334 957.005L825.038 888.962L778.587 819.862L762.404 730.44H756.329L754.788 726.408L756.329 710.379L760.267 699.14L766.568 695.236L772.647 686.625L770.426 677.472L760.267 664.88L757.654 657.118L762.404 650.196L760.267 645.12L752.397 641.941H740.231L731.233 633.064L714.155 625.085L710.811 627.479ZM859.012 520.443C846.598 523.149 836.385 529.518 828.372 539.551C820.36 549.584 815.905 565.408 815.006 587.022C813.73 615.092 819.936 660.528 833.624 723.329C847.311 786.129 859.88 828.585 871.328 850.695C882.776 872.805 894.157 886.706 905.469 892.4C916.782 898.094 928.645 899.588 941.059 896.882C953.473 894.176 963.687 887.807 971.699 877.774C979.711 867.74 984.167 851.917 985.065 830.303C986.394 802.476 980.215 757.162 966.527 694.361C952.84 631.561 940.271 589.105 928.823 566.995C917.375 544.885 905.981 530.923 894.642 525.107C883.303 519.292 871.426 517.737 859.012 520.443Z" fill="#6DAEE3"/>
<path d="M1293.63 761.643L1166.89 803.439L1152.89 747.02L1144.8 717.106L1139.58 707.516V697.294L1138.46 697.625L1249.34 313.11L1333.1 285.489L1441.94 615.537L1506.53 594.235L1535.44 681.893L1512.7 689.393C1510.8 670.598 1491.27 677.59 1491.27 677.59C1484.44 688.088 1468.22 696.122 1468.22 696.122C1475.74 669.425 1466.46 671.175 1466.46 671.175L1459.24 696.122L1452.16 717.141L1392.46 790.015L1374.32 735.03L1326.94 750.656L1327.47 749.066V743.241L1336.95 736.003L1338.94 732.12L1332.99 715.276L1336.95 693.863L1300.51 687.388L1285.68 736.003L1293.35 761.643H1293.63ZM1345.41 647.372L1286.78 469.572L1225.82 686.815L1345.41 647.372ZM1478.1 725.152L1505.38 807.887L1408.85 839.723L1404.52 826.599L1461.82 737.971L1478.1 725.152Z" fill="#6DAEE3"/>
<path d="M1323.02 770.514C1323.8 769.531 1321.29 772.328 1320.47 773.278C1318.44 775.652 1317.02 778.477 1314.94 780.845C1309.25 787.356 1300.09 798.199 1293.63 803.85C1273.75 821.243 1244.99 828.476 1222.83 806.311C1221.18 804.663 1209.34 794.879 1210.6 792.342C1211.93 789.692 1217.32 786.202 1219.63 783.9C1225.68 777.848 1235.29 766.644 1237.67 758.29C1240.03 750.027 1237.65 742.283 1238.83 733.986C1239.47 729.541 1244.03 726.788 1245.53 722.782C1247.78 716.778 1247.84 710.682 1248.73 704.446C1250.9 689.231 1249.56 667.96 1266.63 660.644C1289.19 650.975 1343.13 661.779 1337.64 694.696C1336.7 700.348 1312.79 701.359 1308.69 705.466C1306.92 707.231 1306.2 718.926 1305.63 721.762C1303.88 730.506 1299.31 760.552 1306.36 767.601C1307.87 769.112 1309.54 765.053 1311.74 765.419C1314 765.797 1322.45 771.227 1323.02 770.514Z" fill="#020144"/>
<path d="M1049.75 754.523C1050.04 754.429 1050.32 754.332 1050.61 754.238Z" fill="#ABE0B6"/>
<path d="M1399.8 1167C1401.65 1168.13 1400.43 1171.42 1400.04 1173.2C1397.65 1184.36 1387.94 1191.91 1377.56 1195.68C1343.52 1208.06 1305.11 1211.99 1270.51 1221.87C1267.65 1222.69 1239.99 1228.72 1239.28 1228C1236.96 1225.68 1228.74 1203.75 1231.99 1202.12C1238.86 1198.69 1247.83 1197.72 1255.08 1194.1C1262.59 1190.34 1271.62 1186.03 1279.87 1184.38C1284.89 1183.37 1293.23 1186.9 1298.46 1187.42C1314.36 1189.01 1335.14 1189.97 1350.71 1186.08C1363.89 1182.79 1375.46 1178.28 1387.89 1172.96C1391.02 1171.62 1397.37 1165.52 1399.8 1167Z" fill="#6DAEE3"/>
<path d="M1323.68 1208.9C1313.42 1232.17 1306.68 1257.46 1298.65 1281.53C1297.3 1285.6 1292.12 1305.86 1289.35 1307.94C1286 1310.45 1272.13 1305.73 1268.85 1303.54C1261.84 1298.86 1266.05 1289.21 1267.47 1281.15C1269.28 1270.86 1271.36 1260.61 1272.75 1250.21C1274.26 1238.91 1271.45 1220.27 1283.31 1213.49C1291.2 1208.98 1304.43 1205.57 1313.37 1205.57C1316.74 1205.57 1325.6 1204.56 1323.68 1208.9Z" fill="#6DAEE3"/>
<path d="M1288.57 1310.96C1288.57 1316.75 1280.45 1325.56 1282.78 1331.39C1283.17 1332.35 1286.92 1333.76 1287.82 1334.29C1295.62 1338.84 1303.81 1342.37 1312.36 1345.48C1314.58 1346.29 1320.39 1346.95 1321.88 1348.93C1322.46 1349.71 1321.82 1352.92 1321.69 1353.88C1321.04 1358.39 1308.97 1357.25 1305.74 1357.42C1292.61 1358.12 1277.05 1359.84 1264.03 1357.24C1260.68 1356.57 1254.97 1358.46 1252.09 1356.3C1248.96 1353.95 1256.52 1327.56 1257.41 1323.09C1258.03 1320.01 1261 1303.07 1262.91 1301.64C1263.42 1301.25 1283.11 1311.36 1287.26 1309.29" fill="#020144"/>
<path d="M1238.05 1229.46C1233.83 1229.46 1221.07 1231.83 1218.29 1235.3C1215.99 1238.17 1216.07 1243.45 1215.54 1246.88C1213.7 1258.84 1213.58 1271.23 1211.04 1283.06C1210.35 1286.28 1208.27 1305.22 1207.21 1305.4C1198.5 1306.85 1198.67 1293.81 1197.62 1288.23C1194.15 1269.69 1188.38 1252.36 1183.12 1234.46C1181.94 1230.47 1176.8 1219.44 1179.78 1215.46C1184.32 1209.41 1210.53 1207.15 1218.54 1205.37C1220.68 1204.9 1228.87 1201.32 1230.71 1202.71C1232.07 1203.72 1233.1 1225.36 1237.13 1227.38" fill="#020144"/>
<path d="M686.415 707.243C684.59 702.991 687.939 692.844 688.667 688.488C690.412 678.016 692.631 664.351 700.502 656.48C703.287 653.697 709.137 652.891 712.505 650.646C718.299 646.783 724.43 639.937 728.843 634.642C732.66 630.061 750.326 613.868 740.68 606.635C737.004 603.877 723.889 623.42 720.007 624.971C715.208 626.891 705.092 622.096 698.835 623.139C679.889 626.297 663.219 640.846 659.324 660.315C657.045 671.717 659.352 689.455 668.995 697.492C674.534 702.107 679.138 704.23 685.331 707.326C686.105 707.713 686.726 707.969 686.415 707.243Z" fill="#020144"/>
<path d="M703.336 657.752C704.286 657.736 703.557 663.864 704.28 665.231C705.969 668.431 711.722 672.971 710.799 677.172C710.143 680.163 694.935 674.633 694.608 683.639C694.242 693.685 709.432 696.001 710.753 699.613C712.183 703.522 707.841 714.268 702.758 713.801C700.15 713.561 689.912 710.879 688.388 708.856C685.163 704.579 687.73 696.517 688.607 691.855C690.377 682.439 690.93 665.57 698.287 658.286C699.595 656.992 702.228 657.77 703.336 657.752Z" fill="#020144"/>
<path d="M875.65 957.644C879.642 962.92 854.572 988.738 849.394 985.407C816.926 964.511 795.235 929.436 765.584 905.333C749.424 892.197 720.024 859.646 711.63 840.382C701.855 817.953 686.121 790.512 707.991 769.977C723.125 755.766 754.55 786.262 762.308 798.302C797.86 853.488 836.942 906.461 875.65 957.644Z" fill="#6DAEE3" fill-opacity="0.5"/>
<path d="M696.673 743.984C695.536 743.724 701.676 742.704 702.53 742.686C706.646 742.587 710.852 742.113 714.959 742.479C727.632 743.604 739.829 746.892 751.783 751.144C755.246 752.375 758.581 753.612 761.885 755.264C763.577 756.112 768.315 759.199 766.878 757.967C763.324 754.919 765.379 732.513 762.17 731.205C759.622 730.167 755.324 731.18 752.442 730.568C739.237 727.757 706.361 723.113 694.546 731.491C692.914 732.649 697.318 744.132 696.673 743.984Z" fill="#6DAEE3" fill-opacity="0.5"/>
<path d="M682.124 969.173C682.184 968.899 698.151 975.6 701.34 976.217C716.895 979.23 732.506 979.873 748.369 979.281C761.873 978.777 775.283 977.847 788.539 975.11C797.908 973.178 821.726 960.109 827.534 967.481C828.59 968.825 837.529 973.816 836.247 976.09C833.284 981.351 816.221 987.47 810.915 988.95C778.099 998.115 749.226 1000.7 716.004 994.263C698.191 990.812 677.607 989.875 682.124 969.173Z" fill="#6DAEE3" fill-opacity="0.5"/>
<path d="M942.94 1309.99C942.268 1311.99 936.93 1302.2 935.373 1299.87C930.539 1292.63 927.438 1284.41 922.026 1277.54C905.338 1256.34 896.576 1221.86 884.076 1198.15C857.148 1147.08 841.485 1096.95 812.016 1046.85C808.321 1040.57 792.241 997.954 789.061 996.027C787.574 995.124 753.103 1000.84 744.24 999.789C740.531 999.347 709.814 996.593 709.193 996.886C698.635 1001.83 714.361 1052.63 711.812 1063.85C702.721 1103.87 699.178 1138.43 690.081 1178.48C683.084 1209.27 649.653 1284.49 649.653 1284.49C649.653 1284.49 665.443 1306.6 673.54 1309.53C676.542 1310.62 703.47 1276.27 706.497 1272.58C734.969 1237.87 745.685 1196.55 751.289 1152.64C751.876 1148.03 757.124 1099.13 758.658 1098.32C759.344 1097.96 760.469 1098.88 761.128 1099.03C763.02 1099.46 783.481 1128.66 785.944 1132.01C813.901 1169.95 836.862 1209.02 859.342 1250.09C866.992 1264.06 902.488 1327.39 902.488 1327.39C902.488 1327.39 923.575 1327.03 929.929 1322.7C934.4 1319.64 943.528 1308.26 942.94 1309.99Z" fill="#6DAEE3" fill-opacity="0.5"/>
<path d="M945.78 1310.99C944.894 1315.39 960.387 1317.12 963.071 1316.91C975.919 1315.88 991.316 1305.54 1004.04 1308.89C1007.75 1309.87 1016.38 1313.07 1015.99 1318.22C1015.6 1323.5 1000.38 1329.03 996.606 1330.83C980.501 1338.5 964.098 1345.45 947.136 1351.08C941.206 1353.05 934.495 1356.7 928.289 1357.47C925.823 1357.78 914.094 1333.31 915.812 1330.15C916.732 1328.45 923.473 1326.86 925.375 1325.95C932.451 1322.58 939.689 1318.8 944.48 1312.66" fill="#020144"/>
<path d="M678.34 1314.71C671.617 1318.01 675.998 1326.64 679.896 1330.16C689.081 1338.45 701.301 1340.4 711.796 1346.06C713.819 1347.15 718.617 1352.38 716.172 1354.98C714.538 1356.71 689.627 1352.09 686.245 1351.58C673.144 1349.61 660.167 1345.99 647.298 1342.98C644.029 1342.22 635.771 1341.86 634.538 1337.74C631.881 1328.87 642.768 1313.17 649.361 1308.12C652.059 1306.05 653.831 1302.71 655.185 1299.67C655.82 1298.26 655.523 1294.35 656.757 1295.29C663.659 1300.54 668.252 1310.27 676.097 1314.83" fill="#020144"/>
<path d="M331.264 729.133C334.597 730.119 340.592 723.348 341.619 720.277C342.74 716.93 341.075 713.042 341.895 709.681C342.673 706.501 346.319 705.576 346.322 701.72C346.326 699.059 341.308 697.026 341.881 694.683C343.801 686.819 351.688 681.363 348.251 672.223C344.089 661.143 337.82 660.112 330.099 653.13C326.478 649.854 323.959 643.274 319.705 640.935C315.665 638.716 312.4 640.519 308.316 639.773C299.053 638.079 292.717 628.861 282.077 632.604C278.778 633.762 276.313 636.511 273 637.556C269.034 638.811 263.994 635.648 259.402 637.261C252.079 639.84 247.919 648.705 242.256 653.473C237.244 657.688 230.671 659.562 227.057 665.404C222.824 672.249 227.867 679.818 227.861 686.736C227.854 691.529 224.647 695.346 224.532 700.097C224.407 705.201 226.698 723.576 230.384 727.269C236.081 732.978 244.797 734.723 250.253 740.453C259.146 749.788 262.528 763.23 278.771 756.632C286.539 753.478 279.711 747.037 276.251 742.766C275.134 741.392 271.207 742.17 269.531 741.608C263.994 739.758 257.91 730.358 258.531 724.389C259.072 719.221 264.142 721.437 265.62 717.941C266.331 716.253 263.939 709.46 264.462 708.992C265.217 708.318 270.601 709.543 270.811 707.537C270.951 706.2 265.668 702.597 266.787 701.108C267.687 699.911 272.498 703.599 273.803 701.223C275.079 698.905 269.943 696.223 271.089 693.831C272.015 691.899 277.618 694.31 279.259 692.673C283.578 688.363 276.027 678.545 283.244 675.329C288.242 673.103 290.867 677.267 295.16 677.861C298.091 678.266 301.488 675.58 303.922 676.174C307.377 677.019 310.886 681.508 313.637 683.575C316.079 685.41 319.007 684.634 321.491 685.684C325.156 687.231 330.9 714.561 330.651 718.942C330.486 721.891 329.487 728.608 331.264 729.133Z" fill="#020144"/>
<path d="M321.425 685.619C326.683 689.111 328.138 701.045 329.871 706.669C336.469 728.092 330.341 755.266 308.97 765.435C301.808 768.844 295.109 775.05 288.583 779.556C288.171 779.839 286.771 781.22 286.226 780.677C285.666 780.12 287.931 761.132 285.192 756.355C282.779 752.151 279.163 747.715 276.234 743.963C275.162 742.589 271.361 742.74 269.621 741.585C266.091 739.241 261.994 733.891 260.325 729.906C257.023 722.022 263.716 724.183 265.737 719.938C267.489 716.255 264.072 711.754 264.505 708.244C264.738 706.36 270.463 708.978 270.088 707.116C269.167 702.55 261.86 699.217 270.76 700.849C271.055 700.902 272.896 701.625 272.993 701.528C274.098 700.419 268.64 695.393 270.157 693.869C272.105 691.915 276.066 696.093 277.572 693.826C281.543 687.847 275.696 677.128 283.461 673.431C287.952 671.295 289.909 676.974 293.675 677.665C296.613 678.203 302.932 675.167 304.81 676.063C307.626 677.402 308.768 681.905 312.301 683.588C315.105 684.923 324.806 684.23 323.356 689.587" fill="#CCCCDA"/>
<path d="M349.029 743.163C365.646 739.291 380.761 726.433 395.817 718.809C407.302 712.994 418.209 705.542 430.141 700.576C439.105 696.847 448.882 693.258 457.053 688.143C460.499 685.985 463.556 679.878 466.406 676.713C472.829 669.578 480.921 662.861 488.504 657.094C490.541 655.545 495.965 647.23 498.283 647.186C505.45 647.05 496.755 662.161 495.604 663.899C494.671 665.31 488.851 669.385 491.386 670.43C501.584 674.636 510.45 677.479 521.723 675.725C523.901 675.384 538.349 670.548 538.404 673.481C538.547 680.999 526.675 680.626 525.662 685.035C525.234 686.897 529.414 684.052 531.035 683.037C533.268 681.639 540.269 675.895 543.236 678.343C546.793 681.275 527.932 692.894 525.943 693.375C525.648 693.447 525.349 693.536 525.091 693.698C524.324 694.179 526.947 693.647 527.775 693.281C528.429 692.991 539.037 689.664 536.825 693.292C527.808 708.074 484.167 707.335 467.43 717.814C439.453 735.333 413.391 757.496 387.193 778.254C381.463 782.793 362.994 802.914 356.863 803.869C354.091 804.299 355.634 792.874 354.151 789.796C346.485 773.877 344.595 773.175 346.508 754.415C346.805 751.505 347.157 743.598 349.029 743.163Z" fill="#CCCCDA"/>
<path d="M280.42 881.264C278.845 882.171 272.954 877.366 271.361 876.172C265.115 871.489 260.405 864.951 254.963 859.509C252.965 857.511 249.855 857.311 247.822 855.278C247.313 854.767 243.948 848.006 243.855 848.006C241.33 848.006 237.113 858.609 236.054 860.303C229.444 870.877 215.717 891.174 222.167 904.075C227.446 914.633 261.8 911.076 271.89 910.16C274.492 909.923 282.973 911.242 284.851 909.366C287.86 906.357 284.577 892.675 283.528 889.528C283.097 888.237 281.61 880.58 280.42 881.264Z" fill="#CCCCDA"/>
<path d="M372.531 924.084C378.721 936.442 387.313 947.948 392.863 960.527C398.867 974.134 403.725 988.219 409.266 1002C412.104 1009.06 420.007 1025.64 418.131 1033.19C416.842 1038.39 395.617 1045.58 390.819 1047.51C373.949 1054.29 353.474 1061.95 335 1061.86C330.361 1061.84 326.547 1058.49 322.523 1058.25C315.619 1057.83 308.13 1056.94 301.136 1057.03C298.85 1057.06 267.346 1053.54 267.16 1053.27C266.25 1051.94 268.849 1024.13 269.096 1021.1C271.177 995.576 275.323 971.066 279.255 945.759C280.203 939.667 280.139 926.941 284.598 922.238C285.252 921.55 291.546 925.652 292.934 926.032C299.962 927.961 306.443 928.91 313.616 929.685C327.072 931.14 340.511 930.657 353.981 928.797C356.198 928.491 372.257 923.537 372.531 924.084Z" fill="#020144"/>
<path d="M413.235 1040.08C416.879 1054.93 424.314 1068.61 427.8 1083.33C431.495 1098.94 436.189 1115.38 441.702 1130.34C456.657 1170.91 458.74 1217.2 470.386 1258.74C471.751 1263.62 473.625 1280.01 477.297 1282.97C485.205 1289.32 494.687 1294.61 504.646 1298.31C510.169 1300.36 519.306 1301.3 523.926 1305.01C524.26 1305.28 519.096 1313.2 518.185 1313.49C508.875 1316.42 496.494 1319.65 486.862 1320.69C486.414 1320.74 484.372 1321.69 484.093 1321.47C481.354 1319.27 478.704 1315.18 474.687 1313.69C470.149 1312 461.127 1315.94 457.64 1312.21C454.921 1309.3 457.161 1303.45 455.816 1299.8C452.025 1289.52 447.269 1278.71 443.155 1268.6C431.951 1241.06 414.192 1214.66 406.105 1185.81C400.838 1167.02 397.988 1146.38 391.289 1128.2C385.582 1112.71 366.718 1077.12 366.718 1077.12C366.718 1077.12 356.895 1060.79 357.073 1060.57C362.996 1053.2 379.695 1056.34 387.304 1052.05C391.049 1049.95 412.871 1038.6 413.235 1040.08Z" fill="#CCCCDA"/>
<path d="M525.305 1306.52C526.882 1305.5 558.28 1306.83 549.903 1316.11C546.408 1319.98 534.5 1319.02 529.456 1320.5C517.358 1324.05 504.782 1325.77 492.767 1329.48C485.518 1331.72 479.376 1336.42 471.777 1337.91C464.016 1339.42 459.083 1336.73 457.412 1329C456.951 1326.86 456.291 1324.22 456.449 1322.06C456.65 1319.32 455.683 1315.23 457.612 1312.91C461.885 1307.77 478.342 1319.31 482.995 1320.18C488.711 1321.24 495.468 1318.34 501.062 1317.48C508.447 1316.34 517.513 1317.12 521.845 1310.51C522.628 1309.32 525.061 1306.68 525.305 1306.52Z" fill="#020144"/>
<path d="M309.594 1336.69C309.573 1335.4 311.675 1337.03 312.585 1337.49C313.519 1337.96 314.525 1338.13 315.483 1338.51C316.273 1338.83 317.035 1339 317.859 1339.2C320.347 1339.8 347.358 1349.69 331.404 1354C322.196 1356.48 290.795 1356.72 281.854 1353.15C272.075 1349.25 262.972 1338.07 254.358 1331.85C249.638 1328.45 242.249 1325.65 238.192 1321.75C233.968 1317.68 233.247 1312.44 236.991 1305.07C238.137 1302.82 240.405 1300.82 241.802 1298.66C246.284 1291.71 249.072 1289.72 252.408 1294.12C258.72 1302.45 263.824 1325.71 263.824 1325.71C263.824 1325.71 272.855 1334.07 276.545 1335.94C281.092 1338.26 296.631 1348.52 301.818 1344.57C303.418 1343.36 303.441 1340.85 304.688 1339.37C306.848 1336.81 309.599 1336.97 309.594 1336.69Z" fill="#020144"/>
<path d="M353.617 1078.88C344.533 1107.64 350.222 1126.1 339.125 1154.44C322.479 1196.94 303.517 1239.28 285.903 1282.95C279.817 1298.04 278.474 1298.3 293.302 1320.22C301.576 1332.46 305.747 1333.18 306.845 1338.21C307.596 1341.64 301.765 1344.49 299.313 1344.42C291.723 1344.19 269.204 1334.21 266.068 1327.04C263.858 1321.98 264.59 1315.49 261.262 1310.82C258.504 1306.96 250.81 1296.09 250.948 1291.49C251.059 1287.89 254.728 1284.56 255.833 1281.28C259.162 1271.42 262.139 1260.75 264.105 1250.53C269.156 1224.28 271.237 1191.24 282.406 1166.81C285.339 1160.39 297.322 1137.4 297.322 1137.4C297.322 1137.4 296.125 1099.34 295.816 1081.61C295.719 1076.01 293.084 1056.4 293.084 1056.4C293.084 1056.4 322.304 1056.52 328.158 1058.01C332.788 1059.18 338.66 1062.64 343.391 1061.6C343.953 1061.48 355.889 1061.34 355.956 1061.64C356.223 1062.87 353.688 1078.66 353.617 1078.88Z" fill="#CCCCDA"/>
<path d="M1334.92 681.98C1340.59 693.311 1335.36 701.921 1333.69 713.549C1332.77 720.006 1340.26 728.962 1338.59 733.963C1337.54 737.114 1331.51 737.691 1329.61 740.221C1326.89 743.849 1327.78 749.473 1325.8 753.419C1319.73 765.572 1302.17 758.045 1294.37 752.195" stroke="#020144" stroke-width="3.73" stroke-miterlimit="10" stroke-linecap="round" stroke-linejoin="round"/>
<path d="M1331.99 676.108C1321.49 655.112 1271.3 648.508 1256.74 667.04C1244.64 682.436 1250.64 697.554 1248.73 714.734C1247.65 724.429 1239.05 728.114 1236.95 736.521C1235.3 743.112 1239.72 749.236 1237.78 755.836C1234.32 767.547 1222.95 780.288 1209.52 792.787C1197.25 804.207 1183.26 815.424 1172.02 825.466" stroke="#020144" stroke-width="3.73" stroke-miterlimit="10" stroke-linecap="round" stroke-linejoin="round"/>
<path d="M1175.32 838.773L1151.97 744.898C1151.97 744.898 1148.69 722.011 1141.85 713.06C1135.01 704.112 1142.75 692.498 1135.23 689.102C1127.71 685.707 1130.17 717.476 1130.17 717.476" stroke="#020144" stroke-width="3.73" stroke-miterlimit="10" stroke-linecap="round" stroke-linejoin="round"/>
<path d="M1218.04 852.184C1200.71 866.119 1165.13 892.17 1150.01 884.494C1139.18 878.989 1138.63 849.971 1139.86 821.669C1140.95 796.797 1143.41 772.478 1141.48 765.156C1137.36 749.501 1126.44 731.451 1120.78 726.202C1115.46 721.264 1123.29 705.615 1130.06 699.143" stroke="#020144" stroke-width="3.73" stroke-miterlimit="10" stroke-linecap="round" stroke-linejoin="round"/>
<path d="M1167.23 806.243C1158.96 806.117 1148.05 813.812 1139.86 821.663" stroke="#020144" stroke-width="3.73" stroke-miterlimit="10" stroke-linecap="round" stroke-linejoin="round"/>
<path d="M1288.67 768.903C1288.67 768.903 1301.95 761.567 1318.24 768.031C1334.52 774.495 1389.61 793.174 1389.61 793.174L1451.67 717.949C1451.67 717.949 1456.12 702.99 1460.16 694.737C1464.2 686.484 1466.39 671.493 1466.39 671.493" stroke="#020144" stroke-width="3.73" stroke-miterlimit="10" stroke-linecap="round" stroke-linejoin="round"/>
<path d="M1312.86 818.753C1312.86 818.753 1391.54 837.789 1400.85 829.142C1410.15 820.496 1460.96 738.292 1460.96 738.292C1460.96 738.292 1503.16 705.582 1509.59 700.114" stroke="#020144" stroke-width="3.73" stroke-miterlimit="10" stroke-linecap="round" stroke-linejoin="round"/>
<path d="M1458.81 697.69C1468.43 699.416 1487.36 683.626 1490.48 677.39" stroke="#020144" stroke-width="3.73" stroke-miterlimit="10" stroke-linecap="round" stroke-linejoin="round"/>
<path d="M1501.83 678.221C1497.71 687.457 1485.46 695.523 1476.95 700.063" stroke="#020144" stroke-width="3.73" stroke-miterlimit="10" stroke-linecap="round" stroke-linejoin="round"/>
<path d="M1508.11 686.444C1502.42 695.487 1492.29 701.884 1483.26 707.08" stroke="#020144" stroke-width="3.73" stroke-miterlimit="10" stroke-linecap="round" stroke-linejoin="round"/>
<path d="M1425.06 750.213C1430.76 754.747 1436.28 765.59 1439.2 772.954" stroke="#020144" stroke-width="3.73" stroke-miterlimit="10" stroke-linecap="round" stroke-linejoin="round"/>
<path d="M1324.14 770.283C1299.15 801.852 1266 841.272 1222.85 807.156C1217.81 803.173 1213.47 798.075 1209.52 792.789" stroke="#020144" stroke-width="3.73" stroke-miterlimit="10" stroke-linecap="round" stroke-linejoin="round"/>
<path d="M1337.22 696.545C1328.78 700.836 1318.93 703.776 1309.64 705.617" stroke="#020144" stroke-width="3.73" stroke-miterlimit="10" stroke-linecap="round" stroke-linejoin="round"/>
<path d="M1314.83 692.936C1312.95 696.46 1311.19 700.788 1309.63 705.617C1304.68 721.013 1301.82 741.513 1303.54 757.375C1303.85 760.205 1304.3 762.887 1304.92 765.367" stroke="#020144" stroke-width="3.73" stroke-miterlimit="10" stroke-linecap="round" stroke-linejoin="round"/>
<path d="M1323.72 720.663C1324.1 718.469 1325.14 716.818 1326.04 716.975C1326.94 717.132 1327.36 719.035 1326.98 721.227C1326.6 723.419 1325.56 725.069 1324.66 724.915C1323.76 724.758 1323.34 722.855 1323.72 720.663Z" fill="#ABE0B6" stroke="#020144" stroke-width="3.73" stroke-miterlimit="10" stroke-linecap="round" stroke-linejoin="round"/>
<path d="M1327.9 744.193C1323.63 745.648 1317.17 742.529 1315.8 741.745" stroke="#020144" stroke-width="3.73" stroke-miterlimit="10" stroke-linecap="round" stroke-linejoin="round"/>
<path d="M1212.11 840.123L1244.94 906.875C1244.94 906.875 1239.71 951.165 1235.68 991.776C1231.64 1032.39 1232.72 1089.31 1269.75 1180.43C1269.75 1180.43 1339.74 1213 1414.98 1155.84C1414.98 1155.84 1408.23 1064.31 1385.78 1004.49C1363.33 944.673 1344.9 905.97 1341.48 877.702C1341.48 877.702 1351.49 850.183 1340.56 820.325" stroke="#020144" stroke-width="3.73" stroke-miterlimit="10" stroke-linecap="round" stroke-linejoin="round"/>
<path d="M1303.84 885.573C1301.24 897.012 1291.81 911.826 1282.63 919.773" stroke="#020144" stroke-width="3.73" stroke-miterlimit="10" stroke-linecap="round" stroke-linejoin="round"/>
<path d="M1288.23 894.133C1287.66 897.812 1285.66 901.592 1284.16 905.008" stroke="#020144" stroke-width="3.73" stroke-miterlimit="10" stroke-linecap="round" stroke-linejoin="round"/>
<path d="M1279.39 1076.51C1290.72 1089.9 1295.94 1113.96 1297.89 1130.95" stroke="#020144" stroke-width="3.73" stroke-miterlimit="10" stroke-linecap="round" stroke-linejoin="round"/>
<path d="M1279.64 1093.99C1282.49 1100.12 1284.79 1106.61 1286.39 1113.18" stroke="#020144" stroke-width="3.73" stroke-miterlimit="10" stroke-linecap="round" stroke-linejoin="round"/>
<path d="M1401.07 1165.47C1401.51 1175.28 1397.83 1190.03 1373.96 1196.34C1362.85 1199.28 1344.56 1203.84 1324.34 1208.8C1308.53 1212.68 1291.54 1216.8 1275.9 1220.58C1262.31 1223.86 1249.73 1226.88 1239.82 1229.26C1226.7 1232.41 1218.24 1234.42 1218.24 1234.42C1218.24 1234.42 1206.27 1295.48 1209.34 1306.24L1201.18 1305.21C1201.18 1305.21 1179.91 1223.39 1178.26 1218.45C1176.61 1213.51 1187.41 1210.66 1204.37 1209.07C1210.39 1208.51 1219.93 1205.85 1230.96 1202.16C1246.02 1197.11 1263.84 1190.12 1279.25 1183.87" stroke="#020144" stroke-width="3.73" stroke-miterlimit="10" stroke-linecap="round" stroke-linejoin="round"/>
<path d="M1230.95 1202.15C1231.78 1211.99 1234.26 1220.98 1239.81 1229.26" stroke="#020144" stroke-width="3.73" stroke-miterlimit="10" stroke-linecap="round" stroke-linejoin="round"/>
<path d="M1324.34 1208.79L1282.02 1330.55C1282.02 1330.55 1288.44 1336.58 1299.97 1341.66C1311.5 1346.75 1322.21 1349.57 1322.21 1349.57L1321.85 1355.92H1250.83C1250.83 1355.92 1250.75 1341.58 1255.86 1328.18C1258.2 1322.01 1260.96 1311.76 1263.47 1301C1266.43 1288.36 1269.05 1275.01 1270.31 1266.74C1272.01 1255.53 1273.27 1235.76 1275.9 1220.57" stroke="#020144" stroke-width="3.73" stroke-miterlimit="10" stroke-linecap="round" stroke-linejoin="round"/>
<path d="M1263.47 1301C1271.09 1305.85 1280.3 1308.77 1289.37 1309.39" stroke="#020144" stroke-width="3.73" stroke-miterlimit="10" stroke-linecap="round" stroke-linejoin="round"/>
<path d="M739.884 642.126C736.968 638.367 733.917 635.235 730.78 632.67M717.974 625.336C689.198 615.141 658.536 642.562 657.69 668.112C657.255 681.216 664.317 697.957 676.728 704.858C686.198 710.124 697.182 710.655 703.881 716.251C706.802 718.691 708.908 722.092 709.721 727.268" stroke="#020144" stroke-width="3.73" stroke-miterlimit="10" stroke-linecap="round" stroke-linejoin="round"/>
<path d="M739.884 642.126C745.678 641.951 761.201 640.432 762.553 649.111C763.298 653.911 755.354 655.138 758.703 661.031C763.169 668.884 774.523 676.807 772.288 687.455C770.697 695.045 761.643 694.932 758.855 700.954C754.897 709.504 754.638 720.485 755.471 730.841" stroke="#020144" stroke-width="3.73" stroke-miterlimit="10" stroke-linecap="round" stroke-linejoin="round"/>
<path d="M686.475 708.903C686.475 708.903 687.168 643.899 739.739 604.427C739.739 604.427 747.108 612.204 738.961 622.45C730.811 632.699 715.051 654.054 698.674 657.341" stroke="#020144" stroke-width="3.73" stroke-miterlimit="10" stroke-linecap="round" stroke-linejoin="round"/>
<path d="M704.512 655.432L703.584 664.217L711.957 677.415C711.957 677.415 708.536 679.938 702.553 677.307C702.553 677.307 685.105 681.564 701.156 694.124C717.204 706.684 716.646 695.153 716.646 695.153" stroke="#020144" stroke-width="3.73" stroke-miterlimit="10" stroke-linecap="round" stroke-linejoin="round"/>
<path d="M703.649 686.598C704.996 687.561 709.413 690.176 709.413 690.176" stroke="#020144" stroke-width="3.73" stroke-miterlimit="10" stroke-linecap="round" stroke-linejoin="round"/>
<path d="M710.94 699.748C711.752 709.117 707.763 712.087 703.881 716.252" stroke="#020144" stroke-width="3.73" stroke-miterlimit="10" stroke-linecap="round" stroke-linejoin="round"/>
<path d="M733.535 654.325C732.538 652.419 732.312 650.566 733.033 650.191C733.753 649.813 735.144 651.056 736.141 652.962C737.137 654.871 737.363 656.722 736.642 657.099C735.922 657.474 734.531 656.234 733.535 654.325Z" stroke="#020144" stroke-width="3.73" stroke-miterlimit="10" stroke-linecap="round" stroke-linejoin="round"/>
<path d="M759.155 670.629C758.632 677.592 748.655 678.564 745.308 679.215" stroke="#020144" stroke-width="3.73" stroke-miterlimit="10" stroke-linecap="round" stroke-linejoin="round"/>
<path d="M763.234 731.443C739.833 730.384 716.221 721.395 692.91 731.759L697.827 760.282C697.827 760.282 679.553 780.308 681.445 834.973C683.34 889.637 680.863 983.479 680.863 983.479C680.863 983.479 747.913 1022.15 826.951 980.945" stroke="#020144" stroke-width="3.73" stroke-miterlimit="10" stroke-linecap="round" stroke-linejoin="round"/>
<path d="M763.768 742.443L774.995 799.558" stroke="#020144" stroke-width="3.73" stroke-miterlimit="10" stroke-linecap="round" stroke-linejoin="round"/>
<path d="M717.685 766.533C717.685 766.533 735.213 766.575 749.833 781.838C764.456 797.098 808.159 864.073 827.67 892.72C847.18 921.368 876.334 958.751 876.334 958.751C876.334 958.751 869.303 978.996 849.526 984.724C849.526 984.724 753.542 901.777 722.489 853.424" stroke="#020144" stroke-width="3.73" stroke-miterlimit="10" stroke-linecap="round" stroke-linejoin="round"/>
<path d="M860.479 953.623C858.597 962.883 848.123 971.565 839.281 975.692" stroke="#020144" stroke-width="3.73" stroke-miterlimit="10" stroke-linecap="round" stroke-linejoin="round"/>
<path d="M871.932 967.283L877.238 970.352C877.238 970.352 880.705 964.698 889.285 964.189C897.865 963.681 913.805 960.711 913.805 960.711C913.805 960.711 916.982 968.883 897.062 970.764C897.062 970.764 904.196 986.881 927.261 981.816C942.537 978.46 928.069 990.394 915.541 990.907C903.015 991.421 890.775 994.982 859.33 980.207" stroke="#020144" stroke-width="3.73" stroke-miterlimit="10" stroke-linecap="round" stroke-linejoin="round"/>
<path d="M821.813 990.513L959.826 1290.74C959.826 1290.74 932.811 1336.95 902.49 1327.39L819.753 1179.16C819.753 1179.16 763.616 1106.41 735.28 1054.46" stroke="#020144" stroke-width="3.73" stroke-miterlimit="10" stroke-linecap="round" stroke-linejoin="round"/>
<path d="M707.921 994.023C707.921 994.023 700.58 1023.77 711.621 1054.57L690.083 1178.49L649.655 1284.5C649.655 1284.5 672.14 1322.16 698.665 1320.04C698.665 1320.04 749.122 1229.94 755.052 1210.69C760.982 1191.44 776.927 1120.32 776.927 1120.32" stroke="#020144" stroke-width="3.73" stroke-miterlimit="10" stroke-linecap="round" stroke-linejoin="round"/>
<path d="M945.49 1287.19C926.1 1312.06 911.957 1315.38 896.179 1316.09" stroke="#020144" stroke-width="3.73" stroke-miterlimit="10" stroke-linecap="round" stroke-linejoin="round"/>
<path d="M654.889 1270.77C665.124 1285.01 676.184 1297.61 694.16 1303.56" stroke="#020144" stroke-width="3.73" stroke-miterlimit="10" stroke-linecap="round" stroke-linejoin="round"/>
<path d="M948.43 1314.08C967.844 1328.53 1003.12 1297.31 1016.07 1314.97C1020.7 1321.29 1001.15 1328.4 998.307 1329.83C982.218 1337.95 935.918 1357.29 930.168 1357.31C922.354 1357.34 915.268 1328.37 915.268 1328.37" stroke="#020144" stroke-width="3.73" stroke-miterlimit="10" stroke-linecap="round" stroke-linejoin="round"/>
<path d="M675.711 1317.76C667.184 1330.38 702.231 1342.05 708.386 1344.64C710.956 1345.71 720.09 1350.66 716.26 1354.89C713.168 1358.3 635.212 1342.73 634.646 1339.8C631.646 1324.29 653.302 1307.59 656.9 1294.73" stroke="#020144" stroke-width="3.73" stroke-miterlimit="10" stroke-linecap="round" stroke-linejoin="round"/>
<path d="M799.255 1014.04L918.285 1272.4" stroke="#020144" stroke-width="3.73" stroke-miterlimit="10" stroke-linecap="round" stroke-linejoin="round"/>
<path d="M751.383 1157.37C745.961 1198.2 726.034 1238.34 700.905 1270.34" stroke="#020144" stroke-width="3.73" stroke-miterlimit="10" stroke-linecap="round" stroke-linejoin="round"/>
<path d="M322.767 690.434C337.671 713.956 335.642 774.564 292.8 756.345C279.144 750.537 276.11 741.8 268.11 731.636" stroke="#020144" stroke-width="3.73" stroke-miterlimit="10" stroke-linecap="round" stroke-linejoin="round"/>
<path d="M316.491 691.796C297.05 691.297 299.967 710.006 307.815 723.796" stroke="#020144" stroke-width="3.73" stroke-miterlimit="10" stroke-linecap="round" stroke-linejoin="round"/>
<path d="M288.164 704.73C280.224 702.273 272.765 711.106 269.775 717.17" stroke="#020144" stroke-width="3.73" stroke-miterlimit="10" stroke-linecap="round" stroke-linejoin="round"/>
<path d="M284.529 718.603C283.679 716.725 283.47 714.975 284.057 714.692C284.644 714.409 285.807 715.703 286.654 717.579C287.501 719.455 287.713 721.205 287.126 721.488C286.539 721.771 285.376 720.479 284.529 718.603Z" fill="#ABE0B6" stroke="#020144" stroke-width="3.73" stroke-miterlimit="10" stroke-linecap="round" stroke-linejoin="round"/>
<path d="M310.05 706.935C309.203 705.056 308.991 703.307 309.578 703.024C310.165 702.741 311.328 704.034 312.177 705.911C313.024 707.787 313.236 709.536 312.649 709.819C312.062 710.103 310.897 708.811 310.05 706.935Z" fill="#ABE0B6" stroke="#020144" stroke-width="3.73" stroke-miterlimit="10" stroke-linecap="round" stroke-linejoin="round"/>
<path d="M316.708 731.263C312.905 738.059 303.89 740.89 296.636 739.355" stroke="#020144" stroke-width="3.73" stroke-miterlimit="10" stroke-linecap="round" stroke-linejoin="round"/>
<path d="M319.903 685.035C314.735 688.412 309.24 679.227 305.462 677.1C301.284 674.747 299.946 678.101 296.104 677.908C291.88 677.694 288.576 672.809 284.407 673.941C274.579 676.607 281.898 686.476 280.229 692.093C279.018 696.163 272.547 691.838 270.585 693.852C268.221 696.285 273.661 701.698 273.661 701.698" stroke="#020144" stroke-width="3.73" stroke-miterlimit="10" stroke-linecap="round" stroke-linejoin="round"/>
<path d="M265.58 700.639C266.059 702.879 268.214 705.42 269.761 706.953" stroke="#020144" stroke-width="3.73" stroke-miterlimit="10" stroke-linecap="round" stroke-linejoin="round"/>
<path d="M263.241 708.309C263.241 708.309 267.636 716.417 264.563 720.494C264.563 720.494 252.056 720.018 260.398 731.878C268.743 743.739 269.653 743.276 275.62 742.086" stroke="#020144" stroke-width="3.73" stroke-miterlimit="10" stroke-linecap="round" stroke-linejoin="round"/>
<path d="M330.953 729.613C345.995 725.665 341.131 714.198 342.049 710.257C342.91 706.571 346.347 705.892 345.705 701.302C345.456 699.541 340.829 694.197 341.066 693.645C343.467 688.037 348.951 686.186 349.367 678.909C349.651 673.948 347.993 667.765 345.373 663.6C341.559 657.534 335.714 657.458 330.481 653.522C325.423 649.716 323.561 643.045 318.556 639.426C314.857 636.751 310.759 640.147 306.903 639.187C301.122 637.75 297.398 632.294 291.417 631.099C287.777 630.374 281.299 630.851 278.168 632.996C276.257 634.306 275.76 637.152 273.101 637.322C268.72 637.603 264.772 635.28 260.318 636.673C252.387 639.15 251.841 645.349 246.349 650.522C240.709 655.833 232.416 656.878 227.736 663.435C221.728 671.856 229.355 678.704 228.779 687.043C228.457 691.686 223.229 694.423 222.886 699.064C222.474 704.69 224.847 708.063 226.59 713.077C227.828 716.641 226.783 721.668 228.839 724.811C233.264 731.572 243.082 735.219 249.044 739.657C252.329 742.104 254.098 749.927 257.053 752.703C262.659 757.968 273.212 762.673 284.651 751.72" stroke="#020144" stroke-width="3.73" stroke-miterlimit="10" stroke-linecap="round" stroke-linejoin="round"/>
<path d="M267.247 833.383C267.247 833.383 258.801 795.447 307.824 766.188C356.847 736.93 458.342 686.68 458.342 686.68C458.342 686.68 466.328 673.729 477.155 666.208C487.981 658.684 498.863 645.751 498.863 645.751C498.863 645.751 506.416 654.356 488.773 668.839C488.773 668.839 516.47 684.643 536.224 670.819" stroke="#020144" stroke-width="3.73" stroke-miterlimit="10" stroke-linecap="round" stroke-linejoin="round"/>
<path d="M507.961 685.542C523.648 687.462 535.734 680.574 540.557 678.497" stroke="#020144" stroke-width="3.73" stroke-miterlimit="10" stroke-linecap="round" stroke-linejoin="round"/>
<path d="M509.271 694.197C519.732 694.048 524.808 695.328 535.674 689.92" stroke="#020144" stroke-width="3.73" stroke-miterlimit="10" stroke-linecap="round" stroke-linejoin="round"/>
<path d="M355.712 804.203C361.45 799.734 367.555 794.905 373.775 789.957C392.187 775.308 411.601 759.611 425.468 749.115C436.327 740.896 449.09 724.559 461.678 719.254C485.334 709.282 505.968 707.507 530.354 700.99" stroke="#020144" stroke-width="3.73" stroke-miterlimit="10" stroke-linecap="round" stroke-linejoin="round"/>
<path d="M373.775 789.953C391.141 828.792 370.907 881.881 372.673 922.258C372.685 922.541 372.699 922.824 372.714 923.106" stroke="#020144" stroke-width="3.73" stroke-miterlimit="10" stroke-linecap="round" stroke-linejoin="round"/>
<path d="M372.673 922.263C372.554 922.314 372.435 922.365 372.315 922.416C351.625 931.214 316.539 931.135 301.785 928.056C295.819 926.809 289.954 924.605 284.274 921.945" stroke="#020144" stroke-width="3.73" stroke-miterlimit="10" stroke-linecap="round" stroke-linejoin="round"/>
<path d="M273.596 847.623C278.928 866.233 284.582 883.828 285.187 903.663C285.899 927.02 278.495 949.599 274.469 972.318C269.761 998.91 267.793 1028.19 267.539 1055.16L318.02 1057.61" stroke="#020144" stroke-width="3.73" stroke-miterlimit="10" stroke-linecap="round" stroke-linejoin="round"/>
<path d="M273.313 800.563C273.309 800.57 273.305 800.576 273.301 800.582C265.956 812.126 253.76 829.251 242.934 846.005C234.721 858.716 227.296 871.213 223.376 880.897C220.496 888.018 215.993 901.031 223.526 906.637C235.434 915.502 256.181 910.325 269.595 909.416C274.766 909.065 279.996 908.89 285.22 908.642" stroke="#020144" stroke-width="3.73" stroke-miterlimit="10" stroke-linecap="round" stroke-linejoin="round"/>
<path d="M279.023 866.703C276.343 870.122 273.824 873.166 270.938 876.656C267.411 880.92 263.337 885.85 257.756 892.942" stroke="#020144" stroke-width="3.73" stroke-miterlimit="10" stroke-linecap="round" stroke-linejoin="round"/>
<path d="M347.854 743.673C345.97 753.58 342.66 762.828 344.899 773.638C346.269 780.25 354.425 785.415 355.008 791.111C355.282 793.786 353.27 796.178 353.355 798.876C353.403 800.42 354.361 802.298 355.712 804.204C358.188 807.698 361.985 811.287 363.914 813.089" stroke="#020144" stroke-width="3.73" stroke-miterlimit="10" stroke-linecap="round" stroke-linejoin="round"/>
<path d="M335.067 860.323C329.85 871.536 322.267 881.021 313.34 889.309" stroke="#020144" stroke-width="3.73" stroke-miterlimit="10" stroke-linecap="round" stroke-linejoin="round"/>
<path d="M342.535 862.513C339.096 869.903 333.587 875.677 328.338 881.713" stroke="#020144" stroke-width="3.73" stroke-miterlimit="10" stroke-linecap="round" stroke-linejoin="round"/>
<path d="M242.934 846.003C243.1 848.954 243.596 851.851 244.887 854.515C246.54 857.929 251.512 856.82 254.031 859.419C259.473 865.039 264.371 872.077 270.938 876.661C273.471 878.429 276.252 879.831 279.409 880.647" stroke="#020144" stroke-width="3.73" stroke-miterlimit="10" stroke-linecap="round" stroke-linejoin="round"/>
<path d="M284.651 751.723C284.652 751.726 284.654 751.728 284.655 751.731C288.8 760.297 288.865 771.398 288.011 781.12" stroke="#020144" stroke-width="3.73" stroke-miterlimit="10" stroke-linecap="round" stroke-linejoin="round"/>
<path d="M372.315 922.413C372.315 922.413 403.642 976.338 419.848 1034.03C419.848 1034.03 360.537 1070 325.642 1059.95L314.76 1031.2C314.76 1031.2 281.801 1010.99 280.735 979.218" stroke="#020144" stroke-width="3.73" stroke-miterlimit="10" stroke-linecap="round" stroke-linejoin="round"/>
<path d="M369.433 935.184C377.448 954.494 361.483 964.287 345.523 967.033" stroke="#020144" stroke-width="3.73" stroke-miterlimit="10" stroke-linecap="round" stroke-linejoin="round"/>
<path d="M412.921 1037.94L436.649 1112.26L476.844 1284.09C476.844 1284.09 510.335 1307.5 535.045 1306.99C559.756 1306.48 549.526 1316.45 549.526 1316.45C549.526 1316.45 513.291 1326.66 492.797 1328.74C492.797 1328.74 472.306 1340.54 463.068 1337.59C453.83 1334.64 457.412 1302.64 457.412 1302.64C457.412 1302.64 416.545 1209.1 406.717 1184.2C396.887 1159.3 391.915 1127.27 391.915 1127.27L356.214 1059.92C356.214 1059.92 347.031 1132.22 339.551 1150.29C332.074 1168.37 280.162 1297.19 280.162 1297.19C280.162 1297.19 296.072 1331 309.219 1336.31C322.368 1341.62 334.572 1343.6 334.821 1351.14C335.069 1358.67 296.502 1354.32 283.138 1353.17C277.282 1352.67 268.44 1343.61 258.904 1335.9C246.678 1326.03 235.287 1320.14 235.287 1320.14C235.287 1320.14 232.435 1301.79 247.797 1291.83C263.159 1281.86 271.66 1207.95 278.827 1177.61C285.993 1147.27 296.716 1136.31 296.716 1136.31L293.084 1056.4" stroke="#020144" stroke-width="3.73" stroke-miterlimit="10" stroke-linecap="round" stroke-linejoin="round"/>
<path d="M524.722 1306.02C522.78 1308.68 520.999 1311.6 519.43 1314.62C517.66 1318.02 516.159 1321.56 514.998 1324.98" stroke="#020144" stroke-width="3.73" stroke-miterlimit="10" stroke-linecap="round" stroke-linejoin="round"/>
<path d="M492.972 1328.72C492.56 1328.23 492.171 1327.78 491.828 1327.39C489.712 1324.96 487.305 1322.72 484.681 1320.73C476.676 1314.67 466.661 1310.98 456.804 1311.63" stroke="#020144" stroke-width="3.73" stroke-miterlimit="10" stroke-linecap="round" stroke-linejoin="round"/>
<path d="M308.443 1335.96C305.995 1338.92 303.599 1342.44 301.403 1346.06C299.713 1348.85 298.141 1351.69 296.754 1354.38" stroke="#020144" stroke-width="3.73" stroke-miterlimit="10" stroke-linecap="round" stroke-linejoin="round"/>
<path d="M249.585 1290.35C251.906 1293.19 253.841 1296.25 254.82 1297.77C259.568 1305.14 263.026 1315.28 264.086 1325.53C264.593 1330.44 264.551 1335.37 263.838 1340.02" stroke="#020144" stroke-width="3.73" stroke-miterlimit="10" stroke-linecap="round" stroke-linejoin="round"/>
<path d="M264.086 1325.53C267.573 1328.77 270.709 1331.69 271.573 1332.43C280.426 1339.96 290.777 1343.16 301.403 1346.07" stroke="#020144" stroke-width="3.73" stroke-miterlimit="10" stroke-linecap="round" stroke-linejoin="round"/>
<path d="M484.681 1320.73C495.824 1317.68 507.955 1316.25 519.43 1314.61" stroke="#020144" stroke-width="3.73" stroke-miterlimit="10" stroke-linecap="round" stroke-linejoin="round"/>
<path d="M1720.09 1357.31H2" stroke="#020144" stroke-width="3.35" stroke-miterlimit="10" stroke-linecap="round" stroke-linejoin="round"/>
<path d="M1751.63 507.394H1406.28" stroke="#020144" stroke-width="3.73" stroke-miterlimit="10" stroke-linecap="round" stroke-linejoin="round"/>
<path d="M1041.27 388.375H623.658" stroke="#020144" stroke-width="3.73" stroke-miterlimit="10" stroke-linecap="round" stroke-linejoin="round"/>
<path d="M1334.02 200.385H842.212" stroke="#020144" stroke-width="3.73" stroke-miterlimit="10" stroke-linecap="round" stroke-linejoin="round"/>
<path d="M1288.23 200.385C1286.05 195.829 1282.8 191.459 1280.77 188.663C1266.83 169.48 1246.64 166.063 1224.85 162.967C1217.01 161.855 1202.15 164.45 1196.28 157.56C1193.6 154.41 1199.42 129.281 1172.82 113.2C1138.38 92.387 1115.02 115.447 1113.77 114.556C1112.1 113.364 1104.34 94.841 1099.31 90.43C1074.45 68.611 1035.69 71.427 1009.01 88.803C995.224 97.779 983.226 116.525 975.304 132.957C973.433 136.838 962.297 164.314 962.297 164.314C962.297 164.314 918.051 170.921 915.422 179.45" stroke="#020144" stroke-width="3.73" stroke-miterlimit="10" stroke-linecap="round" stroke-linejoin="round"/>
<path d="M1130.01 200.385C1122.13 179.092 1094.15 163.826 1073.43 167.274C1064.29 168.794 1049.04 179.664 1048.34 179.351C1046.65 178.591 1035.61 167.903 1032.52 167.15C1019.07 163.883 1010.09 167.919 996.346 173.888" stroke="#020144" stroke-width="3.73" stroke-miterlimit="10" stroke-linecap="round" stroke-linejoin="round"/>
<path d="M1699.37 507.394C1696.59 502.643 1693.08 498.066 1692 496.864C1678.35 481.631 1658.94 483.696 1640.6 482.999C1638.93 482.934 1641.4 470.427 1632.42 462.678C1619.65 451.653 1602.05 447.376 1586.86 453.034C1585.69 453.472 1579 387.832 1512.05 388.35C1488.78 388.53 1462.87 397.807 1448 416.592C1440.81 425.667 1432.8 451.241 1432.43 451.299C1431.5 451.451 1412.16 443.893 1400.15 452.908C1396.16 455.898 1393.37 459.104 1391.39 462.235" stroke="#020144" stroke-width="3.73" stroke-miterlimit="10" stroke-linecap="round" stroke-linejoin="round"/>
<path d="M989 388.375C986.22 383.624 982.709 379.047 981.633 377.845C967.979 362.612 948.565 364.677 930.234 363.979C928.558 363.915 931.026 351.408 922.05 343.659C909.278 332.634 891.676 328.357 876.494 334.015C875.322 334.453 868.627 268.813 801.685 269.331C778.411 269.511 752.496 278.788 737.629 297.573C730.444 306.648 722.426 332.222 722.062 332.28C721.125 332.432 701.79 324.874 689.778 333.889C673.393 346.184 677.141 362.126 674.883 361.498C650.366 354.677 635.05 364.82 627.287 372.833" stroke="#020144" stroke-width="3.73" stroke-miterlimit="10" stroke-linecap="round" stroke-linejoin="round"/>
<path d="M172.035 1222.8C143.557 1251.28 133.355 1309.3 131.655 1357.31" stroke="#020144" stroke-width="3.73" stroke-miterlimit="10" stroke-linecap="round" stroke-linejoin="round"/>
<path d="M1713.09 1159.82C1667.98 1195.67 1638.65 1295.61 1627.6 1357.31" stroke="#020144" stroke-width="3.73" stroke-miterlimit="10" stroke-linecap="round" stroke-linejoin="round"/>
<path d="M108.95 1216.34C109.989 1225.59 113.736 1234.61 120.721 1241.81C127.694 1249 136.61 1253.03 145.814 1254.35C144.762 1245.13 140.903 1236.17 133.94 1228.99C126.969 1221.8 118.15 1217.67 108.95 1216.34Z" fill="#020144"/>
<path d="M1653.3 1138.16C1651.79 1149.6 1653 1161.33 1657.85 1171.58C1662.7 1181.82 1670.3 1188.65 1678.92 1192.28C1680.4 1180.88 1679.08 1169.18 1674.24 1158.96C1669.39 1148.72 1661.91 1141.79 1653.3 1138.16Z" fill="#020144"/>
<path d="M87.8101 1256.09C92.2811 1264.26 99.1661 1271.18 108.359 1275.19C117.539 1279.2 127.316 1279.54 136.336 1277.28C131.863 1269.14 124.895 1262.31 115.728 1258.31C106.552 1254.31 96.8251 1253.83 87.8101 1256.09Z" fill="#020144"/>
<path d="M1621.85 1181.66C1623.99 1192.53 1628.82 1202.42 1636.7 1209.3C1644.56 1216.17 1654.01 1218.72 1663.42 1217.96C1661.28 1207.13 1656.33 1197.33 1648.48 1190.48C1640.62 1183.61 1631.26 1180.9 1621.85 1181.66Z" fill="#020144"/>
<path d="M150.294 1287.01C154.764 1295.18 161.65 1302.1 170.845 1306.11C180.023 1310.12 189.802 1310.46 198.82 1308.2C194.347 1300.06 187.378 1293.23 178.214 1289.23C169.035 1285.22 159.311 1284.75 150.294 1287.01Z" fill="#020144"/>
<path d="M1674.4 1232.8C1676.54 1243.67 1681.37 1253.56 1689.25 1260.44C1697.12 1267.31 1706.56 1269.87 1715.98 1269.1C1713.83 1258.27 1708.89 1248.47 1701.03 1241.62C1693.17 1234.75 1683.81 1232.04 1674.4 1232.8Z" fill="#020144"/>
<path d="M205.415 1257.39C197.012 1253.38 187.38 1251.8 177.576 1253.92C167.787 1256.04 159.654 1261.48 153.664 1268.59C162.048 1272.57 171.699 1274.04 181.471 1271.92C191.259 1269.8 199.425 1264.5 205.415 1257.39Z" fill="#020144"/>
<path d="M1736.24 1209.03C1729.13 1202.33 1720.17 1198.31 1710.02 1198.72C1699.89 1199.14 1690.48 1203.95 1682.7 1211.24C1689.8 1217.91 1698.81 1221.79 1708.92 1221.37C1719.05 1220.96 1728.46 1216.33 1736.24 1209.03Z" fill="#020144"/>
<path d="M210.691 1228.95C204.223 1226.53 196.817 1225.83 189.291 1227.7C181.777 1229.57 175.548 1233.66 170.967 1238.82C177.422 1241.23 184.839 1241.84 192.341 1239.98C199.853 1238.11 206.11 1234.11 210.691 1228.95Z" fill="#020144"/>
<path d="M64.105 1299.54C72.759 1307.67 83.763 1313.19 96.298 1314.12C108.815 1315.03 120.532 1311.16 130.275 1304.4C121.63 1296.32 110.564 1290.94 98.068 1290.02C85.554 1289.1 73.846 1292.79 64.105 1299.54Z" fill="#020144"/>
<path d="M1598.26 1230.25C1603.29 1240.56 1610.85 1248.49 1620.76 1251.76C1630.66 1255.02 1641.07 1252.99 1650.57 1247.5C1645.54 1237.24 1637.89 1229.45 1628.01 1226.2C1618.12 1222.94 1607.76 1224.77 1598.26 1230.25Z" fill="#020144"/>
<path d="M1508.68 1221.15C1537.4 1249.87 1546.1 1310.93 1546.42 1357.32" stroke="#020144" stroke-width="3.73" stroke-miterlimit="10" stroke-linecap="round" stroke-linejoin="round"/>
<path d="M1567.26 1215.14C1566.3 1223.73 1562.81 1232.1 1556.33 1238.79C1549.85 1245.47 1541.57 1249.21 1533.03 1250.44C1534 1241.87 1537.59 1233.55 1544.05 1226.88C1550.53 1220.21 1558.72 1216.38 1567.26 1215.14Z" fill="#020144"/>
<path d="M1586.9 1252.06C1582.75 1259.65 1576.35 1266.07 1567.82 1269.8C1559.29 1273.52 1550.21 1273.84 1541.84 1271.74C1545.99 1264.18 1552.46 1257.84 1560.97 1254.12C1569.5 1250.4 1578.53 1249.96 1586.9 1252.06Z" fill="#020144"/>
<path d="M1528.87 1280.77C1524.72 1288.36 1518.32 1294.78 1509.79 1298.51C1501.26 1302.23 1492.18 1302.55 1483.81 1300.45C1487.96 1292.89 1494.43 1286.55 1502.94 1282.83C1511.47 1279.11 1520.5 1278.67 1528.87 1280.77Z" fill="#020144"/>
<path d="M1477.68 1253.27C1485.48 1249.55 1494.43 1248.08 1503.53 1250.05C1512.62 1252.02 1520.17 1257.07 1525.74 1263.67C1517.95 1267.37 1508.99 1268.73 1499.91 1266.77C1490.82 1264.8 1483.24 1259.88 1477.68 1253.27Z" fill="#020144"/>
<path d="M1472.78 1226.85C1478.79 1224.6 1485.66 1223.96 1492.65 1225.69C1499.63 1227.42 1505.42 1231.23 1509.67 1236.02C1503.68 1238.25 1496.79 1238.82 1489.82 1237.09C1482.84 1235.36 1477.03 1231.64 1472.78 1226.85Z" fill="#020144"/>
<path d="M1608.91 1292.41C1600.87 1299.96 1590.65 1305.09 1579.01 1305.94C1567.39 1306.8 1556.51 1303.2 1547.46 1296.93C1555.49 1289.42 1565.76 1284.42 1577.37 1283.57C1588.99 1282.72 1599.86 1286.14 1608.91 1292.41Z" fill="#020144"/>
</svg>
