<svg width="170" height="107" viewBox="0 0 170 107" fill="none" xmlns="http://www.w3.org/2000/svg">
<g clip-path="url(#clip0_4_2147)">
<path fill-rule="evenodd" clip-rule="evenodd" d="M32.9988 56.4439C33.7973 55.1826 34.4788 54.092 34.836 53.5137C37.001 49.9899 43.4399 41.89 45.9956 34.7414C47.9473 29.2884 47.651 24.3712 42.8509 21.7296C38.4879 19.3286 33.0105 20.9051 27.4608 24.9037C15.5168 33.5093 2.9535 53.1186 0.687896 60.0228C0.440955 60.7768 0.849358 61.5863 1.60319 61.8333C2.35357 62.0792 3.16316 61.6709 3.4101 60.917C5.5859 54.292 17.6707 35.4907 29.1369 27.2287C33.6192 24 37.9457 22.3023 41.4698 24.2426C44.9487 26.1558 44.7115 29.8216 43.2966 33.7749C40.8108 40.7324 34.5023 48.5828 32.3926 52.0127C31.0711 54.1636 25.7995 62.2246 25.5141 63.0242C25.1559 64.0254 25.7945 64.5634 26.0173 64.7241C26.1897 64.849 27.0898 65.416 27.9961 64.4793C40.9262 51.1316 70.0063 39.5987 97.7634 39.334C125.277 39.0712 151.556 49.9509 159.199 81.6283C159.386 82.3973 160.162 82.871 160.93 82.6873C161.7 82.5003 162.173 81.7248 161.986 80.9558C153.977 47.765 126.561 36.1915 97.7379 36.4663C73.446 36.6973 48.2027 45.3979 32.9988 56.4439Z" fill="#E63277"/>
<path fill-rule="evenodd" clip-rule="evenodd" d="M159.972 79.7007C157.282 77.6543 154.669 75.5313 151.817 73.6926C144.221 68.7928 135.292 65.3106 126.255 64.5365C125.464 64.4707 124.771 65.0564 124.703 65.8432C124.637 66.6342 125.223 67.3267 126.009 67.3953C134.587 68.1248 143.056 71.4535 150.262 76.1027C153.523 78.2086 156.474 80.6956 159.59 83.0019C159.747 83.1151 161.069 84.1584 161.409 84.302C162.198 84.6407 162.742 84.2772 162.972 84.0766C163.165 83.9114 163.358 83.6672 163.469 83.2998C163.556 82.9975 163.59 82.385 163.459 81.5562C163.052 78.9009 161.211 72.8433 161.014 71.817C158.756 60.0537 158.629 48.7304 158.197 36.8123C158.166 36.0213 157.502 35.4015 156.711 35.4292C155.921 35.4573 155.305 36.1233 155.332 36.9133C155.768 48.9822 155.912 60.4488 158.201 72.355C158.333 73.0607 159.285 76.9292 159.972 79.7007Z" fill="#E63277"/>
</g>
<defs>
<clipPath id="clip0_4_2147">
<rect width="170" height="107" fill="white"/>
</clipPath>
</defs>
</svg>
