<svg width="151" height="204" viewBox="0 0 151 204" fill="none" xmlns="http://www.w3.org/2000/svg">
<path fill-rule="evenodd" clip-rule="evenodd" d="M55.5703 142.023C71.0362 163.499 90.9698 183.416 115.517 193.262C124.448 196.845 133.654 198.218 143.067 199.711C143.726 199.816 144.35 199.364 144.457 198.7C144.561 198.036 144.109 197.413 143.445 197.309C134.214 195.845 125.181 194.519 116.422 191.005C92.2228 181.299 72.622 161.599 57.4065 140.415L57.7143 140.155C61.0545 137.337 62.5946 131.612 62.6318 124.842C62.6858 115.137 59.7861 103.279 55.753 95.5543C53.9398 92.0839 51.8734 89.436 49.7729 88.0763C48.1355 87.0148 46.4501 86.6847 44.7906 87.1695C41.255 88.205 39.5082 92.0411 39.3336 97.3841C38.9637 108.557 45.0828 126.463 49.6992 133.488C51.1423 135.682 52.6291 137.872 54.1626 140.045C53.5883 140.556 53.0243 141.055 52.4532 141.515C50.8235 142.821 49.1122 143.825 46.7048 143.916C42.9522 144.055 39.2388 142.598 35.7708 140.418C30.3616 137.011 25.5639 131.824 22.1694 127.721C3.2632 104.868 0.560243 79.7662 3.46963 57.2833C6.41099 34.5788 15.053 14.5152 18.7263 1.99155C18.9164 1.34785 18.5455 0.674227 17.9016 0.484023C17.2577 0.293818 16.5818 0.663488 16.3941 1.30887C12.6961 13.9131 4.0186 34.116 1.06001 56.973C-1.9305 80.0517 0.88936 105.81 20.2929 129.271C23.8299 133.546 28.842 138.928 34.4748 142.474C38.3757 144.928 42.573 146.501 46.7962 146.345C50.5863 146.204 52.9901 144.288 55.5703 142.023ZM55.9938 138.424L56.1486 138.297C59.0689 135.833 60.169 130.749 60.1995 124.828C60.2518 115.503 57.4743 104.106 53.5951 96.6804C52.2667 94.1332 50.8169 92.0645 49.2967 90.754C48.0412 89.6738 46.7646 89.1246 45.4761 89.5046C44.2561 89.8572 43.4111 90.7458 42.8336 91.9777C42.1533 93.4228 41.8345 95.305 41.7613 97.4626C41.4078 108.199 47.2945 125.402 51.7311 132.152C53.1109 134.248 54.5305 136.342 55.9938 138.424Z" fill="url(#paint0_linear_2879_7596)"/>
<path fill-rule="evenodd" clip-rule="evenodd" d="M147.481 197.664C147.16 198.089 146.554 198.524 145.898 198.986C144.335 200.087 142.371 201.113 141.465 201.635C140.882 201.972 140.686 202.716 141.021 203.297C141.358 203.879 142.1 204.078 142.683 203.741C143.792 203.1 146.407 201.727 148.113 200.365C149.028 199.634 149.689 198.87 149.942 198.214C150.375 197.097 149.85 196.015 148.144 195.241C146.126 194.326 141.94 193.538 139.42 190.837C138.965 190.348 138.191 190.322 137.704 190.779C137.212 191.239 137.185 192.008 137.644 192.499C140.048 195.072 143.76 196.187 146.191 197.077C146.652 197.246 147.174 197.506 147.481 197.664Z" fill="url(#paint1_linear_2879_7596)"/>
<defs>
<linearGradient id="paint0_linear_2879_7596" x1="17" y1="-6.45821e-07" x2="11" y2="94" gradientUnits="userSpaceOnUse">
<stop stop-color="#5DB9F5" stop-opacity="0"/>
<stop offset="1" stop-color="#5DB9F5"/>
</linearGradient>
<linearGradient id="paint1_linear_2879_7596" x1="17" y1="-6.45821e-07" x2="11" y2="94" gradientUnits="userSpaceOnUse">
<stop stop-color="#5DB9F5" stop-opacity="0"/>
<stop offset="1" stop-color="#5DB9F5"/>
</linearGradient>
</defs>
</svg>
