<svg width="363" height="107" viewBox="0 0 363 107" fill="none" xmlns="http://www.w3.org/2000/svg">
<g clip-path="url(#clip0_4_2724)">
<path fill-rule="evenodd" clip-rule="evenodd" d="M70.4623 56.4441C72.1673 55.1828 73.6226 54.0923 74.3853 53.5139C79.0081 49.9901 92.7572 41.8902 98.2143 34.7417C102.382 29.2886 101.749 24.3714 91.4995 21.7298C82.1832 19.3288 70.4874 20.9054 58.637 24.9039C33.1332 33.5096 6.30677 53.1189 1.46903 60.0231C0.941743 60.777 1.8138 61.5865 3.42346 61.8335C5.02574 62.0795 6.75444 61.6711 7.28174 60.9172C11.9277 54.2923 37.7324 35.4909 62.216 27.2289C71.787 24.0003 81.0253 22.3026 88.5503 24.2429C95.9788 26.1561 95.4725 29.8219 92.4512 33.7751C87.1431 40.7326 73.6727 48.583 69.1678 52.0129C66.3461 54.1638 55.0898 62.2248 54.4803 63.0245C53.7155 64.0256 55.0789 64.5637 55.5547 64.7244C55.9228 64.8493 57.845 65.4162 59.7802 64.4796C87.3896 51.1318 149.484 39.5989 208.754 39.3342C267.503 39.0715 323.618 49.9511 339.937 81.6285C340.336 82.3976 341.994 82.8713 343.633 82.6876C345.276 82.5006 346.287 81.7251 345.888 80.956C328.786 47.7653 270.245 36.1917 208.699 36.4665C156.829 36.6976 102.927 45.3981 70.4623 56.4441Z" fill="#9492FD"/>
<path fill-rule="evenodd" clip-rule="evenodd" d="M341.587 79.7007C335.842 77.6543 330.263 75.5313 324.174 73.6926C307.955 68.7928 288.888 65.3106 269.591 64.5365C267.902 64.4707 266.423 65.0564 266.277 65.8432C266.136 66.6342 267.387 67.3267 269.067 67.3953C287.384 68.1248 305.466 71.4535 320.853 76.1027C327.817 78.2086 334.119 80.6956 340.771 83.002C341.106 83.1151 343.93 84.1584 344.656 84.302C346.341 84.6407 347.502 84.2772 347.992 84.0766C348.406 83.9114 348.818 83.6672 349.053 83.2998C349.24 82.9975 349.313 82.385 349.034 81.5562C348.163 78.9009 344.233 72.8433 343.811 71.817C338.991 60.0537 338.72 48.7304 337.798 36.8123C337.731 36.0213 336.313 35.4015 334.624 35.4292C332.938 35.4573 331.621 36.1233 331.68 36.9133C332.61 48.9822 332.919 60.4488 337.804 72.355C338.087 73.0607 340.119 76.9292 341.587 79.7007Z" fill="#9492FD"/>
</g>
<defs>
<clipPath id="clip0_4_2724">
<rect width="363" height="107" fill="white"/>
</clipPath>
</defs>
</svg>
