<svg width="347" height="201" viewBox="0 0 347 201" fill="none" xmlns="http://www.w3.org/2000/svg">
<path fill-rule="evenodd" clip-rule="evenodd" d="M166.849 27.3878C205.893 8.7986 250.108 -4.04329 293.008 1.16843C308.616 3.0623 322.881 8.33801 337.535 13.6058C338.562 13.9735 339.099 15.1117 338.731 16.146C338.358 17.1789 337.219 17.7154 336.186 17.3423C321.817 12.177 307.836 6.9697 292.529 5.1127C250.237 -0.0257416 206.67 12.7668 168.214 31.1351L168.45 31.7496C171.017 38.412 168.719 47.8235 163.446 57.5473C155.889 71.4886 142.408 86.189 130.555 94.0785C125.228 97.622 120.186 99.7884 116.108 100.083C112.928 100.315 110.255 99.4621 108.26 97.4623C104.011 93.198 104.527 86.3301 108.481 78.5411C116.741 62.2492 139.59 41.4204 151.728 34.9908C155.52 32.9842 159.372 31.0185 163.277 29.1132C162.857 27.9285 162.442 26.7701 161.986 25.6626C160.68 22.51 159.019 19.7265 155.643 17.7022C150.378 14.5507 143.914 13.7166 137.232 14.1104C126.806 14.7338 115.855 18.3873 107.766 21.5929C62.7116 39.4478 39.0937 73.2691 25.5733 107.755C11.9242 142.584 8.51658 178.116 3.92498 198.94C3.69079 200.012 2.62974 200.685 1.55798 200.451C0.486226 200.216 -0.190898 199.155 0.0479288 198.083C4.6676 177.124 8.13406 141.365 21.8783 106.304C35.7514 70.9008 60.0532 36.2312 106.297 17.8971C114.726 14.5581 126.138 10.7922 136.994 10.1454C144.511 9.69987 151.759 10.7492 157.684 14.2953C163.001 17.4793 164.936 22.114 166.849 27.3878ZM164.625 32.8744L164.747 33.1787C166.991 39.004 164.566 47.1501 159.952 55.6536C152.691 69.0492 139.748 83.1854 128.351 90.7683C124.444 93.3709 120.741 95.193 117.533 95.8739C114.885 96.4332 112.625 96.2153 111.078 94.6575C109.609 93.1927 109.098 91.2556 109.24 89.037C109.402 86.4323 110.426 83.486 112.019 80.3385C119.959 64.685 141.923 44.6793 153.587 38.5026C157.211 36.5868 160.891 34.7056 164.625 32.8744Z" fill="#5DB9F5"/>
<path fill-rule="evenodd" clip-rule="evenodd" d="M342.247 20.0094C342.12 19.1485 341.595 18.0476 341.019 16.8699C339.647 14.065 337.642 11.0495 336.755 9.58932C336.185 8.64928 336.49 7.42915 337.426 6.85962C338.367 6.2914 339.586 6.59035 340.156 7.53195C341.24 9.32178 343.904 13.3461 345.276 16.6377C346.011 18.4041 346.357 20.0186 346.203 21.1579C345.944 23.0985 344.341 24.2343 341.289 24.001C337.68 23.7237 331.065 21.5596 325.332 23.4445C324.295 23.7877 323.166 23.2162 322.828 22.1775C322.485 21.1319 323.052 20.0098 324.096 19.667C329.562 17.874 335.755 19.1972 339.937 19.8349C340.73 19.9552 341.682 19.9941 342.247 20.0094Z" fill="#5DB9F5"/>
</svg>
