<svg width="38" height="34" viewBox="0 0 38 34" fill="none" xmlns="http://www.w3.org/2000/svg">
<g clip-path="url(#clip0_231_49654)">
<path fill-rule="evenodd" clip-rule="evenodd" d="M6.75361 21.9749C5.68486 21.9776 4.64039 22.2937 3.74946 22.8841C2.85853 23.4744 2.16026 24.313 1.74108 25.2961C1.32189 26.2792 1.20019 27.3637 1.39104 28.4152C1.58189 29.4668 2.07691 30.4393 2.81483 31.2124C3.18629 30.5677 4.62918 30.3927 5.21862 30.0858C5.89094 29.7235 5.78963 29.3889 5.78656 28.7411H4.83487C2.4495 28.7411 3.97835 28.8332 4.33447 26.2851C4.89013 22.5428 8.65699 22.5459 9.15126 26.2851C9.48282 28.9345 11.0884 28.7411 8.65085 28.7411H7.7053C7.7053 29.3305 7.60092 29.6867 8.19343 30.0397C8.97013 30.5063 10.3424 30.58 10.6832 31.2677C11.4407 30.4982 11.9531 29.5215 12.1557 28.461C12.3582 27.4004 12.2419 26.3036 11.8214 25.3091C11.4009 24.3147 10.695 23.4671 9.79301 22.8737C8.891 22.2802 7.83331 21.9674 6.75361 21.9749ZM10.6248 9.97126L10.3179 9.72259C9.62404 9.31121 8.58024 9.41559 7.89871 8.94282C7.84818 8.86514 7.80501 8.78292 7.76977 8.69722C7.70837 8.55293 7.65004 8.39022 7.6132 8.28584C7.76447 8.09892 7.90293 7.90199 8.02765 7.6964L8.44824 7.02715C8.58141 6.8478 8.66314 6.63551 8.68462 6.41315C8.68951 6.33832 8.6758 6.26343 8.64471 6.19519C8.61342 6.12647 8.56342 6.06796 8.50043 6.02634C8.46865 6.00532 8.43468 5.98782 8.39912 5.97415C8.42844 5.57472 8.43459 5.17393 8.41754 4.77379C8.40757 4.68246 8.39012 4.5921 8.36535 4.50363C8.24904 4.12525 7.9963 3.80358 7.65618 3.60105C7.47159 3.48594 7.27086 3.39902 7.06061 3.34318C6.9286 3.30327 7.17419 2.87961 7.03605 2.86426C6.36986 2.79672 5.2923 3.40458 4.82873 3.90805C4.5751 4.19193 4.42946 4.55601 4.41736 4.9365L4.44192 6.02327C4.3875 6.03769 4.33811 6.0668 4.29912 6.10741C4.26014 6.14802 4.23307 6.19856 4.22088 6.25352C4.19693 6.45146 4.23786 6.65184 4.33754 6.82453C4.3359 6.82952 4.3359 6.8349 4.33754 6.83988L4.81645 7.62887C4.97821 7.92093 5.17513 8.19208 5.40282 8.43627L5.33835 8.52837C5.24838 8.67047 5.14562 8.80405 5.03135 8.92747V8.94282C4.48182 9.32963 3.14024 9.4248 2.62756 9.71031H2.60607L2.29907 9.96205C1.6291 9.16614 1.20039 8.19544 1.06339 7.16415C0.92638 6.13286 1.08678 5.08389 1.52571 4.14067C1.96464 3.19745 2.66385 2.39922 3.54105 1.8399C4.41825 1.28057 5.43696 0.983431 6.47731 0.983431C7.51766 0.983431 8.53637 1.28057 9.41357 1.8399C10.2908 2.39922 10.99 3.19745 11.4289 4.14067C11.8678 5.08389 12.0282 6.13286 11.8912 7.16415C11.7542 8.19544 11.3255 9.16614 10.6555 9.96205L10.6248 9.97126ZM11.5458 14.1004L9.55957 12.111C8.19731 12.876 6.60362 13.1202 5.0748 12.7983C3.54598 12.4765 2.18605 11.6104 1.24787 10.3611C0.309688 9.11181 -0.142917 7.56434 -0.0257949 6.0064C0.0913268 4.44846 0.770206 2.98605 1.88462 1.89108C3.02801 0.684397 4.59332 -0.0339853 6.25374 -0.114087C7.91416 -0.194188 9.54134 0.370183 10.7956 1.4612C12.0498 2.55221 12.8341 4.08554 12.9848 5.74105C13.1355 7.39656 12.6408 9.04628 11.6042 10.3458L12.9765 11.7181C13.0532 11.6352 13.13 11.5554 13.2098 11.4755C13.8633 10.8214 14.6392 10.3025 15.4934 9.94843C16.3476 9.59438 17.2631 9.41215 18.1877 9.41215C19.1124 9.41215 20.0279 9.59438 20.8821 9.94843C21.7362 10.3025 22.5122 10.8214 23.1657 11.4755C23.2517 11.5615 23.3346 11.6505 23.4174 11.7396L24.9524 10.2046C24.0905 8.8653 23.7548 7.25437 24.01 5.68228C24.2653 4.11019 25.0934 2.68822 26.3348 1.69046C27.5762 0.692694 29.143 0.189759 30.7332 0.278591C32.3234 0.367422 33.8245 1.04173 34.947 2.17155C36.0696 3.30137 36.7342 4.80673 36.8128 6.39746C36.8913 7.9882 36.3783 9.55172 35.3725 10.7867C34.3668 12.0216 32.9395 12.8406 31.3658 13.0857C29.7921 13.3308 28.1834 12.9847 26.8497 12.1141L24.8327 14.1219C25.4112 15.7831 25.3488 17.6004 24.6577 19.218L27.7277 22.1376C29.0608 21.2662 30.6692 20.9191 32.2429 21.1631C33.8167 21.4072 35.2445 22.2251 36.251 23.4592C37.2576 24.6934 37.7718 26.2564 37.6944 27.8471C37.6171 29.4378 36.9537 30.9436 35.8321 32.0742C34.7105 33.2049 33.2101 33.8804 31.6201 33.9706C30.0301 34.0607 28.4629 33.5592 27.2207 32.5626C25.9785 31.566 25.1491 30.1449 24.8924 28.5731C24.6357 27.0014 24.9699 25.3902 25.8304 24.0502L23.1135 21.4898C21.9468 22.6322 20.4194 23.3337 18.7926 23.4743C17.1657 23.6149 15.5406 23.1858 14.1952 22.2604L12.2796 24.0717C13.1202 25.4191 13.434 27.0293 13.1607 28.5937C12.8874 30.1582 12.0463 31.5667 10.7986 32.5492C9.55087 33.5318 7.98442 34.0193 6.39951 33.9182C4.8146 33.8171 3.32278 33.1345 2.21004 32.0014C1.04079 30.8723 0.341188 29.3432 0.25132 27.7203C0.161452 26.0973 0.687949 24.5003 1.72539 23.249C2.76284 21.9977 4.23466 21.1845 5.84616 20.9721C7.45767 20.7598 9.08991 21.164 10.4161 22.1038L12.3103 20.3171C11.7118 19.4078 11.3317 18.3724 11.1996 17.2918C11.0675 16.2113 11.1871 15.1148 11.5489 14.0881L11.5458 14.1004ZM26.4598 10.5116C26.8006 9.83311 28.1728 9.75943 28.9495 9.28358C29.5421 8.93975 29.4407 8.59591 29.4377 7.98191H28.5167C26.0791 7.98191 27.6847 8.17532 28.0163 5.52593C28.5105 1.7867 32.2774 1.78363 32.8331 5.52593C33.1892 8.07401 34.715 7.98191 32.3327 7.98191H31.381C31.381 8.63275 31.2735 8.96431 31.9489 9.32656C32.5291 9.63356 33.972 9.82697 34.3466 10.4686C35.0862 9.69376 35.5817 8.71852 35.7713 7.66425C35.9609 6.60997 35.8364 5.5232 35.413 4.5392C34.9897 3.55519 34.2864 2.71739 33.3906 2.13006C32.4947 1.54274 31.446 1.23182 30.3748 1.23599C29.3036 1.24017 28.2573 1.55926 27.3661 2.15356C26.4748 2.74786 25.7781 3.59112 25.3624 4.57839C24.9468 5.56567 24.8307 6.65338 25.0286 7.70614C25.2264 8.75891 25.7295 9.73026 26.4751 10.4993L26.4598 10.5116ZM27.0738 31.062L27.3961 30.8133C28.09 30.402 29.1337 30.5063 29.8153 30.0336C29.8647 29.9557 29.9068 29.8735 29.9411 29.788C30.0056 29.6437 30.0639 29.481 30.1008 29.3766C29.9485 29.1904 29.81 28.9934 29.6863 28.7871L29.2658 28.1179C29.1306 27.9396 29.0486 27.7268 29.0294 27.5039C29.0245 27.4291 29.0382 27.3542 29.0693 27.2859C29.1006 27.2172 29.1506 27.1587 29.2136 27.1171C29.2453 27.0961 29.2793 27.0786 29.3149 27.0649C29.2856 26.6655 29.2794 26.2647 29.2965 25.8645C29.3064 25.7732 29.3239 25.6828 29.3486 25.5944C29.4736 25.214 29.7365 24.8942 30.0854 24.6979C30.2701 24.5815 30.4707 24.4925 30.681 24.4339C30.813 24.394 30.5674 23.9704 30.7056 23.955C31.3718 23.8875 32.4493 24.4953 32.9129 24.9988C33.1665 25.2827 33.3122 25.6468 33.3243 26.0272L33.2997 27.114C33.3541 27.1284 33.4035 27.1575 33.4425 27.1982C33.4815 27.2388 33.5085 27.2893 33.5207 27.3443C33.5447 27.5422 33.5038 27.7426 33.4041 27.9153L32.9252 28.7043C32.7634 28.9963 32.5665 29.2675 32.3388 29.5117L32.4033 29.6038C32.4941 29.7453 32.5968 29.8788 32.7103 30.0029C33.2598 30.3897 34.5983 30.4848 35.1141 30.7704H35.1355L35.4425 31.0221C36.1125 30.2262 36.5412 29.2555 36.6782 28.2242C36.8152 27.1929 36.6548 26.1439 36.2159 25.2007C35.777 24.2575 35.0778 23.4593 34.2006 22.8999C33.3234 22.3406 32.3047 22.0435 31.2643 22.0435C30.224 22.0435 29.2053 22.3406 28.328 22.8999C27.4508 23.4593 26.7516 24.2575 26.3127 25.2007C25.8738 26.1439 25.7134 27.1929 25.8504 28.2242C25.9874 29.2555 26.4161 30.2262 27.0861 31.0221L27.0738 31.062ZM13.9128 20.3846C14.8338 20.0101 15.6903 20.1145 16.4547 19.5803C16.5134 19.4819 16.5647 19.3793 16.6082 19.2733C16.685 19.0983 16.7525 18.908 16.7986 18.776C16.6142 18.5514 16.4469 18.3133 16.2982 18.0637L15.7947 17.2594C15.6332 17.0458 15.5334 16.792 15.5061 16.5257C15.5033 16.4361 15.52 16.3471 15.5552 16.2647C15.5934 16.1821 15.654 16.1119 15.7302 16.0621C15.7682 16.0362 15.8095 16.0155 15.853 16.0007C15.817 15.5196 15.8088 15.0368 15.8285 14.5547C15.8403 14.4438 15.8608 14.334 15.8899 14.2262C16.0311 13.7714 16.3349 13.3845 16.7433 13.1395C16.9654 13.0026 17.2064 12.8992 17.4586 12.8325C17.6213 12.7864 17.3235 12.2737 17.4893 12.2553C18.2906 12.1724 19.5892 12.9062 20.1479 13.5109C20.4509 13.8503 20.6266 14.2844 20.6453 14.7389L20.6146 16.0498C20.6798 16.067 20.739 16.1019 20.7856 16.1507C20.8322 16.1995 20.8644 16.2602 20.8786 16.3261C20.9062 16.5642 20.8579 16.8049 20.7404 17.0138V17.0322L20.1663 17.9808C19.9707 18.3323 19.7337 18.659 19.4602 18.954L19.5339 19.0615C19.6445 19.2345 19.771 19.3968 19.9115 19.5465V19.5619C20.6637 20.093 21.5448 19.9978 22.4565 20.3693C23.2197 19.5393 23.7246 18.5051 23.9097 17.3929C24.0948 16.2808 23.952 15.1388 23.4988 14.1064C23.0456 13.074 22.3016 12.196 21.3576 11.5794C20.4137 10.9629 19.3106 10.6346 18.1831 10.6346C17.0557 10.6346 15.9526 10.9629 15.0086 11.5794C14.0647 12.196 13.3206 13.074 12.8674 14.1064C12.4143 15.1388 12.2715 16.2808 12.4566 17.3929C12.6417 18.5051 13.1466 19.5393 13.9097 20.3693L13.9128 20.3846Z" fill="#E63277"/>
</g>
<defs>
<clipPath id="clip0_231_49654">
<rect width="37.7239" height="34" fill="white"/>
</clipPath>
</defs>
</svg>
