<svg width="488" height="420" viewBox="0 0 488 420" fill="none" xmlns="http://www.w3.org/2000/svg">
<path fill-rule="evenodd" clip-rule="evenodd" d="M256.722 144.35C255.959 144.325 255.193 144.313 254.425 144.313C225.155 144.313 199.937 161.858 188.65 187.032L169.914 187.118L169.556 195.891L112.478 195.641C112.478 195.641 111.881 182.552 104.785 178.939C96.8392 174.895 105.955 153.452 102.909 143.01C99.9807 132.975 94.0389 117.256 86.5044 116.282C84.0265 115.962 80.8499 117.097 77.4435 119.099C79.6501 115.272 81.9748 111.521 84.412 107.853L119.887 108.069L120.168 66.8187C156.751 34.4893 204.748 14.8701 257.275 14.8701C328.495 14.8701 391.388 50.9393 428.793 105.855L425.152 109.014C425.152 109.014 415.837 89.1197 406.82 89.1215C397.761 89.1233 370.801 109.025 370.801 109.025L377.171 60.2566L374.519 60.1793L367.452 107.742L350.428 112.898C350.428 112.898 343.835 103.76 338.84 103.294C331.994 102.655 315.116 110.974 315.116 110.974C315.116 110.974 304.567 97.3132 298.591 93.5585C296.665 92.3488 291.77 93.6791 291.77 93.6791C291.77 93.6791 292.849 89.7439 294.435 88.7658C296.281 87.6277 301.254 89.2467 302.842 86.851C304.479 84.3809 303.647 76.8365 304.256 73.9461C304.597 72.3253 307.251 70.9816 306.493 69.5091C305.517 67.6156 300.857 66.802 298.401 62.5853C297.212 60.5421 297.571 55.5402 297.571 55.5402C297.571 55.5402 266.871 59.7162 260.155 62.8899C256.526 64.605 259.379 72.8013 257.275 74.5823C255.171 76.3637 247.53 73.5772 247.53 73.5772C247.53 73.5772 243.19 69.9964 234.933 24.3612C234.101 19.7636 229.405 42.5848 229.714 51.9337C230.973 90.1361 243.671 125.235 256.722 144.35ZM446.501 137.432C458.316 163.608 464.896 192.664 464.896 223.249C464.896 257.132 456.822 289.136 442.5 317.428C439.848 310.725 435.367 301.11 429.55 296.208C420.663 288.718 399.108 283.553 391.263 278.114C386.608 274.887 382.182 271.237 382.475 263.572C382.655 258.859 381.971 256.509 382.22 253.47C382.54 249.558 386.806 250.178 389.268 240.165C389.852 237.788 388.24 235.017 386.394 233.41C381.057 228.763 365.601 211.469 357.246 212.286C348.891 213.102 338.653 231.704 336.264 238.309C334.547 243.055 338.672 248.328 342.912 251.913C344.881 253.578 346.979 258.769 348.772 262.367C351.92 268.684 358.516 272.436 358.152 273.448C355.542 280.703 330.709 289.581 322.5 294.988C311.632 302.146 308.208 327.313 306.55 331.184C304.845 335.168 303.476 311.739 296.588 302.372L290.417 279.354C311.986 266.843 326.513 243.443 326.513 216.665C326.513 206.286 324.331 196.416 320.403 187.49C336.175 191.357 351.451 192.133 356.522 192.396C397.539 194.52 429.645 161.795 446.501 137.432ZM189.962 249.065C196.632 262.396 207.288 273.377 220.356 280.431C218.954 282.073 216.98 283.873 214.193 285.81C207.734 290.299 194.256 295.45 188.067 303.342C181.878 311.235 178.874 322.725 177.058 333.164C174.312 348.951 165.46 394.193 171.592 398.058C177.317 401.666 180.733 402.777 191.465 401.217L186.634 419.237C114.615 393.053 61.086 327.991 51.2715 249.369L189.962 249.065Z" fill="#D4D4FE"/>
<path d="M252.985 29.1889C260.893 29.1889 267.304 22.7781 267.304 14.87C267.304 6.96183 260.893 0.551025 252.985 0.551025C245.077 0.551025 238.666 6.96183 238.666 14.87C238.666 22.7781 245.077 29.1889 252.985 29.1889Z" fill="#9492FD"/>
<path d="M454.903 141.325C460.424 141.325 464.9 136.849 464.9 131.328C464.9 125.807 460.424 121.332 454.903 121.332C449.382 121.332 444.906 125.807 444.906 131.328C444.906 136.849 449.382 141.325 454.903 141.325Z" fill="#9492FD"/>
<path d="M444.905 317.16C450.426 317.16 454.902 312.684 454.902 307.163C454.902 301.642 450.426 297.166 444.905 297.166C439.384 297.166 434.908 301.642 434.908 307.163C434.908 312.684 439.384 317.16 444.905 317.16Z" fill="#9492FD"/>
<path d="M138.601 320.41C146.071 320.41 152.127 314.354 152.127 306.883C152.127 299.413 146.071 293.357 138.601 293.357C131.13 293.357 125.074 299.413 125.074 306.883C125.074 314.354 131.13 320.41 138.601 320.41Z" fill="#9492FD"/>
<path d="M106.014 381.811C119.447 381.811 130.337 370.921 130.337 357.488C130.337 344.055 119.447 333.165 106.014 333.165C92.5811 333.165 81.6914 344.055 81.6914 357.488C81.6914 370.921 92.5811 381.811 106.014 381.811Z" stroke="#9492FD" stroke-width="4.43311" stroke-miterlimit="10" stroke-linecap="round" stroke-linejoin="round"/>
<path d="M469.51 281.376C478.183 281.376 485.214 274.345 485.214 265.672C485.214 256.999 478.183 249.969 469.51 249.969C460.837 249.969 453.807 256.999 453.807 265.672C453.807 274.345 460.837 281.376 469.51 281.376Z" stroke="#9492FD" stroke-width="4.43311" stroke-miterlimit="10" stroke-linecap="round" stroke-linejoin="round"/>
<path d="M457.891 266.774C465.239 266.774 471.196 260.818 471.196 253.469C471.196 246.121 465.239 240.164 457.891 240.164C450.543 240.164 444.586 246.121 444.586 253.469C444.586 260.818 450.543 266.774 457.891 266.774Z" stroke="#9492FD" stroke-width="4.43311" stroke-miterlimit="10" stroke-linecap="round" stroke-linejoin="round"/>
<path d="M158.047 60.996C165.395 60.996 171.352 55.0391 171.352 47.691C171.352 40.3428 165.395 34.386 158.047 34.386C150.699 34.386 144.742 40.3428 144.742 47.691C144.742 55.0391 150.699 60.996 158.047 60.996Z" stroke="#9492FD" stroke-width="4.43311" stroke-miterlimit="10" stroke-linecap="round" stroke-linejoin="round"/>
<path d="M72.8281 333.946C116.548 309.554 160.267 285.162 203.987 260.77" stroke="#9492FD" stroke-width="2.21655" stroke-miterlimit="10" stroke-linecap="round" stroke-linejoin="round"/>
<path d="M319.262 214.847C369.32 215.582 419.379 216.318 469.437 217.054" stroke="#9492FD" stroke-width="2.21655" stroke-miterlimit="10" stroke-linecap="round" stroke-linejoin="round"/>
<path d="M197.459 7.97546C212.511 55.7229 227.563 103.47 242.615 151.218" stroke="#9492FD" stroke-width="2.21655" stroke-miterlimit="10" stroke-linecap="round" stroke-linejoin="round"/>
<path d="M89.699 188.369C90.4264 188.875 94.429 186.528 95.4369 186.024C101.27 183.107 106.149 177.815 107.778 171.301C108.398 168.822 108.74 166.537 108.067 164.011C107.616 162.32 105.884 159.893 106.335 158.093C107.148 154.839 109.881 152.146 110.232 148.639C110.539 145.568 109.604 141.564 109.293 138.463C108.96 135.132 110.407 131.589 110.088 128.07C109.321 119.63 100.996 111.386 94.7872 106.418C89.3848 102.097 83.3278 98.0151 75.9511 99.4908C68.4435 100.992 61.2278 103.963 58.557 111.977C56.5376 118.036 57.1221 125.022 54.2267 130.813C50.5398 138.187 42.085 142.878 39.1435 149.938C38.1466 152.331 37.4823 155.556 37.7721 158.165C37.9937 160.156 39.7879 162.661 39.2875 164.661C38.2352 168.87 30.0453 176.13 33.9465 181.333C35.2069 183.012 37.1965 183.281 39.1435 183.281C46.4521 183.281 50.3238 178.696 53.722 173.032C54.3689 171.955 56.162 171.892 57.0415 171.012C60.3086 167.745 63.8934 161.31 64.475 156.65C64.6942 154.903 62.185 152.695 62.5985 151.454C63.3983 149.054 65.4804 147.153 65.9915 144.597C66.3369 142.866 65.3634 139.221 66.2078 137.814C66.7649 136.884 69.8511 136.869 70.8264 136.514C73.51 135.538 76.2823 133.58 78.1875 131.462C80.3384 129.074 82.0982 125.951 83.5285 123.091C83.6643 122.819 84.7236 120.348 84.9726 120.348C85.3109 120.348 86.4391 123.13 86.6317 123.452C88.3833 126.37 89.7877 129.86 92.1174 132.4C94.1974 134.67 95.9401 137.595 98.3241 139.546C99.2767 140.325 102.4 142.102 102.798 143.298C103.452 145.262 100.641 149.727 99.8395 151.598C97.4194 157.244 94.8045 162.756 90.6732 167.404C89.3887 168.85 84.0115 170.768 83.6732 171.445C81.3907 176.009 85.8174 185.669 89.699 188.369Z" fill="#9492FD"/>
<path d="M42.1367 233.18C44.9909 229.6 47.4969 225.758 49.3152 221.645C49.3953 221.909 49.4584 222.11 49.495 222.2C50.1518 223.817 51.9913 225.643 53.3592 226.685C55.2917 228.157 57.5029 229.096 59.9135 229.238C59.9794 229.242 60.05 229.248 60.1245 229.256C59.822 230.261 59.4861 231.255 59.0964 232.229C57.7576 235.576 56.2751 238.803 54.7246 241.994C50.3944 241.318 45.5541 237.348 43.5617 234.758C43.2195 234.312 42.6424 233.77 42.1367 233.18Z" fill="#9492FD"/>
<path d="M51.9181 197.94C46.7225 194.574 39.615 186.348 37.6953 183.149L38.8681 184.045C40.2367 184.045 45.2195 182.287 45.699 182.527C47.1538 183.255 48.6032 185.839 49.908 186.943C49.9388 186.97 49.97 186.996 50.0013 187.022C49.7236 189.026 50.896 192.579 51.1681 193.803C51.4663 195.144 51.7178 196.529 51.9181 197.94Z" fill="#9492FD"/>
<path d="M90.7878 185.977C90.0317 188.735 87.9694 192.562 85.4407 194.188C84.7577 194.627 81.6162 195.578 81.4389 196.465C81.3023 197.148 83.8601 198.848 84.3371 199.087C87.3264 200.582 89.6426 200.365 92.1333 198.052C95.118 195.281 97.4325 187.756 96.7565 183.7C96.3331 181.161 91.0828 184.903 90.7878 185.977Z" fill="#9492FD"/>
<path d="M188.963 140.322C189.162 140.244 191.919 137.659 192.116 137.493C193.951 135.956 196.279 134.46 198.423 133.388C204.68 130.259 211.939 130.204 216.943 124.821C220.159 121.362 215.568 118.964 215.763 116.747C215.846 115.815 216.774 114.615 217.047 113.685C217.612 111.76 217.849 109.616 217.92 107.615C218.186 100.104 213.018 94.127 206.278 91.7966C201.241 90.0538 196.611 93.0903 193.174 96.3829C192.757 96.7826 190.244 100.717 189.958 100.692C189.7 100.67 188.818 99.8173 188.493 99.685C186.994 99.0743 184.62 98.6817 183.008 99.0661C181.628 99.3945 180.489 100.038 179.34 100.837C178.772 101.231 178.619 102.681 177.986 102.406C176.948 101.955 175.584 99.4325 174.607 98.5959C170.605 95.1686 164.388 92.114 159.202 94.8057C156.125 96.4027 153.726 98.9285 152.405 102.177C151.879 103.471 152.204 106.365 151.408 107.357C147.153 112.663 142.744 118.612 143.144 126.016C143.356 129.949 143.687 134.037 145.149 137.743C145.283 138.08 146.875 141.253 146.707 141.528C144.847 144.549 142.741 146.25 142.1 150.105C141.235 155.313 142.625 161.33 144.812 166.083C144.985 166.459 146.201 170.936 146.621 170.836C149.369 170.181 150.753 164.821 153.56 164.152C154.723 163.875 155.64 168.929 156.779 169.03C156.835 169.034 157.109 168.699 157.148 168.657C159.427 166.273 161.374 163.873 164.154 161.979C168.218 159.212 174.6 158.744 177.94 155.021C181.943 150.561 181.281 145.586 182.566 140.096C182.693 139.549 183.215 135.086 183.831 134.939C184 134.898 184.224 135.544 184.247 135.583C185.175 137.195 186.237 140.386 187.705 141.562" fill="#9492FD"/>
<path d="M115.026 69.3377C108.738 58.9057 100.991 71.5695 94.6581 73.0445C89.2369 74.3064 87.1576 63.6655 82.1443 67.235C74.9833 72.3342 79.8019 85.065 85.9451 88.4462C89.6838 90.5028 93.3906 88.171 96.8502 89.2162C99.8055 90.1081 99.5257 96.3059 105.772 95.9981C111.029 95.7396 113.513 89.0261 112.75 84.5873C112.456 82.8846 110.891 81.1202 111.213 79.3498C111.566 77.4063 113.128 76.097 114.291 74.6394C115.27 73.4134 115.116 71.8366 114.954 70.39C114.909 69.9871 115.42 69.9906 115.026 69.3377Z" fill="#9492FD"/>
<path d="M21.8047 34.2077V27.0416H49.0059C49.2598 27.3129 49.5017 27.591 49.7294 27.875C49.9315 28.0556 50.1181 28.3113 50.2901 28.6273C50.9504 29.5834 51.4586 30.6037 51.7814 31.6787L50.9948 30.5104C51.9041 33.8803 52.0899 39.1742 51.7026 41.0024C50.3862 47.2052 44.9168 46.5232 41.1948 50.2452C37.5039 53.9357 41.4788 60.1371 34.5571 63.5977C33.0201 64.367 31.0107 64.2574 29.5016 63.4396C24.8571 60.924 23.8893 53.8325 25.2345 49.2185C26.0399 46.4572 27.9199 43.3204 26.8939 40.3697C26.091 38.0606 23.7925 36.154 21.8047 34.2077Z" fill="#9492FD"/>
<path d="M64.6157 45.937C64.6575 45.9927 64.6604 46.0512 64.6157 46.1129V45.937ZM61.2022 67.4634C60.3769 68.5402 59.4765 69.552 58.4831 70.4623C54.4472 74.1617 43.5346 80.0854 38.4944 75.0448C37.1988 73.7482 37.5606 71.1589 38.3359 69.6722C40.3254 65.8587 44.8628 64.4918 47.106 60.9024C49.8275 56.5488 46.2165 51.1095 51.6884 47.8659C54.3429 46.2934 57.916 45.1631 61.011 45.2592C61.0699 45.261 61.1337 45.2635 61.2022 45.267V67.4634Z" fill="#9492FD"/>
<path d="M193.888 180.562C198.333 184.862 206.479 180.603 209.939 177.217C210.971 176.207 213.738 172.403 212.406 170.796C211.763 170.019 210.057 170.042 209.158 169.958C204.42 169.512 199.503 170.775 196.465 174.751C195.809 175.609 192.913 179.619 193.888 180.562Z" fill="#9492FD"/>
<path d="M230.95 167.452C232.071 163.097 232.225 158.836 233.59 154.469C235.939 146.951 241.246 137.641 237.174 129.948C233.953 123.866 225.392 122.558 220.324 127.12C218.52 128.743 217.572 130.618 217.18 132.966C217.135 133.24 217.146 133.527 216.804 133.595C215.214 133.914 213.574 133.166 211.962 133.28C208.013 133.563 204.228 135.751 203.16 139.757C200.51 149.694 210.362 159.993 218.689 163.837C220.312 164.585 230.376 169.679 230.95 167.452Z" fill="#9492FD"/>
<path d="M103.989 139.635C103.804 140.562 103.54 141.635 103.209 142.813C100.834 151.259 94.949 165.094 88.9597 169.087C87.0528 170.358 85.1561 171 83.3006 171.139C75.7604 171.703 68.8969 163.963 64.7486 156.42C63.7818 154.661 62.9626 152.914 62.3164 151.285" stroke="#020144" stroke-width="2.21655" stroke-miterlimit="10" stroke-linecap="round" stroke-linejoin="round"/>
<path d="M103.207 142.813C97.1575 140.159 91.7044 132.143 88.5023 126.958C87.3929 125.161 86.5017 123.088 85.7697 121.113C85.4441 120.234 85.0686 119.319 84.9345 118.381C84.9338 118.374 84.9331 118.366 84.9324 118.356M84.9324 118.356C84.9292 118.294 84.9345 118.185 84.9345 118.229C84.9345 118.271 84.9338 118.314 84.9324 118.356ZM84.9324 118.356C84.8487 120.825 82.3626 123.625 81.2153 125.592C77.2876 132.326 72.7523 136.635 66.002 138.015" stroke="#020144" stroke-width="2.21655" stroke-miterlimit="10" stroke-linecap="round" stroke-linejoin="round"/>
<path d="M90.2663 144.774C90.2663 147.936 90.8852 152.581 88.2324 154.791" stroke="#020144" stroke-width="2.21655" stroke-miterlimit="10" stroke-linecap="round" stroke-linejoin="round"/>
<path d="M73.9551 100.934C76.2603 98.1862 80.9881 98.6837 84.1225 99.465C92.4238 101.533 98.9834 108.233 104.01 114.81C107.522 119.403 111.247 124.788 111.01 130.809C110.898 133.642 108.739 135.959 108.862 138.772C109.025 142.479 110.67 145.728 110.124 149.556C109.839 151.549 105.822 158.028 105.931 158.762C105.954 158.919 107.003 160.126 107.132 160.403C107.951 162.173 108.404 164.437 108.465 166.385C108.62 171.302 107.225 175.501 104.787 178.939C102.845 181.679 100.241 183.934 97.2324 185.683C94.9808 186.992 92.5025 188.017 89.905 188.747C89.5805 188.839 89.2543 188.925 88.9262 189.008" stroke="#020144" stroke-width="2.21655" stroke-miterlimit="10" stroke-linecap="round" stroke-linejoin="round"/>
<path d="M83.2988 171.138C83.4691 177.126 85.4104 184.002 88.9257 189.008C89.0799 189.228 89.2374 189.443 89.3977 189.656" stroke="#020144" stroke-width="2.21655" stroke-miterlimit="10" stroke-linecap="round" stroke-linejoin="round"/>
<path d="M76.0625 101.674C75.3553 101.34 74.6524 101.096 73.9573 100.934C72.6249 100.625 71.3208 100.618 70.0693 100.855C65.3379 101.749 61.3531 106.117 59.3858 110.716C56.7575 116.86 57.5835 124.05 54.7988 129.933C50.9147 138.136 42.3304 142.877 39.0368 151.484C37.9909 154.219 37.4582 157.506 37.9583 160.402C38.17 161.63 39.3716 163.26 39.2223 164.493C39.1311 165.25 35.0307 169.805 34.4625 171.289C33.783 173.066 33.428 174.978 33.3837 176.907C33.3411 178.755 33.5834 180.619 34.0983 182.396" stroke="#020144" stroke-width="2.21655" stroke-miterlimit="10" stroke-linecap="round" stroke-linejoin="round"/>
<path d="M64.7489 156.42C63.7325 161.827 60.4796 168.118 57.1821 171.109C56.1164 172.076 53.6402 172.515 52.8376 173.563C51.8514 174.847 51.9773 177.03 50.7736 178.488C49.333 180.234 47.4988 181.466 45.4691 182.238C43.0224 183.17 40.2912 183.436 37.6214 183.134C36.4242 182.999 35.2389 182.75 34.0977 182.396" stroke="#020144" stroke-width="2.21655" stroke-miterlimit="10" stroke-linecap="round" stroke-linejoin="round"/>
<path d="M33.3838 176.907C30.7299 177.66 28.2102 178.505 25.9262 180.651C19.6741 186.526 19.0237 196.649 17.615 204.546C15.0169 219.116 13.2929 234.238 11.9062 249.048" stroke="#020144" stroke-width="2.21655" stroke-miterlimit="10" stroke-linecap="round" stroke-linejoin="round"/>
<path d="M26.8125 249.048C29.0429 247.107 31.1236 244.811 33.1511 242.869C41.89 234.494 50.4998 224.217 52.1057 211.9C52.8668 206.071 52.4433 199.53 51.1701 193.803C50.841 192.323 49.1951 187.436 50.3902 186.002C51.9564 184.122 53.4179 188.923 53.6665 189.668C54.3914 191.843 54.1939 194.474 55.383 196.455C55.8589 197.248 57.2286 197.663 57.879 198.405C59.6714 200.454 60.0179 204.858 59.2047 207.297" stroke="#020144" stroke-width="2.21655" stroke-miterlimit="10" stroke-linecap="round" stroke-linejoin="round"/>
<path d="M53.2773 181.009C56.2628 183 57.021 189.561 57.021 192.866" stroke="#020144" stroke-width="2.21655" stroke-miterlimit="10" stroke-linecap="round" stroke-linejoin="round"/>
<path d="M55.7715 177.421C58.7782 181.931 60.062 186.518 60.062 192.009" stroke="#020144" stroke-width="2.21655" stroke-miterlimit="10" stroke-linecap="round" stroke-linejoin="round"/>
<path d="M51.2031 249.048C54.0041 243.512 56.7683 238.052 59.0973 232.229C61.0599 227.322 61.656 221.935 63.5016 217.014C64.2138 215.114 66.292 213.465 67.4393 211.807C68.7175 209.961 69.3129 207.921 69.9754 205.802C71.1305 202.105 72.2515 198.846 73.9797 195.391C74.3617 194.625 75.3937 193.015 74.3798 192.254C70.9868 189.71 68.8497 202.941 65.9707 200.062C63.8336 197.925 64.5929 193.064 64.2354 190.385C63.5314 185.102 61.7046 178.912 57.8287 175.036" stroke="#020144" stroke-width="2.21655" stroke-miterlimit="10" stroke-linecap="round" stroke-linejoin="round"/>
<path d="M89.9062 188.748C89.7502 189.058 89.581 189.361 89.3994 189.656C87.5425 192.68 84.396 194.934 80.9439 196.298C78.278 197.351 75.4298 197.872 72.8522 197.806M69.4093 197.419C67.8311 197.129 66.2309 196.694 64.6347 196.132C64.5864 196.115 64.5386 196.098 64.4903 196.081M49.9856 187.175C48.3098 185.626 46.7852 183.967 45.4688 182.238" stroke="#020144" stroke-width="2.21655" stroke-miterlimit="10" stroke-linecap="round" stroke-linejoin="round"/>
<path d="M97.2331 185.683C96.3184 192.211 93.1135 201.695 85.9879 199.82C83.9593 199.286 82.3893 197.844 80.9434 196.298" stroke="#020144" stroke-width="2.21655" stroke-miterlimit="10" stroke-linecap="round" stroke-linejoin="round"/>
<path d="M64.6347 196.132C64.5939 196.183 64.5531 196.232 64.5123 196.282M51.912 197.879C46.3525 194.863 40.9027 188.482 37.6211 183.134" stroke="#020144" stroke-width="2.21655" stroke-miterlimit="10" stroke-linecap="round" stroke-linejoin="round"/>
<path d="M104.787 178.939C110.096 181.086 111.773 187.016 112.059 193.302" stroke="#020144" stroke-width="2.21655" stroke-miterlimit="10" stroke-linecap="round" stroke-linejoin="round"/>
<path d="M216.635 134.748C212.068 133.05 206.301 133.242 204.029 137.218C202.86 139.265 202.407 141.409 202.495 143.56C202.605 146.261 203.566 148.976 205.025 151.532C208.187 157.073 213.691 161.871 217.958 164.18C221.917 166.321 226.403 167.957 230.903 168.819" stroke="#020144" stroke-width="2.21655" stroke-miterlimit="10" stroke-linecap="round" stroke-linejoin="round"/>
<path d="M216.635 134.748C217.294 123.786 232.536 119.627 238.368 131.978C241.195 137.963 236.333 145.695 234.299 151.215C233.307 153.911 232.533 156.691 231.973 159.516C231.366 162.581 231.011 165.699 230.903 168.818" stroke="#020144" stroke-width="2.21655" stroke-miterlimit="10" stroke-linecap="round" stroke-linejoin="round"/>
<path d="M231.975 159.516C230.523 156.184 228.566 152.946 226.451 149.933C225.608 148.732 224.739 147.566 223.868 146.445C223.28 145.688 222.69 144.951 222.105 144.236" stroke="#020144" stroke-width="2.21655" stroke-miterlimit="10" stroke-linecap="round" stroke-linejoin="round"/>
<path d="M233.565 140.839C230.859 143.545 228.547 146.705 226.451 149.933" stroke="#020144" stroke-width="2.21655" stroke-miterlimit="10" stroke-linecap="round" stroke-linejoin="round"/>
<path d="M229.766 138.839C227.38 140.431 225.515 143.679 223.867 146.445" stroke="#020144" stroke-width="2.21655" stroke-miterlimit="10" stroke-linecap="round" stroke-linejoin="round"/>
<path d="M205.263 115.528C206.251 114.539 207.47 114.019 208.76 113.873C211.185 113.599 213.858 114.65 215.703 116.413C218.178 118.778 219.163 122.422 216.066 125.864C212.705 129.598 206.681 130.514 202.231 132.315C197.032 134.419 191.914 137.574 187.602 141.37" stroke="#020144" stroke-width="2.21655" stroke-miterlimit="10" stroke-linecap="round" stroke-linejoin="round"/>
<path d="M208.76 113.873C207.791 111.598 205.787 109.959 203.475 108.766C203.095 108.57 202.707 108.387 202.313 108.219C197.155 106.016 190.857 106.181 186.051 108.92C183.466 110.393 181.314 112.611 180.004 115.605C177.125 122.186 181.066 129.011 184.356 134.919C184.731 135.592 185.097 136.253 185.444 136.9C186.236 138.378 186.947 139.865 187.602 141.37" stroke="#020144" stroke-width="2.21655" stroke-miterlimit="10" stroke-linecap="round" stroke-linejoin="round"/>
<path d="M199.201 117.471C196.116 118.627 193.482 120.588 191.256 123.043C190.076 124.344 189.01 125.784 188.052 127.316C186.57 129.686 185.346 132.278 184.357 134.919C183.117 138.226 182.245 141.61 181.691 144.737" stroke="#020144" stroke-width="2.21655" stroke-miterlimit="10" stroke-linecap="round" stroke-linejoin="round"/>
<path d="M189.641 116.382C189.641 119.932 191.358 123.576 193.061 126.641" stroke="#020144" stroke-width="2.21655" stroke-miterlimit="10" stroke-linecap="round" stroke-linejoin="round"/>
<path d="M186.145 120.113C186.145 123.542 188.085 128.115 190.186 130.916" stroke="#020144" stroke-width="2.21655" stroke-miterlimit="10" stroke-linecap="round" stroke-linejoin="round"/>
<path d="M215.703 116.413C216.539 114.945 217.186 113.249 217.308 112.962C218.955 109.121 218.309 103.483 216.609 99.8277C215.568 97.5878 214.196 96.016 212.257 94.4654C199.477 84.2409 190.251 97.8988 186.051 108.92" stroke="#020144" stroke-width="2.21655" stroke-miterlimit="10" stroke-linecap="round" stroke-linejoin="round"/>
<path d="M201.688 98.8951C202.746 101.367 203.045 105.129 202.313 108.219" stroke="#020144" stroke-width="2.21655" stroke-miterlimit="10" stroke-linecap="round" stroke-linejoin="round"/>
<path d="M205.574 98.118C206.998 100.254 206.61 105.584 206.274 107.6" stroke="#020144" stroke-width="2.21655" stroke-miterlimit="10" stroke-linecap="round" stroke-linejoin="round"/>
<path d="M177.777 103.8C177.777 101.861 174.675 98.8028 173.817 97.7913C170.379 93.7416 162.821 91.8251 158.043 94.4452C149.689 99.0273 150.333 110.442 152.512 118.07" stroke="#020144" stroke-width="2.21655" stroke-miterlimit="10" stroke-linecap="round" stroke-linejoin="round"/>
<path d="M151.107 107.916C146.739 110.195 144.536 115.732 143.566 120.257C141.958 127.763 143.304 135.744 147.162 142.266C148.786 145.012 150.855 147.499 153.336 149.583" stroke="#020144" stroke-width="2.21655" stroke-miterlimit="10" stroke-linecap="round" stroke-linejoin="round"/>
<path d="M170.489 131.819C168.07 133.029 165.571 133.769 163.254 135.314C158.455 138.514 154.903 143.827 153.337 149.583C152.279 153.474 152.129 157.569 153.115 161.351C153.378 162.358 153.704 163.332 154.08 164.281C154.83 166.172 155.779 167.96 156.827 169.703" stroke="#020144" stroke-width="2.21655" stroke-miterlimit="10" stroke-linecap="round" stroke-linejoin="round"/>
<path d="M176.69 136.348C178.427 136.782 179.441 139.114 180.184 140.334C180.991 141.659 181.486 143.172 181.692 144.737C182.073 147.639 181.459 150.723 179.988 153.131C177.797 156.715 173.283 158.181 169.651 159.824C164.657 162.084 159.541 165.108 156.826 169.703" stroke="#020144" stroke-width="2.21655" stroke-miterlimit="10" stroke-linecap="round" stroke-linejoin="round"/>
<path d="M180.234 134.724C172.056 136.359 166.448 147.722 163.598 154.46" stroke="#020144" stroke-width="2.21655" stroke-miterlimit="10" stroke-linecap="round" stroke-linejoin="round"/>
<path d="M170.885 141.388C171.536 144.683 172.969 147.959 174.08 151.015" stroke="#020144" stroke-width="2.21655" stroke-miterlimit="10" stroke-linecap="round" stroke-linejoin="round"/>
<path d="M168.055 145.522C168.692 148.406 169.955 151.377 171.176 153.821" stroke="#020144" stroke-width="2.21655" stroke-miterlimit="10" stroke-linecap="round" stroke-linejoin="round"/>
<path d="M165.156 150.975C163.108 151.282 160.496 151.843 159.268 152.048" stroke="#020144" stroke-width="2.21655" stroke-miterlimit="10" stroke-linecap="round" stroke-linejoin="round"/>
<path d="M147.16 142.266C137.241 147.343 142.215 163.394 146.699 170.829" stroke="#020144" stroke-width="2.21655" stroke-miterlimit="10" stroke-linecap="round" stroke-linejoin="round"/>
<path d="M154.078 164.281C153.744 164.535 153.42 164.794 153.128 165.071C151.342 166.762 148.712 168.804 146.699 170.829" stroke="#020144" stroke-width="2.21655" stroke-miterlimit="10" stroke-linecap="round" stroke-linejoin="round"/>
<path d="M202.496 143.56C196.398 145.64 191.974 151.411 188.893 156.801C183.605 166.056 181.206 176.453 180.861 186.991" stroke="#020144" stroke-width="2.21655" stroke-miterlimit="10" stroke-linecap="round" stroke-linejoin="round"/>
<path d="M205.025 151.532C204.627 151.739 204.24 151.943 203.87 152.132C192.026 158.169 188.187 173.773 187.895 186.991" stroke="#020144" stroke-width="2.21655" stroke-miterlimit="10" stroke-linecap="round" stroke-linejoin="round"/>
<path d="M174.207 163.305C175.977 169.085 176.587 175.298 176.774 181.326" stroke="#020144" stroke-width="2.21655" stroke-miterlimit="10" stroke-linecap="round" stroke-linejoin="round"/>
<path d="M174.188 116.534C162.12 115.96 153.226 127.567 149.445 137.576" stroke="#020144" stroke-width="2.21655" stroke-miterlimit="10" stroke-linecap="round" stroke-linejoin="round"/>
<path d="M168.666 108.366C166.294 111.926 165.078 114.787 164.682 118.696" stroke="#020144" stroke-width="2.21655" stroke-miterlimit="10" stroke-linecap="round" stroke-linejoin="round"/>
<path d="M161.925 110.851C160.455 114.424 160.038 118.008 160.229 121.709" stroke="#020144" stroke-width="2.21655" stroke-miterlimit="10" stroke-linecap="round" stroke-linejoin="round"/>
<path d="M197.494 186.991H170.098V249.048H197.494V186.991Z" stroke="#020144" stroke-width="2.21655" stroke-miterlimit="10" stroke-linecap="round" stroke-linejoin="round"/>
<path d="M213.072 171.186C207.297 168.444 200.198 169.995 196.177 175.286C194.85 177.033 194.08 179.016 193.691 181.033C199.466 183.775 206.566 182.224 210.586 176.933C211.915 175.184 212.683 173.206 213.072 171.186Z" stroke="#020144" stroke-width="2.21655" stroke-miterlimit="10" stroke-linecap="round" stroke-linejoin="round"/>
<path d="M170.097 208.721L157.532 245.098H84.6875L101.771 195.64H170.097" stroke="#020144" stroke-width="2.21655" stroke-miterlimit="10" stroke-linecap="round" stroke-linejoin="round"/>
<path d="M157.374 245.098H65.4961V249.048H157.374V245.098Z" stroke="#020144" stroke-width="2.21655" stroke-miterlimit="10" stroke-linecap="round" stroke-linejoin="round"/>
<path d="M157.373 245.098H84.9922V249.048H157.373V245.098Z" stroke="#020144" stroke-width="2.21655" stroke-miterlimit="10" stroke-linecap="round" stroke-linejoin="round"/>
<path d="M131.348 222.431C131.818 220.314 133.57 218.902 135.258 219.277C136.948 219.653 137.935 221.674 137.464 223.792C136.993 225.909 135.242 227.322 133.554 226.945C131.864 226.57 130.877 224.549 131.348 222.431Z" stroke="#020144" stroke-width="2.21655" stroke-miterlimit="10" stroke-linecap="round" stroke-linejoin="round"/>
<path d="M73.4805 97.3633V43.1354H119.704V108.053H98.1488" stroke="#020144" stroke-width="2.21655" stroke-miterlimit="10" stroke-linecap="round" stroke-linejoin="round"/>
<path d="M64.6161 21.3036H18.3926V86.2202H64.6161V21.3036Z" stroke="#020144" stroke-width="2.21655" stroke-miterlimit="10" stroke-linecap="round" stroke-linejoin="round"/>
<path d="M76.8965 95.0315V48.8737H116.293V102.315H96.4763" stroke="#020144" stroke-width="2.21655" stroke-miterlimit="10" stroke-linecap="round" stroke-linejoin="round"/>
<path d="M61.2028 27.0414H21.8066V80.482H61.2028V27.0414Z" stroke="#020144" stroke-width="2.21655" stroke-miterlimit="10" stroke-linecap="round" stroke-linejoin="round"/>
<path d="M94.0223 146.191C94.2574 145.066 94.9649 144.262 95.6026 144.395C96.2396 144.529 96.5655 145.549 96.3303 146.675C96.0941 147.799 95.3866 148.603 94.7497 148.47C94.1117 148.336 93.7861 147.315 94.0223 146.191Z" fill="#020144" stroke="#020144" stroke-width="2.21655" stroke-miterlimit="10" stroke-linecap="round" stroke-linejoin="round"/>
<path d="M81.1199 144.804C81.355 143.679 82.0636 142.875 82.7006 143.008C83.3386 143.142 83.6642 144.162 83.428 145.287C83.1928 146.412 82.4842 147.215 81.8473 147.082C81.2096 146.949 80.8837 145.928 81.1199 144.804Z" fill="#020144" stroke="#020144" stroke-width="2.21655" stroke-miterlimit="10" stroke-linecap="round" stroke-linejoin="round"/>
<path d="M89.3969 159.774C86.4582 161.598 81.4641 160.256 78.9766 158.189" stroke="#020144" stroke-width="2.21655" stroke-miterlimit="10" stroke-linecap="round" stroke-linejoin="round"/>
<path d="M50.7399 141.616C51.1453 135.79 54.9986 131.313 59.3451 131.616C63.6914 131.919 66.886 136.887 66.4799 142.713C66.0746 148.54 62.2213 153.016 57.8748 152.713C53.5282 152.411 50.3335 147.442 50.7399 141.616Z" stroke="#020144" stroke-width="2.21655" stroke-miterlimit="10" stroke-linecap="round" stroke-linejoin="round"/>
<path d="M96.5686 106.408C98.5256 98.5765 88.0439 93.1887 81.7702 93.6069C78.1638 93.8473 74.9773 95.8677 72.4188 98.3276C71.5705 99.1433 70.7896 99.9863 70.0689 100.855C64.2037 107.924 62.3468 116.67 60.8892 125.836C60.5853 127.744 60.4257 129.747 60.1973 131.737" stroke="#020144" stroke-width="2.21655" stroke-miterlimit="10" stroke-linecap="round" stroke-linejoin="round"/>
<path d="M174.671 249.048H1.79297" stroke="#020144" stroke-width="2.21655" stroke-miterlimit="10" stroke-linecap="round" stroke-linejoin="round"/>
<path d="M382.836 100.151C383.168 102.057 383.126 104.021 382.319 105.772C381.688 107.143 380.305 106.733 379.352 107.574C378.138 108.646 376.135 114.442 373.981 110.455C373.517 109.595 373.181 108.65 372.971 107.664C376.183 105.054 379.456 102.525 382.836 100.151Z" fill="#9492FD"/>
<path d="M390.597 97.4135C390.612 97.5301 390.627 97.6426 390.641 97.7493C391.004 100.431 391.838 103.222 393.032 105.921C391.432 108.832 386.19 115.823 383.059 113.088C382.263 112.393 382.404 110.649 382.768 109.776C383.299 108.506 384.732 107.8 385.342 106.54C386.734 103.662 386.224 100.016 389.077 97.9394C389.369 97.727 389.94 97.5433 390.597 97.4135Z" fill="#9492FD"/>
<path d="M397.068 116.261C396.931 116.369 396.791 116.48 396.648 116.593C396.83 117.076 396.835 117.506 396.512 117.771L396.305 116.865C395.631 117.401 394.898 117.986 394.094 118.616C393.054 119.43 392.014 120.237 390.966 121.035C390.703 120.778 390.45 120.458 390.213 120.067C388.842 117.81 391.226 112.026 394.325 113.699C394.572 113.832 395.361 114.583 395.977 115.425L395.766 114.497C396.487 114.95 396.898 115.571 397.068 116.261Z" fill="#9492FD"/>
<path d="M382.774 127.841C382.657 129.611 382.731 131.404 382.912 133.102C380.094 134.156 377.248 135.118 374.381 135.98C373.875 135.329 373.529 134.511 373.403 133.502C372.658 127.553 379.157 128.724 382.774 127.841Z" fill="#9492FD"/>
<path d="M406.549 121.757C403.707 123.439 400.803 125.034 397.848 126.533C397.389 124.781 398.007 122.423 399.113 120.728C401.634 120.73 404.107 121.004 406.549 121.757ZM401.891 118.068C401.904 118.079 401.916 118.089 401.929 118.1L401.878 118.07L401.891 118.068Z" fill="#9492FD"/>
<path d="M380.063 122.746C379.914 122.798 380.139 120.553 380.143 120.045C380.151 118.924 379.3 117.403 378.138 117.058C374.923 116.104 368.715 120.65 368.909 123.931C368.986 125.244 376.423 123.41 377.478 123.17C378.029 123.044 380.448 122.612 380.063 122.746Z" fill="#9492FD"/>
<path d="M367.432 112.269C369.011 113.392 369.627 115.976 368.857 117.914C368.173 119.638 365.608 119.258 364.195 119.838C361.812 120.815 362.267 126.469 358.076 124.081C356.99 123.463 356.456 122.608 356.334 121.643C357.394 120.806 358.438 119.968 359.437 119.113C362.097 116.837 364.752 114.54 367.432 112.269Z" fill="#9492FD"/>
<path d="M367.075 126.799C367.067 125.715 368.423 129.182 367.593 131.25C366.972 132.8 363.962 135.251 362.193 134.004C360.246 132.633 361.758 129.128 363.042 127.85C363.698 127.198 364.898 126.475 365.858 126.546C366.176 126.57 367.078 127.106 367.075 126.799Z" fill="#9492FD"/>
<path d="M363.668 138.708C361.565 139.146 359.457 139.528 357.346 139.85C357.496 138.452 357.543 137.041 357.476 135.582C358.528 135.018 359.714 134.877 360.941 135.483C362.133 136.07 363.353 137.306 363.668 138.708Z" fill="#9492FD"/>
<path d="M302.963 47.6663C302.712 51.0521 298.488 54.8628 295.207 56.0356C294.067 56.4417 291.85 56.2895 290.92 56.9871C290.518 57.2893 290.925 59.2065 290.852 59.641C290.588 61.2241 289.318 62.7261 288.334 63.9276C287.314 65.1753 283.25 67.0375 282.959 68.4859C282.7 69.7878 286.157 71.4816 285.341 73.1127C285.226 73.3407 284.427 72.7194 284.32 72.6371C282.109 70.917 279.257 71.0617 279.013 74.4734C278.866 76.5418 279.952 78.9342 281.327 80.4613C281.596 80.76 283.436 81.5749 283.436 81.958C283.436 82.9999 279.412 87.7146 278.469 88.4214C275.643 90.5404 275.659 87.0897 272.753 85.9722C270.279 85.0203 267.629 84.4901 265.201 83.3865C259.683 80.8784 258.148 73.2801 258.465 67.8734C258.562 66.2229 259.368 64.943 259.758 63.3829C260.304 61.2007 258.648 59.0828 260.303 57.1918C261.537 55.7813 264.121 55.7033 265.066 54.1301C266.16 52.3051 266.105 49.9772 267.378 48.2791C271.97 42.1571 278.108 42.0153 285.137 41.4752C287.577 41.2868 291.535 40.6698 293.777 41.9511C296.554 43.5382 295.072 45.7629 296.771 47.462C297.716 48.4064 303.046 46.5417 302.963 47.6663Z" fill="#9492FD"/>
<path d="M271.583 96.1714C268.329 91.2723 264.688 87.5843 261.483 82.6625C259.614 79.7952 258.342 76.0043 255.791 73.6683C253.215 71.3084 249.103 71.0045 247.168 74.2311C244.973 77.89 245.611 82.5965 246.043 86.6282C246.489 90.7818 248.326 94.8585 248.552 98.9788C248.687 101.433 248.061 103.846 248.336 106.358C248.987 112.307 251.104 117.866 254.295 122.917C257.067 127.304 260.821 132.071 265.043 135.155C265.906 135.786 266.662 136.529 267.449 137.25C267.755 137.532 268.06 138.493 268.306 138.157C268.963 137.257 267.938 127.514 267.76 125.891C267.019 119.124 266.822 112.272 268.103 105.555C268.508 103.433 269.022 101.186 269.84 99.1735C270.251 98.1628 272.182 97.0754 271.583 96.1714Z" fill="#9492FD"/>
<path d="M291.725 150.909C291.438 151.557 295.515 152.23 296.989 152.575C300.017 153.286 303.268 153.536 306.375 153.542C317.552 153.559 328.389 151.766 338.743 147.55C341.896 146.266 344.967 144.786 347.932 143.122C349.11 142.461 350.348 141.942 351.417 141.099C351.683 140.89 352.255 140.524 352.255 140.524C352.255 140.524 351.454 141.026 351.002 141.128C349.017 141.577 346.776 141.423 344.741 141.486C339.629 141.644 334.559 140.719 329.445 140.537C323.897 140.341 317.687 138.797 312.386 137.178C311.626 136.945 306.497 134.317 306.38 134.325C305.408 134.392 303.799 137.89 303.137 138.633C301.043 140.987 299.231 143.622 297.052 145.941C295.478 147.614 292.628 148.868 291.725 150.909Z" fill="#9492FD"/>
<path d="M292.896 127.615C293.219 127.673 289.908 129.763 289.613 129.969C289.02 130.382 286.333 133.336 285.627 133.09C285.235 132.953 285.204 128.095 285.12 127.588C285.001 126.868 284.897 126.282 284.908 125.546C284.926 124.27 284.076 122.719 284.69 121.533C284.846 121.232 285.61 122.061 285.785 122.206C287.489 123.609 290.703 127.211 292.896 127.615Z" fill="#9492FD"/>
<path d="M297.119 55.0979C297.12 55.1036 297.122 55.1096 297.123 55.1153C297.635 57.152 297.826 60.4605 298.405 62.5852M299.871 65.0515C301.7 66.6279 304.606 66.8715 306.083 68.8409C307.852 71.1986 304.168 72.4817 303.874 74.2415C303.63 75.7076 303.803 77.2209 303.984 78.7409C304.283 81.2401 304.606 83.7563 303.138 86.1066C299.749 91.5285 293.258 84.2302 292.165 93.8355C292.137 94.0844 292.112 94.3447 292.091 94.6168C292 95.8055 291.961 97.0223 292.009 98.2175C292.024 98.609 292.045 98.9981 292.072 99.3857C292.176 100.896 292.375 102.381 292.745 103.863" stroke="#020144" stroke-width="2.21655" stroke-miterlimit="10" stroke-linecap="round" stroke-linejoin="round"/>
<path d="M303.385 47.1921C303.043 49.1533 301.87 51.0028 300.347 52.5495C299.371 53.5396 298.253 54.4057 297.117 55.098C296.844 55.2646 296.569 55.4214 296.295 55.5672C295.714 55.8768 295.136 56.1371 294.579 56.3424C294.309 56.4421 292.538 56.5988 291.43 56.7208C290.917 56.7772 290.546 56.8258 290.53 56.8584C290.244 57.4308 290.692 58.8055 290.53 59.5084C290.157 61.1256 289.132 62.7694 288.139 64.1376C288.027 64.2908 287.916 64.4408 287.807 64.5866C287.244 65.3381 285.364 66.2339 284.17 67.0035C283.659 67.3326 283.274 67.6383 283.169 67.9001C283.151 67.9465 283.14 68.0008 283.136 68.0621C283.115 68.4072 283.315 68.9708 283.569 69.5595C283.644 69.734 283.724 69.9113 283.805 70.0854C284.105 70.7355 284.411 71.3462 284.495 71.6537C284.613 72.091 285.234 72.8648 285.188 73.157C285.176 73.2304 285.123 73.2734 285.009 73.2734C283.824 73.2734 283.013 72.0615 282.023 71.5923C281.396 71.2948 280.696 71.2962 279.782 72.0952C276.38 75.0739 279.316 80.7692 283.083 82.2027C283.172 82.2367 283.261 82.268 283.351 82.297C284.257 82.5896 285.203 82.6311 286.113 82.3272" stroke="#020144" stroke-width="2.21655" stroke-miterlimit="10" stroke-linecap="round" stroke-linejoin="round"/>
<path d="M303.385 47.1921C300.789 47.2598 296.578 47.2786 296.293 46.7076C295.808 45.7394 296.452 44.4982 295.672 43.3293C293.52 40.1002 287.224 40.6059 283.951 40.7786C277.897 41.0975 270.334 43.4786 266.714 48.7071C266.307 49.2941 266.194 50.3421 266.1 51.3486C266 52.4122 265.921 53.4293 265.541 53.8091C265.358 53.9932 265.159 54.1549 264.95 54.301C263.349 55.4178 261.098 55.6076 259.75 57.5333C258.037 59.9807 259.779 60.945 259.405 63.186C258.74 67.1844 256.721 70.7418 258.233 74.977C259.176 77.6181 260.666 80.1326 262.883 81.8544C263.244 82.1353 263.624 82.3949 264.025 82.6304C265.483 83.4879 267.321 84.1358 269.138 84.7919C271.304 85.5739 273.44 86.3676 274.867 87.5426C275.282 87.8848 275.638 88.2593 275.917 88.6753C276.08 88.9197 276.217 89.1782 276.325 89.4531C276.87 90.8494 276.641 92.662 275.196 95.1342C275.108 95.2842 275.015 95.4371 274.918 95.5921" stroke="#020144" stroke-width="2.21655" stroke-miterlimit="10" stroke-linecap="round" stroke-linejoin="round"/>
<path d="M283.238 81.6799C283.193 81.8551 283.142 82.0293 283.086 82.2027C282.856 82.9074 282.53 83.595 282.129 84.2536C281.541 85.2197 280.791 86.123 279.944 86.9273C279.05 87.7742 278.049 88.5105 277.013 89.0928C276.786 89.2205 276.558 89.3407 276.328 89.4531" stroke="#020144" stroke-width="2.21655" stroke-miterlimit="10" stroke-linecap="round" stroke-linejoin="round"/>
<path d="M286.454 100.095C285.974 99.6149 285.471 99.157 284.95 98.7268C281.906 96.2099 278.271 94.6413 275.197 95.1342C274.037 95.3204 272.957 95.8003 272.019 96.6337C271.801 96.8273 271.591 97.0398 271.389 97.2724C271.299 97.376 271.211 97.4838 271.124 97.5955C270.252 98.7211 269.557 100.255 269.111 102.264C267.969 107.397 267.541 112.928 267.541 118.531C267.541 119.122 267.546 119.713 267.555 120.305C267.584 122.186 267.658 124.071 267.767 125.948C267.936 128.884 268.189 131.8 268.485 134.649C268.726 136.968 268.995 139.242 269.271 141.446C269.813 145.781 269.905 152.281 274.008 155.016C280.675 159.461 286.287 155.144 291.512 150.6C291.909 150.255 292.298 149.904 292.682 149.546C292.877 149.364 293.07 149.181 293.262 148.995C297.92 144.503 301.677 139.114 305.653 133.963C310.089 128.217 314.798 122.77 321.334 119.199" stroke="#020144" stroke-width="2.21655" stroke-miterlimit="10" stroke-linecap="round" stroke-linejoin="round"/>
<path d="M277.672 139.673C278.151 139.444 280.266 137.23 280.519 137.001C283.188 134.574 286.615 132.691 289.599 130.673C293.505 128.032 297.4 125.39 301.216 122.613C306.536 118.74 311.288 114.25 316.367 110.137C318.626 108.308 322.284 108.048 324.87 106.819C334.148 102.407 341.187 100.836 348.958 110.023" stroke="#020144" stroke-width="2.21655" stroke-miterlimit="10" stroke-linecap="round" stroke-linejoin="round"/>
<path d="M334.842 107.348C339.827 106.001 345.33 109.976 348.346 113.623" stroke="#020144" stroke-width="2.21655" stroke-miterlimit="10" stroke-linecap="round" stroke-linejoin="round"/>
<path d="M335.055 110.64C337.256 109.912 342.407 112.604 344.372 114.751" stroke="#020144" stroke-width="2.21655" stroke-miterlimit="10" stroke-linecap="round" stroke-linejoin="round"/>
<path d="M319.418 118.279C327.203 123.352 332.969 110.588 340.885 115.746" stroke="#020144" stroke-width="2.21655" stroke-miterlimit="10" stroke-linecap="round" stroke-linejoin="round"/>
<path d="M292.164 93.8356C294.113 93.3554 296.19 92.9759 297.993 93.4306C303.617 94.8492 309.37 105.347 313.494 109.339" stroke="#020144" stroke-width="2.21655" stroke-miterlimit="10" stroke-linecap="round" stroke-linejoin="round"/>
<path d="M285.176 114.947C284.949 116.618 284.834 118.352 284.805 120.119C284.801 120.346 284.799 120.573 284.797 120.801C284.779 124.9 285.196 129.152 285.718 133.18" stroke="#020144" stroke-width="2.21655" stroke-miterlimit="10" stroke-linecap="round" stroke-linejoin="round"/>
<path d="M284.804 120.119C284.032 119.903 283.203 119.764 282.492 119.561C280.88 119.1 279.18 119.021 277.517 118.804C274.225 118.372 270.621 118.841 267.555 120.305" stroke="#020144" stroke-width="2.21655" stroke-miterlimit="10" stroke-linecap="round" stroke-linejoin="round"/>
<path d="M272.02 96.6336C271.845 96.441 271.675 96.2474 271.507 96.0555C271.097 95.5863 270.708 95.1274 270.339 94.7178C265.167 88.987 261.72 83.1296 257.761 76.5484C256.009 73.6353 251.991 70.075 248.543 72.9927C248.042 73.4165 247.622 73.9201 247.271 74.4844C245.991 76.5459 245.638 79.4165 245.643 82.1622C245.646 84.1471 245.835 86.0668 245.995 87.5684C246.349 90.8954 247.189 94.9742 248.558 99.0654C251.739 108.573 257.778 118.15 267.215 118.522C267.324 118.526 267.433 118.529 267.542 118.531" stroke="#020144" stroke-width="2.21655" stroke-miterlimit="10" stroke-linecap="round" stroke-linejoin="round"/>
<path d="M471.144 72.4881C467.071 96.9266 458.831 120.051 444.881 140.513C432.094 159.267 414.555 174.999 393.659 184.068C351.657 202.295 297.948 189.465 266.745 156.663C242.086 130.739 229.715 86.9496 229.715 51.9337" stroke="#020144" stroke-width="2.21655" stroke-miterlimit="10" stroke-linecap="round" stroke-linejoin="round"/>
<path d="M457.28 68.4104C453.852 82.1193 437.161 98.8754 426.286 107.887C425.795 108.293 425.302 108.697 424.804 109.098C420.377 112.672 415.685 116.043 410.786 119.158C409.626 119.896 408.455 120.619 407.273 121.327C407.033 121.471 406.791 121.615 406.55 121.758C403.708 123.44 400.804 125.035 397.849 126.534C395.535 127.708 393.189 128.823 390.817 129.875C388.212 131.029 385.577 132.107 382.916 133.103C380.098 134.157 377.252 135.118 374.385 135.98C370.84 137.047 367.263 137.961 363.669 138.709C361.566 139.147 359.458 139.528 357.347 139.85C356.169 140.03 354.989 140.191 353.81 140.333C347.255 141.123 340.689 141.328 334.199 140.867C333.42 140.812 332.64 140.747 331.863 140.672C322.88 139.808 314.065 137.643 305.653 133.963M293.994 127.69C290.843 125.65 287.773 123.359 284.797 120.801" stroke="#020144" stroke-width="2.21655" stroke-miterlimit="10" stroke-linecap="round" stroke-linejoin="round"/>
<path d="M390.613 95.1177C390.619 96.6299 390.795 98.1052 390.937 99.1536C392.105 107.786 397.384 117.372 404.145 123.152" stroke="#020144" stroke-width="2.21655" stroke-miterlimit="10" stroke-linecap="round" stroke-linejoin="round"/>
<path d="M347.516 128.348C348.998 130.888 349.828 133.904 350.498 136.753C350.812 138.089 351.055 139.371 351.233 140.613" stroke="#020144" stroke-width="2.21655" stroke-miterlimit="10" stroke-linecap="round" stroke-linejoin="round"/>
<path d="M237.545 36.2739C239.531 48.1873 242.013 62.2179 247.163 74.2384C247.198 74.3206 247.233 74.4026 247.269 74.4845" stroke="#020144" stroke-width="2.21655" stroke-miterlimit="10" stroke-linecap="round" stroke-linejoin="round"/>
<path d="M326.703 118.723C327.991 119.594 329.496 120.407 330.857 121.191C331.013 121.281 331.168 121.372 331.32 121.461C331.358 121.483 331.395 121.505 331.433 121.527C336.277 124.37 342.34 127.591 348.086 128.441C348.5 128.502 348.912 128.551 349.323 128.587C351.728 128.796 354.003 128.511 356.235 128.013C359.467 127.291 362.608 126.121 365.921 125.355C367.43 125.006 368.945 124.689 370.466 124.396C372.646 123.977 374.836 123.609 377.031 123.274C379.329 122.923 381.634 122.607 383.938 122.306C384.909 122.179 385.881 122.054 386.851 121.93C388.051 121.778 389.235 121.616 390.406 121.461C390.713 121.42 391.019 121.38 391.324 121.341C392.657 121.171 393.973 121.017 395.274 120.906C396.568 120.795 397.847 120.727 399.114 120.728C401.635 120.73 404.108 121.004 406.55 121.758" stroke="#020144" stroke-width="2.21655" stroke-miterlimit="10" stroke-linecap="round" stroke-linejoin="round"/>
<path d="M348.086 128.441C350.074 126.557 352.282 124.815 354.481 123.096C355.102 122.611 355.723 122.128 356.338 121.643C357.398 120.807 358.441 119.968 359.441 119.113C362.1 116.837 364.756 114.54 367.436 112.269C368.006 111.786 368.577 111.303 369.15 110.823C369.882 110.209 370.616 109.597 371.353 108.99C371.891 108.546 372.43 108.104 372.971 107.664C376.184 105.055 379.457 102.525 382.836 100.151C385.256 98.4512 387.73 96.8312 390.276 95.3186C390.316 95.2952 390.355 95.2718 390.395 95.248C396.037 91.8905 403.733 86.9854 410.461 90.2783C417.498 93.7216 421.253 102.014 424.805 109.098" stroke="#020144" stroke-width="2.21655" stroke-miterlimit="10" stroke-linecap="round" stroke-linejoin="round"/>
<path d="M284.951 98.7268C287.333 99.2251 289.939 99.7787 292.072 99.3857" stroke="#020144" stroke-width="2.21655" stroke-miterlimit="10" stroke-linecap="round" stroke-linejoin="round"/>
<path d="M303.984 78.7408C301.894 79.3274 298.093 78.6117 297.168 78.3209" stroke="#020144" stroke-width="2.21655" stroke-miterlimit="10" stroke-linecap="round" stroke-linejoin="round"/>
<path d="M450.228 115.392C448.648 120.134 445.714 124.325 443.09 128.579C432.776 145.305 416.974 159.012 398.688 166.327" stroke="#020144" stroke-width="2.21655" stroke-miterlimit="10" stroke-linecap="round" stroke-linejoin="round"/>
<path d="M435.346 130.394C421.017 149.021 401.063 161.013 378.24 166.085" stroke="#020144" stroke-width="2.21655" stroke-miterlimit="10" stroke-linecap="round" stroke-linejoin="round"/>
<path d="M363.686 182.055H271.963" stroke="#020144" stroke-width="2.21655" stroke-miterlimit="10" stroke-linecap="round" stroke-linejoin="round"/>
<path d="M374.372 60.0754L377.35 60.5145L370.45 107.364L367.473 106.925L374.372 60.0754Z" stroke="#020144" stroke-width="2.21655" stroke-miterlimit="10" stroke-linecap="round" stroke-linejoin="round"/>
<path d="M330.857 121.191L330.312 118.741L370.956 107.207L371.352 108.99M369.149 110.823L331.433 121.527" stroke="#020144" stroke-width="2.21655" stroke-miterlimit="10" stroke-linecap="round" stroke-linejoin="round"/>
<path d="M296.746 67.217C296.746 64.6593 297.489 62.5853 298.406 62.5853C299.322 62.5853 300.065 64.6593 300.065 67.217C300.065 69.7748 299.322 71.8484 298.406 71.8484C297.489 71.8484 296.746 69.7748 296.746 67.217Z" stroke="#020144" stroke-width="2.21655" stroke-miterlimit="10" stroke-linecap="round" stroke-linejoin="round"/>
<path d="M296.753 67.6869L283.379 69.5864" stroke="#020144" stroke-width="2.21655" stroke-miterlimit="10" stroke-linecap="round" stroke-linejoin="round"/>
<path d="M336.541 168.856C340.265 168.856 343.283 165.838 343.283 162.114C343.283 158.39 340.265 155.372 336.541 155.372C332.817 155.372 329.799 158.39 329.799 162.114C329.799 165.838 332.817 168.856 336.541 168.856Z" fill="#9492FD" stroke="#020144" stroke-width="2.21655" stroke-miterlimit="10" stroke-linecap="round" stroke-linejoin="round"/>
<path fill-rule="evenodd" clip-rule="evenodd" d="M326.703 171.263L317.041 162.809H336.365L326.703 171.263Z" fill="#9492FD" stroke="#020144" stroke-width="2.21655" stroke-miterlimit="10" stroke-linecap="round" stroke-linejoin="round"/>
<path fill-rule="evenodd" clip-rule="evenodd" d="M326.702 176.865L332.635 182.056H320.77L326.702 176.865Z" fill="#020144" stroke="#020144" stroke-width="2.21655" stroke-miterlimit="10" stroke-linecap="round" stroke-linejoin="round"/>
<path d="M326.703 171.263V176.864" stroke="#020144" stroke-width="2.12789" stroke-miterlimit="10" stroke-linecap="round" stroke-linejoin="round"/>
<path d="M385.476 233.861C385.978 232.947 385.466 231.593 385.568 230.564C385.81 228.144 388.18 225.489 387.752 223.134C387.477 221.625 385.624 221.192 385.476 219.558C385.276 217.356 386.652 215.106 385.429 213.011C384.198 210.9 380.356 210.202 379.81 209.11C377.796 205.082 378.127 200.071 372.705 198.523C368.127 197.214 362.788 198.467 358.078 198.105C356.608 197.992 354.504 196.154 353.109 196.433C352.352 196.584 353.901 200.393 353.017 200.52C351.03 200.803 348.814 199.062 346.144 199.73C341.312 200.938 339.769 206.122 337.089 209.806C335.925 211.407 334.649 214.115 332.957 215.193C332.488 215.491 328.888 216.57 328.87 216.679C328.428 219.331 333.717 220.623 334.117 222.623C334.657 225.322 329.542 227.707 331.052 232.235C331.621 233.941 333.793 236.635 335.696 237.111C336.169 237.23 337.729 236.622 338.343 236.554C338.553 236.531 339.901 236.893 339.922 236.88C340.292 236.632 339.782 234.632 339.782 234.325C339.782 232.3 339.758 230.017 341.593 228.706C343.724 227.185 348.071 230.244 351.113 229.542C353.816 228.918 353.353 226.095 354.875 224.574C354.884 224.564 360.661 226.416 362.072 226.013C365.961 224.902 368.114 220.002 372.473 220.487C376.099 220.89 378.768 227.832 379.3 230.842C379.562 232.327 379.072 234.48 379.532 235.857C379.657 236.235 380.495 236.768 380.739 237.157C380.999 237.574 381.293 239.826 381.621 239.99C382.136 240.248 382.877 237.754 382.968 237.436C383.415 235.874 384.772 235.139 385.476 233.861Z" fill="#9492FD"/>
<path d="M277.496 222.12C277.368 221.637 277.531 222.064 276.748 222.547C276.026 222.993 274.855 223.462 274.028 223.721C271.719 224.442 268.993 225.214 266.557 225.214C262.617 225.214 259.307 224.426 255.514 223.667C253.945 223.354 252.393 222.005 251.032 223.56C248.71 226.214 246.969 230.771 247.564 234.338C247.719 235.273 248.23 236.608 248.044 237.54C247.927 238.125 246.417 239.1 246.016 239.566C244.979 240.777 244.141 242.249 243.669 243.782C243.006 245.936 243.354 249.433 241.641 251.144C237.857 254.929 237.699 238.76 233.212 243.888C230.539 246.943 230.664 254.517 233.105 257.654C233.797 258.544 237.408 259.403 237.266 260.109C236.903 261.927 230.578 266.923 228.997 265.657C228.236 265.049 228.677 262.151 228.677 261.335C228.677 257.34 229.005 253.326 228.783 249.331C228.036 235.888 223.286 222.261 231.771 210.382C233.413 208.083 235.791 205.661 238.494 204.46C248.367 200.071 259.704 201.736 268.159 208.782C270.85 211.024 273.865 214.024 275.681 217.051C276.384 218.221 277.195 219.219 277.496 220.573C277.583 220.965 277.631 222.636 277.496 222.12Z" fill="#020144"/>
<path d="M396.116 281.022C396.388 283.113 388.069 288.429 385.939 289.557C376.295 294.663 365.433 293.683 356 288.966C353.74 287.837 349.258 285.462 348.056 283.057C347.982 282.909 350.889 280.492 351.667 280.825C358.236 283.64 364.286 285.416 371.429 286.012C376.815 286.461 382.173 284.778 386.792 282.138C388.431 281.201 389.977 279.262 391.65 278.593C392.475 278.263 396.008 280.197 396.116 281.022Z" fill="#9492FD"/>
<path d="M278.113 256.812C280.824 256.814 283.022 259.013 283.022 261.724C283.022 264.438 280.822 266.638 278.109 266.638C276.931 266.638 275.85 266.223 275.004 265.532" fill="#9492FD"/>
<path d="M278.113 256.812C280.824 256.814 283.022 259.013 283.022 261.724C283.022 264.438 280.822 266.638 278.109 266.638C276.931 266.638 275.85 266.223 275.004 265.532" stroke="#020144" stroke-width="2.21655" stroke-miterlimit="10" stroke-linecap="round" stroke-linejoin="round"/>
<path d="M241.153 267.543C247.305 274.642 259.226 283.817 268.326 275.784C272.862 271.78 275.49 264.76 277.355 259.183C283.035 242.197 284.043 222.343 269.687 209.554C259.926 200.857 242.099 197.347 232.835 208.426C217.162 227.17 235.145 250.998 226.724 271.303C220.267 286.873 203.471 289.952 191.428 299.879C182.768 307.017 178.656 322.766 177.061 333.164" stroke="#020144" stroke-width="2.21655" stroke-miterlimit="10" stroke-linecap="round" stroke-linejoin="round"/>
<path d="M254.496 277.7C255.104 284.538 262.806 287.206 270.974 289.132C277.717 290.722 284.777 291.806 288.426 294.312C300.017 302.272 302.69 315.317 304.417 328.426" stroke="#020144" stroke-width="2.21655" stroke-miterlimit="10" stroke-linecap="round" stroke-linejoin="round"/>
<path d="M270.975 289.132C270.644 289.437 270.377 289.675 270.245 289.789C266.721 292.842 262.411 295.519 258.131 297.341C244.658 303.074 228.15 299.035 216.125 291.52C215.426 291.083 213.125 289.581 210.818 287.921" stroke="#020144" stroke-width="2.21655" stroke-miterlimit="10" stroke-linecap="round" stroke-linejoin="round"/>
<path d="M231.961 265.35C230.762 265.832 229.5 266.146 228.293 266.26M278.278 221.525C273.446 225.582 264.424 225.294 258.983 224.562C256.566 224.237 254.234 223.467 251.87 223.15C251.82 223.142 251.76 223.098 251.72 223.129C248.928 225.259 247.736 230.701 247.683 233.92C247.674 234.428 248.494 237.324 248.097 237.628C245.938 239.275 244.375 240.614 243.656 243.496C243.113 245.676 243.224 250.714 241.051 252.123C237.881 254.177 237.922 240.294 233.347 243.784C229.864 246.441 231.025 253.881 232.859 257.03C233.095 257.436 233.487 257.929 233.938 258.374" stroke="#020144" stroke-width="2.21655" stroke-miterlimit="10" stroke-linecap="round" stroke-linejoin="round"/>
<path d="M266.599 249.76C267.149 254.706 269.795 256.961 265.947 260.809" stroke="#020144" stroke-width="2.21655" stroke-miterlimit="10" stroke-linecap="round" stroke-linejoin="round"/>
<path d="M234.824 249.065C233.902 250.909 234.813 253.823 236.689 254.76" stroke="#020144" stroke-width="2.21655" stroke-miterlimit="10" stroke-linecap="round" stroke-linejoin="round"/>
<path d="M340.58 242.61C343.976 253.535 351.411 279.298 368.149 270.336C370.174 269.252 371.664 267.907 373.225 266.234C375.409 263.89 376.985 261.384 378.158 258.402" stroke="#020144" stroke-width="2.21655" stroke-miterlimit="10" stroke-linecap="round" stroke-linejoin="round"/>
<path d="M382.922 237.975C383.67 234.467 387.324 231.412 388.902 236.166C390.179 240.019 387.145 251.787 381.451 249.81" stroke="#020144" stroke-width="2.21655" stroke-miterlimit="10" stroke-linecap="round" stroke-linejoin="round"/>
<path d="M385.634 239.315C386.156 241.188 385.086 243.471 383.672 244.712" stroke="#020144" stroke-width="2.21655" stroke-miterlimit="10" stroke-linecap="round" stroke-linejoin="round"/>
<path d="M379.588 236.2C379.743 234.966 379.619 233.709 379.53 232.468C379.285 229.064 375.396 218.112 370.204 220.268C367.1 221.557 366.482 225.198 362.997 225.814C361.393 226.097 359.466 226.081 357.925 225.547C357.203 225.297 355.27 224.186 354.499 224.399C354.333 224.444 353.597 227.479 353.403 227.82C351.969 230.348 348.459 230.057 346.152 229.104" stroke="#020144" stroke-width="2.21655" stroke-miterlimit="10" stroke-linecap="round" stroke-linejoin="round"/>
<path d="M344.21 228.133C337.556 227.286 339.752 236.845 340.204 240.656" stroke="#020144" stroke-width="2.21655" stroke-miterlimit="10" stroke-linecap="round" stroke-linejoin="round"/>
<path d="M339.216 237.125C336.803 235.725 335.664 238.537 335.749 240.442C335.895 243.761 337.582 247.061 339.927 249.371C340.415 249.85 342.386 252.029 343.192 251.498" stroke="#020144" stroke-width="2.21655" stroke-miterlimit="10" stroke-linecap="round" stroke-linejoin="round"/>
<path d="M336.116 237.474C334.921 237.205 333.522 235.981 332.594 235.234C329.405 232.666 330.359 228.722 332.371 225.871C333.049 224.911 334.418 223.847 334.686 222.655C334.771 222.281 333.214 221.796 332.997 221.634C332.303 221.118 328.086 217.306 328.183 216.606C328.242 216.183 330.102 216.291 330.369 216.252C331.64 216.064 332.774 215.367 333.565 214.349C336.889 210.072 338.436 205.093 342.682 201.475C344.487 199.938 347.491 199.281 349.779 199.585C350.095 199.627 353.379 200.524 353.457 200.394C353.856 199.735 351.861 197.46 352.934 196.394C353.161 196.169 355.346 197.742 355.661 197.856C357.152 198.393 358.744 198.285 360.292 198.197C365.766 197.888 371.577 196.121 376.258 200.103C377.895 201.495 378.905 203.205 379.268 205.345C379.316 205.628 379.571 209.017 379.617 209.017C382.237 209.025 384.805 210.422 385.974 212.97C387.277 215.809 385.182 217.428 385.297 220.003C385.358 221.364 387.991 222.233 387.864 223.824C387.778 224.893 386.756 225.968 386.412 226.965C385.643 229.193 385.579 231.392 385.572 233.714" stroke="#020144" stroke-width="2.21655" stroke-miterlimit="10" stroke-linecap="round" stroke-linejoin="round"/>
<path d="M356.275 242.757C357.351 247.017 354.524 252.287 358.312 254.908" stroke="#020144" stroke-width="2.21655" stroke-miterlimit="10" stroke-linecap="round" stroke-linejoin="round"/>
<path d="M358.273 260.042C361.356 261.416 364.726 259.902 367.364 258.382" stroke="#020144" stroke-width="2.21655" stroke-miterlimit="10" stroke-linecap="round" stroke-linejoin="round"/>
<path d="M382.018 257.698C382.606 262.454 382.251 267.115 384.505 271.425C386.23 274.721 388.796 276.96 391.733 278.696C395.08 280.673 398.91 281.997 402.528 283.489C411.174 287.055 420.629 289.898 428.381 295.24C437.446 301.487 441.523 315.929 444.525 326.103" stroke="#020144" stroke-width="2.21655" stroke-miterlimit="10" stroke-linecap="round" stroke-linejoin="round"/>
<path d="M444.523 326.101C442.876 326.206 441.285 326.414 439.747 326.716C429.93 328.646 422.294 334.393 416.254 341.22" stroke="#020144" stroke-width="2.21655" stroke-miterlimit="10" stroke-linecap="round" stroke-linejoin="round"/>
<path d="M415.209 336.336C415.536 337.971 415.887 339.599 416.256 341.223C418.414 350.709 421.195 360.054 423.385 369.544" stroke="#020144" stroke-width="2.21655" stroke-miterlimit="10" stroke-linecap="round" stroke-linejoin="round"/>
<path d="M429.385 368.156C427.406 368.156 425.389 368.695 423.384 369.543C418.311 371.688 413.316 375.809 409.222 378.175C400.9 382.982 391.387 385.967 381.906 387.364" stroke="#020144" stroke-width="2.21655" stroke-miterlimit="10" stroke-linecap="round" stroke-linejoin="round"/>
<path d="M439.03 324.488C439.276 325.227 439.517 325.971 439.752 326.717C442.891 336.665 445.059 347.135 447.095 357.316C448.37 363.693 449.974 371.625 447.789 377.985C445.014 386.054 436.665 390.085 429.326 393.107C414.002 399.416 398.165 402.601 381.91 404.72" stroke="#020144" stroke-width="2.21655" stroke-miterlimit="10" stroke-linecap="round" stroke-linejoin="round"/>
<path d="M358.573 271.788C357.497 275.624 354.419 278.271 351.068 280.442C350.303 280.938 349.523 281.409 348.75 281.864C339.307 287.42 328.929 288.834 320.698 296.432C318.463 298.496 316.886 301.694 315.506 304.336C309.443 315.958 307.99 329.381 304.68 341.976" stroke="#020144" stroke-width="2.21655" stroke-miterlimit="10" stroke-linecap="round" stroke-linejoin="round"/>
<path d="M391.737 278.696C389.538 280.758 386.197 282.414 384.009 283.414C374.26 287.871 360.467 286.621 351.07 280.442" stroke="#020144" stroke-width="2.21655" stroke-miterlimit="10" stroke-linecap="round" stroke-linejoin="round"/>
<path d="M246.081 377.596C244.646 375.856 243.824 373.134 246.979 372.285C248.957 371.752 251.133 371.543 253.333 371.544C256.011 371.547 258.725 371.862 261.16 372.291C267.209 373.356 265.775 376.015 260.58 376.983C260.579 376.983 260.578 376.983 260.577 376.984" stroke="#020144" stroke-width="2.21655" stroke-miterlimit="10" stroke-linecap="round" stroke-linejoin="round"/>
<path d="M245.551 383.43C241.573 381.045 241.123 378.759 246.678 377.444C251.296 376.351 257.593 376.067 262.201 377.362C263.777 377.804 267.603 380.448 264.741 381.976C263.469 382.655 261.682 382.368 260.32 382.4" stroke="#020144" stroke-width="2.21655" stroke-miterlimit="10" stroke-linecap="round" stroke-linejoin="round"/>
<path d="M246.024 387.218C242.322 385.66 243.357 384.24 245.364 383.316C246.674 382.713 248.397 382.32 249.49 382.237C253.158 381.957 258.484 381.365 261.915 383.157C266.09 385.339 261.533 387.647 258.799 387.72C258.087 387.739 257.373 387.795 256.66 387.856" stroke="#020144" stroke-width="2.21655" stroke-miterlimit="10" stroke-linecap="round" stroke-linejoin="round"/>
<path d="M246.064 391.261C242.462 389.101 245.058 387.711 247.81 387.579C251.604 387.398 255.561 387.412 259.257 388.393C263.709 389.575 258.105 391.771 256.379 391.924C254.804 392.064 253.306 391.839 251.745 391.823" stroke="#020144" stroke-width="2.21655" stroke-miterlimit="10" stroke-linecap="round" stroke-linejoin="round"/>
<path d="M253.329 395.031C253.038 395.832 252.453 396.541 251.772 396.818C248.776 398.04 244.812 397.957 241.773 397.005" stroke="#020144" stroke-width="2.21655" stroke-miterlimit="10" stroke-linecap="round" stroke-linejoin="round"/>
<path d="M240.649 382.363C238.109 382.729 236.916 383.266 234.298 383.559C221.827 384.955 208.921 380.377 196.701 378.81C191.362 378.125 186.365 379.137 181.164 378.944" stroke="#020144" stroke-width="2.21655" stroke-miterlimit="10" stroke-linecap="round" stroke-linejoin="round"/>
<path d="M176.223 337.893C174.738 346.117 173.435 354.718 172.572 363.034C171.683 371.6 166.037 389.099 170.75 397.144C174.107 402.877 183.459 402.036 188.987 401.484C199.059 400.478 209.189 399.519 219.235 398.309C225.115 397.601 231.499 395.915 237.411 396.983" stroke="#020144" stroke-width="2.21655" stroke-miterlimit="10" stroke-linecap="round" stroke-linejoin="round"/>
<path d="M202.966 341.5C201.748 347.565 200.706 353.698 199.71 359.845C199.12 363.487 198.546 367.133 197.961 370.773C197.53 373.454 197.093 376.132 196.639 378.801" stroke="#020144" stroke-width="2.21655" stroke-miterlimit="10" stroke-linecap="round" stroke-linejoin="round"/>
<path d="M199.711 359.846C200.507 361.508 201.39 363.129 202.119 364.627C204.429 369.376 206.926 375.092 207.52 380.723" stroke="#020144" stroke-width="2.21655" stroke-miterlimit="10" stroke-linecap="round" stroke-linejoin="round"/>
<path d="M197.96 370.776C196.928 370.128 195.82 369.572 194.22 369.065C188.089 367.123 178.927 366.356 172.74 369.064C172.446 369.193 172.003 369.362 171.5 369.565" stroke="#020144" stroke-width="2.21655" stroke-miterlimit="10" stroke-linecap="round" stroke-linejoin="round"/>
<path d="M254.571 249.861C254.8 248.219 255.625 246.978 256.414 247.088C257.203 247.198 257.656 248.617 257.427 250.259C257.199 251.9 256.373 253.142 255.584 253.032C254.796 252.921 254.342 251.501 254.571 249.861Z" fill="#020144" stroke="#020144" stroke-width="2.21655" stroke-miterlimit="10" stroke-linecap="round" stroke-linejoin="round"/>
<path d="M270.86 248.692C271.09 247.05 271.914 245.809 272.703 245.919C273.492 246.029 273.945 247.449 273.716 249.09C273.488 250.732 272.662 251.973 271.874 251.862C271.086 251.753 270.631 250.333 270.86 248.692Z" fill="#020144" stroke="#020144" stroke-width="2.21655" stroke-miterlimit="10" stroke-linecap="round" stroke-linejoin="round"/>
<path d="M265.477 265.506L254.072 266.237C254.072 266.237 256.776 269.508 260.359 270.039C264.307 270.623 265.477 265.506 265.477 265.506Z" stroke="#020144" stroke-width="2.21655" stroke-miterlimit="10" stroke-linejoin="round"/>
<path d="M231.229 262.766C231.229 260.053 233.428 257.854 236.141 257.854C238.855 257.854 241.054 260.053 241.054 262.766C241.054 265.48 238.855 267.68 236.141 267.68C233.428 267.68 231.229 265.48 231.229 262.766Z" fill="#9492FD" stroke="#020144" stroke-width="2.21655" stroke-miterlimit="10" stroke-linecap="round" stroke-linejoin="round"/>
<path d="M253.33 371.546V359.891C253.33 358.937 254.104 358.164 255.057 358.164H270.184C271.138 358.164 271.91 358.937 271.91 359.891V397.039C271.91 397.992 271.138 398.765 270.184 398.765H255.057C254.104 398.765 253.33 397.992 253.33 397.039V391.891" stroke="#020144" stroke-width="2.21655" stroke-miterlimit="10" stroke-linecap="round" stroke-linejoin="round"/>
<path d="M381.907 341.975H283.59V406.609H381.907V341.975Z" stroke="#020144" stroke-width="2.21655" stroke-miterlimit="10" stroke-linecap="round" stroke-linejoin="round"/>
<path d="M388.305 406.61H277.195V410.563H388.305V406.61Z" fill="#020144" stroke="#020144" stroke-width="2.21655" stroke-miterlimit="10" stroke-linecap="round" stroke-linejoin="round"/>
<path d="M327.377 374.291C327.377 371.325 329.782 368.921 332.748 368.921C335.714 368.921 338.117 371.325 338.117 374.291C338.117 377.257 335.714 379.662 332.748 379.662C329.782 379.662 327.377 377.257 327.377 374.291Z" fill="#9492FD" stroke="#020144" stroke-width="2.21655" stroke-miterlimit="10" stroke-linecap="round" stroke-linejoin="round"/>
<path d="M364.322 243.752C364.062 242.36 364.429 241.125 365.142 240.991C365.854 240.858 366.643 241.879 366.903 243.269C367.163 244.661 366.796 245.897 366.084 246.03C365.371 246.164 364.582 245.143 364.322 243.752Z" fill="#020144" stroke="#020144" stroke-width="2.21655" stroke-miterlimit="10" stroke-linecap="round" stroke-linejoin="round"/>
<path d="M348.795 245.36C348.535 243.969 348.901 242.733 349.613 242.6C350.327 242.466 351.115 243.486 351.375 244.878C351.635 246.269 351.268 247.505 350.556 247.638C349.843 247.771 349.054 246.752 348.795 245.36Z" fill="#020144" stroke="#020144" stroke-width="2.21655" stroke-miterlimit="10" stroke-linecap="round" stroke-linejoin="round"/>
</svg>
