<svg width="1440" height="366" viewBox="0 0 1440 366" fill="none" xmlns="http://www.w3.org/2000/svg">
<path id="Ellipse 64" d="M1437.84 -51.2253C1438.79 -44.571 1439.44 -37.8696 1439.76 -31.1252L1437.76 -31.0297C1437.92 -27.6969 1438 -24.3535 1438 -21C1438 -17.6464 1437.92 -14.3029 1437.76 -10.9699L1439.76 -10.8745C1439.44 -4.13013 1438.79 2.57135 1437.84 9.22565L1435.86 8.9411C1434.91 15.5381 1433.65 22.0891 1432.09 28.5901L1434.03 29.0574C1432.47 35.5776 1430.6 42.0469 1428.43 48.4612L1426.54 47.8223C1424.42 54.1046 1422.02 60.3353 1419.34 66.5105L1421.17 67.307C1418.51 73.4282 1415.58 79.4935 1412.39 85.4991L1410.63 84.5606C1407.52 90.4005 1404.17 96.1853 1400.57 101.911L1402.26 102.976C1398.72 108.612 1394.94 114.189 1390.93 119.705L1389.31 118.53C1385.43 123.88 1381.32 129.173 1377.01 134.406L1378.55 135.679C1374.32 140.814 1369.88 145.891 1365.25 150.905L1363.78 149.548C1359.28 154.415 1354.6 159.224 1349.73 163.973L1351.13 165.404C1346.36 170.058 1341.42 174.653 1336.31 179.188L1334.98 177.692C1330.04 182.08 1324.94 186.411 1319.68 190.684L1320.94 192.236C1315.78 196.429 1310.47 200.565 1305.02 204.641L1303.82 203.039C1298.51 207.013 1293.06 210.93 1287.47 214.789L1288.61 216.434C1283.12 220.229 1277.5 223.967 1271.75 227.646L1270.67 225.962C1265.07 229.551 1259.34 233.084 1253.5 236.56L1254.53 238.279C1248.81 241.681 1242.99 245.028 1237.05 248.318L1236.08 246.569C1230.27 249.795 1224.34 252.966 1218.32 256.082L1219.24 257.858C1213.3 260.933 1207.26 263.954 1201.12 266.918L1200.25 265.118C1194.26 268.013 1188.17 270.854 1182 273.642L1182.82 275.464C1176.74 278.209 1170.58 280.901 1164.33 283.538L1163.55 281.695C1157.4 284.293 1151.16 286.837 1144.85 289.328L1145.59 291.188C1139.36 293.643 1133.06 296.046 1126.69 298.394L1126 296.518C1119.75 298.821 1113.43 301.073 1107.04 303.271L1107.69 305.163C1101.35 307.344 1094.95 309.473 1088.48 311.549L1087.86 309.645C1081.51 311.684 1075.09 313.673 1068.6 315.609L1069.18 317.525C1062.77 319.438 1056.3 321.3 1049.78 323.11L1049.24 321.183C1042.79 322.975 1036.27 324.716 1029.7 326.405L1030.2 328.342C1023.72 330.005 1017.2 331.618 1010.62 333.179L1010.16 331.233C1003.65 332.778 997.092 334.273 990.484 335.717L990.911 337.671C984.354 339.103 977.748 340.485 971.096 341.815L970.704 339.854C964.157 341.164 957.564 342.424 950.928 343.633L951.287 345.6C944.675 346.805 938.02 347.96 931.324 349.063L930.999 347.09C924.406 348.176 917.774 349.213 911.102 350.199L911.395 352.177C904.757 353.159 898.08 354.09 891.367 354.971L891.106 352.988C884.463 353.86 877.783 354.682 871.068 355.454L871.296 357.441C864.638 358.207 857.947 358.922 851.222 359.588L851.025 357.598C844.341 358.259 837.625 358.871 830.878 359.432L831.044 361.426C824.373 361.981 817.672 362.487 810.942 362.942L810.806 360.947C804.106 361.401 797.376 361.805 790.619 362.159L790.724 364.157C784.032 364.507 777.314 364.809 770.57 365.06L770.496 363.062C763.79 363.312 757.058 363.512 750.303 363.663L750.348 365.662C743.638 365.812 736.905 365.912 730.15 365.962L730.135 363.962C726.762 363.987 723.384 364 720 364C716.616 364 713.238 363.987 709.865 363.962L709.85 365.962C703.094 365.912 696.361 365.812 689.652 365.662L689.697 363.663C682.941 363.512 676.21 363.312 669.504 363.062L669.43 365.06C662.686 364.809 655.967 364.507 649.276 364.157L649.381 362.159C642.624 361.805 635.894 361.401 629.193 360.947L629.058 362.942C622.328 362.487 615.627 361.981 608.956 361.426L609.122 359.432C602.375 358.871 595.658 358.259 588.974 357.598L588.777 359.588C582.053 358.922 575.361 358.206 568.704 357.441L568.932 355.454C562.217 354.682 555.537 353.86 548.893 352.988L548.633 354.971C541.92 354.09 535.243 353.159 528.605 352.177L528.897 350.199C522.226 349.213 515.593 348.176 509.001 347.09L508.676 349.063C501.98 347.96 495.325 346.805 488.713 345.6L489.071 343.633C482.435 342.424 475.843 341.164 469.296 339.854L468.904 341.815C462.252 340.485 455.646 339.103 449.089 337.671L449.516 335.717C442.907 334.273 436.348 332.778 429.84 331.233L429.378 333.179C422.801 331.618 416.276 330.005 409.804 328.342L410.302 326.405C403.731 324.716 397.214 322.975 390.755 321.183L390.221 323.11C383.696 321.3 377.23 319.438 370.824 317.525L371.397 315.609C364.914 313.673 358.492 311.684 352.135 309.645L351.524 311.549C345.052 309.473 338.646 307.344 332.308 305.163L332.959 303.271C326.569 301.073 320.249 298.821 314 296.518L313.308 298.394C306.935 296.046 300.637 293.643 294.414 291.188L295.148 289.328C288.835 286.837 282.6 284.292 276.447 281.695L275.669 283.538C269.422 280.901 263.257 278.209 257.179 275.464L258.002 273.642C251.828 270.854 245.744 268.013 239.751 265.118L238.881 266.918C232.744 263.954 226.702 260.933 220.759 257.858L221.678 256.082C215.656 252.966 209.735 249.795 203.918 246.569L202.948 248.318C197.015 245.028 191.189 241.681 185.473 238.279L186.496 236.56C180.656 233.084 174.933 229.551 169.329 225.962L168.25 227.646C162.505 223.967 156.884 220.229 151.392 216.434L152.529 214.789C146.943 210.93 141.491 207.012 136.177 203.039L134.98 204.641C129.528 200.565 124.22 196.429 119.06 192.236L120.321 190.684C115.063 186.411 109.96 182.08 105.016 177.692L103.688 179.188C98.5794 174.653 93.6388 170.058 88.8712 165.404L90.2682 163.973C85.4028 159.224 80.7194 154.415 76.223 149.548L74.7541 150.905C70.1207 145.891 65.6838 140.814 61.4486 135.679L62.9916 134.406C58.6756 129.173 54.5716 123.88 50.6851 118.53L49.067 119.705C45.0599 114.189 41.2815 108.611 37.7381 102.976L39.4312 101.911C35.831 96.1851 32.4761 90.4003 29.3728 84.5604L27.6066 85.4989C24.4152 79.4933 21.487 73.428 18.8291 67.3068L20.6636 66.5102C17.9822 60.3351 15.5788 54.1043 13.4607 47.822L11.5655 48.461C9.40281 42.0467 7.53427 35.5773 5.96763 29.0571L7.91229 28.5898C6.35026 22.0888 5.09135 15.5378 4.14321 8.9408L2.16355 9.22531C1.20717 2.57101 0.563894 -4.13046 0.241637 -10.8748L2.23936 -10.9703C2.08011 -14.3031 2 -17.6465 2 -21C2 -24.3536 2.08012 -27.6971 2.23937 -31.0301L0.241653 -31.1255C0.563921 -37.8699 1.2072 -44.5714 2.1636 -51.2256L4.14326 -50.9411C5.09141 -57.5381 6.35032 -64.0891 7.91236 -70.5901L5.9677 -71.0574C7.53435 -77.5776 9.4029 -84.0469 11.5656 -90.4612L13.4608 -89.8223C15.5789 -96.1046 17.9823 -102.335 20.6637 -108.51L18.8292 -109.307C21.4871 -115.428 24.4154 -121.493 27.6067 -127.499L29.3729 -126.561C32.4762 -132.4 35.8311 -138.185 39.4313 -143.911L37.7382 -144.976C41.2817 -150.612 45.0601 -156.189 49.0671 -161.705L50.6852 -160.53C54.5717 -165.88 58.6758 -171.173 62.9917 -176.406L61.4488 -177.679C65.6839 -182.814 70.1209 -187.891 74.7542 -192.905L76.2232 -191.548C80.7196 -196.415 85.4029 -201.224 90.2683 -205.973L88.8713 -207.404C93.6389 -212.058 98.5795 -216.653 103.688 -221.188L105.016 -219.692C109.96 -224.08 115.063 -228.411 120.322 -232.684L119.06 -234.236C124.22 -238.429 129.528 -242.565 134.98 -246.641L136.178 -245.039C141.491 -249.013 146.943 -252.93 152.529 -256.789L151.392 -258.434C156.884 -262.229 162.505 -265.967 168.251 -269.646L169.329 -267.962C174.933 -271.551 180.656 -275.084 186.496 -278.56L185.474 -280.279C191.189 -283.681 197.015 -287.028 202.949 -290.318L203.918 -288.569C209.735 -291.795 215.656 -294.966 221.678 -298.082L220.759 -299.858C226.703 -302.933 232.744 -305.954 238.881 -308.918L239.751 -307.118C245.744 -310.013 251.829 -312.854 258.002 -315.642L257.179 -317.465C263.258 -320.209 269.422 -322.901 275.669 -325.538L276.447 -323.695C282.601 -326.293 288.835 -328.837 295.149 -331.328L294.415 -333.188C300.637 -335.643 306.936 -338.046 313.308 -340.394L314 -338.518C320.249 -340.821 326.569 -343.073 332.959 -345.271L332.308 -347.163C338.646 -349.344 345.052 -351.473 351.524 -353.549L352.135 -351.645C358.493 -353.684 364.914 -355.673 371.397 -357.609L370.825 -359.525C377.231 -361.438 383.697 -363.3 390.221 -365.11L390.755 -363.183C397.214 -364.975 403.731 -366.716 410.302 -368.405L409.805 -370.342C416.276 -372.005 422.801 -373.618 429.378 -375.179L429.84 -373.233C436.348 -374.778 442.908 -376.273 449.516 -377.717L449.089 -379.671C455.646 -381.103 462.252 -382.485 468.904 -383.815L469.296 -381.854C475.843 -383.164 482.436 -384.424 489.072 -385.633L488.713 -387.6C495.325 -388.805 501.98 -389.96 508.676 -391.063L509.001 -389.09C515.594 -390.176 522.226 -391.213 528.898 -392.199L528.605 -394.177C535.243 -395.159 541.92 -396.09 548.633 -396.971L548.894 -394.988C555.537 -395.86 562.217 -396.683 568.932 -397.454L568.704 -399.441C575.362 -400.207 582.053 -400.922 588.778 -401.588L588.975 -399.598C595.659 -400.259 602.375 -400.871 609.122 -401.432L608.956 -403.426C615.627 -403.981 622.328 -404.487 629.058 -404.942L629.194 -402.947C635.894 -403.401 642.624 -403.805 649.381 -404.159L649.276 -406.157C655.968 -406.507 662.686 -406.809 669.43 -407.06L669.504 -405.062C676.21 -405.312 682.942 -405.512 689.697 -405.663L689.652 -407.662C696.362 -407.812 703.095 -407.912 709.85 -407.962L709.865 -405.962C713.238 -405.987 716.616 -406 720 -406C723.384 -406 726.762 -405.987 730.135 -405.962L730.15 -407.962C736.906 -407.912 743.639 -407.812 750.348 -407.662L750.303 -405.663C757.059 -405.512 763.79 -405.312 770.496 -405.062L770.57 -407.06C777.314 -406.809 784.032 -406.507 790.724 -406.157L790.619 -404.159C797.376 -403.805 804.106 -403.401 810.807 -402.947L810.942 -404.942C817.672 -404.486 824.373 -403.981 831.044 -403.426L830.878 -401.432C837.625 -400.871 844.342 -400.259 851.026 -399.598L851.222 -401.588C857.947 -400.922 864.639 -400.207 871.296 -399.441L871.068 -397.454C877.783 -396.682 884.463 -395.86 891.107 -394.988L891.367 -396.971C898.08 -396.09 904.757 -395.159 911.395 -394.177L911.103 -392.199C917.774 -391.213 924.407 -390.176 930.999 -389.09L931.324 -391.063C938.02 -389.96 944.675 -388.805 951.287 -387.6L950.929 -385.633C957.565 -384.424 964.157 -383.164 970.704 -381.854L971.096 -383.815C977.748 -382.485 984.354 -381.103 990.911 -379.671L990.484 -377.717C997.093 -376.273 1003.65 -374.778 1010.16 -373.233L1010.62 -375.179C1017.2 -373.618 1023.72 -372.005 1030.2 -370.342L1029.7 -368.405C1036.27 -366.716 1042.79 -364.975 1049.24 -363.183L1049.78 -365.11C1056.3 -363.3 1062.77 -361.438 1069.18 -359.525L1068.6 -357.609C1075.09 -355.673 1081.51 -353.684 1087.86 -351.645L1088.48 -353.549C1094.95 -351.473 1101.35 -349.344 1107.69 -347.163L1107.04 -345.271C1113.43 -343.073 1119.75 -340.821 1126 -338.518L1126.69 -340.394C1133.06 -338.046 1139.36 -335.643 1145.59 -333.188L1144.85 -331.328C1151.17 -328.837 1157.4 -326.292 1163.55 -323.695L1164.33 -325.538C1170.58 -322.9 1176.74 -320.209 1182.82 -317.464L1182 -315.642C1188.17 -312.854 1194.26 -310.013 1200.25 -307.118L1201.12 -308.918C1207.26 -305.954 1213.3 -302.933 1219.24 -299.858L1218.32 -298.082C1224.34 -294.966 1230.27 -291.795 1236.08 -288.569L1237.05 -290.318C1242.99 -287.028 1248.81 -283.681 1254.53 -280.279L1253.5 -278.56C1259.34 -275.084 1265.07 -271.551 1270.67 -267.962L1271.75 -269.646C1277.5 -265.967 1283.12 -262.229 1288.61 -258.434L1287.47 -256.789C1293.06 -252.93 1298.51 -249.012 1303.82 -245.039L1305.02 -246.641C1310.47 -242.565 1315.78 -238.429 1320.94 -234.236L1319.68 -232.684C1324.94 -228.411 1330.04 -224.08 1334.98 -219.692L1336.31 -221.188C1341.42 -216.653 1346.36 -212.058 1351.13 -207.404L1349.73 -205.973C1354.6 -201.224 1359.28 -196.415 1363.78 -191.548L1365.25 -192.905C1369.88 -187.891 1374.32 -182.814 1378.55 -177.679L1377.01 -176.406C1381.32 -171.173 1385.43 -165.88 1389.31 -160.53L1390.93 -161.705C1394.94 -156.189 1398.72 -150.611 1402.26 -144.976L1400.57 -143.911C1404.17 -138.185 1407.52 -132.4 1410.63 -126.56L1412.39 -127.499C1415.58 -121.493 1418.51 -115.428 1421.17 -109.307L1419.34 -108.51C1422.02 -102.335 1424.42 -96.1043 1426.54 -89.822L1428.43 -90.461C1430.6 -84.0467 1432.47 -77.5773 1434.03 -71.0571L1432.09 -70.5898C1433.65 -64.0888 1434.91 -57.5378 1435.86 -50.9408L1437.84 -51.2253Z" stroke="#5DB9F5" stroke-width="4" stroke-dasharray="20 20"/>
</svg>
