<svg width="151" height="204" viewBox="0 0 151 204" fill="none" xmlns="http://www.w3.org/2000/svg">
<path fill-rule="evenodd" clip-rule="evenodd" d="M94.5159 141.589C79.05 163.065 59.1164 182.982 34.569 192.828C25.6387 196.411 16.4321 197.784 7.01944 199.277C6.35976 199.382 5.73661 198.93 5.62932 198.266C5.52505 197.602 5.9775 196.979 6.64152 196.875C15.8718 195.411 24.9053 194.085 33.6638 190.571C57.8634 180.865 77.4642 161.165 92.6797 139.981L92.3719 139.721C89.0317 136.903 87.4916 131.177 87.4544 124.408C87.4004 114.703 90.3001 102.845 94.3332 95.1202C96.1464 91.6498 98.2128 89.002 100.313 87.6422C101.951 86.5807 103.636 86.2507 105.296 86.7355C108.831 87.7709 110.578 91.607 110.753 96.9501C111.122 108.123 105.003 126.029 100.387 133.054C98.9439 135.248 97.4571 137.438 95.9236 139.61C96.4979 140.122 97.0619 140.621 97.633 141.081C99.2627 142.387 100.974 143.391 103.381 143.482C107.134 143.621 110.847 142.164 114.315 139.984C119.725 136.577 124.522 131.39 127.917 127.287C146.823 104.434 149.526 79.3321 146.617 56.8493C143.675 34.1447 135.033 14.0811 131.36 1.55748C131.17 0.913787 131.541 0.240161 132.185 0.0499559C132.828 -0.140249 133.504 0.229421 133.692 0.874805C137.39 13.479 146.068 33.682 149.026 56.5389C152.017 79.6176 149.197 105.376 129.793 128.837C126.256 133.111 121.244 138.494 115.611 142.04C111.71 144.494 107.513 146.067 103.29 145.911C99.4999 145.77 97.0961 143.854 94.5159 141.589ZM94.0924 137.99L93.9376 137.863C91.0173 135.399 89.9172 130.315 89.8867 124.394C89.8344 115.069 92.6119 103.672 96.4911 96.2463C97.8195 93.6992 99.2693 91.6304 100.789 90.3199C102.045 89.2397 103.322 88.6906 104.61 89.0705C105.83 89.4232 106.675 90.3117 107.253 91.5436C107.933 92.9887 108.252 94.8709 108.325 97.0285C108.678 107.765 102.792 124.968 98.3551 131.718C96.9753 133.814 95.5557 135.908 94.0924 137.99Z" fill="url(#paint0_linear_887_211)"/>
<path fill-rule="evenodd" clip-rule="evenodd" d="M2.60479 197.23C2.92644 197.654 3.53265 198.09 4.18867 198.552C5.75103 199.653 7.71519 200.679 8.62111 201.201C9.20374 201.538 9.39994 202.282 9.06567 202.863C8.72837 203.445 7.9864 203.644 7.40283 203.307C6.29433 202.666 3.67913 201.293 1.97327 199.931C1.05863 199.2 0.397543 198.436 0.144231 197.78C-0.288752 196.663 0.236654 195.581 1.94219 194.807C3.96 193.892 8.14584 193.104 10.6657 190.403C11.1212 189.913 11.8951 189.887 12.3822 190.345C12.8747 190.805 12.9011 191.574 12.4421 192.065C10.0385 194.638 6.32623 195.753 3.89537 196.643C3.43435 196.812 2.91202 197.072 2.60479 197.23Z" fill="url(#paint1_linear_887_211)"/>
<defs>
<linearGradient id="paint0_linear_887_211" x1="133.086" y1="-0.434067" x2="139.086" y2="93.5659" gradientUnits="userSpaceOnUse">
<stop stop-color="#5CBA9E" stop-opacity="0"/>
<stop offset="1" stop-color="#5CBA9E"/>
</linearGradient>
<linearGradient id="paint1_linear_887_211" x1="133.086" y1="-0.434067" x2="139.086" y2="93.5659" gradientUnits="userSpaceOnUse">
<stop stop-color="#5CBA9E" stop-opacity="0"/>
<stop offset="1" stop-color="#5CBA9E"/>
</linearGradient>
</defs>
</svg>
