<svg width="515" height="528" viewBox="0 0 515 528" fill="none" xmlns="http://www.w3.org/2000/svg">
<circle cx="267.572" cy="247.428" r="247.428" fill="#DEF1EC"/>
<circle cx="267.573" cy="247.428" r="231.662" fill="#BEE3D8"/>
<circle cx="277.206" cy="247.428" r="186.87" stroke="#F8F8F8" stroke-width="2" stroke-dasharray="6 6"/>
<circle cx="249.617" cy="277.645" r="248.617" stroke="#5DB9F5" stroke-width="2" stroke-dasharray="6 6"/>
<circle cx="45.9837" cy="297.352" r="35.4719" fill="#5CBA9E"/>
<path fill-rule="evenodd" clip-rule="evenodd" d="M46.7722 275.772C34.8465 275.742 25.1547 285.382 25.1192 297.309C25.0956 306.848 31.2652 314.953 39.8402 317.829C40.9216 318.03 41.3176 317.363 41.3176 316.79C41.3176 316.276 41.3058 314.917 41.2998 313.116C35.2897 314.403 34.031 310.204 34.031 310.204C33.0559 307.705 31.6376 307.037 31.6376 307.037C29.6815 305.691 31.7912 305.726 31.7912 305.726C33.9601 305.885 35.0947 307.959 35.0947 307.959C37.0153 311.261 40.1475 310.322 41.3767 309.766C41.5776 308.372 42.139 307.421 42.7536 306.884C37.9609 306.329 32.92 304.462 32.9436 296.186C32.9495 293.829 33.7946 291.904 35.1834 290.397C34.9647 289.848 34.226 287.656 35.4079 284.685C35.4079 284.685 37.2222 284.112 41.3412 286.912C43.0668 286.44 44.9107 286.203 46.7486 286.197C48.5806 286.209 50.4303 286.457 52.1559 286.936C56.2868 284.154 58.0951 284.738 58.0951 284.738C59.2652 287.716 58.5206 289.907 58.296 290.45C59.6789 291.963 60.5063 293.894 60.5004 296.251C60.4767 304.545 55.4239 306.358 50.6135 306.878C51.3876 307.545 52.0732 308.863 52.0673 310.883C52.0613 313.771 52.0259 316.099 52.0259 316.808C52.0259 317.386 52.41 318.06 53.5092 317.847C62.09 315.006 68.2952 306.937 68.3188 297.403C68.3484 285.489 58.7038 275.801 46.7722 275.772Z" fill="#F8F8F8"/>
<circle cx="89.3394" cy="216.335" r="23.648" fill="#5CBA9E"/>
<g opacity="0.4">
<path d="M90.7789 221.702C92.7413 220.947 94.0457 219.054 94.0457 216.949C94.0457 214.156 91.7485 211.86 88.955 211.86C86.1615 211.86 83.8644 214.156 83.8644 216.949C83.8644 219.054 85.1688 220.947 87.1311 221.702L83.7027 230.639C78.0465 228.469 74.2891 223.006 74.2891 216.954C74.2891 208.912 80.9092 202.295 88.955 202.295C97.0008 202.295 103.621 208.912 103.621 216.954C103.621 223.012 99.8693 228.469 94.2073 230.639L90.7789 221.702Z" fill="#F8F8F8"/>
</g>
<path d="M83.6974 231.25C83.6223 231.25 83.5473 231.239 83.478 231.21C77.614 228.96 73.6719 223.231 73.6719 216.954C73.6719 208.532 80.5287 201.684 88.9496 201.684C97.3706 201.684 104.227 208.537 104.227 216.954C104.227 223.231 100.285 228.96 94.427 231.21C94.2769 231.268 94.1095 231.262 93.9595 231.198C93.8094 231.135 93.694 231.008 93.6363 230.858L90.2079 221.922C90.0867 221.604 90.2425 221.252 90.5599 221.131C92.2799 220.474 93.4343 218.789 93.4343 216.949C93.4343 214.48 91.4257 212.472 88.9554 212.472C86.4851 212.472 84.4765 214.48 84.4765 216.949C84.4765 218.789 85.6309 220.468 87.3509 221.131C87.6683 221.252 87.8241 221.604 87.7029 221.922L84.2745 230.858C84.2168 231.008 84.1014 231.129 83.9513 231.198C83.8705 231.233 83.7839 231.25 83.6974 231.25ZM88.9554 202.907C81.204 202.907 74.9013 209.207 74.9013 216.954C74.9013 222.527 78.2719 227.627 83.351 229.837L86.3524 222.026C84.4765 221.056 83.2529 219.089 83.2529 216.954C83.2529 213.81 85.8098 211.255 88.9554 211.255C92.101 211.255 94.6579 213.81 94.6579 216.954C94.6579 219.095 93.4343 221.062 91.5584 222.026L94.5597 229.837C99.6389 227.627 103.01 222.522 103.01 216.954C103.01 209.207 96.7068 202.907 88.9554 202.907Z" fill="#F8F8F8"/>
<circle cx="110.796" cy="271.952" r="31.0927" fill="#5CBA9E"/>
<path d="M127.767 289.944H123.581C122.843 289.944 122.242 289.344 122.242 288.606C122.242 287.868 122.843 287.268 123.581 287.268H127.767C127.792 287.268 127.824 287.235 127.824 287.211V265.469L118.851 256.5H102.674L102.617 271.884C102.617 272.622 102.016 273.222 101.278 273.222C100.54 273.222 99.9396 272.622 99.9396 271.884V256.557C99.9396 255.049 101.165 253.824 102.674 253.824H119.403C119.76 253.824 120.101 253.962 120.352 254.213L130.112 263.969C130.364 264.221 130.502 264.561 130.502 264.918V287.211C130.502 288.719 129.276 289.944 127.767 289.944Z" fill="#F8F8F8"/>
<path d="M129.163 266.248H119.403C118.665 266.248 118.065 265.648 118.065 264.91V255.154C118.065 254.417 118.665 253.816 119.403 253.816C120.142 253.816 120.742 254.417 120.742 255.154V263.572H129.163C129.902 263.572 130.502 264.172 130.502 264.91C130.502 265.648 129.902 266.248 129.163 266.248Z" fill="#F8F8F8"/>
<path d="M93.7529 284.9C93.2679 284.689 92.8785 284.381 92.5626 283.967L93.9439 282.167C94.1496 282.442 94.348 282.653 94.539 282.791C94.7374 282.929 94.9358 282.994 95.1488 282.994C95.4133 282.994 95.619 282.905 95.766 282.726C95.9056 282.548 95.9791 282.288 95.9791 281.948V278.761H93.3929V276.628H98.5065V281.786C98.5065 282.929 98.242 283.789 97.7056 284.356C97.1693 284.924 96.3905 285.216 95.3619 285.216C94.7741 285.216 94.2304 285.11 93.7529 284.9Z" fill="#F8F8F8"/>
<path d="M104.702 283.562H101.814L101.307 285.021H98.6992L102.02 276.628H104.54L107.861 285.021H105.209L104.702 283.562ZM103.996 281.526L103.254 279.418L102.512 281.526H103.996Z" fill="#F8F8F8"/>
<path d="M115.964 276.636L112.746 285.029H110.226L107.008 276.636H109.763L111.578 281.542L113.437 276.636H115.964Z" fill="#F8F8F8"/>
<path d="M121.122 283.562H118.234L117.727 285.021H115.119L118.44 276.628H120.96L124.281 285.021H121.629L121.122 283.562ZM120.417 281.526L119.674 279.418L118.932 281.526H120.417Z" fill="#F8F8F8"/>
<circle cx="497.921" cy="256.186" r="10.9481" fill="#5CBA9E"/>
</svg>
