<svg width="1440" height="670" viewBox="0 0 1440 670" fill="none" xmlns="http://www.w3.org/2000/svg">
<g clip-path="url(#clip0_4_2124)">
<path d="M228 186C122.4 164 32 216.167 0 245V0H1466V594.5C1099.5 749 1047 370.5 909 209.5C771 48.5001 543.099 117.459 479.5 140C400.5 168 360 213.5 228 186Z" fill="#020144"/>
<path opacity="0.05" d="M1264.3 284.168C1235.11 165.878 1369.82 108.102 1440.82 94H1558.22C1595.4 191.069 1649.71 450.924 1569.54 713.791C1469.33 1042.37 1038.3 480.086 1079.81 494.05C1121.32 508.015 1300.78 432.03 1264.3 284.168Z" fill="white"/>
<path opacity="0.07" d="M1324.96 345.066C1267.42 220.246 1404.27 128.854 1479.89 98.7607L1609.9 74.7799C1671.76 174.505 1787.31 450.706 1754.58 757.706C1713.67 1141.46 1116.46 607.836 1165.4 614.796C1214.35 621.757 1396.88 501.092 1324.96 345.066Z" fill="white"/>
<path opacity="0.1" d="M1409.54 388.814C1357.39 253.594 1507.75 166.195 1589.45 139.397L1728.03 122.566C1786.44 231.631 1889.44 530.081 1834.14 851.361C1765.02 1252.96 1172.09 652.101 1223.18 662.608C1274.27 673.114 1474.73 557.839 1409.54 388.814Z" fill="white"/>
<circle cx="958" cy="455" r="31.5" stroke="#F8F8F8" stroke-dasharray="6 6"/>
</g>
<defs>
<clipPath id="clip0_4_2124">
<rect width="1440" height="670" fill="white"/>
</clipPath>
</defs>
</svg>
