<svg width="5248" height="5654" viewBox="0 0 5248 5654" fill="none" xmlns="http://www.w3.org/2000/svg">
<path fill-rule="evenodd" clip-rule="evenodd" d="M2929.39 2284.97C2903.64 2282.17 2877.47 2280.73 2850.98 2280.73C2743.06 2280.73 2640.66 2304.59 2548.78 2347.31L2533.58 2316.69L2472.87 2346.82L2488.73 2378.77C2275.86 2503.47 2132.78 2734.62 2132.78 2998.93C2132.78 3263.03 2275.64 3494.03 2488.24 3618.8L2472.75 3649.4L2503.42 3664.92L2223.92 4902.19C1424.87 4638.75 847.464 3885.75 847.464 2998.94C847.464 2537.36 1003.89 2112.04 1266.57 1773.12L1291.48 1793.74L1334.69 1741.52L1308.99 1720.25C1676.62 1277.53 2231.11 995.416 2850.98 995.416C3416.5 995.416 3927.62 1230.23 4292.06 1607.6L4190.02 1675.2L4199.72 1696.9L4344.03 1663.5C4350.41 1670.62 4356.74 1677.79 4363.02 1685.01L4371.56 1696.21L4349.39 1756.89L4207.25 1781.03V1804.76L4282.53 1818.04L4399.69 1794.48L4423.78 1758.29C4651.97 2047.08 4802.37 2400.09 4843.25 2785.6L4809.8 2788.72L4816.1 2856.2L4849.26 2853.11C4852.73 2901.27 4854.5 2949.9 4854.5 2998.94C4854.5 3873.96 4292.34 4618.72 3509.79 4891.44L3503.41 4861.92L3470.55 4869.02L3191.01 3631.58C3235.05 3607.84 3276.32 3579.64 3314.24 3547.59L3511.02 3538.41L3668.76 3581.48L3676.25 3470.39L3616.05 3453.56L3551.96 3375.28L3604.14 3304.15L3659.41 3360.02L3699.17 3214.7L3658.65 3187.63C3658.65 3187.63 3673.32 3165.49 3698.84 3026.06C3724.36 2886.63 3686.8 2657.47 3470.92 2443.73C3291.2 2265.81 3016.43 2276.42 2929.39 2284.97L2929.39 2284.97ZM4444.87 2988.47C4427.86 2892.16 4429.73 2794.74 4460.95 2695.6L4225.61 2512.34L4173.54 2584.98L4138.26 2708.67L4091.73 2763.72L4115.97 2804.84L4150.06 2923.89L4236.65 2943.42L4260.72 3026.06L4444.87 2988.47ZM969.011 2741.42C969.011 2741.42 1342.96 2664.46 1345.69 2580.43C1348.42 2496.4 1308.99 2094.97 1308.99 2094.97L1344.94 1961.53L1232.31 1871.99L1145.78 1980.2L1193.66 2094.97L1166.81 2483.24L932.165 2520.11L969.011 2741.42Z" fill="#BEE3D8"/>
<path d="M4215.84 2535.28C4206.9 2544.5 4212.02 2597.26 4212.46 2609.99C4214.81 2677.4 4266.78 2752.78 4324.87 2782.95C4340.39 2791 4361.04 2747.32 4378.81 2771.79C4387.38 2783.59 4391.78 2811.67 4386.28 2825.61C4383.59 2832.44 4368.02 2843.89 4369.24 2851.2C4371.45 2864.56 4391.49 2879.63 4399.22 2890.28C4403.68 2896.43 4413.17 2914.58 4420.52 2916.84C4453.04 2926.86 4476.49 2937.17 4510.29 2922.49C4523.12 2916.92 4515.15 2865.71 4528.41 2881.3C4544.98 2900.78 4559.44 2941.11 4559.44 2966.46C4559.41 3012.59 4521.76 3055.66 4508.63 3098.23C4482.45 3183.1 4553.09 3268.35 4641.98 3253.59C4672.06 3248.59 4681.8 3231.04 4704.18 3219.21C4705.32 3218.61 4726.25 3237.53 4730.25 3239.11C4755.55 3249.1 4787.61 3254.73 4810.38 3235.35C4814.38 3231.95 4841.91 3208.21 4837.07 3201.55C4836.72 3201.07 4807.17 3206.65 4803.25 3205.7C4784.6 3201.13 4772.67 3186.29 4759.82 3174C4756.35 3170.69 4748.37 3155.05 4749.95 3149.94C4750.54 3148.03 4774.23 3138.31 4777.7 3135.79C4787.78 3128.47 4792.86 3112.96 4797.01 3101.76C4823.64 3029.82 4819.09 2945.6 4745.93 2904.66C4732.42 2897.1 4675.16 2872.45 4675.16 2872.45C4675.16 2872.45 4697.53 2839.59 4701.92 2825.33C4711.27 2795.04 4715.47 2762.71 4706.16 2731.4C4694.42 2691.89 4664.52 2658.03 4624.05 2648.11C4612.86 2645.37 4593.37 2651.47 4584.28 2647.37C4582.39 2646.52 4567.82 2579.8 4565.17 2571.99C4550.2 2528.25 4502.53 2491.86 4461.03 2475.48C4380.37 2443.64 4247.07 2457.76 4171.1 2497.92C4130.25 2519.51 4083.09 2560.33 4100.06 2613.97C4103.6 2625.17 4146.97 2665.97 4152.77 2661.75C4171.62 2648.07 4164.5 2603.35 4174.97 2583.18C4181.6 2570.4 4189.65 2550.71 4200.24 2540.8C4203.19 2538.04 4225.14 2525.68 4215.84 2535.28Z" fill="#5CBA9E"/>
<path d="M4272.93 3847.52C4272.93 3847.52 4249.12 4038.84 4231.48 4127.11C4218.73 4190.78 4212.82 4257.41 4197.11 4320.22C4186.16 4364.06 4188.38 4415.47 4179.47 4460.03C4172.36 4495.56 4174.43 4544.25 4180.53 4580.86C4190.76 4642.24 4201.89 4703.03 4217.25 4764.5C4232.08 4823.81 4257.53 5003.81 4257.53 5003.81C4257.53 5003.81 4347.69 5016.88 4390.23 5031.06C4442.18 5048.38 4491.67 5069.42 4546.61 5077.26C4636.96 5090.17 4727.91 5047.91 4815.7 5060.45C4881.03 5069.77 4890.49 5097.41 4956.25 5105.63C4995.71 5110.56 5071.58 5093.84 5109.36 5089.11C5149.3 5084.12 5233.78 5049.74 5233.78 5049.74C5233.78 5049.74 5192.41 4886.1 5185.39 4867.89C5127.93 4718.95 5076.58 4602.12 4961.26 4449.36C4835.86 4283.23 4824.18 4099.93 4723.63 3882.06C4711.82 3856.46 4640.61 3747.28 4640.61 3747.28C4640.61 3747.28 4558.27 3768.34 4531.06 3776.5C4447.46 3801.59 4272.93 3847.52 4272.93 3847.52Z" fill="#020144"/>
<path d="M592.73 2350.97C582.925 2327.62 547.013 2322.66 535.388 2299.41C519.196 2267.03 541.946 2240.77 576.63 2245.1C590.038 2246.78 624.763 2282.85 627.438 2282.31C655.08 2276.79 632.192 2219.05 634.975 2202.35C637.95 2184.5 659.967 2166.53 671.188 2153.06C691.93 2128.17 706.413 2056.17 688.796 2026.82C684 2018.83 672.292 2014.92 665.159 2009.22C657.021 2002.71 655.405 1991.84 647.046 1985.58C626.234 1969.97 576.005 1985.58 550.98 1985.58C463.254 1985.58 352.659 1963.1 283.404 2032.35C248.75 2067.01 260.6 2112.21 252.229 2154.06C246.363 2183.4 232.417 2210.24 228.088 2240.57C216.654 2320.6 299.596 2390.15 354.325 2431.2C383.892 2453.37 441.267 2483.38 479.563 2472.44C504.284 2465.38 524.4 2428.78 528.355 2405.04C529.65 2397.26 528.546 2380.81 533.384 2374.36C541.875 2363.04 599.8 2367.8 592.73 2350.97Z" fill="#020144"/>
<path d="M949.971 2510.04C949.971 2510.04 966.05 2548.78 967.538 2559.21C974.579 2608.48 999.433 2670.88 991.083 2720.97C988.271 2737.88 980.925 2812.61 980.925 2812.61L884.354 2845.01C884.354 2845.01 889.321 2935.78 889.321 2967.79C889.321 3069.45 894.271 3173.49 881.721 3273.85C880.5 3283.63 872.383 3414.09 870.45 3415.37C856.942 3424.37 843.192 3429.49 828.692 3437.7C735.096 3490.67 545.292 3478.26 435.921 3447.01C420.258 3442.54 318.475 3424.07 315.692 3410.16C312.717 3395.25 331.121 3375.98 331.121 3361.19C331.121 3343.51 310.887 3348.23 305.329 3317.83C298.046 3277.92 351.158 3288.05 312.708 3159.58C308.479 3145.45 266.1 3136.85 249.1 3129.56C201.929 3109.34 161.7 3083.48 121.508 3051.33C109.771 3041.93 63.1958 2997.98 63.1958 2997.98C63.1958 2997.98 90.5748 2942.28 99.4868 2921.47C114.554 2886.31 125.071 2851.4 144.05 2818.19C168.587 2775.25 185.537 2727.76 214.729 2686.89C278.375 2597.79 397.742 2567.46 499.717 2547.06C534.929 2540.01 570.85 2542.44 606.358 2537.37C671.408 2528.09 739.242 2531.59 805.012 2524.27C837.242 2520.7 949.971 2510.04 949.971 2510.04Z" fill="#020144"/>
<path d="M859.671 3425.42C740.788 3474.83 632.025 3482.13 505.521 3463.67C487.188 3460.99 362.913 3429.52 362.913 3429.52C362.913 3429.52 316.579 3488.44 316.113 3586.68C315.354 3745.59 332.446 3898.99 333.183 4057.19C333.821 4191.34 274.496 4304.44 219.35 4421.14C195.259 4472.15 163.525 4530.89 137.775 4581.14C124.375 4607.28 109.646 4634.73 100.459 4662.72C99.3249 4666.19 95.0839 4674.99 98.2499 4673.15C103.309 4670.21 113.742 4662.29 119.438 4661.46C143.621 4657.89 157.15 4656.54 181.404 4658.29C215.263 4660.74 275.204 4684.46 288.6 4692.12C301.996 4699.79 312.813 4708.56 316.425 4709.19C317.175 4709.34 322.467 4699.06 323.063 4698.45C344.092 4677.22 420.771 4629.27 428.367 4606.12C432.084 4594.81 419.363 4572.08 423.309 4555.52C427.871 4536.35 434.329 4520.89 444.488 4524.22C449.829 4525.97 473.792 4518.94 484.021 4520.75C543.254 4531.22 602.042 4591.41 639.592 4635.52C658.775 4658.07 685.217 4704.52 689.546 4733.87C690.267 4738.7 697.784 4756.57 690.184 4792.04C689.596 4794.78 714.854 4771.32 717.375 4768.65C757.938 4725.63 792.271 4687.33 823.934 4644.7C951.434 4473.02 1092.95 4283.45 1084.81 4056.87C1079.11 3898.63 1035.35 3732.13 955.471 3594.9C931.584 3553.84 910.242 3509.27 885.917 3467.47C879.804 3456.98 868.788 3421.62 859.671 3425.42ZM668.996 3983.19C672.213 3988.84 674.692 3993.62 675.959 3995.84C688.504 4017.92 729.638 4073.73 731.925 4096.71C732.5 4102.54 665.546 4194.9 657.3 4207.07C645.734 4224.12 636.242 4243.26 623.15 4259.24C620.559 4262.4 618.396 4271.32 615.246 4268.72C614.559 4268.17 618.059 4260.78 618.404 4259.87C627.513 4236.02 637.65 4213.1 643.388 4187.78C645.796 4177.15 648.688 4151.38 651.917 4132.44C661.621 4086.19 667.984 4039.43 668.371 3994.9C668.388 3992.17 668.804 3986.72 668.996 3983.19Z" fill="#5CBA9E"/>
<path d="M80.7708 4783.19C118.683 4737.06 156.921 4841.47 175.721 4860.81C185.467 4870.83 211.542 4872.4 217.463 4882C231.679 4905.04 231.313 4940.34 243.425 4965.44C255.708 4990.91 261.396 5019.89 274.287 5045.09C293.754 5083.16 334.804 5150.55 312.221 5194.18C301.779 5214.34 269.267 5196.34 257.904 5185.88C220.233 5151.21 197.833 5106.78 163.054 5071C140.683 5047.99 127.75 5015.16 103.508 4993.78C64.1957 4959.11 7.89575 4933.89 12.2368 4874.42C14.5328 4843.01 61.5958 4806.52 80.7708 4783.19Z" fill="#5CBA9E"/>
<path d="M3439.26 1083.34C3478.67 963.952 3536.58 789.06 3592.35 721.235C3623.69 683.122 3650.8 656.352 3689.64 625.035C3726.43 595.36 3784.41 593.064 3782.03 557.031C3775.55 458.906 3823.76 349.664 3891.45 391.322C3895.78 393.989 3894.07 474.764 3894.07 474.764C3894.07 474.764 3908.12 524.66 3916.67 538.21C3935.79 568.493 3963.41 578.489 3990.44 598.635C4004.91 609.422 4018.22 643.564 4018.22 643.564L4112.11 639.627C4112.11 639.627 4129.41 599.002 4138.47 582.385C4151.16 559.093 4172.44 545.068 4190.94 515.11C4209.45 485.156 4207.21 406.822 4207.21 406.822C4279.56 269.435 4402.42 440.864 4365.33 527.06C4357.99 544.114 4528.49 601.127 4578.66 708.16C4615.88 787.552 4644.46 854.068 4663.99 937.485C4682.02 1014.5 4726.74 1142.88 4715.71 1233.23C4706.89 1305.56 4673.76 1371.99 4641.09 1435.44C4624.22 1468.21 4573.78 1531 4573.78 1531C4573.78 1531 4481.86 1478.66 4442.33 1413.71C4441.09 1411.69 4424.09 1459.09 4413.2 1480.24C4394.16 1517.21 4385.12 1558.03 4333.68 1579.06C4315.26 1586.59 4296.59 1591.03 4277.82 1593.05C4128.35 1441.36 3954.91 1313.36 3763.66 1215.22C3749.34 1181.21 3735.62 1146.96 3723.59 1111.87C3718.89 1098.14 3686.92 1006.87 3686.92 1006.87C3686.92 1006.87 3644.45 1081.52 3633.79 1106.29C3627.84 1120.09 3621.48 1133.41 3614.82 1146.42C3557.59 1122.76 3499.02 1101.69 3439.26 1083.34Z" fill="#5CBA9E"/>
<path d="M4694.72 3825.4C4776.67 3794.93 4824.03 3711.82 4824.03 3711.82C4824.03 3711.82 4770.22 3596.01 4758.49 3573.94C4703.4 3470.36 4642.78 3361.06 4596.07 3254.22C4591.12 3242.86 4555.85 3252.85 4518.62 3188.72C4487.55 3135.21 4514.29 3121.87 4504.12 3102.76C4491.37 3078.79 4468.49 3057.34 4457.42 3032.01C4454.32 3024.91 4437.93 2990.21 4432.87 2987.95C4408.95 2977.24 4284.74 3005.45 4270.16 3025.96C4260.07 3040.15 4281.95 3081.53 4281.95 3081.53C4281.95 3081.53 4236.79 3130.67 4220.56 3153.47C4202.01 3179.55 4193.05 3211.81 4174.3 3238.16C4154.29 3266.3 4118.13 3292.19 4092.05 3314.49C4077.02 3327.34 4064.83 3347.27 4044.93 3354.15C4021.52 3362.23 3984.32 3343.98 3963.58 3333.28C3900.57 3300.76 3837.82 3265.47 3773.35 3236.61C3747.86 3225.2 3686.33 3197.11 3686.04 3197.52C3680.75 3204.95 3675.6 3233.82 3675.31 3243.19C3674.25 3278.17 3660.87 3310.09 3648.21 3342.41C3643.77 3353.74 3628.36 3385.37 3630.35 3397.18C3631.5 3403.94 3729.97 3460.45 3743.28 3468.45C3745.4 3469.73 3774.67 3486.73 3773.53 3488.33C3771.01 3491.88 3681.4 3464.6 3676.78 3469.47C3670.81 3475.74 3668.85 3504.52 3669.06 3512.68C3669.53 3531.46 3670.48 3645.05 3681.65 3655.66C3707.88 3680.61 3765.93 3693.27 3799.97 3702C3876.97 3721.75 3995.55 3786 4075.12 3758.55C4106.8 3747.62 4155.13 3692.8 4173.6 3666.84C4179.66 3658.31 4208.08 3620.66 4208.08 3620.66C4208.08 3620.66 4217.29 3669.51 4218.47 3676.56C4223.44 3706 4241.87 3849.42 4241.87 3849.42C4241.87 3849.42 4315.45 3829.61 4326.88 3829.31C4426.99 3826.79 4538.11 3764.86 4637.95 3748.01C4642.68 3747.22 4683.04 3829.75 4694.72 3825.4Z" fill="#5CBA9E"/>
<path d="M4877.55 5161.98C4865.71 5154.64 4838.71 5205.13 4831.58 5216.55C4793.13 5278.08 4780.38 5349.55 4751.44 5414.68C4734.03 5453.85 4752.07 5403.93 4742.59 5388.13C4738.6 5381.48 4711.64 5361.53 4705.22 5374.36C4701.14 5382.52 4703.8 5400.54 4702.76 5409.77C4698.56 5447.55 4682.61 5485.93 4682.61 5523.83C4682.61 5534.76 4677.75 5561.33 4689 5568.08C4720.79 5587.15 4775.82 5506.24 4790.28 5486.96C4821.93 5444.77 4829.11 5383.72 4852.72 5336.51C4867.47 5307.03 4925.54 5258.36 4928.44 5232.28C4931.75 5202.52 4900.29 5176.04 4877.55 5161.98Z" fill="#020144"/>
<path d="M4588.6 5327.81C4574.75 5321.39 4545.6 5349.18 4533.53 5357.26C4484.08 5390.31 4441.47 5439.28 4404.12 5485.1C4392.16 5499.78 4380.53 5516.97 4367.15 5530.32C4360.55 5536.9 4349.56 5552.03 4349.56 5552.03C4349.56 5552.03 4359.13 5538.38 4361.44 5530.53C4364.4 5520.41 4366.18 5460.27 4344.72 5464.13C4342.16 5464.59 4331.67 5496.52 4329.21 5500.07C4306.62 5532.59 4292.03 5570.66 4272.28 5604.84C4266.52 5614.81 4260.35 5633.09 4275.84 5637.35C4354.7 5658.98 4458.55 5526.23 4504.67 5474.86C4530.59 5445.98 4572.68 5435.28 4602.92 5412.69C4624.65 5396.44 4608.82 5337.16 4588.6 5327.81Z" fill="#020144"/>
<path d="M651.601 3952.52C674.122 3981.53 662.851 4068.46 651.914 4132.44C661.618 4086.18 667.981 4039.42 668.368 3994.89C668.385 3992.16 668.801 3986.72 668.993 3983.19C661.13 3969.42 650.214 3950.73 651.601 3952.52Z" fill="#73FDB3"/>
<path d="M515.251 4734.94C520.047 4732.52 522.314 4742.13 525.626 4746.11C532.039 4753.83 542.735 4759.8 551.135 4765.05C585.922 4786.84 657.814 4832.63 689.605 4786.11C707.697 4759.64 683.576 4708.44 671.218 4684.56C640.906 4625.96 523.681 4490.09 445.689 4525.94C429.439 4533.41 411.597 4591.86 428.789 4600.32C437.918 4604.82 452.792 4563.56 460.38 4565.6C536.542 4586.16 560.918 4644.59 560.918 4644.59C560.918 4644.59 530.117 4687.06 521.171 4705.23C518.642 4710.36 512.41 4736.37 515.251 4734.94Z" fill="#020144"/>
<path d="M214.051 4836.15C221.318 4851.79 317.201 4870.69 338.593 4872.94C346.018 4873.72 369.805 4878.39 374.522 4869.43C380.126 4858.8 326.255 4800.99 319.213 4786.98C311.343 4771.3 301.597 4756.52 304.705 4737.67C305.584 4732.34 316.33 4712.42 313.951 4709.62C285.518 4676.22 192.643 4652.9 149.688 4659.76C95.9877 4668.35 70.6716 4684.8 97.9626 4739.13C98.3046 4739.83 108.838 4720.74 109.843 4718.84C117.451 4704.4 196.638 4712.76 226.355 4773C235.222 4790.95 205.268 4817.21 214.051 4836.15Z" fill="#020144"/>
<path d="M407.241 4638.36C442.057 4621.23 455.82 4713.28 472.849 4728.14C477.545 4732.23 506.107 4745.19 506.462 4750.43C508.628 4782.3 499.745 4816.97 505.391 4849.6C514.466 4902.18 524.674 4954.01 532.516 5006.66C536.008 5030.11 544.033 5085.46 518.049 5100.01C500.583 5109.79 486.378 5087.5 476.095 5077.03C440.52 5040.83 431.87 4993.76 409.387 4950.38C399.458 4931.22 396.899 4907.06 387.537 4887.06C371.653 4853.06 345.12 4823.83 327.899 4790.61C317.762 4771.04 296.845 4749.37 305.266 4724.83C315.608 4694.7 356.133 4677.1 381.366 4662.98C392.112 4656.96 396.745 4643.52 407.241 4638.36Z" fill="#5CBA9E"/>
<path d="M4207.22 205.264C4207.22 205.264 4245.04 26.1435 4049.34 12.5225C3980.97 7.76452 3953.41 36.4775 3930.47 58.9565C3887.76 100.811 3891.46 157.444 3891.46 192.444C3891.46 222.786 3885.98 253.832 3891.46 301.224C3892.03 306.169 3992.97 385.469 4049.34 375.632C4103.59 376.374 4155.04 354.649 4202.72 302.719L4207.22 205.264Z" fill="#5CBA9E"/>
<path d="M4210.18 290.823C4210.18 290.823 4250.66 269.81 4253.13 315.193C4255.58 360.577 4210.18 401.189 4210.18 401.189C4210.18 401.189 4218.76 515.527 4141.17 581.935L4117.91 639.939L4021.61 644.443L3992.13 595.91C3992.13 595.91 3895.79 570.302 3889.05 408.752C3889.05 408.752 3836.15 381.264 3843.44 315.193C3850.73 249.122 3891.48 290.822 3891.48 290.822C3891.48 290.822 3958.75 381.31 4058.15 376.472C4157.56 371.639 4210.18 290.823 4210.18 290.823Z" fill="#CCCCDA" fill-opacity="0.7"/>
<path d="M4531.26 1594.36C4531.26 1594.36 4427.25 1800.94 4363.11 1812.26C4298.97 1823.58 4186.15 1812.36 4207.23 1785.59C4228.31 1758.82 4297.67 1782.28 4324.61 1767.62C4351.54 1752.96 4377.09 1677.7 4354.33 1668.25C4331.56 1658.8 4205.84 1720.59 4192.64 1699.58C4179.44 1678.58 4297.1 1627.68 4334.1 1594.36C4371.1 1561.04 4412.27 1477.25 4412.27 1477.25C4412.27 1477.25 4492.63 1580.68 4531.26 1594.36Z" fill="#CCCCDA" fill-opacity="0.7"/>
<path d="M4151.01 349.489C4151.01 349.489 4142.07 385.577 4207.2 387.727" stroke="#020144" stroke-width="26.04" stroke-miterlimit="10" stroke-linecap="round" stroke-linejoin="round"/>
<path d="M3947.68 349.489C3947.68 349.489 3956.62 385.577 3891.49 387.727" stroke="#020144" stroke-width="26.04" stroke-miterlimit="10" stroke-linecap="round" stroke-linejoin="round"/>
<path d="M4207.22 387.728V300.39L4150.62 349.49C4150.62 349.49 4152.05 386.844 4207.22 387.728Z" fill="#020144"/>
<path d="M3891.47 387.728V300.39L3948.08 349.49C3948.08 349.49 3946.65 386.844 3891.47 387.728Z" fill="#020144"/>
<path d="M1329.54 2272.5C1329.54 2272.5 1300.49 2284.6 1265.05 2273.95C1245.16 2267.97 1283.42 2321.12 1295.28 2388.28C1304.54 2440.76 1286.35 2510.38 1286.35 2510.38L1344.86 2485.43C1344.86 2485.43 1363.14 2413.25 1312.06 2418.4C1235.04 2426.18 1247.53 2331.63 1291.79 2339.75C1327.46 2346.3 1331.62 2391.24 1336.36 2336.96" stroke="#5CBA9E" stroke-width="22.58" stroke-miterlimit="10" stroke-linejoin="round"/>
<path d="M4217.89 2528.02C4170.52 2555.98 4164.85 2610.96 4152.72 2664.28C4149.52 2678.37 4145.86 2692.35 4140.86 2705.68C4131.57 2730.44 4109.22 2749.13 4086.14 2763.03" stroke="#020144" stroke-width="26.04" stroke-miterlimit="10" stroke-linecap="round" stroke-linejoin="round"/>
<path d="M3470.51 4869.02L3190.98 3631.58C3224.86 3613.31 3258.49 3598.33 3288.84 3575.06M2920.82 2284.09C2897.82 2281.86 2874.52 2280.73 2850.95 2280.73C2743.02 2280.73 2640.62 2304.58 2548.74 2347.31M4849.22 2853.1C4852.69 2901.26 4854.46 2949.89 4854.46 2998.93C4854.46 3205.56 4823.11 3404.94 4764.91 3592.55M4683.09 3810.36C4459.44 4314.08 4034.06 4708.7 3509.76 4891.43M4425.3 1760.25C4652.62 2048.67 4802.43 2400.95 4843.22 2785.59M1308.96 1720.24C1676.59 1277.51 2231.08 995.401 2850.95 995.401C3417.02 995.401 3928.58 1230.67 4293.08 1608.69M2488.69 2378.76C2275.82 2503.46 2132.74 2734.61 2132.74 2998.92C2132.74 3263.02 2275.61 3494.02 2488.2 3618.79" stroke="#020144" stroke-width="26.04" stroke-miterlimit="10" stroke-linejoin="round"/>
<path d="M4086.18 2763.03C4097.88 2774.26 4110.86 2789.15 4113.53 2800.73C4116.12 2811.95 4117.81 2823.18 4119.24 2834.13C4127.47 2896.95 4127.3 2950.16 4241.35 2936.15" stroke="#020144" stroke-width="26.04" stroke-miterlimit="10" stroke-linecap="round" stroke-linejoin="round"/>
<path d="M4241.34 2936.16L4280.59 3082.66" stroke="#020144" stroke-width="26.04" stroke-miterlimit="10" stroke-linecap="round" stroke-linejoin="round"/>
<path d="M4225.8 2503.43C4222.69 2511.67 4220.06 2519.87 4217.91 2528.01C4190 2633.53 4240.9 2729.8 4328.04 2788.04" stroke="#020144" stroke-width="26.04" stroke-miterlimit="10" stroke-linecap="round" stroke-linejoin="round"/>
<path d="M4328.05 2788.04C4369.49 2737.64 4406.25 2791.68 4381.8 2832.14C4362.78 2863.61 4348.66 2862.62 4320.75 2862.75" stroke="#020144" stroke-width="26.04" stroke-miterlimit="10" stroke-linecap="round" stroke-linejoin="round"/>
<path d="M4152.72 2664.28C4124.6 2653.36 4095.79 2627.29 4094.47 2605.84C4085.19 2455.27 4385.08 2432.86 4476.58 2480.02C4570.92 2528.64 4584.54 2592.09 4579.51 2642.3" stroke="#020144" stroke-width="26.04" stroke-miterlimit="10" stroke-linecap="round" stroke-linejoin="round"/>
<path d="M4556.22 2641.8C4564.21 2641.73 4571.99 2641.89 4579.54 2642.3C4640.76 2645.62 4686.49 2665.49 4705.39 2718.11C4725.14 2773.11 4706.99 2828.63 4671.8 2871.68" stroke="#020144" stroke-width="26.04" stroke-miterlimit="10" stroke-linecap="round" stroke-linejoin="round"/>
<path d="M4671.8 2871.69C4736.25 2885.74 4791.6 2928.77 4802.93 2960.8C4830.95 3039.99 4811.6 3114.91 4749.01 3155.91" stroke="#020144" stroke-width="26.04" stroke-miterlimit="10" stroke-linecap="round" stroke-linejoin="round"/>
<path d="M4569.14 2735.24C4571.76 2763.82 4572.26 2801.35 4534.64 2849.93C4515.96 2874.06 4533.58 2913.79 4499.64 2928.19C4471.39 2940.18 4446.44 2924.63 4419.9 2916.32" stroke="#020144" stroke-width="26.04" stroke-miterlimit="10" stroke-linecap="round" stroke-linejoin="round"/>
<path d="M4525.01 2876.4C4567.37 2913.99 4560.86 2956.1 4556.44 2980.45C4548.75 3022.71 4521.1 3062.76 4508.26 3103C4498.13 3134.76 4497.22 3166.64 4522.64 3199.8C4547.37 3232.06 4572.37 3247.65 4595.7 3253.47C4653.98 3268.02 4701.82 3221.57 4708.79 3221.57C4713.24 3221.57 4774.66 3292.59 4841.67 3202.1C4841.67 3202.1 4785.71 3219.32 4749.01 3155.92" stroke="#020144" stroke-width="26.04" stroke-miterlimit="10" stroke-linecap="round" stroke-linejoin="round"/>
<path d="M4308.72 3059.83C4306.45 3064.38 4295.87 3069.9 4280.59 3082.66C4263.17 3097.19 4239.64 3121.11 4215.32 3163.67C4206.47 3179.15 4190.2 3208.23 4169.97 3244.43C4123.66 3327.32 4056.56 3447.57 4010.07 3527.59" stroke="#020144" stroke-width="26.04" stroke-miterlimit="10" stroke-linecap="round" stroke-linejoin="round"/>
<path d="M4018.97 3534.6C3976.28 3499.76 3988.35 3524.53 3957.41 3522.4C3939.2 3521.14 3708.93 3470.92 3611.98 3454.74C3611.98 3454.74 3514.34 3348.23 3479.57 3305.9" stroke="#020144" stroke-width="26.04" stroke-miterlimit="10" stroke-linecap="round" stroke-linejoin="round"/>
<path d="M3546.14 3382.1C3508.05 3416.39 3393.66 3400.8 3360.06 3398.63" stroke="#020144" stroke-width="26.04" stroke-miterlimit="10" stroke-linecap="round" stroke-linejoin="round"/>
<path d="M3456.39 3452.26C3384.65 3451.5 3374.29 3446.22 3303.18 3429.93" stroke="#020144" stroke-width="26.04" stroke-miterlimit="10" stroke-linecap="round" stroke-linejoin="round"/>
<path d="M3266.76 3467.9C3338.75 3497.6 3364.07 3495.26 3436.66 3498.7" stroke="#020144" stroke-width="26.04" stroke-miterlimit="10" stroke-linecap="round" stroke-linejoin="round"/>
<path d="M3312.97 3545.91C3323.07 3545.82 3333.19 3545.51 3343.34 3545.06C3386.22 3542.35 3489.72 3536.75 3532.08 3542.13C3576.88 3547.83 3622.29 3562.19 3664.79 3579.88" stroke="#020144" stroke-width="26.04" stroke-miterlimit="10" stroke-linecap="round" stroke-linejoin="round"/>
<path d="M3677.6 3466.76C3666.25 3502.86 3662.67 3541.41 3664.77 3579.89C3666.22 3606.5 3670.39 3633.07 3676.6 3658.77" stroke="#020144" stroke-width="26.04" stroke-miterlimit="10" stroke-linecap="round" stroke-linejoin="round"/>
<path d="M4212.18 3618.3L4240.58 3850.63" stroke="#020144" stroke-width="26.04" stroke-miterlimit="10" stroke-linecap="round" stroke-linejoin="round"/>
<path d="M4595.68 3253.47L4826.83 3716.6" stroke="#020144" stroke-width="26.04" stroke-miterlimit="10" stroke-linecap="round" stroke-linejoin="round"/>
<path d="M4826.84 3716.6C4819.06 3726.84 4810.01 3737.05 4800.04 3747.07C4769.84 3777.45 4731.23 3806.04 4694.01 3828.3" stroke="#020144" stroke-width="26.04" stroke-miterlimit="10" stroke-linecap="round" stroke-linejoin="round"/>
<path d="M4240.6 3850.65C4250.94 3848.38 4262.4 3845.87 4274.42 3843.22C4316.85 3833.88 4366.18 3822.84 4397.35 3814.67C4477.53 3793.7 4559.25 3765.23 4641.62 3748.67C4662.75 3744.42 4683.92 3740.95 4705.12 3738.6C4737.67 3735 4771.43 3735.23 4800.05 3747.09" stroke="#020144" stroke-width="26.04" stroke-miterlimit="10" stroke-linecap="round" stroke-linejoin="round"/>
<path d="M4428.8 2919.35C4429.03 2940.74 4430.29 2959.23 4437.05 2985.11C4437.16 2985.52 4437.26 2985.92 4437.37 2986.33C4449.03 3030.27 4481.15 3065.35 4508.25 3103" stroke="#020144" stroke-width="26.04" stroke-miterlimit="10" stroke-linecap="round" stroke-linejoin="round"/>
<path d="M4437.05 2985.12C4379.31 2979.95 4313.28 3000.16 4265.2 3025.25" stroke="#020144" stroke-width="26.04" stroke-miterlimit="10" stroke-linecap="round" stroke-linejoin="round"/>
<path d="M4169.97 3244.44C4147.83 3264.97 4125.35 3284.89 4105.28 3304.51C4090.3 3319.16 4064.6 3350.74 4041.06 3352.56C4005.42 3355.31 3955.44 3326.53 3925.16 3312.95C3820.01 3265.8 3718.66 3220.56 3620.54 3158.69" stroke="#020144" stroke-width="26.04" stroke-miterlimit="10" stroke-linecap="round" stroke-linejoin="round"/>
<path d="M4178.55 2708.05C4178.55 2695.43 4182.18 2685.21 4186.66 2685.21C4191.14 2685.21 4194.77 2695.43 4194.77 2708.05C4194.77 2720.66 4191.14 2730.87 4186.66 2730.87C4182.18 2730.87 4178.55 2720.66 4178.55 2708.05Z" fill="white" stroke="#020144" stroke-width="26.04" stroke-miterlimit="10" stroke-linecap="round" stroke-linejoin="round"/>
<path d="M4196.64 2833.43C4171.11 2849.23 4137.3 2841.31 4119.21 2834.13" stroke="#020144" stroke-width="26.04" stroke-miterlimit="10" stroke-linecap="round" stroke-linejoin="round"/>
<path d="M4274.43 3843.23C4250.95 4000.87 4190 4328.97 4176.36 4492.68C4166.96 4605.32 4204.34 4710.03 4225.32 4819.15C4237.46 4882.29 4245.64 4945.08 4252.54 5008.21" stroke="#020144" stroke-width="26.04" stroke-miterlimit="10" stroke-linecap="round" stroke-linejoin="round"/>
<path d="M4641.6 3748.66C4661.33 3775.92 4678.66 3802.46 4694 3828.3C4806.64 4018.06 4811.89 4170.28 4870.66 4296.22C4936.23 4436.75 5040.86 4550.01 5112.03 4686.88C5172.88 4803.88 5203.34 4923.39 5234.77 5049.43" stroke="#020144" stroke-width="26.04" stroke-miterlimit="10" stroke-linecap="round" stroke-linejoin="round"/>
<path d="M5234.76 5049.44C5154.06 5078.07 5005.82 5118 4938.15 5103.02C4886.85 5091.67 4839.44 5062.82 4788.04 5053.78C4784.07 5053.08 4780.12 5052.54 4776.18 5052.16C4727.69 5047.46 4681.36 5065.6 4633.96 5076.51C4607.89 5082.51 4581.5 5086.33 4554.24 5082.96C4545.11 5081.83 4536.04 5080.21 4527.04 5078.22C4475.24 5066.78 4425.25 5043.06 4374.46 5029.43C4370.02 5028.24 4365.57 5027.1 4361.12 5026.01C4325.19 5017.25 4288.94 5011.89 4252.5 5008.2" stroke="#020144" stroke-width="26.04" stroke-miterlimit="10" stroke-linecap="round" stroke-linejoin="round"/>
<path d="M4361.14 5026.02C4393.76 5146.1 4415.98 5268.01 4375.54 5388.51C4354.98 5449.77 4321.31 5510.33 4289.84 5566.61C4283.36 5578.19 4256.93 5618.3 4263.97 5632.69C4275.44 5656.1 4347.55 5619.34 4359.66 5611.1C4422.13 5568.63 4464.57 5504.69 4524.48 5460.02C4546.49 5443.62 4594.37 5426.81 4609.38 5404.54C4632.24 5370.64 4562.4 5290.39 4549.75 5257.81C4526.87 5198.88 4526.24 5139.22 4527.06 5078.22" stroke="#020144" stroke-width="26.04" stroke-miterlimit="10" stroke-linecap="round" stroke-linejoin="round"/>
<path d="M4633.97 5076.52C4673.17 5145.02 4701.22 5218.09 4704.75 5299.97C4707.54 5364.53 4697.84 5433.15 4688.65 5496.96C4686.75 5510.1 4676.47 5557.02 4688.21 5567.91C4707.3 5585.66 4761.43 5525.47 4769.78 5513.45C4812.86 5451.39 4829.53 5376.48 4869.44 5313.3C4884.1 5290.1 4922.76 5257.21 4928.78 5231.05C4937.95 5191.2 4843.97 5141.35 4820.48 5115.47C4802.56 5095.74 4788.29 5074.47 4776.19 5052.17" stroke="#020144" stroke-width="26.04" stroke-miterlimit="10" stroke-linecap="round" stroke-linejoin="round"/>
<path d="M3338.05 3545.29C3244.84 3594.11 3138.77 3621.73 3026.25 3621.73C2654.6 3621.73 2353.32 3320.45 2353.32 2948.81C2353.32 2577.16 2654.6 2275.89 3026.25 2275.89C3397.89 2275.89 3699.17 2577.16 3699.17 2948.81C3699.17 3112.5 3640.72 3262.54 3543.55 3379.2" stroke="#020144" stroke-width="20.79" stroke-miterlimit="10" stroke-linecap="round" stroke-linejoin="round"/>
<path d="M2859.84 2695.79L2859.93 2696.12C2864.07 2694.84 2868.37 2693.5 2872.72 2692.33L2859.84 2695.79Z" fill="#FD0177"/>
<path d="M3134.6 2752.33L3341.18 2696.97L3308.64 2575.53L2872.73 2692.33C2967.9 2666.83 3064.95 2692.46 3134.6 2752.33Z" fill="#FD0177"/>
<path d="M3234.18 2958.16L3399.28 2913.92L3366.74 2792.48L3201.64 2836.71C3211.23 2855.12 3219 2874.73 3224.6 2895.64C3230.2 2916.55 3233.29 2937.42 3234.18 2958.16Z" fill="#0FBBFB"/>
<path d="M3008.64 3251.14L3021.52 3247.69C3017.17 3248.85 3012.95 3249.8 3008.55 3250.8L3008.64 3251.14Z" fill="#F4E301"/>
<path d="M3021.51 3247.69L3457.42 3130.88L3424.89 3009.44L3218.3 3064.79C3187.92 3151.46 3116.69 3222.18 3021.51 3247.69Z" fill="#F4E301"/>
<path d="M3201.64 2836.72C3184.62 2803.99 3161.59 2775.56 3134.57 2752.32C3064.92 2692.46 2967.87 2666.82 2872.69 2692.33C2868.34 2693.5 2864.21 2694.78 2859.9 2696.12C2714.49 2742.25 2629.53 2895.53 2669.42 3044.4C2709.27 3193.11 2859.49 3283.38 3008.53 3250.8C3012.75 3249.84 3017.15 3248.84 3021.5 3247.68C3116.68 3222.17 3187.91 3151.45 3218.29 3064.79C3230.07 3031.15 3235.81 2995.01 3234.18 2958.16C3233.29 2937.42 3230.2 2916.55 3224.6 2895.65C3219 2874.74 3211.23 2855.12 3201.64 2836.72ZM2988.96 3126.24C2902.81 3149.32 2813.94 3098.01 2790.86 3011.87C2767.78 2925.72 2819.09 2836.85 2905.23 2813.77C2969.8 2796.47 3036.08 2821.02 3074.68 2870.74C3087.56 2887.37 3097.38 2906.61 3103.16 2928.19C3108.94 2949.76 3110.06 2971.34 3107.22 2992.18C3098.48 3054.58 3053.52 3108.94 2988.96 3126.24Z" fill="#01BD9C"/>
<path d="M3403.89 3541.46C3289.05 3632.69 3143.71 3687.18 2985.64 3687.18C2614 3687.18 2312.72 3385.91 2312.72 3014.27C2312.72 2857.49 2366.33 2713.23 2456.23 2598.83C2394.02 2700.8 2358.17 2820.62 2358.17 2948.81C2358.17 3320.45 2659.46 3621.73 3031.1 3621.73C3143.79 3621.73 3250.01 3594.02 3343.33 3545.06C3363.46 3544.17 3383.67 3542.73 3403.89 3541.46Z" fill="#020144"/>
<path d="M676.121 2140.52C727.35 2272.02 776.075 2472.57 616.096 2471.88" stroke="#020144" stroke-width="26.04" stroke-miterlimit="10" stroke-linecap="round" stroke-linejoin="round"/>
<path d="M616.681 2455.37L613.76 2536.64" stroke="#020144" stroke-width="26.04" stroke-miterlimit="10" stroke-linecap="round" stroke-linejoin="round"/>
<path d="M686.541 2018.85C704.124 2054.01 696.291 2100.64 676.116 2140.51C665.349 2161.8 651.066 2181.15 635.253 2195.81" stroke="#020144" stroke-width="26.04" stroke-miterlimit="10" stroke-linecap="round" stroke-linejoin="round"/>
<path d="M633.291 2176.06L642.507 2268.74L624.578 2284.62C624.578 2284.62 563.645 2222.14 534.453 2258.5C505.27 2294.85 570.303 2341.97 596.937 2351.7L532.924 2375.26C532.924 2375.26 530.87 2499.7 433.066 2469.99C335.262 2440.29 154.495 2299.98 250.77 2156.09C250.77 2156.09 222.095 2028.07 345.499 1994.78C468.916 1961.5 551.653 1994.26 594.528 1981.63C650.724 1965.07 658.387 2004.7 658.387 2004.7L686.545 2018.85" stroke="#020144" stroke-width="26.04" stroke-miterlimit="10" stroke-linecap="round" stroke-linejoin="round"/>
<path d="M437.121 2471.15C430.6 2502.39 416.217 2538.55 403.138 2566.96" stroke="#020144" stroke-width="26.04" stroke-miterlimit="10" stroke-linecap="round" stroke-linejoin="round"/>
<path d="M1305.75 2094.98C1327.09 2049.05 1340.73 2014.14 1334.63 1968.99C1331.76 1947.71 1313.58 1964.78 1303.81 1929.13C1294.03 1893.48 1270.74 1926.58 1258.67 1892.08C1246.59 1857.57 1195.41 1881.72 1194.27 1912.78C1193.11 1943.83 1153.44 1941.53 1143.66 1985.23C1133.89 2028.93 1192.31 2080.73 1192.31 2080.73L1172.54 2485.79C1102.18 2498.29 1027.17 2506.33 950.993 2512.53C837.385 2521.77 721.156 2526.92 613.76 2536.65C605.126 2537.43 596.556 2538.24 588.047 2539.09C522.501 2545.6 460.676 2551.3 403.135 2566.96C337.747 2584.76 277.889 2615.42 224.385 2674.75C181.951 2721.78 107.71 2898.59 63.7559 2998.65" stroke="#020144" stroke-width="26.04" stroke-miterlimit="10" stroke-linecap="round" stroke-linejoin="round"/>
<path d="M951.001 2512.53C981.247 2588.11 992.113 2663.37 988.663 2741.84C987.647 2765 985.38 2788.43 982.001 2812.24" stroke="#020144" stroke-width="26.04" stroke-miterlimit="10" stroke-linecap="round" stroke-linejoin="round"/>
<path d="M63.7607 2998.65C85.6807 3023.52 111.469 3045.76 139.469 3065.69C192.711 3103.58 253.948 3133.12 311.79 3156.55" stroke="#020144" stroke-width="26.04" stroke-miterlimit="10" stroke-linecap="round" stroke-linejoin="round"/>
<path d="M982.001 2812.24C949.605 2823.39 917.193 2834.36 884.28 2843.65C861.88 2849.97 839.251 2855.51 816.239 2859.8" stroke="#020144" stroke-width="26.04" stroke-miterlimit="10" stroke-linecap="round" stroke-linejoin="round"/>
<path d="M884.271 2843.66C895.234 2988.98 886.959 3267.97 873.43 3382.97" stroke="#020144" stroke-width="26.04" stroke-miterlimit="10" stroke-linecap="round" stroke-linejoin="round"/>
<path d="M261.381 2955.65C274.706 3012.5 288.435 3069.75 303.076 3126.28C305.622 3136.12 308.66 3146.25 311.785 3156.56C321.031 3187.04 331.051 3219.07 331.397 3249.48C331.701 3276.32 307.197 3293.63 305.322 3317.84C304.131 3333.38 324.66 3350.67 329.697 3365.23C333.706 3376.8 314.976 3395.85 314.197 3407.88C314.164 3408.42 314.135 3408.95 314.118 3409.49" stroke="#020144" stroke-width="26.04" stroke-miterlimit="10" stroke-linecap="round" stroke-linejoin="round"/>
<path d="M862.801 3420.16C749.222 3488.25 549.047 3497.2 362.164 3428.91C346.026 3423.02 329.989 3416.54 314.118 3409.48" stroke="#020144" stroke-width="26.04" stroke-miterlimit="10" stroke-linecap="round" stroke-linejoin="round"/>
<path d="M139.471 3065.69C94.6537 3181.99 40.7287 3312.89 193.762 3477.37" stroke="#020144" stroke-width="26.04" stroke-miterlimit="10" stroke-linecap="round" stroke-linejoin="round"/>
<path d="M988.661 2741.84C1111.21 2713.22 1301.61 2654.31 1335.46 2578.04C1363.06 2515.85 1323.28 2194.2 1305.76 2094.97" stroke="#020144" stroke-width="26.04" stroke-miterlimit="10" stroke-linecap="round" stroke-linejoin="round"/>
<path d="M832.871 3362.96C884.021 3465.25 947.03 3560.83 987.484 3668.71C1013.27 3737.47 1045.3 3810.41 1060.45 3882.39C1075.39 3953.35 1093.16 4036.84 1086.5 4109.98C1069.5 4297.12 943.084 4479.42 836.342 4627.68C795.471 4684.44 742.35 4747.62 684.213 4799.98C682.463 4801.55 680.709 4803.12 678.95 4804.68" stroke="#020144" stroke-width="26.04" stroke-miterlimit="10" stroke-linecap="round" stroke-linejoin="round"/>
<path d="M517.731 3704.43L737.935 4099.6" stroke="#020144" stroke-width="26.04" stroke-miterlimit="10" stroke-linecap="round" stroke-linejoin="round"/>
<path d="M779.551 4039.81L427.834 4545.31" stroke="#020144" stroke-width="26.04" stroke-miterlimit="10" stroke-linecap="round" stroke-linejoin="round"/>
<path d="M362.171 3428.92C356.542 3444.75 346.204 3461.72 338.604 3477.04C336.175 3481.94 334.025 3486.67 332.396 3491.14C321.35 3521.53 318.363 3554.59 316.217 3586.75C303.671 3775.03 355.154 3964.85 325.05 4153.04C305.938 4272.47 243.183 4370.08 191.192 4476.65C157.813 4545.08 125.529 4613.58 91.2709 4681.36C90.3249 4683.23 89.3748 4685.1 88.4248 4686.97" stroke="#020144" stroke-width="26.04" stroke-miterlimit="10" stroke-linecap="round" stroke-linejoin="round"/>
<path d="M429.651 4605.61C422.414 4581.71 421.476 4560.75 427.797 4545.57C429.993 4540.31 433.055 4535.75 437.031 4532C437.072 4531.96 437.11 4531.93 437.151 4531.89C448.268 4521.5 465.035 4518.78 484.985 4522.66C519.043 4529.27 562.385 4555.11 602.772 4594.83C608.122 4600.1 613.422 4605.6 618.639 4611.34C686.41 4685.84 714.964 4771.11 682.431 4801.78C651.639 4830.81 577.197 4800.57 511.872 4734.13" stroke="#020144" stroke-width="26.04" stroke-miterlimit="10" stroke-linecap="round" stroke-linejoin="round"/>
<path d="M604.041 4594.02C566.462 4636.42 521.574 4688.66 514.262 4722.78C513.62 4725.78 513.033 4728.79 512.499 4731.81C497.416 4816.8 523.42 4910.44 531.416 4994.32C534.541 5027.21 547.978 5078.55 515.691 5100.07C488.945 5117.9 452.428 5048.27 444.232 5032.9C416.728 4981.33 403.437 4922.72 377.328 4870.4C370.982 4857.68 363.874 4845.33 355.624 4833.54C336.937 4806.84 298.295 4770.08 305.607 4733.5C307.528 4723.9 311.778 4715.51 317.503 4707.95C335.003 4684.86 366.232 4669.64 386.353 4652.03C401.791 4638.52 416.162 4622.24 429.695 4604.67C449.849 4578.52 468.162 4549.52 485.42 4522.62" stroke="#020144" stroke-width="26.04" stroke-miterlimit="10" stroke-linecap="round" stroke-linejoin="round"/>
<path d="M268.921 4683.23C242.871 4733.99 211.6 4796.88 213.029 4832.19C213.071 4833.26 213.121 4834.33 213.179 4835.39C217.854 4923.55 267.933 5009.83 297.204 5090.92C308.425 5122 334.221 5168.38 308.296 5197.27C286.833 5221.18 234.137 5162.83 222.379 5149.98C173.304 5096.4 142.796 5026.81 86.9418 4978.94C62.1918 4957.72 15.6169 4931.75 13.6039 4894.49C11.4579 4854.84 51.4959 4824.78 71.5419 4795.5C82.3669 4779.7 91.6788 4761.78 99.9828 4742.88C111.917 4715.7 121.754 4686.5 130.958 4658.63" stroke="#020144" stroke-width="26.04" stroke-miterlimit="10" stroke-linecap="round" stroke-linejoin="round"/>
<path d="M669.671 3977.11C666.583 4070.41 650.033 4166.78 620.713 4254.73C619.033 4259.77 616.342 4268.85 612.971 4279.23" stroke="#020144" stroke-width="26.04" stroke-miterlimit="10" stroke-linecap="round" stroke-linejoin="round"/>
<path d="M4206.6 289.969C4247.33 255.394 4260.97 310.69 4254.09 341.461C4247.2 372.232 4230.88 392.774 4206.6 397.04" stroke="#020144" stroke-width="26.04" stroke-miterlimit="10" stroke-linecap="round" stroke-linejoin="round"/>
<path d="M3890.84 289.969C3850.1 255.394 3836.47 310.69 3843.35 341.461C3850.24 372.232 3866.56 392.774 3890.84 397.04" stroke="#020144" stroke-width="26.04" stroke-miterlimit="10" stroke-linecap="round" stroke-linejoin="round"/>
<path d="M4103.68 448.615C4103.68 435.424 4108.07 424.715 4113.49 424.715C4118.9 424.715 4123.29 435.424 4123.29 448.615C4123.29 461.811 4118.9 472.507 4113.48 472.507C4108.07 472.507 4103.68 461.811 4103.68 448.615Z" stroke="#020144" stroke-width="26.04" stroke-miterlimit="10" stroke-linecap="round" stroke-linejoin="round"/>
<path d="M3979.64 448.615C3979.64 435.424 3984.02 424.715 3989.43 424.715C3994.85 424.715 3999.24 435.424 3999.24 448.615C3999.24 461.811 3994.85 472.507 3989.43 472.507C3984.02 472.507 3979.64 461.811 3979.64 448.615Z" stroke="#020144" stroke-width="26.04" stroke-miterlimit="10" stroke-linecap="round" stroke-linejoin="round"/>
<path d="M4100.18 537.393C4100.18 537.393 4056.21 569.806 4001.58 534.623" stroke="#020144" stroke-width="26.04" stroke-miterlimit="10" stroke-linecap="round" stroke-linejoin="round"/>
<path d="M4372.22 534.627C4440.2 575.123 4502.7 616.835 4531.86 646.643C4619.94 736.689 4655.05 896.018 4682.04 1014.49C4702.46 1104.09 4733.51 1211.63 4703.53 1302.55C4674.05 1391.96 4634.54 1448.7 4574.92 1531.62C4562.75 1548.53 4549.75 1566.54 4535.83 1586.13C4529.21 1595.45 4522.37 1605.13 4515.32 1615.22C4515.32 1615.22 4445.39 1764.55 4377.13 1803.43C4308.88 1842.33 4193.01 1808.2 4193.8 1785.19C4194.6 1762.17 4351.73 1816.13 4363.64 1710.59C4375.54 1605.03 4245.19 1705.37 4215.23 1702.66C4193.5 1700.68 4175.55 1686.78 4198.57 1666.93C4221.58 1647.09 4362.85 1576.47 4385.07 1536.78C4390.98 1526.23 4401.51 1506.22 4413.83 1481.05C4423.26 1461.76 4433.75 1439.44 4444 1416.02C4470.67 1355.05 4495.77 1286.6 4496.71 1244.73C4498.48 1165.78 4423.6 980.356 4423.6 980.356" stroke="#020144" stroke-width="26.04" stroke-miterlimit="10" stroke-linecap="round" stroke-linejoin="round"/>
<path d="M4443.97 1416.02C4473.87 1457.07 4519.67 1501.19 4574.89 1531.62" stroke="#020144" stroke-width="26.04" stroke-miterlimit="10" stroke-linecap="round" stroke-linejoin="round"/>
<path d="M4413.8 1481.06C4449.54 1528.05 4494.74 1562.98 4535.8 1586.13" stroke="#020144" stroke-width="26.04" stroke-miterlimit="10" stroke-linecap="round" stroke-linejoin="round"/>
<path d="M3783.6 554.89C3713.83 609.557 3641.01 670.211 3602.47 708.753C3564.68 746.544 3491.94 935.807 3439.23 1083.32" stroke="#020144" stroke-width="26.04" stroke-miterlimit="10" stroke-linecap="round" stroke-linejoin="round"/>
<path d="M3729.51 926.625L3612.88 1145.61" stroke="#020144" stroke-width="26.04" stroke-miterlimit="10" stroke-linecap="round" stroke-linejoin="round"/>
<path d="M3687.01 1006.49L3769.72 1218.33" stroke="#020144" stroke-width="26.04" stroke-miterlimit="10" stroke-linecap="round" stroke-linejoin="round"/>
<path d="M4141.51 574.939L4077.95 725.993" stroke="#020144" stroke-width="26.04" stroke-miterlimit="10" stroke-linecap="round" stroke-linejoin="round"/>
<path d="M4069.72 725.996L3987.38 592.721" stroke="#020144" stroke-width="26.04" stroke-miterlimit="10" stroke-linecap="round" stroke-linejoin="round"/>
<path d="M4112.64 643.565H4018.82" stroke="#020144" stroke-width="26.04" stroke-miterlimit="10" stroke-linecap="round" stroke-linejoin="round"/>
<path d="M4371.8 3368.14C4345.23 3410.36 4278.91 3524.25 4212.17 3618.3C4160.72 3690.81 4109.02 3751.53 4075.1 3758.56C3984.38 3777.34 3791.08 3696.17 3676.58 3658.76" stroke="#020144" stroke-width="26.04" stroke-miterlimit="10" stroke-linecap="round" stroke-linejoin="round"/>
<path d="M377.331 4870.44C338.465 4878.62 278.04 4867.33 217.115 4837.36C215.794 4836.72 214.481 4836.06 213.177 4835.4M99.9806 4742.89C86.7726 4722.24 82.1186 4702.65 88.4226 4686.99C88.7606 4686.16 89.1307 4685.33 89.5307 4684.51C90.0607 4683.44 90.6396 4682.39 91.2686 4681.38C98.5856 4669.57 112.511 4662.02 130.956 4658.64C165.611 4652.29 216.223 4660.67 268.919 4683.24C275.415 4686.02 281.948 4689.02 288.481 4692.24C298.594 4697.21 308.286 4702.48 317.506 4707.99" stroke="#020144" stroke-width="26.04" stroke-miterlimit="10" stroke-linecap="round" stroke-linejoin="round"/>
<path d="M4049.34 94.1436C4136.53 94.1436 4207.22 164.832 4207.22 252.023V447.19C4207.22 534.382 4136.53 605.069 4049.34 605.069C3962.14 605.069 3891.46 534.382 3891.46 447.19V252.023C3891.46 164.832 3962.14 94.1436 4049.34 94.1436Z" stroke="#020144" stroke-width="26.04" stroke-miterlimit="10" stroke-linecap="round" stroke-linejoin="round"/>
<path d="M3891.47 315.193V147.877C3891.47 73.1225 3962.15 12.5225 4049.35 12.5225C4136.54 12.5225 4207.23 73.1235 4207.23 147.877V315.193" stroke="#020144" stroke-width="24.25" stroke-miterlimit="10" stroke-linecap="round" stroke-linejoin="round"/>
<path fill-rule="evenodd" clip-rule="evenodd" d="M3503.39 4861.94L3437.14 4876.24L3451.44 4942.49L3517.69 4928.19L3503.39 4861.94Z" stroke="#020144" stroke-width="22.58" stroke-miterlimit="10" stroke-linecap="round" stroke-linejoin="round"/>
<path fill-rule="evenodd" clip-rule="evenodd" d="M1334.67 1741.52L1282.45 1698.3L1239.24 1750.52L1291.46 1793.73L1334.67 1741.52Z" stroke="#020144" stroke-width="22.58" stroke-miterlimit="10" stroke-linecap="round" stroke-linejoin="round"/>
<path fill-rule="evenodd" clip-rule="evenodd" d="M4877.26 2782.42L4809.77 2788.71L4816.07 2856.2L4883.55 2849.9L4877.26 2782.42Z" stroke="#020144" stroke-width="22.58" stroke-miterlimit="10" stroke-linecap="round" stroke-linejoin="round"/>
<path fill-rule="evenodd" clip-rule="evenodd" d="M2563.8 3619.53L2503.33 3588.92L2472.72 3649.4L2533.2 3680L2563.8 3619.53Z" stroke="#020144" stroke-width="22.58" stroke-miterlimit="10" stroke-linecap="round" stroke-linejoin="round"/>
<path fill-rule="evenodd" clip-rule="evenodd" d="M2533.55 2316.7L2472.84 2346.83L2502.97 2407.54L2563.68 2377.41L2533.55 2316.7Z" stroke="#020144" stroke-width="22.58" stroke-miterlimit="10" stroke-linecap="round" stroke-linejoin="round"/>
<path d="M4207.22 290.823C4173.6 342.372 4115.42 376.473 4049.34 376.473C3983.26 376.473 3925.09 342.373 3891.46 290.823" stroke="#020144" stroke-width="26.04" stroke-miterlimit="10" stroke-linecap="round" stroke-linejoin="round"/>
<path fill-rule="evenodd" clip-rule="evenodd" d="M3994.01 281.224V327.811C4011.51 333.186 4030.09 336.082 4049.34 336.082C4068.59 336.082 4087.16 333.186 4104.66 327.811V281.224C4087.16 286.603 4068.59 289.494 4049.34 289.494C4030.09 289.494 4011.51 286.603 3994.01 281.224Z" stroke="#020144" stroke-width="26.04" stroke-miterlimit="10" stroke-linecap="round" stroke-linejoin="round"/>
<path d="M4255.22 334.586C4327.56 374.311 4374.35 437.415 4374.35 508.411C4374.35 628.498 4240.47 725.994 4075.55 725.994C3910.64 725.994 3776.75 628.498 3776.75 508.411C3776.75 453.353 3804.9 403.04 3851.27 364.703" stroke="#020144" stroke-width="26.04" stroke-miterlimit="10" stroke-linecap="round" stroke-linejoin="round"/>
<path d="M4141.51 725.995C4141.51 725.995 4132.28 819.266 4164.31 870.604" stroke="#020144" stroke-width="26.04" stroke-miterlimit="10" stroke-linecap="round" stroke-linejoin="round"/>
<path d="M4018.72 725.995C4018.72 725.995 4046.47 844.566 4011.34 897.275" stroke="#020144" stroke-width="26.04" stroke-miterlimit="10" stroke-linecap="round" stroke-linejoin="round"/>
<path d="M4305.51 2881.99C4317.37 2881.99 4326.99 2872.38 4326.99 2860.52C4326.99 2848.66 4317.37 2839.04 4305.51 2839.04C4293.65 2839.04 4284.04 2848.66 4284.04 2860.52C4284.04 2872.38 4293.65 2881.99 4305.51 2881.99Z" fill="#5CBA9E" stroke="#5CBA9E" stroke-width="22.58" stroke-miterlimit="10" stroke-linejoin="round"/>
<path d="M4854.47 2525.17C4983.04 2525.17 5087.27 2420.94 5087.27 2292.36C5087.27 2163.79 4983.04 2059.56 4854.47 2059.56C4725.9 2059.56 4621.67 2163.79 4621.67 2292.36C4621.67 2420.94 4725.9 2525.17 4854.47 2525.17Z" fill="#5CBA9E"/>
<path d="M1353.11 3340.96C1428.54 3340.96 1489.68 3279.81 1489.68 3204.39C1489.68 3128.96 1428.54 3067.81 1353.11 3067.81C1277.68 3067.81 1216.54 3128.96 1216.54 3204.39C1216.54 3279.81 1277.68 3340.96 1353.11 3340.96Z" fill="#5CBA9E"/>
<path d="M1398.91 1374.37C1438.95 1374.37 1471.41 1341.91 1471.41 1301.87C1471.41 1261.82 1438.95 1229.37 1398.91 1229.37C1358.87 1229.37 1326.41 1261.82 1326.41 1301.87C1326.41 1341.91 1358.87 1374.37 1398.91 1374.37Z" fill="#5CBA9E"/>
<path d="M3919.76 2059.09C4037.94 2059.09 4133.74 1963.28 4133.74 1845.1C4133.74 1726.93 4037.94 1631.12 3919.76 1631.12C3801.58 1631.12 3705.78 1726.93 3705.78 1845.1C3705.78 1963.28 3801.58 2059.09 3919.76 2059.09Z" stroke="#5CBA9E" stroke-width="52.08" stroke-miterlimit="10" stroke-linecap="round" stroke-linejoin="round"/>
<path d="M2702.55 1398.45C2857.46 1398.45 2983.03 1272.88 2983.03 1117.98C2983.03 963.071 2857.46 837.496 2702.55 837.496C2547.65 837.496 2422.07 963.071 2422.07 1117.98C2422.07 1272.88 2547.65 1398.45 2702.55 1398.45Z" fill="#5CBA9E"/>
<path d="M1030.27 4595.85C1098.96 4595.85 1154.65 4540.17 1154.65 4471.48C1154.65 4402.78 1098.96 4347.1 1030.27 4347.1C961.578 4347.1 905.892 4402.78 905.892 4471.48C905.892 4540.17 961.578 4595.85 1030.27 4595.85Z" stroke="#020144" stroke-width="52.08" stroke-miterlimit="10" stroke-linecap="round" stroke-linejoin="round"/>
<path d="M1707.91 4245.88C1833.78 4245.88 1935.82 4143.85 1935.82 4017.98C1935.82 3892.1 1833.78 3790.07 1707.91 3790.07C1582.04 3790.07 1480 3892.1 1480 4017.98C1480 4143.85 1582.04 4245.88 1707.91 4245.88Z" fill="#5CBA9E"/>
<path d="M1935.82 2198.45C2116.92 2198.45 2263.72 2051.64 2263.72 1870.54C2263.72 1689.45 2116.92 1542.64 1935.82 1542.64C1754.72 1542.64 1607.92 1689.45 1607.92 1870.54C1607.92 2051.64 1754.72 2198.45 1935.82 2198.45Z" stroke="#5CBA9E" stroke-width="52.08" stroke-miterlimit="10" stroke-linecap="round" stroke-linejoin="round"/>
<path d="M3462.68 4636.42C3643.78 4636.42 3790.58 4489.61 3790.58 4308.52C3790.58 4127.42 3643.78 3980.61 3462.68 3980.61C3281.58 3980.61 3134.78 4127.42 3134.78 4308.52C3134.78 4489.61 3281.58 4636.42 3462.68 4636.42Z" fill="#5CBA9E"/>
<path d="M3886.51 1856.17L3872.99 1860.67C3859.65 1864.23 3845.44 1862.35 3833.49 1855.45C3808.73 1841.15 3800.12 1809.02 3814.41 1784.27C3828.71 1759.51 3860.84 1750.9 3885.59 1765.19C3897.55 1772.09 3906.28 1783.46 3909.86 1796.79L3929.7 1893.41C3933.29 1906.74 3942.02 1918.11 3953.97 1925.01C3978.72 1939.3 4010.86 1930.69 4025.15 1905.94C4039.44 1881.18 4030.84 1849.05 4006.08 1834.75C3994.13 1827.85 3979.91 1825.98 3966.58 1829.53L3953.05 1834.03" stroke="#020144" stroke-width="26.04" stroke-linecap="round" stroke-linejoin="round"/>
<path d="M4853.51 2142.64C4845.79 2157.06 4838.07 2171.49 4831.06 2186.26C4809.26 2232.15 4782.69 2286.84 4766.54 2337.06C4756.58 2368.04 4750.15 2389.62 4752.78 2421.46C4754 2436.21 4768.19 2442.08 4780.86 2442.1C4809.02 2442.16 4825.14 2413 4854.74 2413C4884.34 2413 4900.46 2442.16 4928.61 2442.1C4941.29 2442.08 4955.47 2436.21 4956.69 2421.46C4959.33 2389.62 4952.9 2368.04 4942.94 2337.06C4926.78 2286.84 4900.22 2232.15 4878.42 2186.26C4871.4 2171.49 4861.22 2157.06 4853.51 2142.64Z" stroke="#020144" stroke-width="22.58" stroke-miterlimit="10" stroke-linecap="square" stroke-linejoin="round"/>
<path d="M4919.89 2276.4L4951.26 2292.37L4938.97 2326.78L4919.89 2276.4Z" fill="#020144"/>
<path d="M4789.05 2276.4L4757.68 2292.37L4769.97 2326.78L4789.05 2276.4Z" fill="#020144"/>
<path d="M4854.22 2308.48C4873.87 2308.48 4889.8 2296.07 4889.8 2280.77C4889.8 2265.46 4873.87 2253.05 4854.22 2253.05C4834.57 2253.05 4818.64 2265.46 4818.64 2280.77C4818.64 2296.07 4834.57 2308.48 4854.22 2308.48Z" fill="#5CBA9E" stroke="#020144" stroke-width="29.96" stroke-miterlimit="10" stroke-linecap="round" stroke-linejoin="round"/>
<path d="M4914.18 2265.61H4887.36C4887.36 2265.61 4872.05 2251.58 4854.2 2253.05C4836.34 2254.52 4827.88 2260.7 4823.46 2265.61C4819.03 2270.51 4794.22 2265.61 4794.22 2265.61L4854.2 2142.64L4914.18 2265.61Z" fill="#020144"/>
<path d="M4943.89 2304.66C4943.89 2304.66 4974.58 2315.72 4975.84 2326.77C4977.11 2337.83 4961.09 2353.81 4961.09 2353.81" stroke="#020144" stroke-width="22.58" stroke-miterlimit="10" stroke-linecap="round" stroke-linejoin="round"/>
<path d="M4765.05 2304.66C4765.05 2304.66 4734.36 2315.72 4733.1 2326.77C4731.83 2337.83 4747.84 2353.81 4747.84 2353.81" stroke="#020144" stroke-width="22.58" stroke-miterlimit="10" stroke-linecap="round" stroke-linejoin="round"/>
<path d="M4966.01 2346.45C4966.01 2346.45 4980.81 2356.93 4973.38 2371.02C4965.96 2385.11 4978.8 2374.91 4978.3 2383.31C4977.79 2391.72 4961.17 2398.34 4957.28 2390.68C4953.38 2383.03 4943.89 2346.45 4943.89 2346.45C4943.89 2346.45 4958.13 2339.05 4966.01 2346.45Z" fill="#020144"/>
<path d="M4742.93 2346.45C4742.93 2346.45 4728.13 2356.93 4735.56 2371.02C4742.98 2385.11 4730.14 2374.91 4730.64 2383.31C4731.14 2391.72 4747.77 2398.34 4751.66 2390.68C4755.56 2383.03 4765.05 2346.45 4765.05 2346.45C4765.05 2346.45 4750.81 2339.05 4742.93 2346.45Z" fill="#020144"/>
<path fill-rule="evenodd" clip-rule="evenodd" d="M2644.64 1102.25C2644.64 1088.44 2633.44 1077.24 2619.64 1077.24H2595.94C2582.14 1077.24 2570.94 1088.44 2570.94 1102.24V1133.7C2570.94 1147.49 2582.14 1158.7 2595.94 1158.7H2619.64C2633.44 1158.7 2644.64 1147.49 2644.64 1133.7V1102.24V1102.25Z" stroke="#020144" stroke-width="26.04" stroke-linecap="round" stroke-linejoin="round"/>
<path fill-rule="evenodd" clip-rule="evenodd" d="M2834.14 1014.98C2834.14 1001.18 2822.94 989.976 2809.14 989.976H2774.92C2761.12 989.976 2749.92 1001.18 2749.92 1014.98V1058.06C2749.92 1071.86 2761.12 1083.06 2774.92 1083.06H2809.14C2822.94 1083.06 2834.14 1071.86 2834.14 1058.06V1014.98Z" stroke="#020144" stroke-width="26.04" stroke-linecap="round" stroke-linejoin="round"/>
<path fill-rule="evenodd" clip-rule="evenodd" d="M2834.14 1177.89C2834.14 1164.09 2822.94 1152.89 2809.14 1152.89H2774.92C2761.12 1152.89 2749.92 1164.09 2749.92 1177.89V1220.97C2749.92 1234.77 2761.12 1245.97 2774.92 1245.97H2809.14C2822.94 1245.97 2834.14 1234.77 2834.14 1220.97V1177.89Z" stroke="#020144" stroke-width="26.04" stroke-linecap="round" stroke-linejoin="round"/>
<path d="M2644.64 1117.98H2697.28" stroke="#020144" stroke-width="26.04" stroke-linecap="round" stroke-linejoin="round"/>
<path d="M2749.93 1199.43H2728.74C2711.48 1199.43 2697.29 1183.73 2697.29 1164.66V1071.28C2697.29 1052.21 2711.48 1036.52 2728.74 1036.52H2749.93" stroke="#020144" stroke-width="26.04" stroke-linecap="round" stroke-linejoin="round"/>
<path fill-rule="evenodd" clip-rule="evenodd" d="M1936.37 1649.19C1811.11 1648.87 1709.27 1750.19 1708.95 1875.51C1708.7 1975.73 1773.48 2060.93 1863.56 2091.16C1874.9 2093.26 1879.05 2086.27 1879.07 2080.26C1879.08 2074.88 1878.92 2060.61 1878.86 2041.67C1815.72 2055.23 1802.52 2011.07 1802.52 2011.07C1792.27 1984.84 1777.41 1977.82 1777.41 1977.82C1756.85 1963.69 1779 1964.04 1779 1964.04C1801.77 1965.7 1813.69 1987.5 1813.69 1987.5C1833.84 2022.23 1866.74 2012.29 1879.67 2006.52C1881.77 1991.86 1887.66 1981.88 1894.15 1976.22C1843.79 1970.37 1790.87 1950.77 1791.1 1863.83C1791.16 1839.07 1800.05 1818.84 1814.6 1803.01C1812.28 1797.27 1804.55 1774.19 1816.98 1742.98C1816.98 1742.98 1836.04 1736.93 1879.31 1766.39C1897.41 1761.41 1916.83 1758.94 1936.12 1758.91C1955.4 1759.04 1974.79 1761.61 1992.9 1766.68C2036.29 1737.43 2055.28 1743.58 2055.28 1743.58C2067.59 1774.85 2059.74 1797.89 2057.4 1803.63C2071.9 1819.53 2080.62 1839.8 2080.56 1864.56C2080.34 1951.72 2027.25 1970.76 1976.7 1976.25C1984.82 1983.28 1992.04 1997.14 1991.98 2018.31C1991.91 2048.64 1991.57 2073.11 1991.55 2080.55C1991.53 2086.61 1995.61 2093.68 2007.12 2091.49C2097.28 2061.66 2162.44 1976.84 2162.69 1876.65C2163.01 1751.33 2061.67 1649.5 1936.37 1649.19Z" fill="#020144"/>
<path d="M3586.6 4471.48H3627.33C3634.78 4471.48 3640.91 4465.35 3640.91 4457.9V4240.65L3545.87 4145.61H3382.93C3375.49 4145.61 3369.36 4151.74 3369.36 4159.19V4308.54" stroke="#020144" stroke-width="26.04" stroke-linecap="round" stroke-linejoin="round"/>
<path d="M3545.84 4145.61V4240.65L3640.88 4240.65" stroke="#020144" stroke-width="26.04" stroke-linecap="round" stroke-linejoin="round"/>
<path d="M1707.91 4050.06C1725.63 4050.06 1740 4035.7 1740 4017.98C1740 4000.25 1725.63 3985.89 1707.91 3985.89C1690.19 3985.89 1675.82 4000.25 1675.82 4017.98C1675.82 4035.7 1690.19 4050.06 1707.91 4050.06Z" stroke="#020144" stroke-width="26.04" stroke-linecap="round" stroke-linejoin="round"/>
<path d="M1787.06 4050.07C1784.15 4056.65 1785.56 4064.38 1790.59 4069.53L1791.23 4070.17C1795.25 4074.18 1797.51 4079.63 1797.51 4085.31C1797.51 4090.98 1795.25 4096.43 1791.23 4100.44C1787.22 4104.46 1781.77 4106.72 1776.1 4106.72C1770.42 4106.72 1764.97 4104.46 1760.96 4100.44L1760.32 4099.8C1755.17 4094.77 1747.44 4093.36 1740.85 4096.27C1734.4 4099.04 1730.18 4105.4 1730.16 4112.42V4114.24C1730.16 4125.97 1720.5 4135.63 1708.76 4135.63C1697.03 4135.63 1687.38 4125.97 1687.38 4114.24V4113.27C1687.21 4106.04 1682.61 4099.62 1675.82 4097.12C1669.23 4094.22 1661.5 4095.62 1656.36 4100.65L1655.71 4101.29C1651.71 4105.31 1646.26 4107.57 1640.58 4107.57C1634.91 4107.57 1629.46 4105.31 1625.45 4101.29C1621.43 4097.29 1619.17 4091.84 1619.17 4086.16C1619.17 4080.49 1621.43 4075.04 1625.45 4071.03L1626.09 4070.39C1631.12 4065.24 1632.52 4057.51 1629.62 4050.92C1626.85 4044.47 1620.49 4040.25 1613.47 4040.22H1611.65C1599.91 4040.22 1590.26 4030.57 1590.26 4018.83C1590.26 4007.09 1599.91 3997.44 1611.65 3997.44H1612.61C1619.84 3997.27 1626.26 3992.67 1628.76 3985.89C1631.67 3979.3 1630.27 3971.57 1625.23 3966.42L1624.59 3965.78C1620.58 3961.77 1618.32 3956.32 1618.32 3950.64C1618.32 3944.97 1620.58 3939.52 1624.59 3935.51C1628.6 3931.49 1634.05 3929.24 1639.73 3929.24C1645.4 3929.24 1650.85 3931.49 1654.86 3935.51L1655.5 3936.15C1660.65 3941.19 1668.38 3942.59 1674.97 3939.68H1675.82C1682.28 3936.92 1686.49 3930.55 1686.52 3923.53V3921.72C1686.52 3909.98 1696.18 3900.32 1707.91 3900.32C1719.65 3900.32 1729.3 3909.98 1729.3 3921.72V3922.68C1729.33 3929.7 1733.54 3936.06 1740 3938.83C1746.59 3941.74 1754.32 3940.33 1759.46 3935.3L1760.11 3934.66C1764.12 3930.64 1769.56 3928.38 1775.24 3928.38C1780.91 3928.38 1786.36 3930.64 1790.38 3934.66C1794.39 3938.67 1796.65 3944.12 1796.65 3949.79C1796.65 3955.47 1794.39 3960.92 1790.38 3964.92L1789.74 3965.57C1784.7 3970.71 1783.3 3978.45 1786.2 3985.03V3985.89C1788.97 3992.34 1795.34 3996.56 1802.36 3996.59H1804.17C1815.91 3996.59 1825.56 4006.24 1825.56 4017.98C1825.56 4029.71 1815.91 4039.37 1804.17 4039.37H1803.21C1796.19 4039.39 1789.83 4043.61 1787.06 4050.07Z" stroke="#020144" stroke-width="26.04" stroke-linecap="round" stroke-linejoin="round"/>
<path fill-rule="evenodd" clip-rule="evenodd" d="M4459.97 1641.47C4458.46 1637.25 4455.34 1633.8 4451.3 1631.88C4447.25 1629.96 4442.6 1629.73 4438.38 1631.24C4374.34 1654.1 4135.75 1739.26 4071.7 1762.12C4067.48 1763.62 4064.04 1766.75 4062.12 1770.79C4060.2 1774.84 4059.97 1779.49 4061.47 1783.7C4062.98 1787.92 4066.1 1791.37 4070.15 1793.29C4074.2 1795.21 4078.84 1795.44 4083.06 1793.94C4147.1 1771.07 4385.69 1685.92 4449.74 1663.05C4453.96 1661.55 4457.4 1658.43 4459.32 1654.38C4461.24 1650.33 4461.47 1645.69 4459.97 1641.47Z" fill="#020144"/>
<path fill-rule="evenodd" clip-rule="evenodd" d="M3560.69 4354.67L3594.62 4438.35L3568.13 4438.57L3562.92 4423.97L3534.02 4424.22L3529.1 4438.86L3502.98 4439.06L3535.59 4354.89L3560.69 4354.67ZM3548.17 4382.6L3540.97 4403.76L3555.68 4403.64L3548.17 4382.6ZM3396.41 4356.02L3430.35 4439.71L3403.85 4439.92L3398.64 4425.32L3369.74 4425.57L3364.82 4440.21L3338.7 4440.41L3371.32 4356.25L3396.41 4356.02ZM3383.89 4383.95L3376.69 4405.11L3391.4 4405L3383.89 4383.95ZM3336.4 4356.43C3336.4 4356.43 3336.69 4402.12 3336.64 4413.01C3336.58 4423.9 3331.1 4440.75 3308.62 4442.37C3286.14 4444 3277.58 4430.34 3277.58 4430.34L3291.13 4412.25C3296 4419.04 3299.49 4421.11 3305.64 4420.01C3311.78 4418.9 3311.38 4409.83 3311.38 4409.83L3311.12 4378L3285.26 4378.19L3285.06 4356.88L3336.4 4356.43ZM3510.81 4355.07L3479.28 4439.28L3454.08 4439.48L3421.26 4355.79L3448.85 4355.56L3467.33 4404.41L3485.57 4355.28L3510.81 4355.07Z" fill="#020144"/>
</svg>
