<?xml version="1.0"?>
<svg width="1073" height="300" xmlns="http://www.w3.org/2000/svg" xmlns:svg="http://www.w3.org/2000/svg" enable-background="new 0 0 1088 512" version="1.1" xml:space="preserve">
 <g class="layer">
  <title>Layer 1</title>
  <g id="svg_1">
   <path d="m1047.41,69.41l-49.26,0l0,-42.56c0,-13.85 -11.27,-25.11 -25.11,-25.11l-179.37,0c-13.84,0 -25.11,11.25 -25.11,25.11l0,179.36c0,13.85 11.27,25.11 25.11,25.11l49.26,0l0,42.58c0,13.84 11.27,25.11 25.11,25.11l179.37,0c13.84,0 25.11,-11.27 25.11,-25.11l0,-179.37c0,-13.84 -11.25,-25.11 -25.11,-25.11l0,-0.01zm-253.74,145.17c-4.61,0 -8.36,-3.75 -8.36,-8.37l0,-179.36c0,-4.62 3.75,-8.37 8.36,-8.37l179.37,0c4.61,0 8.36,3.75 8.36,8.37l0,42.56l-113.36,0c-13.84,0 -25.11,11.27 -25.11,25.11l0,120.06l-49.26,0zm187.74,-128.43l0,120.06c0,4.62 -3.76,8.37 -8.37,8.37l-113.36,0l0,-120.06c0,-4.61 3.75,-8.37 8.37,-8.37l113.36,0zm74.37,187.74c0,4.61 -3.75,8.36 -8.37,8.36l-179.36,0c-4.62,0 -8.37,-3.75 -8.37,-8.36l0,-42.58l113.36,0c13.84,0 25.11,-11.25 25.11,-25.11l0,-120.06l49.26,0c4.62,0 8.37,3.76 8.37,8.37l0,179.37l0,0.01z" fill="#262261" id="svg_2"/>
   <path d="m973.6,215.27c4.68,0 8.47,-3.79 8.47,-8.45l0,-121.37l-114.59,0c-4.66,0 -8.47,3.8 -8.47,8.47l0,121.36l114.59,0l0,-0.01z" fill="#EE4036" id="svg_3"/>
   <g id="svg_4">
    <path d="m1.2,69.59c0,-39.98 31.14,-69.57 73.62,-69.57c42.28,0 73.61,29.39 73.61,69.57c0,40.17 -31.32,69.57 -73.61,69.57c-42.48,0 -73.62,-29.6 -73.62,-69.57zm115.7,0c0,-25.56 -18.06,-43.06 -42.08,-43.06s-42.1,17.5 -42.1,43.06c0,25.56 18.06,43.05 42.1,43.05s42.08,-17.48 42.08,-43.05z" fill="#262261" id="svg_5"/>
    <path d="m209.34,123.59l10.57,-23.45c11.33,8.27 28.26,14.03 44.4,14.03c18.45,0 25.94,-6.15 25.94,-14.42c0,-25.17 -78.23,-7.88 -78.23,-57.85c0,-22.87 18.46,-41.9 56.7,-41.9c16.92,0 34.22,4.03 46.7,11.91l-9.61,23.65c-12.49,-7.11 -25.38,-10.57 -37.29,-10.57c-18.45,0 -25.56,6.91 -25.56,15.37c0,24.8 78.23,7.69 78.23,57.09c0,22.48 -18.65,41.71 -57.09,41.71c-21.33,0 -42.86,-6.34 -54.77,-15.57l0.01,0z" fill="#262261" id="svg_6"/>
    <path d="m507.23,51.12c0,30 -22.48,48.63 -58.43,48.63l-27.1,0l0,37.1l-31.14,0l0,-134.54l58.24,0c35.95,0 58.43,18.64 58.43,48.81zm-31.53,0c0,-14.79 -9.61,-23.45 -28.63,-23.45l-25.38,0l0,46.7l25.38,0c19.02,0 28.63,-8.64 28.63,-23.26l0,0.01z" fill="#262261" id="svg_7"/>
    <path d="m570.82,69.59c0,-39.98 31.14,-69.57 73.61,-69.57c42.28,0 73.62,29.39 73.62,69.57c0,40.17 -31.34,69.57 -73.62,69.57c-42.47,0 -73.61,-29.6 -73.61,-69.57zm115.7,0c0,-25.56 -18.07,-43.06 -42.1,-43.06s-42.1,17.5 -42.1,43.06c0,25.56 18.07,43.05 42.1,43.05s42.1,-17.48 42.1,-43.05z" fill="#262261" id="svg_8"/>
   </g>
   <g id="svg_9">
    <path d="m75.75,276.6l-47.94,0l-9.45,22.19l-18.36,0l43.14,-95.86l17.54,0l43.28,95.86l-18.62,0l-9.59,-22.19zm-5.9,-13.97l-18.07,-41.9l-17.94,41.9l36.01,0z" fill="#EE4036" id="svg_10"/>
    <path d="m116.16,202.92l17.81,0l0,80.8l50.12,0l0,15.06l-67.93,0l0,-95.86z" fill="#EE4036" id="svg_11"/>
    <path d="m198.2,202.92l17.79,0l0,80.8l50.13,0l0,15.06l-67.93,0l0,-95.86l0.01,0z" fill="#EE4036" id="svg_12"/>
    <path d="m280.24,202.92l17.81,0l0,95.86l-17.81,0l0,-95.86z" fill="#EE4036" id="svg_13"/>
    <path d="m386.11,276.6l-47.94,0l-9.45,22.19l-18.36,0l43.14,-95.86l17.52,0l43.28,95.86l-18.62,0l-9.58,-22.19l0.01,0zm-5.9,-13.97l-18.07,-41.9l-17.94,41.9l36.01,0z" fill="#EE4036" id="svg_14"/>
    <path d="m511.7,202.92l0,95.86l-14.66,0l-52.87,-64.91l0,64.91l-17.66,0l0,-95.86l14.66,0l52.85,64.91l0,-64.91l17.67,0l0.01,0z" fill="#EE4036" id="svg_15"/>
    <path d="m530.6,250.85c0,-28.62 21.92,-49.3 51.37,-49.3c15.61,0 29.02,5.61 37.93,16.04l-11.51,10.81c-6.98,-7.53 -15.61,-11.23 -25.6,-11.23c-19.86,0 -34.24,13.96 -34.24,33.68s14.39,33.7 34.24,33.7c9.99,0 18.62,-3.7 25.6,-11.37l11.51,10.96c-8.91,10.41 -22.32,16.02 -38.08,16.02c-29.3,0 -51.22,-20.67 -51.22,-49.3l0,-0.01z" fill="#EE4036" id="svg_16"/>
    <path d="m708.93,283.86l0,14.93l-71.91,0l0,-95.86l69.99,0l0,14.93l-52.18,0l0,24.92l46.29,0l0,14.66l-46.29,0l0,26.43l54.1,0l0,-0.01z" fill="#EE4036" id="svg_17"/>
   </g>
  </g>
 </g>

</svg>