<?xml version="1.0" encoding="utf-8"?>
<!-- Generator: Adobe Illustrator 27.4.0, SVG Export Plug-In . SVG Version: 6.00 Build 0)  -->
<svg version="1.1" id="cyberland" xmlns="http://www.w3.org/2000/svg" xmlns:xlink="http://www.w3.org/1999/xlink" x="0px" y="0px"
	 viewBox="0 0 362.57 160.5" style="enable-background:new 0 0 362.57 160.5;" xml:space="preserve">
<style type="text/css">
	.st0{fill:#75559E;}
	.st1{fill:#E568C8;stroke:#E568C8;stroke-width:0.75;stroke-miterlimit:10;}
</style>
<g>
	<path class="st0" d="M85.11,53.52c-0.97,0.74-1.99,0.73-3.05-0.02c-0.43-0.56-0.67-0.91-0.73-1.04c-0.06-0.12,0.07-0.49,0.39-1.11
		c0.32-0.61,0.51-1.01,0.58-1.2c0.78-2.22,1.24-3.56,1.36-4.02c0.98-4.19,1.5-7.13,1.55-8.82c-0.98-7.84-7.94-6.53-20.87,3.93
		c-6.59,5.33-11.7,10.13-15.32,14.38c-1.4,1.5-2.76,3.09-4.05,4.75c-3.45,4.23-6.52,8.38-9.2,12.42
		c-7.63,11.12-12.95,21.38-15.93,30.78c-1.81,5.36-2.78,10.7-2.91,16.02c0.08,7.06,1.5,11.31,4.24,12.74
		c2.74,1.43,7.27,0.11,13.57-3.95c2.7-1.75,5.74-3.95,9.13-6.58c4.9-3.97,11.27-9.63,19.11-16.98c1.74-1.63,3.56-3.36,5.46-5.19
		c1.9-1.83,3.98-3.86,6.27-6.09c2.29-2.23,4.06-3.96,5.33-5.17c3.41-3.17,5.55-5.12,6.44-5.85c3.48-3.26,6.11-4.21,7.87-2.84
		c0.71,0.71,0.45,1.45-0.79,2.22c-0.32,0.3-0.82,0.72-1.5,1.25c-0.69,0.53-1.11,0.85-1.27,0.96c-1.61,1.26-3.32,2.8-5.13,4.62
		c-2.06,1.94-5,4.76-8.83,8.46c-3.83,3.71-6.34,6.12-7.52,7.24c-7.59,7.23-13.99,12.98-19.21,17.25
		c-6.88,5.81-12.92,9.92-18.1,12.34c-6.52,3.02-11.61,3-15.27-0.08c-1.8-1.63-2.99-4.14-3.59-7.51c-0.97-4.92-0.87-10.2,0.28-15.82
		c1.8-9.69,6.3-20.42,13.5-32.2c5.46-8.73,11.44-16.82,17.94-24.26c5.26-6.05,10.91-11.44,16.96-16.18
		c4.43-3.47,8.37-5.91,11.83-7.31c4.79-2.01,8.68-2.01,11.68,0c3.62,2.11,4.88,5.81,3.77,11.07c-0.49,2.45-1.11,4.92-1.86,7.4
		c-0.19,0.64-0.55,1.62-1.1,2.92C85.69,52.83,85.35,53.32,85.11,53.52z"/>
	<path class="st0" d="M202.39,96.03c6.5,1.05,9.45,3.42,8.85,7.12c-0.1,0.63-0.56,1.02-1.38,1.17c-0.82,0.15-1.59,0.02-2.3-0.38
		c-0.71-0.4-1.02-0.91-0.92-1.54c0.15-0.9,0.03-1.51-0.36-1.81c-1.35-0.89-3.33-1.51-5.94-1.85c-2.61-0.34-4.64-0.48-6.09-0.43
		s-3.76,0.18-6.92,0.4c-8.27,0.32-16.64,1.36-25.08,3.13c-5.1,0.99-8.76,1.76-10.99,2.3c-2.15,0.53-5.92,1.49-11.32,2.87
		c-11.89,3.25-27,8.36-45.32,15.34c-0.93,2.5-1.97,5.11-3.14,7.82c-2.37,5.78-4.43,10.24-6.16,13.37c-2.77,4.77-5.56,7.9-8.38,9.4
		c-3.22,1.81-6.26,1.93-9.11,0.34c-2.56-1.36-3.72-3.61-3.49-6.73c0.06-2.39,0.89-5.24,2.52-8.54c1.3-2.37,3-4.66,5.11-6.87
		c3.46-3.44,8.33-6.57,14.62-9.39c1.85-0.76,3.28-1.34,4.3-1.73l1.18-3.33c-0.01-0.09,0.03-0.14,0.11-0.15
		c0.92-3.3,2.25-7.09,4.02-11.38c0.18-0.64,0.49-1.59,0.91-2.83c0.42-1.25,0.72-2.19,0.91-2.83c-1.74,1.63-3.1,2.82-4.07,3.56
		c-2.05,1.32-3.78,1.97-5.19,1.97c-2.33-0.24-3.85-1.46-4.57-3.67c-0.48-1.71-0.51-3.39-0.1-5.03c0.63-2.02,1.35-4.06,2.16-6.11
		c0.07-0.18,0.63-1.54,1.68-4.06c1.06-2.52,1.78-4.38,2.16-5.58c0.33-0.92,1.19-1.25,2.6-0.99c1.4,0.27,2.03,0.85,1.88,1.76
		l-0.69,1.94c-0.12,0.46-0.37,1.11-0.75,1.95c-0.38,0.84-0.68,1.5-0.88,1.97c-1.03,2.34-2.1,5.13-3.2,8.36
		c-0.61,2.91-0.72,4.87-0.33,5.88c0.53,0.02,1.52-0.59,2.96-1.83c1.44-1.24,2.65-2.5,3.64-3.77c0.08-0.1,1.58-2.19,4.53-6.27
		c1.71-2.6,2.9-4.38,3.58-5.35c0.75-1.07,1.93-2.63,3.53-4.69c0.85-1.7,1.74-2.69,2.68-2.99c0.94-0.29,1.74-0.22,2.42,0.23
		c0.95,0.5,1.19,1.05,0.74,1.63c-1.37,1.76-2.2,2.93-2.48,3.49c-0.49,1.04-1.22,2.67-2.17,4.92c-0.48,1.12-1.2,2.78-2.17,4.98
		c-0.96,2.2-1.69,3.82-2.18,4.85c-0.08,0.1-0.16,0.29-0.26,0.56c-0.1,0.28-0.19,0.47-0.26,0.56c-3.12,9.06-5,14.51-5.66,16.36
		c-0.25,0.83-0.71,2.08-1.39,3.75c9.04-3.43,16.87-6.22,23.5-8.37c8.34-2.63,15.8-4.84,22.39-6.64c7.63-1.93,15.26-3.54,22.88-4.84
		c8.9-1.64,17.51-2.49,25.82-2.56C195.98,95.37,199.85,95.55,202.39,96.03z M86.47,131.45c0.41-0.94,1.04-2.32,1.87-4.15
		c0.83-1.83,1.28-2.84,1.35-3.02c-2.69,1.13-5.43,2.54-8.23,4.21c-5.1,3.11-8.79,7.15-11.09,12.13c-2.43,5.34-2.63,8.73-0.59,10.16
		c1.76,1.37,4.14,0.54,7.12-2.48c1.09-1.2,2.15-2.61,3.19-4.25C82.42,140.14,84.55,135.94,86.47,131.45z"/>
	<path class="st0" d="M157.26,71.46c0.8,0.79,0.71,1.42-0.29,1.89l-4.92,2.07c-5.98,2.43-10.92,3.97-14.81,4.63l-0.78,0.1
		c-0.5,1.65-1.35,3.4-2.53,5.23c-1.48,2.31-2.64,4-3.48,5.08c-1.74,2.34-3.57,4.34-5.49,5.99c-2.97,2.41-5.65,3.62-8.04,3.66
		c-3.28-0.03-5.04-1.09-5.31-3.19c-0.2-1.57,0.07-3.37,0.79-5.4c1.09-3.32,2.76-7.33,5-12.03c-0.01-0.09,0.02-0.2,0.09-0.34
		c0.07-0.14,0.15-0.26,0.22-0.36c0.08-0.1,0.11-0.19,0.1-0.28c0.01,0.09,0.08-0.05,0.21-0.42c0.78-2.22,1.42-3.89,1.9-5.01
		c1.68-4.28,3.18-7.83,4.51-10.65c3.07-6.57,6.18-12.18,9.31-16.82c2.11-2.92,3.48-4.72,4.1-5.42c1.68-2.15,3.34-3.73,4.98-4.73
		c0.83-0.46,1.8-0.6,2.93-0.43c1.13,0.17,2.01,0.66,2.64,1.46c0.57,0.99,0.72,2.21,0.46,3.66c-0.15,0.9-0.66,2.56-1.5,4.96
		c-0.21,0.47-1.12,2.4-2.73,5.78c-2.01,3.79-4.27,7.61-6.8,11.46c-0.96,1.54-2.5,3.76-4.61,6.68c-2.04,2.82-4.23,5.48-6.57,7.98
		c-2.02,2.29-3.49,3.93-4.43,4.93c-1.27,1.13-2.12,1.77-2.55,1.91l-1.24,2.81c-1.19,3.25-1.94,5.33-2.27,6.25
		c-0.25,0.83-0.45,1.74-0.59,2.73c0.01,0.09,0.01,0.22-0.02,0.4c-0.02,0.18-0.02,0.36,0,0.53c0.13,1.04,1.15,1.1,3.07,0.15
		c1.83-0.93,3.87-2.65,6.12-5.14c1.18-1.21,2.39-2.82,3.64-4.83c1.65-2.33,2.89-4.47,3.71-6.43l0.11-0.15
		c-0.9-0.15-1.61-0.51-2.12-1.06c-0.61-0.63-0.83-1.31-0.65-2.04c0.17-0.73,0.64-1.27,1.39-1.63c2.12-1.41,3.96-1.2,5.52,0.64
		c0.24,0.5,0.38,0.88,0.41,1.14l0.78-0.1c2.42-0.48,4.6-1.06,6.55-1.75c1.36-0.44,4.81-1.88,10.34-4.34
		C155.44,70.63,156.38,70.77,157.26,71.46z M132.97,54.32c-3.9,7.03-7.1,13.98-9.61,20.83l-0.11,0.15l0.02,0.13
		c0.54-0.6,1.35-1.58,2.42-2.96c2.16-2.57,3.72-4.53,4.7-5.89c1.95-2.81,3.88-5.75,5.8-8.82c2.73-4.32,4.89-8.26,6.49-11.82
		l0.62-1.4l1.27-3.61c0.32-1.01,0.46-2,0.43-2.97c-0.09,0.01-1,0.88-2.73,2.6l-1.16,1.34C139.04,44.46,136.32,48.6,132.97,54.32z"/>
	<path class="st0" d="M155.12,82.98c-1.54,1.08-3.19,1.37-4.93,0.88l-0.23,0.29c-0.84,2.49-0.69,4.38,0.44,5.65
		c1.66,0.59,4.94-0.48,9.82-3.21c5.37-3.06,11.33-7.69,17.9-13.91c0.31-0.31,0.97-0.89,1.97-1.77c1-0.87,1.73-1.52,2.21-1.93
		c1.21-0.95,1.98-1.48,2.32-1.62c0.59-0.25,1.23-0.24,1.93,0.02c0.7,0.27,1,0.72,0.9,1.35l-0.21,0.42l-0.34,0.44l-1.54,1.52
		l-0.47,0.46l-3.82,3.4c-4.77,4.31-8.83,7.6-12.17,9.88c-4.31,3.02-7.9,5.1-10.76,6.25c-2.02,0.78-4.09,1.26-6.19,1.44
		c-3.09,0.03-5.18-1.12-6.27-3.46c-0.66-1.77-0.3-4.21,1.08-7.3c1.27-2.55,2.83-4.95,4.67-7.22c1.75-2.25,3.68-4.17,5.78-5.76
		c2.97-2.4,5.6-3,7.87-1.78c1.83,1.19,1.95,3.25,0.37,6.19c-1.01,1.81-2.47,3.62-4.36,5.45C158.93,80.6,156.95,82.04,155.12,82.98z
		 M151.22,81.47l0.9-0.24c3.67-1.78,6.74-4.51,9.2-8.18c0.45-0.67,0.84-1.39,1.19-2.14l0.16-1.88c-1.01,0.39-2.16,1.15-3.43,2.29
		c-2.15,1.95-4.64,5-7.48,9.16L151.22,81.47z"/>
	<path class="st0" d="M184.87,67.3c1.08-0.58,2.06-0.52,2.94,0.16c0.69,0.53,0.02,2.96-2.01,7.28c4.38-3.91,7.87-6.77,10.47-8.6
		l0.73-0.49l1.11-0.67c1.98-1.13,3.78-1.93,5.41-2.4c0.09-0.01,0.43-0.1,1.03-0.26c1.13-0.14,1.79-0.18,1.98-0.11
		c1.97,0.2,2.87,1.02,2.69,2.45c-0.33,0.93-1.49,1.16-3.49,0.7c-0.87,0.11-2.05,0.57-3.54,1.37c-1.32,0.78-2.54,1.6-3.67,2.45
		L197.28,70l-2.3,1.75l-1.32,1.09l-2.91,2.22l-2.12,2.12l-2.88,3.54l-2.66,3.12l-2.58,3.77c-0.33,0.93-0.82,1.96-1.47,3.1
		c-0.13,0.37-0.23,0.6-0.31,0.7c-0.13,0.37-0.91,0.47-2.35,0.29c-0.37-0.13-0.71-0.4-1.03-0.8s-0.44-0.74-0.39-1.01l1.27-2.55
		c1.7-3.4,2.75-5.65,3.14-6.76l0.59-1.67l2.12-5.31C182.92,70.42,183.85,68.31,184.87,67.3z"/>
	<path class="st0" d="M213.42,51.53c2-3.79,3.67-6.78,4.98-8.98c1.32-2.2,3.11-4.85,5.38-7.97c2.27-3.11,4.58-5.79,6.96-8.03
		c2.42-2.6,4.67-3.01,6.74-1.24c0.08,0.61,0.2,1.04,0.36,1.28c0.16,0.25,0.14,0.78-0.07,1.6c-0.21,0.82-0.35,1.44-0.43,1.85
		c-0.08,0.41-0.32,1.03-0.7,1.88c-0.38,0.84-0.68,1.46-0.9,1.84c-0.22,0.38-0.52,0.95-0.91,1.71c-0.39,0.76-0.62,1.23-0.69,1.41
		l-0.64,1.27c-3.31,6.07-6.74,11.54-10.29,16.41c-2.04,2.82-4.96,6.32-8.77,10.51l-1.04,1.19c-1.55,1.78-2.88,3.15-4,4.08
		l-0.02-0.13l-1.24,3.87c-1.42,4.25-2.03,7.82-1.85,10.71l0.06,0.52c0.02,0.17,0.12,0.27,0.3,0.29c0.18,0.02,0.42-0.01,0.72-0.09
		c0.3-0.08,0.62-0.19,0.96-0.32c0.34-0.13,0.71-0.31,1.13-0.54c0.42-0.23,0.76-0.43,1.05-0.59c0.29-0.17,0.57-0.36,0.86-0.57
		c0.28-0.21,0.47-0.32,0.55-0.33c2.53-1.73,5.86-4.45,10-8.15c0.31-0.31,0.81-0.76,1.49-1.38c0.67-0.61,1.17-1.07,1.49-1.38
		c1.91-1.74,3.98-3.9,6.22-6.48c0.15-0.19,1.59-1.75,4.33-4.65c0.41-0.23,0.89-0.31,1.43-0.24c0.54,0.07,1.01,0.32,1.42,0.75
		c0.41,0.44,0.5,0.84,0.29,1.22c-0.32,0.3-0.92,0.96-1.81,1.95c-0.89,1-1.57,1.75-2.04,2.25l-2.12,2.12
		c-0.15,0.2-0.56,0.62-1.23,1.28c-0.67,0.66-1.12,1.13-1.35,1.43l-1.78,1.68c-3.55,3.45-6.69,6.32-9.41,8.6l-1.21,0.95
		c-1.86,1.38-3.53,2.52-5.01,3.41c-1.57,0.9-3.01,1.57-4.33,2c-1.32,0.43-2.6,0.39-3.86-0.11c-1.26-0.51-1.92-1.77-2-3.8
		c0-1.41,0-2.17-0.02-2.25c0.09-2.13,0.72-5.22,1.9-9.26C206.45,66.2,209.49,59.01,213.42,51.53z M220.72,51.55
		c6.93-10.42,11.27-18.12,13.04-23.12l-1.29,1.35c-3.27,3.59-6.55,8.11-9.85,13.57c-3.89,6.41-7.05,12.29-9.48,17.63l0.25-0.16
		C216.32,57.45,218.77,54.36,220.72,51.55z"/>
	<path class="st0" d="M274.82,57.68c0.46,0.12,0.84,0.36,1.15,0.72c0.31,0.36,0.35,0.69,0.12,0.98c-5.12,5.77-9.04,9.8-11.76,12.08
		c-2.65,2.19-4.17,3.44-4.57,3.75c-3.98,2.88-6.81,4.61-8.51,5.17c-4.38,1.08-7.46,0.49-9.24-1.77c-1.03-1.2-1.35-3.02-0.95-5.45
		c-0.66,1.06-1.81,2.53-3.43,4.41c-0.23,0.29-0.72,0.95-1.48,1.98c-0.75,1.02-1.38,1.74-1.85,2.16c-0.85,0.99-1.98,1.84-3.4,2.55
		c-1.73,1.01-3.45,1.05-5.16,0.11c-1.24-0.73-1.97-1.96-2.19-3.71c-0.18-2.19,0.78-5.14,2.88-8.85c1.92-3.07,4.02-5.68,6.32-7.82
		c1.67-1.53,3.83-2.95,6.5-4.26c1.26-0.51,2.33-0.78,3.22-0.8c2.09,0.45,2.94,1.27,2.56,2.47c-0.24,0.92-0.96,1.18-2.16,0.8
		c-0.38-0.22-0.99-0.14-1.83,0.23c-1.81,1.11-3.63,2.49-5.46,4.13c-2.02,2.2-3.52,4.07-4.48,5.6c-1.86,2.8-2.95,5.06-3.27,6.78
		c-0.36,1.37-0.31,2.47,0.15,3.3c0.18-0.02,0.3-0.08,0.38-0.18c2.36-1.62,4.59-4.02,6.67-7.2l6.57-9.05l3.59-4.16l0.11-0.15
		c0.22-0.38,0.63-0.98,1.23-1.81c0.6-0.83,1.01-1.47,1.22-1.94c0.37-0.58,1.12-0.76,2.25-0.55c1.13,0.21,1.74,0.67,1.83,1.36
		l0.02,0.13c0.04,0.35-0.23,1.02-0.81,2.02c-0.58,1-1.27,2.08-2.05,3.24c-0.78,1.16-1.29,1.93-1.5,2.31l-0.93,2.11
		c-0.71,2.12-1.17,3.77-1.37,4.95c-0.38,1.9-0.12,3.27,0.77,4.08c0.9,0.82,2.1,0.91,3.62,0.28c1.25-0.6,3.63-2.09,7.14-4.47
		c3.58-2.48,8.74-7.55,15.48-15.2C273.01,57.37,273.88,57.26,274.82,57.68z"/>
	<path class="st0" d="M313.73,51.63c0.36,0.05,0.69,0.25,1,0.61c0.31,0.36,0.36,0.73,0.14,1.11c-1.62,1.88-4.42,4.66-8.38,8.34
		c-3.42,3.08-7.18,6.25-11.29,9.5c-2.5,1.9-4.17,3.09-5,3.54c-1.46,1.07-2.96,1.83-4.49,2.28c-1.96,0.6-3.62,0.1-4.96-1.5
		c-1.17-1.53-1.31-3.73-0.42-6.58c0.36-1.37,1.33-3.84,2.93-7.4c0.64-1.94,1.02-3.13,1.14-3.59c-2.26,1.7-4.95,4.64-8.05,8.83
		c-0.83,1.16-2.2,3.32-4.1,6.48c-1.91,3.16-3.47,5.52-4.69,7.09c-0.35,0.75-1.17,0.9-2.47,0.44c-0.99-0.14-1.4-0.58-1.22-1.31
		c1.35-4.77,3.6-10.13,6.75-16.1c0.36-0.66,0.77-1.64,1.23-2.94c0.46-1.29,0.86-2.27,1.23-2.94c0.98-2.77,2.17-4.25,3.56-4.42
		c1.13-0.14,1.96,0.15,2.5,0.88c0.55,0.9,0.26,1.43-0.87,1.57c-0.26,0.03-0.6,0.52-1.01,1.45l-0.87,2.63l-0.75,2.48
		c1.43-2.04,3.67-4.26,6.73-6.68c3.06-2.41,5.07-2.58,6.04-0.49c0.44,1.36,0.06,3.67-1.13,6.91l-2.7,7.1
		c-0.74,2.57-0.82,4.39-0.25,5.47c0.25-0.12,0.83-0.41,1.75-0.88l2.32-1.62l5.33-4.11c5.2-4.36,8.83-7.51,10.89-9.45
		c3.95-3.76,6.13-5.81,6.53-6.12C312.13,51.56,312.99,51.37,313.73,51.63z"/>
	<path class="st0" d="M316.9,52.56l-0.2-0.51c-1.09,0.49-1.75,0.88-1.98,1.18c-1.62,1.88-2.87,3.59-3.74,5.11
		c-1.49,2.22-2.72,4.45-3.68,6.69c-1.34,2.73-1.74,5.21-1.19,7.45c0.11,0.17,0.25,0.23,0.42,0.21c1.74-0.22,4.82-3.17,9.25-8.85
		c3.22-3.94,7.21-9.52,11.97-16.75c5.58-8.48,9.68-15.31,12.3-20.51c0.7-1.5,1.52-3.02,2.48-4.56c0.13-0.37,0.37-0.91,0.73-1.62
		c0.35-0.71,0.64-1.25,0.86-1.63c0.55-1.22,0.96-2.24,1.21-3.07c0.54-1.3,0.79-2.49,0.75-3.54c-0.05-0.43-0.54-0.07-1.45,1.11
		l-0.46,0.59l-0.23,0.29c-0.16,0.11-0.32,0.28-0.47,0.52c-0.15,0.24-0.3,0.41-0.46,0.52c-1.3,1.67-2.5,3.36-3.61,5.09
		c-3.06,4.54-6.2,10.19-9.43,16.96c-1.26,2.63-2.78,6.45-4.54,11.45c-2.57,7.04-3.53,12.51-2.86,16.41
		c0.73,4.42,4.12,4.35,10.19-0.21c3.16-2.34,6.87-5.59,11.12-9.75c0.48-0.41,1.19-1.12,2.12-2.12c0.94-1,1.68-1.76,2.24-2.27
		c0.08-0.1,0.49-0.52,1.23-1.28c0.75-0.76,1.23-1.28,1.46-1.57c0.54-0.6,1.33-0.7,2.35-0.29c0.36,0.04,0.67,0.23,0.93,0.55
		c0.26,0.32,0.28,0.67,0.06,1.05c-0.54,0.6-1.77,1.93-3.68,3.98c-1.91,2.05-3.34,3.53-4.29,4.45c-0.95,0.91-2.25,2.14-3.92,3.67
		c-1.67,1.53-3.27,2.88-4.8,4.05c-1.75,1.54-3.67,2.89-5.73,4.03c-1.73,1.01-3.42,1.67-5.06,1.96c-2.18,0.27-4.05-0.2-5.62-1.42
		c-1.37-1.07-2.17-2.47-2.38-4.21c-0.66-3.19-0.23-7.49,1.31-12.9c0.95-3.74,2.52-8.19,4.71-13.32c1.37-3.18,2.45-5.52,3.24-7.04
		c2.06-4.06,3.79-7.19,5.2-9.4c2.7-4.58,5.1-8.02,7.21-10.32c1.32-1.49,2.56-2.53,3.72-3.12c2.03-0.78,3.65-0.54,4.87,0.72
		c1.01,1.02,1.17,2.69,0.49,4.98c-0.48,1.83-1.4,4.07-2.75,6.71c-4.63,8.98-10.22,18.44-16.76,28.36c-5.26,8.17-9.93,14.37-14,18.6
		c-3.36,3.6-6.06,5.66-8.12,6.19c-1.89,0.41-3.4,0.07-4.51-1.03c-1.23-1.35-1.59-3.21-1.09-5.57c0.59-2.37,1.57-4.79,2.94-7.27
		c0.84-1.78,2.09-3.8,3.76-6.04c1.89-2.54,3.7-4.35,5.42-5.45c0.66-0.35,1.47-0.63,2.42-0.83c0.95-0.2,1.79-0.16,2.54,0.15
		c0.74,0.31,1,0.96,0.77,1.96l-0.2,0.55c-0.13,0.37-0.65,0.68-1.54,0.92C317.53,52.81,317.02,52.81,316.9,52.56z"/>
</g>
<g>
	<path class="st1" d="M82.06,50.84c-0.97,0.74-1.99,0.73-3.05-0.02c-0.42-0.56-0.67-0.91-0.73-1.04c-0.06-0.13,0.07-0.49,0.39-1.11
		c0.32-0.61,0.51-1.01,0.58-1.2c0.78-2.22,1.24-3.56,1.36-4.02c0.98-4.19,1.5-7.13,1.55-8.82c-0.98-7.84-7.93-6.53-20.87,3.93
		C54.7,43.9,49.59,48.7,45.97,52.95c-1.4,1.5-2.76,3.09-4.05,4.75c-3.45,4.23-6.52,8.37-9.2,12.42
		c-7.63,11.12-12.95,21.38-15.93,30.78c-1.81,5.36-2.78,10.7-2.91,16.02c0.09,7.06,1.5,11.31,4.24,12.74
		c2.74,1.43,7.27,0.11,13.57-3.95c2.7-1.75,5.74-3.95,9.13-6.58c4.9-3.97,11.27-9.63,19.11-16.98c1.74-1.63,3.56-3.36,5.46-5.19
		c1.9-1.83,3.98-3.86,6.27-6.09c2.29-2.23,4.06-3.96,5.33-5.18c3.41-3.17,5.55-5.11,6.44-5.84c3.48-3.26,6.11-4.21,7.87-2.84
		c0.71,0.71,0.45,1.45-0.78,2.22c-0.32,0.3-0.82,0.72-1.5,1.25c-0.69,0.53-1.11,0.85-1.27,0.96c-1.61,1.26-3.32,2.8-5.13,4.62
		c-2.06,1.94-5,4.76-8.83,8.46c-3.83,3.71-6.34,6.12-7.52,7.24c-7.59,7.22-13.99,12.98-19.21,17.25
		c-6.88,5.81-12.92,9.92-18.1,12.34c-6.52,3.02-11.61,3-15.27-0.08c-1.8-1.63-2.99-4.14-3.59-7.51c-0.97-4.92-0.87-10.2,0.28-15.82
		c1.8-9.69,6.3-20.42,13.5-32.2c5.46-8.73,11.44-16.82,17.94-24.26c5.26-6.05,10.91-11.44,16.96-16.18
		c4.43-3.47,8.37-5.91,11.83-7.31c4.79-2.01,8.68-2.01,11.68,0c3.62,2.11,4.88,5.81,3.77,11.07c-0.49,2.45-1.11,4.91-1.86,7.4
		c-0.19,0.64-0.55,1.62-1.09,2.92C82.63,50.15,82.3,50.63,82.06,50.84z"/>
	<path class="st1" d="M199.34,93.35c6.5,1.05,9.45,3.42,8.85,7.12c-0.1,0.63-0.56,1.02-1.38,1.17c-0.82,0.15-1.59,0.02-2.3-0.38
		c-0.71-0.4-1.02-0.91-0.92-1.54c0.15-0.9,0.03-1.51-0.36-1.81c-1.35-0.89-3.33-1.51-5.94-1.85c-2.61-0.34-4.64-0.48-6.09-0.43
		s-3.76,0.18-6.92,0.4c-8.27,0.32-16.64,1.36-25.08,3.13c-5.1,0.99-8.76,1.76-10.99,2.3c-2.15,0.53-5.92,1.49-11.32,2.87
		c-11.89,3.25-27,8.36-45.32,15.34c-0.93,2.5-1.97,5.11-3.14,7.82c-2.37,5.78-4.43,10.24-6.16,13.37c-2.77,4.77-5.56,7.9-8.38,9.4
		c-3.22,1.82-6.26,1.93-9.11,0.34c-2.56-1.36-3.72-3.61-3.49-6.73c0.06-2.39,0.9-5.24,2.52-8.54c1.3-2.37,3-4.67,5.11-6.87
		c3.46-3.44,8.34-6.57,14.62-9.39c1.85-0.76,3.28-1.34,4.3-1.73l1.18-3.33c-0.01-0.09,0.03-0.14,0.11-0.15
		c0.92-3.3,2.25-7.09,4.02-11.38c0.19-0.64,0.49-1.59,0.91-2.83c0.42-1.25,0.72-2.19,0.91-2.83c-1.74,1.63-3.1,2.82-4.07,3.56
		c-2.05,1.32-3.78,1.97-5.19,1.97c-2.33-0.24-3.85-1.46-4.57-3.67c-0.48-1.71-0.51-3.39-0.1-5.03c0.63-2.02,1.35-4.06,2.16-6.11
		c0.07-0.18,0.63-1.54,1.68-4.06c1.06-2.52,1.78-4.38,2.16-5.58c0.33-0.92,1.19-1.25,2.6-0.99c1.4,0.27,2.03,0.85,1.88,1.76
		l-0.69,1.94c-0.12,0.46-0.37,1.11-0.75,1.95c-0.38,0.84-0.67,1.5-0.88,1.97c-1.03,2.34-2.1,5.13-3.2,8.36
		c-0.61,2.91-0.72,4.87-0.33,5.88c0.53,0.02,1.52-0.59,2.96-1.83c1.44-1.24,2.65-2.5,3.64-3.77c0.08-0.1,1.58-2.19,4.52-6.27
		c1.71-2.6,2.9-4.39,3.58-5.35c0.75-1.07,1.93-2.63,3.53-4.69c0.85-1.7,1.74-2.69,2.68-2.99c0.94-0.29,1.74-0.22,2.42,0.23
		c0.95,0.5,1.19,1.05,0.73,1.63c-1.37,1.76-2.2,2.93-2.48,3.49c-0.49,1.03-1.22,2.67-2.17,4.92c-0.48,1.12-1.2,2.78-2.16,4.98
		c-0.97,2.2-1.69,3.82-2.18,4.85c-0.08,0.1-0.16,0.29-0.26,0.56c-0.1,0.28-0.19,0.47-0.26,0.56c-3.12,9.06-5,14.51-5.66,16.36
		c-0.25,0.83-0.72,2.08-1.39,3.75c9.04-3.43,16.87-6.22,23.5-8.37c8.34-2.63,15.8-4.84,22.39-6.64c7.63-1.93,15.26-3.54,22.88-4.84
		c8.9-1.64,17.51-2.49,25.82-2.56C192.93,92.69,196.8,92.87,199.34,93.35z M83.41,128.77c0.41-0.94,1.04-2.32,1.87-4.15
		c0.83-1.83,1.28-2.84,1.35-3.02c-2.69,1.13-5.43,2.54-8.23,4.21c-5.1,3.11-8.79,7.15-11.09,12.13c-2.43,5.34-2.63,8.73-0.59,10.16
		c1.76,1.37,4.14,0.54,7.12-2.48c1.09-1.2,2.15-2.61,3.19-4.25C79.37,137.45,81.5,133.25,83.41,128.77z"/>
	<path class="st1" d="M154.21,68.78c0.8,0.79,0.71,1.42-0.29,1.89L149,72.74c-5.98,2.43-10.92,3.97-14.81,4.63l-0.78,0.1
		c-0.5,1.65-1.35,3.4-2.53,5.22c-1.48,2.31-2.64,4-3.48,5.08c-1.74,2.34-3.57,4.34-5.49,5.99c-2.97,2.41-5.65,3.62-8.04,3.66
		c-3.27-0.03-5.05-1.09-5.31-3.19c-0.2-1.57,0.07-3.37,0.79-5.41c1.09-3.32,2.76-7.33,5-12.03c-0.01-0.09,0.02-0.2,0.09-0.34
		c0.07-0.14,0.15-0.26,0.22-0.36c0.08-0.1,0.11-0.19,0.1-0.28c0.01,0.09,0.08-0.05,0.21-0.42c0.78-2.22,1.42-3.89,1.9-5.01
		c1.68-4.28,3.18-7.83,4.51-10.65c3.07-6.57,6.18-12.18,9.31-16.82c2.11-2.92,3.48-4.72,4.1-5.42c1.68-2.15,3.34-3.73,4.98-4.73
		c0.83-0.46,1.8-0.6,2.93-0.43c1.13,0.17,2.01,0.66,2.64,1.46c0.57,0.99,0.72,2.21,0.46,3.66c-0.15,0.9-0.66,2.56-1.5,4.96
		c-0.21,0.47-1.12,2.4-2.73,5.78c-2,3.79-4.27,7.61-6.8,11.46c-0.96,1.54-2.5,3.76-4.61,6.68c-2.04,2.82-4.23,5.48-6.57,7.98
		c-2.02,2.29-3.49,3.93-4.43,4.93c-1.27,1.13-2.12,1.77-2.55,1.91l-1.24,2.81c-1.19,3.25-1.94,5.33-2.27,6.25
		c-0.25,0.83-0.45,1.74-0.59,2.73c0.01,0.09,0.01,0.22-0.02,0.4c-0.02,0.18-0.02,0.36,0,0.53c0.13,1.04,1.15,1.1,3.07,0.15
		c1.83-0.93,3.87-2.65,6.13-5.14c1.18-1.21,2.39-2.82,3.64-4.83c1.65-2.33,2.89-4.47,3.71-6.43l0.11-0.15
		c-0.9-0.15-1.61-0.5-2.12-1.06c-0.61-0.63-0.83-1.31-0.65-2.04c0.17-0.73,0.64-1.27,1.39-1.63c2.12-1.41,3.96-1.2,5.52,0.64
		c0.24,0.5,0.38,0.88,0.41,1.14l0.78-0.1c2.42-0.48,4.6-1.06,6.55-1.75c1.36-0.44,4.81-1.88,10.34-4.34
		C152.38,67.94,153.33,68.09,154.21,68.78z M129.92,51.64c-3.9,7.03-7.1,13.98-9.61,20.83l-0.11,0.15l0.02,0.13
		c0.54-0.6,1.35-1.58,2.42-2.96c2.15-2.57,3.72-4.53,4.71-5.89c1.95-2.81,3.88-5.75,5.8-8.82c2.73-4.32,4.9-8.26,6.49-11.82
		l0.62-1.4l1.27-3.61c0.32-1.01,0.46-2,0.43-2.97c-0.09,0.01-1,0.88-2.73,2.6l-1.16,1.34C135.98,41.77,133.27,45.91,129.92,51.64z"
		/>
	<path class="st1" d="M152.06,80.29c-1.54,1.08-3.19,1.37-4.93,0.88l-0.23,0.29c-0.84,2.49-0.69,4.38,0.44,5.65
		c1.67,0.59,4.94-0.48,9.81-3.21c5.37-3.06,11.33-7.69,17.9-13.91c0.31-0.3,0.97-0.89,1.97-1.77c1-0.87,1.73-1.52,2.21-1.93
		c1.21-0.95,1.98-1.49,2.32-1.62c0.59-0.25,1.23-0.24,1.93,0.02c0.7,0.27,1,0.72,0.9,1.35l-0.21,0.43l-0.34,0.44l-1.54,1.52
		l-0.47,0.46l-3.82,3.4c-4.77,4.31-8.83,7.6-12.17,9.88c-4.31,3.02-7.9,5.1-10.76,6.25c-2.02,0.78-4.09,1.26-6.19,1.44
		c-3.09,0.03-5.18-1.12-6.27-3.46c-0.66-1.77-0.3-4.21,1.08-7.3c1.27-2.55,2.83-4.95,4.67-7.22c1.75-2.25,3.68-4.17,5.78-5.76
		c2.97-2.4,5.6-3,7.87-1.78c1.83,1.19,1.95,3.25,0.37,6.19c-1.01,1.81-2.47,3.62-4.36,5.45C155.88,77.92,153.89,79.36,152.06,80.29z
		 M148.16,78.79l0.9-0.24c3.67-1.78,6.73-4.51,9.2-8.18c0.45-0.67,0.84-1.39,1.19-2.14l0.16-1.88c-1.01,0.39-2.16,1.16-3.43,2.29
		c-2.15,1.95-4.64,5-7.48,9.16L148.16,78.79z"/>
	<path class="st1" d="M181.82,64.62c1.08-0.58,2.06-0.52,2.94,0.16c0.68,0.53,0.01,2.96-2.01,7.28c4.38-3.9,7.87-6.77,10.47-8.6
		l0.74-0.49l1.11-0.67c1.98-1.13,3.78-1.93,5.41-2.4c0.09-0.01,0.43-0.1,1.03-0.26c1.13-0.14,1.79-0.18,1.98-0.11
		c1.97,0.2,2.87,1.02,2.69,2.45c-0.33,0.93-1.49,1.16-3.49,0.7c-0.87,0.11-2.05,0.57-3.54,1.37c-1.32,0.78-2.54,1.6-3.67,2.45
		l-1.22,0.82l-2.3,1.75l-1.32,1.09l-2.91,2.22l-2.12,2.12l-2.88,3.54l-2.66,3.12l-2.58,3.77c-0.33,0.93-0.82,1.96-1.47,3.1
		c-0.13,0.37-0.23,0.6-0.31,0.7c-0.13,0.37-0.91,0.47-2.35,0.29c-0.37-0.13-0.71-0.4-1.03-0.8c-0.32-0.4-0.44-0.74-0.39-1.01
		l1.27-2.55c1.7-3.4,2.75-5.65,3.14-6.76l0.59-1.67l2.12-5.31C179.86,67.74,180.79,65.63,181.82,64.62z"/>
	<path class="st1" d="M210.37,48.85c2-3.79,3.67-6.78,4.98-8.98c1.32-2.2,3.11-4.85,5.38-7.97c2.27-3.11,4.58-5.79,6.96-8.03
		c2.42-2.6,4.67-3.01,6.74-1.24c0.08,0.61,0.2,1.04,0.36,1.28c0.16,0.25,0.14,0.78-0.07,1.6c-0.21,0.82-0.35,1.44-0.43,1.84
		c-0.08,0.41-0.31,1.03-0.69,1.88c-0.38,0.84-0.68,1.46-0.9,1.84c-0.22,0.38-0.52,0.95-0.91,1.71c-0.39,0.76-0.62,1.23-0.69,1.41
		l-0.64,1.27c-3.31,6.07-6.74,11.54-10.29,16.41c-2.04,2.82-4.96,6.32-8.77,10.51l-1.05,1.19c-1.55,1.78-2.88,3.15-4,4.08
		l-0.02-0.13l-1.24,3.87c-1.41,4.25-2.03,7.82-1.85,10.71l0.06,0.52c0.02,0.17,0.12,0.27,0.3,0.29c0.18,0.02,0.42-0.01,0.72-0.09
		c0.3-0.08,0.62-0.19,0.96-0.32c0.34-0.13,0.71-0.31,1.13-0.54c0.41-0.23,0.76-0.43,1.05-0.6c0.29-0.17,0.57-0.36,0.86-0.57
		c0.28-0.21,0.47-0.32,0.56-0.33c2.52-1.73,5.86-4.45,10-8.15c0.31-0.31,0.81-0.76,1.49-1.38c0.67-0.61,1.17-1.07,1.49-1.38
		c1.91-1.74,3.98-3.9,6.22-6.48c0.15-0.19,1.59-1.75,4.33-4.65c0.41-0.23,0.89-0.31,1.43-0.24c0.54,0.07,1.01,0.32,1.42,0.75
		c0.41,0.44,0.5,0.84,0.29,1.23c-0.32,0.3-0.92,0.96-1.81,1.95c-0.89,1-1.57,1.75-2.04,2.25l-2.12,2.12
		c-0.15,0.2-0.56,0.62-1.23,1.28c-0.67,0.66-1.12,1.14-1.35,1.43l-1.78,1.68c-3.55,3.45-6.69,6.32-9.41,8.6l-1.21,0.95
		c-1.86,1.38-3.53,2.52-5.01,3.41c-1.57,0.9-3.01,1.57-4.33,2c-1.32,0.43-2.6,0.39-3.86-0.12c-1.26-0.51-1.92-1.77-2-3.8
		c0-1.41,0-2.17-0.02-2.25c0.09-2.13,0.72-5.22,1.9-9.26C203.39,63.52,206.43,56.33,210.37,48.85z M217.67,48.87
		c6.93-10.42,11.27-18.12,13.04-23.12l-1.29,1.35c-3.27,3.59-6.55,8.11-9.85,13.57c-3.89,6.41-7.05,12.29-9.48,17.63l0.25-0.16
		C213.27,54.77,215.72,51.68,217.67,48.87z"/>
	<path class="st1" d="M271.76,54.99c0.46,0.12,0.84,0.36,1.15,0.72c0.31,0.36,0.35,0.69,0.12,0.98c-5.12,5.77-9.04,9.8-11.76,12.08
		c-2.65,2.19-4.17,3.44-4.57,3.75c-3.98,2.88-6.81,4.61-8.51,5.17c-4.38,1.08-7.46,0.49-9.24-1.77c-1.04-1.2-1.35-3.02-0.95-5.45
		c-0.66,1.06-1.81,2.53-3.43,4.41c-0.23,0.29-0.72,0.95-1.48,1.98c-0.76,1.02-1.38,1.74-1.85,2.16c-0.85,0.99-1.98,1.84-3.4,2.55
		c-1.73,1.01-3.45,1.05-5.16,0.11c-1.24-0.73-1.97-1.96-2.19-3.71c-0.18-2.19,0.78-5.14,2.88-8.85c1.92-3.07,4.03-5.68,6.32-7.82
		c1.67-1.54,3.83-2.95,6.5-4.26c1.26-0.51,2.33-0.78,3.22-0.8c2.09,0.45,2.94,1.27,2.56,2.47c-0.24,0.92-0.96,1.18-2.16,0.8
		c-0.38-0.22-0.99-0.14-1.83,0.23c-1.81,1.11-3.63,2.49-5.46,4.13c-2.02,2.2-3.52,4.07-4.48,5.6c-1.86,2.8-2.95,5.06-3.27,6.78
		c-0.36,1.37-0.31,2.47,0.15,3.3c0.18-0.02,0.3-0.08,0.38-0.18c2.36-1.62,4.59-4.02,6.67-7.2l6.57-9.05l3.59-4.16l0.11-0.15
		c0.22-0.38,0.63-0.98,1.23-1.81c0.6-0.83,1.01-1.47,1.22-1.94c0.37-0.58,1.12-0.76,2.25-0.55c1.13,0.21,1.74,0.67,1.83,1.36
		L248.8,56c0.04,0.35-0.23,1.02-0.81,2.02c-0.58,1-1.27,2.08-2.05,3.24c-0.78,1.16-1.29,1.93-1.5,2.31l-0.93,2.11
		c-0.71,2.12-1.17,3.77-1.37,4.95c-0.38,1.9-0.12,3.27,0.77,4.08c0.9,0.82,2.1,0.91,3.62,0.28c1.25-0.6,3.63-2.09,7.14-4.47
		c3.58-2.48,8.74-7.55,15.49-15.2C269.96,54.69,270.83,54.58,271.76,54.99z"/>
	<path class="st1" d="M310.68,48.95c0.36,0.05,0.69,0.25,1,0.61c0.31,0.36,0.36,0.73,0.14,1.11c-1.62,1.88-4.42,4.66-8.38,8.34
		c-3.42,3.08-7.18,6.25-11.29,9.5c-2.5,1.9-4.17,3.09-5,3.54c-1.46,1.07-2.96,1.83-4.49,2.28c-1.96,0.6-3.62,0.1-4.96-1.5
		c-1.17-1.53-1.31-3.73-0.42-6.58c0.36-1.37,1.33-3.84,2.93-7.4c0.64-1.94,1.02-3.13,1.14-3.59c-2.27,1.7-4.95,4.64-8.05,8.83
		c-0.83,1.16-2.2,3.33-4.1,6.48c-1.91,3.16-3.47,5.52-4.69,7.09c-0.35,0.75-1.17,0.9-2.47,0.44c-0.99-0.14-1.4-0.58-1.22-1.31
		c1.35-4.77,3.6-10.13,6.75-16.1c0.36-0.66,0.77-1.64,1.23-2.94c0.46-1.29,0.87-2.27,1.23-2.94c0.98-2.78,2.17-4.25,3.56-4.42
		c1.13-0.14,1.96,0.15,2.5,0.88c0.55,0.9,0.27,1.43-0.87,1.57c-0.26,0.03-0.6,0.52-1.01,1.45l-0.87,2.63l-0.75,2.48
		c1.43-2.04,3.67-4.26,6.73-6.68c3.06-2.41,5.07-2.58,6.04-0.49c0.43,1.36,0.06,3.67-1.13,6.91l-2.7,7.1
		c-0.74,2.57-0.82,4.39-0.25,5.47c0.25-0.12,0.83-0.41,1.75-0.88l2.32-1.62l5.33-4.11c5.21-4.36,8.84-7.51,10.9-9.45
		c3.95-3.76,6.13-5.81,6.53-6.12C309.08,48.88,309.94,48.69,310.68,48.95z"/>
	<path class="st1" d="M313.85,49.88l-0.2-0.51c-1.09,0.49-1.75,0.88-1.98,1.18c-1.62,1.88-2.87,3.59-3.74,5.11
		c-1.49,2.22-2.72,4.45-3.68,6.69c-1.34,2.73-1.74,5.21-1.19,7.45c0.11,0.16,0.25,0.23,0.42,0.21c1.74-0.22,4.82-3.17,9.25-8.85
		c3.22-3.94,7.21-9.52,11.97-16.75c5.58-8.48,9.68-15.31,12.3-20.51c0.7-1.5,1.52-3.02,2.48-4.56c0.13-0.37,0.37-0.91,0.73-1.62
		c0.35-0.71,0.64-1.25,0.86-1.63c0.55-1.22,0.96-2.24,1.21-3.07c0.54-1.3,0.79-2.49,0.75-3.54c-0.05-0.43-0.54-0.07-1.45,1.11
		l-0.46,0.59l-0.23,0.29c-0.16,0.11-0.32,0.28-0.46,0.52c-0.15,0.24-0.3,0.41-0.47,0.52c-1.3,1.67-2.5,3.36-3.61,5.09
		c-3.06,4.54-6.2,10.19-9.43,16.96c-1.26,2.63-2.78,6.45-4.54,11.45c-2.57,7.04-3.53,12.51-2.86,16.41
		c0.73,4.42,4.13,4.35,10.19-0.21c3.16-2.34,6.87-5.59,11.12-9.75c0.48-0.41,1.19-1.12,2.12-2.12c0.94-1,1.68-1.76,2.24-2.27
		c0.08-0.1,0.49-0.52,1.23-1.28c0.75-0.76,1.23-1.28,1.46-1.57c0.54-0.6,1.33-0.7,2.35-0.29c0.36,0.04,0.67,0.23,0.93,0.55
		c0.26,0.32,0.28,0.67,0.07,1.05c-0.55,0.6-1.77,1.92-3.68,3.98c-1.91,2.05-3.34,3.53-4.29,4.45c-0.95,0.91-2.25,2.14-3.92,3.67
		c-1.67,1.53-3.27,2.88-4.8,4.05c-1.75,1.54-3.67,2.89-5.73,4.03c-1.73,1.01-3.42,1.67-5.06,1.96c-2.18,0.27-4.05-0.2-5.62-1.42
		c-1.37-1.07-2.17-2.47-2.38-4.21c-0.66-3.19-0.23-7.49,1.31-12.9c0.95-3.74,2.52-8.19,4.71-13.32c1.37-3.18,2.45-5.52,3.24-7.04
		c2.06-4.06,3.79-7.19,5.2-9.4c2.7-4.58,5.1-8.02,7.21-10.32c1.32-1.49,2.56-2.53,3.72-3.12c2.03-0.78,3.65-0.54,4.87,0.72
		c1.01,1.02,1.17,2.69,0.49,4.98c-0.48,1.83-1.4,4.07-2.75,6.71c-4.63,8.98-10.22,18.44-16.76,28.36c-5.26,8.17-9.93,14.37-14,18.6
		c-3.35,3.6-6.06,5.66-8.12,6.19c-1.89,0.41-3.39,0.07-4.51-1.03c-1.23-1.35-1.59-3.21-1.09-5.57c0.59-2.37,1.57-4.79,2.94-7.27
		c0.84-1.78,2.09-3.8,3.76-6.04c1.89-2.54,3.7-4.35,5.42-5.45c0.66-0.35,1.47-0.62,2.42-0.83c0.95-0.2,1.79-0.16,2.54,0.15
		c0.74,0.31,1,0.96,0.77,1.96l-0.2,0.56c-0.13,0.37-0.65,0.68-1.54,0.92C314.47,50.13,313.96,50.13,313.85,49.88z"/>
</g>
</svg>
