<?xml version="1.0" encoding="UTF-8"?>
<svg id="Ebene_1" data-name="Ebene 1" xmlns="http://www.w3.org/2000/svg" xmlns:xlink="http://www.w3.org/1999/xlink" viewBox="0 0 250.24 156.81">
  <defs>
    <style>
      .cls-1 {
        fill: #fff;
      }

      .cls-2 {
        fill: #e72867;
      }

      .cls-3 {
        fill: url(#Neues_Verlaufsfeld_1);
      }

      .cls-4 {
        fill: url(#Unbenannter_Verlauf_5);
      }

      .cls-5 {
        fill: url(#Unbenannter_Verlauf_7);
      }
    </style>
    <linearGradient id="Unbenannter_Verlauf_7" data-name="Unbenannter Verlauf 7" x1="163.95" y1="92.98" x2="95.15" y2="56.73" gradientUnits="userSpaceOnUse">
      <stop offset="0" stop-color="#4e1948"/>
      <stop offset="1" stop-color="#1c1537"/>
    </linearGradient>
    <linearGradient id="Unbenannter_Verlauf_5" data-name="Unbenannter Verlauf 5" x1="120.25" y1="11.37" x2="158.13" y2="96.39" gradientUnits="userSpaceOnUse">
      <stop offset="0" stop-color="#a81255"/>
      <stop offset="1" stop-color="#4e1948"/>
    </linearGradient>
    <linearGradient id="Neues_Verlaufsfeld_1" data-name="Neues Verlaufsfeld 1" x1="92.12" y1="97.77" x2="129.18" y2="12.75" gradientUnits="userSpaceOnUse">
      <stop offset="0" stop-color="#e72867"/>
      <stop offset="1" stop-color="#a81255"/>
    </linearGradient>
  </defs>
  <g>
    <path class="cls-2" d="m24.25,154.01c0,.72-.29,1.34-.87,1.85-.58.51-1.25.76-1.99.76-.51,0-.97-.13-1.38-.4-.42-.26-.75-.66-.99-1.19l-1.48-3.33H6.85l-1.52,3.33c-.24.53-.58.92-1,1.19-.43.26-.9.4-1.4.4-.75,0-1.42-.25-2.03-.76-.6-.5-.91-1.12-.91-1.85,0-.4.1-.8.3-1.22l8.7-17.86c.29-.59.71-1.05,1.27-1.37s1.18-.48,1.86-.48,1.27.16,1.85.48c.57.32,1,.77,1.28,1.37l8.7,17.86c.2.42.3.82.3,1.22Zm-15.35-6.85h6.59l-3.29-7.35-3.29,7.35Z"/>
    <path class="cls-2" d="m37.38,155.79c-.48-.48-.72-1.17-.72-2.08v-17.63c0-.9.24-1.59.72-2.08.48-.48,1.17-.73,2.08-.73h6.65c2.57,0,4.78.47,6.64,1.4,1.86.93,3.28,2.27,4.27,4,.99,1.74,1.48,3.8,1.48,6.19s-.49,4.5-1.47,6.24c-.98,1.75-2.39,3.08-4.25,4-1.86.92-4.08,1.38-6.67,1.38h-6.65c-.9,0-1.59-.24-2.08-.72Zm13.39-5.82c1.13-1.11,1.7-2.81,1.7-5.09s-.57-3.97-1.7-5.07c-1.13-1.1-2.83-1.65-5.09-1.65h-2.97v13.47h2.97c2.26,0,3.96-.55,5.09-1.66Z"/>
    <path class="cls-2" d="m75.94,155.35c-1.75-.98-3.09-2.36-4.04-4.15-.95-1.79-1.42-3.89-1.42-6.31s.47-4.52,1.42-6.31c.94-1.79,2.29-3.17,4.04-4.13,1.75-.97,3.81-1.45,6.18-1.45s4.43.48,6.18,1.45c1.75.97,3.08,2.35,4.02,4.13.93,1.79,1.4,3.89,1.4,6.31s-.47,4.52-1.42,6.31c-.94,1.79-2.29,3.17-4.04,4.15-1.75.98-3.8,1.47-6.14,1.47s-4.43-.49-6.18-1.47Zm10.3-5.04c.99-1.24,1.48-3.05,1.48-5.42s-.5-4.17-1.5-5.4c-1-1.23-2.37-1.85-4.1-1.85s-3.13.61-4.12,1.83c-.99,1.22-1.48,3.03-1.48,5.42s.49,4.21,1.48,5.44c.99,1.23,2.36,1.85,4.12,1.85s3.13-.62,4.12-1.86Z"/>
    <path class="cls-2" d="m108.01,155.91c-.54-.54-.81-1.27-.81-2.19v-17.63c0-.9.24-1.59.72-2.08.48-.48,1.17-.73,2.08-.73h8.43c2.57,0,4.57.65,6,1.96,1.43,1.31,2.14,3.12,2.14,5.45s-.72,4.12-2.16,5.44c-1.44,1.32-3.43,1.98-5.98,1.98h-5.17v5.6c0,.92-.27,1.65-.82,2.19-.55.54-1.3.81-2.24.81s-1.65-.27-2.19-.81Zm12.09-13.03c.54-.46.81-1.17.81-2.14,0-1.91-1.1-2.87-3.29-2.87h-4.35v5.7h4.35c1.12,0,1.95-.23,2.49-.69Z"/>
    <path class="cls-2" d="m146.04,155.87c-.56-.54-.84-1.26-.84-2.16v-15.52h-4.65c-.97,0-1.69-.2-2.16-.61-.47-.41-.71-1.03-.71-1.86s.24-1.45.71-1.85c.47-.4,1.19-.59,2.16-.59h15.42c.97,0,1.69.2,2.16.59.47.4.71,1.01.71,1.85s-.24,1.46-.71,1.86c-.47.41-1.19.61-2.16.61h-4.65v15.52c0,.9-.28,1.62-.84,2.16s-1.3.81-2.22.81-1.66-.27-2.22-.81Z"/>
    <path class="cls-2" d="m172.43,155.91c-.54-.54-.81-1.27-.81-2.19v-17.63c0-.9.27-1.62.81-2.16.54-.54,1.27-.81,2.19-.81s1.69.27,2.24.81.82,1.26.82,2.16v17.63c0,.92-.27,1.65-.82,2.19-.55.54-1.3.81-2.24.81s-1.65-.27-2.19-.81Z"/>
    <path class="cls-2" d="m194.57,154.24c-1.75-1.71-2.62-4.22-2.62-7.51v-10.64c0-.9.27-1.62.81-2.16.54-.54,1.26-.81,2.16-.81s1.62.27,2.16.81c.54.54.81,1.26.81,2.16v10.87c0,1.67.37,2.95,1.12,3.85.75.9,1.82,1.35,3.23,1.35s2.48-.45,3.23-1.35,1.12-2.19,1.12-3.85v-10.87c0-.9.27-1.62.81-2.16.54-.54,1.26-.81,2.16-.81s1.62.27,2.17.81.82,1.26.82,2.16v10.64c0,3.27-.88,5.77-2.65,7.49-1.77,1.72-4.32,2.59-7.66,2.59s-5.91-.86-7.66-2.57Z"/>
    <path class="cls-2" d="m249.45,133.95c.53.55.79,1.26.79,2.14v17.92c0,.84-.24,1.49-.72,1.98-.48.48-1.12.72-1.91.72s-1.4-.24-1.89-.72c-.49-.48-.74-1.14-.74-1.98v-9.69l-3.76,6.92c-.37.7-.77,1.2-1.19,1.5-.42.3-.91.44-1.48.44s-1.07-.15-1.48-.44c-.42-.3-.81-.8-1.19-1.5l-3.72-6.72v9.49c0,.81-.25,1.47-.74,1.96-.49.49-1.14.74-1.93.74s-1.4-.24-1.89-.72c-.49-.48-.74-1.14-.74-1.98v-17.92c0-.88.27-1.59.81-2.14.54-.55,1.22-.82,2.06-.82.59,0,1.13.17,1.61.51.48.34.89.83,1.22,1.47l6.06,11.4,6.03-11.4c.68-1.32,1.6-1.98,2.77-1.98.83,0,1.52.27,2.04.82Z"/>
  </g>
  <g>
    <path class="cls-1" d="m125.11,0c-8.99,0-17.12,4.98-21.22,13l-.09.18-.09.18-28.26,61.26-.21.45-.16.47c-.56,1.61-1.86,5.73-1.86,9.14,0,13.15,10.7,23.85,23.85,23.85,9.12,0,17.4-5.19,21.39-13.32l24.54,11.04c3.2,1.51,6.62,2.28,10.18,2.28,13.15,0,23.85-10.7,23.85-23.85,0-3.41-1.3-7.53-1.86-9.14l-.16-.47-.21-.45c-27.32-59.19-28.45-61.64-28.68-62.08h0c-4.17-7.74-12.22-12.54-21-12.54h0Z"/>
    <g>
      <path class="cls-5" d="m140.46,90.19h0s-15.34-33.28-15.34-33.28l-11.58,25.13,33.66,15.15h0c-3-1.44-5.4-3.93-6.73-7Z"/>
      <path class="cls-4" d="m165.7,78.82h.01s-27.79-60.27-27.79-60.27c-.08-.19-.17-.37-.25-.55l-.21-.45h0c-.05-.09-.1-.18-.15-.27,1.05,1.95,1.65,4.19,1.65,6.56,0,2.05-.46,3.99-1.25,5.73h0s-12.6,27.33-12.6,27.33l15.34,33.28h0c2.13,4.91,7.01,8.35,12.71,8.35,7.65,0,13.85-6.2,13.85-13.85,0-2.1-.48-4.08-1.32-5.87Z"/>
      <path class="cls-3" d="m125.11,10c-5.38,0-10.03,3.07-12.33,7.56h0s-.21.45-.21.45c-.09.18-.18.36-.25.55l-27.79,60.26h.01c-.84,1.79-1.32,3.77-1.32,5.87,0,7.65,6.2,13.85,13.85,13.85,5.69,0,10.58-3.44,12.71-8.35h0s27.94-60.6,27.94-60.6h0c.8-1.75,1.25-3.69,1.25-5.74,0-7.65-6.2-13.85-13.85-13.85Z"/>
    </g>
  </g>
</svg>