<?xml version="1.0" encoding="UTF-8"?>
<svg id="Ebene_1" data-name="Ebene 1" xmlns="http://www.w3.org/2000/svg" viewBox="0 0 877.21 727.26">
  <defs>
    <style>
      .cls-1 {
        stroke-width: 3.65px;
      }

      .cls-1, .cls-2, .cls-3, .cls-4, .cls-5, .cls-6, .cls-7, .cls-8, .cls-9, .cls-10, .cls-11, .cls-12, .cls-13 {
        fill: none;
        stroke-miterlimit: 10;
      }

      .cls-1, .cls-2, .cls-3, .cls-4, .cls-6, .cls-7, .cls-8, .cls-9, .cls-11, .cls-12 {
        stroke: #000;
      }

      .cls-2, .cls-6 {
        stroke-width: 1.5px;
      }

      .cls-3 {
        stroke-width: 3px;
      }

      .cls-4 {
        stroke-width: 3.04px;
      }

      .cls-5 {
        stroke: #232a2b;
        stroke-width: 6px;
      }

      .cls-14 {
        fill: #fff;
      }

      .cls-15 {
        fill: #edc44c;
      }

      .cls-16 {
        fill: #6b7475;
      }

      .cls-17 {
        fill: #c9bfb8;
      }

      .cls-18 {
        fill: #e2be46;
      }

      .cls-19 {
        fill: #e5151f;
      }

      .cls-20 {
        fill: #d6cec8;
      }

      .cls-21 {
        opacity: .2;
      }

      .cls-21, .cls-22, .cls-23, .cls-6, .cls-24, .cls-25, .cls-26, .cls-7, .cls-10, .cls-27, .cls-11, .cls-13 {
        isolation: isolate;
      }

      .cls-21, .cls-22, .cls-24, .cls-26 {
        fill: #627072;
      }

      .cls-22 {
        opacity: .3;
      }

      .cls-23 {
        opacity: .31;
      }

      .cls-23, .cls-25 {
        fill: #7f98a0;
      }

      .cls-6, .cls-10, .cls-28, .cls-11 {
        opacity: .7;
      }

      .cls-24 {
        opacity: .5;
      }

      .cls-25, .cls-26 {
        opacity: .4;
      }

      .cls-7 {
        opacity: .71;
      }

      .cls-7, .cls-8, .cls-11 {
        stroke-width: 2px;
      }

      .cls-9 {
        stroke-width: 4px;
      }

      .cls-10, .cls-13 {
        stroke: #282828;
        stroke-width: 1.4px;
      }

      .cls-29 {
        opacity: .44;
      }

      .cls-30 {
        opacity: .36;
      }

      .cls-31 {
        opacity: .66;
      }

      .cls-32 {
        opacity: .57;
      }

      .cls-33 {
        opacity: .56;
      }

      .cls-34 {
        opacity: .9;
      }

      .cls-35 {
        opacity: .75;
      }

      .cls-27 {
        fill: #1a171b;
        opacity: .06;
      }

      .cls-12 {
        stroke-width: 2.4px;
      }

      .cls-13 {
        opacity: .6;
      }
    </style>
  </defs>
  <g id="Ebene_18" data-name="Ebene 18">
    <polygon class="cls-14" points="415.78 460.2 326.08 425.5 329.88 342.7 378.58 275.2 424.68 379.4 415.78 460.2"/>
    <path d="m732.08,304c-.5,1.3-1,2.4-1.5,3.6l-1.5,3.4c-1,2.3-2,4.6-3.1,6.8-2.1,4.5-4.3,9-6.6,13.4s-4.8,8.7-7.4,13c-2.6,4.3-5.5,8.5-8.6,12.5-3.1,4.1-6.4,8-10.3,11.6-1.9,1.8-3.9,3.5-6.1,5.2-2.1,1.6-4.5,3.1-6.9,4.5-4.9,2.6-10.7,4.4-16.7,4.6h-2.2l-2.2-.2-2.2-.3-1.9-.4c-2.6-.5-5.1-1.1-7.6-1.9-5-1.5-9.9-3.4-14.5-5.8-4.7-2.3-9.1-5-13.3-8.1-4.2-3-8.2-6.4-11.9-9.9-3.7-3.6-7.2-7.4-10.4-11.4-6.4-8-12-16.7-16.6-26-2.3-4.7-4.3-9.5-6-14.5-1.6-5.1-3-10.3-3.7-16.1l19.8-1.3c0,3.8.6,8.1,1.6,12.3s2.4,8.5,4,12.6c1.6,4.2,3.6,8.2,5.8,12.2s4.6,7.8,7.2,11.4c2.7,3.6,5.5,7.1,8.6,10.4,3.1,3.2,6.4,6.3,10,9,7,5.5,14.9,9.8,23.3,12.5,2.1.7,4.2,1.2,6.4,1.7l1.6.3,1.4.2,1.4.1h1.4c3.7,0,7.4-1.1,11-3,3.6-1.8,7-4.5,10.2-7.5s6.1-6.5,8.8-10.1c5.4-7.4,10-15.5,14-23.9,2-4.2,3.8-8.5,5.5-12.9.8-2.2,1.6-4.4,2.4-6.6.4-1.1.7-2.2,1.1-3.3.3-1.1.7-2.3,1-3.2l14.7,5.1Z"/>
    <path d="m593.78,221.4s-2,48,1.7,78.8c2.8,24,25.9,50.6,25.9,50.6l-16.9,2s-6.6-7.3-11.5-7.5c-4.2-.2-3.1,25.9-3.1,25.9,0,0-10.9-35.5-8.4-64.8,2.5-29.4,12.3-85,12.3-85Z"/>
    <g>
      <path class="cls-14" d="m392.78,241.8c33.6-33.7,59-52.9,105.9-79.8s107.7-49.6,131.4-44.1c21.3,4.9-12.7,39.9-28.5,91.1-22.5,72.8-15.8,138.6-13.6,179.2,2.8,54,3.9,164.7-38.3,178.3-42.1,13.6-66.8-95.2-103-108.2-28.6-10.3-59.5,16.1-59.5,16.1"/>
      <path d="m390.78,239.8c3.7-3.5,7.3-7,11.1-10.4,3.7-3.4,7.5-6.8,11.3-10.2,7.6-6.7,15.5-13.1,23.7-19.1,16.2-12.2,33.4-22.9,50.9-33.1,17.4-10.2,35.4-19.6,53.9-27.7,9.3-4,18.6-7.8,28.2-11.2,9.5-3.4,19.2-6.4,29.1-8.7,4.9-1.1,9.9-2.1,15-2.6,5-.5,10.2-.8,15.3.1,1.3.2,2.6.5,3.8,1.1,1.2.5,2.4,1.4,3.3,2.5.8,1.2,1.3,2.6,1.4,3.9.1,1.4,0,2.7-.2,4-.4,2.6-1.3,5-2.2,7.4s-2,4.7-3,7c-4.4,9.2-9.1,18-13.5,27.1-4.4,9-8.5,18.2-11.9,27.7-1.7,4.7-3.3,9.5-4.6,14.3-.7,2.4-1.4,4.8-2,7.3l-1,3.6-.9,3.7c-2.4,9.8-4.3,19.6-5.8,29.5-3,19.8-4.4,39.9-4.5,60-.1,20.1,1,40.1,2.4,60.2,1.4,20.2,2.3,40.4,2.3,60.7,0,10.1-.3,20.3-.9,30.5-.6,10.2-1.5,20.3-2.9,30.4-1.5,10.1-3.4,20.2-6.3,30.2-3,9.9-6.8,19.8-13.4,28.6-3.3,4.3-7.4,8.3-12.4,11.2-2.5,1.4-5.2,2.5-8,3.2-2.9.7-5.9.9-8.8.7-3-.3-5.9-1.1-8.5-2.2-2.7-1.1-5.1-2.6-7.3-4.2-4.5-3.2-8.2-7.1-11.6-11.1-6.8-8-12.2-16.7-17.5-25.4-5.2-8.7-10.1-17.6-15.1-26.2-5.1-8.6-10.2-17.2-16.2-25-3-3.8-6.2-7.5-9.7-10.5-1.8-1.5-3.6-2.8-5.6-3.9-1-.5-2-1-3-1.4-1.1-.4-2.2-.8-3.3-1-4.4-1.2-9.1-1.5-13.8-1.1-4.7.4-9.4,1.5-13.9,3.1-4.6,1.6-9,3.6-13.3,6-2.1,1.2-4.2,2.5-6.3,3.8-2,1.3-4.1,2.8-5.9,4.2l-3.9-4.6c2.1-1.8,4.1-3.3,6.3-4.8,2.1-1.5,4.3-2.9,6.6-4.2,4.5-2.6,9.2-4.9,14.2-6.7,4.9-1.8,10.1-3.1,15.5-3.7s10.9-.3,16.2,1.1c1.3.3,2.6.7,4,1.2s2.7,1.1,3.9,1.7c2.5,1.3,4.8,2.9,6.9,4.7,4.2,3.5,7.7,7.4,10.9,11.5,6.4,8.2,11.7,16.9,16.9,25.7,5.2,8.7,10.1,17.5,15.3,26.1,5.2,8.5,10.5,16.9,16.8,24.3,3.1,3.7,6.5,7.1,10.2,9.8,3.7,2.7,7.7,4.5,11.9,4.9,2.1.2,4.1,0,6.2-.5,2-.5,4.1-1.3,6-2.4,3.8-2.2,7.1-5.3,9.9-9,2.8-3.7,5.1-7.9,7.1-12.3s3.6-9,5-13.7c2.8-9.4,4.7-19.2,6.2-29,2.9-19.7,4-39.8,4.3-59.8.3-20.1-.2-40.1-1.3-60.3-.5-10.1-1-20.2-1.3-30.3-.3-10.1-.3-20.3,0-30.4,1.2-40.5,7.5-81.1,21.7-119.2,3.7-9.5,7.9-18.7,12.5-27.7,2.3-4.5,4.6-9,7-13.5,2.3-4.5,4.7-8.9,6.9-13.5,1.1-2.3,2.1-4.5,3-6.9.9-2.3,1.7-4.7,2.1-7.1.4-2.4.4-4.9-.9-6.7-1.3-1.8-3.7-2.6-6.1-3.1-2.4-.4-4.9-.6-7.4-.6s-5,.2-7.5.5c-5,.6-9.9,1.5-14.8,2.6-9.8,2.3-19.4,5.3-28.9,8.7-9.5,3.4-18.8,7.2-28,11.3s-18.3,8.5-27.2,13.2c-4.5,2.3-8.9,4.8-13.2,7.3-4.4,2.5-8.7,5.1-13,7.7-17.3,10.3-34.1,21.4-49.9,33.9-15.7,12.5-30.4,26.3-44.2,40.9l-4.3-4.1Z"/>
    </g>
    <path class="cls-27" d="m440.98,249.1s-6,6.7-5.3,26,37.3,48,75.3,54.7,61.3-2,61.3-2c0,0,3.1,102.4-2.7,148-4,31.3-16.7,56-40,50.7s-39.1-48.9-63.3-68.7c-30.1-24.5-48.8-18.8-62-15.3-13,3.4-38,19.3-38,19.3l30,10.7s32-19.3,42.7-16,34.7,22,40,33.3,40.7,76,61.3,76.7c20.7.7,37.3-22,40.7-38s8.7-97.3,8.7-120.7-3.3-53.3-2-64.7c1.3-11.3.7-54.7.7-54.7l-147.4-39.3Z"/>
    <path d="m404.98,228.1s42.9-4.6,105.3,16.7c50.5,17.2,77.9,35.4,77.9,35.4,0,0-1-34,14.7-75.2s40.4-76.7,31.4-85c-8.6-8.1-57.2,4.7-80.9,15.2-44.2,19.6-57.5,28.2-72.9,37.4-15.4,9.2-75.5,55.5-75.5,55.5Z"/>
    <g>
      <path class="cls-19" d="m448.28,234.1c17-25.2,55.6-25.3,89.7-13.8,26.2,8.8,51.5,31.1,45.2,64.7-6.9,36.6-61.9,34-84.2,28.3-41.7-10.8-74.9-43.4-50.7-79.2Z"/>
      <path d="m446.78,233.1c2.4-3.5,5.4-6.7,8.7-9.4,3.3-2.7,7-4.9,10.9-6.6,7.8-3.5,16.2-5.1,24.5-5.6,8.4-.5,16.7.1,25,1.4,8.2,1.3,16.3,3.4,24.2,6.1,7.9,2.7,15.5,6.6,22.4,11.6,6.8,5,12.9,11.2,17.3,18.7,2.2,3.7,3.9,7.7,5.1,11.9,1.2,4.2,1.8,8.5,1.9,12.8.1,4.3-.3,8.6-1.2,12.9-.9,4.3-2.6,8.6-5.1,12.3s-5.7,6.9-9.3,9.5-7.5,4.5-11.6,6.1c-8.1,3-16.6,4.4-25,4.9-8.4.4-16.8,0-25.2-1.2-4.2-.6-8.3-1.4-12.4-2.6-4.1-1.1-8.1-2.5-12-4-7.8-3.1-15.4-7-22.2-12-6.9-4.9-13.1-10.9-17.8-18.2-2.3-3.6-4.2-7.6-5.4-11.7-1.2-4.2-1.8-8.6-1.6-12.9.2-4.3,1.2-8.6,2.7-12.6,1.6-4.2,3.7-7.9,6.1-11.4Zm3.1,2.1c-4.4,6.6-7.4,14.2-7.6,22-.3,7.8,2.3,15.4,6.7,21.9,4.4,6.5,10.3,12,16.9,16.5s13.8,8.2,21.3,11c3.8,1.4,7.6,2.6,11.5,3.6,3.8,1,7.8,1.7,11.7,2.3,8,1.1,16,1.4,24,1,8-.5,15.9-1.7,23.3-4.4,7.3-2.7,14-7,18.2-13.2,2.1-3.1,3.6-6.6,4.4-10.3.8-3.8,1.3-7.7,1.2-11.6,0-3.9-.5-7.8-1.5-11.5s-2.5-7.4-4.4-10.8c-3.8-6.8-9.4-12.7-15.7-17.5-6.4-4.8-13.5-8.6-21.1-11.3s-15.5-4.8-23.5-6.2c-8-1.4-16.1-2.1-24.1-1.6s-16,2.1-23.3,5.3c-3.6,1.7-7,3.7-10,6.3-3.2,2.3-5.8,5.2-8,8.5Z"/>
    </g>
    <path class="cls-14" d="m474.78,238.6c7.1-11.6,20.2-12.1,33.8-9.8,14,2.4,27.2,10.7,26.3,24-.9,14.4-19.3,18.4-36.6,15.4-17.4-3-32-15.7-23.5-29.6Z"/>
    <path d="m427.98,209.1s-12.7,7.3-18.7,9.3-19.3,4-19.3,4l2,12.7,14-6,22-20Z"/>
    <path d="m726.28,309.1c10.5,0,14.8-3.6,17.5-8.4s8.3-16.5,8.3-16.5c0,0,5.2-7.5,13.2-15.6,6.6-6.7,19.9-14.7,17.2-20-4.2-8.2-16.2-1.7-21.3,4.1s-9,11.2-9,11.2c0,0-.2-3.5-5.3-8.9-5-5.4-13.3-.2-13.3-.2,0,0-3.6-7.1-13.7-6.8s-12.7,12.1-13.2,15.2c-.5,3.1-1.5,11.1-1.5,11.1,0,0-4.3-12.4-18.7-14.7-11.1-1.8-18.7,5.9-14.4,10.7,5,5.6,10,3,18.2,8.6,7.3,5,6.3,8.8,9.4,13,5.6,7.7,12.2,9.3,12.5,17.7s-2.3,15.7-2.3,15.7l16.4-16.2Z"/>
    <g class="cls-34">
      <path class="cls-14" d="m715.88,257.9c.2,2.4.5,4.7,1,7.1.5,2.3,1,4.6,1.9,6.8.8,2.2,2,4.2,3.5,5.8.8.8,1.7,1.5,2.7,1.9s2.1.7,3.2.8c1.1.1,2.1-.1,3-.6s1.7-1.3,2.2-2.2c1.2-1.9,1.7-4.2,2-6.5s.2-4.7,0-7-.7-4.7-1.6-6.9c1.1,2.1,1.8,4.5,2.2,6.8.4,2.4.6,4.8.4,7.2-.1,2.4-.6,4.9-1.9,7.1-.6,1.1-1.5,2.1-2.7,2.8s-2.5.9-3.8.9c-1.3-.1-2.5-.4-3.7-.9s-2.2-1.3-3.1-2.3c-1.8-1.8-2.9-4.1-3.6-6.4-1.5-4.7-1.9-9.6-1.7-14.4Z"/>
    </g>
    <g class="cls-34">
      <path class="cls-14" d="m752.08,263.9c.6,3.4.8,6.9.5,10.4-.2,1.7-.5,3.5-1,5.2-.6,1.7-1.4,3.4-2.8,4.7-1.3,1.3-3.2,2.1-5.1,2.2-.9,0-1.9-.1-2.8-.5-.9-.4-1.7-1-2.3-1.8-1.2-1.5-1.7-3.3-2.1-5-.2-.9-.2-1.7-.3-2.6,0-.9,0-1.7.1-2.6.2,1.7.5,3.4,1,5s1.2,3.2,2.2,4.4,2.5,1.8,4.1,1.6c1.6-.1,3.1-.7,4.2-1.8,1.2-1.1,2-2.5,2.6-4.1s1-3.2,1.2-4.9c.5-3.3.7-6.8.5-10.2Z"/>
    </g>
    <g class="cls-35">
      <path class="cls-14" d="m706.08,276.6c1.5-.9,3.3-1,5-.9,1.7.2,3.4.7,5,1.4s3.1,1.6,4.5,2.5l2.1,1.5c.7.6,1.4,1.2,1.9,1.9,2.4,2.7,3.4,6.4,3.5,9.8.1,3.5-.7,6.9-2.1,10,.8-3.3,1.1-6.7.8-9.9-.3-3.3-1.4-6.4-3.5-8.8-.5-.6-1.1-1.2-1.7-1.7l-2-1.5c-1.4-.9-2.7-1.9-4.2-2.6-1.5-.8-3-1.4-4.6-1.7-1.4-.4-3.1-.5-4.7,0Z"/>
    </g>
  </g>
  <g id="Ebene_19" data-name="Ebene 19">
    <path class="cls-14" d="m101.28,196.2l70.2-15.4s.7,153.9-3.5,174-23.8,38.5-42.1,36.6-29.7-18.3-30.3-23.4-4.4-24.6-4.4-24.6l20.2-3.8s2.8,21.7,15.9,21.9c13.1.2,20.1-14.3,20.1-26.3s.1-126.4.1-126.4l-44.3,10.2-1.9-22.8Z"/>
    <path class="cls-14" d="m207.38,164.6l35.6-6.8s-2.2,159.7-.9,172.3,8.1,19.9,18.9,17.2,19.6-5.8,21.5-39.9,1.3-157.3,1.3-157.3l36.2-6.8s4.2,180.5-6.5,204.5-29.7,42.3-49.9,44.2-46.1-7.6-54.3-28.4c-8.2-20.8-5.1-73.9-5.1-73.9l3.2-125.1Z"/>
    <path class="cls-14" d="m436.48,192.8s-3-28.8-15.7-29.4-24.7,9.2-27.8,16.9c-3.1,7.7-3.7,61.4-4.4,79.1-.7,17.7,2.5,46.7,3.8,51.8s5.7,13.3,5.7,13.3v34.1s-17.7-12.6-22.7-21.5-10.1-48-10.7-61.9c-.6-13.9-1.9-72.6-.6-83.4,1.3-10.7,11.4-36.6,18.3-41.7s22.1-12.6,33.5-12.6,11.3-1.6,22.7,5.8c11.4,7.4,20.9,44.1,20.9,44.1l-23,5.4Z"/>
    <path class="cls-14" d="m345.08,146.3l20.9,11-.1,31.3s-1.9,58.7-1.3,72,4.4,63.2,4.4,63.2c0,0,1.5,34.2,9,37s9.5-8,9.5-8l17,8.5s-3.2,45.2-25.3,38.3c-22.1-6.9-28.4-41.1-29.7-50.5-1.3-9.5-4.4-202.8-4.4-202.8Z"/>
    <path class="cls-14" d="m263.98,187.8l18,9s1.8,125.7-3.9,136.5c-5.7,10.7-17.1,14-17.1,14l3-159.5Z"/>
    <path class="cls-14" d="m222.48,380.3s5.1,32.5,23.4,35.7,23.6-16.7,23.6-16.7c0,0-17.9-.4-24.2-3.5-6.3-3.2-22.8-15.5-22.8-15.5Z"/>
    <polygon class="cls-16" points="277.98 433.1 275.98 393.1 311.98 373.8 324.68 339.1 331.98 341.1 340.98 384.8 340.68 427.8 329.98 425.1 277.98 433.1"/>
    <path class="cls-18" d="m419.48,334.3s-15-.5-19.5-7.5-11.5-37.5-10.5-70-3-67,3.5-76.5,14-14,21-14.5,13,.5,14,3,3.5,7,3.5,7c0,0-14.5-3.5-19.5.5s-11,13-11,25.5,2,95.5,2.5,104.5,16,28,16,28Z"/>
    <path class="cls-18" d="m171.48,180.8l12,4s-.5,151.5-3,168-14.5,41.5-33.5,43.5-25-4-25-4c0,0,9.5,1,21.5-5.5s23-20,24.5-32,2-108,2-108l1.5-66Z"/>
    <polygon class="cls-18" points="105.98 219.8 117.98 223.8 147.48 218.3 147.48 208.8 105.98 219.8"/>
    <path class="cls-18" d="m242.98,157.8l11.5,3.5s-2,158-1.5,167.5,4.5,20,4.5,20c0,0-7.5-.5-10.5-4s-8-17-7-23.5,3-163.5,3-163.5Z"/>
    <path class="cls-15" d="m319.98,143.3l10,5,14-4,6,202.5s6.5,31,13.5,40.5,20,13.5,20,13.5c0,0-19,3-21.5,3s-16.5-8-21-19-11.5-55.5-11.5-55.5c0,0-6,34.5-17,47.5s-26.5,20-37.5,21.5-21.5.5-24,0-15-8.5-15-8.5c0,0,21,3.5,31.5,1s36.5-17,43.5-32.5,10-96,9.5-110.5-.5-104.5-.5-104.5Z"/>
    <path class="cls-18" d="m436.48,192.8l14.5,8,21.5-4.5s-2.5-33-12-41-22-12-22-12c0,0,13,12,15,20.5s6,26.5,6,26.5l-23,2.5Z"/>
    <path class="cls-18" d="m466.48,264.8s7,64-12.5,79.5-30.5,15.5-37,16-13.5-1-13.5-1c0,0,4.5,6.5,18,8s31-3,43-15.5,15-43.5,15.5-51-2.5-31.5-2.5-31.5l-11-4.5Z"/>
    <path class="cls-18" d="m369.98,328.3s2,30.5,8,32.5,9.5-8,9.5-8l-17.5-24.5Z"/>
    <path class="cls-18" d="m253.98,191.3l10-3.5-3,159.5s-8.5-6-8-12.5,1-143.5,1-143.5Z"/>
    <path class="cls-18" d="m206.48,361.8s2,35,10,45.5,23,12.5,26.5,12,9-1.5,9-1.5c0,0-21.5-6.5-23.5-15s-6-22.5-6-22.5l-16-18.5Z"/>
    <polygon class="cls-20" points="83.38 641.8 83.38 516.5 183.98 503.1 183.98 483.8 175.98 479.1 175.38 471.1 183.38 468.5 173.98 463.1 175.38 455.1 182.68 453.1 181.38 447.1 334.68 425.8 427.98 462.5 426.68 469.1 433.38 471.8 432.68 479.8 426.68 481.1 425.38 484.5 433.98 485.8 432.68 493.8 425.38 497.1 426.68 501.1 516.68 533.8 521.38 542.5 529.38 549.8 530.68 564.5 525.98 565.1 531.98 641.1 83.38 641.8"/>
    <path class="cls-23" d="m206.98,358.3s.5,28.5,6.5,42,17.5,19.5,27.5,18.5,16.5-2,21.5-6.5,7-13,7-13c0,0-17-.5-22-2.5s-21.5-12.5-21.5-12.5l-19-26Z"/>
    <path class="cls-25" d="m253.98,191.3l10-3.5,18,9s1,124.5-2.5,134-12,15-15.5,16.5-12-4.5-11-10.5,1-145.5,1-145.5Z"/>
    <path class="cls-25" d="m329.98,148.3l14-4,22,13v29s-2,36-1.5,59,2,73,8,83,8,21,15,24.5l17,8.5s-5,37.5-18,39-22.5,4.5-24.5,3.5-24-16-24.5-25.5-7.5-38.5-7-55-.5-175-.5-175Z"/>
    <polyline class="cls-14" points="429.38 271.8 444.28 296.5 467.98 303.8 465.98 265.1 429.38 271.8"/>
    <g>
      <polygon class="cls-17" points="531.58 539.1 543.58 540.4 540.78 552.1 536.38 551 531.58 539.1"/>
      <path d="m530.58,538.4c2.1.1,4.3.1,6.5.3,2.2.1,4.4.3,6.6.5l1.3.1-.3,1.3-2.8,11.8-.2,1-1.2-.2-4.5-.7-.8-.1-.3-.8c-.8-2.2-1.6-4.5-2.3-6.7l-2-6.5Zm1.9,1.4c1,1.9,2,3.7,2.9,5.4.9,1.7,1.8,3.4,2.6,5.1l-1.1-1,4.2,1.6-1.4.9,2.8-11.8,1,1.4c-1.8-.2-3.6-.4-5.4-.7-1.9-.2-3.7-.6-5.6-.9Z"/>
    </g>
    <g>
      <polygon class="cls-17" points="538.68 563.9 530.88 572.4 537.68 585.1 540.88 581.9 540.88 576.9 546.68 583.6 548.88 581.1 538.68 563.9"/>
      <path d="m538.58,564.9c-2.3,2.9-4.4,5.7-6.8,8.3l.2-1.3,6.6,12.8-1.6-.2,3.2-3.2-.3.7v-8l1.8,2.3,5.4,7.1h-.8l1.9-2.8-.1,1.2c-3.3-5.7-6.4-11.2-9.5-16.9Zm.2-2c3.7,5.8,7.5,11.7,11,17.7l.4.7-.5.5-2.6,2.2-.4.3-.3-.4-6.1-6.4,1.8-.6v5.4l-.3.3-3.2,3.2-.9.9-.6-1.2-6.9-12.7-.4-.7.6-.6c2.5-2.9,5.5-5.9,8.4-8.6Z"/>
    </g>
    <g>
      <polygon class="cls-17" points="539.18 602.4 536.78 608.1 543.78 609.9 539.18 602.4"/>
      <path d="m539.38,604.3c-.1.7-.3,1.3-.7,1.9-.3.6-.9,1.3-1.5,2.1l-.3-.7,7.1,1.3-1.1,1.5c-.8-1-1.5-2-2.1-3-.5-.9-1-2-1.4-3.1Zm-.3-3.9c1,1.4,2.1,2.9,3.1,4.4.9,1.5,1.7,3.1,2.4,4.5l1,2.2-2.1-.7-6.9-2.2-.5-.1.1-.6c.2-1.1.5-2.4,1-3.7.6-1.3,1.2-2.5,1.9-3.8Z"/>
    </g>
    <path class="cls-14" d="m442.28,282.5l2,31.3,19.3,10s4-15.3,4-27.3-2-22-2-22l-23.3,8Z"/>
    <polygon class="cls-23" points="334.68 424.1 334.68 431.8 337.28 432.1 336.98 439.5 334.98 444.5 335.28 448.1 337.98 448.5 337.28 456.5 335.68 462.1 336.28 482.5 365.28 479.5 369.28 640.8 531.98 641.1 525.68 561.1 529.28 556.5 529.98 547.1 522.98 546.5 523.28 540.1 515.28 540.8 515.68 533.5 426.68 501.1 426.68 494.5 430.98 491.8 431.68 485.1 425.98 482.8 426.28 478.5 432.28 478.1 432.28 470.8 426.68 467.8 427.98 462.5 334.68 424.1"/>
    <path class="cls-18" d="m122.98,341.1s1.3,9.7,2,13,2.3,7.3,2.3,7.3c0,0-4.3,1-9.3-4.3s-4.7-17-4.7-17l9.7,1Z"/>
    <polygon class="cls-18" points="423.98 298.8 434.98 304.5 442.98 303.5 444.28 296.5 423.98 298.8"/>
    <path class="cls-18" d="m341.68,411.5l.3,7.7s8,3.7,17.3,1,13.3-6.3,15.7-9c2.3-2.7,5-9.3,5-9.3l-17,1.7s-6.3,6.3-12.7,7.3c-6.3.9-8.6.6-8.6.6Z"/>
    <path class="cls-25" d="m340.68,382.8l1.3,36.3s9,3,17.3,1,16.3-9.3,18.3-12.3,2.3-6,2.3-6l-18,2s-9.7-5.3-12.7-8.3-8.5-12.7-8.5-12.7Z"/>
    <polygon class="cls-22" points="102.28 533.8 144.28 528.5 144.28 583.5 102.98 588.5 102.28 533.8"/>
    <polygon class="cls-22" points="167.28 524.8 209.28 519.1 209.68 575.8 167.28 581.8 167.28 524.8"/>
    <polygon class="cls-22" points="235.98 572.8 235.28 516.1 276.98 510.8 277.28 568.5 235.98 572.8"/>
    <polygon class="cls-22" points="304.98 564.1 348.68 558.8 347.68 502.1 304.68 507.8 304.98 564.1"/>
    <polygon class="cls-22" points="302.68 592.5 347.68 587.1 349.28 641.5 303.98 641.8 302.68 592.5"/>
    <polygon class="cls-22" points="235.68 599.1 276.68 595.1 277.68 641.8 235.98 641.5 235.68 599.1"/>
    <polygon class="cls-22" points="208.28 602.1 209.98 641.1 167.28 641.8 168.28 606.5 208.28 602.1"/>
    <polygon class="cls-22" points="102.68 615.1 140.28 609.8 140.98 641.1 101.68 641.8 102.68 615.1"/>
    <polygon class="cls-24" points="94.98 589.5 94.98 527.8 144.28 521.1 144.28 528.5 103.68 534.1 102.98 588.5 94.98 589.5"/>
    <polygon class="cls-26" points="177.28 479.5 184.98 481.5 335.98 460.8 425.68 493.8 430.98 491.8 337.28 456.5 177.28 479.5"/>
    <polygon class="cls-26" points="176.28 462.8 336.98 439.5 432.28 478.1 426.28 478.5 334.98 444.5 182.98 465.1 176.28 462.8"/>
    <path class="cls-24" d="m157.68,581.8l.7-62.3,52-6.7s-.3,6-1,6.3-42,5.7-42,5.7l.3,56-10,1Z"/>
    <polygon class="cls-24" points="294.28 565.1 292.98 502.1 347.68 494.5 347.68 502.1 304.68 507.8 304.98 564.1 294.28 565.1"/>
    <polygon class="cls-24" points="293.28 586.1 347.98 580.8 347.68 587.1 302.68 592.5 303.28 640.5 294.28 641.1 293.28 586.1"/>
    <polygon class="cls-24" points="277.28 588.1 276.68 595.1 235.68 599.1 235.98 641.5 224.98 640.8 225.28 594.1 277.28 588.1"/>
    <polygon class="cls-24" points="225.28 573.8 224.68 511.1 277.98 504.1 276.98 510.8 235.28 516.1 235.98 574.1 225.28 573.8"/>
    <polygon class="cls-24" points="209.68 595.1 208.28 602.1 168.28 606.5 167.28 641.8 156.98 642.1 157.68 601.8 209.68 595.1"/>
    <polygon class="cls-24" points="94.68 609.1 140.98 604.1 140.28 609.8 102.68 615.1 101.68 641.8 92.98 641.1 94.68 609.1"/>
    <polygon class="cls-26" points="379.28 507.5 391.68 513.1 408.98 508.1 378.68 496.5 379.28 507.5"/>
    <polygon class="cls-26" points="418.98 511.8 418.68 524.5 429.28 528.8 444.68 522.5 418.98 511.8"/>
    <polygon class="cls-26" points="455.68 525.1 480.98 535.1 466.68 541.8 455.98 537.8 455.68 525.1"/>
    <polygon class="cls-26" points="455.68 608.1 455.98 616.1 471.28 621.1 482.98 618.5 455.68 608.1"/>
    <polygon class="cls-26" points="493.68 622.1 493.98 628.1 505.68 631.1 515.68 629.1 493.68 622.1"/>
    <polygon class="cls-26" points="420.68 596.1 419.98 602.8 434.28 607.5 446.98 605.8 420.68 596.1"/>
    <polygon class="cls-26" points="380.68 581.1 380.98 589.1 396.68 594.5 409.68 591.8 380.68 581.1"/>
    <polygon class="cls-26" points="491.98 542.1 491.68 550.1 500.98 554.8 508.98 553.5 512.98 550.5 491.98 542.1"/>
    <polygon class="cls-24" points="379.28 507.5 391.68 513.1 392.98 565.8 378.98 561.1 379.28 507.5"/>
    <polygon class="cls-24" points="380.98 589.1 396.68 594.5 397.28 641.1 381.68 641.1 380.98 589.1"/>
    <polygon class="cls-24" points="419.98 602.8 434.28 607.5 435.28 641.1 420.68 640.8 419.98 602.8"/>
    <polygon class="cls-24" points="455.98 616.1 471.28 621.1 471.98 640.8 456.98 640.8 455.98 617.5 455.98 616.1"/>
    <polygon class="cls-24" points="493.98 628.1 505.68 631.1 506.28 641.1 493.98 640.8 493.98 628.1"/>
    <polygon class="cls-24" points="491.68 550.1 500.98 554.8 508.98 553.5 500.28 559.1 500.98 604.5 492.28 601.5 491.68 550.1"/>
    <polygon class="cls-24" points="455.98 537.8 466.68 541.8 468.28 592.5 455.68 587.8 455.98 537.8"/>
    <polygon class="cls-24" points="429.28 528.8 418.68 524.5 418.28 575.1 430.28 579.1 429.28 528.8"/>
    <polygon class="cls-24" points="94.98 527.8 102.28 533.8 144.28 528.5 144.28 521.1 94.98 527.8"/>
    <polygon class="cls-24" points="158.28 519.5 167.28 524.8 209.28 519.1 210.28 512.8 158.28 519.5"/>
    <polygon class="cls-24" points="224.68 511.1 235.28 516.1 276.98 510.8 277.98 504.1 224.68 511.1"/>
    <polygon class="cls-24" points="292.98 502.1 304.68 507.8 347.68 502.1 347.68 494.5 292.98 502.1"/>
    <polygon class="cls-24" points="293.28 586.1 302.68 592.5 347.68 587.1 347.98 580.8 293.28 586.1"/>
    <polygon class="cls-24" points="276.28 588.5 225.28 594.1 235.68 599.1 276.68 595.1 276.28 588.5"/>
    <polygon class="cls-24" points="157.68 601.8 168.28 606.5 209.68 601.8 209.68 595.1 157.68 601.8"/>
    <polygon class="cls-24" points="139.98 603.8 94.68 609.1 102.68 615.1 140.28 609.8 139.98 603.8"/>
    <polygon class="cls-21" points="184.98 481.5 185.28 484.1 335.68 464.8 335.68 462.1 184.98 481.5"/>
    <polygon class="cls-21" points="182.98 465.1 183.38 468.5 335.28 448.1 334.98 444.5 182.98 465.1"/>
    <polygon class="cls-26" points="501.48 570.6 513.48 563.3 512.78 560.3 500.48 565 501.48 570.6"/>
    <polygon class="cls-26" points="513.18 582.6 508.48 583.8 509.48 587.6 514.78 592.6 513.18 582.6"/>
    <polygon class="cls-26" points="512.18 556.3 521.78 550 521.98 557 525.78 562 518.98 565 512.18 556.3"/>
    <polygon class="cls-26" points="504.18 539 508.18 545 510.18 539.6 504.18 539"/>
    <polygon class="cls-26" points="533.98 545 541.78 548 540.78 552.1 536.38 551 533.98 545"/>
    <polygon class="cls-26" points="532.98 575.3 539.98 579.3 537.78 583.8 532.98 575.3"/>
  </g>
  <g id="Ebene_17" data-name="Ebene 17">
    <path d="m101.28,194.1c23.2-5.5,46.5-10.8,69.7-16l1.9-.4v1.9h0l-1.1,75.3c-.3,25.1-.6,50.2-.7,75.3v9.4l-.2,4.8c0,.8-.1,1.6-.2,2.4l-.3,2.4c-.9,6.4-2.7,12.7-5.6,18.5s-6.9,11.1-11.9,15.3c-5,4.2-10.9,7.4-17.2,9.1-3.2.7-6.5,1.2-9.8,1.1-3.3,0-6.6-.5-9.8-1.6-3.2-1.1-6.1-2.8-8.7-4.9s-4.8-4.6-6.5-7.4c-3.6-5.5-5.9-11.6-7.4-17.8-.8-3.1-1.3-6.3-1.7-9.4-.4-3.2-.7-6.3-.7-9.6v-1.2l1.2-.2,20.7-3.3,1.6-.3v1.7h0c-.2,3.8.2,7.8,1.2,11.4s2.9,7,6.1,8.5c1.6.7,3.3,1,5.1.9.5,0,.9-.1,1.4-.2.4-.1.9-.1,1.3-.2.9-.3,1.8-.5,2.6-.9.4-.2.8-.4,1.2-.6l1.2-.8c.2-.1.4-.2.6-.4l.5-.4,1.1-.9c1.3-1.3,2.6-2.7,3.5-4.4,2-3.2,3.5-6.8,4.4-10.6s1.3-7.6,1.3-11.5l.1-24,.4-95.8h0l2,1.6-45.1,9.4h0l-1.6.3-.1-1.7c-.4-8-.5-16.5-.5-24.8Zm2.8,2.1c.2,7.6.4,15.2.3,22.9l-1.7-1.3h0l44.9-9.9,2-.4v2.1h0l-.7,95.8-.2,24c0,8.2-1.7,16.6-6.2,23.6-1.1,1.8-2.5,3.4-4,4.9l-1.2,1-.6.5c-.2.2-.4.3-.7.4l-1.4.9c-.5.3-1,.5-1.5.7-1,.5-2,.7-3.1,1.1-.5.1-1.1.2-1.6.3-.5.1-1.1.2-1.6.2-2.2.1-4.5-.2-6.5-1.2s-3.7-2.6-4.9-4.5c-1.2-1.8-2-3.8-2.6-5.8s-.9-4.1-1.1-6.1c-.2-2.1-.3-4.1-.1-6.2h0l1.6,1.4-20.6,3.2,1.2-1.4c.2,6.1,1.2,12.3,2.7,18.2,1.5,5.9,3.8,11.7,7.1,16.7,3.3,5,8,9,13.6,10.9,2.8,1,5.7,1.4,8.7,1.4,3,.1,6-.4,8.9-1.1,5.8-1.5,11.2-4.4,15.8-8.3,4.6-3.9,8.3-8.8,11-14.3,2.7-5.4,4.5-11.3,5.3-17.4l.3-2.3c.1-.8.2-1.5.2-2.3l.2-4.6v-9.4c.1-25.1.4-50.3.8-75.4.4-25.1.9-50.2,1.4-75.4h0l1.8,1.5c-22.5,5.6-44.9,10.6-67.5,15.6Z"/>
    <path d="m171.88,178.1l12,5.2.7.3v.8h0l-1.8,129.1-.2,16.1-.1,8.1-.1,4v2c0,.7-.1,1.4-.1,2l-.3,4.1c-.1,1.4-.3,2.7-.5,4.1-.3,2.7-.9,5.4-1.5,8.1-1.4,5.3-3.3,10.5-5.9,15.3-2.7,4.8-6.2,9.2-10.5,12.8-4.3,3.6-9.4,6.2-14.9,7.5l-1,.2-1.1.1-2.1.3c-1.4.1-2.8.1-4.2.1-2.8-.1-5.5-.4-8.2-.9-5.4-1-10.6-2.6-15.8-4.8l1.2-2.7c4.8,2,9.9,3.6,15.1,4.6,2.6.5,5.2.8,7.8.9,1.3.1,2.6,0,3.9-.1l1.9-.2.9-.1.9-.2c5-1.1,9.7-3.6,13.7-6.9s7.3-7.4,9.8-12c2.6-4.6,4.4-9.5,5.7-14.6.5-2.6,1.2-5.1,1.4-7.8.2-1.3.4-2.6.5-3.9l.3-4c0-.7.1-1.3.1-2v-2l.1-4,.1-8.1.3-16.1,2.2-129h0l.7,1.1-12.3-4.5,1.3-2.9Z"/>
    <line class="cls-9" x1="276.78" y1="398.3" x2="277.48" y2="432.6"/>
    <line class="cls-1" x1="340.98" y1="384.3" x2="340.48" y2="427.3"/>
    <line class="cls-5" x1="177.68" y1="204.1" x2="205.98" y2="197.8"/>
    <line class="cls-5" x1="176.18" y1="296.1" x2="202.48" y2="292.1"/>
    <line class="cls-5" x1="171.38" y1="364.5" x2="208.68" y2="359.1"/>
    <path d="m206.58,163.9c6.1-1.4,12-2.8,18.1-4.3l9-2.2,4.5-1.1,2.3-.5,1.1-.3.6-.1c.2-.1.4,0,.5-.6l2.4,2-1.1,102.9-.6,51.4-.1,12.9c0,2.2,0,4.2.2,6.2s.6,4,1.1,6c1.1,3.8,3.3,7.2,6.7,8.8,3.3,1.7,7.5,1.5,11.4.6s7.4-2.9,10.1-5.8c2.7-2.9,4.5-6.6,5.5-10.5.5-2,.9-4,1-6,.1-1,.1-2,.1-3.1v-3.2l.2-12.9.8-51.4,1.7-102.9h0v-1.3l1.2-.2,36.7-7.2h0l1.8-.4v1.8l-.6,135.2-.3,33.8c-.1,2.8-.1,5.6-.2,8.5s-.4,5.7-.7,8.6c-.8,5.7-2,11.3-3.8,16.7s-4.1,10.7-7,15.7c-1.4,2.5-3,4.9-4.7,7.2-1.7,2.3-3.5,4.5-5.6,6.6-4,4.2-8.5,7.8-13.5,10.8-5,2.9-10.4,5.1-16.1,6.4-5.6,1.3-11.4,1.8-17.2,1.5-2.9-.1-5.8-.5-8.6-1.1s-5.6-1.4-8.3-2.5c-5.4-2.2-10.4-5.3-14.6-9.3-4.3-3.9-7.8-8.6-10.6-13.6-5.6-10.1-8.3-21.6-8.7-33-.1-2.9,0-5.7,0-8.5l.1-8.5.4-16.9c.6-22.5,1.3-45.1,2.1-67.6l1.2-33.8.6-16.9.3-8.4.2-4.2.1-2.1v-.5c0-.2,0-.5.1-.8-.1-.9.1-1.4.2-1.9Zm2.2,1.8c.1.2.2.3.3.5v.7l-.1,2.1-.2,4.2-.3,8.4-.6,16.9-1.1,33.8c-.7,22.5-1.5,45-2.1,67.6l-.4,16.9c-.1,5.6-.3,11.3-.1,16.8.4,11,3,22.1,8.4,31.7,2.7,4.8,6,9.2,10.1,12.9,4,3.7,8.7,6.7,13.8,8.7,2.5,1,5.2,1.8,7.8,2.4,2.7.5,5.4.9,8.1,1,5.5.3,11-.2,16.4-1.4,5.4-1.2,10.5-3.3,15.2-6.1,4.7-2.8,9.1-6.2,12.8-10.3,1.9-2,3.7-4.1,5.3-6.3,1.6-2.2,3.2-4.5,4.5-6.9,2.8-4.8,5-9.9,6.8-15.1,1.8-5.3,2.9-10.7,3.7-16.2.3-2.8.6-5.5.7-8.3s.1-5.6.2-8.4l.3-33.8.6-135.2,1.8,1.5h0l-36.7,7.5,1.3-1.5h0l-1.6,102.9-.7,51.4-.1,12.9v3.2c0,1.1,0,2.2-.1,3.4-.2,2.2-.5,4.5-1.1,6.6-1.1,4.4-3.2,8.6-6.3,12-1.6,1.7-3.4,3.2-5.4,4.4-2,1.1-4.2,2-6.4,2.5s-4.5.8-6.8.7c-2.3,0-4.7-.5-6.9-1.6s-4.1-2.7-5.5-4.7c-1.4-1.9-2.4-4.1-3-6.3-.7-2.2-1.1-4.4-1.3-6.7-.2-2.2-.2-4.5-.2-6.6l.1-12.9.5-51.4.5-102.8,2.4,2c-.3-.5-.5-.3-.6-.3l-.5.1-1.1.2-2.2.5-4.3.9-8.7,1.8c-5.7,1.2-11.5,2.4-17.2,3.7Z"/>
    <path d="m385.78,401.8c-6,1.1-12,2.1-18.1,2.8-1.4.2-3.3.4-4.9.1-1.7-.2-3.3-.8-4.7-1.4-3-1.3-5.6-3.3-7.9-5.4-4.6-4.3-8.3-9.5-11.2-14.9-2.9-5.5-5.1-11.3-6.6-17.3s-2.4-12.1-2.7-18.3c-.2-3.1-.1-6.2-.2-9.2v-9.1l-.1-36.4-.4-145.9h0v-1.3l1.2-.2,15.1-2.3.3,1.6-14.9,3.7,1.3-1.5h0l.4,145.8.1,36.4v9.1c0,3.1,0,6.1.1,9,.3,6,1.2,11.9,2.6,17.7,1.5,5.8,3.6,11.4,6.3,16.7,2.8,5.2,6.2,10.2,10.5,14.1,2.1,2,4.5,3.7,7.1,4.9,1.3.6,2.6,1,3.9,1.2,1.4.2,2.6.1,4.1-.1,6-.7,12-1.7,17.9-2.8l.8,3Z"/>
    <path class="cls-3" d="m386.98,352.8c.5,3.5-3.5,9-7.5,8s-8.5-7.5-9.5-22.5-4.5-182-4.5-182l-20-11.5s3,171,3.5,190.5,7.5,55,30,64c19.2,7.7,25-28,25-39.5"/>
    <line class="cls-5" x1="325.98" y1="181.8" x2="368.98" y2="175.3"/>
    <line class="cls-5" x1="326.38" y1="275.8" x2="364.38" y2="269.8"/>
    <line class="cls-5" x1="321.48" y1="345.3" x2="380.48" y2="338.3"/>
    <g>
      <path class="cls-14" d="m435.38,192.3s0-31.8-23.3-27c-16,3.3-21.6,17.9-22.3,34.1-.7,16.2-1,76.8,1.4,101.7,2,21.6,13.3,35,33.5,31.8,23.3-3.7,18.9-37.9,18.9-37.9l-22,3.4-1.4-26,45.3-7.8s18.3,89.2-40.2,95.6c-52,5.7-57.1-40.6-59.1-64.2-.9-11-3.6-77.8-1.4-101.4,2.7-29.1,16.8-50.1,44-56.1,46.3-10.1,50.7,49.7,50.7,49.7l-24.1,4.1Z"/>
      <path d="m433.98,193.8c-.3-.3-.6-.8-.7-1.2-.1-.6,0-.3,0-.4v-2c0-.7-.1-1.4-.2-2.2-.1-1.4-.4-2.9-.6-4.3-.5-2.8-1.4-5.6-2.6-8.1-.6-1.3-1.3-2.5-2.1-3.5-.8-1.1-1.7-2.1-2.8-2.9-1-.8-2.2-1.5-3.4-1.9-.6-.3-1.3-.4-1.9-.5-.7-.1-1.3-.2-2-.3-2.7-.2-5.5.4-8.2,1.2-2.7.9-5.2,2.2-7.3,4-2.1,1.8-4,3.9-5.4,6.4s-2.5,5.1-3.3,7.9-1.3,5.7-1.6,8.5c-.4,2.9-.4,5.8-.5,8.8-.2,6-.2,12-.3,17.9-.1,12-.1,24,.1,35.9.2,12,.4,23.9,1.2,35.9.2,3,.4,6,.7,8.9.2,1.4.3,2.9.6,4.3l.4,2.1.5,2.1c1.4,5.6,4,10.9,8,14.8,2,2,4.4,3.4,6.9,4.5l2,.7c.7.2,1.4.3,2,.5l1,.2,1,.1c.7.1,1.4.1,2.1.2h3.2l1.1-.1,2.1-.2c.7-.1,1.4-.3,2-.4,2.7-.6,5.1-1.9,7.2-3.6,2.1-1.7,3.7-4,4.9-6.5,1.3-2.5,2.1-5.2,2.7-8s.9-5.7,1-8.6c.1-2.9,0-5.9-.3-8.6h0l2.3,1.7-22,3.1h0l-2,.3-.1-1.9-.8-26h0v-1.1l1.1-.2,45.3-7.7h0l1.1-.2.2,1.1c1.8,9.9,2.7,19.9,2.7,30s-.9,20.1-3.5,29.9c-1.3,4.9-3.1,9.7-5.6,14.1-2.4,4.5-5.5,8.6-9.3,12.1-3.7,3.5-8.3,6.2-13.1,8l-1.8.7c-.6.2-1.2.4-1.8.5-1.2.3-2.5.7-3.7,1-2.5.4-5,.9-7.6,1-5,.4-10.1.4-15.2-.3-5-.7-10-2.2-14.6-4.6s-8.7-5.6-12.1-9.5-6-8.3-8.1-12.9c-4.2-9.3-6.2-19.3-7.4-29.3-.6-5-1-10-1.3-15s-.5-10-.7-15c-.8-19.9-1.3-39.9-1.2-59.8,0-5,.2-10,.4-15,0-1.3.2-2.5.2-3.8l.1-1.9.2-1.9.5-3.8.7-3.7c1.8-9.9,5.5-19.7,11.6-28,3.1-4.1,6.8-7.8,10.9-10.8,4.1-3.1,8.8-5.4,13.6-7.1,4.8-1.8,9.8-2.9,15-3.3,5.1-.4,10.4.1,15.4,1.8s9.4,4.8,13.1,8.4c3.7,3.7,6.6,8.1,8.9,12.6,2.3,4.6,4.1,9.4,5.5,14.3s2.4,9.8,2.9,15h0l.2,1.8-1.8.3c-4.3.7-8.6,1.4-12.9,2-4.3.5-8.6,1-12.8,1.5Zm2.7-3.1c3.8-.8,7.5-1.7,11.2-2.4,3.7-.8,7.4-1.4,11.1-2.1l-1.7,2.1h0c-.4-4.7-1.3-9.6-2.6-14.3-1.2-4.7-2.9-9.3-5-13.6-2.2-4.3-4.8-8.4-8.2-11.8-3.3-3.4-7.3-6.1-11.7-7.7-4.4-1.6-9.3-2.1-14-1.7-4.8.3-9.6,1.5-14.1,3.1-9.2,3.1-17.2,9.1-23,16.8-5.7,7.8-9.3,17.1-11.1,26.7-1.9,9.6-1.9,19.6-2.1,29.5-.2,19.9.3,39.8,1,59.7.2,5,.4,9.9.7,14.9.2,5,.7,9.9,1.2,14.8.6,4.9,1.4,9.8,2.5,14.6s2.6,9.5,4.6,13.9,4.5,8.6,7.7,12.3c3.2,3.6,7,6.7,11.2,8.9,4.3,2.3,9,3.7,13.8,4.4,4.8.7,9.7.7,14.6.3,2.5-.1,4.8-.6,7.2-1,1.2-.3,2.3-.6,3.5-.9.6-.2,1.2-.3,1.7-.5l1.7-.7c4.5-1.7,8.8-4.2,12.3-7.5,7.1-6.6,11.7-15.6,14.2-25,2.6-9.5,3.5-19.4,3.5-29.3s-.9-19.8-2.6-29.5l1.3.9h0l-45.3,7.8,1-1.3h0l1.9,26-2.1-1.7h0l21.9-3.6,2-.3.3,2.1h0c.3,3.2.4,6.2.3,9.3s-.5,6.2-1.1,9.2c-.7,3.1-1.6,6.1-3.1,9-1.4,2.9-3.4,5.6-5.9,7.7-2.5,2.1-5.6,3.6-8.7,4.4-.8.1-1.6.4-2.4.5l-2.3.3-1.2.1h-3.6c-.8-.1-1.6-.2-2.4-.2l-1.2-.1-1.2-.3c-.8-.2-1.6-.3-2.3-.6l-2.3-.8c-3-1.3-5.8-3-8-5.3-4.6-4.6-7.4-10.5-8.9-16.4l-.6-2.3-.4-2.3c-.3-1.5-.5-3-.7-4.6-.3-3-.5-6-.7-9-.7-12-.9-24-1.1-36-.1-12-.1-24,0-36,.1-6,.1-12,.3-18,.1-6,.6-12.2,2.3-18.2.9-3,2-5.9,3.6-8.7,1.6-2.7,3.7-5.2,6.1-7.3,2.5-2,5.3-3.6,8.4-4.6,3-.9,6.2-1.6,9.5-1.4.8,0,1.6.2,2.5.3.8.2,1.6.4,2.4.7,1.6.5,3.1,1.4,4.4,2.4s2.5,2.2,3.5,3.5,1.8,2.7,2.6,4.1c.7,1.4,1.3,2.9,1.8,4.4s.9,3,1.3,4.5c.3,1.5.6,3.1.8,4.6.1.8.2,1.5.3,2.3l.1,1.2v1.1c0-.1,0,.3,0-.3-.1-.4-.4-.8-.7-1.1Z"/>
    </g>
    <path d="m229.18,385.3c5.4,3.2,11,6.2,16.8,8.6,2.9,1.2,5.8,2.3,8.8,2.9s6.1.8,9.2.8,6.2-.2,9.3-.6,6.2-1,9.1-1.9c3-.8,5.9-2,8.8-3.2l2.1-1,1-.5,1-.6,2-1.2c.7-.4,1.3-.9,1.9-1.3s1.3-.8,1.9-1.3l1.8-1.4c1.3-.9,2.3-2,3.5-3,2.2-2.2,4.2-4.5,6-7.1,3.7-5,6.7-10.5,9.3-16.3,1.3-2.9,2.4-5.8,3.4-8.7,1-2.9,1.9-6,2.3-8.9.6-6.3,1.1-12.6,1.5-18.9l3,.2c-.4,6.4-.9,12.7-1.5,19.1-.5,3.4-1.5,6.4-2.5,9.5-1,3.1-2.2,6-3.6,9-2.6,5.9-5.8,11.5-9.6,16.7-1.9,2.6-4.1,5.1-6.4,7.4-1.2,1.1-2.4,2.2-3.7,3.2l-1.9,1.5c-.6.5-1.3.9-2,1.4-.7.4-1.3.9-2,1.3l-2.1,1.2-1.1.6-1.1.5-2.2,1.1c-3,1.3-6,2.5-9.1,3.3-3.1.9-6.3,1.5-9.5,1.9s-6.4.6-9.7.6c-3.2-.1-6.4-.2-9.7-.9-3.2-.7-6.3-1.8-9.3-3.1-5.9-2.5-11.6-5.5-17.1-8.9l1.4-2Z"/>
    <path class="cls-3" d="m242.98,156.8l11,4s-1,163.5-1,172.5,5.5,15.5,5.5,15.5"/>
    <polygon points="103.38 217.9 117.38 222.9 116.78 222.8 147.78 216.1 148.28 218.5 117.18 224.8 116.98 224.8 116.68 224.7 102.58 220.3 103.38 217.9"/>
    <polygon points="181.98 502 182.28 481.8 183.68 483.7 174.88 480.7 173.48 480.3 173.58 479 174.28 469.8 174.38 469 175.18 468.9 182.08 467.4 180.88 468.7 180.48 464.7 181.88 466.7 175.18 464.4 173.68 464 173.78 462.6 174.28 453.7 174.38 452.4 175.48 452.3 181.88 451.7 180.88 452.9 179.58 447 179.18 445.4 180.98 445.1 334.28 423.1 334.78 423 335.18 423.2 427.68 460.9 428.48 461.2 428.48 462.1 428.48 468 427.78 467 432.98 469.5 433.58 469.8 433.68 470.6 434.08 478.3 434.18 479.6 432.68 479.9 427.18 480.8 428.98 478.8 428.48 483.3 427.58 482 432.38 484.3 433.08 484.6 433.08 485.4 433.48 492.9 433.58 494.3 431.98 494.7 427.28 496 428.78 494 428.98 500.2 424.98 500.4 424.78 494.1 424.68 492.5 426.28 492.1 430.98 490.9 429.48 492.7 430.98 485.2 431.58 486.3 426.48 484.6 425.68 484.4 425.58 483.3 424.98 478.8 424.78 476.8 426.88 476.8 432.38 476.7 430.88 478.3 431.38 470.6 431.98 471.6 426.78 469.1 426.08 468.8 426.08 468 426.08 462.1 426.78 463.2 333.88 426.4 334.78 426.5 181.48 448.5 182.98 446.6 183.08 452.7 183.18 453.7 182.18 453.9 175.78 454.9 176.88 453.6 177.78 462.5 176.38 460.7 183.18 462.9 184.78 463.5 184.48 464.9 183.68 468.9 183.38 470.1 182.48 470.2 175.38 470.7 176.18 469.8 177.28 478.9 175.98 477.2 184.88 479.9 186.28 480.3 186.28 481.8 185.98 502.1 181.98 502"/>
    <path d="m81.48,641.8l.6-126.5v-1.2l1.2-.2,281.9-37.6.5-.1.5.2,151.8,56.4,2,.7-1.3,1.6-3.1,3.9-.6-2.2,3.7,1-.6-.2,5.4,1.6.7.2.2.7,1.1,5-1.4-1.9,6.3,2.8.7.3.1.8c.2,1.4.4,2.8.4,4.2.1,1.4.1,2.8.1,4.2s-.1,2.8-.2,4.2c-.2,1.4-.3,2.8-.7,4.2l-.2.7h-.9l-3,.1,2.7-2,4,77-4,.2-4-77-.3-5.1,3,3.2,2,2.1-1.1.7c-.4-1.4-.6-2.8-.7-4.2-.1-1.4-.2-2.8-.2-4.2s0-2.8.1-4.2c.1-1.4.2-2.8.4-4.2l.8,1.1-6.7-1.2-1.8-.3.3-1.6,1.1-5,.8.9-5.6.6h-.3l-.3-.2-3.3-2-1.5-.9.9-1.3,2.9-4.1.7,2.4-152.2-55.6,1,.1-281.7,36.8,1.2-1.4.6,126.5h-4Z"/>
    <g class="cls-28">
      <polygon points="181.88 452.1 336.58 430.7 336.78 430.7 336.98 430.8 427.68 467.1 426.88 469 336.38 432.1 336.78 432.2 182.08 453.5 181.88 452.1"/>
    </g>
    <g class="cls-28">
      <polygon points="184.18 481.1 335.58 460.5 335.78 460.5 335.88 460.5 426.98 493.3 426.48 494.8 335.48 461.8 335.78 461.8 184.38 482.5 184.18 481.1"/>
    </g>
    <g class="cls-28">
      <polygon points="182.88 463.8 334.88 442.8 335.08 442.8 335.28 442.9 427.28 478.1 426.78 479.5 334.78 444.1 335.08 444.1 183.08 465.3 182.88 463.8"/>
    </g>
    <polyline class="cls-7" points="175.48 479 336.98 456.8 431.48 492.8"/>
    <polyline class="cls-11" points="182.28 468.8 337.38 447.5 426.78 483.8"/>
    <line class="cls-8" x1="334.48" y1="424.8" x2="334.38" y2="432.5"/>
    <polygon points="336.68 461.1 337.58 481.8 334.48 481.8 334.68 461.1 336.68 461.1"/>
    <polyline class="cls-11" points="175.78 462.6 336.68 439.8 432.48 478.3"/>
    <polygon points="336.68 431.5 337.68 439.8 335.68 439.8 336.68 431.5"/>
    <line class="cls-8" x1="337.38" y1="447.5" x2="336.98" y2="456.8"/>
    <line class="cls-8" x1="334.98" y1="443.5" x2="334.98" y2="448.5"/>
    <line class="cls-8" x1="365.48" y1="478.3" x2="368.68" y2="642.8"/>
    <polyline class="cls-6" points="88.98 642.1 88.68 518.8 358.38 484.1 361.38 642.5"/>
    <line class="cls-6" x1="522.38" y1="641.8" x2="518.38" y2="553.8"/>
    <g class="cls-28">
      <path d="m373.58,642.5l-2.3-156.7v-1.1l1,.4,34.3,12.6,34.2,12.7,34.2,12.7,17.1,6.3c1.4.5,2.9,1,4.2,1.7,1.4.6,2.8,1.3,4.2,1.9,2.8,1.1,5.7,2.1,8.7,2.8l-.5,1.4c-2.7-1.4-5.6-2.5-8.4-3.5-1.4-.5-2.9-.9-4.4-1.3s-2.9-1-4.3-1.5l-17.1-6.3-34.3-12.6-34.2-12.8-34.2-12.8,1-.7,2.3,156.7-1.5.1Z"/>
    </g>
    <polygon class="cls-8" points="94.68 527.8 144.68 520.8 143.98 583.1 95.38 589.5 94.68 527.8"/>
    <line class="cls-11" x1="89.38" y1="601.8" x2="358.68" y2="569.8"/>
    <line class="cls-11" x1="373.98" y1="568.8" x2="520.68" y2="622.1"/>
    <line class="cls-6" x1="150.98" y1="511.8" x2="151.38" y2="642.8"/>
    <line class="cls-6" x1="218.68" y1="502.5" x2="219.68" y2="642.8"/>
    <line class="cls-6" x1="286.38" y1="493.8" x2="288.98" y2="642.8"/>
    <line class="cls-6" x1="414.38" y1="501.5" x2="415.68" y2="641.8"/>
    <line class="cls-6" x1="450.98" y1="515.8" x2="452.38" y2="642.1"/>
    <line class="cls-6" x1="487.38" y1="528.8" x2="488.98" y2="642.5"/>
    <line class="cls-3" x1="320.38" y1="142.5" x2="330.48" y2="146.8"/>
    <path class="cls-3" d="m268.98,400.3s-4.9,18.9-19.5,16.5c-18-3-24.6-21.7-26-35"/>
    <polygon points="259.68 347.8 262.98 187.3 263.08 185 265.18 185.9 283.68 194.4 282.38 197.2 263.88 188.7 265.98 187.3 261.68 347.8 259.68 347.8"/>
    <polygon points="435.98 190.9 451.88 198.7 450.98 198.6 472.28 195 471.78 197.8 458.98 188.8 459.68 187.6 473.38 195.2 477.08 197.3 472.78 198 451.48 201.6 450.98 201.7 450.58 201.4 434.68 193.7 435.98 190.9"/>
    <path d="m465.78,263.8l12.4,4.3.7.2.2.9h0c.6,3.4,1,6.8,1.3,10.1.3,3.4.5,6.8.6,10.2.2,6.8,0,13.6-.7,20.3-.6,6.8-1.8,13.5-3.4,20.1-.8,3.3-1.7,6.6-3.1,9.8s-3,6.2-5.1,9.1c-4,5.7-9.3,10.4-15.3,13.8s-12.7,5.7-19.5,6.6c-3.4.4-6.9.6-10.4.2-3.5-.3-7-1.3-10.1-2.4-6.4-2.4-12.5-5.3-18.5-8.4l1.4-2.7c5.9,3.1,12,6,18.1,8.3,3.1,1.1,6.2,2,9.4,2.3,3.2.3,6.5.2,9.7-.2,6.5-.8,12.8-3,18.4-6.2s10.6-7.6,14.4-12.9c1.9-2.6,3.5-5.5,4.7-8.5,1.3-3,2.2-6.1,3-9.4,1.6-6.4,2.7-13,3.3-19.6.6-6.6.8-13.3.7-19.9-.1-3.3-.3-6.7-.6-10-.3-3.3-.7-6.6-1.2-9.8h0l.9,1.1-11.9-5.5.6-1.8Z"/>
    <path class="cls-3" d="m254.98,416.8s-9,1.6-17.5,2.5c-13.5,1.5-27-15.5-29.5-37.5-1.8-16-1-26-1-26"/>
    <line class="cls-3" x1="264.48" y1="187.3" x2="253.98" y2="190.3"/>
    <path class="cls-4" d="m430.98,175.2s-9.1-2.5-17.8.5c-8.6,3-11.7,16.7-12.2,30.9s2,94.3,4.6,105c2.5,10.6,13.2,22.3,13.2,22.3"/>
    <path d="m425.78,136.3c6.7,2.2,13.2,4.5,19.7,7.2,3.2,1.4,6.4,2.8,9.5,4.9,3,2.1,5.4,4.8,7.5,7.8,2,3,3.6,6.1,5,9.4s2.4,6.6,3.3,10c1.7,6.8,2.9,13.7,3.3,20.9l-3,.1c-.2-6.8-1.1-13.7-2.8-20.3-1.6-6.6-4-13.2-7.8-18.7-1.9-2.8-4.2-5.3-6.9-7.2-2.7-1.9-5.9-3.3-9-4.6-6.4-2.6-13-4.7-19.6-6.6l.8-2.9Z"/>
    <g class="cls-29">
      <polygon points="317.78 371.5 335.58 372.4 335.58 374.4 317.78 374.8 317.78 371.5"/>
    </g>
    <g class="cls-30">
      <polygon points="289.68 429.7 289.98 421.9 289.98 421.2 290.78 420.9 294.18 419.5 295.98 418.7 296.28 421 297.18 430.2 295.18 430.5 292.58 421.7 294.78 423.1 291.08 422.9 291.98 421.9 291.68 429.8 289.68 429.7"/>
    </g>
    <g class="cls-31">
      <polygon points="324.98 424.9 325.58 415.8 327.58 415.7 328.68 424.7 324.98 424.9"/>
    </g>
    <g class="cls-33">
      <polygon points="320.68 363.6 331.88 362.3 332.28 364.2 321.28 367 320.68 363.6"/>
    </g>
    <path d="m203.98,238.8s-7.3-1.7-8.3-12c-.7-7.3,7.7-19.3,23-20,8.4-.4,9.5,7.6,3.7,12.3-7,5.7-15,7.3-17.3,9.3-2.4,2.1-1.1,10.4-1.1,10.4Z"/>
    <path d="m205.68,259.5s-8.8-2-11.3-12.6c-2.1-8.8,12.2-19.4,27.8-18.5,9.2.6,8.7,9.7,3.6,13.6-7.7,5.9-16.4,4.6-19,6.7s-1.1,10.8-1.1,10.8Z"/>
    <path d="m203.38,275.8s-8.1-1.9-7.7-8.7c.7-10.3,8.7-15.7,23-13,8.3,1.5,9.3,8.6,3,12.7-6.1,3.9-13,1.4-16,2.7-2.8,1.1-2.3,6.3-2.3,6.3Z"/>
    <g class="cls-32">
      <polygon points="518.78 540.4 515.28 544.9 515.18 543.6 518.68 548.1 518.78 548.3 518.68 548.5 516.18 551 518.28 548.1 518.28 548.5 513.78 545 513.08 544.5 513.68 543.7 517.28 539.2 518.78 540.4"/>
    </g>
    <path d="m527.08,564.2c-.5-.3-.5-.5-.7-.6l-.4-.5-.7-.9-1.3-1.8-2.6-3.6-.2-.5.7-6.8,1.2,6.7-.2-.5,2.5,3.6,1.3,1.7.7.8.3.4c.1.1.3.3.1.1l-.7,1.9Z"/>
    <g class="cls-32">
      <polygon points="509.98 531.6 509.98 537.5 509.98 538.2 509.38 538.5 505.38 540 505.88 538.7 505.98 541.8 504.08 539.4 503.38 538.6 504.58 538.1 508.58 536.6 507.98 537.5 507.98 531.6 509.98 531.6"/>
    </g>
    <g class="cls-32">
      <polygon points="520.48 570 525.18 573.9 526.08 574.6 525.18 575.3 520.88 578.5 520.88 578.1 528.18 581.4 527.28 583.2 520.58 578.5 520.38 578.4 520.58 578.1 523.78 573.8 523.78 575.2 520.48 570"/>
    </g>
    <polygon class="cls-8" points="157.48 519.6 209.98 513 209.78 575.5 157.78 581.8 157.48 519.6"/>
    <polygon class="cls-8" points="224.78 511 277.78 504.6 277.48 568.3 225.48 574 224.78 511"/>
    <polygon class="cls-8" points="292.98 501.8 294.28 565.3 348.78 558.8 347.98 494.6 292.98 501.8"/>
    <polyline class="cls-8" points="140.98 641.8 140.48 603.8 94.18 609 93.98 642.3"/>
    <polyline class="cls-8" points="157.98 642 157.18 601.6 209.78 595.3 209.98 641.8"/>
    <polyline class="cls-8" points="225.98 641.3 225.78 594 277.18 588.3 277.98 642"/>
    <polyline class="cls-8" points="294.48 641.8 293.78 585.8 347.98 580 349.98 642.3"/>
    <polyline class="cls-8" points="507.28 548.8 491.68 540.8 491.98 601.1 515.68 611.1 512.98 557.8"/>
    <polygon class="cls-8" points="455.98 525.1 481.28 534.8 481.98 597.8 456.28 587.5 455.98 525.1"/>
    <polygon class="cls-8" points="445.28 521.8 445.68 585.1 418.68 575.5 418.28 511.5 445.28 521.8"/>
    <polygon class="cls-8" points="408.68 507.5 409.28 572.5 379.28 561.1 378.28 495.5 408.68 507.5"/>
    <polyline class="cls-8" points="381.68 641.1 380.68 580.8 408.98 591.1 409.98 641.5"/>
    <polyline class="cls-8" points="420.68 641.5 419.68 595.5 446.68 605.1 447.68 641.8"/>
    <polyline class="cls-8" points="456.98 641.5 455.98 608.5 482.68 617.8 482.68 641.5"/>
    <polyline class="cls-8" points="493.98 641.8 493.28 621.8 516.28 628.8 516.98 641.5"/>
    <polyline class="cls-8" points="418.68 524.5 429.68 528.8 429.98 578.5"/>
    <polyline class="cls-8" points="378.68 507.5 391.68 512.8 392.68 565.5"/>
    <polyline class="cls-8" points="455.98 537.5 466.98 541.8 467.98 592.5"/>
    <polygon points="499.98 604.5 499.28 570.8 499.28 570.6 499.48 570.3 502.28 565.2 503.48 567 500.38 567.1 499.38 567.2 499.28 566.2 498.98 559.5 498.98 558.9 499.48 558.6 509.18 553.8 509.08 554.4 508.28 554.5 509.08 554.8 501.08 555.8 500.78 555.8 500.58 555.7 490.88 551 491.78 549.2 501.38 553.9 500.88 553.8 508.88 552.8 509.78 552.7 509.68 553.1 509.58 553.9 509.48 554.4 500.48 560.3 500.98 559.4 501.28 566.1 500.18 565.1 503.18 564.6 505.78 564.1 504.38 566.4 501.18 571.3 501.28 570.8 501.98 604.4 499.98 604.5"/>
    <g class="cls-32">
      <polygon points="499.08 577.7 507.68 572.1 508.38 571.7 508.38 572.5 508.98 577.8 507.58 576.9 513.58 574.2 514.38 576 508.38 578.7 506.78 579.4 506.98 577.8 507.58 572.5 508.28 572.8 500.28 579.3 499.08 577.7"/>
    </g>
    <g class="cls-32">
      <polygon points="494.28 552.1 498.28 547.8 499.28 546.7 499.78 547.8 500.98 550.8 498.18 549.1 499.68 549.1 495.68 553.5 494.28 552.1"/>
    </g>
    <g class="cls-32">
      <polygon points="503.68 529.6 502.98 534.3 502.88 534.9 502.38 535.1 494.98 537.1 494.98 537.1 496.98 543.3 494.98 543.6 494.98 537.1 494.98 537.1 501.58 533.2 500.98 534 501.68 529.3 503.68 529.6"/>
    </g>
    <polyline class="cls-8" points="102.98 588.5 102.18 533.3 144.48 528.3"/>
    <polyline class="cls-8" points="167.28 580.5 166.98 524.5 209.68 519.1"/>
    <polyline class="cls-8" points="235.98 573.1 235.28 515.8 277.28 510.8"/>
    <polyline class="cls-8" points="304.68 563.8 304.28 507.8 347.28 502.1"/>
    <polyline class="cls-8" points="101.98 642.3 102.18 614.6 140.68 609.5"/>
    <polyline class="cls-8" points="167.28 642.1 167.68 606.1 209.18 601.8"/>
    <polyline class="cls-8" points="235.98 642.1 235.78 598.8 276.98 594.5"/>
    <polyline class="cls-8" points="303.68 642.5 302.98 591.8 347.98 586.8"/>
    <polyline class="cls-2" points="380.78 588.6 396.48 594 397.48 642"/>
    <polyline class="cls-2" points="420.18 602.3 434.98 607.6 435.48 641.8"/>
    <polyline class="cls-2" points="456.18 614.8 471.48 620.3 472.48 641.8"/>
    <polyline class="cls-2" points="493.98 627.6 505.48 631 506.48 641.6"/>
    <path d="m113.18,338.2l10,2,.8.2v.8h0c.1,1.7.2,3.4.4,5.1.2,1.7.5,3.4.9,5.1.7,3.3,1.8,6.6,3.4,9.3l-2.8,1.6c-1.8-3.4-2.6-6.9-3.2-10.5-.3-1.8-.5-3.5-.6-5.3s-.2-3.5-.2-5.3h0l.8,1-10-2,.5-2Z"/>
    <polygon points="422.08 297.1 435.08 303.2 434.58 303.1 444.58 302.1 444.78 304.1 434.78 305.1 434.48 305.2 434.28 305.1 420.88 299.7 422.08 297.1"/>
    <path class="cls-12" d="m340.28,418.8s4.7,2.6,12,2.3c20-.7,29-19.3,29-19.3"/>
    <path d="m340.18,409.8c1.9.2,3.9.2,5.9-.1,2-.3,3.9-.7,5.8-1.3,1.9-.6,3.7-1.5,5.3-2.5.8-.5,1.6-1.1,2.4-1.7.7-.6,1.5-1.3,2.1-1.9l2.5,2.3c-.9.9-1.7,1.5-2.6,2.2-.9.6-1.8,1.2-2.8,1.7-1.9,1.1-4,1.9-6.1,2.4-2.1.6-4.2.9-6.4,1.1-2.2.1-4.3.1-6.5-.3l.4-1.9Z"/>
    <line class="cls-10" x1="248.28" y1="346.5" x2="230.68" y2="384.5"/>
    <line class="cls-10" x1="240.68" y1="324.5" x2="202.68" y2="329.5"/>
    <line class="cls-10" x1="268.68" y1="344.8" x2="287.98" y2="381.5"/>
    <line class="cls-10" x1="280.98" y1="320.1" x2="318.98" y2="316.5"/>
    <line class="cls-10" x1="281.68" y1="275.8" x2="319.68" y2="271.8"/>
    <line class="cls-10" x1="282.98" y1="232.5" x2="319.28" y2="227.8"/>
    <line class="cls-10" x1="283.28" y1="189.1" x2="319.28" y2="184.1"/>
    <line class="cls-10" x1="205.68" y1="202.8" x2="242.28" y2="195.5"/>
    <line class="cls-10" x1="242.28" y1="237.8" x2="223.68" y2="240.8"/>
    <line class="cls-10" x1="241.68" y1="281.8" x2="203.98" y2="287.1"/>
    <line class="cls-13" x1="370.28" y1="346.5" x2="357.98" y2="377.5"/>
    <line class="cls-13" x1="383.68" y1="360.8" x2="392.98" y2="397.1"/>
    <line class="cls-13" x1="348.98" y1="318.5" x2="368.28" y2="326.5"/>
    <line class="cls-13" x1="348.98" y1="275.1" x2="365.28" y2="283.1"/>
    <line class="cls-13" x1="347.28" y1="230.1" x2="363.98" y2="239.8"/>
    <line class="cls-13" x1="346.28" y1="190.5" x2="363.98" y2="203.1"/>
  </g>
</svg>