<?xml version="1.0" encoding="utf-8"?>
<!-- Generator: Adobe Illustrator 24.0.1, SVG Export Plug-In . SVG Version: 6.00 Build 0)  -->
<svg version="1.1" xmlns="http://www.w3.org/2000/svg" xmlns:xlink="http://www.w3.org/1999/xlink" x="0px" y="0px"
	 viewBox="0 0 1407.67 809.49" style="enable-background:new 0 0 1407.67 809.49;" xml:space="preserve">
<style type="text/css">
	.st0{display:none;}
	.st1{fill:#FFFFFF;}
	.st2{fill:#E51727;}
	.st3{opacity:0.09;}
	.st4{fill:#778384;}
	.st5{fill:#AEB4B5;}
	.st6{fill:#CAD6D8;}
	.st7{fill:#A9CDD3;stroke:#000000;stroke-width:2.9525;stroke-miterlimit:10;}
	.st8{fill:#5C6A6D;stroke:#000000;stroke-width:2.9525;stroke-miterlimit:10;}
	.st9{fill:#A8AEAF;}
	.st10{fill:#8D9596;}
	.st11{fill:#A9CDD3;}
	.st12{fill:#989FA0;}
	.st13{fill:#AEB4B5;stroke:#000000;stroke-width:3.3462;stroke-miterlimit:10;}
	.st14{opacity:0.2;}
	.st15{opacity:0.14;}
	.st16{stroke:#000000;stroke-width:1.6432;stroke-miterlimit:10;}
	.st17{stroke:#000000;stroke-width:1.7321;stroke-miterlimit:10;}
	.st18{fill:#444E51;}
	.st19{stroke:#000000;stroke-width:1.6898;stroke-miterlimit:10;}
	.st20{stroke:#000000;stroke-width:1.6142;stroke-miterlimit:10;}
	.st21{opacity:0.71;fill:#FFFFFF;}
</style>
<g id="Ebene_25">
	<path class="st0" d="M837.81,265.19c0,0,33.76,56.81,45.61,75.73c5.8,9.26,31.74,44.46,31.74,44.46l1.7,22.62
		c0,0-10.64-12.4-13.1-8.87c-2.29,3.27,3.18,22.29,3.18,22.29s-18.74-35.4-26.98-58.64C871.7,339.55,837.81,265.19,837.81,265.19z"
		/>
	<g>
		<path d="M477.65,390.44l-0.24-0.42l-0.09-0.15l-0.15-0.22c-0.08-0.11-0.11-0.14-0.17-0.22c-0.12-0.15-0.14-0.14-0.22-0.22
			c-0.09-0.07-0.18-0.11-0.21-0.08c-0.09,0.01-0.08,0.14-0.06,0.29c0.06,0.3,0.28,0.73,0.55,1.19c0.59,0.91,1.48,1.95,2.55,2.97
			c2.16,2.06,5.05,4.02,8.27,5.79c3.25,1.74,6.86,3.26,10.66,4.59c3.81,1.34,7.84,2.37,11.97,3.27l5.56,1.13
			c1.35,0.25,2.78,0.3,4.28,0.23c3-0.14,6.32-0.93,9.72-2.26c6.84-2.68,13.77-7.52,20.19-13.16c6.45-5.67,12.47-12.22,18.12-19.16
			c5.62-6.98,10.93-14.34,15.82-22c2.45-3.83,4.87-7.7,7.17-11.64c2.29-3.95,4.51-7.94,6.67-11.97c2.11-4.05,4.19-8.13,6.15-12.26
			c0.97-2.07,1.93-4.14,2.86-6.22c0.9-2.07,1.84-4.21,2.61-6.22l13.42,5.55c-1.02,2.28-1.96,4.39-2.97,6.55
			c-0.98,2.16-1.97,4.3-2.98,6.44c-2.01,4.27-4.02,8.54-6.13,12.77c-2.06,4.25-4.18,8.47-6.37,12.66c-2.17,4.2-4.38,8.4-6.69,12.55
			c-4.63,8.29-9.45,16.54-14.77,24.58c-5.3,8.06-11.05,15.96-17.69,23.49c-6.67,7.49-14.2,14.73-23.93,20.56
			c-4.87,2.88-10.37,5.35-16.54,6.78c-3.07,0.73-6.3,1.14-9.59,1.28c-0.82,0.03-1.65,0.05-2.48,0.03l-2.03-0.02
			c-1.27-0.02-2.53-0.02-3.81-0.07c-10.19-0.35-20.69-1.43-31.61-4.43c-5.47-1.48-11.03-3.52-16.7-6.46
			c-2.84-1.48-5.69-3.23-8.57-5.4c-1.45-1.1-2.9-2.3-4.39-3.73c-0.75-0.73-1.49-1.48-2.29-2.39c-0.39-0.43-0.81-0.94-1.24-1.49
			c-0.24-0.32-0.42-0.55-0.7-0.94l-0.4-0.59l-0.26-0.41l-0.15-0.24l-0.29-0.52L477.65,390.44z"/>
	</g>
</g>
<g id="Ebene_19">
	<path class="st1" d="M620.56,283.18c-22.57,70.08-48.07,126.38-73.33,220.52c-30.7,114.44-20.56,237.7,12.02,238.66
		c45.53,1.35,111.2-103.69,165.94-99.15c56.59,4.69,115.54,113.8,163.39,113.42c40.71-0.32,56.98-125.66,40.32-222.56
		c-15.32-89.11-60.52-208.38-109.05-304.55C774.83,140.31,694.73,42.9,674.9,47.75C659.06,51.62,668.21,135.26,620.56,283.18z"/>
	<g>
		<path d="M623.59,284.16c-5.94,19.28-12.37,38.4-18.97,57.42c-6.62,19.02-13.39,37.95-19.78,56.98
			c-6.38,19.03-12.49,38.13-18.07,57.38l-4.11,14.45l-3.96,14.49c-1.34,4.82-2.55,9.69-3.83,14.53c-1.28,4.86-2.54,9.66-3.69,14.49
			c-9.28,38.65-14.47,78.28-16.15,117.96c-0.73,19.82-0.58,39.76,2.02,59.31c1.32,9.74,3.25,19.44,6.54,28.43
			c1.64,4.47,3.67,8.79,6.3,12.33c1.31,1.76,2.78,3.3,4.36,4.4c1.58,1.1,3.23,1.75,4.93,1.88c0.19,0.02,0.47,0.03,0.75,0.03
			l0.83,0.01c0.55,0.02,1.11,0,1.67-0.04c1.12-0.03,2.24-0.19,3.37-0.31c2.25-0.34,4.51-0.87,6.75-1.52
			c4.47-1.4,8.87-3.3,13.13-5.59c4.26-2.28,8.41-4.86,12.47-7.63c4.06-2.77,8.04-5.7,11.93-8.77c15.6-12.26,30.18-26.06,45.42-39.38
			c7.64-6.66,15.41-13.24,23.73-19.39c4.18-3.05,8.47-6.01,13.02-8.72c4.55-2.72,9.33-5.22,14.57-7.16c2.63-0.96,5.34-1.8,8.21-2.38
			c2.87-0.56,5.88-0.89,8.97-0.81c1.6,0.02,2.98,0.2,4.41,0.34c0.71,0.08,1.41,0.21,2.11,0.32c0.71,0.11,1.41,0.22,2.09,0.38
			c2.79,0.54,5.46,1.36,8.1,2.22c10.48,3.67,19.63,9.32,28.03,15.52c8.41,6.22,16.09,13.08,23.48,20.12
			c7.39,7.04,14.44,14.32,21.44,21.55c6.99,7.25,13.91,14.5,20.99,21.49c7.08,6.98,14.33,13.75,22.05,19.68
			c3.86,2.95,7.83,5.73,11.97,8.04c2.06,1.18,4.17,2.21,6.3,3.12c2.13,0.92,4.3,1.64,6.49,2.18c2.18,0.53,4.38,0.91,6.56,0.89
			c2.08,0.04,3.95-0.35,5.82-1.08c3.71-1.45,7.05-4.38,9.88-7.9c2.84-3.53,5.19-7.65,7.24-11.95c2.05-4.31,3.77-8.85,5.28-13.47
			c3.01-9.26,5.2-18.89,6.92-28.61c3.4-19.46,4.95-39.33,5.4-59.19c0.49-19.88-0.53-39.75-1.74-59.56
			c-0.71-9.9-1.71-19.79-3.06-29.61c-0.65-4.9-1.49-9.83-2.28-14.78l-2.4-14.82l-2.67-14.77c-0.45-2.46-0.87-4.93-1.35-7.38
			l-1.48-7.36c-1-4.9-1.94-9.82-3-14.71l-3.27-14.65c-8.95-39-20.43-77.42-34.46-114.95c-14.01-37.54-30.37-74.23-48.04-110.3
			c-17.35-36.15-37.49-71-61.41-103.21c-5.98-8.05-12.23-15.89-18.75-23.5c-6.53-7.6-13.3-15-20.49-21.96
			c-3.64-3.44-7.5-6.63-11.38-9.76c-3.9-3.11-7.83-6.17-11.93-8.94c-4.08-2.79-8.33-5.34-12.7-7.34c-2.19-0.98-4.42-1.81-6.6-2.3
			c-1.09-0.22-2.16-0.34-3.11-0.29c-0.24,0-0.48,0.03-0.69,0.07l-0.32,0.05c-0.07,0.03-0.15,0.03-0.22,0.06
			c-0.29,0.1-0.59,0.25-0.9,0.49c-0.62,0.48-1.24,1.28-1.77,2.21c-0.54,0.93-1.01,1.99-1.43,3.08c-0.84,2.2-1.5,4.55-2.09,6.94
			c-1.16,4.78-2.07,9.7-2.94,14.63c-1.69,9.87-3.22,19.82-4.83,29.75c-1.61,9.94-3.28,19.87-5.06,29.78
			c-1.77,9.92-3.72,19.8-5.72,29.67c-2.02,9.87-4.14,19.72-6.37,29.54c-2.27,9.81-4.57,19.62-6.95,29.41
			C634.43,245.28,629.5,264.86,623.59,284.16z M617.52,282.2c6.42-19,12.8-38.05,18.26-57.39c2.71-9.67,5.2-19.4,7.45-29.19
			c2.27-9.78,4.38-19.61,6.3-29.46c3.84-19.72,7-39.56,9.79-59.47c1.42-9.95,2.72-19.92,4.3-29.9c0.8-4.99,1.63-9.99,2.81-14.99
			c0.59-2.5,1.27-5.01,2.2-7.52c0.47-1.26,1.01-2.52,1.72-3.77c0.71-1.24,1.59-2.52,2.94-3.62c0.68-0.54,1.49-1.01,2.4-1.31
			c0.22-0.08,0.46-0.13,0.68-0.19l0.61-0.1c0.41-0.07,0.8-0.11,1.19-0.12c1.56-0.07,3,0.12,4.37,0.41c2.73,0.62,5.22,1.59,7.58,2.74
			c4.73,2.29,9.02,5.14,13.15,8.15c4.12,3.02,8.07,6.24,11.83,9.65c3.77,3.4,7.33,7,10.94,10.54
			c14.58,14.01,27.82,29.32,40.17,45.28c24.66,31.97,45.75,66.66,63.91,102.69c18.33,35.88,35.56,72.42,50.4,110.01
			c14.88,37.57,27.24,76.19,37.04,115.43l3.59,14.74c1.16,4.92,2.21,9.87,3.32,14.8l1.64,7.4c0.53,2.47,1,4.95,1.51,7.43l2.98,14.87
			l2.71,14.91c0.89,4.97,1.84,9.93,2.61,14.99c1.58,10.08,2.81,20.2,3.74,30.35c2.06,20.28,1.99,40.7,1.09,61.04
			c-1,20.34-3.11,40.66-7.15,60.74c-2.04,10.04-4.58,20.02-8.05,29.81c-1.75,4.89-3.72,9.73-6.11,14.45
			c-2.39,4.71-5.17,9.33-8.74,13.56c-1.79,2.11-3.79,4.12-6.07,5.9c-2.28,1.77-4.87,3.31-7.74,4.34c-2.83,1.04-6.01,1.55-8.96,1.44
			c-2.85-0.03-5.67-0.36-8.38-0.95c-2.72-0.58-5.36-1.38-7.88-2.38c-2.53-0.98-4.98-2.1-7.32-3.35c-4.72-2.46-9.11-5.34-13.33-8.37
			c-8.41-6.1-16.1-12.86-23.61-19.73c-7.48-6.89-14.71-13.94-21.93-20.93c-7.2-7-14.41-13.93-21.74-20.6
			c-3.67-3.33-7.38-6.59-11.16-9.72c-3.77-3.13-7.59-6.17-11.52-8.99c-7.85-5.6-16.07-10.55-24.64-13.49
			c-2.14-0.68-4.29-1.34-6.45-1.74c-1.08-0.24-2.15-0.38-3.23-0.55c-1.07-0.11-2.19-0.26-3.1-0.26c-3.87-0.12-8.1,0.78-12.31,2.29
			c-8.46,3.06-16.8,8.16-24.78,13.73c-8.04,5.57-15.85,11.73-23.61,18.01c-15.56,12.56-30.85,25.79-47.27,37.91
			c-8.25,6.01-16.72,11.86-26.05,16.6c-4.64,2.39-9.52,4.48-14.68,6.02c-2.59,0.75-5.24,1.36-7.97,1.76
			c-1.37,0.15-2.74,0.33-4.14,0.37c-0.69,0.04-1.39,0.07-2.1,0.04l-1.05-0.02c-0.34,0-0.69-0.01-1.13-0.05
			c-3.33-0.22-6.52-1.54-9.05-3.31c-2.55-1.78-4.57-3.94-6.3-6.18c-3.42-4.52-5.72-9.4-7.7-14.29c-1.95-4.91-3.45-9.91-4.72-14.93
			c-1.29-5.01-2.35-10.06-3.24-15.12c-1.76-10.12-2.96-20.29-3.71-30.47c-0.77-10.18-1.1-20.38-1.08-30.57
			c0.07-20.38,1.53-40.73,4.32-60.9c2.74-20.17,6.61-40.19,11.73-59.9c1.27-4.93,2.64-9.84,4.05-14.68
			c1.43-4.85,2.77-9.72,4.26-14.54l4.44-14.49l4.61-14.43c6.29-19.2,12.91-38.27,19.86-57.2c6.94-18.93,14.04-37.77,21.08-56.6
			C604.16,320.05,611.11,301.21,617.52,282.2z"/>
	</g>
	<path d="M695.83,350.54c0,0-14.26,5.51,54.97,9.02c57.1,2.9,138.79,21.13,138.79,21.13s-29.91-98.6-79.48-185.27
		C750.1,90.49,695.95,45.28,676.9,47.75c-10.59,1.37-11.26,27.75-22.33,100.79c-14.89,98.24-59.88,204.32-59.88,204.32
		L695.83,350.54z"/>
	<g>
		<path class="st2" d="M708.02,294.05c61.79,0.42,117.23,38.25,114.01,92.11c-3.2,53.49-70.9,75.76-137.96,64.12
			c-61.86-10.74-86.55-50.18-78.78-92.15C611.63,323.89,652.19,293.67,708.02,294.05z"/>
		<path d="M708.03,291.42c12.76,0.13,25.52,1.75,37.85,5.07c12.32,3.32,24.26,8.23,35.2,14.92c2.73,1.67,5.4,3.46,7.98,5.36
			c2.6,1.88,5.12,3.88,7.53,6.01c4.84,4.24,9.28,8.96,13.15,14.16c7.78,10.32,13.23,22.64,15.07,35.65
			c0.95,6.5,1.1,13.07,0.32,19.71c-0.8,6.61-2.68,13.16-5.61,19.23c-2.91,6.09-6.92,11.63-11.55,16.48
			c-4.67,4.82-9.97,8.96-15.61,12.42c-11.32,6.92-23.85,11.25-36.5,13.98c-12.68,2.76-25.61,3.78-38.46,3.62
			c-12.86-0.17-25.62-1.69-38.2-4.29c-12.58-2.68-25-6.78-36.4-13.12c-11.36-6.3-21.7-14.93-29.11-25.82
			c-3.7-5.42-6.65-11.36-8.74-17.56c-2.09-6.21-3.29-12.69-3.64-19.19c-0.34-6.5,0.11-13.01,1.27-19.37
			c1.13-6.45,3.42-12.71,6.55-18.4c6.27-11.45,15.63-20.83,26.21-28.06c10.59-7.29,22.48-12.49,34.8-15.9
			C682.47,292.89,695.28,291.4,708.03,291.42z M708,296.68c-12.33-0.13-24.67,1.29-36.58,4.39c-11.89,3.11-23.35,8.03-33.49,14.91
			c-5.06,3.45-9.75,7.42-13.92,11.86c-4.17,4.44-7.82,9.36-10.61,14.71c-2.82,5.34-4.8,11.06-5.73,16.99c-1,6-1.31,12.1-0.84,18.12
			c0.9,12.04,5.08,23.74,12.16,33.4c7.04,9.71,16.7,17.34,27.4,22.88c10.74,5.55,22.48,9.17,34.48,11.39
			c12.05,2.21,24.36,3.23,36.59,3.22c12.23-0.02,24.45-1.25,36.29-3.85c5.92-1.3,11.73-3,17.35-5.12
			c5.62-2.12,11.06-4.62,16.15-7.67c10.19-5.99,19.08-14.11,24.7-24.31c2.81-5.08,4.77-10.65,5.81-16.45
			c1.03-5.78,1.23-11.87,0.68-17.82c-0.6-5.96-1.98-11.85-4.18-17.47c-2.21-5.6-5.13-10.96-8.7-15.87
			c-7.17-9.81-16.51-18.09-27.02-24.42c-10.49-6.4-22.03-11.06-33.95-14.16C732.65,298.34,720.33,296.75,708,296.68z"/>
	</g>
	<path class="st1" d="M631.93,348.18c6.02-20.06,33.78-31.31,59.68-30.39c23.5,0.83,42.69,17.83,41.64,31.62
		c-1.57,20.6-22.65,31.63-57.96,32.11C653.63,381.82,626.33,366.84,631.93,348.18z"/>
	<g id="Ebene_22">
	</g>
	<path class="st3" d="M533.19,693.88c0,0,14.32,12.41,40.19,8.74c17.64-2.51,101.36-91.48,146.98-91.73
		c38.02-0.21,88.01,59.2,132.8,52.62c42.16-6.2,25.52-156.36,22.66-187.4c-2.86-31.04-28.44-120.64-28.44-120.64l42.78,10.59
		c0,0,30.55,106.64,39.93,164.2s0.74,227.74-37.93,227.22c-38.67-0.52-94.09-71.96-114.86-88.05s-48.97-26.33-61.6-24.82
		c-12.63,1.51-64.55,43.77-70.76,47.7c-6.22,3.93-61.33,54.9-82.98,51.51C536.85,739.89,533.19,693.88,533.19,693.88z"/>
	<path class="st3" d="M606.6,396.46c0,0,14.21,45.41,60.36,67.05c35.02,16.42,90.5,14.93,127.35-3.37
		c35.64-17.69,47.63-36.41,45.84-63.17c-2.78-41.52-31.33-58.78-31.33-58.78s-2.94,47.76-40.34,70.45
		c-19.06,11.57-64.02,18.01-91.36,15.5C635.42,420.31,606.6,396.46,606.6,396.46z"/>
</g>
<g id="Ebene_28_Kopie">
	<g>
		<path class="st4" d="M414.06,478.53c-14.26-0.01-28.85,3.11-42.16,8.78c-13.29,5.67-25.45,14.02-34.21,24.73
			c-4.38,5.34-7.87,11.25-10.2,17.56c-1.19,3.14-2.04,6.4-2.66,9.7c-0.28,1.66-0.53,3.32-0.67,5.01c-0.09,0.84-0.12,1.69-0.18,2.53
			l-0.07,2.62c-0.07,6.95,0.86,13.71,3.02,20.1c2.12,6.39,5.43,12.43,9.68,18.13c4.22,5.72,9.34,11.1,14.86,16.39
			c5.53,5.28,11.48,10.47,17.47,15.91c6,5.44,12.06,11.15,17.76,17.52c5.69,6.36,11,13.44,15.22,21.32
			c2.13,3.92,3.93,8.1,5.43,12.21c1.51,4.15,2.77,8.46,3.66,12.91c1.82,8.86,2.12,18.36,0.21,27.64c-1.87,9.27-6,18.13-11.71,25.5
			c-5.69,7.41-12.78,13.4-20.4,18.08c-7.64,4.69-15.82,8.12-24.19,10.54c-8.36,2.42-16.97,3.85-25.51,4.38
			c-8.27,0.54-16.66,0.67-25.12,0.13c-8.46-0.56-16.98-1.88-25.34-4.08c-8.35-2.22-16.47-5.44-24.12-9.46
			c-3.81-2.03-7.55-4.23-11.04-6.58c-3.51-2.33-6.86-4.74-10.11-7.14c-6.51-4.79-12.68-9.51-18.96-13.48
			c-3.14-1.98-6.29-3.78-9.49-5.3c-1.6-0.77-3.21-1.45-4.83-2.08c-0.81-0.31-1.62-0.6-2.44-0.87c-0.79-0.28-1.75-0.54-2.61-0.82
			c-7.1-2.14-14.31-3.6-21.52-4.13c-7.22-0.54-14.43-0.14-21.58,1.16c-7.16,1.3-14.24,3.51-21.31,6.25
			c-3.53,1.38-7.06,2.89-10.6,4.48c-3.46,1.56-7.28,3.37-11.06,4.96c-15.17,6.5-31.34,11.44-48.04,13.64
			c-16.68,2.22-33.85,1.67-50.35-1.86l3.39-16.19c14.68,3.06,29.83,3.46,44.71,1.4c14.91-2.05,29.49-6.55,43.55-12.66
			c3.55-1.52,6.92-3.14,10.71-4.89c3.71-1.7,7.5-3.36,11.37-4.91c7.75-3.08,15.92-5.73,24.44-7.34c8.51-1.62,17.32-2.18,26-1.6
			c8.68,0.57,17.19,2.25,25.36,4.64c1.04,0.32,2,0.58,3.09,0.94c1.08,0.34,2.14,0.72,3.19,1.11c2.1,0.79,4.16,1.65,6.16,2.59
			c4.01,1.87,7.8,4.01,11.41,6.25c7.23,4.5,13.75,9.44,20.1,14.04c6.37,4.62,12.51,8.85,18.97,12.15c6.48,3.34,13.27,5.98,20.33,7.8
			c7.07,1.8,14.37,2.89,21.8,3.33c7.44,0.42,15.01,0.26,22.64-0.3c7.36-0.52,14.55-1.78,21.48-3.84c6.92-2.05,13.52-4.91,19.44-8.61
			c5.91-3.69,11.12-8.24,15.11-13.51c4-5.26,6.71-11.25,7.95-17.61c1.25-6.36,1.06-13.11-0.37-19.83c-0.69-3.36-1.7-6.72-2.94-10.04
			c-1.26-3.36-2.64-6.51-4.34-9.57c-3.35-6.14-7.68-11.89-12.65-17.36c-4.97-5.48-10.55-10.68-16.39-15.89
			c-5.84-5.22-11.95-10.46-17.98-16.14c-6.02-5.68-12-11.82-17.31-18.88c-5.31-7.02-9.88-15.07-12.84-23.79
			c-3.01-8.7-4.32-17.94-4.29-26.91l0.07-3.36c0.07-1.14,0.1-2.29,0.22-3.43c0.17-2.29,0.49-4.57,0.86-6.84
			c0.8-4.53,1.96-9.02,3.55-13.34c3.13-8.67,7.82-16.68,13.49-23.7c5.67-7.03,12.28-13.11,19.41-18.27
			c7.14-5.17,14.8-9.45,22.76-12.92c15.94-6.9,33.1-10.77,50.72-10.91L414.06,478.53z"/>
		<path d="M415.83,480.29c-0.72,0.23-1.53,0.46-2.38,0.59c-0.42,0.07-0.85,0.12-1.27,0.14l-1.03,0.04
			c-0.97,0.05-1.94,0.06-2.91,0.13c-1.94,0.12-3.87,0.28-5.8,0.51c-3.86,0.45-7.7,1.12-11.49,2c-7.58,1.75-14.98,4.34-22,7.67
			c-7.02,3.33-13.66,7.47-19.58,12.43c-5.92,4.95-11.13,10.75-15.06,17.31c-3.92,6.56-6.57,13.86-7.41,21.44
			c-0.28,1.9-0.44,3.78-0.47,5.72c-0.07,1.92-0.03,3.81,0.08,5.74c0.22,3.83,0.79,7.62,1.75,11.3c1.92,7.38,5.47,14.27,10.04,20.49
			c4.57,6.25,10.01,11.91,15.77,17.31l17.61,16.06c5.91,5.39,11.73,10.97,17.1,17.02c5.37,6.05,10.27,12.6,14.28,19.72
			c2.01,3.53,3.78,7.27,5.29,11.05c1.51,3.78,2.82,7.65,3.86,11.61c2.06,7.9,3.06,16.18,2.52,24.41c-0.53,8.23-2.6,16.4-6.2,23.84
			c-3.55,7.47-8.62,14.16-14.55,19.82c-5.95,5.67-12.79,10.32-20.05,14.02c-14.57,7.4-30.78,11.06-46.9,11.79
			c-8.03,0.43-16.09,0.47-24.16-0.13c-8.06-0.62-16.08-1.89-23.93-3.93c-7.86-2.05-15.48-4.96-22.74-8.58
			c-3.65-1.82-7.14-3.81-10.59-5.96c-1.73-1.07-3.4-2.21-5.03-3.38l-4.91-3.47c-6.59-4.61-12.78-9.57-19.33-13.92
			c-3.26-2.18-6.59-4.22-10.04-6c-1.71-0.92-3.5-1.63-5.26-2.4l-1.33-0.57l-1.36-0.49c-0.9-0.34-1.83-0.62-2.76-0.91
			c-7.43-2.32-15.14-3.91-22.89-4.4c-7.75-0.51-15.56,0.11-23.17,1.76c-3.81,0.82-7.57,1.88-11.29,3.12
			c-1.86,0.62-3.71,1.28-5.55,1.97c-1.84,0.69-3.64,1.51-5.46,2.26l-5.46,2.29c-1.82,0.78-3.65,1.62-5.47,2.42
			c-3.65,1.63-7.28,3.29-11.03,4.75c-14.92,5.94-30.57,10.26-46.6,12.04c-16.02,1.77-32.31,0.99-48.06-2.43l-0.08-0.02l-1.56-0.32
			l0.33-1.57l3.37-16.11l0.02-0.08l0.33-1.56l1.56,0.32c15.41,3.19,31.4,3.43,46.94,0.95c15.57-2.5,30.65-7.56,45-14.28l5.42-2.47
			l5.51-2.4c3.68-1.59,7.34-3.24,11.14-4.58c7.55-2.77,15.36-4.97,23.36-6.24c7.99-1.26,16.14-1.62,24.21-0.99
			c8.08,0.6,16.04,2.15,23.8,4.36c1.95,0.58,3.87,1.13,5.79,1.82l1.44,0.5l1.41,0.58l2.81,1.18c1.89,0.76,3.72,1.62,5.52,2.56
			c1.8,0.93,3.57,1.91,5.31,2.93c6.97,4.09,13.47,8.82,19.9,13.52c6.43,4.68,12.83,9.36,19.69,13.13
			c6.87,3.75,14.18,6.74,21.73,8.73c7.57,1.98,15.4,3.09,23.24,3.47c7.86,0.37,15.79,0.1,23.63-0.57c7.8-0.73,15.52-2.35,22.88-4.95
			c7.35-2.6,14.37-6.22,20.43-11.03c6.05-4.79,11.13-10.85,14.11-17.89c3.04-7.02,3.88-14.87,2.92-22.51
			c-0.96-7.65-3.51-15.16-6.96-22.1c-3.53-6.92-8.26-13.22-13.55-19.02c-5.3-5.81-11.13-11.16-17.06-16.46
			c-5.93-5.35-11.89-10.64-17.79-16.03c-5.8-5.53-11.4-11.37-16.29-17.82c-4.91-6.43-9.08-13.49-12.09-21.06
			c-3.02-7.55-4.83-15.6-5.46-23.69c-0.33-4.04-0.35-8.13-0.13-12.17c0.08-2.04,0.37-4.05,0.62-6.06l0.38-3.02
			c0.17-1.02,0.37-2.01,0.57-3c1.67-7.96,4.6-15.66,8.57-22.75c3.97-7.1,8.97-13.58,14.66-19.34
			c11.41-11.54,25.43-20.21,40.41-26.14c14.97-5.96,31.05-9.22,47.19-9.37l0.17,0l1.54-0.03l0.07,1.63
			C415.97,464.22,416.05,472.33,415.83,480.29z M412.3,476.76c-0.24-6.71-0.17-13.26,0.14-20.23l1.61,1.6l-0.17,0
			c-15.73,0.17-31.41,3.35-46.02,9.19c-14.6,5.79-28.25,14.27-39.26,25.44c-5.49,5.58-10.31,11.83-14.11,18.65
			c-3.81,6.81-6.61,14.17-8.19,21.81c-0.2,0.95-0.39,1.92-0.54,2.87l-0.36,2.91c-0.24,1.94-0.53,3.87-0.59,5.82
			c-0.21,3.91-0.18,7.81,0.14,11.71c0.62,7.79,2.34,15.46,5.25,22.7c2.89,7.24,6.9,14.02,11.66,20.24
			c4.75,6.25,10.21,11.95,15.94,17.4c5.87,5.34,11.83,10.62,17.74,15.94c5.95,5.3,11.89,10.73,17.33,16.69
			c5.44,5.96,10.38,12.5,14.1,19.79c1.85,3.67,3.36,7.43,4.62,11.31c1.25,3.89,2.17,7.89,2.68,11.97c1.02,8.14,0.12,16.69-3.2,24.32
			c-3.26,7.66-8.75,14.18-15.17,19.25c-6.44,5.1-13.79,8.86-21.44,11.57c-7.66,2.7-15.66,4.36-23.72,5.12
			c-8.03,0.68-16.05,0.94-24.12,0.56c-8.07-0.4-16.1-1.55-23.94-3.6c-7.85-2.07-15.4-5.17-22.5-9.05
			c-7.11-3.93-13.61-8.69-20.04-13.38c-6.43-4.7-12.83-9.37-19.61-13.35c-1.69-1-3.41-1.95-5.15-2.85c-1.74-0.91-3.5-1.75-5.31-2.47
			l-2.7-1.14l-1.35-0.56l-1.38-0.48c-1.83-0.67-3.73-1.21-5.6-1.77c-7.55-2.16-15.31-3.67-23.13-4.26
			c-7.81-0.61-15.69-0.27-23.44,0.94c-7.75,1.22-15.34,3.36-22.75,6.06c-3.72,1.31-7.33,2.94-10.96,4.5l-5.45,2.36l-5.45,2.49
			c-14.48,6.77-29.91,11.95-45.83,14.49c-15.91,2.52-32.3,2.27-48.1-1.02l1.89-1.24l-0.02,0.08l-3.37,16.11l-1.23-1.89l0.08,0.02
			c15.42,3.21,31.35,3.77,46.97,1.94c15.64-1.81,30.95-6.11,45.57-12.02c3.66-1.45,7.27-3.12,10.89-4.75
			c1.81-0.81,3.6-1.64,5.44-2.44l5.54-2.36c1.86-0.77,3.68-1.61,5.56-2.33c1.88-0.72,3.78-1.41,5.69-2.06
			c3.83-1.29,7.73-2.41,11.71-3.29c7.95-1.76,16.16-2.46,24.31-1.96c8.16,0.5,16.16,2.14,23.92,4.55c0.97,0.3,1.94,0.6,2.91,0.96
			l1.45,0.52l1.42,0.61c1.89,0.82,3.8,1.58,5.6,2.54c3.64,1.87,7.11,3.99,10.47,6.23c6.73,4.46,12.99,9.46,19.46,13.96l4.84,3.41
			c1.61,1.16,3.23,2.25,4.89,3.28c3.31,2.06,6.74,4.01,10.23,5.73c7,3.48,14.34,6.26,21.89,8.22c7.57,1.96,15.34,3.18,23.15,3.76
			c7.82,0.57,15.71,0.52,23.58,0.09c7.86-0.38,15.6-1.44,23.19-3.31c7.58-1.87,14.95-4.52,21.87-8.06
			c6.92-3.53,13.37-7.95,18.94-13.28c5.57-5.33,10.26-11.56,13.54-18.49c3.33-6.91,5.23-14.46,5.71-22.12
			c0.49-7.68-0.44-15.41-2.41-22.9c-0.98-3.74-2.24-7.42-3.69-11.04c-1.45-3.62-3.1-7.09-5.03-10.47
			c-3.82-6.75-8.51-13.03-13.72-18.87c-5.21-5.85-10.91-11.3-16.77-16.64l-17.72-16.1c-5.85-5.47-11.52-11.33-16.37-17.94
			c-4.87-6.58-8.76-14.09-10.86-22.15c-1.05-4.03-1.67-8.14-1.91-12.27c-0.11-2.04-0.16-4.14-0.08-6.2
			c0.04-2.04,0.21-4.14,0.51-6.18l0.41-3.07c0.2-1.06,0.4-2.04,0.64-3.06c0.47-2.02,1.05-4.02,1.74-5.99
			c1.37-3.9,3.15-7.7,5.28-11.24c4.26-7.12,9.85-13.32,16.13-18.58c6.29-5.27,13.27-9.62,20.63-13.12c7.36-3.5,15.08-6.2,23.02-8.03
			c3.97-0.92,7.98-1.62,12.03-2.1c2.02-0.25,4.06-0.42,6.09-0.54c1.02-0.07,2.04-0.09,3.06-0.14l0.34-0.01
			c0.04,0,0.08,0.01,0.12,0.02c0.08,0.02,0.15,0.06,0.22,0.12C411.84,476.33,412.02,476.54,412.3,476.76z"/>
	</g>
	<g>
		<path class="st4" d="M988.76,462.6c15.42,4.78,30.95,10.23,45.98,17.66c7.51,3.72,14.89,7.95,21.93,12.9
			c7.03,4.96,13.74,10.66,19.69,17.27c5.94,6.6,11.1,14.13,14.96,22.31c3.88,8.19,6.44,16.94,7.72,25.78
			c1.35,9.18,0.88,18.73-1.39,27.75c-2.25,9.04-6.24,17.5-11.39,24.98c-2.58,3.74-5.43,7.25-8.52,10.5c-1.54,1.63-3.13,3.2-4.78,4.7
			c-1.64,1.51-3.41,2.99-5.17,4.38c-7.1,5.52-14.63,9.7-21.79,13.44c-7.17,3.75-14.04,7.13-20.09,10.96
			c-6.06,3.82-11.27,8.06-15.31,13.15l-0.76,0.96l-0.77,1.05c-0.52,0.7-1.02,1.4-1.49,2.11c-0.49,0.71-0.96,1.42-1.39,2.15
			c-0.45,0.72-0.89,1.44-1.29,2.17c-1.64,2.92-2.98,5.9-3.96,8.92c-1.94,6.04-2.29,12.14-0.96,18.08
			c1.35,5.93,4.34,11.73,8.56,16.97c4.19,5.26,9.48,9.99,15.32,14.1c5.85,4.12,12.26,7.65,18.96,10.58
			c6.7,2.94,13.69,5.28,20.79,6.95c3.55,0.84,7.12,1.5,10.69,1.96c1.79,0.24,3.57,0.4,5.34,0.55c1.84,0.08,3.68,0.22,5.52,0.26
			c7.37,0.19,14.8-0.2,22.22-1.12c7.43-0.94,14.86-2.36,22.3-4.13c7.44-1.79,14.87-3.89,22.35-6.14
			c14.95-4.52,30.08-9.62,45.8-13.76c7.87-2.05,15.88-3.85,24.04-5.2c2.04-0.31,4.11-0.64,6.13-0.91c2.01-0.25,4.01-0.54,6.03-0.77
			c4.03-0.47,8.07-0.91,12.14-1.23c16.23-1.36,32.82-1.38,49.24,0.72c16.42,2.04,32.53,6.19,47.89,11.74
			c15.39,5.53,30.11,12.32,44.41,19.65l-7.72,15.18c-13.91-7.01-28.05-13.39-42.5-18.46c-14.44-5.09-29.21-8.77-44.23-10.53
			c-15.01-1.81-30.25-1.71-45.54-0.32c-3.82,0.33-7.65,0.77-11.47,1.24c-1.91,0.22-3.83,0.52-5.74,0.77
			c-1.9,0.27-3.74,0.58-5.61,0.88c-7.45,1.3-14.88,3.02-22.31,5.02c-14.87,4.03-29.72,9.16-45.03,13.94
			c-7.66,2.38-15.44,4.65-23.38,6.62c-7.95,1.96-16.07,3.59-24.33,4.7c-8.27,1.09-16.69,1.62-25.14,1.46
			c-2.11-0.03-4.22-0.16-6.34-0.25c-2.17-0.15-4.33-0.33-6.47-0.6c-4.28-0.52-8.51-1.26-12.67-2.21
			c-8.32-1.89-16.42-4.52-24.25-7.88c-7.83-3.35-15.39-7.42-22.53-12.35c-3.57-2.46-7.02-5.16-10.31-8.12
			c-3.29-2.95-6.43-6.17-9.29-9.72c-5.74-7.02-10.44-15.52-12.68-25.04c-1.09-4.74-1.58-9.69-1.33-14.57
			c0.24-4.88,1.11-9.69,2.53-14.21c1.42-4.53,3.32-8.81,5.52-12.8c0.54-1.01,1.12-1.98,1.71-2.95c0.58-0.98,1.19-1.92,1.81-2.85
			c0.61-0.95,1.25-1.86,1.91-2.75l0.98-1.35l1.07-1.38c5.76-7.39,13.03-13.26,20.3-17.91c7.3-4.69,14.65-8.33,21.46-11.98
			c6.83-3.63,13.14-7.28,18.51-11.54c1.33-1.08,2.6-2.14,3.86-3.33c1.27-1.17,2.48-2.39,3.65-3.65c2.34-2.51,4.47-5.18,6.36-7.97
			c3.78-5.59,6.56-11.7,8.08-18.05c1.53-6.34,1.81-12.9,0.8-19.37c-1.05-6.8-3.04-13.39-5.99-19.49
			c-2.95-6.11-6.87-11.75-11.55-16.88c-9.39-10.26-21.74-18.31-35.12-24.8c-13.41-6.51-27.88-11.51-42.72-15.96L988.76,462.6z"/>
		<path d="M987.98,461.13c1.29,0.1,2.79,0.34,4.11,0.77l2.86,0.92l5.68,1.88c3.78,1.28,7.54,2.61,11.28,4.01
			c7.48,2.8,14.87,5.87,22.07,9.35c14.39,6.95,28.17,15.64,39.66,27.03c5.73,5.68,10.85,12.02,15.06,18.94
			c4.22,6.92,7.48,14.43,9.7,22.23c1.11,3.9,1.97,7.87,2.58,11.87c0.61,4.03,0.91,8.12,0.85,12.2c-0.11,8.16-1.59,16.32-4.35,24.02
			c-2.75,7.7-6.74,14.93-11.64,21.45c-2.46,3.24-5.08,6.39-8.02,9.21c-2.82,2.94-5.93,5.57-9.1,8.16
			c-6.47,4.98-13.51,9.02-20.58,12.75c-7.06,3.74-14.18,7.19-20.74,11.32c-3.29,2.05-6.41,4.29-9.26,6.81
			c-2.86,2.53-5.35,5.29-7.56,8.46c-4.42,6.17-7.96,13.23-8.78,20.58c-0.43,3.67-0.21,7.41,0.69,10.98
			c0.9,3.59,2.43,7.06,4.38,10.28c3.95,6.43,9.48,12,15.59,16.71c6.14,4.72,12.92,8.66,20.01,11.9c7.1,3.24,14.51,5.8,22.12,7.59
			c3.79,0.89,7.63,1.61,11.5,2.01c1.93,0.2,3.84,0.45,5.81,0.51c1.95,0.1,3.91,0.22,5.88,0.23c7.83,0.1,15.68-0.45,23.46-1.59
			c15.58-2.25,30.85-6.53,46.01-11.18c15.17-4.65,30.31-9.6,45.85-13.32c7.76-1.85,15.6-3.44,23.54-4.49
			c3.96-0.55,7.91-1.04,11.88-1.41c3.97-0.39,7.93-0.84,11.91-1.09c15.92-1.09,31.99-0.83,47.83,1.42
			c15.85,2.16,31.41,6.24,46.42,11.68c15.03,5.4,29.59,12,43.79,19.21l0.07,0.04l1.49,0.75l-0.76,1.49l-7.68,15.11l-0.04,0.07
			l-0.75,1.47l-1.49-0.74c-14.08-6.98-28.46-13.33-43.26-18.39c-14.78-5.09-30.06-8.68-45.57-10.24
			c-15.51-1.59-31.18-1.22-46.74,0.55c-7.79,0.8-15.57,1.83-23.18,3.34c-7.65,1.53-15.24,3.44-22.76,5.62
			c-15.06,4.35-29.94,9.56-45.1,14.13c-15.15,4.57-30.65,8.45-46.54,10.21c-7.94,0.86-15.95,1.24-23.94,0.91
			c-2-0.08-3.99-0.11-6.01-0.35c-2-0.21-4.04-0.33-6.01-0.61c-3.98-0.53-7.94-1.25-11.85-2.16c-7.81-1.79-15.47-4.25-22.87-7.33
			c-7.4-3.07-14.57-6.76-21.31-11.14c-6.76-4.35-13.1-9.43-18.71-15.28c-5.59-5.86-10.43-12.56-13.82-20.05
			c-1.69-3.74-3.03-7.63-3.93-11.68c-0.87-4.02-1.33-8.13-1.31-12.27c0.03-4.14,0.51-8.22,1.4-12.24c0.89-4.03,2.21-7.92,3.83-11.66
			c0.81-1.87,1.7-3.71,2.66-5.5c0.46-0.88,0.98-1.76,1.49-2.64c0.5-0.89,1.03-1.76,1.58-2.6c1.06-1.72,2.25-3.4,3.42-5.05
			c1.17-1.62,2.45-3.23,3.78-4.79c5.35-6.21,11.72-11.37,18.48-15.74c6.75-4.38,13.86-8.02,20.79-11.69
			c6.91-3.68,13.75-7.46,19.63-12.21l2.16-1.86c0.73-0.61,1.44-1.23,2.1-1.93c1.33-1.36,2.73-2.65,3.96-4.09
			c2.5-2.85,4.75-5.92,6.67-9.16c3.84-6.49,6.34-13.74,7-21.2c0.33-3.73,0.23-7.49-0.33-11.19c-0.55-3.76-1.43-7.47-2.6-11.08
			c-2.34-7.22-5.99-13.97-10.7-19.96c-4.68-6.01-10.37-11.22-16.55-15.8c-6.19-4.58-12.9-8.5-19.85-11.96
			c-13.93-6.92-28.76-12.04-43.77-16.57l-0.15-0.04l-2.47-0.75l0.8-2.37C982.32,476.04,985.27,468.38,987.98,461.13z M989.54,464.08
			c-1.75,7.42-3.28,14.43-5.09,21.26l-1.67-3.12l0.15,0.04c15.15,4.56,30.24,9.74,44.58,16.85c7.16,3.56,14.12,7.61,20.61,12.41
			c6.47,4.79,12.52,10.31,17.55,16.75c5.04,6.4,9.02,13.72,11.54,21.5c1.26,3.89,2.2,7.87,2.8,11.91c0.61,4.09,0.73,8.26,0.37,12.39
			c-0.72,8.27-3.5,16.28-7.7,23.34c-2.1,3.54-4.54,6.85-7.24,9.92c-2.74,3.05-5.69,5.85-8.84,8.46
			c-6.41,5.15-13.48,9.01-20.46,12.72c-7,3.7-13.94,7.25-20.43,11.45c-6.47,4.17-12.47,9.03-17.43,14.78
			c-1.23,1.43-2.41,2.91-3.55,4.48c-1.1,1.57-2.2,3.1-3.21,4.74c-0.53,0.8-1.02,1.61-1.49,2.44c-0.48,0.82-0.97,1.64-1.42,2.5
			c-0.9,1.68-1.73,3.39-2.49,5.14c-1.51,3.49-2.74,7.09-3.55,10.76c-0.81,3.67-1.26,7.46-1.29,11.2c-0.02,3.75,0.39,7.51,1.18,11.2
			c0.8,3.65,2.03,7.26,3.59,10.7c3.11,6.9,7.61,13.17,12.88,18.71c5.29,5.54,11.33,10.39,17.82,14.58
			c6.48,4.21,13.38,7.77,20.53,10.75c7.15,2.98,14.55,5.37,22.1,7.11c3.77,0.88,7.57,1.57,11.4,2.09c1.93,0.28,3.83,0.39,5.75,0.59
			c1.9,0.23,3.85,0.26,5.79,0.34c7.77,0.34,15.54-0.03,23.27-0.85c15.47-1.69,30.69-5.48,45.71-9.99
			c15.03-4.51,29.93-9.71,45.17-14.09c7.62-2.2,15.33-4.14,23.14-5.69c7.86-1.55,15.73-2.56,23.62-3.33
			c15.76-1.72,31.79-2.04,47.65-0.34c15.86,1.67,31.44,5.52,46.41,10.81c14.98,5.28,29.4,11.94,43.47,19.13l-2.24,0.73l0.04-0.07
			l7.68-15.11l0.73,2.24l-0.07-0.04c-14.06-7.28-28.42-14-43.27-19.43c-14.83-5.43-30.17-9.52-45.8-11.7
			c-15.64-2.2-31.5-2.44-47.27-1.35c-3.95,0.25-7.88,0.7-11.82,1.09c-3.94,0.37-7.87,0.85-11.78,1.41
			c-7.81,1.08-15.55,2.7-23.23,4.57c-15.35,3.78-30.41,8.79-45.59,13.54c-15.17,4.73-30.55,9.26-46.42,11.69
			c-7.93,1.24-15.97,1.88-24.03,1.85c-8.01-0.06-16.21-0.8-24.07-2.64c-7.88-1.78-15.58-4.37-22.95-7.66
			c-7.38-3.3-14.47-7.33-20.97-12.24c-6.49-4.91-12.42-10.75-16.82-17.86c-2.17-3.56-3.91-7.43-4.96-11.54
			c-1.05-4.13-1.32-8.45-0.85-12.66c0.47-4.22,1.69-8.32,3.37-12.12c0.84-1.89,1.79-3.78,2.82-5.52c0.52-0.9,1.05-1.79,1.62-2.64
			c0.55-0.87,1.14-1.72,1.74-2.57c2.31-3.36,5.16-6.56,8.25-9.3c3.09-2.75,6.44-5.16,9.88-7.33c6.91-4.32,14.12-7.77,21.1-11.46
			c6.98-3.66,13.78-7.55,19.92-12.25c1.51-1.19,2.97-2.47,4.46-3.7l1.11-0.93l1.04-1.01l2.08-2.03c2.82-2.66,5.33-5.61,7.7-8.67
			c4.7-6.13,8.53-12.93,11.21-20.17c2.69-7.22,4.18-14.89,4.38-22.61c0.11-3.86-0.13-7.72-0.66-11.55
			c-0.54-3.86-1.34-7.67-2.37-11.42c-2.07-7.5-5.13-14.72-9.12-21.4c-4-6.68-8.85-12.86-14.4-18.37
			c-11.09-11.06-24.54-19.6-38.69-26.48c-7.09-3.45-14.37-6.51-21.77-9.27c-3.7-1.38-7.43-2.68-11.19-3.94l-5.64-1.84l-2.81-0.89
			C990.54,464.92,990.15,464.57,989.54,464.08z"/>
	</g>
	<polygon class="st4" points="19.14,731.49 11.92,729.82 8.96,742.78 14.52,743.89 	"/>
	<polygon class="st4" points="1378.12,766.29 1382.56,768.7 1388.67,756.11 1383.3,753.89 	"/>
</g>
<g id="Ebene_26">
	<g>
		<path class="st5" d="M884.93,356.89c0,0,79.58,16.72,107.79,23.04c21.79,4.88,42.72,54.01,31.11,107.94
			c-9.2,42.71-38.37,85.5-62.56,83.7C941.29,570.09,850,555.85,850,555.85"/>
		<path d="M885.42,354.55l55.52,11.64l27.75,5.89l13.87,2.98l6.93,1.51l3.47,0.76c1.23,0.27,2.6,0.67,3.81,1.17
			c4.94,2.07,8.85,5.52,12.13,9.25c3.28,3.77,5.95,7.93,8.24,12.24c4.55,8.65,7.61,17.92,9.66,27.35
			c4.05,18.89,4.06,38.51,0.52,57.44c-1.77,9.47-4.47,18.75-7.88,27.73c-3.43,8.98-7.58,17.69-12.53,25.96
			c-4.98,8.25-10.7,16.14-17.76,22.99c-3.55,3.4-7.43,6.55-11.88,9.02c-4.41,2.45-9.53,4.27-15.01,4.16
			c-1.43-0.04-2.51-0.19-3.74-0.28c-1.2-0.11-2.4-0.22-3.58-0.36c-2.37-0.27-4.74-0.52-7.09-0.82c-4.71-0.57-9.41-1.2-14.1-1.82
			c-9.38-1.26-18.75-2.6-28.11-3.94c-18.73-2.71-37.43-5.5-56.13-8.37l0.99-6.38c18.66,2.93,37.35,5.8,56.04,8.57
			c9.34,1.38,18.69,2.75,28.04,4.04c4.67,0.64,9.35,1.28,14.02,1.86c2.34,0.31,4.67,0.57,7,0.84c1.17,0.15,2.32,0.25,3.47,0.36
			c1.12,0.1,2.39,0.25,3.32,0.27c4.03,0.11,8.17-1.26,11.99-3.36c3.84-2.1,7.38-4.93,10.66-8.06c6.55-6.31,12.08-13.81,16.88-21.72
			c4.78-7.93,8.83-16.34,12.18-25.01c3.33-8.67,5.97-17.62,7.7-26.73c3.48-18.21,3.53-37.14-0.29-55.26
			c-1.92-9.04-4.83-17.9-9.06-26.01c-2.12-4.04-4.59-7.89-7.51-11.26c-2.91-3.36-6.32-6.29-10.15-7.89
			c-0.98-0.4-1.88-0.67-2.95-0.92l-3.45-0.77l-6.91-1.53l-13.85-3.03l-27.71-5.98l-55.46-11.84L885.42,354.55z"/>
	</g>
	<g>
		<path class="st6" d="M914.77,441.87c3.27-45.08-8.65-81.26-29.84-84.98c-19.47-3.42-40.92,21.59-53.8,59.41l-7.76-2.63
			c0,0-3.47,9.92-7.14,28.76c-4.26,21.85-4.3,31.05-4.3,31.05l7.9,2.81c-1.97,42.53,9.83,75.99,30.17,79.56
			c18.41,3.23,36.81-17.5,49.84-51.89l10.69,3.52c0,0,5.64-10.67,10.36-30.13c4.73-19.46,5.8-30.8,5.8-30.8L914.77,441.87z"/>
		<g>
			<path d="M912.69,443.18c-0.13-0.75-0.23-1.58-0.23-2.4c0-0.4,0.01-0.84,0.04-1.2l0.05-0.7l0.2-2.81c0.12-1.87,0.2-3.75,0.25-5.63
				c0.12-3.75,0.11-7.51,0-11.26c-0.26-7.5-1.04-14.98-2.46-22.32c-1.43-7.33-3.56-14.55-6.87-21.14c-1.65-3.29-3.62-6.4-5.98-9.14
				c-2.37-2.71-5.15-5.04-8.34-6.5c-3.17-1.48-6.71-2.07-10.19-1.65c-3.49,0.39-6.88,1.7-10,3.5c-6.26,3.67-11.51,9.11-15.99,15.02
				c-8.9,11.97-15.14,25.87-19.7,40.13l0,0l-1.08,2.49l-2.04-0.95l-7.46-3.49l0,0l1.96-0.96c-1.58,4.7-2.9,9.63-4.11,14.53
				c-1.21,4.91-2.29,9.86-3.27,14.83c-0.98,4.97-1.88,9.96-2.64,14.96c-0.38,2.5-0.73,5.01-1.01,7.51
				c-0.28,2.49-0.54,5.05-0.62,7.47l0,0l-0.84-1.19l8.3,1.67l0,0l1.72,0.47l-0.09,1.96c-0.61,13.82,0.07,27.77,3.02,41.18
				c1.49,6.68,3.56,13.25,6.61,19.25c1.52,2.99,3.31,5.83,5.41,8.34c2.1,2.51,4.54,4.67,7.28,6.18c1.37,0.76,2.82,1.34,4.31,1.74
				c1.49,0.39,3.05,0.57,4.6,0.63c1.56,0,3.11-0.17,4.65-0.49c1.53-0.35,3.04-0.88,4.51-1.51c5.88-2.67,10.92-7.35,15.23-12.54
				c4.32-5.23,7.96-11.09,11.18-17.17c3.22-6.09,5.98-12.44,8.45-18.91l0.84-2.2l2.23,0.73l10.69,3.52l0,0l-2.94,1.19
				c1.14-2.14,2.22-4.58,3.21-6.94c1-2.39,1.92-4.82,2.81-7.27c1.74-4.91,3.27-9.9,4.6-14.95c1.34-5.07,2.56-10.18,3.66-15.3
				c1.08-5.12,2.08-10.31,2.75-15.44l0,0l0.83,1.35C921.87,446.49,917.25,444.96,912.69,443.18z M916.86,440.56
				c3.4,1.34,6.73,2.93,10.33,4.76l0.91,0.46l-0.08,0.88l0,0c-0.5,5.36-1.3,10.57-2.21,15.8c-0.92,5.22-1.96,10.42-3.12,15.6
				c-1.18,5.19-2.56,10.34-4.17,15.44c-0.82,2.54-1.68,5.08-2.63,7.59c-0.97,2.53-1.93,4.96-3.18,7.53l-0.9,1.85l-2.05-0.67l0,0
				l-10.69-3.52l3.07-1.47c-2.53,6.63-5.36,13.16-8.7,19.47c-3.34,6.3-7.13,12.42-11.74,18.01c-4.62,5.54-10.07,10.72-17.02,13.9
				c-1.75,0.76-3.56,1.39-5.45,1.82c-1.89,0.4-3.83,0.62-5.79,0.61c-1.95-0.06-3.89-0.29-5.79-0.79c-1.89-0.5-3.72-1.24-5.42-2.18
				c-3.41-1.87-6.29-4.47-8.68-7.33c-2.4-2.87-4.37-6.01-6.02-9.26c-3.31-6.52-5.46-13.44-7.03-20.42
				c-3.07-14-3.75-28.31-3.13-42.48l1.63,2.43l0,0l-7.5-3.94l-0.89-0.47l0.06-0.72l0,0c0.06-2.66,0.3-5.17,0.56-7.74
				c0.27-2.55,0.59-5.09,0.95-7.62c0.72-5.06,1.57-10.09,2.51-15.11c0.94-5.02,1.98-10.02,3.16-14.99c1.19-4.99,2.45-9.9,4.06-14.86
				l0.46-1.41l1.5,0.45l0,0l8.04,1.77l-3.12,1.54l0,0c2.65-7.22,5.63-14.33,9.15-21.18c3.49-6.86,7.49-13.5,12.26-19.62
				c4.76-6.09,10.25-11.84,17.17-15.83c3.45-1.96,7.31-3.44,11.39-3.88c4.07-0.45,8.3,0.21,12.03,1.93c3.75,1.7,6.92,4.35,9.55,7.34
				c2.62,3.01,4.76,6.36,6.53,9.84c1.78,3.49,3.21,7.11,4.42,10.8c1.21,3.68,2.2,7.43,3.01,11.2c1.61,7.55,2.5,15.22,2.94,22.9
				c0.22,3.84,0.33,7.68,0.31,11.53c0,1.92-0.04,3.84-0.1,5.76l-0.1,2.88l-0.03,0.72c0,0.11-0.02,0.15-0.05,0.23
				C917.21,440.24,917.06,440.36,916.86,440.56z"/>
		</g>
	</g>
	<path class="st5" d="M894.69,385.25c0,0-6.48-13.99-17.55-12.94c-11.07,1.05-22.02,13.6-28.45,28.58
		c-6.43,14.98-18.6,37.62-17.72,69.83c0.88,32.22-1.62,39.04,3.1,50.22c4.73,11.18,2.44,14.63,9.56,18.68
		c7.12,4.05,12.76,4.06,16.01,2.78c3.26-1.28,8.89-5.25,8.89-5.25s-7.72-3.45-13.13-22.47c-5.41-19.02,0.53-63.91,5.77-85.37
		c5.24-21.46,15.55-28.05,24.11-37.45C890.02,386.68,894.69,385.25,894.69,385.25z"/>
	<polyline class="st7" points="898.85,463.61 890.45,461.69 888.66,473.01 896.96,476.2 	"/>
	<g>
		<path d="M900.93,463.98c-3.08,16.44-7.74,32.65-14.85,47.87c-3.57,7.59-7.78,14.94-13.2,21.51c-2.75,3.24-5.79,6.32-9.5,8.68
			c-1.83,1.2-3.88,2.14-6.06,2.75c-2.18,0.6-4.53,0.78-6.82,0.4c-2.29-0.4-4.45-1.37-6.3-2.67c-1.85-1.31-3.47-2.89-4.79-4.64
			c-2.7-3.48-4.53-7.42-6.03-11.4c-2.89-8.03-4.3-16.39-5.06-24.75c-1.5-16.74-0.36-33.57,2.36-50.09c1.4-8.25,3.2-16.45,5.53-24.52
			c2.32-8.06,5.11-16.02,8.61-23.7c3.51-7.67,7.65-15.15,13.12-21.86c2.78-3.31,5.88-6.48,9.72-8.96c1.89-1.26,4.05-2.26,6.37-2.92
			c2.32-0.65,4.87-0.86,7.35-0.43c2.48,0.44,4.8,1.5,6.76,2.9c1.96,1.4,3.66,3.08,5.01,4.9c2.79,3.63,4.63,7.67,6.13,11.73
			c2.84,8.19,4.16,16.63,4.83,25.04C905.34,430.69,903.91,447.51,900.93,463.98z M896.78,463.25c2.65-16.21,3.75-32.74,2.28-48.98
			c-0.76-8.09-2.16-16.17-4.87-23.63c-1.37-3.7-3.06-7.29-5.35-10.24c-2.26-2.96-5.17-5.16-8.41-5.74c-3.24-0.54-6.73,0.5-9.87,2.51
			c-3.16,1.99-5.99,4.78-8.55,7.79c-5.08,6.11-9.14,13.24-12.58,20.6c-6.86,14.79-11.48,30.7-14.49,46.84
			c-2.93,16.16-4.32,32.68-3.11,49.04c0.66,8.15,1.98,16.3,4.65,23.93c1.38,3.78,3.08,7.46,5.45,10.57c2.34,3.11,5.47,5.56,9.1,6.23
			c3.63,0.65,7.44-0.6,10.71-2.71c3.3-2.1,6.17-4.99,8.77-8.07c2.59-3.11,4.84-6.52,6.91-10.04c2.06-3.52,3.92-7.18,5.6-10.91
			c3.36-7.48,6.1-15.24,8.36-23.14C893.64,479.39,895.4,471.35,896.78,463.25z"/>
	</g>
	
		<ellipse transform="matrix(0.2198 -0.9756 0.9756 0.2198 280.1674 1204.6354)" class="st8" cx="893.17" cy="427.17" rx="14.15" ry="5.44"/>
	
		<ellipse transform="matrix(0.1935 -0.9811 0.9811 0.1935 225.4219 1260.8698)" class="st8" cx="879.64" cy="493.32" rx="14.15" ry="5.44"/>
	<g>
		<path d="M898.1,387.58c-0.22,0.11-0.59,0.34-0.91,0.53c-0.33,0.18-0.67,0.43-1,0.64c-0.68,0.42-1.33,0.91-2,1.39
			c-0.67,0.47-1.31,0.98-1.95,1.51c-0.64,0.53-1.3,1.01-1.91,1.59c-1.24,1.11-2.5,2.21-3.65,3.43l-1.77,1.78l-1.66,1.89
			c-4.42,5.06-8.3,10.65-11.58,16.6c-6.5,11.94-10.72,25.15-13.17,38.68c-0.74,3.36-1.08,6.81-1.57,10.23
			c-0.54,3.42-0.75,6.87-1.05,10.31l-0.22,2.58c-0.07,0.86-0.06,1.72-0.1,2.58l-0.15,5.17c-0.1,1.73,0.04,3.44,0.06,5.16l0.07,2.58
			c0.02,0.86,0.04,1.72,0.13,2.57l0.45,5.13c0.16,1.71,0.48,3.39,0.72,5.09c0.21,1.71,0.61,3.37,0.97,5.04
			c0.19,0.83,0.35,1.68,0.56,2.5l0.71,2.45c0.25,0.81,0.45,1.65,0.74,2.45l0.88,2.39l0.44,1.2l0.52,1.16
			c0.35,0.77,0.68,1.55,1.04,2.31l1.19,2.23c0.4,0.74,0.88,1.42,1.31,2.14c0.44,0.71,0.96,1.35,1.44,2.02
			c0.5,0.61,1.08,1.3,1.54,1.73l-2.09,2.46c-0.83-0.74-1.38-1.4-2.01-2.12c-0.56-0.73-1.15-1.45-1.66-2.21
			c-0.49-0.77-1.04-1.51-1.48-2.3l-1.34-2.37c-0.41-0.81-0.78-1.63-1.17-2.44l-0.58-1.22l-0.49-1.25l-0.99-2.51
			c-0.33-0.84-0.56-1.7-0.84-2.55l-0.81-2.57c-0.24-0.86-0.43-1.73-0.65-2.6c-0.42-1.74-0.88-3.47-1.14-5.23
			c-0.28-1.76-0.66-3.51-0.87-5.28l-0.59-5.31c-0.12-0.88-0.16-1.77-0.2-2.66l-0.13-2.66c-0.06-1.77-0.25-3.55-0.19-5.32l0.03-5.32
			c0.02-0.89-0.01-1.78,0.04-2.66l0.16-2.65c0.22-3.53,0.36-7.08,0.83-10.58c0.42-3.51,0.69-7.04,1.37-10.54
			c2.2-14.02,6.26-27.91,12.84-40.72c3.33-6.38,7.32-12.45,11.97-18.03l1.75-2.09l1.88-1.99c1.22-1.35,2.57-2.59,3.91-3.85
			c0.65-0.64,1.38-1.21,2.08-1.81c0.7-0.6,1.4-1.19,2.16-1.75c0.74-0.57,1.47-1.13,2.27-1.66c0.4-0.27,0.76-0.54,1.19-0.8
			c0.43-0.27,0.79-0.51,1.34-0.81L898.1,387.58z"/>
	</g>
	<polygon class="st7" points="839.78,444.71 837.73,454.58 861.86,460.15 865.18,449.95 	"/>
	<g>
		<path class="st9" d="M547.07,357.32c0,0-69.06,8.79-82.24,10.37c-9.81,1.18-27,26.38-28.88,56.22
			c-24.56,2.05-47.35,4.64-48.79,7.27c-6.64,12.08,3.44,65.83,16.3,75.56c3.08,2.33,17.89,0.74,40.35-0.69
			c8.77,20.12,20.63,34.09,29.56,36.77c15.12,4.55,84.71-5.87,84.71-5.87L547.07,357.32z"/>
		<path d="M546.34,358.2c-12.53,2.01-24.81,4-36.93,5.84c-12.13,1.87-24.12,3.58-36.14,5.19l-4.51,0.6l-2.26,0.29l-1.13,0.14
			l-0.44,0.06c-0.12,0.01-0.24,0.05-0.37,0.08c-1.02,0.26-2.18,0.88-3.27,1.66c-1.1,0.79-2.17,1.73-3.18,2.75
			c-4.07,4.12-7.38,9.24-10.17,14.55c-2.79,5.34-5.04,10.99-6.77,16.8c-1.78,5.8-2.91,11.8-3.57,17.85l-0.16,1.49l-1.36,0.06l0,0
			c-7.03,0.79-14.06,1.55-21.06,2.47c-6.98,0.9-14.02,1.8-20.76,3.24c-1.65,0.37-3.37,0.79-4.65,1.33c-0.29,0.12-0.57,0.3-0.52,0.27
			c0.02-0.01,0.04-0.03,0.05-0.05c0.05-0.04,0.09-0.08,0.12-0.13c0.06-0.06,0.16-0.22,0.17-0.24l-0.05,0.11
			c-0.06,0.15-0.14,0.27-0.2,0.44c-0.26,0.61-0.48,1.33-0.64,2.09c-0.68,3.05-0.78,6.5-0.72,9.9c0.17,6.85,1.1,13.77,2.4,20.6
			c1.31,6.82,2.96,13.6,5.16,20.14c1.1,3.26,2.34,6.47,3.79,9.5c1.44,3,3.15,5.94,5.14,8c0.24,0.26,0.5,0.48,0.74,0.69l0.19,0.15
			c0.04,0.03,0.17,0.15,0.12,0.09c-0.01-0.02-0.06-0.03-0.05-0.03c0.02,0,0.03,0.01,0.05,0.02c0.26,0.12,0.99,0.28,1.71,0.36
			c1.49,0.18,3.2,0.21,4.89,0.2c3.42-0.03,6.93-0.22,10.44-0.43c7.03-0.38,14.11-0.9,21.2-1.24l0,0l2.1-0.14l0.84,1.93
			c2.17,4.98,4.65,9.83,7.45,14.45c2.81,4.61,5.96,9.02,9.55,12.89c1.8,1.92,3.72,3.71,5.76,5.17c1.02,0.73,2.06,1.38,3.11,1.88
			c1.08,0.51,2.01,0.83,3.22,1.05c2.41,0.44,5.12,0.59,7.81,0.66c2.7,0.06,5.43,0.02,8.17-0.07c10.97-0.4,22.01-1.45,33.02-2.65
			c11.01-1.22,22.03-2.64,32.98-4.24l0,0l-2.55,3.15L546.34,358.2z M547.79,356.44l13.27,180.33l0.2,2.71l-2.75,0.44l0,0
			c-11.06,1.62-22.11,3.04-33.21,4.27c-11.1,1.21-22.22,2.27-33.48,2.68c-2.82,0.09-5.65,0.14-8.51,0.07
			c-2.87-0.07-5.73-0.21-8.8-0.76c-1.53-0.26-3.26-0.83-4.68-1.53c-1.46-0.7-2.78-1.52-4.02-2.41c-2.48-1.78-4.64-3.82-6.64-5.95
			c-3.98-4.29-7.32-8.98-10.29-13.86c-2.97-4.89-5.56-9.97-7.83-15.18l2.94,1.79l0,0c-7.04,0.55-14.09,1.1-21.19,1.6
			c-3.56,0.22-7.12,0.43-10.78,0.47c-1.84,0.01-3.68,0-5.71-0.24c-1.03-0.14-2.07-0.27-3.45-0.82l-0.55-0.26
			c-0.19-0.1-0.41-0.25-0.61-0.38c-0.25-0.16-0.28-0.21-0.41-0.31l-0.33-0.27c-0.43-0.36-0.84-0.73-1.2-1.11
			c-2.94-3.06-4.69-6.43-6.3-9.78c-1.58-3.37-2.85-6.8-3.98-10.25c-2.24-6.91-3.92-13.93-5.14-21.04
			c-1.19-7.11-2.01-14.28-2.04-21.6c0.02-3.67,0.17-7.35,1.1-11.21c0.24-0.97,0.55-1.95,1-2.95c0.1-0.25,0.25-0.51,0.38-0.76
			l0.1-0.19c0.07-0.12,0.23-0.37,0.35-0.52c0.11-0.13,0.23-0.26,0.35-0.37l0.31-0.26c0.76-0.56,1.29-0.76,1.82-0.98
			c2.02-0.75,3.78-1.07,5.59-1.43c7.17-1.28,14.21-1.96,21.3-2.61c7.08-0.59,14.16-1.11,21.24-1.5l0,0l-1.52,1.55
			c0.38-12.66,3.52-25.27,9.19-36.72c1.41-2.87,3.01-5.65,4.8-8.34c1.8-2.68,3.77-5.28,6.12-7.64c1.17-1.18,2.44-2.31,3.87-3.32
			c1.44-1,3.02-1.94,5.02-2.46c0.26-0.06,0.5-0.12,0.77-0.16c0.28-0.05,0.54-0.08,0.71-0.1l1.18-0.15l2.36-0.3l4.73-0.56
			c12.62-1.5,25.27-2.9,37.77-4.13C523.33,358.66,535.69,357.54,547.79,356.44z"/>
	</g>
	<polygon class="st6" points="389.25,429.74 409.53,426.05 410.92,410.38 	"/>
	<g>
		<path class="st10" d="M578.58,457.46l-2.05-14.47l7.59-1.23c-3.66-46.25-21.49-83.07-35.92-83.14
			c-20.52-0.11-35.31,37.39-31.85,92.49c0.07,1.06,0.15,2.1,0.22,3.15l9.16-1.22l1.49,11.63l-9.48,2.06
			c5.27,45.14,21.87,74.26,41.35,70.68c17.32-3.18,26.83-36.67,25.78-80.96L578.58,457.46z"/>
		<path d="M576.87,459.78c-0.55-2.71-1.06-5.49-1.48-8.26c-0.42-2.78-0.74-5.54-1-8.22l-0.21-2.2l1.99-0.22h0l7.48-1.95l-2.41,3.07
			l0,0c-1.02-16.72-4.05-33.41-9.54-49.22c-2.79-7.86-6.23-15.56-10.89-22.29c-2.33-3.31-5.05-6.43-8.24-8.35
			c-0.79-0.47-1.61-0.84-2.42-1.07c-0.41-0.12-0.81-0.21-1.22-0.25c-0.4-0.06-0.78-0.06-1.27-0.04c-1.85,0.05-3.67,0.48-5.39,1.23
			c-3.45,1.49-6.42,4.22-8.86,7.37c-2.45,3.17-4.42,6.78-6.07,10.55c-3.29,7.55-5.35,15.7-6.7,23.94
			c-2.68,16.52-2.74,33.46-1.22,50.19l-3.25-2.64l0,0l9.16-1.22l2.86-0.38l0.37,2.87l0,0l0.09,11.81l0.01,1.51l-1.15,0.11l0,0
			l-9.18,3.43l2.25-3.14l0,0c0.84,7.33,2,14.62,3.62,21.79c1.62,7.16,3.69,14.22,6.43,20.96c2.75,6.7,6.18,13.2,10.86,18.4
			c2.34,2.56,5.01,4.78,7.99,6.14c2.96,1.38,6.22,1.79,9.36,1.16c3.04-0.59,5.83-2.41,8.13-4.87c2.32-2.46,4.19-5.48,5.76-8.67
			c3.12-6.43,5.11-13.53,6.56-20.7c2.84-14.41,3.58-29.3,3.32-44.1v0l2.6,2.16c-1.3,0.32-2.69,0.6-4.11,0.79
			C579.71,459.63,578.26,459.73,576.87,459.78z M580.28,455.15c0.71-0.29,1.37-0.53,2.05-0.68c0.68-0.15,1.39-0.21,2.2-0.24
			l2.6-0.07v2.23v0c0.37,15.04-0.26,30.19-3.09,45.13c-1.46,7.45-3.45,14.89-6.81,21.94c-1.7,3.51-3.76,6.94-6.55,9.95
			c-1.39,1.5-2.98,2.88-4.79,4.01c-1.81,1.12-3.85,2-6,2.43c-4.18,0.89-8.7,0.32-12.52-1.44c-3.85-1.73-7.04-4.4-9.74-7.31
			c-5.37-5.91-9.02-12.84-11.99-19.89c-2.94-7.08-5.13-14.4-6.86-21.78c-1.72-7.39-2.97-14.87-3.88-22.37v0l0.07-2.99l2.18-0.15
			l9.78-0.68l0,0l-1.14,1.62l-2.89-11.45l0,0l3.23,2.48l-9.16,1.22l0,0l-3.08,0.36l-0.17-3c-0.49-8.56-0.65-17.16-0.3-25.74
			c0.34-8.58,1.13-17.17,2.65-25.66c0.77-4.25,1.71-8.47,2.89-12.64c1.17-4.17,2.58-8.3,4.35-12.3c1.77-4,3.92-7.89,6.68-11.44
			c2.76-3.51,6.22-6.76,10.61-8.64c2.18-0.94,4.57-1.49,6.96-1.54c0.57-0.02,1.26-0.02,1.91,0.07c0.65,0.07,1.28,0.21,1.9,0.38
			c1.23,0.35,2.36,0.87,3.4,1.47c4.14,2.48,7.07,5.97,9.65,9.54c5.08,7.23,8.6,15.2,11.6,23.27c2.98,8.1,5.27,16.41,7.05,24.82
			c1.82,8.41,3.08,16.92,3.93,25.49v0v2.91l-2.41,0.16l-7.71,0.51l0,0l1.78-2.42c0.43,2.14,0.79,4.2,1.05,6.25
			C579.98,450.99,580.15,453.03,580.28,455.15z"/>
	</g>
	<g>
		<path class="st11" d="M546.3,412.73c0,0-1.65,3.44-1.45,9.08c0.17,4.62,3.47,8.47,3.47,8.47s53.07-2.29,73.87-4.48
			c17.51-1.84,15.86-19.26-1.34-18.54C599.93,408.14,546.3,412.73,546.3,412.73z"/>
		<path d="M546.98,413.71c0.13-0.08,0.26-0.21,0.35-0.36l0.05-0.09l0,0.01l0,0.01l-0.02,0.05l-0.04,0.12l-0.07,0.25l-0.14,0.51
			c-0.09,0.35-0.16,0.7-0.22,1.05c-0.13,0.71-0.21,1.43-0.27,2.15c-0.1,1.45-0.06,2.9,0.1,4.34c0.17,1.26,0.59,2.52,1.22,3.71
			c0.31,0.59,0.67,1.17,1.06,1.73c0.38,0.53,0.86,1.13,1.22,1.49l0,0l-1.98-0.86c15.32-0.58,30.65-1.23,45.96-2.05
			c7.65-0.42,15.31-0.87,22.92-1.47l2.85-0.25c0.93-0.09,1.94-0.16,2.79-0.27c1.75-0.23,3.46-0.65,4.99-1.35
			c1.53-0.69,2.88-1.66,3.79-2.88c0.92-1.21,1.35-2.66,1.18-4.07c-0.16-1.41-0.95-2.76-2.12-3.8c-1.17-1.04-2.71-1.77-4.36-2.2
			c-1.66-0.43-3.43-0.58-5.22-0.52l-5.72,0.25c-7.65,0.38-15.3,0.86-22.95,1.37l-22.96,1.61l-11.48,0.85l-5.74,0.44l-2.87,0.22
			l-1.43,0.11l-0.72,0.06c-0.17,0.02-0.09,0.01-0.11-0.02C547.01,413.81,547.01,413.76,546.98,413.71z M545.63,411.74
			c0.21-0.08,0.45-0.14,0.69-0.19c0.22-0.05,0.54-0.08,0.61-0.08l0.72-0.07l1.43-0.13l2.87-0.26l5.73-0.51l11.47-1.01l22.95-1.92
			c7.66-0.61,15.31-1.2,22.99-1.68l5.77-0.33c2.04-0.09,4.14,0.04,6.21,0.55c2.06,0.51,4.12,1.4,5.85,2.89
			c1.72,1.46,3.08,3.6,3.4,6.02c0.35,2.41-0.41,4.9-1.79,6.75c-1.37,1.89-3.25,3.21-5.19,4.12c-1.96,0.92-4.01,1.44-6.06,1.74
			c-1.05,0.15-1.96,0.22-2.94,0.33l-2.88,0.29c-7.68,0.72-15.34,1.27-23.01,1.8c-15.33,1.04-30.66,1.91-46.01,2.7l-1.2,0.06
			l-0.78-0.92l0,0c-0.62-0.84-1.01-1.52-1.43-2.32c-0.4-0.77-0.76-1.58-1.06-2.4c-0.6-1.65-0.96-3.44-0.95-5.27
			c0.05-1.66,0.24-3.31,0.59-4.92c0.18-0.81,0.39-1.61,0.65-2.39c0.13-0.39,0.27-0.78,0.43-1.17l0.25-0.58l0.14-0.29l0.07-0.15
			l0.04-0.08l0.07-0.14C545.34,412,545.48,411.85,545.63,411.74z"/>
	</g>
	<g>
		<path class="st11" d="M551.92,477.84c0,0-2.03,3.79-1.45,8.8c0.78,6.78,5.11,8.65,5.11,8.65s51.38-2.8,72.23-4.38
			c16.96-1.28,15.86-19.32-1.34-18.54C605.55,473.32,551.92,477.84,551.92,477.84z"/>
		<path d="M552.78,479.15c0.16-0.1,0.32-0.24,0.43-0.41l0.08-0.12c0.02-0.04,0-0.01,0.01-0.02l-0.01,0.01l-0.02,0.05l-0.05,0.11
			l-0.09,0.24l-0.17,0.51c-0.11,0.35-0.21,0.7-0.29,1.05c-0.17,0.71-0.28,1.44-0.35,2.16c-0.13,1.45-0.04,2.89,0.26,4.28
			c0.3,1.38,0.77,2.69,1.51,3.75c0.35,0.54,0.77,1.01,1.22,1.42c0.22,0.2,0.46,0.38,0.69,0.54c0.12,0.07,0.24,0.15,0.35,0.21
			c0.06,0.03,0.11,0.06,0.16,0.08c0.02,0.01,0.05,0.03,0.06,0.03c0.01,0,0.05,0.02-0.01-0.01l0,0l-1.11-0.2l45.49-2.39
			c7.58-0.43,15.16-0.86,22.72-1.35l2.83-0.19c0.98-0.06,1.83-0.14,2.67-0.25c1.69-0.24,3.31-0.72,4.72-1.48
			c0.72-0.36,1.33-0.84,1.91-1.33c0.54-0.52,1.02-1.09,1.38-1.71c0.69-1.25,0.95-2.68,0.61-4.03c-0.3-1.35-1.18-2.6-2.38-3.52
			c-1.19-0.96-2.74-1.55-4.37-1.91c-1.66-0.36-3.33-0.41-5.18-0.32l-5.67,0.28c-7.57,0.41-15.14,0.9-22.71,1.42l-22.72,1.63
			l-11.36,0.86l-5.68,0.44l-2.84,0.22l-1.42,0.11l-0.71,0.06c-0.19,0.02-0.04,0-0.04-0.03
			C552.75,479.27,552.78,479.22,552.78,479.15z M551.06,476.53c0.24-0.09,0.5-0.17,0.77-0.22c0.23-0.05,0.62-0.09,0.67-0.09
			l0.71-0.06l1.42-0.13l2.84-0.25l5.68-0.49l11.35-0.97l22.72-1.85c7.58-0.59,15.16-1.16,22.75-1.65l5.71-0.33
			c1.94-0.11,4.09-0.09,6.16,0.34c2.07,0.44,4.18,1.19,5.98,2.59c1.81,1.36,3.31,3.36,3.88,5.72c0.62,2.35,0.18,4.91-0.96,6.98
			c-0.58,1.03-1.32,1.94-2.15,2.73c-0.85,0.75-1.75,1.44-2.73,1.95c-1.93,1.07-4.01,1.68-6.07,2c-1.04,0.15-2.08,0.25-2.99,0.31
			l-2.85,0.22c-7.59,0.57-15.17,1.08-22.75,1.58l-45.49,2.85l-0.58,0.04l-0.53-0.23l0,0c-0.16-0.07-0.21-0.1-0.29-0.15l-0.2-0.12
			c-0.13-0.08-0.25-0.16-0.36-0.23c-0.24-0.16-0.44-0.32-0.65-0.49c-0.4-0.34-0.79-0.69-1.13-1.07c-0.69-0.75-1.28-1.57-1.74-2.44
			c-0.96-1.72-1.44-3.59-1.66-5.4c-0.23-1.82-0.14-3.66,0.19-5.43c0.17-0.88,0.4-1.75,0.68-2.6c0.14-0.42,0.3-0.84,0.48-1.26
			l0.28-0.62l0.16-0.31l0.08-0.16l0.05-0.08l0.11-0.2C550.72,476.82,550.89,476.65,551.06,476.53z"/>
	</g>
	<g>
		<polyline class="st12" points="514.74,454.35 430.57,462.4 434.19,473.86 517.75,466.72 		"/>
		<polygon points="515.02,457.21 430.84,465.26 433.31,461.53 435.51,473.44 434.07,472.48 517.51,463.86 518,469.59 434.31,475.23 
			433.34,475.3 432.87,474.27 427.83,463.27 426.3,459.92 430.3,459.54 514.47,451.49 		"/>
	</g>
	<g>
		<path d="M385.37,429.49c3.84-3.82,7.71-7.55,11.64-11.26c1.98-1.84,3.97-3.66,6.02-5.45c2.02-1.81,4.12-3.55,6.3-5.24l1.69-1.23
			c0.56-0.41,1.2-0.78,1.8-1.17l0.46-0.29l0.52-0.26l1.05-0.52c0.7-0.31,1.4-0.52,2.1-0.75c2.77-0.81,5.49-1.28,8.21-1.65
			c5.45-0.72,10.81-1.12,16.29-1.44l0.03,4.93c-5.24-0.15-10.6,0.01-15.79,0.62c-2.59,0.32-5.18,0.72-7.56,1.42
			c-0.57,0.2-1.16,0.37-1.67,0.62l-0.75,0.38l-0.38,0.19l-0.39,0.25c-0.52,0.35-1.04,0.65-1.56,1.03l-1.55,1.15
			c-4.1,3.2-8.01,6.84-11.8,10.56c-3.8,3.72-7.51,7.58-11.08,11.5L385.37,429.49z"/>
	</g>
	<g>
		<line class="st1" x1="434.79" y1="423.65" x2="503.57" y2="417.97"/>
		<polygon points="434.65,422.01 503.57,417.97 434.92,425.28 		"/>
	</g>
	<g>
		<line class="st1" x1="435.21" y1="506.62" x2="492.37" y2="501.86"/>
		<polygon points="435,504.16 492.37,501.86 435.41,509.08 		"/>
	</g>
	<path class="st13" d="M928.31,446.72l102.64,20.33c0,0,2.44,11.71-2,30.85c-4.45,19.14-11.67,29.72-11.67,29.72l-105.31-18.36"/>
	<g id="Ebene_29">
		<polygon class="st14" points="524.79,453.14 430.84,463.64 434.18,473.17 446.1,467.45 526.22,462.68 		"/>
		<path class="st3" d="M390.3,475.08c0,0,17.17,20.51,19.08,20.98c1.91,0.48,112.07-1.43,112.07-1.43l5.72,12.4L452.3,518
			l-11.92-10.49l-36.72,0.48L390.3,475.08z"/>
		<path class="st3" d="M460.41,531.35l73.92-5.72c0,0,14.78,11.45,13.35,11.45c-1.43,0-47.21,7.63-62.47,6.68
			S460.41,531.35,460.41,531.35z"/>
		<polygon class="st3" points="899.15,505.12 896.29,517.52 1005.02,536.12 1010.26,527.06 1016.46,527.54 1019.8,521.82 
			912.98,502.26 910.12,507.03 		"/>
		<polygon class="st3" points="916.32,438.84 1006.93,455.05 916.32,429.78 		"/>
		<path class="st15" d="M853.37,394.01l22.89,9.54c0,0,7.63-8.58,9.54-10.97c1.91-2.38,8.58-6.2,8.58-6.2s-8.58-16.69-16.21-15.74
			S853.37,394.01,853.37,394.01z"/>
		<path class="st3" d="M861.95,556.15l23.37-20.03l105.39,18.6c0,0-13.83,14.31-24.32,15.74S861.95,556.15,861.95,556.15z"/>
		<polygon class="st3" points="384.1,460.77 378.38,485.57 389.35,481.76 		"/>
		<path class="st3" d="M545.77,487c1.68,12.61,6.2,15.26,10.01,14.31c3.82-0.95,6.68-5.25,6.68-5.25l-6.68-0.48
			c0,0-5.72-6.2-5.72-8.58s1.91-9.54,1.91-9.54h3.34c0,0-0.48-6.2-4.29-4.77C547.2,474.13,544.82,479.85,545.77,487z"/>
		<path class="st3" d="M553.4,430.73c0,0,0.95,6.68-4.77,7.15c-5.72,0.48-6.2-4.77-7.63-15.26s2.38-16.69,5.72-17.17
			s5.25,6.68,5.25,6.68l-5.25,0.95c0,0-2.86,5.25-1.43,10.49c1.43,5.25,3.34,7.63,3.34,7.63L553.4,430.73z"/>
	</g>
	<path class="st16" d="M533.97,360.2c0,0-8.36-40.86-30.56-40.33c-32.96,0.78-59.44,77.65-29.25,91.55
		c31.98,14.73,39-49.23,39-49.23"/>
	<path class="st17" d="M456.73,371.87c0,0-11.46-28.65-34.89-21.29c-25.36,7.97-25.04,104.75,8.84,103.95
		c31.4-0.74,15.29-67.19,15.29-67.19L456.73,371.87z"/>
	<path class="st16" d="M425.26,403.69c0,0-17.11-35.56-46.88-33.66c-23.02,1.47-54.15,51.91-36.73,60.55
		c24.85,12.33,37.99-24.69,46.79-26.05s22.55,12.91,22.55,12.91L425.26,403.69z"/>
	<g>
		<path class="st18" d="M450.69,410.29c-0.4-1.96-0.67-3.92-1.02-5.87l-1.07-5.84c-0.41-1.93-0.72-3.88-1.18-5.8l-0.62-2.89
			l-0.7-2.87c-0.93-3.83-1.99-7.62-3.2-11.37c-0.63-1.87-1.25-3.74-1.97-5.58c-0.67-1.86-1.45-3.67-2.31-5.47
			c2.32,3.24,4.07,6.88,5.55,10.59c1.49,3.71,2.63,7.55,3.61,11.42c0.95,3.88,1.65,7.81,2.15,11.77c0.27,1.97,0.4,3.97,0.57,5.95
			C450.58,406.32,450.68,408.3,450.69,410.29z"/>
	</g>
	<g>
		<path class="st18" d="M407.14,368.44c-0.73,4.24-1.47,8.47-2.1,12.69c-0.61,4.23-1.09,8.46-1.28,12.71
			c-0.23,4.25-0.18,8.51-0.03,12.78l0.59,12.86c-0.83-4.22-1.53-8.47-1.94-12.77c-0.43-4.29-0.56-8.63-0.35-12.96
			c0.23-4.33,0.8-8.63,1.68-12.85C404.58,376.66,405.75,372.51,407.14,368.44z"/>
	</g>
	<g>
		<path class="st18" d="M515.02,336.59c0.41,2.97,0.61,5.96,0.65,8.95c0.07,2.99-0.05,5.98-0.25,8.97
			c-0.22,2.98-0.54,5.96-1.01,8.91c-0.46,2.95-1.04,5.9-1.9,8.77c0.14-3,0.35-5.96,0.56-8.93l0.63-8.88l0.63-8.88
			C514.54,342.55,514.71,339.58,515.02,336.59z"/>
	</g>
	<path class="st16" d="M546.07,539.09c0,0-3,23.21-26.43,28.19c-26.1,5.55-68.52-52.73-39.15-62.14
		c34.52-11.06,50.96,35.88,50.96,35.88L546.07,539.09z"/>
	<path class="st19" d="M938.72,349.91c0,0,12.48-28.05,36.35-24.73c25.84,3.59,40.76,96.16,7.79,100.78
		c-30.56,4.28-23.35-55.35-23.35-55.35L938.72,349.91z"/>
	<path class="st20" d="M889.02,356.95c0,0,11.98-37.14,36.55-33.52c32.04,4.72,48.18,81.37,20.09,88.34
		c-25.19,6.25-33.52-50.83-33.52-50.83"/>
	<path class="st20" d="M974.28,384.93c0,0,18.37-34.14,47.49-30.96c22.52,2.46,50.84,53.34,33.36,61.05
		c-24.94,11-36.19-25.92-44.77-27.64s-22.7,11.67-22.7,11.67L974.28,384.93z"/>
	<path class="st20" d="M875.05,557.67c0,0-0.25,22.99,21.87,31.03c24.64,8.96,73.04-41.02,45.75-54.17
		c-32.08-15.46-53.66,27.01-53.66,27.01L875.05,557.67z"/>
	<path class="st21" d="M550.14,416.37v4.15l79.29-4.61c0,0-1.84-4.61-8.76-5.07C613.75,410.38,550.14,416.37,550.14,416.37z"/>
	<path class="st21" d="M554.75,481.37l0.46,5.07l78.83-5.53c0,0-1.84-4.15-7.84-4.61S554.75,481.37,554.75,481.37z"/>
	<polygon class="st21" points="841.79,447.13 840.71,452.62 845.72,454.15 845.92,447.72 	"/>
	<polygon class="st21" points="890.73,471.59 891.88,463.8 895.98,465.31 	"/>
	<g>
		<path class="st18" d="M946.47,336.35c1.7,2.17,3.27,4.44,4.83,6.72c1.51,2.32,2.94,4.69,4.23,7.15c2.61,4.9,4.56,10.19,5.74,15.65
			c1.14,5.47,1.47,11.1,1.07,16.64c-0.4,5.54-1.41,11.02-3.13,16.27c1.03-5.41,1.57-10.89,1.72-16.34
			c0.11-5.45-0.29-10.89-1.43-16.2c-1.11-5.31-2.92-10.46-5.23-15.4C951.96,345.9,949.25,341.11,946.47,336.35z"/>
	</g>
	<g>
		<path class="st18" d="M998.39,356.1c1.1,2.62,1.97,5.33,2.68,8.08c0.71,2.75,1.24,5.55,1.64,8.36c0.75,5.64,0.89,11.37,0.14,17
			c-0.37-2.82-0.62-5.63-0.92-8.42c-0.31-2.79-0.62-5.57-1.01-8.34c-0.36-2.78-0.8-5.54-1.22-8.32
			C999.25,361.7,998.77,358.93,998.39,356.1z"/>
	</g>
	<g>
		<path class="st18" d="M892.95,553.28c-0.54,1.52-1.21,2.94-1.9,4.35c-0.68,1.41-1.41,2.79-2.14,4.16
			c-0.76,1.36-1.5,2.73-2.31,4.07c-0.8,1.35-1.63,2.67-2.57,3.99c0.24-1.6,0.73-3.12,1.3-4.6c0.56-1.48,1.25-2.91,2-4.31
			c0.78-1.38,1.58-2.74,2.52-4.02C890.78,555.63,891.79,554.4,892.95,553.28z"/>
	</g>
	<g>
		<path class="st18" d="M529.07,533.4c1.82,2.23,3.1,4.74,4.16,7.35c0.5,1.31,0.96,2.65,1.28,4.03c0.33,1.37,0.57,2.79,0.52,4.23
			c-0.65-1.28-1.25-2.53-1.81-3.8c-0.57-1.26-1.09-2.54-1.61-3.82c-0.49-1.29-1-2.58-1.43-3.91
			C529.75,536.16,529.34,534.82,529.07,533.4z"/>
	</g>
</g>
</svg>
