<svg width="601" height="158" viewBox="0 0 601 158" fill="none" xmlns="http://www.w3.org/2000/svg">
<path d="M244.4 111.1H213.8V89H206V140.9H213.8V118.4H244.4V140.9H252.2V89H244.4V111.1Z" fill="#94928E"/>
<path d="M290.4 122.7C290.4 129.8 285.7 134.9 279.3 134.9C272.6 134.9 267.9 129.9 267.9 122.7C267.9 115.5 272.6 110.5 279.3 110.5C285.7 110.5 290.4 115.7 290.4 122.7ZM290.2 109.5C288.8 107.5 285.1 103.7 278 103.7C269.2 103.7 260.3 110.2 260.3 122.7C260.3 133.9 267.6 141.7 278 141.7C284.8 141.7 288.5 138.1 290.2 135.7V140.9H297.5V104.5H290.2V109.5Z" fill="#94928E"/>
<path d="M326.9 119.2C325.6 119.1 324.6 118.9 323.6 118.8C322.2 118.6 320.9 118.5 319.2 118.3C314.1 117.7 313.5 115.6 313.5 114.1C313.5 111.5 316.5 110 321.2 110C327.6 110 330.1 113 331 114L331.1 114.1H338.8L338.6 113.6C337.6 110.6 334 103.5 321.2 103.5C312.2 103.5 306.2 107.8 306.2 114.3C306.2 120.5 310.5 124.4 318.2 125.3L325.8 126.2C330.8 126.8 331.8 128.5 331.8 130.9C331.8 133.7 328.5 135.5 323.2 135.5C315.9 135.5 313.2 131.6 312.8 130.6L312.7 130.3H304.9L305 130.8C305.1 131.3 307.9 142 323.1 142C332.6 142 339 137.5 339 130.9C339.3 124 335.3 120.3 326.9 119.2Z" fill="#94928E"/>
<path d="M366.5 103.8C360.5 103.8 356.6 107.3 354.8 110.1V87.2002H347.5V141H354.8V121.4C354.8 115 358.9 110.7 364.9 110.7C370.8 110.7 374.7 114.9 374.7 121.4V141H382.1V120.2C382 110.5 375.6 103.8 366.5 103.8Z" fill="#94928E"/>
<path d="M409.2 135C402.5 135 397.6 129.9 397.6 122.8C397.6 115.6 402.4 110.5 409.2 110.5C416 110.5 420.7 115.6 420.7 122.8C420.7 129.9 415.8 135 409.2 135ZM420.5 109.5C418.7 107 414.6 103.7 407.9 103.7C397.3 103.7 389.9 111.6 389.9 122.8C389.9 134 397.3 141.8 407.9 141.8C414.5 141.8 418.6 138.4 420.5 135.8V140.5C420.5 147.2 416.2 151.1 408.8 151.1C403.8 151.1 400.1 149.3 398.2 146.1L398.1 145.9H390.2L390.3 146.4C390.4 146.9 393.4 157.9 408.8 157.9C420.5 157.9 427.8 151.2 427.8 140.5V104.5H420.5V109.5Z" fill="#94928E"/>
<path d="M446.1 109.9V104.6H438.8V141H446.1V120.5C446.1 114.1 449.4 111.7 458 111.7H467.5V104.4H458.2C450.9 104.3 447.6 107.5 446.1 109.9Z" fill="#94928E"/>
<path d="M501.2 122.7C501.2 129.8 496.5 134.9 490.1 134.9C483.4 134.9 478.7 129.9 478.7 122.7C478.7 115.5 483.4 110.5 490.1 110.5C496.5 110.5 501.2 115.7 501.2 122.7ZM501 109.5C499.6 107.5 495.9 103.7 488.8 103.7C480 103.7 471.1 110.2 471.1 122.7C471.1 133.9 478.4 141.7 488.8 141.7C495.6 141.7 499.3 138.1 501 135.7V140.9H508.3V104.5H501V109.5Z" fill="#94928E"/>
<path d="M538 110.5C544.8 110.5 549.6 115.5 549.6 122.7C549.6 129.9 544.8 134.9 538 134.9C531.2 134.9 526.4 129.9 526.4 122.7C526.4 115.5 531.2 110.5 538 110.5ZM539.2 103.7C532.4 103.7 528.3 107.3 526.6 109.7V104.6H519.3V157.1H526.6V136.2C528.4 138.5 532.8 141.9 539.2 141.9C549.7 141.9 557.1 134.1 557.1 122.9C557 111.5 549.7 103.7 539.2 103.7Z" fill="#94928E"/>
<path d="M584.5 103.8C578.5 103.8 574.6 107.3 572.8 110.1V87.2002H565.5V141H572.8V121.4C572.8 115 576.9 110.7 582.9 110.7C588.8 110.7 592.7 114.9 592.7 121.4V141H600.1V120.2C600 110.5 593.6 103.8 584.5 103.8Z" fill="#94928E"/>
<path d="M95.2001 70.0996H56.6001V79.6996H95.2001V70.0996Z" fill="#4A4846"/>
<path d="M75.5 0C33.8 0 0 33.8 0 75.5C0 117.2 33.8 151 75.5 151C117.2 151 151 117.2 151 75.5C151 33.8 117.2 0 75.5 0ZM103.6 105.4H94.8V86.8H56.2V105.4H47.5V45H56.3V63.2H94.9V45H103.7V105.4H103.6Z" fill="#4A4846"/>
<path d="M244.4 30.8002H213.8V8.7002H206V60.6002H213.8V38.1002H244.4V60.6002H252.2V8.7002H244.4V30.8002Z" fill="#4A4846"/>
<path d="M279 29.8004C284.1 29.8004 287.6 32.4004 289.3 37.4004H268.5C270 32.5004 273.8 29.8004 279 29.8004ZM279 23.4004C268.5 23.4004 260.5 31.6004 260.5 42.4004C260.5 53.3004 268.7 61.4004 279.6 61.4004C292.1 61.4004 296.5 53.0004 297.1 50.1004L297.2 49.6004H290L289.9 49.8004C289.8 50.0004 287.4 54.6004 279.7 54.6004C273.3 54.6004 268.6 50.1004 268 43.6004H297.6V43.2004C297.6 31.6004 289.9 23.4004 279 23.4004Z" fill="#4A4846"/>
<path d="M322.5 54.5998C315.6 54.5998 310.9 49.5998 310.9 42.3998C310.9 35.1998 315.7 30.1998 322.5 30.1998C329.3 30.1998 334 35.1998 334 42.3998C334 49.5998 329.2 54.5998 322.5 54.5998ZM333.8 29.1998C332 26.6998 327.9 23.3998 321.2 23.3998C310.6 23.3998 303.2 31.1998 303.2 42.3998C303.2 53.5998 310.6 61.3998 321.2 61.3998C328.4 61.3998 332.3 57.3998 333.8 55.2998V60.4998H341.1V6.7998H333.8V29.1998Z" fill="#4A4846"/>
<path d="M368.3 29.8004C373.4 29.8004 376.9 32.4004 378.6 37.4004H357.8C359.2 32.5004 363 29.8004 368.3 29.8004ZM368.3 23.4004C357.8 23.4004 349.8 31.6004 349.8 42.4004C349.8 53.3004 358 61.4004 368.9 61.4004C381.4 61.4004 385.8 53.0004 386.4 50.1004L386.5 49.6004H379.3L379.2 49.8004C379.1 50.0004 376.7 54.6004 369 54.6004C362.6 54.6004 357.9 50.1004 357.3 43.6004H386.9V43.2004C386.8 31.6004 379.2 23.4004 368.3 23.4004Z" fill="#4A4846"/>
<path d="M402.4 29.5V24.2H395.1V60.6H402.4V40.1C402.4 33.7 405.7 31.3 414.3 31.3H423.8V24H414.5C407.2 24 403.9 27.2 402.4 29.5Z" fill="#4A4846"/>
<path d="M456.4 42.4004C456.4 49.5004 451.7 54.6004 445.3 54.6004C438.6 54.6004 433.9 49.6004 433.9 42.4004C433.9 35.2004 438.6 30.2004 445.3 30.2004C451.7 30.2004 456.4 35.4004 456.4 42.4004ZM456.2 29.2004C454.8 27.2004 451.1 23.4004 444 23.4004C435.2 23.4004 426.3 29.9004 426.3 42.4004C426.3 53.6004 433.6 61.4004 444 61.4004C450.8 61.4004 454.5 57.8004 456.2 55.4004V60.6004H463.5V24.2004H456.2V29.2004Z" fill="#4A4846"/>
<path d="M470.7 25.2996H472.7V29.8996H473.4V25.2996H475.4V24.5996H470.7V25.2996Z" fill="#4A4846"/>
<path d="M481.2 24.5996L479.5 28.7996L477.8 24.5996H476.6V29.8996H477.3V25.2996L479.2 29.8996H479.7L481.6 25.3996V29.8996H482.4V24.5996H481.2Z" fill="#4A4846"/>
</svg>
