<?xml version="1.0" encoding="UTF-8"?>
<svg id="Ebene_1" data-name="Ebene 1" xmlns="http://www.w3.org/2000/svg" viewBox="0 0 156 72">
  <defs>
    <style>
      .cls-1 {
      fill: #fff;
      isolation: isolate;
      opacity: .2;
      }

      .cls-1, .cls-2, .cls-3 {
      stroke-width: 0px;
      }

      .cls-3 {
      fill: #06c569;
      }
    </style>
  </defs>
  <path class="cls-2"
    d="m84.72,48.02h-.3c-1.28,0-2.33-1.05-2.33-2.33h-.09c-1.09,1.94-3.46,3.03-5.97,3.03-6.29,0-10.98-4.46-10.98-10.58s5.16-10.69,11.19-10.58c6.03.11,10.8,5.14,10.8,11.17v6.97c0,1.28-1.05,2.33-2.33,2.33Zm-8.6-15.75c-3.09,0-5.77,2.74-5.77,5.86s2.68,5.86,5.77,5.86,5.77-2.74,5.77-5.86-2.68-5.86-5.77-5.86Z"/>
  <path class="cls-2"
    d="m104.04,47.08l-7.27-8.91v7.21c0,1.46-1.18,2.63-2.64,2.63s-2.64-1.18-2.64-2.63v-21.1c0-1.46,1.18-2.64,2.64-2.64s2.64,1.18,2.64,2.64v11.96l5.68-7.03c.48-.61,1.22-.96,1.98-.96,2.16,0,3.35,2.53,1.96,4.18l-3.99,4.77,5.55,6.66c1.37,1.66.2,4.16-1.94,4.16-.78,0-1.5-.35-1.98-.94Z"/>
  <path class="cls-2"
    d="m125.42,47.08l-7.27-8.91v7.21c0,1.46-1.18,2.63-2.64,2.63s-2.64-1.18-2.64-2.63v-21.1c0-1.46,1.18-2.64,2.64-2.64s2.64,1.18,2.64,2.64v11.96l5.68-7.03c.48-.61,1.22-.96,1.98-.96,2.16,0,3.35,2.53,1.96,4.18l-3.99,4.77,5.55,6.66c1.37,1.66.2,4.16-1.94,4.16-.78,0-1.5-.35-1.98-.94Z"/>
  <g>
    <path class="cls-2"
      d="m131.11,20.69v30.03h24.89v-30.03h-24.89Zm23.5,25c0,1.28-1.04,2.33-2.33,2.33h-.3c-1.28,0-2.33-1.05-2.33-2.33h-.09c-1.09,1.94-3.46,3.03-5.97,3.03-6.29,0-10.98-4.46-10.98-10.58s5.16-10.69,11.19-10.58c6.03.11,10.8,5.14,10.8,11.17v6.97Z"/>
    <path class="cls-2"
      d="m143.65,32.28c-3.09,0-5.77,2.74-5.77,5.86s2.68,5.86,5.77,5.86,5.77-2.74,5.77-5.86c.02-3.11-2.66-5.86-5.77-5.86Z"/>
  </g>
  <path class="cls-3"
    d="m23.57,39.11L4.78,30.88c-1.72-.74-3.72.02-4.46,1.74-.74,1.72.02,3.72,1.74,4.46l13.07,5.73,8.45-3.7Z"/>
  <path class="cls-3"
    d="m23.57,46.52l12.98,5.68c1.72.74,3.72-.02,4.46-1.74.74-1.72-.02-3.72-1.74-4.46l-7.25-3.18-8.45,3.7Z"/>
  <path class="cls-3"
    d="m30.06,11.26c-.24-.24-.63,0-.57.33.13.54.22,1.07.26,1.57.13,1.46.02,3.29-.76,4.57-.68,1.11-1.81,1.39-2.87.68-2.13-2.24,1.02-5.58,1.48-9.04.04-.39.07-.76.04-1.15-.17-2.55-1.05-4.38-2.9-5.88C23.27,1.18,21.18.18,19.04,0c-.33-.02-.48.37-.24.59,2.42,2.24,2.46,6.53.26,8.93-.78.85-2.07,1.76-3.24,1.85-.81.07-1.61-.26-2.2-.81-.44-.39-1.11-.39-1.57,0-2.85,2.37-4.7,5.92-4.83,9.91v.46c0,1.05.11,2.07.35,3.03.04.2.09.39.15.59.98,3.48,3.51,6.32,6.82,7.82l6.18,2.81,6.16-2.79c3.4-1.55,5.99-4.49,6.9-8.1.17-.72.3-1.44.37-2.2.02-.39.04-.76.04-1.15-.07-3.79-1.61-7.21-4.14-9.67Z"/>
  <path class="cls-1" d="m14.51,32.38l6.14,2.79,6.14-2.79-6.14-12.11-6.14,12.11Z"/>
  <path class="cls-3" d="m11.16,51.64c.63.41,1.48.22,1.87-.41l3.24-5.03-2.29-1.48-3.24,5.05c-.39.63-.22,1.46.41,1.87Z"/>
  <path class="cls-3"
    d="m37.27,33.71l2.9-2.24c-.96-.87-2.37-1.13-3.64-.59L2.03,45.99c-1.5.65-2.29,2.26-1.96,3.81l3.31-.57-1.85,2.68c.94.61,2.13.76,3.22.28l34.5-15.11c1.7-.74,2.48-2.7,1.76-4.4l-3.75,1.02Z"/>
  <path class="cls-2"
    d="m62.92,45.25c0,1.85-1.63,2.85-4.42,2.85s-5.47-.85-5.47-6.49v-10.19h-.89c-1.33,0-2.2-.89-2.2-2.11s.85-2.11,2.2-2.11h.89v-2.94c0-1.48,1.26-2.7,2.7-2.7s2.7,1.22,2.7,2.7v2.94h2.31c1.33,0,2.16.89,2.16,2.11s-.81,2.11-2.16,2.11h-2.31v10.37c0,1.07.33,1.63,1.11,1.63.37,0,1-.15,1.42-.11,1.22-.04,1.96.7,1.96,1.94Z"/>
</svg>