<?xml version="1.0" encoding="UTF-8"?>
<svg id="Ebene_1" data-name="Ebene 1" xmlns="http://www.w3.org/2000/svg" viewBox="0 0 4374 787">
  <path d="m0,393.5v393.5h1574V0H0v393.5Zm426.8-234c25.2,3.7,47.6,10.6,70.7,21.9,13.3,6.6,33.6,19.1,42,26.1l3,2.5-12,12c-10.4,10.4-12.1,11.8-13.7,10.7-30.3-21.7-57.7-33.4-92.3-39.4-15-2.6-49-2.3-64.5.5-34.9,6.4-67,20.8-93,41.9-10.3,8.3-28.4,27.1-35.7,37-19.1,25.8-31.5,54.7-37.5,87.3-2.8,15.5-3.1,49.5-.5,64.5,6,34.6,17.7,62,39.4,92.3,1.1,1.6-.3,3.3-10.7,13.7l-12,12-2.5-3c-7-8.4-19.5-28.7-26.1-42-11.3-23.3-18.1-45.1-22-71.5-2.4-16-2.4-48.1,0-65,11.3-78.2,60.1-145.4,130.1-179.5,28.2-13.7,54.7-20.9,88.5-23.9,8.7-.8,38.2.4,48.8,1.9Zm542.2,14.5v17h-311v-34h311v17Zm120,219.5v236.5h-34V157h34v236.5Zm327,0v236.5h-34V157h34v236.5Zm-585.2,41.7l.2,194.8h-34V240l16.8.2,16.7.3.3,194.7Zm-239.9-171.6c18.6,27.9,30,56.8,36.3,92.4,1.8,10.5,2.2,16.3,2.2,36.5.1,15.1-.4,27.3-1.2,33-7.7,51.6-29.7,96.6-65.1,132.9-6.4,6.5-15.2,14.7-19.6,18.3-28.2,22.8-64,40.3-97.7,47.7-20,4.3-28,5.1-53.3,5-20.2,0-26-.4-36.5-2.2-25.6-4.6-45.2-10.8-66.9-21.5-11.1-5.4-34.1-19.8-41.4-25.9l-2.8-2.3,12.1-12c9.1-9.1,12.3-11.7,13.4-11,32.6,23.5,63.4,35.9,99.6,40.4,12.2,1.6,37.1,1.3,50.4-.4,66.7-8.7,125.7-51.4,155.1-112,14.3-29.5,20.5-56.3,20.5-88.8,0-45.5-12.7-83.3-41.5-123.3-.7-1.1,1.9-4.3,11-13.4l12-12.1,2.3,2.8c1.3,1.5,6.3,8.7,11.1,15.9Zm742.1,130.4v17l-97.2-.2-97.3-.3-.3-16.8-.2-16.7h195v17Z"/>
  <path d="m1777.1,157.6c-20.7,5.5-36.5,22.1-41.5,43.4-.9,3.6-1.6,10.1-1.6,14.6,0,29,19,53,46.5,58.9,9,1.9,13.8,1.9,23.3-.1,22.4-4.5,39.9-21.7,45.3-44.4,1.8-7.7,1.6-22.2-.4-30-5.5-21.1-21.5-37.2-42.2-42.5-7.4-1.9-22.2-1.8-29.4.1Zm33.2,18.7c16.7,8.2,25.4,26.3,22.6,46.5-2.7,18.8-17.5,34.2-34.6,36.1-14,1.5-25.9-2.3-34.9-11.3-16.6-16.6-16.6-46.9,0-63.6,8.6-8.8,17.5-12.1,30.8-11.7,7.6.3,9.5.7,16.1,4Z"/>
  <path d="m1912.3,157.5c-21.3,6.6-29.9,29-17.9,46.4,3.9,5.6,10.1,9.6,25.9,16.7,15.6,7.1,21.1,11.3,22.8,17.6.7,2.6.6,5-.1,7.7-2.3,8.8-9.2,13.3-20.2,13.2-8.7,0-15.6-3-22.8-9.7l-5.1-4.8-5.5,5.6c-5.2,5.1-5.5,5.7-4.2,7.7,1.8,3.1,12.4,11,17.8,13.3,12,5.2,25.5,5.8,36.8,1.6,7.8-2.9,16.2-11.3,18.8-18.8,2.8-8.4,2.5-18.2-.9-25.2-4.7-9.6-11.8-14.8-31.8-23.4-10.3-4.3-15.6-7.8-17.9-11.7-4.3-6.9-1.3-15.2,7-19.5,7.7-4,21.9-1.9,29.1,4.4,1.4,1.3,2.1.7,6.2-4.5,2.6-3.3,4.7-6.3,4.7-6.8,0-1.5-10.7-7.4-17-9.4-7.2-2.2-19.3-2.4-25.7-.4Z"/>
  <path d="m2808.3,157.9c-10.5,3.6-18,11-20.8,20.5-3.4,11.4-1,20.3,7.8,29.1,5.4,5.3,7.9,6.9,19.4,11.9,17.6,7.7,21.9,10.6,24.3,15.9,2.2,4.8,2.5,8.3.9,12.4-2.6,7-10.1,11.4-19.2,11.4-9.7,0-16.6-3-25-11l-3.7-3.5-5.7,5.7-5.8,5.7,5,5c9.5,9.7,27.2,16.1,40.1,14.6,13.1-1.5,24.9-9.5,29.3-19.7,3.2-7.3,3.8-16.3,1.5-23.5-2.5-8.3-11.1-16.9-21.4-21.5-28-12.7-32.6-16.3-31.7-24.8.6-5.5,3.2-9,8.8-11.9,7.6-4,21.8-1.8,29,4.4,1.4,1.2,2.1.8,5.5-3.3,7.3-8.9,7.2-7.8,1.1-11.7-11.7-7.5-27.6-9.8-39.4-5.7Z"/>
  <path d="m2937,157.6c-8.8,2.3-17.6,7.1-24.2,13.2-13,12-19,26.1-19.2,44.7,0,7.9.5,12.7,1.8,17,6.2,20.6,21.4,35.6,41.6,41.1,10.3,2.8,25.6,2.4,34.8-.9,9.4-3.3,17-7.9,22.9-13.9l4.7-4.8-6-5.4-5.9-5.4-4.6,4.3c-13.4,12.5-32.9,15.3-49.6,7-31-15.3-30.5-63,.9-78.4,14.4-7.1,34.2-4.6,46.1,5.9l3.4,2.9,5.7-5.8,5.8-5.8-4.2-3.6c-5.6-4.8-16.1-10.2-23.6-12.1-7.7-2-22.9-2-30.4,0Z"/>
  <path d="m1989.4,158.3c-.3.8-.4,4.5-.2,8.3l.3,6.9,15.8.3,15.7.3v99.9h17v-99.9l15.8-.3,15.7-.3v-16l-39.8-.3c-32.8-.2-39.8,0-40.3,1.1Z"/>
  <path d="m2110,215.5v58.5h26.4c23.9,0,27-.2,33.1-2.1,9.1-2.8,18.1-11.4,21.5-20.4,3.1-8.3,2.5-19.7-1.3-27.2-2.8-5.3-8.3-11.6-12.7-14.5l-2.5-1.6,2.2-2.3c4.1-4.4,6.3-10.9,6.3-18.4,0-14.8-8.8-25.6-23.9-29.1-3.7-.9-12.8-1.4-27.3-1.4h-21.8v58.5Zm48.5-40.1c5.3,2.2,7.7,6.9,7.2,13.9-.3,4.6-.9,6.3-3.2,8.7-3.9,4.1-7.9,5-22.7,5h-12.8v-29h14c10,0,15.1.4,17.5,1.4Zm6,45.5c7.1,2.9,11.5,9.7,11.5,17.6,0,6-1.9,10.3-6.3,14.2-4.8,4.2-10.7,5.3-28.2,5.3h-14.5v-39.2l17.3.4c10.2.3,18.4,1,20.2,1.7Z"/>
  <path d="m2269.1,158.7c-.5,1-10.6,25.2-22.4,53.8-11.9,28.6-22.5,54.2-23.6,56.8l-2.1,4.8,9.1-.3,9.1-.3,5.8-14.5,5.8-14.5,24.5-.3,24.4-.2,6.1,14.7,6,14.8,9.2.3c5,.1,8.9-.1,8.7-.5-.3-.5-11-26-23.7-56.8-12.8-30.8-23.6-56.8-24.1-57.8-.8-1.3-2.3-1.7-6.4-1.7s-5.6.4-6.4,1.7Zm15,47.4c4.4,10.7,8.3,20,8.6,20.6.4,1-3.4,1.3-17.2,1.3-9.7,0-17.5-.4-17.3-.8,5.1-12.9,17.2-41.2,17.4-40.9.3.2,4.1,9.1,8.5,19.8Z"/>
  <path d="m2342,157.5c0,.2,9,14.7,20,32.1l20,31.6v52.8h17v-53.7l19.5-30.8c10.7-17,19.5-31.3,19.5-31.8,0-.4-4.1-.6-9.2-.5l-9.2.3-14.3,22.5c-7.8,12.4-14.6,22.6-15,22.7-.5.1-7.3-10.1-15.2-22.7l-14.5-23h-9.3c-5.1,0-9.3.2-9.3.5Z"/>
  <path d="m2478.7,157.7c-.4.3-.7,26.7-.7,58.5v57.8h69v-16h-52v-39h38v-16h-38v-29h50v-17h-32.8c-18.1,0-33.2.3-33.5.7Z"/>
  <path d="m2591.7,157.7c-.4.3-.7,26.7-.7,58.5v57.8h17v-55.1l6.7.3,6.7.3,20.5,27.2,20.6,27.3h10.3c9.8,0,10.3-.1,9-1.8-.7-1.1-10-13.4-20.7-27.5-10.7-14.2-19.2-25.9-19-26,.2-.2,2.5-1.1,5-2,11-4.1,18.9-15.7,18.9-27.7,0-8.8-2.2-14.9-7.7-21-5.4-6-9.7-8.4-17.8-9.9-6.3-1.2-47.7-1.5-48.8-.4Zm51,18.3c4.7,2.8,6.6,7.2,6.1,13.7-.3,3.8-1.1,6.1-2.9,7.9-4.2,4.6-7.6,5.4-23.4,5.4h-14.5v-29h15.8c13.8,0,16.1.2,18.9,2Z"/>
  <path d="m2721,215.5v58.5h17l-.2-58.3-.3-58.2-8.2-.3-8.3-.3v58.6Z"/>
  <path d="m3040.7,157.7c-.4.3-.7,26.7-.7,58.5v57.8h17v-55h65v55h17l-.2-58.3-.3-58.2-8.2-.3-8.3-.3v46.1h-65v-46h-7.8c-4.3,0-8.2.3-8.5.7Z"/>
  <path d="m3192,215.5v58.5h68v-16h-51v-39h38v-16h-38v-29l24.8-.2,24.7-.3v-16l-33.2-.3-33.3-.2v58.5Z"/>
  <path d="m1994.5,335.9c-20.2,5.8-35.7,21.9-41,42.6-2,7.7-1.9,23,.1,30.9,5.1,19.7,19.4,35,38.5,41.1,15.7,4.9,30.6,4.1,44.8-2.5,7.5-3.6,16.2-9.9,18.7-13.8l1.7-2.6-5.8-5.3-5.9-5.2-5.3,5c-9.2,8.7-20.4,12.2-34.5,10.8-16.9-1.8-30.8-13.6-35.3-30.3-2.7-10.1-1.8-23.2,2.2-31.8,3.6-7.6,10.5-15.5,16.7-19.2,14.9-8.7,35.3-6.9,49.5,4.3l3.8,3,5.4-5.5,5.4-5.6-4.8-4.3c-5.6-5.1-14.7-9.8-23.2-12-7.9-2-23.3-1.8-31,.4Z"/>
  <path d="m2489,335.8c-10,3.8-16.5,9.5-20.3,18.1-2.7,6.1-2.7,16,0,22.1,4.2,9.5,11,14.8,29.1,22.5,18.2,7.8,23.2,12.5,23.2,22,0,10.2-8.1,16.7-20.6,16.6-8.2,0-16.8-3.8-23.3-10.1l-4.3-4.2-6,5.8-5.9,5.9,5.7,5.3c11.3,10.3,28,15.7,41.5,13.4,19-3.3,29.9-15.5,29.9-33.5,0-5.1-.6-8.5-2.1-11.7-4.7-10.4-10.8-15.2-30.8-23.9-8.8-3.9-13.7-6.7-16.8-9.6-3.9-3.8-4.3-4.6-4.3-8.9,0-6.4,2.4-10.1,8.4-13.1,8.2-4.1,17.9-3.2,26.7,2.4l4.6,2.8,4.7-5.9c5.4-6.7,5.3-7.1-2.1-11.5-10.6-6.2-27.3-8.2-37.3-4.5Z"/>
  <path d="m2616.5,335.9c-14.3,4.1-28.7,15.4-35.2,27.6-6.9,13.1-9.2,30.8-5.8,45.2,4.6,19.7,19.5,35.7,38.6,41.8,15.7,4.9,30.6,4.1,44.8-2.5,7.4-3.5,16.5-10.2,18.9-13.9,1.6-2.4,1.5-2.5-4.2-7.8l-5.9-5.3-4.1,4.1c-8.5,8.4-17.3,12-29.6,12-10.4,0-16.7-1.8-24.7-7-21.2-13.7-24.8-47.5-7.2-66.6,15.2-16.5,40.6-18,58.8-3.6l3.8,3,5.4-5.5,5.4-5.6-4.8-4.3c-5.6-5.1-14.7-9.8-23.2-12-7.9-2-23.3-1.8-31,.4Z"/>
  <path d="m3239,335.6c-15.2,4-30.2,16-36.7,29.4-13.4,27.5-5.9,61,17.1,77.5,16,11.4,34.7,14.2,53.3,8,23.8-8,39.3-30.3,39.3-56.6,0-17.3-5.8-31.7-17.5-43.4-7.6-7.6-15.9-12.4-26-15-7.4-1.9-22.2-1.8-29.5.1Zm32.5,18.3c8.6,4.3,15,10.9,19.3,19.9,3,6.3,3.6,8.7,4,16.5,1.5,29.7-18.8,49.9-46.8,46.6-13.2-1.5-25.1-10.6-31.3-23.7-2.7-5.8-3.2-8.1-3.5-16.6-1-22.8,9.3-38.6,29.3-45.3,2.6-.8,7.3-1.2,13.2-.9,8,.3,10.2.8,15.8,3.5Z"/>
  <path d="m3394,335.6c-15.7,4.1-30.8,16.4-37.5,30.5-8.9,18.8-8.2,41.2,1.8,58.9,7.6,13.4,23.6,24.4,40,27.5,10,1.9,13.9,1.9,23.5-.1,10.6-2.1,20.5-7.1,28.2-14.2l6.4-5.9-5.9-5.5-6-5.6-4.9,4.5c-5.1,4.6-13.8,9.4-19,10.7-1.6.4-6.6.7-11,.7-13-.1-23-4.3-31.4-13.5-19.3-20.9-12.2-57.8,13.3-69.8,14.5-6.7,34.1-4.1,45.8,6.2l3.4,2.9,5.7-5.8,5.8-5.9-5.3-4.2c-6.4-5.1-17.3-10.3-24.7-11.9-7.3-1.5-21.5-1.3-28.2.5Z"/>
  <path d="m3666.9,335.6c-10.3,3.1-19.4,12.1-22,21.7-1.5,5.7-.6,15.4,1.9,20.3,3.1,6.1,11.3,13.1,20,17.1,20.8,9.6,24,11.2,26.9,14.2,4.2,4.1,5.9,10.2,4.4,15.2-2.6,8.7-9.4,13.1-20.3,13-8.7,0-15.6-3-22.8-9.7l-5.1-4.8-5.7,5.8-5.7,5.7,6,5.7c18.3,17.2,46.1,18.7,61.6,3.3,6.8-6.9,9.4-13.3,9.3-23.6-.1-16.4-8.1-24.7-34.5-36.1-10.3-4.3-15.6-7.8-17.9-11.7-4.3-6.9-1.3-15.2,7-19.5,7.8-4,21.9-1.8,29.1,4.5,1.5,1.2,2.2.7,6.7-4.9l5.1-6.3-2.2-1.8c-3.6-2.9-11.8-6.9-17.2-8.3-6.4-1.8-18.7-1.7-24.6.2Z"/>
  <path d="m3795,335.6c-15.7,4.1-30.8,16.4-37.5,30.5-14.6,30.8-3.3,66.6,25.6,80.8,8.4,4.1,20.1,7.1,28,7.1,13.3,0,30-6.7,40.1-16l6.2-5.7-5.9-5.5-6-5.6-4.9,4.5c-5.1,4.6-13.8,9.4-19,10.7-5.8,1.4-18.9.7-24.7-1.3-20.2-6.9-31.5-26.5-28.1-48.6,2.3-14.7,11.1-26.7,24-32.8,6.2-3,7.4-3.2,17.2-3.2,12.2.1,18.8,2.1,26.9,8.5l4.8,3.8,5.8-5.8,5.7-5.8-5.3-4.2c-6.4-5.1-17.3-10.3-24.7-11.9-7.3-1.5-21.5-1.3-28.2.5Z"/>
  <path d="m1730.4,336.3c-.3.8-.4,4.5-.2,8.3l.3,6.9,15.8.3,15.7.3v99.9h17v-99.9l15.8-.3,15.7-.3v-16l-39.8-.3c-32.8-.2-39.8,0-40.3,1.1Z"/>
  <path d="m1851,393.5v58.5h69v-16h-52v-39h38v-16h-38v-29l24.8-.2,24.7-.3v-16l-33.2-.3-33.3-.2v58.5Z"/>
  <path d="m2099,393.5v58.5h17v-55h64v55h17v-117.1l-8.2.3-8.3.3-.3,22.7-.2,22.8h-64l-.2-22.8-.3-22.7-8.2-.3-8.3-.3v58.6Z"/>
  <path d="m2250,393.5v58.5h17l.2-42.2.3-42.3,34.5,42.3,34.5,42.2h12.5l-.2-58.3-.3-58.2h-17l-.5,41.9-.5,41.8-34.4-42.1-34.4-42.1h-11.7v58.5Z"/>
  <path d="m2401.7,335.7c-.4.3-.7,26.7-.7,58.5v57.8h17v-117h-7.8c-4.3,0-8.2.3-8.5.7Z"/>
  <path d="m2721,393.5v58.5h17v-55h64v55h17v-117.1l-8.2.3-8.3.3-.3,22.7-.2,22.8h-64l-.2-22.8-.3-22.7-8.2-.3-8.3-.3v58.6Z"/>
  <path d="m2872.7,335.7c-.4.3-.7,26.7-.7,58.5v57.8h69v-16h-52v-39h38v-16h-38v-29h50v-17h-32.8c-18.1,0-33.2.3-33.5.7Z"/>
  <path d="m3053.7,335.7c-.4.3-.7,26.7-.7,58.5v57.8h17v-55h65v55h17l-.2-58.3-.3-58.2-8.2-.3-8.3-.3v46.1h-65v-46h-7.8c-4.3,0-8.2.3-8.5.7Z"/>
  <path d="m3497.7,335.7c-.4.3-.7,26.7-.7,58.5v57.8h17v-55h65v55h17l-.2-58.3-.3-58.2-8.2-.3-8.3-.3v46.1h-65v-46h-7.8c-4.3,0-8.2.3-8.5.7Z"/>
  <path d="m3898.7,335.7c-.4.3-.7,26.7-.7,58.5v57.8h17v-55h65v55h17l-.2-58.3-.3-58.2-8.2-.3-8.3-.3v46.1h-65v-46h-7.8c-4.3,0-8.2.3-8.5.7Z"/>
  <path d="m4048,372.8c0,21.6.4,40.2,1,43.3,5.3,27.7,35.7,44.5,63.5,34.9,8.3-2.9,13.3-6,19.2-12.2,5.7-6.1,8.3-10.6,11-19.3,1.6-5.4,1.8-9.9,1.8-45v-39l-8.2-.3-8.3-.3v35.3c0,36.4-.7,45.3-4,51.8-2.7,5.2-10.2,11.6-16,13.5-5.4,1.8-16.7,2.1-21.8.6-5.3-1.6-11.9-5.8-14.6-9.4-6.1-8-6.1-7.7-6.6-51.2l-.5-40-8.2-.3-8.3-.3v37.9Z"/>
  <path d="m4196,393.5v58.5h68v-16h-51l-.2-50.3-.3-50.2-8.2-.3-8.3-.3v58.6Z"/>
  <path d="m4305.7,335.7c-.4.3-.7,26.7-.7,58.5v57.8h69v-16h-51v-39h38v-16h-38v-29h49v-17h-32.8c-18.1,0-33.2.3-33.5.7Z"/>
  <path d="m2017,513.6c-13.6,3.6-26.5,13-34.2,24.8-6.3,9.7-9.1,20.1-9.2,33.1,0,17.6,5.5,31.7,17,43.1,22.2,21.8,59.2,22.7,82.2,1.9l6.2-5.7v-51.8h-50v16h33v30.5l-4.7,3.1c-7.1,4.7-13.4,6.5-22.8,6.5s-14.9-1.2-22.8-5.4c-15.2-8-23.8-26.6-20.8-44.9,2.4-14.8,10.7-26.5,23.3-32.7,14.4-7.1,34.2-4.6,46.1,5.9l3.4,2.9,5.7-5.8,5.8-5.8-4.2-3.6c-5.6-4.8-16.1-10.2-23.6-12.1-7.7-2-22.9-2-30.4,0Z"/>
  <path d="m2410.9,513.5c-9.7,3.6-16.6,9.1-20.4,16.5-4,7.7-3.5,19.8,1.1,27.7,4.2,7.3,12.3,12.7,30.6,20.2,14.4,6,19.8,11.6,19.8,20.6,0,10.2-8.1,16.7-20.7,16.6-8.2,0-16.5-3.7-23.1-10.2l-4.3-4.3-6,6-6,5.9,5.7,5.3c11.3,10.3,28,15.7,41.5,13.4,19.1-3.3,30-15.6,29.8-33.5-.1-8.3-1.1-11.8-5.6-18.1-4.2-5.9-11.7-10.7-27.2-17.5-8.8-3.9-13.7-6.7-16.8-9.6-3.9-3.8-4.3-4.6-4.3-8.9,0-6.4,2.4-10.1,8.4-13.1,8.2-4.1,17.9-3.2,26.7,2.4l4.6,2.8,4.7-5.9c5.4-6.7,5.3-7.1-2.1-11.5-10.1-5.9-27.3-8.2-36.4-4.8Z"/>
  <path d="m2937.2,513.4c-24.7,6-42.4,28.1-43.9,54.7-1.6,28.2,13.4,51.1,39.7,60.3,7.4,2.6,9.9,3,19.5,3s12.1-.4,19-2.8c8.8-3,19.7-9.8,24.4-15.2l3.1-3.5v-50.9h-50v16h33v29.9l-3.3,2.5c-8,6.1-19.2,8.7-31.9,7.5-17-1.8-32-15.5-35.7-32.7-4.5-21.2,4.5-41,22.7-49.9,7.4-3.7,7.9-3.8,18.2-3.7,12.2,0,18.3,1.9,26.6,8.3l5.2,3.9,5.7-5.8,5.7-5.7-5.4-4.3c-6.2-5-14.9-9.3-23.3-11.5-7.1-1.8-21.9-1.8-29.3-.1Z"/>
  <path d="m1743,571.4v58.6h17v-55h12.9l20.7,27.5,20.7,27.5h20.8l-20.2-26.8c-11.1-14.7-20.3-27.2-20.5-27.7-.3-.6,1.8-1.8,4.6-2.8,6.9-2.5,14.2-9.9,17-17.4,4.5-11.9,1.1-25.7-8.5-34.1-7.9-6.9-10.6-7.5-39.2-8l-25.3-.4v58.6Zm50.9-39.6c9.1,4.9,9.4,19,.4,24.9-2.2,1.5-5.3,1.9-18.5,2.1l-15.8.4v-29.2h15.3c12.8,0,15.8.3,18.6,1.8Z"/>
  <path d="m1873,571.5v58.5h68v-16h-51v-39h38v-16h-38v-29l24.8-.2,24.7-.3v-16l-33.2-.3-33.3-.2v58.5Z"/>
  <path d="m2128,571.5v58.5h68v-16h-51v-39h38v-16h-38v-29l24.8-.2,24.7-.3v-16l-33.2-.3-33.3-.2v58.5Z"/>
  <path d="m2241,571.5v58.5h17l.2-42.1.3-42.2,34.4,42.2,34.5,42.1h11.6v-117.1l-8.2.3-8.3.3-.5,41.9-.5,42-34.5-42.2-34.4-42.2h-11.6v58.5Z"/>
  <path d="m2504,571.5v58.5h26.4c23.2,0,27.2-.2,32.5-1.9,10.4-3.2,17.7-10,21.9-20.4,2.1-5.2,2.4-7.2,2-14.1-.3-5.6-1.2-9.6-2.7-12.8-2.4-4.9-8.8-12.2-13.1-15l-2.5-1.6,2.2-2.3c4.1-4.4,6.3-10.9,6.3-18.4,0-14.8-8.8-25.6-23.9-29.1-3.7-.9-12.8-1.4-27.3-1.4h-21.8v58.5Zm48.5-40.1c5.3,2.2,7.7,6.9,7.2,13.9-.3,4.6-.9,6.3-3.2,8.7-3.9,4.1-7.9,5-22.7,5h-12.8v-29h14c10,0,15.1.4,17.5,1.4Zm6,45.5c7,2.9,11.5,9.7,11.5,17.5,0,5.8-1.4,9.3-5.3,13.4-4.8,4.9-10.5,6.2-28.4,6.2h-15.3v-39.2l17.3.4c10.2.3,18.4,1,20.2,1.7Z"/>
  <path d="m2629,552.2c0,41.8.3,44.5,5.1,54.5,3.2,6.7,13.1,16.4,20.2,19.7,6.3,2.9,17,5.6,22.7,5.6s16.4-2.7,22.7-5.6c7.1-3.3,17-13,20.2-19.7,4.8-10,5.1-12.7,5.1-54.5v-39.3l-8.2.3-8.3.3-.5,40.5c-.5,39.8-.5,40.6-2.8,45.2-2.8,5.7-7.8,10.2-14.6,13.4-4.1,1.9-6.8,2.4-13.6,2.4s-9.5-.5-13.6-2.4c-6.8-3.2-11.8-7.7-14.6-13.4-2.3-4.6-2.3-5.4-2.8-45.2l-.5-40.5-8.2-.3-8.3-.3v39.3Z"/>
  <path d="m2776.8,513.6c-.5.4-.8,26.8-.8,58.6v57.8h18v-55h12.5l18.2,24.2c10,13.4,19.5,25.8,21,27.6l2.8,3.3,9.8-.3,9.8-.3-20.6-27.5-20.6-27.4,4.5-1.3c6-1.8,14.7-9.8,17.4-16.1,6.8-15.8.9-32.5-14.2-40.2l-6.9-3.5-25.1-.3c-13.8-.2-25.4,0-25.8.4Zm50.2,17.9c6.9,3.6,9.5,11.4,6.1,19-3.1,7.1-7.1,8.5-24.8,8.5h-14.3v-29h15c11.4,0,15.8.4,18,1.5Z"/>
</svg>