<svg width="360" height="999" viewBox="0 0 360 999" fill="none" xmlns="http://www.w3.org/2000/svg">
<path d="M-360 186C-465.6 164 -556 216.167 -588 245V0H878V594.5C511.5 749 459 370.5 321 209.5C183 48.5001 -44.9006 117.459 -108.5 140C-187.5 168 -228 213.5 -360 186Z" fill="#020144"/>
<path opacity="0.05" d="M118.297 293.168C89.1143 174.878 223.82 117.102 294.821 103H412.224C449.401 200.069 503.714 459.924 423.545 722.791C323.333 1051.37 -107.703 489.086 -66.193 503.05C-24.6827 517.015 154.776 441.03 118.297 293.168Z" fill="white"/>
<path opacity="0.07" d="M178.955 354.067C121.417 229.247 258.269 137.855 333.887 107.762L463.897 83.7808C525.763 183.506 641.312 459.707 608.581 766.707C567.667 1150.46 -29.5405 616.837 19.4046 623.797C68.3497 630.758 250.877 510.093 178.955 354.067Z" fill="white"/>
<path opacity="0.1" d="M263.541 397.814C211.392 262.594 361.752 175.195 443.45 148.397L582.031 131.566C640.441 240.631 743.437 539.081 688.142 860.361C619.023 1261.96 26.0903 661.101 77.1783 671.608C128.266 682.114 328.727 566.839 263.541 397.814Z" fill="white"/>
</svg>
