<svg width="22" height="22" viewBox="0 0 22 22" fill="none" xmlns="http://www.w3.org/2000/svg">
<g clip-path="url(#clip0_2894_3193)">
<path fill-rule="evenodd" clip-rule="evenodd" d="M3.12592 8.88557L1.47162 6.0192C1.32839 5.77034 1.41433 5.45344 1.66319 5.31021C1.74555 5.26366 1.83327 5.24039 1.92279 5.24039V5.2386H5.23855V1.90852C5.23855 1.62027 5.47308 1.38573 5.76133 1.38573C5.87055 1.38573 5.97081 1.41975 6.05495 1.47525L8.88731 3.12239L10.5506 0.257804C10.6956 0.00894343 11.0143 -0.0752037 11.2613 0.0680254C11.3437 0.116365 11.4081 0.182609 11.4529 0.261385L13.1144 3.12239L15.9789 1.45556C16.2278 1.31054 16.5465 1.39648 16.6897 1.64534C16.7381 1.72769 16.7595 1.81721 16.7595 1.90673L16.7613 5.23681H20.0914C20.3797 5.23681 20.6142 5.47135 20.6142 5.75959C20.6142 5.86881 20.5802 5.96907 20.5247 6.05322L18.8775 8.88557L21.7421 10.5488C21.991 10.6938 22.0751 11.0125 21.9319 11.2596C21.8836 11.342 21.8173 11.4064 21.7385 11.4512L18.8775 13.1126L20.5444 15.9772C20.6894 16.2261 20.6035 16.5448 20.3546 16.688C20.2722 16.7363 20.1827 16.7578 20.0932 16.7578L16.7631 16.7596V20.0753C16.7631 20.3636 16.5286 20.5981 16.2403 20.5981C16.1275 20.5981 16.0237 20.5623 15.9378 20.5015L13.1144 18.8722L11.4511 21.7386C11.3061 21.9875 10.9874 22.0716 10.7403 21.9284C10.658 21.88 10.5935 21.8138 10.5488 21.735L8.88731 18.8722L6.02094 20.5265C5.77208 20.6698 5.45518 20.5838 5.31195 20.335C5.2654 20.2526 5.24213 20.1649 5.24213 20.0753H5.24034V16.7614H1.92279C1.63454 16.7614 1.40001 16.5268 1.40001 16.2386C1.40001 16.1258 1.43581 16.022 1.49669 15.936L3.12592 13.1126L0.259544 11.4512C0.0106829 11.3061 -0.0734642 10.9875 0.0697649 10.7404C0.118105 10.658 0.184348 10.5936 0.263124 10.5488L3.12592 8.88557ZM7.9975 7.24381C8.64024 7.24381 9.15765 7.42642 9.54974 7.79345C9.94004 8.16047 10.1352 8.64745 10.1352 9.25439C10.1352 9.86311 9.94004 10.3501 9.54974 10.7171C9.15765 11.0841 8.64024 11.2668 7.9975 11.2668C7.35476 11.2668 6.83913 11.0823 6.44704 10.7171C6.05674 10.3501 5.8598 9.86311 5.8598 9.25439C5.8598 8.64745 6.05674 8.15868 6.44704 7.79345C6.83913 7.42642 7.35476 7.24381 7.9975 7.24381ZM12.6883 7.53027H14.4285L9.33311 14.4608H7.59288L12.6883 7.53027ZM7.9975 8.79605C7.85785 8.79605 7.75222 8.83723 7.67881 8.91601C7.60541 8.99657 7.56781 9.10937 7.56781 9.25618C7.56781 9.40299 7.60541 9.51757 7.67881 9.59814C7.75222 9.67691 7.85785 9.71809 7.9975 9.71809C8.13715 9.71809 8.24457 9.67691 8.31797 9.59814C8.39138 9.51578 8.42719 9.40299 8.42719 9.25618C8.42719 9.10937 8.39138 8.99657 8.31797 8.91601C8.24636 8.83723 8.13894 8.79605 7.9975 8.79605ZM14.0006 10.7296C14.6433 10.7296 15.159 10.9141 15.551 11.2793C15.9413 11.6463 16.1383 12.1333 16.1383 12.742C16.1383 13.3489 15.9413 13.8377 15.551 14.203C15.159 14.57 14.6433 14.7526 14.0006 14.7526C13.3579 14.7526 12.8404 14.57 12.4483 14.203C12.058 13.8359 11.8629 13.3489 11.8629 12.742C11.8629 12.1333 12.058 11.6463 12.4483 11.2793C12.8404 10.9141 13.3579 10.7296 14.0006 10.7296ZM14.0006 12.2819C13.8609 12.2819 13.7535 12.3231 13.6801 12.4018C13.6067 12.4842 13.5691 12.5952 13.5691 12.7438C13.5691 12.8906 13.6067 13.0034 13.6801 13.084C13.7535 13.1645 13.8609 13.2039 14.0006 13.2039C14.1384 13.2039 14.2459 13.1628 14.3193 13.084C14.3927 13.0034 14.4303 12.8906 14.4303 12.7438C14.4303 12.5952 14.3927 12.4824 14.3193 12.4018C14.2477 12.3213 14.1402 12.2819 14.0006 12.2819Z" fill="#F8F8F8"/>
</g>
<defs>
<clipPath id="clip0_2894_3193">
<rect width="22" height="22" fill="white"/>
</clipPath>
</defs>
</svg>
