<svg width="38" height="39" viewBox="0 0 38 39" fill="none" xmlns="http://www.w3.org/2000/svg">
<path d="M4.6851 17.8758L4.60785 17.8795L4.59349 17.8801C4.47678 17.8855 4.10317 17.9029 3.69327 17.9313C3.25155 17.9619 2.81136 18.0027 2.59129 18.0482L2.5902 18.0484C2.00399 18.1682 1.58165 18.4105 1.31176 18.6431L1.31109 18.6436C0.864422 19.0273 0.620895 19.4897 0.547439 20.0391C0.498014 20.411 0.521016 20.8552 0.775642 21.3796L0.775859 21.38C0.907027 21.6508 1.31186 22.2365 2.21278 22.5927C2.88262 22.8565 4.85181 23.3353 5.12227 23.4006L5.16787 23.4116L5.2108 23.4306C7.21742 24.3152 8.60205 25.4362 9.87719 27.2013C9.99795 27.3685 10.1176 27.5325 10.2359 27.6947C11.3783 29.2611 12.3883 30.6462 12.9228 32.7063C13.0611 33.2389 13.2213 33.7334 13.3867 34.244C13.5034 34.6039 13.6225 34.9718 13.7384 35.3666L13.7599 35.44L13.7597 35.5164C13.7592 35.6476 13.7602 35.8573 13.7667 36.0608C13.7736 36.2781 13.7857 36.4452 13.7991 36.5157L4.6851 17.8758ZM4.6851 17.8758L4.75803 17.8501L4.6851 17.8758ZM4.6851 17.8758L4.75803 17.8501L4.6851 17.8758ZM4.75803 17.8501C6.54543 17.2194 8.4765 16.3653 9.98363 15.1045H9.98364M4.75803 17.8501L9.98364 15.1045L4.75803 17.8501ZM9.98364 15.1045C11.8167 13.5709 12.5449 11.602 13.0196 9.63025V9.63016M9.98364 15.1045L13.0196 9.63016L9.98364 15.1045ZM13.0196 9.63016C13.2807 8.54508 13.4745 7.42928 13.6656 6.32851C13.6967 6.14917 13.7277 5.97022 13.759 5.79188C13.9838 4.51037 14.2205 3.25224 14.574 2.03884L14.5741 2.03845M13.0196 9.63016L14.5741 2.03845L13.0196 9.63016ZM14.5741 2.03845C14.787 1.30545 15.1715 1.03752 15.3608 0.905713C15.3663 0.901886 15.3716 0.898175 15.3768 0.894571C15.8253 0.581084 16.2677 0.499545 16.6957 0.531088L16.6967 0.53116M14.5741 2.03845L16.6967 0.53116L14.5741 2.03845ZM16.6967 0.53116C17.2193 0.568656 17.8854 0.750328 18.341 1.58736C18.4053 1.70598 18.4904 1.88901 18.5484 2.14423C18.5644 2.21569 18.5829 2.40506 18.6064 2.67059L18.6095 2.70613C18.6294 2.93036 18.6529 3.19624 18.6844 3.36615L18.6846 3.36755M16.6967 0.53116L18.6846 3.36755L16.6967 0.53116ZM18.6846 3.36755C18.8199 4.08614 18.9336 4.80684 19.0409 5.53612V5.53616M18.6846 3.36755L19.0409 5.53616L18.6846 3.36755ZM19.0409 5.53616C19.0765 5.77852 19.1107 6.01845 19.1447 6.25635C19.4481 8.38238 19.7287 10.347 20.7897 12.4446L19.0409 5.53616ZM34.06 18.4674L34.0508 18.4691C30.9497 19.097 28.4037 19.2773 26.2327 18.4208C26.2327 18.4208 26.2327 18.4208 26.2326 18.4208L26.4252 17.9326L34.06 18.4674ZM34.06 18.4674L34.069 18.4652L34.06 18.4674ZM34.06 18.4674L34.069 18.4652L34.06 18.4674ZM34.069 18.4652C34.3526 18.3971 34.6318 18.3392 34.9071 18.2919L34.908 18.2918M34.069 18.4652L34.908 18.2918L34.069 18.4652ZM34.908 18.2918C35.9921 18.1042 37.0214 18.8095 37.2322 19.8682L34.908 18.2918ZM34.908 18.2918L37.2322 19.8682L34.908 18.2918ZM37.2322 19.8682C37.4426 20.9241 36.7627 21.9609 35.6892 22.1957L37.2322 19.8682ZM34.8553 22.3687L34.8677 22.3663C35.1368 22.314 35.41 22.2566 35.689 22.1958L34.8553 22.3687ZM34.8553 22.3687L34.8429 22.3718L34.8553 22.3687ZM34.8553 22.3687L34.8429 22.3718L34.8553 22.3687ZM34.8429 22.3718C30.5294 23.4292 25.6145 27.1612 22.77 30.4001L22.7699 30.4002M34.8429 22.3718L22.7699 30.4002L34.8429 22.3718ZM22.7699 30.4002C22.2979 30.9379 21.7408 31.9182 21.1745 32.9145L21.1569 32.9454L21.1491 32.9591C20.561 33.994 19.9403 35.0862 19.3192 35.9309C18.401 37.1793 17.41 37.9416 16.6516 38.1961L16.6509 38.1964M22.7699 30.4002L16.6509 38.1964L22.7699 30.4002ZM16.6509 38.1964C16.1585 38.3625 15.7537 38.3367 15.4131 38.2533H15.4129C14.92 38.1329 14.5195 37.8742 14.2054 37.4533M16.6509 38.1964L15.2884 38.7632C14.6788 38.6143 14.1727 38.2873 13.7845 37.7671M13.7845 37.7671L14.206 37.4543C14.2058 37.454 14.2056 37.4537 14.2054 37.4533M13.7845 37.7671C13.5732 37.4824 13.3771 37.101 13.2835 36.6141L13.7845 37.7671ZM14.2054 37.4533C14.0359 37.2248 13.8761 36.9159 13.7992 36.5157L14.2054 37.4533ZM16.8944 13.6209L16.407 12.5457L15.9351 13.6278C15.2075 15.2966 14.1651 16.8229 12.5891 18.1417C11.6378 18.9374 10.5382 19.6249 9.37446 20.2164L8.56905 20.6256L9.32349 21.1227C10.7958 22.0926 11.9993 23.2847 13.1588 24.8883C14.722 27.0526 15.9104 28.7124 16.6395 31.0591L16.9911 32.1906L17.593 31.1701C17.7226 30.9503 17.8498 30.7328 17.9745 30.5198C18.2552 30.0402 18.5231 29.5824 18.7774 29.167C19.1476 28.5626 19.466 28.0865 19.7249 27.7917H19.725C21.1133 26.211 22.9378 24.5539 24.9589 23.0681L25.7339 22.4984L24.8355 22.1549L24.7378 22.1176C24.737 22.1173 24.7361 22.117 24.7353 22.1167C21.834 20.9723 19.3984 18.6037 17.1835 14.2238C17.081 14.0206 16.9846 13.82 16.8944 13.6209Z" fill="#020144"/>
<path d="M4.6851 17.8758L4.75803 17.8501M4.6851 17.8758L4.75803 17.8501M4.75803 17.8501C6.54543 17.2194 8.4765 16.3653 9.98363 15.1045H9.98364M4.75803 17.8501L9.98364 15.1045M9.98364 15.1045C11.8167 13.5709 12.5449 11.602 13.0196 9.63025V9.63016M9.98364 15.1045L13.0196 9.63016M13.0196 9.63016C13.2807 8.54508 13.4745 7.42928 13.6656 6.32851C13.6967 6.14917 13.7277 5.97022 13.759 5.79188C13.9838 4.51037 14.2205 3.25224 14.574 2.03884L14.5741 2.03845M13.0196 9.63016L14.5741 2.03845M14.5741 2.03845C14.787 1.30545 15.1715 1.03752 15.3608 0.905713C15.3663 0.901886 15.3716 0.898175 15.3768 0.894571C15.8253 0.581084 16.2677 0.499545 16.6957 0.531088L16.6967 0.53116M14.5741 2.03845L16.6967 0.53116M16.6967 0.53116C17.2193 0.568656 17.8854 0.750328 18.341 1.58736C18.4053 1.70598 18.4904 1.88901 18.5484 2.14423C18.5644 2.21569 18.5829 2.40506 18.6064 2.67059L18.6095 2.70613C18.6294 2.93036 18.6529 3.19624 18.6844 3.36615L18.6846 3.36755M16.6967 0.53116L18.6846 3.36755M18.6846 3.36755C18.8199 4.08614 18.9336 4.80684 19.0409 5.53612V5.53616M18.6846 3.36755L19.0409 5.53616M34.06 18.4674L34.069 18.4652M34.06 18.4674L34.069 18.4652M34.069 18.4652C34.3526 18.3971 34.6318 18.3392 34.9071 18.2919L34.908 18.2918M34.069 18.4652L34.908 18.2918M34.908 18.2918C35.9921 18.1042 37.0214 18.8095 37.2322 19.8683M34.908 18.2918L37.2322 19.8683M34.8553 22.3687L34.8429 22.3718M34.8553 22.3687L34.8429 22.3718M34.8429 22.3718C30.5294 23.4292 25.6145 27.1612 22.77 30.4001L22.7699 30.4002M34.8429 22.3718L22.7699 30.4002M22.7699 30.4002C22.2979 30.9379 21.7408 31.9182 21.1745 32.9145L21.1569 32.9454L21.1491 32.9591C20.561 33.994 19.9403 35.0862 19.3192 35.9309C18.401 37.1793 17.41 37.9416 16.6516 38.1961L16.6509 38.1964M22.7699 30.4002L16.6509 38.1964M16.6509 38.1964C16.1585 38.3625 15.7537 38.3367 15.4131 38.2533H15.4129C14.92 38.1329 14.5195 37.8742 14.2054 37.4533M16.6509 38.1964L15.2884 38.7632C14.6788 38.6144 14.1727 38.2873 13.7845 37.7671M13.7845 37.7671L14.206 37.4543C14.2058 37.454 14.2056 37.4537 14.2054 37.4533M4.6851 17.8758L4.60785 17.8795L4.59349 17.8801C4.47678 17.8855 4.10317 17.9029 3.69327 17.9313C3.25155 17.9619 2.81136 18.0027 2.59129 18.0482L2.5902 18.0484C2.00399 18.1682 1.58165 18.4105 1.31176 18.6431L1.31109 18.6436C0.864422 19.0273 0.620895 19.4897 0.547439 20.0391C0.498014 20.411 0.521016 20.8552 0.775642 21.3796L0.775859 21.38C0.907027 21.6508 1.31186 22.2365 2.21278 22.5927C2.88262 22.8565 4.85181 23.3353 5.12227 23.4006L5.16787 23.4116L5.2108 23.4306C7.21742 24.3152 8.60205 25.4362 9.87719 27.2013C9.99795 27.3685 10.1176 27.5325 10.2359 27.6947C11.3783 29.2611 12.3883 30.6462 12.9228 32.7063C13.0611 33.2389 13.2213 33.7334 13.3867 34.244C13.5034 34.6039 13.6225 34.9718 13.7384 35.3666L13.7599 35.44L13.7597 35.5164C13.7592 35.6476 13.7602 35.8573 13.7667 36.0608C13.7736 36.2781 13.7857 36.4452 13.7991 36.5157L4.6851 17.8758ZM19.0409 5.53616C19.0765 5.77852 19.1107 6.01845 19.1447 6.25635C19.4481 8.38238 19.7287 10.347 20.7897 12.4446L19.0409 5.53616ZM34.06 18.4674L34.0508 18.4691C30.9497 19.097 28.4037 19.2773 26.2327 18.4208C26.2327 18.4208 26.2327 18.4208 26.2326 18.4208L26.4252 17.9326L34.06 18.4674ZM37.2322 19.8683C37.4426 20.9241 36.7627 21.9609 35.6892 22.1957L37.2322 19.8683ZM34.8553 22.3687L34.8677 22.3663C35.1368 22.314 35.41 22.2566 35.689 22.1958L34.8553 22.3687ZM13.7845 37.7671C13.5732 37.4824 13.3771 37.101 13.2835 36.6141L13.7845 37.7671ZM14.2054 37.4533C14.0359 37.2248 13.8761 36.9159 13.7992 36.5157L14.2054 37.4533ZM16.8944 13.6209L16.407 12.5457L15.9351 13.6278C15.2075 15.2966 14.1651 16.8229 12.5891 18.1417C11.6378 18.9374 10.5382 19.6249 9.37446 20.2164L8.56905 20.6256L9.32349 21.1227C10.7958 22.0926 11.9993 23.2847 13.1588 24.8883C14.722 27.0526 15.9104 28.7124 16.6395 31.0591L16.9911 32.1906L17.593 31.1701C17.7226 30.9503 17.8498 30.7328 17.9745 30.5198C18.2552 30.0402 18.5231 29.5824 18.7774 29.167C19.1476 28.5626 19.466 28.0865 19.7249 27.7917H19.725C21.1133 26.211 22.9378 24.5539 24.9589 23.0681L25.7339 22.4984L24.8355 22.1549L24.7378 22.1176C24.737 22.1173 24.7361 22.117 24.7353 22.1167C21.834 20.9723 19.3984 18.6037 17.1835 14.2238C17.081 14.0206 16.9846 13.82 16.8944 13.6209Z" stroke="#020144" stroke-width="1.04983"/>
</svg>
