<svg width="853" height="2620" viewBox="0 0 853 2620" fill="none" xmlns="http://www.w3.org/2000/svg">
<path d="M929.263 80.609C917.226 122.346 862.643 207.251 740.606 212.976C588.061 220.132 459 336 532.549 561.054C573.226 685.522 866.999 783.999 831 1034C799.652 1251.69 601 1208 468.997 1378C329.95 1557.07 937.313 1294.95 668.997 1574C468.997 1782 688.997 2018 468.994 2052C-27.599 2128.74 876.997 1550 688.997 2018C538.597 2392.4 167.663 2518 0.995473 2534" stroke="#5DB9F5" stroke-dasharray="14 14"/>
<g opacity="0.89">
<g opacity="0.89">
<path opacity="0.89" d="M584.763 1222.53C711.658 1222.53 814.526 1119.66 814.526 992.763C814.526 865.869 711.658 763 584.763 763C457.869 763 355 865.869 355 992.763C355 1119.66 457.869 1222.53 584.763 1222.53Z" stroke="#DEF1EC" stroke-width="0.70766" stroke-linecap="round" stroke-linejoin="round"/>
</g>
<g opacity="0.89">
<path opacity="0.89" d="M584.764 1205.77C702.404 1205.77 797.771 1110.4 797.771 992.763C797.771 875.123 702.404 779.756 584.764 779.756C467.124 779.756 371.758 875.123 371.758 992.763C371.758 1110.4 467.124 1205.77 584.764 1205.77Z" stroke="#DEF1EC" stroke-width="0.826604" stroke-linecap="round" stroke-linejoin="round"/>
</g>
<g opacity="0.89">
<path opacity="0.89" d="M584.762 1189.01C693.148 1189.01 781.012 1101.15 781.012 992.763C781.012 884.377 693.148 796.513 584.762 796.513C476.376 796.513 388.512 884.377 388.512 992.763C388.512 1101.15 476.376 1189.01 584.762 1189.01Z" stroke="#DEF1EC" stroke-width="0.945549" stroke-linecap="round" stroke-linejoin="round"/>
</g>
<g opacity="0.89">
<path opacity="0.89" d="M584.763 1172.26C683.895 1172.26 764.257 1091.89 764.257 992.763C764.257 893.632 683.895 813.27 584.763 813.27C485.631 813.27 405.27 893.632 405.27 992.763C405.27 1091.89 485.631 1172.26 584.763 1172.26Z" stroke="#DEF1EC" stroke-width="1.06449" stroke-linecap="round" stroke-linejoin="round"/>
</g>
<g opacity="0.89">
<path opacity="0.89" d="M584.764 1155.5C674.641 1155.5 747.501 1082.64 747.501 992.763C747.501 902.886 674.641 830.026 584.764 830.026C494.887 830.026 422.027 902.886 422.027 992.763C422.027 1082.64 494.887 1155.5 584.764 1155.5Z" stroke="#DEF1EC" stroke-width="1.18344" stroke-linecap="round" stroke-linejoin="round"/>
</g>
<g opacity="0.89">
<path opacity="0.89" d="M584.762 1138.74C665.385 1138.74 730.743 1073.39 730.743 992.763C730.743 912.14 665.385 846.783 584.762 846.783C504.139 846.783 438.781 912.14 438.781 992.763C438.781 1073.39 504.139 1138.74 584.762 1138.74Z" stroke="#DEF1EC" stroke-width="1.3023" stroke-linecap="round" stroke-linejoin="round"/>
</g>
<g opacity="0.89">
<path opacity="0.89" d="M584.764 1121.99C656.131 1121.99 713.987 1064.13 713.987 992.763C713.987 921.395 656.131 863.539 584.764 863.539C513.395 863.539 455.539 921.395 455.539 992.763C455.539 1064.13 513.395 1121.99 584.764 1121.99Z" stroke="#DEF1EC" stroke-width="1.42124" stroke-linecap="round" stroke-linejoin="round"/>
</g>
<g opacity="0.89">
<path opacity="0.89" d="M584.765 1105.23C646.879 1105.23 697.233 1054.88 697.233 992.763C697.233 930.649 646.879 880.296 584.765 880.296C522.651 880.296 472.297 930.649 472.297 992.763C472.297 1054.88 522.651 1105.23 584.765 1105.23Z" stroke="#DEF1EC" stroke-width="1.54019" stroke-linecap="round" stroke-linejoin="round"/>
</g>
<g opacity="0.89">
<path opacity="0.89" d="M584.763 1088.5C637.638 1088.5 680.503 1045.64 680.503 992.763C680.503 939.888 637.638 897.023 584.763 897.023C531.888 897.023 489.023 939.888 489.023 992.763C489.023 1045.64 531.888 1088.5 584.763 1088.5Z" stroke="#DEF1EC" stroke-width="1.65913" stroke-linecap="round" stroke-linejoin="round"/>
</g>
<g opacity="0.89">
<path opacity="0.89" d="M584.764 1071.75C628.385 1071.75 663.747 1036.38 663.747 992.763C663.747 949.142 628.385 913.78 584.764 913.78C541.143 913.78 505.781 949.142 505.781 992.763C505.781 1036.38 541.143 1071.75 584.764 1071.75Z" stroke="#DEF1EC" stroke-width="1.77807" stroke-linecap="round" stroke-linejoin="round"/>
</g>
<g opacity="0.89">
<path opacity="0.89" d="M584.766 1054.99C619.133 1054.99 646.993 1027.13 646.993 992.763C646.993 958.396 619.133 930.537 584.766 930.537C550.399 930.537 522.539 958.396 522.539 992.763C522.539 1027.13 550.399 1054.99 584.766 1054.99Z" stroke="#DEF1EC" stroke-width="1.89702" stroke-linecap="round" stroke-linejoin="round"/>
</g>
<g opacity="0.89">
<path opacity="0.89" d="M584.763 1038.23C609.875 1038.23 630.232 1017.88 630.232 992.763C630.232 967.651 609.875 947.293 584.763 947.293C559.65 947.293 539.293 967.651 539.293 992.763C539.293 1017.88 559.65 1038.23 584.763 1038.23Z" stroke="#DEF1EC" stroke-width="2.01596" stroke-linecap="round" stroke-linejoin="round"/>
</g>
</g>
<circle cx="727" cy="329" r="40.5" stroke="#5CBA9E" stroke-dasharray="6 6"/>
<circle opacity="0.4" cx="795" cy="501" r="98" stroke="#BEE3D8" stroke-width="68"/>
<circle cx="488.249" cy="979.249" r="14.7487" transform="rotate(-30 488.249 979.249)" fill="#D4D4FE"/>
<path d="M479.786 983.361L488.028 985.569L492.445 969.085" stroke="#F8F8F8" stroke-width="2" stroke-linecap="round"/>
<circle cx="585.147" cy="917.147" r="21.2404" fill="#FAD6E4"/>
<path d="M571.629 916.182L580.318 924.871L597.697 907.492" stroke="#F8F8F8" stroke-width="2" stroke-linecap="round"/>
<circle cx="429.249" cy="918.249" r="28" transform="rotate(30 429.249 918.249)" fill="#BEE3D8"/>
<path d="M414.452 908.237L418.645 923.885L449.939 915.499" stroke="#F8F8F8" stroke-width="2" stroke-linecap="round"/>
</svg>
