<svg version="1.2" xmlns="http://www.w3.org/2000/svg" viewBox="0 0 1146 438" width="1146" height="438">
	<title>Open Data-svg</title>
	<style>
		.s0 { opacity: .2;fill: none;stroke: #020144;stroke-width: .9;stroke-dasharray: 8.5551 } 
		.s1 { fill: none;stroke: #5cba9e;stroke-dasharray: 6 } 
		.s2 { fill: none;stroke: #5cba9e;stroke-width: 4;stroke-dasharray: 8 } 
		.s3 { fill: none;stroke: #bee3d8;stroke-width: 68 } 
		.s4 { fill: none;stroke: #bee3d8;stroke-width: 45 } 
		.s5 { fill: none;stroke: #bee3d8;stroke-width: 17 } 
		.s6 { opacity: .4;fill: #5cba9e } 
		.s7 { fill: none;stroke: #020144;stroke-linecap: round;stroke-linejoin: round;stroke-width: 2.6 } 
		.s8 { fill: none;stroke: #5cba9e;stroke-linecap: round;stroke-linejoin: round;stroke-width: 2.6 } 
		.s9 { fill: #5cba9e;stroke: #020144;stroke-linecap: round;stroke-linejoin: round;stroke-width: 2.6 } 
		.s10 { fill: #5cba9e;stroke: #020144;stroke-linecap: round;stroke-linejoin: round;stroke-width: 2.5 } 
		.s11 { fill: #020144 } 
		.s12 { fill: none;stroke: #020144;stroke-linecap: round;stroke-linejoin: round;stroke-width: 2.3 } 
		.s13 { fill: #5cba9e } 
		.s14 { fill: none;stroke: #020144;stroke-linecap: round;stroke-linejoin: round;stroke-width: 2 } 
		.s15 { fill: #5cba9e;stroke: #020144;stroke-linecap: round;stroke-linejoin: round;stroke-width: 2.3 } 
		.s16 { fill: #020144;stroke: #020144;stroke-linecap: round;stroke-linejoin: round;stroke-width: 2.3 } 
		.s17 { fill: none;stroke: #5cba9e;stroke-linecap: round;stroke-linejoin: round;stroke-width: 4.5 } 
		.s18 { fill: none;stroke: #5cba9e;stroke-linecap: round;stroke-linejoin: round;stroke-width: 2.3 } 
		.s19 { fill: none;stroke: #020144;stroke-linecap: round;stroke-linejoin: round;stroke-width: 1.8 } 
	</style>
	<path id="Layer" class="s0" d="m90 80.7c0 0 56.9-37.7 89.7-22.1 58.3 27.7 24.5 128.9 89.3 141.9 54.5 11 151.3-54 151.3-54 0 0 73.9-87.9 153.1-103.5 62.4-12.2 113.4 33.8 141.1 49.2 78.3 43.5 115.9-63.6 195.9-39.7 96.3 28.6 145.5 148 145.5 148"/>
	<path id="Layer" class="s1" d="m64 157.5c-22.4 0-40.5-18.1-40.5-40.5 0-22.4 18.1-40.5 40.5-40.5 22.4 0 40.5 18.1 40.5 40.5 0 22.4-18.1 40.5-40.5 40.5z"/>
	<path id="Layer" class="s2" d="m1078 336c-36.5 0-66-29.5-66-66 0-36.5 29.5-66 66-66 36.5 0 66 29.5 66 66 0 36.5-29.5 66-66 66z"/>
	<path id="Layer" class="s3" d="m132 387c-54.2 0-98-43.8-98-98 0-54.2 43.8-98 98-98 54.2 0 98 43.8 98 98 0 54.2-43.8 98-98 98z"/>
	<path id="Layer" class="s4" d="m947.5 415.5c-23.8 0-43-19.2-43-43 0-23.8 19.2-43 43-43 23.8 0 43 19.2 43 43 0 23.8-19.2 43-43 43z"/>
	<path id="Layer" class="s5" d="m916 180.5c-14.1 0-25.5-11.4-25.5-25.5 0-14.1 11.4-25.5 25.5-25.5 14.1 0 25.5 11.4 25.5 25.5 0 14.1-11.4 25.5-25.5 25.5z"/>
	<path id="Layer" fill-rule="evenodd" class="s6" d="m782.3 243.4q-1.1 10.6-3.2 20.8c-14.8 72.5-66.6 131.5-134.7 156.3l-5.4-20.1h26.6v-128.7h-49.5c16.4-13.4 26.9-33.9 26.9-56.8 0-40.6-32.8-73.5-73.2-73.5-40.4 0-73.2 32.9-73.2 73.5 0 22.9 10.5 43.4 26.9 56.8h-42.5v128.7h25.3l-5.3 20.1c-67.4-24.5-118.9-82.5-134.3-153.9l81.8-6.4-10.6-135.6-54.7 4.3c34.2-70.4 106.2-118.9 189.5-118.9 26 0 51 4.8 74.1 13.5l-25.4-4.4-20.2 117.7 84 14.4 16.6-96.8c34.6 27 60.7 64.6 73.2 107.9q0.9 2.8 1.6 5.7l-110.2 15.1 10.2 74.7zm-93.1-0.4l-3.5-25.7 6.9-0.9 3.5 25.7zm12-1.7l-2.6-18.8 6.8-1 2.6 18.9zm24-3.3l-2.1-15.6 6.8-1 2.1 15.7zm-12 1.6l-3.5-25.7 6.8-0.9 3.6 25.7zm36-4.9l-5.2-37.7 6.9-1 5.1 37.7zm-12 1.7l-3.5-25.7 6.8-0.9 3.5 25.6z"/>
	<path id="Layer" class="s7" d="m519.6 310.1h29.8"/>
	<path id="Layer" class="s7" d="m519.6 316.8h29.8"/>
	<path id="Layer" class="s8" d="m519.6 324.4h46.7"/>
	<path id="Layer" class="s8" d="m519.6 331.6h23.4"/>
	<path id="Layer" class="s7" d="m519.6 348.1h58.2"/>
	<path id="Layer" class="s7" d="m519.6 355.6h106.3"/>
	<path id="Layer" class="s7" d="m519.6 363.2h85.2"/>
	<path id="Layer" class="s7" d="m519.6 370.7h93.3"/>
	<path id="Layer" class="s7" d="m665.6 271.7h-184.6v128.7h184.6z"/>
	<path id="Layer" class="s9" d="m665.6 382.3h-184.6v18.1h184.6z"/>
	<path id="Layer" class="s10" d="m665.6 271.7h-184.6v7.3h184.6z"/>
	<path id="Layer" class="s7" d="m638.5 300.3l-130.4-0.1v82.1h130.4z"/>
	<path id="Layer" fill-rule="evenodd" class="s11" d="m612.8 328.8c-5-0.2-9-4.3-9-9.3 0-5.1 4-9.2 9-9.4h15.2v4.1h-7c0.6 0.9 1.1 2 1.4 3.2h5.6v4.1h-5.6c-0.3 1.2-0.8 2.3-1.4 3.2h7v4.1h-15.2zm0.4-4.1c2.2 0 4.1-1.3 4.9-3.2q0.4-0.9 0.4-2 0-1.1-0.4-2.1c-0.8-1.9-2.7-3.2-4.9-3.2-2.9 0-5.3 2.3-5.3 5.3 0 2.9 2.4 5.2 5.3 5.2z"/>
	<path id="Layer" class="s7" d="m599.7 400.3h-52.8v26.6h52.8z"/>
	<path id="Layer" class="s11" d="m599.7 400.3h-52.8v7.7h52.8z"/>
	<path id="Layer" class="s7" d="m621.4 426.9h-96.1v6.8h96.1z"/>
	<path id="Layer" class="s12" d="m437.9 124.6l-96.7 7.6 10.6 135.5 96.7-7.5z"/>
	<path id="Layer" fill-rule="evenodd" class="s11" d="m390.9 182.9c-4.5 0.2-8.5-3.3-8.8-7.9-0.4-4.6 2.9-8.7 7.5-9.3l13.9-1.1 0.3 3.8-6.4 0.5c0.7 0.8 1.2 1.8 1.5 2.9l5.1-0.4 0.3 3.7-5.1 0.4c-0.2 1.1-0.5 2.2-1.1 3.1l6.4-0.5 0.3 3.7-13.9 1.1zm0.1-3.8c2-0.1 3.7-1.5 4.3-3.3q0.3-0.9 0.2-1.9-0.1-1-0.5-1.8c-0.9-1.7-2.7-2.8-4.7-2.6-2.7 0.2-4.7 2.5-4.5 5.2 0.2 2.7 2.6 4.7 5.2 4.4z"/>
	<path id="Layer" fill-rule="evenodd" class="s13" d="m371.1 205.7l-2 0.1 2.4-9.1 2.4-0.2 3.8 8.7-2 0.1-0.9-2h0.8l-0.1-1.5-1.2 0.1-1.4-3.3-0.1 0.1-0.8 3.4-1.3 0.1 0.2 1.5 0.7-0.1zm0.5-2.1l0.4-1.5 2.3-0.2 0.5 1.5zm13.9-8l0.7 8.9-1.6 0.1-4.3-5.3h-0.1l0.4 5.6-1.8 0.2-0.7-8.9 1.6-0.2 4.3 5.3h0.1l-0.5-5.6zm9-0.7l0.7 8.9-1.6 0.1-4.3-5.2h-0.1l0.4 5.6-1.8 0.1-0.7-8.9 1.6-0.1 4.3 5.3h0.1l-0.5-5.6zm7.1-0.6l1.8-0.1 0.5 5.8q0.1 0.9-0.3 1.7-0.4 0.8-1.2 1.2-0.8 0.5-1.9 0.6-1.1 0.1-2-0.3-0.9-0.3-1.4-1-0.5-0.7-0.6-1.7l-0.4-5.7 1.8-0.2 0.5 5.6q0 0.5 0.3 0.9 0.2 0.4 0.7 0.6 0.4 0.2 0.9 0.1 0.6 0 1-0.3 0.3-0.2 0.5-0.6 0.2-0.5 0.2-1zm5.6 8.5l-2 0.2 2.4-9.1 2.4-0.2 3.8 8.6-2 0.2-0.9-2 0.8-0.1-0.1-1.4-1.2 0.1-1.4-3.3h-0.1l-0.8 3.5-1.3 0.1 0.2 1.4h0.7zm0.5-2.1l0.4-1.5 2.3-0.2 0.5 1.4zm7.1 1.5l-0.6-8.9 1.8-0.1 0.6 7.3 3.8-0.3 0.1 1.6z"/>
	<path id="Layer" fill-rule="evenodd" class="s13" d="m371.8 218.5l-0.7-8.8 3.5-0.3q1-0.1 1.8 0.2 0.7 0.3 1.1 0.9 0.5 0.6 0.5 1.5 0.1 0.9-0.2 1.6-0.4 0.6-1.1 1 0 0.1 0 0.1l2.1 3.3-2.1 0.1-1.9-3-1.3 0.1 0.2 3.2zm1.6-3.3l-0.1-1.5h-0.8l0.2 1.6zm1.1-1.7q0.6 0 0.9-0.2 0.3-0.2 0.5-0.5 0.1-0.3 0.1-0.7 0-0.4-0.2-0.7-0.2-0.3-0.6-0.5-0.4-0.1-0.9 0l-1.3 0.1 0.2 2.6zm5.3 4.3l-0.7-8.9 6-0.4 0.1 1.5-4.1 0.3 0.1 2.2 3.8-0.3 0.2 1.5-3.8 0.3 0.1 2.1 4.1-0.3 0.2 1.5zm7.4-0.5l-0.7-8.9 3.6-0.3q1-0.1 1.7 0.3 0.7 0.3 1.2 0.9 0.4 0.7 0.5 1.6 0 0.9-0.3 1.6-0.3 0.7-1 1.1-0.7 0.4-1.7 0.5l-1.6 0.1 0.2 2.9zm1.7-3l-0.1-1.5h-0.7l0.1 1.5zm1.2-1.6q0.5 0 0.9-0.2 0.3-0.2 0.4-0.6 0.2-0.3 0.2-0.8-0.1-0.4-0.3-0.7-0.2-0.4-0.6-0.5-0.3-0.2-0.9-0.1l-1.2 0.1 0.2 2.9zm12.9-1q0.1 1.4-0.4 2.5-0.4 1-1.3 1.7-0.9 0.6-2.1 0.7-1.2 0-2.2-0.4-0.9-0.5-1.6-1.5-0.6-0.9-0.7-2.4-0.1-1.4 0.3-2.5 0.5-1.1 1.4-1.7 0.9-0.6 2.1-0.7 1.2-0.1 2.1 0.4 1 0.5 1.7 1.4 0.6 1 0.7 2.5zm-1.9 0.1q-0.1-0.9-0.4-1.5-0.3-0.7-0.9-1-0.5-0.3-1.2-0.2-0.7 0-1.1 0.4-0.5 0.4-0.8 1.1-0.2 0.6-0.1 1.6 0.1 0.9 0.4 1.5 0.3 0.7 0.9 1 0.5 0.2 1.2 0.2 0.7-0.1 1.1-0.4 0.5-0.4 0.7-1.1 0.3-0.6 0.2-1.6zm3.6 4.2l-0.7-8.9 3.6-0.3q1 0 1.7 0.3 0.7 0.3 1.2 0.9 0.4 0.6 0.5 1.5 0 0.9-0.3 1.6-0.3 0.6-1 1-0.1 0-0.1 0.1l2.1 3.3-2 0.1-2-3-1.3 0.1 0.2 3.2zm1.7-3.3l-0.2-1.5h-0.7l0.1 1.5zm1.1-1.6q0.6 0 0.9-0.2 0.4-0.2 0.5-0.5 0.2-0.3 0.1-0.7 0-0.5-0.2-0.8-0.2-0.3-0.6-0.4-0.3-0.1-0.9-0.1l-1.2 0.1 0.2 2.7zm4.3-3l-0.1-1.6 7.3-0.5 0.1 1.5-2.7 0.2 0.5 7.4-1.8 0.1-0.6-7.3z"/>
	<path id="Layer" class="s12" d="m369.4 231.2l56-4.4"/>
	<path id="Layer" class="s14" d="m375.3 238.1l45.3-3.6"/>
	<path id="Layer" class="s14" d="m377.4 245.3l42.3-3.3"/>
	<path id="Layer" class="s12" d="m448.7 260.2l-9.5-121.9 9.3-0.7 10.5 133.5-91.2 7.2-0.9-11.7z"/>
	<path id="Layer" fill-rule="evenodd" class="s11" d="m448.5 260.2l-9.5-121.9 5.1-0.4 10 127.7-77.2 6.1-0.4-5.9z"/>
	<path id="Layer" class="s12" d="m705.4 33.5l-84-14.4-20.2 117.7 84 14.4z"/>
	<path id="Layer" class="s12" d="m608 138l-1.1 6.4 84 14.4 20.2-117.7-6.8-1.2"/>
	<path id="Layer" fill-rule="evenodd" class="s15" d="m662.2 42.3c0.2-1.2-0.6-2.3-1.8-2.5l-28.4-4.9c-1.2-0.2-2.3 0.6-2.5 1.8l-4.9 28.4c-0.2 1.2 0.6 2.3 1.7 2.5l28.5 4.9c1.2 0.2 2.3-0.6 2.5-1.8z"/>
	<path id="Layer" fill-rule="evenodd" class="s15" d="m683.1 104.4c0.2-1.1-0.6-2.3-1.8-2.5l-28.4-4.8c-1.2-0.2-2.3 0.5-2.5 1.7l-4.9 28.5c-0.2 1.2 0.6 2.3 1.8 2.5l28.4 4.9c1.2 0.2 2.3-0.6 2.5-1.8z"/>
	<path id="Layer" class="s12" d="m627.5 67.8c2.4-5.8 8.6-9.2 14.8-8.2 6.3 1.1 11 6.4 11.3 12.7"/>
	<path id="Layer" class="s12" d="m648.5 130c2.4-5.9 8.6-9.3 14.8-8.2 6.2 1.1 10.9 6.4 11.2 12.7"/>
	<path id="Layer" class="s12" d="m671.3 59.6l15.6 2.7"/>
	<path id="Layer" class="s12" d="m623.8 109.5l15.6 2.7"/>
	<path id="Layer" class="s12" d="m670 67.3l21.4 3.6"/>
	<path id="Layer" class="s12" d="m616.8 116.2l21.3 3.7"/>
	<path id="Layer" class="s12" d="m668.7 74.9l15.6 2.7"/>
	<path id="Layer" class="s12" d="m621.2 124.8l15.6 2.7"/>
	<path id="Layer" fill-rule="evenodd" class="s16" d="m644.9 44.8c4.1 0.7 6.9 4.6 6.2 8.7-0.7 4.1-4.6 6.9-8.7 6.1-4.2-0.7-6.9-4.6-6.2-8.7 0.7-4.1 4.6-6.8 8.7-6.1z"/>
	<path id="Layer" fill-rule="evenodd" class="s16" d="m665.8 106.9c4.1 0.7 6.9 4.6 6.2 8.8-0.7 4.1-4.6 6.8-8.7 6.1-4.1-0.7-6.9-4.6-6.2-8.7 0.7-4.1 4.6-6.9 8.7-6.2z"/>
	<path id="Layer" class="s13" d="m572.7 50.7c13.8 0 25.1-11.2 25.1-25.1 0-13.8-11.3-25.1-25.1-25.1-13.9 0-25.1 11.3-25.1 25.1 0 13.9 11.2 25.1 25.1 25.1z"/>
	<path id="Layer" class="s13" d="m532 197.9c15.7 0 28.4-12.7 28.4-28.4 0-15.7-12.7-28.4-28.4-28.4-15.7 0-28.4 12.7-28.4 28.4 0 15.7 12.7 28.4 28.4 28.4z"/>
	<path id="Layer" class="s13" d="m754.5 126.4c5.6 0 10.1-4.5 10.1-10.2 0-5.6-4.5-10.1-10.1-10.1-5.6 0-10.2 4.5-10.2 10.1 0 5.7 4.6 10.2 10.2 10.2z"/>
	<path id="Layer" class="s13" d="m798.1 250.9c5.6 0 10.1-4.5 10.1-10.1 0-5.6-4.5-10.2-10.1-10.2-5.6 0-10.2 4.6-10.2 10.2 0 5.6 4.6 10.1 10.2 10.1z"/>
	<path id="Layer" class="s13" d="m459.5 324.1c7.5 0 13.7-6.1 13.7-13.7 0-7.6-6.2-13.7-13.7-13.7-7.6 0-13.8 6.1-13.8 13.7 0 7.6 6.2 13.7 13.8 13.7z"/>
	<path id="Layer" class="s17" d="m414.1 359.8c13.6 0 24.7-11.1 24.7-24.7 0-13.7-11.1-24.7-24.7-24.7-13.7 0-24.7 11-24.7 24.7 0 13.6 11 24.7 24.7 24.7z"/>
	<path id="Layer" class="s17" d="m728.4 371.2c8.8 0 15.9-7.2 15.9-16 0-8.8-7.1-15.9-15.9-15.9-8.8 0-16 7.1-16 15.9 0 8.8 7.2 16 16 16z"/>
	<path id="Layer" class="s17" d="m716.6 356.4c7.4 0 13.5-6.1 13.5-13.5 0-7.5-6.1-13.6-13.5-13.6-7.5 0-13.5 6.1-13.5 13.6 0 7.4 6 13.5 13.5 13.5z"/>
	<path id="Layer" class="s17" d="m640.3 216.5c7.5 0 13.5-6.1 13.5-13.5 0-7.5-6-13.5-13.5-13.5-7.5 0-13.5 6-13.5 13.5 0 7.4 6 13.5 13.5 13.5z"/>
	<path id="Layer" class="s17" d="m461.8 106.1c7.5 0 13.5-6 13.5-13.5 0-7.5-6-13.5-13.5-13.5-7.5 0-13.5 6-13.5 13.5 0 7.5 6 13.5 13.5 13.5z"/>
	<path id="Layer" class="s18" d="m492.7 109.2c13.8 0 24.9-11.2 24.9-25 0-13.8-11.1-24.9-24.9-24.9-13.8 0-25 11.1-25 24.9 0 13.8 11.2 25 25 25z"/>
	<path id="Layer" class="s19" d="m569 24.7c5.1 0 9.2-1.8 9.2-4.1 0-2.3-4.1-4.1-9.2-4.1-5 0-9.1 1.8-9.1 4.1 0 2.3 4.1 4.1 9.1 4.1z"/>
	<path id="Layer" class="s19" d="m559.9 20.6v4.6c0 2.2 4.1 4.1 9.1 4.1 5.1 0 9.2-1.9 9.2-4.1v-4.6"/>
	<path id="Layer" class="s19" d="m565.4 24.4v4.5"/>
	<path id="Layer" class="s19" d="m578.2 22.1c4.1 0.3 7.3 2 7.3 4 0 2.3-4.1 4.1-9.2 4.1-2.2 0-4.3-0.4-5.9-1"/>
	<path id="Layer" class="s19" d="m567.2 29.2v1.5c0 2.2 4.1 4.1 9.1 4.1 5.1 0 9.2-1.9 9.2-4.1v-4.6"/>
	<path id="Layer" class="s19" d="m580 29.9v4.5"/>
	<path id="Layer" class="s19" d="m572.7 24.4v10"/>
	<path id="Layer" class="s19" d="m483.5 91.5v-12.8"/>
	<path id="Layer" class="s19" d="m501.8 78.7v12.8"/>
	<path id="Layer" class="s19" d="m489 85.1v1.8"/>
	<path id="Layer" class="s19" d="m492.7 84.2v2.7"/>
	<path id="Layer" class="s19" d="m496.3 83.2v3.7"/>
	<path id="Layer" class="s19" d="m503.7 76.8c0-1-0.9-1.8-1.9-1.8h-18.3c-1 0-1.8 0.8-1.8 1.8 0 1.1 0.8 1.9 1.8 1.9h18.3c1 0 1.9-0.8 1.9-1.9z"/>
	<path id="Layer" class="s19" d="m492.7 91.5v3.6"/>
	<path id="Layer" class="s19" d="m492.7 98.8c1 0 1.8-0.8 1.8-1.8 0-1-0.8-1.9-1.8-1.9-1 0-1.8 0.9-1.8 1.9 0 1 0.8 1.8 1.8 1.8z"/>
	<path id="Layer" class="s19" d="m481.7 91.5h22"/>
	<path id="Layer" class="s12" d="m523.4 167.2c0-1.2-0.9-2.1-2.1-2.1h-4.1c-1.2 0-2.1 0.9-2.1 2.1v4.6c0 1.2 0.9 2.1 2.1 2.1h4.1c1.2 0 2.1-0.9 2.1-2.1z"/>
	<path id="Layer" class="s12" d="m545 157.8c0-1.2-1-2.2-2.2-2.2h-5.2c-1.2 0-2.2 1-2.2 2.2v5.7c0 1.2 1 2.2 2.2 2.2h5.2c1.2 0 2.2-1 2.2-2.2z"/>
	<path id="Layer" class="s12" d="m545 175.4c0-1.1-1-2.1-2.2-2.1h-5.2c-1.2 0-2.2 1-2.2 2.1v5.8c0 1.2 1 2.2 2.2 2.2h5.2c1.2 0 2.2-1 2.2-2.2z"/>
	<path id="Layer" class="s12" d="m523.4 169.5h6"/>
	<path id="Layer" class="s12" d="m535.4 178.3h-2.4q0 0 0 0c-2 0-3.6-1.7-3.6-3.7q0 0 0 0v-10.2q0 0 0 0c0-2 1.6-3.7 3.6-3.7q0 0 0 0h2.4"/>
	<path id="Layer" class="s12" d="m788.7 160.4l-123.1 16.9 11 80.5 123.1-16.8z"/>
	<path id="Layer" fill-rule="evenodd" class="s11" d="m788.7 160.4l-123.1 16.9 0.8 5.8 123.1-16.8z"/>
	<path id="Layer" fill-rule="evenodd" class="s13" d="m692.6 216.3l-6.8 1 3.5 25.6 6.8-0.9z"/>
	<path id="Layer" fill-rule="evenodd" class="s13" d="m705.5 221.5l-6.8 1 2.6 18.8 6.8-0.9z"/>
	<path id="Layer" fill-rule="evenodd" class="s13" d="m716.6 213.1l-6.8 0.9 3.5 25.7 6.8-1z"/>
	<path id="Layer" fill-rule="evenodd" class="s13" d="m730 221.4l-6.8 1 2.1 15.6 6.8-0.9z"/>
	<path id="Layer" fill-rule="evenodd" class="s13" d="m740.6 209.8l-6.8 0.9 3.5 25.7 6.8-1z"/>
	<path id="Layer" fill-rule="evenodd" class="s13" d="m751 196.1l-6.8 1 5.1 37.6 6.8-0.9z"/>
	<path id="Layer" class="s12" d="m684.3 243.6l77.1-10.5"/>
	<path id="Layer" class="s12" d="m682.5 230.8c0 0 7-1 11.1-1.5 1.8-0.3 3.5-0.9 5.1-1.8 2.6-1.5 6.9-4 10.2-5.9 3.3-1.9 7-2.7 10.8-2.3 1.1 0.1 2.4 0.2 3.7 0.3 7.1 0.7 14-3 17.5-9.3 2.1-3.9 4.4-8 5.9-10.7 1.1-2.1 2.6-4 4.5-5.5 2-1.6 4.3-3.4 4.3-3.4"/>
	<path id="Layer" fill-rule="evenodd" class="s11" d="m771.6 191.6c-3.7 0.3-7-2.3-7.5-6-0.5-3.6 2-7.1 5.6-7.7l11.1-1.5 0.4 3-5.1 0.7q0.9 0.9 1.4 2.2l4.1-0.6 0.4 3-4.1 0.6q-0.1 1.3-0.7 2.5l5.1-0.7 0.4 3-11.1 1.5zm-0.1-3c1.6-0.2 2.8-1.4 3.2-2.9q0.2-0.7 0.1-1.5-0.1-0.8-0.5-1.5c-0.8-1.3-2.3-2.1-3.9-1.9-2.1 0.3-3.6 2.3-3.3 4.4 0.3 2.2 2.3 3.7 4.4 3.4z"/>
</svg>