<svg width="1386" height="1203" viewBox="0 0 1386 1203" fill="none" xmlns="http://www.w3.org/2000/svg">
<path fill-rule="evenodd" clip-rule="evenodd" d="M1236.6 680.211C1222.3 882.887 1104.77 1057.26 936.325 1151C936.465 1148.72 936.541 1147.41 936.541 1147.41L831.611 868.805C831.611 868.805 835.524 864.174 835.229 855.538C835.017 849.307 801.215 838.294 782.398 832.642L776.528 805.52C827.407 767.493 860.368 706.785 860.368 638.44C860.368 523.385 766.958 429.975 651.903 429.975C536.848 429.975 443.438 523.385 443.438 638.44C443.438 706.786 476.399 767.494 527.279 805.521L526.101 810.963C497.753 822.97 443.36 846.157 432.393 851.919C417.415 859.789 427.569 868.805 427.569 868.805L338.457 1133.73C174.591 1029.75 65.7402 846.706 65.7402 638.44C65.7402 626.08 66.1232 613.809 66.8792 601.637H335.905V439.434L334.699 382.748H124.383C158.017 313.55 204.868 251.944 261.646 201.222L262.333 318.825L502.347 317.618V80.0173L496.676 73.0873C546.123 59.5223 598.174 52.2773 651.903 52.2773C695.669 52.2773 738.321 57.0843 779.36 66.1993L730.299 75.1933L718.238 95.6973L702.559 98.1093L730.299 289.878L895.534 293.497C895.534 293.497 908.208 304.406 917.244 304.351C926.28 304.297 932.923 294.703 932.923 294.703H1080.07L1069.06 226.817C1123.31 281.794 1166.79 347.428 1196.06 420.278L1023.38 377.923L964.282 611.326L1236.6 680.211Z" fill="#BEE3D8"/>
<path d="M734.547 610.925C739.084 600.889 745.065 584.402 743.538 569.823C741.143 546.953 720.472 534.248 720.472 534.248L725.75 518.414C725.75 518.414 710.3 525.349 695.055 521.83C679.808 518.313 680.782 507.043 664.169 506.848C637.725 506.537 595.962 529.947 595.962 529.947C595.962 529.947 596.524 511.359 593.422 516.265C582.671 533.271 562.901 541.482 543.579 562.784C524.257 584.089 528.064 594.415 528.064 594.415L533.749 611.465C533.749 611.465 522.945 612.475 523.693 616.188C524.441 619.898 536.738 626.312 536.738 626.312C536.738 626.312 525.833 645.349 540.648 670.877C555.462 696.405 590.453 728.49 590.453 728.49L605.703 707.062C570.379 688.918 574.672 662.294 588.13 657.68C594.305 655.562 603.783 667.285 611.451 671.002C619.303 674.806 626.39 671.757 626.39 671.757L620.374 631.78C620.374 631.78 631.274 624.23 637.356 613.71C643.437 603.188 644.696 589.699 644.696 589.699C644.696 589.699 665.084 590.073 680.235 581.534C695.383 572.997 705.295 555.55 705.295 555.55C705.295 555.55 727.531 568.892 731.979 593.523C732.801 598.079 733.694 604.018 734.547 610.925Z" fill="#020144"/>
<path d="M934.127 1140.18C934.127 1140.18 927.382 1161.97 916.036 1164.3C904.689 1166.64 888.495 1162 883.471 1167.92C878.447 1173.84 871.41 1179.98 871.41 1179.98C871.41 1179.98 874.653 1170.94 865.38 1172.75C856.106 1174.55 841.258 1181.19 841.258 1181.19C841.258 1181.19 844.269 1176.65 832.815 1176.36C821.362 1176.08 766.431 1186.72 750.801 1184.81C750.801 1184.81 843.346 1194.44 860.555 1193.25C877.765 1192.06 914.634 1193.93 929.303 1172.75C940.158 1157.07 934.127 1140.18 934.127 1140.18Z" fill="#020144"/>
<path d="M456.452 1044.89C456.452 1044.89 459.861 1073.94 449.276 1087.1C438.692 1100.26 440.804 1103.38 440.834 1111.23C440.864 1119.07 444.206 1118.46 444.206 1118.46H475.811L460.131 1043.68L456.452 1044.89Z" fill="#020144"/>
<path d="M396.207 1155.85C396.207 1155.85 391.993 1190.53 399.825 1192.45L385.836 1196.75C385.836 1196.75 390.486 1159.52 396.207 1155.85Z" fill="#020144"/>
<path d="M602.451 877.251C602.451 877.251 571.255 872.78 557.825 885.694C544.395 898.608 548.176 876.045 548.176 876.045L592.802 868.809L602.451 877.251Z" fill="#020144"/>
<path d="M651.898 874.831C651.898 874.831 676.228 877.076 683.256 889.676C690.285 902.277 690.493 877.243 690.493 877.243L663.959 868.801L651.898 874.831Z" fill="#020144"/>
<path d="M335.903 382.748H5.43262V403.252H335.903V382.748Z" fill="#5CBA9E"/>
<path d="M296.101 494.914V528.684H41.6152V470.792C41.6152 470.792 56.5922 468.454 68.1492 485.265C79.7062 502.076 85.2752 517.049 93.4772 509.387C101.679 501.724 92.6322 482.08 94.6832 476.822C96.7342 471.564 101.552 463.852 124.835 488.883C148.119 513.915 158.606 504.562 158.606 504.562C158.606 504.562 179.486 514.139 195.995 508.181C212.504 502.222 231.748 479.985 249.063 480.828C266.379 481.67 296.101 494.914 296.101 494.914Z" fill="#5CBA9E"/>
<path d="M349.169 438.228H337.108V602.257H39.9961V621.555H347.963L349.169 438.228Z" fill="#020144"/>
<path d="M458.924 27.1396V78.8107H502.621L458.924 27.1396Z" fill="#020144"/>
<path fill-rule="evenodd" clip-rule="evenodd" d="M291.779 319.789H502.621V102.933H515.611V332.092H291.779V319.789Z" fill="#020144"/>
<path d="M930.508 265.756C930.508 265.756 980.436 220.134 1063.18 217.512L1059.56 192.184C1059.56 192.184 1007.01 197.591 969.103 229.573C931.199 261.556 930.508 265.756 930.508 265.756Z" fill="#020144"/>
<path d="M1063.18 282.641L919.651 286.259L745.973 274.685L756.828 265.755C756.828 265.755 821.726 236.734 916.033 274.685C916.033 274.685 975.306 247.07 1006.49 250.076C1037.67 253.082 1070.58 260.931 1070.58 260.931L1063.18 282.641Z" fill="#020144"/>
<path d="M1372.28 480.672L1385.09 483.881L1326 719.91L972.977 631.517L976.746 616.463L1316.95 701.647L1372.28 480.672Z" fill="#020144"/>
<path d="M651.928 741.991C673.198 751.611 685.088 753.644 696.196 753.005C709.167 752.26 729.101 747.877 734.374 723.176C741.326 690.607 738.309 641.363 734.547 610.925M734.547 610.925C739.084 600.889 745.065 584.402 743.538 569.823C741.143 546.953 720.472 534.248 720.472 534.248L725.75 518.414C725.75 518.414 710.3 525.349 695.055 521.83C679.808 518.313 680.782 507.043 664.169 506.848C637.725 506.537 595.962 529.947 595.962 529.947C595.962 529.947 596.524 511.359 593.422 516.265C582.671 533.271 562.901 541.482 543.579 562.784C524.257 584.089 528.064 594.415 528.064 594.415L533.749 611.465C533.749 611.465 522.945 612.475 523.693 616.188C524.441 619.898 536.738 626.312 536.738 626.312C536.738 626.312 525.833 645.349 540.648 670.877C555.462 696.405 590.453 728.49 590.453 728.49L605.703 707.062C570.379 688.918 574.672 662.294 588.13 657.68C594.305 655.562 603.783 667.285 611.451 671.002C619.303 674.806 626.39 671.757 626.39 671.757L620.374 631.78C620.374 631.78 631.274 624.23 637.356 613.71C643.437 603.188 644.696 589.699 644.696 589.699C644.696 589.699 665.084 590.073 680.235 581.534C695.383 572.997 705.295 555.55 705.295 555.55C705.295 555.55 727.531 568.892 731.979 593.523C732.801 598.079 733.694 604.018 734.547 610.925Z" stroke="#020144" stroke-width="6.25" stroke-miterlimit="10" stroke-linecap="round" stroke-linejoin="round"/>
<path d="M663.358 636.346C662.798 630.354 664.386 625.308 666.906 625.072C669.425 624.835 671.924 629.501 672.483 635.492C673.045 641.482 671.456 646.531 668.937 646.767C666.417 647.003 663.92 642.338 663.358 636.346Z" fill="#020144" stroke="#020144" stroke-width="6.25" stroke-miterlimit="10" stroke-linecap="round" stroke-linejoin="round"/>
<path d="M716.458 625.451C715.899 619.459 717.486 614.412 720.007 614.176C722.527 613.94 725.024 618.605 725.584 624.597C726.146 630.588 724.558 635.635 722.038 635.871C719.517 636.108 717.02 631.442 716.458 625.451Z" fill="#020144" stroke="#020144" stroke-width="6.25" stroke-miterlimit="10" stroke-linecap="round" stroke-linejoin="round"/>
<path d="M701.578 631.932C701.578 631.932 712.474 650.436 716.623 658.91C722.552 671.017 709.015 675.687 709.015 675.687" stroke="#020144" stroke-width="6.25" stroke-miterlimit="10" stroke-linecap="round" stroke-linejoin="round"/>
<path d="M719.518 689.839C719.518 689.839 708.516 697.626 697.968 699.075C687.417 700.525 671.887 694.005 671.887 694.005" stroke="#020144" stroke-width="6.25" stroke-miterlimit="10" stroke-linecap="round" stroke-linejoin="round"/>
<path d="M680.988 752.001L682.367 788.951C682.367 788.951 645.211 849.154 626.529 884.924C623.75 890.245 621.38 895.025 619.601 898.986C617.059 904.65 624.744 910.082 624.744 910.082L624.312 1018.84" stroke="#020144" stroke-width="6.25" stroke-miterlimit="10" stroke-linejoin="round"/>
<path d="M626.529 884.921C618.221 875.718 599.831 854.218 590.093 834.083C584.429 822.369 575.285 799.166 580.278 784.99C581.34 781.975 585.405 778.584 588.454 776.373" stroke="#020144" stroke-width="6.25" stroke-miterlimit="10" stroke-linejoin="round"/>
<path d="M588.168 787.629L589.689 727.779" stroke="#020144" stroke-width="6.25" stroke-miterlimit="10" stroke-linecap="round" stroke-linejoin="round"/>
<path d="M682.059 772.316C690.437 774.446 706.372 779.604 710.784 784.297C717.216 791.138 699.813 801.517 699.813 801.517L704.468 885.834C704.468 885.834 678.861 869.629 663.07 868.739C647.281 867.847 636.227 881.416 636.227 881.416" stroke="#020144" stroke-width="6.25" stroke-miterlimit="10" stroke-linecap="round" stroke-linejoin="round"/>
<path d="M586.016 769.86L547.876 785.498L551.752 796.733L539.734 878.766C539.734 878.766 568.087 868.303 585.088 867.624C602.086 866.943 612.693 882.071 612.693 882.071" stroke="#020144" stroke-width="6.25" stroke-miterlimit="10" stroke-linecap="round" stroke-linejoin="round"/>
<path d="M713.018 802.66C713.018 802.66 798.468 834.836 828.172 850.518C839.487 856.493 831.44 866.127 831.44 866.127C831.44 866.127 905.277 1056.08 931.964 1134.5C944.355 1170.92 917.647 1183.76 903.888 1187.79C858.228 1201.17 741.576 1181.66 735.378 1180.6" stroke="#020144" stroke-width="6.25" stroke-miterlimit="10" stroke-linecap="round" stroke-linejoin="round"/>
<path d="M745.978 1114.85C745.978 1114.85 747.749 1101.06 738.623 1088.51C729.498 1075.95 720.201 1078.61 711.766 1068.58C707.185 1063.13 700.535 1052.46 700.535 1052.46C700.535 1052.46 693.175 1056.75 693.368 1063.27C693.564 1069.8 701.307 1078.56 701.307 1078.56C701.307 1078.56 713.127 1087.64 716.472 1096.4C719.82 1105.17 715.469 1110.15 707.277 1113.04C687.012 1120.19 635.775 1126.02 635.775 1126.02C635.775 1126.02 629.932 1126.41 629.486 1130.98C629.037 1135.56 633.797 1137.04 633.797 1137.04L703.753 1133.55L621.56 1148.46C621.56 1148.46 616.923 1151.16 617.584 1155.11C618.245 1159.06 622.918 1160.78 622.918 1160.78L698.468 1152.96L630.967 1167.62C630.967 1167.62 626.801 1168.43 627.667 1173.3C628.478 1177.85 633.143 1177.74 633.143 1177.74L696.569 1170.94" stroke="#020144" stroke-width="6.25" stroke-miterlimit="10" stroke-linecap="round" stroke-linejoin="round"/>
<path d="M642.369 1176.75C640.865 1179.32 639.78 1182.73 644.229 1183.18C658.05 1184.56 689.159 1184.48 710.585 1184.23" stroke="#020144" stroke-width="6.25" stroke-miterlimit="10" stroke-linecap="round" stroke-linejoin="round"/>
<path d="M899.25 1101.7C899.25 1101.7 879.169 1084.97 859.737 1085.85C840.304 1086.73 821.518 1105.24 821.518 1105.24L745.98 1116.06" stroke="#020144" stroke-width="6.25" stroke-miterlimit="10" stroke-linecap="round" stroke-linejoin="round"/>
<path d="M820.369 1105.53C820.522 1105.59 820.676 1105.66 820.831 1105.73C829.122 1109.29 839.711 1116.54 843.447 1130.87C848.251 1149.3 842.583 1178.75 839.341 1192.7M855.956 1192.93C862.022 1181.5 870.614 1162.33 870.266 1145.92C869.73 1120.64 847.999 1101.89 847.999 1101.89" stroke="#020144" stroke-width="6.25" stroke-miterlimit="10" stroke-linecap="round" stroke-linejoin="round"/>
<path d="M777.168 1005.87L820.832 1105.73" stroke="#020144" stroke-width="6.25" stroke-miterlimit="10" stroke-linecap="round" stroke-linejoin="round"/>
<path d="M792.718 1041.43L776.77 1107.3" stroke="#020144" stroke-width="6.25" stroke-miterlimit="10" stroke-linecap="round" stroke-linejoin="round"/>
<path d="M552.121 799.167C552.121 799.167 459.586 835.823 429.704 851.545C419.664 856.828 426.147 870.527 426.147 870.527L337.855 1130.86C337.855 1130.86 333.063 1157.44 340.266 1174.69C347.466 1191.94 366.665 1199.86 366.665 1199.86L490.908 1179.74" stroke="#020144" stroke-width="6.25" stroke-miterlimit="10" stroke-linecap="round" stroke-linejoin="round"/>
<path d="M475.743 1117.43L433.263 1118.46C433.263 1118.46 408.907 1124.4 397.039 1145.15C387.805 1161.29 386.128 1186.4 385.838 1196.76" stroke="#020144" stroke-width="6.25" stroke-miterlimit="10" stroke-linecap="round" stroke-linejoin="round"/>
<path d="M442.056 1118.24L437.537 1108.84L416.158 1109.56" stroke="#020144" stroke-width="6.25" stroke-miterlimit="10" stroke-linecap="round" stroke-linejoin="round"/>
<path d="M427.922 1109.17C427.387 1106.32 425.387 1101.82 418.087 1101.69C407.393 1101.5 400.594 1097.49 385.332 1110.7C370.07 1123.9 357.039 1154.52 357.039 1154.52C357.039 1154.52 350.483 1140.81 354.096 1131.46C357.71 1122.11 366.668 1114.7 366.668 1114.7" stroke="#020144" stroke-width="6.25" stroke-miterlimit="10" stroke-linecap="round" stroke-linejoin="round"/>
<path d="M744.349 1176.75C743.625 1177 735.583 1183.41 708.179 1184.62H499.425C495.042 1184.62 490.681 1181.16 489.68 1176.89L456.655 1036.02C455.656 1031.76 458.396 1028.3 462.779 1028.3H671.533C675.916 1028.3 680.279 1031.76 681.278 1036.02L699.857 1115.27" stroke="#020144" stroke-width="6.25" stroke-miterlimit="10" stroke-linecap="round" stroke-linejoin="round"/>
<path d="M563.281 1110.15C563.281 1103.05 569.035 1097.3 576.134 1097.3C583.23 1097.3 588.983 1103.05 588.983 1110.15C588.983 1117.25 583.23 1123 576.134 1123C569.035 1123 563.281 1117.25 563.281 1110.15Z" stroke="#020144" stroke-width="6.25" stroke-miterlimit="10" stroke-linecap="round" stroke-linejoin="round"/>
<path d="M722.548 1122.63C725.358 1123.71 723.322 1131.06 721.445 1132.24" stroke="#020144" stroke-width="6.25" stroke-miterlimit="10" stroke-linecap="round" stroke-linejoin="round"/>
<path d="M721.129 1140.89C723.143 1144.09 724.349 1147.18 721.635 1150.49" stroke="#020144" stroke-width="6.25" stroke-miterlimit="10" stroke-linecap="round" stroke-linejoin="round"/>
<path d="M721.859 1160.26C727.704 1162.5 723.343 1168.21 722.086 1171.49" stroke="#020144" stroke-width="6.25" stroke-miterlimit="10" stroke-linecap="round" stroke-linejoin="round"/>
<path d="M456.799 954.15C456.799 954.15 459.286 997.381 468.729 1028.29" stroke="#020144" stroke-width="6.25" stroke-miterlimit="10" stroke-linecap="round" stroke-linejoin="round"/>
<path d="M594.009 672.211C594.009 672.211 589.803 683.814 601.246 687.89" stroke="#020144" stroke-width="6.25" stroke-miterlimit="1.5" stroke-linecap="round" stroke-linejoin="round"/>
<path fill-rule="evenodd" clip-rule="evenodd" d="M1071.57 572.68L1032.69 563.078L1056.59 466.27L1315.83 530.285L1291.93 627.093L1214.61 608.001L1214.92 607.082C1214.92 607.082 1247.78 591.742 1247.71 586.578C1247.65 581.414 1251.33 572.105 1251.33 572.105L1239.27 579.341L1221.18 581.754L1219.97 575.723L1212.45 564.315C1212.45 564.315 1209.35 570.371 1209.12 576.929C1208.88 583.487 1200.05 586.691 1204.29 594.401L1198.19 603.947L1159.34 594.353L1141.86 575.723C1141.86 575.723 1132.44 562.322 1134.95 556.426C1134.95 556.426 1153.98 556.566 1160.87 543.159C1167.77 529.751 1169.32 508.182 1169.32 508.182L1123.48 500.945L1111.42 516.624C1111.42 516.624 1106.7 526.317 1110.22 531.098C1113.73 535.878 1105.02 555.859 1098.16 558.838C1092.27 561.396 1076.03 570.234 1071.57 572.68Z" fill="#5CBA9E"/>
<path d="M460.238 200.856H382.266V266.026H460.238V200.856Z" fill="#BEE3D8"/>
<path d="M335.3 437.7V602.332H36.791V657.887H368.092V437.7H335.3Z" stroke="#020144" stroke-width="6.25" stroke-miterlimit="10" stroke-linecap="round" stroke-linejoin="round"/>
<path d="M335.3 382.145H4V602.332H335.3V382.145Z" stroke="#020144" stroke-width="6.25" stroke-miterlimit="10" stroke-linecap="round" stroke-linejoin="round"/>
<path d="M335.3 403.391H4" stroke="#020144" stroke-width="6.25" stroke-miterlimit="10" stroke-linecap="round" stroke-linejoin="round"/>
<path d="M31.4384 393.031H17.8984" stroke="#020144" stroke-width="6.25" stroke-miterlimit="10" stroke-linejoin="round"/>
<path d="M51.706 393.031H38.166" stroke="#020144" stroke-width="6.25" stroke-miterlimit="10" stroke-linejoin="round"/>
<path d="M71.9726 393.031H58.4336" stroke="#020144" stroke-width="6.25" stroke-miterlimit="10" stroke-linejoin="round"/>
<path d="M295.341 431.127H39.9961V530.531H295.341V431.127Z" stroke="#020144" stroke-width="6.25" stroke-miterlimit="10" stroke-linecap="round" stroke-linejoin="round"/>
<path d="M295.341 497.783C280.439 484.597 257.625 475.582 238.262 484.04C214.94 494.225 201.249 518.47 172.001 510.078C167.698 508.844 163.022 506.871 159.231 504.449M159.231 504.449L159.2 504.428C154.31 501.3 149.474 497.264 146.748 492.054C144.627 488.006 143.342 483.527 143.4 478.931C143.798 446.292 195.078 461.161 183.821 485.567C182.27 488.928 179.988 492.225 177.375 494.869C172.412 499.894 165.983 503.131 159.231 504.449ZM159.231 504.449C147.597 506.718 135.001 503.29 127.279 493.494C120.928 485.437 112.823 468.202 99.9681 470.467C86.0021 472.928 99.5341 491.904 100.103 499.836C100.557 506.117 93.5731 511.161 87.8081 510.401C78.3211 509.151 75.2051 495.646 70.5631 489.253C64.3981 480.761 51.7831 473.068 39.9961 472.359" stroke="#020144" stroke-width="6.25" stroke-miterlimit="10" stroke-linecap="round" stroke-linejoin="round"/>
<path d="M39.9961 547.096H146.888" stroke="#020144" stroke-width="6.25" stroke-miterlimit="10" stroke-linecap="square" stroke-linejoin="round"/>
<path d="M294.066 73.333H400.958" stroke="#5CBA9E" stroke-width="6.25" stroke-miterlimit="10" stroke-linecap="square" stroke-linejoin="round"/>
<path d="M294.066 144.773H460.237" stroke="#020144" stroke-width="6.25" stroke-miterlimit="10" stroke-linecap="square" stroke-linejoin="round"/>
<path d="M294.066 173.349H460.237" stroke="#020144" stroke-width="6.25" stroke-miterlimit="10" stroke-linecap="square" stroke-linejoin="round"/>
<path d="M294.066 216.213H337.669" stroke="#020144" stroke-width="6.25" stroke-miterlimit="10" stroke-linecap="square" stroke-linejoin="round"/>
<path d="M39.9961 561.626H105.063" stroke="#020144" stroke-width="6.25" stroke-miterlimit="10" stroke-linecap="square" stroke-linejoin="round"/>
<path d="M294.066 87.6211H359.133" stroke="#5CBA9E" stroke-width="6.25" stroke-miterlimit="10" stroke-linecap="square" stroke-linejoin="round"/>
<path d="M294.066 116.197H359.133" stroke="#5CBA9E" stroke-width="6.25" stroke-miterlimit="10" stroke-linecap="square" stroke-linejoin="round"/>
<path d="M294.066 187.637H359.133" stroke="#020144" stroke-width="6.25" stroke-miterlimit="10" stroke-linecap="square" stroke-linejoin="round"/>
<path d="M294.066 230.502H359.133" stroke="#020144" stroke-width="6.25" stroke-miterlimit="10" stroke-linecap="square" stroke-linejoin="round"/>
<path d="M116.07 561.626H146.889" stroke="#5CBA9E" stroke-width="6.25" stroke-miterlimit="10" stroke-linecap="square" stroke-linejoin="round"/>
<path d="M157.748 561.626H238.919" stroke="#020144" stroke-width="6.25" stroke-miterlimit="10" stroke-linecap="square" stroke-linejoin="round"/>
<path d="M39.9961 576.156H146.888" stroke="#5CBA9E" stroke-width="6.25" stroke-miterlimit="10" stroke-linecap="square" stroke-linejoin="round"/>
<path d="M294.066 101.909H400.958" stroke="#5CBA9E" stroke-width="6.25" stroke-miterlimit="10" stroke-linecap="square" stroke-linejoin="round"/>
<path d="M294.066 130.485H400.958" stroke="#020144" stroke-width="6.25" stroke-miterlimit="10" stroke-linecap="square" stroke-linejoin="round"/>
<path d="M294.066 159.061H460.237" stroke="#020144" stroke-width="6.25" stroke-miterlimit="10" stroke-linecap="square" stroke-linejoin="round"/>
<path d="M294.066 201.925H337.669" stroke="#020144" stroke-width="6.25" stroke-miterlimit="10" stroke-linecap="square" stroke-linejoin="round"/>
<path d="M294.066 244.79H337.669" stroke="#020144" stroke-width="6.25" stroke-miterlimit="10" stroke-linecap="square" stroke-linejoin="round"/>
<path d="M260.504 27.1396H459.013L502.623 79.6167V319.789H260.504V27.1396Z" stroke="#020144" stroke-width="6.25" stroke-miterlimit="10" stroke-linejoin="round"/>
<path d="M459.012 27.1396V80.0166H502.622" stroke="#020144" stroke-width="6.25" stroke-miterlimit="10" stroke-linecap="round" stroke-linejoin="round"/>
<path d="M916.758 274.686L892.006 90.1561C892.006 90.1561 854.019 68.1471 813.058 64.7801C772.094 61.4121 728.156 76.6841 728.156 76.6841L754.47 263.093C754.47 263.093 798.177 253.616 838.748 256.515C879.318 259.412 916.758 274.686 916.758 274.686Z" stroke="#020144" stroke-width="6.25" stroke-miterlimit="10" stroke-linejoin="round"/>
<path d="M892.008 90.156C892.008 90.156 914.331 55.302 952.475 34.077C990.619 12.85 1045.84 4 1045.84 4L1070.58 190.095C1070.58 190.095 1030.01 192.054 991.637 213.279C953.259 234.506 916.76 274.686 916.76 274.686L892.008 90.156Z" stroke="#020144" stroke-width="6.25" stroke-miterlimit="10" stroke-linejoin="round"/>
<path d="M1058.85 191.965L1068.6 260.633L1065.22 281.462C1065.22 281.462 1036.32 271.109 1000.18 271.688C964.049 272.267 920.682 283.775 920.682 283.775L909.651 284.009C909.651 284.009 868.492 271.789 827.026 269.457C785.561 267.126 743.786 274.686 743.786 274.686L721.447 97.8266L728.163 76.6836" stroke="#020144" stroke-width="6.25" stroke-miterlimit="10" stroke-linejoin="round"/>
<path d="M1068.6 260.633C1068.6 260.633 1041.84 246.374 1003.88 249.889C965.92 253.401 916.764 274.686 916.764 274.686" stroke="#020144" stroke-width="6.25" stroke-miterlimit="10" stroke-linejoin="round"/>
<path d="M721.447 97.8271L705.109 100.068L729.955 289.984L896.71 293.897C896.71 293.897 905.068 305.056 915.781 304.619C926.496 304.18 931.508 295.093 931.508 295.093L1078.75 296.83L1065.23 189.707" stroke="#020144" stroke-width="6.25" stroke-miterlimit="10" stroke-linejoin="round"/>
<path d="M994.108 65.542C994.108 65.542 972.152 72.467 954.811 84.721C937.467 96.973 924.74 114.555 924.74 114.555" stroke="#5CBA9E" stroke-width="6.25" stroke-miterlimit="10" stroke-linecap="round" stroke-linejoin="round"/>
<path d="M969.528 107.104C969.528 107.104 955.971 111.986 945.263 120.622C934.555 129.256 926.695 141.647 926.695 141.647" stroke="#5CBA9E" stroke-width="6.25" stroke-miterlimit="10" stroke-linecap="round" stroke-linejoin="round"/>
<path d="M999.807 119.722C999.807 119.722 977.851 126.65 960.51 138.901C943.169 151.155 930.439 168.738 930.439 168.738" stroke="#5CBA9E" stroke-width="6.25" stroke-miterlimit="10" stroke-linecap="round" stroke-linejoin="round"/>
<path d="M1004.53 146.813C1004.53 146.813 982.572 153.741 965.231 165.993C947.889 178.247 935.16 195.829 935.16 195.829" stroke="#5CBA9E" stroke-width="6.25" stroke-miterlimit="10" stroke-linecap="round" stroke-linejoin="round"/>
<path d="M860.218 121.753C860.218 121.753 841.914 116.2 821.046 114.333C797.653 112.24 776.541 117.175 776.541 117.175" stroke="#5CBA9E" stroke-width="6.25" stroke-miterlimit="10" stroke-linecap="round" stroke-linejoin="round"/>
<path d="M863.359 145.012C863.359 145.012 845.053 139.459 824.187 137.592C800.794 135.5 779.682 140.433 779.682 140.433" stroke="#5CBA9E" stroke-width="6.25" stroke-miterlimit="10" stroke-linecap="round" stroke-linejoin="round"/>
<path d="M865.788 168.306C865.788 168.306 847.484 162.756 826.616 160.889C803.223 158.795 782.111 163.73 782.111 163.73" stroke="#5CBA9E" stroke-width="6.25" stroke-miterlimit="10" stroke-linecap="round" stroke-linejoin="round"/>
<path d="M867.808 190.563C867.808 190.563 849.502 185.013 828.636 183.146C805.243 181.052 784.131 185.985 784.131 185.985" stroke="#5CBA9E" stroke-width="6.25" stroke-miterlimit="10" stroke-linecap="round" stroke-linejoin="round"/>
<path d="M1022.43 377.396L1375.45 465.789L1316.35 701.818L963.328 613.425L1022.43 377.396Z" stroke="#020144" stroke-width="6.25" stroke-miterlimit="10" stroke-linejoin="round"/>
<path d="M1034.96 396.787L1123.5 418.96" stroke="#020144" stroke-width="6.25" stroke-miterlimit="10" stroke-linejoin="round"/>
<path d="M1031.89 409.021L1089.27 423.388" stroke="#020144" stroke-width="6.25" stroke-miterlimit="10" stroke-linejoin="round"/>
<path d="M984.988 596.359L1301.8 675.687" stroke="#020144" stroke-width="6.25" stroke-miterlimit="10" stroke-linecap="round" stroke-linejoin="round"/>
<path d="M1043.36 610.975C1044.14 607.849 1047.31 605.948 1050.44 606.729C1053.57 607.513 1055.47 610.683 1054.68 613.812C1053.9 616.938 1050.73 618.839 1047.6 618.055C1044.48 617.273 1042.58 614.101 1043.36 610.975Z" stroke="#020144" stroke-width="6.25" stroke-miterlimit="10" stroke-linejoin="round"/>
<path d="M1168.65 519.642C1166.12 530.938 1159.17 552.879 1142.77 556.674C1140.38 557.227 1138.06 557.133 1135.84 556.588C1124.56 553.808 1116.13 539.318 1116.13 539.318" stroke="#020144" stroke-width="6.25" stroke-miterlimit="10" stroke-linecap="round" stroke-linejoin="round"/>
<path d="M1157.15 469.956C1168.68 476.512 1172.5 485.782 1177.5 498.176C1182.51 510.572 1179.04 517.77 1173.44 520.264C1167.84 522.761 1155.1 508.162 1155.1 508.162C1155.1 508.162 1149.16 512.787 1142.64 513.959C1136.11 515.131 1129 512.849 1129 512.849L1123.08 526.915C1123.08 526.915 1121.42 517.346 1118.02 515.881C1114.61 514.415 1110.33 516.924 1109.44 521.051C1108.56 525.18 1112.33 532.161 1112.33 532.161C1112.33 532.161 1102.77 526.608 1102.14 505.263C1101.75 491.622 1110.8 482.656 1110.8 482.656C1110.8 482.656 1104.91 478.63 1104.76 475.849C1104.62 473.07 1104.56 468.947 1110.86 464.092C1115.67 460.379 1121.75 458.925 1127.1 460.553C1132.45 462.184 1132.26 470.614 1132.26 470.614C1132.26 470.614 1140.35 460.408 1157.15 469.956Z" stroke="#020144" stroke-width="6.25" stroke-miterlimit="10" stroke-linecap="round" stroke-linejoin="round"/>
<path d="M1112.33 532.161C1112.33 532.161 1107.72 549.216 1102.33 554.337C1088.65 567.336 1071.09 572.503 1056.16 582.595C1045.54 589.776 1043.19 592.869 1042.71 594.057" stroke="#020144" stroke-width="6.25" stroke-miterlimit="10" stroke-linecap="round" stroke-linejoin="round"/>
<path d="M1135.85 556.588C1135.72 559.877 1135.68 564.64 1136.29 567.379C1137.55 572.994 1142.58 578.259 1148.44 584.197C1153.87 589.709 1160.01 595.801 1164.49 603.292C1171.47 614.949 1172.45 623.164 1172.5 626.555" stroke="#020144" stroke-width="6.25" stroke-miterlimit="10" stroke-linecap="round" stroke-linejoin="round"/>
<path d="M1148.44 584.197C1143.43 586.273 1132.68 589.526 1119.72 586.303C1106.27 582.959 1090.45 572.647 1083.3 567.639" stroke="#020144" stroke-width="6.25" stroke-miterlimit="10" stroke-linecap="round" stroke-linejoin="round"/>
<path d="M1200.51 633.567L1215.15 605.328C1215.15 605.328 1227.08 602.979 1235.31 598.246C1243.55 593.513 1245.39 590.165 1248.1 586.395C1250.82 582.624 1251 580.755 1251 580.755C1251 580.755 1255.22 572.216 1251.05 572.114C1246.88 572.013 1229.51 582.76 1229.51 582.76L1220.04 581.351C1220.04 581.351 1219.53 570.341 1218.07 567.639C1216.62 564.937 1210.62 563.771 1209.34 566.545C1208.06 569.319 1208.13 577.301 1208.13 577.301C1208.13 577.301 1205.14 582.931 1204.43 587.548C1203.71 592.165 1205.27 595.771 1205.27 595.771L1179.77 628.375" stroke="#020144" stroke-width="6.25" stroke-miterlimit="10" stroke-linecap="round" stroke-linejoin="round"/>
<path d="M1174.9 491.296C1174.9 491.296 1183.77 507.497 1181.38 511.8C1178.98 516.103 1174.2 523.821 1164.49 516.624C1154.78 509.427 1154.84 509.388 1154.84 509.388C1154.84 509.388 1145.94 515.503 1130.72 513.006L1123.48 526.273C1123.48 526.273 1120.97 511.653 1113.84 516.624L1107.8 526.273C1107.8 526.273 1097.48 510.875 1104.19 494.915C1110.89 478.955 1111.42 482.854 1111.42 482.854C1111.42 482.854 1095.57 474.422 1113.84 462.35C1132.1 450.278 1130.16 467.993 1131.93 469.587C1131.93 469.587 1153.99 460.598 1165.7 476.823C1177.41 493.048 1174.9 491.296 1174.9 491.296Z" fill="#020144"/>
<path d="M294.191 319.789L513.145 351.248L554.765 61.5732L507.803 54.8262" stroke="#020144" stroke-width="6.25" stroke-miterlimit="10" stroke-linecap="round" stroke-linejoin="round"/>
<path d="M95.2864 849.507C122.264 849.507 144.133 827.637 144.133 800.659C144.133 773.682 122.264 751.812 95.2864 751.812C68.309 751.812 46.4395 773.682 46.4395 800.659C46.4395 827.637 68.309 849.507 95.2864 849.507Z" fill="#5CBA9E"/>
<path d="M173.303 743.641C183.702 743.641 192.133 735.211 192.133 724.811C192.133 714.412 183.702 705.981 173.303 705.981C162.903 705.981 154.473 714.412 154.473 724.811C154.473 735.211 162.903 743.641 173.303 743.641Z" fill="#5CBA9E"/>
<path d="M583.461 298.875C593.86 298.875 602.291 290.444 602.291 280.045C602.291 269.645 593.86 261.215 583.461 261.215C573.061 261.215 564.631 269.645 564.631 280.045C564.631 290.444 573.061 298.875 583.461 298.875Z" fill="#5CBA9E"/>
<path d="M1141.6 335.681C1160.91 335.681 1176.56 320.028 1176.56 300.719C1176.56 281.41 1160.91 265.757 1141.6 265.757C1122.29 265.757 1106.63 281.41 1106.63 300.719C1106.63 320.028 1122.29 335.681 1141.6 335.681Z" fill="#5CBA9E"/>
<path d="M1281.82 289.878C1291.17 289.878 1298.75 282.298 1298.75 272.949C1298.75 263.599 1291.17 256.02 1281.82 256.02C1272.47 256.02 1264.89 263.599 1264.89 272.949C1264.89 282.298 1272.47 289.878 1281.82 289.878Z" fill="#5CBA9E"/>
<path d="M1025.63 909.32C1034.98 909.32 1042.56 901.74 1042.56 892.391C1042.56 883.041 1034.98 875.462 1025.63 875.462C1016.28 875.462 1008.7 883.041 1008.7 892.391C1008.7 901.74 1016.28 909.32 1025.63 909.32Z" fill="#5CBA9E"/>
<path d="M375.406 1000.17C402.383 1000.17 424.253 978.298 424.253 951.321C424.253 924.343 402.383 902.474 375.406 902.474C348.428 902.474 326.559 924.343 326.559 951.321C326.559 978.298 348.428 1000.17 375.406 1000.17Z" stroke="#5CBA9E" stroke-width="12.5" stroke-miterlimit="1.5" stroke-linecap="round" stroke-linejoin="round"/>
<path d="M1199.75 894.567C1226.72 894.567 1248.59 872.698 1248.59 845.72C1248.59 818.743 1226.72 796.873 1199.75 796.873C1172.77 796.873 1150.9 818.743 1150.9 845.72C1150.9 872.698 1172.77 894.567 1199.75 894.567Z" stroke="#5CBA9E" stroke-width="12.5" stroke-miterlimit="1.5" stroke-linecap="round" stroke-linejoin="round"/>
<path d="M255.387 209.655C272.868 209.655 287.038 195.484 287.038 178.004C287.038 160.523 272.868 146.353 255.387 146.353C237.907 146.353 223.736 160.523 223.736 178.004C223.736 195.484 237.907 209.655 255.387 209.655Z" stroke="#5CBA9E" stroke-width="12.5" stroke-miterlimit="1.5" stroke-linecap="round" stroke-linejoin="round"/>
<path d="M421.029 192.28C419.263 195.582 417.495 198.886 415.889 202.268C410.899 212.773 404.818 225.292 401.12 236.79C398.839 243.88 397.366 248.822 397.97 256.11C398.249 259.487 401.498 260.83 404.398 260.836C410.844 260.848 414.533 254.174 421.31 254.174C428.087 254.174 431.777 260.848 438.223 260.836C441.123 260.83 444.371 259.487 444.651 256.11C445.254 248.822 443.781 243.88 441.501 236.79C437.803 225.292 431.722 212.773 426.732 202.268C425.125 198.886 422.795 195.582 421.029 192.28Z" stroke="#020144" stroke-width="6.25" stroke-miterlimit="10" stroke-linecap="square" stroke-linejoin="round"/>
<path d="M436.229 222.901L443.409 226.558L440.596 234.435L436.229 222.901Z" fill="#020144"/>
<path d="M406.273 222.901L399.092 226.558L401.905 234.435L406.273 222.901Z" fill="#020144"/>
<path d="M407.459 220.431H434.921" stroke="#020144" stroke-width="6.25" stroke-miterlimit="10" stroke-linecap="round" stroke-linejoin="round"/>
<path d="M421.19 230.247C425.688 230.247 429.335 227.406 429.335 223.902C429.335 220.397 425.688 217.557 421.19 217.557C416.692 217.557 413.045 220.397 413.045 223.902C413.045 227.406 416.692 230.247 421.19 230.247Z" fill="#5CBA9E" stroke="#020144" stroke-width="6.86" stroke-miterlimit="10" stroke-linecap="round" stroke-linejoin="round"/>
<path d="M434.921 220.43H428.781C428.781 220.43 425.277 217.219 421.19 217.556C417.102 217.892 415.165 219.306 414.151 220.43C413.138 221.554 407.459 220.43 407.459 220.43L421.19 192.28L434.921 220.43Z" fill="#020144"/>
<path d="M441.723 229.371C441.723 229.371 448.748 231.905 449.038 234.435C449.327 236.966 445.662 240.625 445.662 240.625" stroke="#020144" stroke-width="6.25" stroke-miterlimit="10" stroke-linecap="round" stroke-linejoin="round"/>
<path d="M400.782 229.371C400.782 229.371 393.757 231.905 393.468 234.435C393.178 236.966 396.844 240.625 396.844 240.625" stroke="#020144" stroke-width="6.25" stroke-miterlimit="10" stroke-linecap="round" stroke-linejoin="round"/>
<path d="M446.787 238.937C446.787 238.937 450.175 241.337 448.475 244.563C446.775 247.789 449.715 245.453 449.6 247.377C449.485 249.301 445.679 250.817 444.787 249.065C443.896 247.312 441.723 238.937 441.723 238.937C441.723 238.937 444.983 237.244 446.787 238.937Z" fill="#020144"/>
<path d="M395.717 238.937C395.717 238.937 392.329 241.337 394.029 244.563C395.729 247.789 392.789 245.453 392.904 247.377C393.019 249.301 396.825 250.817 397.717 249.065C398.608 247.312 400.781 238.937 400.781 238.937C400.781 238.937 397.521 237.244 395.717 238.937Z" fill="#020144"/>
</svg>
