<svg width="461" height="461" viewBox="0 0 461 461" fill="none" xmlns="http://www.w3.org/2000/svg">
<g opacity="0.89">
<g opacity="0.89">
<path opacity="0.89" d="M230.763 460.526C357.658 460.526 460.526 357.658 460.526 230.763C460.526 103.869 357.658 1 230.763 1C103.869 1 1 103.869 1 230.763C1 357.658 103.869 460.526 230.763 460.526Z" stroke="#DEF1EC" stroke-width="0.70766" stroke-linecap="round" stroke-linejoin="round"/>
</g>
<g opacity="0.89">
<path opacity="0.89" d="M230.763 443.769C348.403 443.769 443.77 348.403 443.77 230.763C443.77 113.123 348.403 17.7563 230.763 17.7563C113.123 17.7563 17.7568 113.123 17.7568 230.763C17.7568 348.403 113.123 443.769 230.763 443.769Z" stroke="#DEF1EC" stroke-width="0.826604" stroke-linecap="round" stroke-linejoin="round"/>
</g>
<g opacity="0.89">
<path opacity="0.89" d="M230.764 427.014C339.15 427.014 427.014 339.149 427.014 230.763C427.014 122.377 339.15 34.5132 230.764 34.5132C122.378 34.5132 34.5135 122.377 34.5135 230.763C34.5135 339.149 122.378 427.014 230.764 427.014Z" stroke="#DEF1EC" stroke-width="0.945549" stroke-linecap="round" stroke-linejoin="round"/>
</g>
<g opacity="0.89">
<path opacity="0.89" d="M230.763 410.257C329.895 410.257 410.257 329.895 410.257 230.763C410.257 131.632 329.895 51.2695 230.763 51.2695C131.631 51.2695 51.2695 131.632 51.2695 230.763C51.2695 329.895 131.631 410.257 230.763 410.257Z" stroke="#DEF1EC" stroke-width="1.06449" stroke-linecap="round" stroke-linejoin="round"/>
</g>
<g opacity="0.89">
<path opacity="0.89" d="M230.763 393.5C320.64 393.5 393.5 320.64 393.5 230.763C393.5 140.886 320.64 68.0259 230.763 68.0259C140.886 68.0259 68.0262 140.886 68.0262 230.763C68.0262 320.64 140.886 393.5 230.763 393.5Z" stroke="#DEF1EC" stroke-width="1.18344" stroke-linecap="round" stroke-linejoin="round"/>
</g>
<g opacity="0.89">
<path opacity="0.89" d="M230.763 376.744C311.386 376.744 376.744 311.386 376.744 230.763C376.744 150.14 311.386 84.7827 230.763 84.7827C150.141 84.7827 84.7827 150.14 84.7827 230.763C84.7827 311.386 150.141 376.744 230.763 376.744Z" stroke="#DEF1EC" stroke-width="1.3023" stroke-linecap="round" stroke-linejoin="round"/>
</g>
<g opacity="0.89">
<path opacity="0.89" d="M230.763 359.988C302.131 359.988 359.987 302.132 359.987 230.763C359.987 159.395 302.131 101.54 230.763 101.54C159.394 101.54 101.539 159.395 101.539 230.763C101.539 302.132 159.394 359.988 230.763 359.988Z" stroke="#DEF1EC" stroke-width="1.42124" stroke-linecap="round" stroke-linejoin="round"/>
</g>
<g opacity="0.89">
<path opacity="0.89" d="M230.763 343.231C292.877 343.231 343.231 292.877 343.231 230.763C343.231 168.649 292.877 118.296 230.763 118.296C168.649 118.296 118.295 168.649 118.295 230.763C118.295 292.877 168.649 343.231 230.763 343.231Z" stroke="#DEF1EC" stroke-width="1.54019" stroke-linecap="round" stroke-linejoin="round"/>
</g>
<g opacity="0.89">
<path opacity="0.89" d="M230.763 326.503C283.638 326.503 326.503 283.638 326.503 230.763C326.503 177.888 283.638 135.023 230.763 135.023C177.888 135.023 135.023 177.888 135.023 230.763C135.023 283.638 177.888 326.503 230.763 326.503Z" stroke="#DEF1EC" stroke-width="1.65913" stroke-linecap="round" stroke-linejoin="round"/>
</g>
<g opacity="0.89">
<path opacity="0.89" d="M230.763 309.746C274.384 309.746 309.746 274.384 309.746 230.763C309.746 187.142 274.384 151.78 230.763 151.78C187.142 151.78 151.78 187.142 151.78 230.763C151.78 274.384 187.142 309.746 230.763 309.746Z" stroke="#DEF1EC" stroke-width="1.77807" stroke-linecap="round" stroke-linejoin="round"/>
</g>
<g opacity="0.89">
<path opacity="0.89" d="M230.764 292.989C265.131 292.989 292.99 265.13 292.99 230.763C292.99 196.396 265.131 168.537 230.764 168.537C196.396 168.537 168.537 196.396 168.537 230.763C168.537 265.13 196.396 292.989 230.764 292.989Z" stroke="#DEF1EC" stroke-width="1.89702" stroke-linecap="round" stroke-linejoin="round"/>
</g>
<g opacity="0.89">
<path opacity="0.89" d="M230.763 276.233C255.875 276.233 276.233 255.875 276.233 230.763C276.233 205.651 255.875 185.293 230.763 185.293C205.651 185.293 185.293 205.651 185.293 230.763C185.293 255.875 205.651 276.233 230.763 276.233Z" stroke="#DEF1EC" stroke-width="2.01596" stroke-linecap="round" stroke-linejoin="round"/>
</g>
</g>
<circle cx="75.2487" cy="156.249" r="28" transform="rotate(30 75.2487 156.249)" fill="#BEE3D8"/>
<path d="M60.4541 146.237L64.6467 161.885L95.9411 153.499" stroke="#F8F8F8" stroke-width="2" stroke-linecap="round"/>
<circle cx="134.249" cy="217.249" r="14.7487" transform="rotate(-30 134.249 217.249)" fill="#D4D4FE"/>
<path d="M125.785 221.361L134.027 223.569L138.444 207.085" stroke="#F8F8F8" stroke-width="2" stroke-linecap="round"/>
<circle cx="231.147" cy="155.147" r="21.2404" fill="#FAD6E4"/>
<path d="M217.63 154.181L226.32 162.871L243.698 145.492" stroke="#F8F8F8" stroke-width="2" stroke-linecap="round"/>
</svg>
