<svg width="515" height="545" viewBox="0 0 515 545" fill="none" xmlns="http://www.w3.org/2000/svg">
<path fill-rule="evenodd" clip-rule="evenodd" d="M199.258 368.951L196.429 361.749L151.261 349.147C150.128 344.79 154.413 331.824 154.413 331.824C154.413 331.824 170.23 331.469 174.854 330.402C181.191 342.442 190.158 352.885 200.979 360.98L199.258 368.951ZM309.529 360.972C317.818 354.778 325.024 347.196 330.781 338.58C334.239 345.418 338.011 348.734 340.344 349.139C345.126 349.974 354.523 350.189 354.523 350.189L356.095 360.161L341.916 368.033L339.815 373.805L314.203 382.57L309.529 360.972ZM46.5241 435.059C17.2149 393.526 0 342.88 0 288.248C0 147.432 114.375 33.1006 255.254 33.1006C396.134 33.1006 510.508 147.424 510.508 288.24C510.508 342.772 493.359 393.327 464.158 434.811C461.014 422.458 456.142 403.663 454.835 400.587C452.849 395.948 406.515 367.512 406.515 367.512C406.515 367.512 405.713 350.785 398.64 353.861C391.559 356.937 396.018 353.861 396.018 353.861C396.018 353.861 391.501 339.878 397.068 330.758C402.636 321.646 380.821 256.984 363.722 258.837C357.419 259.515 350.006 261.739 343.24 265.799C333.238 226.555 297.617 197.491 255.262 197.491C216.845 197.491 183.971 221.396 170.726 255.124C167.939 250.345 163.347 245.706 163.347 245.706L132.359 258.845L106.094 282.998C106.094 282.998 112.935 341.416 111.868 345.468C110.809 349.52 105.862 359.31 97.1597 361.741C88.4571 364.172 67.1556 380.957 63.5488 384.314C59.942 387.671 47.2687 434.944 47.2687 434.944L46.5241 435.059Z" fill="#FAD6E4"/>
<path d="M293.669 48.1358C297.935 30.0786 286.748 11.9839 268.683 7.7201C250.617 3.45629 232.515 14.638 228.249 32.6952C223.983 50.7524 235.17 68.8471 253.235 73.1109C271.3 77.3747 289.403 66.193 293.669 48.1358Z" fill="#F084AD"/>
<path d="M173.365 196.242C203.172 196.242 227.335 172.09 227.335 142.297C227.335 112.504 203.172 88.3521 173.365 88.3521C143.559 88.3521 119.396 112.504 119.396 142.297C119.396 172.09 143.559 196.242 173.365 196.242Z" fill="#F084AD"/>
<path d="M391.186 152.195C420.993 152.195 445.156 128.043 445.156 98.2498C445.156 68.4567 420.993 44.3047 391.186 44.3047C361.38 44.3047 337.217 68.4567 337.217 98.2498C337.217 128.043 361.38 152.195 391.186 152.195Z" fill="#F084AD"/>
<path d="M477.311 250.766C498.126 250.766 515 233.899 515 213.094C515 192.288 498.126 175.421 477.311 175.421C456.496 175.421 439.622 192.288 439.622 213.094C439.622 233.899 456.496 250.766 477.311 250.766Z" fill="#F084AD"/>
<path d="M290.917 209.497C311.732 209.497 328.606 192.63 328.606 171.825C328.606 151.019 311.732 134.152 290.917 134.152C270.101 134.152 253.227 151.019 253.227 171.825C253.227 192.63 270.101 209.497 290.917 209.497Z" fill="#F084AD"/>
<path d="M87.0093 330.311C87.0093 330.311 87.8945 340.109 92.8745 343.169C96.109 345.162 99.418 343.681 101.337 342.4L96.1835 335.975C96.1835 335.975 99.2443 344.715 109.775 345.079C120.306 345.443 121.117 332.494 121.117 332.494L129.273 342.152C138.166 339.985 136.768 332.006 136.768 332.006L138.456 335.934C143.419 327.342 138.786 319.52 133.823 308.936C132.251 305.579 131.217 302.429 130.547 299.684C135.825 296.492 138.629 292.457 140.094 288.785C144.056 287.413 147.663 285.106 152.345 279.847C161.726 269.296 162.421 245.3 162.421 245.3C162.421 245.3 172.497 252.577 172.356 264.467C172.24 274.018 171.231 278.069 172.571 282.113C176.409 280.211 184.765 274.704 181.878 263.806C178.172 249.815 168.7 243.308 162.363 239.934C156.018 236.56 100.758 223.471 90.3845 246.441C90.3845 246.441 78.8031 255.562 79.7213 274.803C80.6396 294.044 86.5378 301.958 81.8391 312.732C77.1403 323.498 67.9414 336.116 76.9418 342.4C76.9418 342.4 82.3768 347.965 88.9285 338.001" fill="#F084AD"/>
<path d="M205.363 434.952C205.363 434.952 199.837 451.142 199.589 459.394L195.386 453.093L196.909 445.221L205.363 434.952Z" fill="#020144"/>
<path d="M397.598 331.816L391.823 324.465C391.823 324.465 397.267 318.834 396.547 314.493C395.836 310.152 390.74 306.034 388.672 307.142C386.604 308.25 384.999 315.014 384.999 315.014L378.695 316.585C378.695 316.585 379.845 305.406 374.493 297.683C374.493 297.683 375.866 286.71 374.493 281.41C373.12 276.11 368.545 262.747 362.415 263.037C362.415 263.037 359.975 254.76 350.858 263.037C341.742 271.314 325.851 295.74 324.072 303.463C324.072 303.463 305.741 305.282 316.197 282.989L312.979 277.739L319.878 273.017L312.979 270.917C312.979 270.917 318.571 268.097 320.399 265.145C322.228 262.193 333.213 242.845 341.411 243.093C349.609 243.341 348.766 243.093 348.766 243.093L346.664 235.874C346.664 235.874 350.097 238.148 354.019 238.363C357.94 238.578 383.245 236.287 389.731 241.513C396.216 246.739 398.135 252.535 398.135 252.535C398.135 252.535 410.478 255.785 414.415 271.959C418.361 288.132 419.329 293.052 412.844 306.605C406.333 320.182 397.598 331.816 397.598 331.816Z" fill="#020144"/>
<path d="M347.698 383.264C347.698 383.264 345.688 394.286 339.294 394.286L343.496 375.384C343.496 375.392 347.856 374.325 347.698 383.264Z" fill="#020144"/>
<path d="M355.044 353.869C355.044 353.869 369.19 348.759 368.173 344.417L354.515 349.139L355.044 353.869Z" fill="#020144"/>
<path d="M426.477 471.466L432.251 503.491L422.274 505.591C422.274 505.591 426.65 492.386 426.477 471.466Z" fill="#020144"/>
<path d="M347.698 528.694C347.698 528.694 371.904 530.53 374.485 529.744C377.057 528.959 374.493 522.013 378.158 521.343C378.158 521.343 380.854 524.667 379.208 534.995L347.698 530.273V528.694Z" fill="#020144"/>
<path d="M101.37 367.181L91.915 437.862L82.989 463.586L91.915 491.411L140.234 505.062L179.098 495.09L184.351 497.19C184.351 497.19 197.289 451.812 197.479 445.742C197.67 439.673 186.973 405.317 186.973 405.317L161.238 362.948C161.238 362.948 148.672 372.763 140.226 373.093C131.78 373.424 106.483 370.323 101.37 367.181Z" fill="#F084AD"/>
<path d="M131.656 380.494C114.06 380.494 96.4895 377.112 90.5913 364.841L98.4832 361.054C102.619 369.662 120.43 373.391 146.132 371.043C162.082 369.579 162.628 354.522 162.636 352.802L171.388 352.793C171.421 361.343 166.342 377.98 146.927 379.758C142.038 380.196 136.842 380.494 131.656 380.494Z" fill="#F084AD"/>
<path fill-rule="evenodd" clip-rule="evenodd" d="M390.459 454.267C385.024 453.151 381.359 447.933 382.236 442.402C383.113 436.87 388.2 433.025 393.71 433.637V433.628L410.403 436.258L409.692 440.773L402.007 439.565C402.561 440.739 402.909 442.021 402.991 443.361L409.129 444.328L408.418 448.843L402.28 447.875C401.792 449.124 401.064 450.24 400.179 451.183L407.864 452.39L407.152 456.905L390.459 454.275V454.267ZM391.65 449.835C394.049 450.215 396.349 449.074 397.565 447.123C397.97 446.47 398.251 445.742 398.375 444.94C398.499 444.138 398.458 443.352 398.276 442.608C397.73 440.384 395.885 438.59 393.486 438.218C390.285 437.713 387.265 439.913 386.761 443.113C386.248 446.321 388.448 449.331 391.65 449.835Z" fill="#020144"/>
<path d="M152.113 355.894C151.617 355.894 151.137 355.622 150.897 355.15C146.96 347.386 151.567 331.584 151.766 330.915C151.965 330.245 152.635 329.84 153.313 329.964C157.59 330.733 169.593 332.18 173.762 329.633C177.278 327.483 177.791 313.55 177.286 305.273C177.253 304.785 177.493 304.314 177.907 304.05C180.082 302.636 182.548 300.37 182.606 299.378C182.597 298.452 180.058 295.326 178.205 293.044C176.385 290.803 174.325 288.265 172.869 285.908C172.166 284.759 171.645 283.667 171.272 282.567C170.296 279.64 170.453 276.763 170.685 272.413C170.809 270.189 170.941 267.667 170.983 264.475C171.074 256.686 166.4 250.923 163.612 248.194C163.116 254.966 161.106 272.058 153.354 280.781C148.904 285.784 145.189 288.488 140.532 290.1C139.821 290.348 139.043 289.968 138.795 289.257C138.547 288.546 138.927 287.768 139.639 287.52C143.816 286.073 147.2 283.593 151.311 278.962C160.245 268.908 161.031 245.524 161.039 245.284C161.056 244.779 161.345 244.325 161.8 244.101C162.255 243.878 162.793 243.919 163.198 244.217C163.637 244.531 173.845 252.048 173.696 264.5C173.655 267.75 173.514 270.412 173.398 272.554C173.175 276.738 173.034 279.26 173.845 281.699C174.143 282.592 174.581 283.502 175.177 284.469C176.534 286.677 178.536 289.141 180.306 291.316C183.573 295.343 185.418 297.707 185.311 299.527C185.162 302.007 181.795 304.661 180.033 305.877C180.298 311.053 180.769 328.525 175.169 331.948C170.098 335.041 158.127 333.494 154.049 332.841C153.081 336.554 150.418 348.213 153.313 353.91C153.652 354.58 153.387 355.398 152.717 355.737C152.535 355.845 152.329 355.894 152.113 355.894Z" fill="#020144"/>
<path d="M130.555 301.048C130.092 301.048 129.646 300.816 129.389 300.386C129 299.741 129.207 298.906 129.852 298.518C134.129 295.93 137.157 292.49 138.836 288.281C140.797 283.378 140.209 279.21 140.201 279.169C140.094 278.425 140.606 277.73 141.351 277.623C142.096 277.515 142.79 278.028 142.898 278.772C142.931 278.97 143.601 283.717 141.368 289.298C139.457 294.069 136.057 297.955 131.259 300.858C131.035 300.99 130.795 301.048 130.555 301.048Z" fill="#020144"/>
<path d="M129.282 343.516C128.669 343.516 128.107 343.103 127.958 342.474C127.776 341.747 128.231 341.003 128.959 340.829C136.52 338.985 135.478 332.511 135.428 332.238C135.312 331.56 135.718 330.89 136.379 330.7C137.041 330.501 137.744 330.832 138.017 331.469L138.497 332.585C140.623 326.375 137.736 320.314 133.914 312.318C133.476 311.409 133.037 310.474 132.582 309.515C127.536 298.758 127.917 290.059 127.933 289.695C127.975 288.943 128.62 288.347 129.364 288.405C130.117 288.447 130.696 289.083 130.655 289.836C130.647 289.952 130.316 298.27 135.047 308.358C135.494 309.309 135.933 310.235 136.371 311.144C140.731 320.281 144.503 328.17 139.63 336.612C139.374 337.058 138.886 337.323 138.373 337.29C138.075 337.273 137.794 337.158 137.571 336.967C136.561 339.646 134.253 342.334 129.604 343.475C129.497 343.5 129.389 343.516 129.282 343.516Z" fill="#020144"/>
<path d="M110.205 346.452C110.048 346.452 109.891 346.452 109.734 346.443C98.4007 346.055 95.0421 336.827 94.9015 336.43C94.6533 335.719 95.0255 334.941 95.737 334.693C96.4484 334.445 97.226 334.817 97.4742 335.529C97.59 335.843 100.394 343.392 109.825 343.715C109.949 343.723 110.073 343.723 110.197 343.723C118.925 343.723 119.735 332.866 119.76 332.403C119.81 331.65 120.455 331.088 121.208 331.13C121.961 331.179 122.531 331.824 122.482 332.577C122.176 337.43 119.214 346.452 110.205 346.452Z" fill="#020144"/>
<path d="M96.2663 345.509C94.8186 345.509 93.4289 345.121 92.1549 344.335C86.662 340.961 85.6859 330.865 85.6445 330.444C85.5783 329.691 86.1326 329.03 86.8771 328.963C87.6299 328.897 88.2917 329.443 88.3579 330.195C88.5895 332.734 89.9875 339.804 93.5778 342.011C96.1091 343.566 98.7811 342.466 100.576 341.276C101.205 340.854 102.049 341.027 102.471 341.656C102.884 342.284 102.719 343.128 102.09 343.549C100.13 344.848 98.1524 345.509 96.2663 345.509Z" fill="#020144"/>
<path d="M76.942 343.764C76.669 343.764 76.4043 343.682 76.1644 343.516C67.9333 337.769 73.0539 327.525 77.5707 318.487C78.6213 316.395 79.705 314.228 80.5901 312.186C83.2787 306.018 82.3025 300.957 80.8135 293.3C79.8787 288.488 78.7205 282.501 78.3566 274.869C77.4797 256.554 87.4562 247.153 89.2679 245.598C91.6669 240.521 96.2829 236.792 102.984 234.51C123.673 227.457 158.392 236.296 163 238.743C173.688 244.432 180.298 252.527 183.193 263.467C186.345 275.365 177.237 281.335 173.175 283.345C172.505 283.684 171.686 283.403 171.347 282.733C171.016 282.055 171.289 281.245 171.959 280.905C176.261 278.772 183.094 273.761 180.554 264.161C177.857 253.991 171.694 246.458 161.71 241.141C157.276 238.785 123.814 230.276 103.852 237.081C97.7637 239.157 93.644 242.497 91.609 247.004C91.518 247.202 91.3856 247.376 91.2119 247.516C91.1044 247.599 80.193 256.488 81.0699 274.737C81.4256 282.171 82.5176 287.802 83.4772 292.779C84.9993 300.643 86.0995 306.332 83.0718 313.278C82.1536 315.386 81.0534 317.586 79.9945 319.711C74.8077 330.088 71.8462 337.191 77.7113 341.292C78.3317 341.722 78.4806 342.574 78.0505 343.185C77.794 343.558 77.3721 343.764 76.942 343.764Z" fill="#020144"/>
<path d="M130.605 530.034C109.717 530.034 82.4431 529.703 66.4608 528.215C40.0304 525.75 34.6616 513.447 31.6918 502.11C28.7137 490.708 56.658 391.963 61.4063 384.264C65.8983 376.963 77.3969 368.612 89.3671 363.965C100.949 359.458 108.965 348.668 109.047 348.56C109.494 347.957 110.346 347.824 110.95 348.271C111.554 348.717 111.686 349.569 111.248 350.173C110.9 350.644 102.694 361.707 90.3598 366.503C78.8943 370.96 67.9498 378.848 63.7309 385.695C59.2803 392.922 31.5842 490.89 34.339 501.424C37.1929 512.347 42.0489 523.195 66.7255 525.502C81.4587 526.875 109.213 527.503 144.867 527.264C145.777 527.255 146.315 527.247 146.422 527.255C147.175 527.264 147.779 527.884 147.762 528.636C147.754 529.389 147.109 529.984 146.381 529.976C146.281 529.976 145.76 529.976 144.883 529.984C140.722 530.017 135.866 530.034 130.605 530.034Z" fill="#020144"/>
<path d="M212.759 525.213C211.36 525.213 209.764 523.973 208.548 522.774C202.253 518.631 192.532 512.322 191.225 511.702C189.389 510.834 178.966 506.377 178.866 506.327C178.172 506.029 177.857 505.227 178.147 504.541C178.445 503.847 179.247 503.532 179.934 503.822C180.364 504.004 190.506 508.345 192.392 509.238C194.303 510.139 208.548 519.508 210.161 520.574C210.235 520.624 210.31 520.682 210.376 520.748C210.914 521.285 211.567 521.814 212.072 522.145C211.352 519.805 204.379 512.686 197.959 507.104C193.624 504.276 181.952 496.959 178.775 496.314C176.831 495.917 164.911 499.745 157.035 502.275C154.967 502.937 152.949 503.59 151.071 504.177C143.469 506.575 141.401 506.98 140.4 506.881C139.457 506.782 135.006 505.666 127.18 503.565C108.394 498.521 75.5769 489.203 68.9258 486.672C62.1755 484.101 60.1819 484.258 59.8427 484.316C59.3464 484.613 58.6928 484.564 58.2379 484.159C57.6753 483.654 57.6257 482.794 58.1303 482.232C58.5605 481.753 59.8593 480.306 69.8937 484.126C76.4703 486.631 109.146 495.9 127.883 500.928C138.629 503.813 140.391 504.136 140.673 504.161C141.409 504.21 144.635 503.342 150.244 501.573C152.113 500.986 154.124 500.332 156.192 499.671C168.931 495.57 176.831 493.122 179.313 493.626C183.59 494.503 197.901 503.805 199.514 504.864C199.564 504.897 199.614 504.938 199.663 504.971C203.138 507.981 214.487 518.127 214.835 522.17C214.992 523.981 214.256 524.709 213.619 525.006C213.354 525.155 213.065 525.213 212.759 525.213ZM60.1653 484.068C60.1653 484.068 60.1571 484.068 60.1653 484.068C60.1571 484.068 60.1653 484.068 60.1653 484.068ZM60.1736 484.051C60.1736 484.051 60.1736 484.059 60.1736 484.051C60.1736 484.059 60.1736 484.051 60.1736 484.051Z" fill="#020144"/>
<path d="M212.792 529.877C210.31 529.877 205.653 527.603 196.536 522.6C195.295 521.922 194.137 521.285 193.12 520.74C187.056 517.498 178.172 514.505 178.081 514.472C177.369 514.232 176.98 513.463 177.22 512.744C177.46 512.033 178.229 511.644 178.949 511.884C179.321 512.008 188.132 514.985 194.402 518.325C195.428 518.871 196.594 519.516 197.843 520.194C202.013 522.476 210.533 527.156 212.668 527.156C212.701 527.156 212.726 527.156 212.759 527.156C213.089 526.668 212.386 525.205 211.873 524.494C211.435 523.882 211.567 523.03 212.18 522.592C212.792 522.154 213.635 522.286 214.082 522.89C215.257 524.502 216.63 527.694 214.314 529.422C213.917 529.728 213.429 529.877 212.792 529.877Z" fill="#020144"/>
<path d="M194.551 537.881C194.22 537.881 193.856 537.847 193.467 537.756C191.465 537.31 186.361 535.706 181.853 534.292C178.891 533.358 176.104 532.481 175.251 532.274C174.813 532.175 172.836 532.233 170.925 532.283C164.332 532.464 153.305 532.77 145.901 529.885C145.198 529.612 144.85 528.818 145.123 528.123C145.396 527.421 146.19 527.073 146.885 527.346C153.776 530.025 164.456 529.736 170.842 529.554C173.812 529.471 175.152 529.446 175.888 529.62C176.823 529.852 179.528 530.695 182.655 531.679C186.891 533.01 192.16 534.664 194.046 535.086C194.716 535.235 195.039 535.077 195.221 534.945C195.544 534.714 195.775 534.3 195.916 533.92L175.326 523.212C174.714 522.898 174.432 522.17 174.681 521.525C174.921 520.88 175.607 520.524 176.277 520.673C176.732 520.781 187.453 523.361 190.456 524.469C190.895 524.634 191.556 524.882 192.367 525.205C201.533 528.76 206.811 530.389 208.035 530.042C208.399 529.893 208.515 529.719 208.573 529.579C208.763 529.116 208.548 528.363 208.449 528.14C208.143 527.454 208.449 526.643 209.135 526.337C209.822 526.031 210.633 526.337 210.939 527.024C211.021 527.222 211.766 528.967 211.096 530.604C210.732 531.505 210.012 532.183 209.02 532.58C207.133 533.324 202.517 532.059 191.383 527.743C190.589 527.429 189.935 527.181 189.513 527.024C188.984 526.825 188.165 526.577 187.189 526.296L198.133 531.985C198.629 532.241 198.919 532.787 198.861 533.341C198.828 533.606 198.53 535.921 196.809 537.153C196.338 537.517 195.577 537.881 194.551 537.881Z" fill="#020144"/>
<path d="M74.7414 488.194C74.6008 488.194 74.4684 488.169 74.3278 488.128C73.6081 487.896 73.211 487.136 73.4426 486.416C73.9969 484.672 87.1087 443.576 89.9131 436.945C90.2026 436.25 91.005 435.928 91.6999 436.217C92.3948 436.506 92.7174 437.308 92.4279 438.003C89.6732 444.51 76.1808 486.805 76.0402 487.235C75.8499 487.822 75.3122 488.194 74.7414 488.194Z" fill="#020144"/>
<path d="M78.9851 474.997C78.77 474.997 78.5549 474.947 78.3481 474.84C78.1413 474.732 57.3527 463.942 38.7397 469.961C38.0283 470.193 37.2589 469.804 37.019 469.085C36.7874 468.365 37.1762 467.596 37.8959 467.365C57.6174 460.99 78.7286 471.962 79.6138 472.425C80.2755 472.781 80.532 473.599 80.1846 474.269C79.9447 474.732 79.4731 474.997 78.9851 474.997Z" fill="#020144"/>
<path d="M224.448 436.316C223.877 436.316 223.339 435.952 223.157 435.381C212.113 401.951 198.795 364.932 195.643 362.675C191.705 360.136 161.776 353.596 150.583 351.289C149.847 351.14 149.367 350.412 149.524 349.676C149.673 348.94 150.401 348.469 151.137 348.618C155.307 349.478 192.045 357.11 197.132 360.384C201.872 363.435 218.731 413.254 225.755 434.53C225.995 435.241 225.606 436.018 224.886 436.25C224.737 436.291 224.597 436.316 224.448 436.316Z" fill="#020144"/>
<path d="M223.62 484.746C222.032 484.746 220.502 484.423 219.07 483.77C210.782 479.991 195.105 455.119 194.443 454.061C194.046 453.424 194.237 452.581 194.874 452.184C195.511 451.787 196.354 451.977 196.751 452.614C201.152 459.626 213.933 478.437 220.204 481.29C222.537 482.356 225.267 482.249 228.104 481C235.003 477.965 241.282 469.052 245.327 456.566C248.462 446.892 250.985 434.968 253.211 424.442C255.974 411.394 258.356 400.116 261.384 394.493C263.7 390.193 268.043 385.902 273.081 380.932C280.08 374.028 288.005 366.206 291.917 356.606C292.199 355.911 292.993 355.572 293.696 355.861C294.391 356.143 294.73 356.936 294.441 357.639C290.321 367.752 282.181 375.781 275 382.875C270.12 387.688 265.909 391.847 263.791 395.791C260.954 401.075 258.489 412.701 255.883 425.013C253.641 435.597 251.101 447.595 247.925 457.409C243.64 470.639 236.815 480.148 229.204 483.497C227.293 484.324 225.415 484.746 223.62 484.746Z" fill="#020144"/>
<path d="M214.049 452.275C213.784 452.275 213.52 452.2 213.28 452.035C212.659 451.613 212.494 450.761 212.916 450.141C213.197 449.728 240.637 409.285 244.905 393.401C244.334 391.02 241.191 377.443 241.969 370.596C242.788 363.369 243.143 353.877 241.985 350.115C241.787 349.478 242.084 348.792 242.688 348.494C244.459 347.626 247.668 347.477 249.248 350.644C250.588 353.323 251.722 359.607 252.111 361.964C255.287 362.749 259.87 363.799 261.26 363.874C262.848 363.154 269.88 356.572 274.115 352.603C277.639 349.304 280.675 346.46 281.974 345.509C283.802 344.169 285.283 343.673 286.483 343.996C286.54 344.012 286.598 344.029 286.656 344.045C288.195 342.871 290.701 341.358 292.464 342.259C293.051 342.557 293.464 343.061 293.663 343.715C294.01 344.88 293.547 346.336 293.092 347.369C293.464 347.733 293.837 348.229 294.085 348.891C294.54 350.081 294.482 351.462 293.911 353.009C294.168 353.215 294.408 353.48 294.598 353.827C295.177 354.853 295.111 356.142 294.408 357.672C294.093 358.358 293.282 358.656 292.596 358.342C291.909 358.028 291.611 357.217 291.926 356.531C292.306 355.704 292.282 355.274 292.224 355.158C292.174 355.076 291.984 355.01 291.984 355.01C291.537 354.96 291.148 354.695 290.941 354.299C290.735 353.902 290.726 353.43 290.933 353.033C291.62 351.694 291.827 350.594 291.545 349.85C291.33 349.288 290.867 349.064 290.867 349.064C290.495 348.924 290.205 348.618 290.073 348.246C289.94 347.874 289.982 347.46 290.172 347.113C290.652 346.27 291.041 345.195 291.065 344.674C290.428 344.781 288.84 345.707 287.608 346.757C287.277 347.039 286.838 347.146 286.416 347.047C286.127 346.981 285.87 346.824 285.688 346.6C285.465 346.625 284.828 346.774 283.595 347.675C282.429 348.527 279.302 351.462 275.985 354.563C265.437 364.444 262.848 366.578 261.409 366.578C259.357 366.578 251.474 364.585 250.58 364.362C250.051 364.229 249.654 363.791 249.571 363.245C249.215 360.88 248.016 354.232 246.825 351.843C246.312 350.826 245.551 350.611 244.93 350.644C245.939 355.894 245.294 365.594 244.69 370.886C243.913 377.765 247.61 392.922 247.643 393.071C247.693 393.286 247.693 393.517 247.643 393.732C243.549 409.839 216.341 449.951 215.182 451.654C214.909 452.068 214.479 452.275 214.049 452.275Z" fill="#020144"/>
<path d="M256.04 382.909C255.866 382.909 255.684 382.875 255.519 382.801C254.824 382.512 254.493 381.71 254.783 381.015C258.042 373.209 265.082 372.796 269.748 372.523C271.427 372.424 273.007 372.333 273.751 371.928C276.432 370.489 282.702 363.981 284.903 361.6C285.416 361.046 286.276 361.013 286.83 361.517C287.384 362.03 287.417 362.89 286.913 363.444C286.582 363.808 278.682 372.374 275.05 374.326C273.768 375.02 271.981 375.119 269.905 375.243C265.446 375.5 259.903 375.831 257.298 382.057C257.082 382.594 256.578 382.909 256.04 382.909Z" fill="#020144"/>
<path d="M270.169 366.991C269.855 366.991 269.549 366.883 269.293 366.668C268.713 366.18 268.639 365.321 269.127 364.75L282.603 348.767C283.091 348.188 283.951 348.122 284.522 348.601C285.101 349.089 285.176 349.949 284.688 350.52L271.212 366.503C270.939 366.825 270.558 366.991 270.169 366.991Z" fill="#020144"/>
<path d="M274.14 368.389C273.859 368.389 273.578 368.306 273.338 368.124C272.734 367.677 272.601 366.826 273.04 366.222C277.193 360.55 287.533 349.23 287.972 348.75C288.476 348.196 289.345 348.155 289.899 348.668C290.453 349.172 290.495 350.04 289.982 350.594C289.874 350.71 279.302 362.286 275.24 367.834C274.976 368.19 274.562 368.389 274.14 368.389Z" fill="#020144"/>
<path d="M132.4 374.441C117.601 374.441 102.355 370.96 96.0182 362.261C95.5715 361.649 95.7121 360.798 96.316 360.359C96.9282 359.913 97.7802 360.054 98.2187 360.657C105.341 370.439 126.717 373.25 144.147 370.96C161.412 368.694 162.719 353.364 162.768 352.711C162.826 351.958 163.472 351.413 164.224 351.446C164.977 351.495 165.54 352.149 165.49 352.893C165.473 353.075 164.026 371.101 144.503 373.656C140.648 374.168 136.537 374.441 132.4 374.441Z" fill="#020144"/>
<path d="M188.611 479.164C188.471 479.164 188.322 479.139 188.181 479.098C187.47 478.858 187.081 478.089 187.313 477.378C187.379 477.188 193.6 458.286 195.552 446.296C197.455 434.604 185.12 406.755 184.996 406.474C184.69 405.788 184.996 404.977 185.683 404.671C186.37 404.365 187.172 404.671 187.486 405.358C188.008 406.532 200.276 434.232 198.249 446.726C196.263 458.922 189.968 478.031 189.91 478.222C189.72 478.8 189.182 479.164 188.611 479.164Z" fill="#020144"/>
<path d="M91.6172 493.577C91.0299 493.577 90.4922 493.196 90.3102 492.609L81.2684 462.982C81.0451 462.263 81.4587 461.502 82.1784 461.279C82.8981 461.056 83.6592 461.461 83.8825 462.189L92.9243 491.815C93.1476 492.535 92.734 493.296 92.0143 493.519C91.882 493.552 91.7496 493.577 91.6172 493.577Z" fill="#020144"/>
<path d="M196.9 447.867C196.685 447.867 196.47 447.818 196.272 447.71C195.602 447.363 195.345 446.536 195.701 445.866C208.755 421.019 221.958 426.096 222.512 426.319C223.207 426.608 223.538 427.402 223.256 428.097C222.975 428.791 222.181 429.122 221.486 428.841C221.312 428.775 209.896 424.715 198.116 447.131C197.868 447.603 197.397 447.867 196.9 447.867Z" fill="#020144"/>
<path d="M162.859 284.866C162.859 282.286 163.654 280.194 164.63 280.194C165.606 280.194 166.4 282.286 166.4 284.866C166.4 287.446 165.606 289.538 164.63 289.538C163.654 289.53 162.859 287.446 162.859 284.866Z" fill="#020144"/>
<path d="M164.63 290.894C162.471 290.894 161.503 287.868 161.503 284.866C161.503 281.865 162.471 278.838 164.63 278.838C166.789 278.838 167.757 281.865 167.757 284.866C167.757 287.868 166.789 290.894 164.63 290.894ZM164.63 282.113C164.423 282.675 164.224 283.593 164.224 284.866C164.224 286.131 164.423 287.049 164.63 287.62C164.836 287.057 165.035 286.14 165.035 284.866C165.035 283.593 164.836 282.675 164.63 282.113Z" fill="#020144"/>
<path d="M171.041 318.983C164.249 318.983 161.61 312.955 161.164 309.755C161.097 309.275 161.288 308.796 161.676 308.49C162.057 308.192 162.578 308.118 163.025 308.3C168.162 310.375 173.415 309.093 173.473 309.085C174.201 308.903 174.945 309.341 175.127 310.069C175.309 310.797 174.871 311.541 174.143 311.723C173.928 311.781 169.552 312.864 164.53 311.632C165.374 313.641 167.202 316.246 171.049 316.246C171.074 316.246 171.099 316.246 171.124 316.246C171.868 316.246 172.48 316.849 172.489 317.602C172.497 318.354 171.885 318.966 171.132 318.974C171.099 318.983 171.066 318.983 171.041 318.983Z" fill="#020144"/>
<path d="M347.847 351.62C344.1 351.62 340.253 350.933 336.737 349.04C323.932 342.152 321.88 305.042 321.797 303.463C321.781 303.181 321.839 302.9 321.971 302.644C324.279 298.03 344.795 257.679 357.41 257.679C357.443 257.679 357.476 257.679 357.518 257.679C359.272 257.712 361.679 258.489 363.49 261.912C366.27 262.665 374.352 266.014 375.295 279.533C375.659 280.856 377.661 288.794 375.982 296.476C377.107 298.08 379.795 302.404 380.325 307.663C380.681 311.235 380.772 313.55 380.788 314.898C381.334 314.923 381.988 314.849 382.55 314.51C383.328 314.038 383.849 313.087 384.089 311.682C384.701 308.11 387.522 305.48 387.638 305.373C387.977 305.067 388.415 304.918 388.879 304.943C392.163 305.191 398.309 307.423 398.077 314.063C397.796 321.951 394.247 325.027 389.003 327.219C388.167 327.566 387.208 327.177 386.86 326.342C386.513 325.507 386.901 324.548 387.737 324.201C392.146 322.357 394.578 320.182 394.802 313.947C394.951 309.78 391.046 308.622 389.375 308.316C388.721 309.069 387.629 310.541 387.332 312.236C386.918 314.642 385.876 316.362 384.221 317.346C381.723 318.826 378.919 317.941 378.604 317.834C377.893 317.594 377.438 316.899 377.504 316.155C377.504 316.139 377.653 313.848 377.074 308.002C376.511 302.412 372.979 297.914 372.946 297.873C372.631 297.476 372.516 296.947 372.64 296.451C374.542 288.868 372.135 280.368 372.11 280.285C372.077 280.17 372.052 280.054 372.052 279.938C371.176 266.328 362.556 265.038 362.183 264.988C361.621 264.914 361.125 264.558 360.893 264.037C359.511 261.011 357.981 260.986 357.476 260.978C357.452 260.978 357.435 260.978 357.41 260.978C349.51 260.978 333.519 287.008 325.115 303.744C325.71 314.295 329.152 341.242 338.309 346.171C349.518 352.198 365.691 343.773 365.856 343.682C366.659 343.26 367.652 343.566 368.073 344.36C368.495 345.162 368.197 346.154 367.395 346.576C366.857 346.84 357.708 351.62 347.847 351.62Z" fill="#020144"/>
<path d="M396.258 355.977C395.579 355.977 394.942 355.556 394.711 354.878C393.751 352.132 390.798 342.632 393.089 335.421C393.892 332.899 396.431 329.203 399.641 324.523C406.706 314.245 417.369 298.716 416.029 285.056C414.424 268.775 408.219 258.315 397.581 253.983C396.961 253.735 396.564 253.131 396.564 252.461C396.555 252.122 396.241 243.713 382.128 241.001C375.138 239.653 368.28 239.769 362.233 239.868C356.757 239.959 352.099 240.033 348.55 239.033L349.783 242.729C349.998 243.382 349.783 244.102 349.245 244.532C348.708 244.961 347.955 245.003 347.368 244.647C347.128 244.507 341.072 241.15 332.742 250.303C328.697 254.743 326.223 258.613 324.23 261.722C321.756 265.584 319.771 268.693 316.263 270.421C317.413 270.636 318.877 270.81 320.3 270.9C320.879 270.934 321.4 271.273 321.665 271.793C321.93 272.314 321.897 272.926 321.591 273.422C321.078 274.233 318.712 277.73 315.742 278.714C316.271 279.252 316.942 279.872 317.603 280.418C318.166 280.881 318.356 281.675 318.058 282.344C316.511 285.867 313.169 295.905 316.271 300.006C317.504 301.644 319.845 302.231 323.22 301.768C324.114 301.644 324.949 302.272 325.073 303.165C325.197 304.058 324.569 304.893 323.675 305.017C319.034 305.662 315.659 304.637 313.657 301.983C309.48 296.451 313.136 285.809 314.592 282.154C310.878 278.863 311.374 277.606 311.631 276.986C311.804 276.556 312.383 275.556 314.137 275.688C314.923 275.754 316.056 274.919 317.057 273.885C311.722 273.166 311.473 271.686 311.366 271C311.043 269.048 313.36 268.106 314.228 267.75C317.297 266.501 318.96 263.897 321.483 259.953C323.543 256.736 326.099 252.734 330.326 248.087C336.713 241.067 342.297 240.29 345.68 240.753L344.232 236.403C344.001 235.717 344.257 234.956 344.853 234.543C345.448 234.129 346.251 234.154 346.813 234.609C349.543 236.792 355.4 236.693 362.192 236.585C368.404 236.486 375.444 236.37 382.765 237.784C396.679 240.463 399.269 248.368 399.749 251.337C411.04 256.372 417.625 267.61 419.305 284.742C420.76 299.593 409.684 315.717 402.354 326.384C399.418 330.658 396.878 334.355 396.224 336.422C394.189 342.83 397.192 352.033 397.813 353.811C398.111 354.663 397.664 355.597 396.804 355.903C396.622 355.944 396.44 355.977 396.258 355.977Z" fill="#020144"/>
<path d="M388.854 321.604C388.333 321.604 387.828 321.356 387.505 320.901C386.984 320.157 387.166 319.14 387.911 318.619C389.251 317.685 389.987 316.709 390.095 315.717C390.235 314.394 389.234 313.294 389.218 313.286C388.606 312.624 388.63 311.591 389.292 310.971C389.946 310.35 390.971 310.375 391.592 311.02C391.799 311.235 393.627 313.228 393.362 316.014C393.164 318.007 391.964 319.793 389.788 321.306C389.507 321.513 389.176 321.604 388.854 321.604Z" fill="#020144"/>
<path d="M352.927 423.119C352.174 423.119 351.504 422.598 351.33 421.854C350.825 419.704 350.238 418.257 349.676 416.86C348.865 414.851 348.104 412.949 347.806 409.592C347.434 405.416 349.063 402.877 350.263 401.612L347.061 395.196C346.788 394.65 346.846 393.997 347.202 393.501C347.252 393.426 352.496 386.158 354.548 379.543C356.219 374.135 353.894 356.043 352.852 349.536C352.712 348.643 353.315 347.8 354.217 347.659C355.119 347.518 355.954 348.122 356.095 349.023C356.252 350.007 359.925 373.267 357.683 380.511C355.872 386.365 351.926 392.434 350.437 394.609L353.77 401.273C354.151 402.034 353.886 402.952 353.167 403.398C353.084 403.456 350.71 405.077 351.09 409.302C351.305 411.766 351.793 413.238 352.414 414.834C353.167 411.543 354.366 407.632 356.219 404.697C359.454 399.57 357.534 387.332 356.997 385.645C356.442 383.909 358.147 381.213 362.059 377.617L361.687 374.499C361.613 373.887 361.894 373.284 362.407 372.945C365.451 370.911 392.32 353.017 398.706 351.727C400.113 351.446 401.386 351.669 402.47 352.397C404.993 354.1 405.738 358.086 406.391 361.6C406.673 363.138 407.111 365.453 407.549 365.908C407.93 366.222 408.153 366.677 408.153 367.173C408.153 367.669 407.922 368.132 407.541 368.438C400.129 374.458 380.3 391.177 377.62 396.18C377.363 396.651 376.9 396.974 376.362 397.031C375.825 397.089 375.295 396.891 374.948 396.494C374.667 396.172 368.032 388.622 365.062 379.312C365.013 379.37 364.955 379.427 364.897 379.477C362.614 381.511 360.471 383.967 360.198 384.852C360.761 387.035 363.044 400.05 359.015 406.433C355.615 411.824 354.598 421.532 354.589 421.631C354.507 422.425 353.861 423.053 353.067 423.103C352.993 423.119 352.96 423.119 352.927 423.119ZM366.46 376.773C367.163 376.773 367.817 377.228 368.032 377.939C369.976 384.322 373.955 390.003 376.031 392.69C381.657 385.571 399.211 371.01 404.298 366.842C403.777 365.652 403.479 364.056 403.14 362.212C402.66 359.616 401.999 356.06 400.609 355.126C400.377 354.969 400.022 354.803 399.327 354.944C394.611 355.895 373.74 369.323 365.037 375.111L365.294 377.253C365.476 377.071 365.707 376.922 365.972 376.848C366.146 376.798 366.303 376.773 366.46 376.773Z" fill="#020144"/>
<path d="M338.797 394.6C338.284 394.6 337.407 394.41 336.812 393.228C334.744 389.093 338.351 371.878 339.095 368.471C339.194 368.033 339.459 367.661 339.84 367.421L354.962 358.102C355.731 357.631 356.74 357.871 357.22 358.64C357.691 359.409 357.452 360.417 356.682 360.897L342.156 369.844C340.915 375.632 339.897 381.908 339.55 386.315C340.245 383.132 340.956 379.014 341.478 375.276C341.568 374.648 342.007 374.127 342.611 373.937C342.809 373.871 344.638 373.358 346.424 374.813C349.121 377.021 349.99 382.255 349.088 390.813C348.989 391.715 348.195 392.376 347.285 392.269C346.383 392.178 345.73 391.367 345.829 390.466C346.83 380.924 345.192 378.179 344.48 377.468C342.048 394.088 340.22 394.385 339.112 394.567C339.029 394.584 338.921 394.6 338.797 394.6Z" fill="#020144"/>
<path d="M452.295 545C427.701 545 380.689 537.045 378.273 536.632C377.951 536.566 352.554 531.241 341.75 531.365C331.956 531.505 292.248 530.447 282.603 525.858C281.784 525.469 281.436 524.494 281.825 523.675C282.214 522.856 283.198 522.509 284.009 522.898C292.041 526.718 328.076 528.256 341.701 528.082C341.858 528.082 342.015 528.082 342.181 528.082C353.597 528.082 377.843 533.192 378.885 533.415C403.496 537.608 452.932 544.52 463.43 540.601C475.971 535.921 476.517 523.782 475.904 507.146C475.301 490.534 457.3 406.036 452.113 400.455C446.612 394.526 406.011 368.818 405.597 368.562C404.828 368.074 404.604 367.065 405.084 366.296C405.572 365.527 406.582 365.304 407.351 365.784C409.038 366.85 448.73 391.979 454.52 398.214C460.799 404.977 478.593 490.799 479.18 507.013C479.817 524.444 479.139 538.22 464.571 543.66C462.056 544.62 457.722 545 452.295 545Z" fill="#020144"/>
<path d="M378.546 536.657C378.364 536.657 378.182 536.624 378.009 536.566C377.156 536.268 376.701 535.334 376.999 534.474C379.241 528.058 376.362 515.092 375.254 512.711C375.03 512.231 374.799 511.785 374.575 511.363C373.566 509.42 372.036 506.476 375.262 504.343C377.479 502.871 382.74 502.83 389.954 502.929C391.162 502.946 392.295 502.954 393.271 502.954C396.448 502.929 397.672 503.466 398.516 505.195C398.714 505.608 398.863 505.906 399.624 506.336C401.643 507.088 416.484 504.905 430.232 502.276L422.183 460.85C422.01 459.965 422.589 459.097 423.482 458.931C424.367 458.758 425.236 459.336 425.401 460.229L433.765 503.268C433.938 504.153 433.359 505.013 432.466 505.186C423.176 506.997 401.229 511.016 398.003 509.197C396.357 508.262 395.86 507.254 395.563 506.65C395.53 506.576 395.496 506.509 395.455 506.443C395.314 506.385 394.835 506.261 393.271 506.253C392.278 506.261 391.129 506.245 389.896 506.228C385.958 506.179 378.612 506.071 377.065 507.096C376.404 507.543 376.296 507.609 377.479 509.875C377.719 510.338 377.975 510.834 378.215 511.355C379.638 514.414 382.633 528.264 380.077 535.582C379.853 536.235 379.225 536.657 378.546 536.657Z" fill="#020144"/>
<path d="M402.644 540.353C402.048 540.353 401.477 540.031 401.18 539.46C400.766 538.658 401.08 537.666 401.891 537.252C402.71 536.831 403.272 536.103 403.612 535.028C405.738 528.281 398.359 511.942 395.339 506.22C394.917 505.418 395.223 504.426 396.026 504.004C396.828 503.582 397.821 503.888 398.243 504.69C398.714 505.583 409.717 526.586 406.747 536.02C406.143 537.947 405.01 539.344 403.397 540.179C403.148 540.295 402.892 540.353 402.644 540.353Z" fill="#020144"/>
<path d="M305.128 512.554C305.087 512.554 305.037 512.554 304.996 512.545C301.968 512.297 293.82 511.661 292.447 511.661C292.439 511.661 292.439 511.661 292.43 511.661C290.627 511.661 276.316 509.494 273.809 508.097C272.047 507.113 270.541 505.112 271.096 503.21C271.451 501.995 272.667 500.589 276.547 500.812C282.528 501.151 311.382 501.978 313.988 501.234C316.743 500.184 322.956 495.917 322.153 493.718C321.45 491.799 318.323 489.931 315.808 488.417C314.013 487.342 312.309 486.317 311.234 485.209C309.389 483.316 309.016 479.958 309.72 477.8C310.274 476.089 311.349 475.667 311.937 475.568C312.648 475.444 313.715 475.593 314.758 476.949C315.982 478.545 322.211 481.315 327.224 483.539C330.541 485.011 333.677 486.408 336.067 487.698C340.998 490.361 346.474 496.827 350.47 501.54C351.917 503.251 353.175 504.732 353.977 505.509C355.565 507.047 366.427 508.031 375.593 508.064C376.495 508.064 377.231 508.8 377.231 509.709C377.231 510.611 376.495 511.346 375.593 511.346C375.593 511.346 375.593 511.346 375.585 511.346C370.803 511.33 354.962 511.032 351.702 507.865C350.784 506.981 349.543 505.517 347.98 503.665C344.365 499.398 338.905 492.957 334.52 490.584C332.245 489.352 329.168 487.987 325.909 486.532C319.142 483.531 314.691 481.463 312.714 479.537C312.623 480.579 312.822 482.117 313.608 482.919C314.385 483.721 315.907 484.63 317.521 485.598C320.631 487.466 324.155 489.575 325.255 492.577C327.332 498.224 317.107 503.557 315.138 504.302C311.895 505.534 276.729 504.095 276.382 504.078C275.24 504.012 274.653 504.128 274.372 504.219C274.537 504.5 274.909 504.938 275.43 505.228C277.135 506.187 290.652 508.378 292.439 508.378C292.447 508.378 292.455 508.378 292.455 508.378C294.225 508.378 304.152 509.18 305.277 509.271C306.179 509.345 306.849 510.139 306.783 511.041C306.692 511.901 305.972 512.554 305.128 512.554Z" fill="#020144"/>
<path d="M306.245 519.028C306.22 519.028 306.196 519.028 306.163 519.028C304.946 518.97 276.233 517.531 267.704 510.346C267.522 510.197 267.381 510.007 267.282 509.792C267.175 509.569 266.273 507.535 267.588 505.914C269.193 503.938 272.585 504.483 274.984 505.062C275.861 505.277 276.407 506.162 276.192 507.038C275.976 507.923 275.091 508.461 274.214 508.246C271.311 507.543 270.351 507.874 270.161 507.973C270.161 508.014 270.161 508.064 270.177 508.113C278.342 514.34 306.038 515.729 306.328 515.745C307.23 515.787 307.933 516.556 307.891 517.465C307.842 518.35 307.114 519.028 306.245 519.028Z" fill="#020144"/>
<path d="M300.62 524.047C295.177 524.047 283.231 523.518 274.802 519.259C273.834 518.738 270.848 516.919 271.195 514.472C271.542 512.041 274.744 511.346 275.794 511.115C276.671 510.916 277.556 511.487 277.747 512.371C277.937 513.256 277.374 514.133 276.489 514.323C275.364 514.571 274.81 514.827 274.562 514.984C274.868 515.373 275.629 515.985 276.324 516.357C286.499 521.5 303.176 520.731 303.342 520.723C304.26 520.673 305.013 521.376 305.062 522.277C305.104 523.179 304.409 523.948 303.507 523.997C303.333 523.997 302.274 524.047 300.62 524.047Z" fill="#020144"/>
<path d="M247.048 513.289C246.849 513.289 246.651 513.256 246.46 513.182C245.617 512.859 245.195 511.909 245.517 511.065C247.006 507.187 251.995 495.793 257.769 482.588C268.076 459.022 282.197 426.757 283.182 421.656C284.654 414.024 295.036 387.597 301.637 385.306C307.089 383.413 338.979 371.547 339.302 371.423C340.154 371.109 341.097 371.539 341.411 372.391C341.726 373.242 341.296 374.185 340.443 374.499C340.121 374.615 308.198 386.505 302.713 388.407C298.444 389.887 288.145 413.271 286.408 422.284C285.349 427.741 271.724 458.881 260.78 483.911C255.022 497.075 250.051 508.444 248.586 512.248C248.33 512.893 247.71 513.289 247.048 513.289Z" fill="#020144"/>
<path d="M310.679 504.748C309.893 504.748 309.198 504.177 309.066 503.375C308.504 499.985 307.792 496.082 306.948 491.774C304.127 477.246 297.898 436.887 297.832 436.481C297.692 435.588 298.312 434.753 299.205 434.613C300.091 434.472 300.934 435.092 301.075 435.985C301.141 436.39 307.362 476.692 310.166 491.154C311.01 495.495 311.722 499.423 312.301 502.838C312.45 503.731 311.846 504.574 310.952 504.723C310.861 504.74 310.77 504.748 310.679 504.748Z" fill="#020144"/>
<path d="M351.686 431.173C351.686 430.305 352.248 429.602 352.943 429.602C353.638 429.602 354.2 430.305 354.2 431.173C354.2 432.041 353.638 432.744 352.943 432.744C352.256 432.744 351.686 432.041 351.686 431.173Z" fill="#FAD6E4"/>
<path d="M352.951 434.39C351.355 434.39 350.056 432.951 350.056 431.173C350.056 429.395 351.355 427.957 352.951 427.957C354.548 427.957 355.855 429.395 355.855 431.173C355.855 432.951 354.548 434.39 352.951 434.39ZM352.67 431.173C352.811 431.247 353.084 431.247 353.224 431.173C353.084 431.099 352.811 431.099 352.67 431.173Z" fill="#020144"/>
<path d="M351.686 442.27C351.686 441.402 352.248 440.699 352.943 440.699C353.638 440.699 354.2 441.402 354.2 442.27C354.2 443.138 353.638 443.841 352.943 443.841C352.256 443.841 351.686 443.138 351.686 442.27Z" fill="#FAD6E4"/>
<path d="M352.951 445.486C351.355 445.486 350.056 444.048 350.056 442.278C350.056 440.509 351.355 439.062 352.951 439.062C354.548 439.062 355.855 440.5 355.855 442.278C355.847 444.039 354.548 445.486 352.951 445.486ZM353.348 442.369H353.357H353.348ZM352.67 442.27C352.811 442.344 353.084 442.344 353.224 442.27C353.084 442.195 352.811 442.195 352.67 442.27Z" fill="#020144"/>
<path d="M351.686 454.168C351.686 453.3 352.248 452.597 352.943 452.597C353.638 452.597 354.2 453.3 354.2 454.168C354.2 455.036 353.638 455.739 352.943 455.739C352.256 455.739 351.686 455.036 351.686 454.168Z" fill="#FAD6E4"/>
<path d="M352.951 457.376C351.355 457.376 350.056 455.938 350.056 454.16C350.056 452.382 351.355 450.943 352.951 450.943C354.548 450.943 355.855 452.382 355.855 454.16C355.855 455.938 354.548 457.376 352.951 457.376ZM352.67 454.168C352.811 454.243 353.084 454.243 353.224 454.168C353.084 454.094 352.811 454.094 352.67 454.168Z" fill="#020144"/>
<path d="M355.11 303.206C355.309 300.419 356.467 298.228 357.691 298.311C358.916 298.402 359.743 300.734 359.545 303.52C359.346 306.307 358.188 308.498 356.964 308.415C355.739 308.324 354.912 305.992 355.11 303.206Z" fill="#020144"/>
<path d="M357.046 310.061C356.98 310.061 356.914 310.061 356.848 310.053C356.103 310.003 354.747 309.581 353.961 307.374C353.539 306.183 353.365 304.661 353.481 303.09C353.762 299.155 355.549 296.517 357.816 296.682C358.56 296.732 359.917 297.153 360.703 299.361C361.125 300.552 361.298 302.073 361.183 303.644C360.91 307.465 359.222 310.061 357.046 310.061ZM356.749 303.322C356.641 304.752 356.873 305.844 357.104 306.431C357.427 305.885 357.799 304.835 357.907 303.396C358.014 301.966 357.783 300.874 357.551 300.287C357.237 300.841 356.856 301.891 356.749 303.322Z" fill="#020144"/>
<path d="M332.816 298.452C333.015 295.665 334.173 293.474 335.397 293.556C336.622 293.647 337.449 295.979 337.25 298.766C337.052 301.552 335.894 303.744 334.669 303.653C333.445 303.578 332.618 301.238 332.816 298.452Z" fill="#020144"/>
<path d="M334.744 305.306C334.678 305.306 334.611 305.306 334.554 305.298C333.809 305.248 332.452 304.827 331.666 302.619C331.245 301.428 331.071 299.907 331.187 298.336C331.468 294.4 333.222 291.754 335.521 291.927C336.266 291.977 337.623 292.399 338.409 294.607C338.83 295.797 339.004 297.319 338.888 298.89C338.773 300.461 338.384 301.941 337.796 303.065C336.787 304.967 335.513 305.306 334.744 305.306ZM335.257 295.541C334.934 296.087 334.562 297.137 334.454 298.567C334.347 299.998 334.578 301.089 334.81 301.676C335.133 301.131 335.505 300.08 335.612 298.65C335.72 297.219 335.488 296.128 335.257 295.541Z" fill="#020144"/>
<path d="M341.42 323.928C341.155 323.928 340.89 323.862 340.642 323.729C340.212 323.498 336.423 321.356 335.745 318.14C335.447 316.709 335.803 315.295 336.779 314.038C339.583 310.417 343.943 300.825 343.984 300.734C344.356 299.907 345.333 299.543 346.151 299.915C346.979 300.287 347.343 301.263 346.97 302.082C346.788 302.487 342.412 312.12 339.368 316.048C338.872 316.684 338.888 317.139 338.954 317.462C339.261 318.933 341.461 320.438 342.214 320.852C343.008 321.29 343.297 322.282 342.867 323.076C342.561 323.622 341.999 323.928 341.42 323.928Z" fill="#020144"/>
<path d="M347.012 336.422C346.069 336.422 345.059 336.314 343.968 336.083C337.656 334.702 336.076 329.865 336.117 327.5C336.125 327.02 336.349 326.565 336.721 326.259C337.093 325.954 337.581 325.83 338.061 325.912L355.383 329.112C355.921 329.211 356.376 329.575 356.591 330.08C356.806 330.584 356.757 331.163 356.459 331.618C356.31 331.849 353.257 336.422 347.012 336.422ZM339.931 329.6C340.543 330.832 341.858 332.263 344.679 332.883C347.864 333.586 350.164 332.742 351.653 331.766L339.931 329.6Z" fill="#020144"/>
<path d="M493.194 230.805H488.925C488.173 230.805 487.56 230.194 487.56 229.441C487.56 228.689 488.173 228.077 488.925 228.077H493.194C493.219 228.077 493.252 228.044 493.252 228.019V205.85L484.103 196.705H467.607L467.549 212.391C467.549 213.143 466.937 213.755 466.185 213.755C465.432 213.755 464.82 213.143 464.82 212.391V196.763C464.82 195.225 466.069 193.977 467.607 193.977H484.665C485.029 193.977 485.377 194.117 485.633 194.373L495.585 204.321C495.841 204.577 495.982 204.924 495.982 205.288V228.019C495.982 229.557 494.733 230.805 493.194 230.805Z" fill="#F8F8F8"/>
<path d="M494.617 206.644H484.665C483.912 206.644 483.3 206.032 483.3 205.28V195.333C483.3 194.58 483.912 193.968 484.665 193.968C485.418 193.968 486.03 194.58 486.03 195.333V203.916H494.617C495.37 203.916 495.982 204.527 495.982 205.28C495.982 206.032 495.37 206.644 494.617 206.644Z" fill="#F8F8F8"/>
<path d="M458.513 225.662C458.018 225.447 457.621 225.133 457.299 224.711L458.708 222.876C458.917 223.157 459.12 223.372 459.315 223.512C459.517 223.653 459.719 223.719 459.936 223.719C460.206 223.719 460.416 223.628 460.566 223.446C460.708 223.264 460.783 223 460.783 222.652V219.403H458.146V217.228H463.36V222.487C463.36 223.653 463.09 224.529 462.543 225.108C461.996 225.687 461.202 225.985 460.154 225.985C459.554 225.985 459 225.877 458.513 225.662Z" fill="#F8F8F8"/>
<path d="M469.675 224.298H466.731L466.214 225.786H463.555L466.941 217.228H469.51L472.896 225.786H470.192L469.675 224.298ZM468.956 222.222L468.199 220.072L467.443 222.222H468.956Z" fill="#F8F8F8"/>
<path d="M481.16 217.236L477.878 225.794H475.309L472.027 217.236H474.837L476.687 222.239L478.582 217.236H481.16Z" fill="#F8F8F8"/>
<path d="M486.418 224.298H483.474L482.957 225.786H480.298L483.684 217.228H486.254L489.64 225.786H486.935L486.418 224.298ZM485.699 222.222L484.943 220.072L484.186 222.222H485.699Z" fill="#F8F8F8"/>
<g opacity="0.4">
<path d="M263.568 47.9097C266.381 46.8265 268.25 44.1144 268.25 41.0963C268.25 37.0942 264.958 33.8033 260.954 33.8033C256.95 33.8033 253.658 37.0942 253.658 41.0963C253.658 44.1144 255.527 46.8265 258.34 47.9097L253.426 60.7179C245.319 57.6089 239.934 49.7784 239.934 41.1046C239.934 29.578 249.422 20.0938 260.954 20.0938C272.486 20.0938 281.974 29.578 281.974 41.1046C281.974 49.7867 276.597 57.6089 268.482 60.7179L263.568 47.9097Z" fill="#F8F8F8"/>
</g>
<path d="M253.418 61.5945C253.31 61.5945 253.203 61.5779 253.103 61.5366C244.699 58.3118 239.048 50.1009 239.048 41.1046C239.048 29.0322 248.876 19.2173 260.946 19.2173C273.015 19.2173 282.843 29.0405 282.843 41.1046C282.843 50.1009 277.193 58.3118 268.796 61.5366C268.581 61.6193 268.341 61.611 268.126 61.52C267.911 61.4291 267.746 61.2472 267.663 61.0322L262.749 48.2239C262.575 47.7692 262.799 47.2648 263.254 47.0911C265.719 46.1485 267.373 43.734 267.373 41.0963C267.373 37.5573 264.494 34.6798 260.954 34.6798C257.413 34.6798 254.534 37.5573 254.534 41.0963C254.534 43.734 256.189 46.1402 258.654 47.0911C259.109 47.2648 259.332 47.7692 259.159 48.2239L254.245 61.0322C254.162 61.2472 253.997 61.4208 253.782 61.52C253.666 61.5696 253.542 61.5945 253.418 61.5945ZM260.954 20.9703C249.844 20.9703 240.81 29.9997 240.81 41.1046C240.81 49.0922 245.642 56.4017 252.921 59.5686L257.223 48.3728C254.534 46.9836 252.781 44.164 252.781 41.1046C252.781 36.5981 256.445 32.9351 260.954 32.9351C265.462 32.9351 269.127 36.5981 269.127 41.1046C269.127 44.1723 267.373 46.9919 264.685 48.3728L268.986 59.5686C276.266 56.4017 281.097 49.0839 281.097 41.1046C281.097 29.9997 272.064 20.9703 260.954 20.9703Z" fill="#F8F8F8"/>
<path d="M309.753 187.469H269.301C268.548 187.469 267.936 186.857 267.936 186.105V160.811C267.936 160.058 268.548 159.446 269.301 159.446H276.514C277.267 159.446 277.879 160.058 277.879 160.811C277.879 161.563 277.267 162.175 276.514 162.175H270.657V184.74H308.38V166.144C308.38 165.391 308.992 164.78 309.745 164.78C310.497 164.78 311.11 165.391 311.11 166.144V186.105C311.118 186.857 310.506 187.469 309.753 187.469ZM295.715 162.175H291.512C290.759 162.175 290.147 161.563 290.147 160.811C290.147 160.058 290.759 159.446 291.512 159.446H295.715C296.467 159.446 297.08 160.058 297.08 160.811C297.08 161.563 296.467 162.175 295.715 162.175Z" fill="#F8F8F8"/>
<path d="M295.706 171.386C295.508 171.386 295.301 171.345 295.111 171.254C294.639 171.031 294.341 170.551 294.341 170.03V154.51C294.341 153.22 295.392 152.178 296.691 152.178H312.483C313.782 152.178 314.832 153.228 314.832 154.51V165.177C314.832 166.467 313.782 167.508 312.483 167.508H301.059L296.542 171.089C296.31 171.287 296.012 171.386 295.706 171.386ZM297.071 154.899V167.202L299.743 165.077C299.983 164.887 300.281 164.78 300.595 164.78H312.119V154.899H297.071Z" fill="#F8F8F8"/>
<path d="M300.769 161.191C301.614 161.191 302.299 160.517 302.299 159.686C302.299 158.855 301.614 158.181 300.769 158.181C299.924 158.181 299.239 158.855 299.239 159.686C299.239 160.517 299.924 161.191 300.769 161.191Z" fill="#F8F8F8"/>
<path d="M304.69 161.191C305.535 161.191 306.221 160.517 306.221 159.686C306.221 158.855 305.535 158.181 304.69 158.181C303.845 158.181 303.16 158.855 303.16 159.686C303.16 160.517 303.845 161.191 304.69 161.191Z" fill="#F8F8F8"/>
<path d="M308.611 161.191C309.456 161.191 310.142 160.517 310.142 159.686C310.142 158.855 309.456 158.181 308.611 158.181C307.766 158.181 307.081 158.855 307.081 159.686C307.081 160.517 307.766 161.191 308.611 161.191Z" fill="#F8F8F8"/>
<path d="M284.009 171.006C280.783 171.006 278.152 168.41 278.152 165.226C278.152 162.043 280.783 159.446 284.009 159.446C287.235 159.446 289.866 162.034 289.866 165.226C289.866 168.418 287.244 171.006 284.009 171.006ZM284.009 162.175C282.28 162.175 280.874 163.548 280.874 165.226C280.874 166.905 282.28 168.277 284.009 168.277C285.738 168.277 287.144 166.905 287.144 165.226C287.144 163.548 285.738 162.175 284.009 162.175Z" fill="#F8F8F8"/>
<path d="M291.388 184.253C291.322 184.253 291.256 184.244 291.181 184.236C290.437 184.129 289.924 183.434 290.031 182.69C290.098 182.243 290.131 181.789 290.131 181.334C290.131 177.191 287.384 173.818 284.001 173.818C280.617 173.818 277.871 177.191 277.871 181.334C277.871 181.789 277.904 182.243 277.97 182.69C278.078 183.434 277.565 184.129 276.82 184.236C276.068 184.344 275.381 183.831 275.273 183.087C275.191 182.508 275.141 181.913 275.141 181.326C275.141 175.678 279.112 171.089 284.001 171.089C288.89 171.089 292.861 175.686 292.861 181.326C292.861 181.913 292.819 182.508 292.728 183.087C292.637 183.773 292.058 184.253 291.388 184.253Z" fill="#F8F8F8"/>
<path d="M309.753 184.253H269.301C268.548 184.253 267.936 183.641 267.936 182.888C267.936 182.136 268.548 181.524 269.301 181.524H309.753C310.506 181.524 311.118 182.136 311.118 182.888C311.118 183.641 310.506 184.253 309.753 184.253Z" fill="#F8F8F8"/>
<path d="M311.829 191.48H268.358C267.605 191.48 266.993 190.868 266.993 190.115C266.993 189.363 267.605 188.751 268.358 188.751H311.821C312.574 188.751 313.186 189.363 313.186 190.115C313.186 190.868 312.582 191.48 311.829 191.48Z" fill="#F8F8F8"/>
<path fill-rule="evenodd" clip-rule="evenodd" d="M391.154 68.3829C374.46 68.3416 360.893 81.8361 360.843 98.5306C360.81 111.885 369.447 123.229 381.45 127.256C382.964 127.537 383.518 126.603 383.518 125.801C383.518 125.081 383.502 123.18 383.493 120.658C375.08 122.46 373.318 116.581 373.318 116.581C371.953 113.084 369.968 112.149 369.968 112.149C367.23 110.264 370.183 110.314 370.183 110.314C373.219 110.537 374.807 113.439 374.807 113.439C377.496 118.061 381.88 116.747 383.601 115.969C383.882 114.018 384.668 112.687 385.528 111.934C378.819 111.157 371.763 108.544 371.796 96.9596C371.804 93.6604 372.987 90.9648 374.931 88.8562C374.625 88.0873 373.591 85.0196 375.246 80.8604C375.246 80.8604 377.785 80.0583 383.551 83.9777C385.967 83.3162 388.548 82.9855 391.12 82.9772C393.685 82.9937 396.274 83.341 398.69 84.0108C404.472 80.1162 407.003 80.9348 407.003 80.9348C408.641 85.1023 407.599 88.1699 407.285 88.9307C409.221 91.0475 410.379 93.7513 410.37 97.0505C410.337 108.66 403.264 111.198 396.531 111.926C397.614 112.86 398.574 114.704 398.566 117.532C398.557 121.576 398.508 124.833 398.508 125.826C398.508 126.636 399.045 127.579 400.584 127.281C412.596 123.304 421.282 112.009 421.315 98.6629C421.356 81.9849 407.856 68.4243 391.154 68.3829Z" fill="#F8F8F8"/>
<path d="M149.491 157.09C149.293 157.09 149.094 157.048 148.904 156.957C148.432 156.734 148.126 156.255 148.126 155.725V121.427C148.126 119.492 149.698 117.921 151.634 117.921H185.948C187.883 117.921 189.455 119.492 189.455 121.427V145.009C189.455 146.944 187.883 148.515 185.948 148.515H160.584L150.343 156.784C150.095 156.982 149.797 157.09 149.491 157.09ZM151.634 120.641C151.212 120.641 150.856 120.997 150.856 121.419V152.864L159.253 146.084C159.492 145.886 159.798 145.778 160.113 145.778H185.956C186.378 145.778 186.734 145.423 186.734 145.001V121.419C186.734 120.997 186.378 120.641 185.956 120.641H151.634Z" fill="#F8F8F8"/>
<path d="M200.962 169.948C200.656 169.948 200.35 169.848 200.102 169.642L189.861 161.373H164.497C162.562 161.373 160.99 159.802 160.99 157.867V147.151C160.99 146.398 161.602 145.787 162.355 145.787C163.108 145.787 163.72 146.398 163.72 147.151V157.867C163.72 158.289 164.075 158.644 164.497 158.644H190.34C190.655 158.644 190.953 158.752 191.201 158.95L199.597 165.731V134.285C199.597 133.863 199.242 133.507 198.82 133.507H188.099C187.346 133.507 186.734 132.896 186.734 132.143C186.734 131.391 187.346 130.779 188.099 130.779H198.82C200.755 130.779 202.327 132.35 202.327 134.285V168.583C202.327 169.104 202.029 169.584 201.55 169.815C201.359 169.906 201.161 169.948 200.962 169.948Z" fill="#F8F8F8"/>
<path d="M180.314 127.91H157.275C156.523 127.91 155.911 127.298 155.911 126.545C155.911 125.793 156.523 125.181 157.275 125.181H180.314C181.067 125.181 181.679 125.793 181.679 126.545C181.679 127.298 181.067 127.91 180.314 127.91Z" fill="#F8F8F8"/>
<path d="M180.314 134.045H157.275C156.523 134.045 155.911 133.433 155.911 132.681C155.911 131.928 156.523 131.316 157.275 131.316H180.314C181.067 131.316 181.679 131.928 181.679 132.681C181.679 133.433 181.067 134.045 180.314 134.045Z" fill="#F8F8F8"/>
<path d="M172.96 140.18H157.267C156.514 140.18 155.902 139.568 155.902 138.816C155.902 138.064 156.514 137.452 157.267 137.452H172.96C173.713 137.452 174.325 138.064 174.325 138.816C174.325 139.568 173.713 140.18 172.96 140.18Z" fill="#F8F8F8"/>
<path d="M34.3472 198.483C44.5766 198.483 52.8691 190.194 52.8691 179.969C52.8691 169.744 44.5766 161.456 34.3472 161.456C24.1178 161.456 15.8252 169.744 15.8252 179.969C15.8252 190.194 24.1178 198.483 34.3472 198.483Z" fill="#F084AD"/>
<path d="M86.9431 107.891C78.2654 107.891 71.209 100.838 71.209 92.1636C71.209 83.498 78.2654 76.4365 86.9431 76.4365C95.6126 76.4365 102.677 83.4897 102.677 92.1636C102.669 100.838 95.6126 107.891 86.9431 107.891ZM86.9431 81.9021C81.2765 81.9021 76.6688 86.5078 76.6688 92.1719C76.6688 97.836 81.2765 102.442 86.9431 102.442C92.6098 102.442 97.2175 97.836 97.2175 92.1719C97.2175 86.5078 92.6098 81.9021 86.9431 81.9021Z" fill="#F084AD"/>
<path d="M53.5887 411.195C44.9109 411.195 37.8545 404.142 37.8545 395.468C37.8545 386.794 44.9109 379.741 53.5887 379.741C62.2582 379.741 69.3228 386.794 69.3228 395.468C69.3228 404.142 62.2582 411.195 53.5887 411.195ZM53.5887 385.199C47.922 385.199 43.3143 389.804 43.3143 395.468C43.3143 401.132 47.922 405.738 53.5887 405.738C59.2553 405.738 63.863 401.132 63.863 395.468C63.863 389.804 59.2553 385.199 53.5887 385.199Z" fill="#F084AD"/>
<path d="M79.7296 151.856C74.245 151.856 69.7861 147.399 69.7861 141.917C69.7861 136.434 74.245 131.978 79.7296 131.978C85.2142 131.978 89.673 136.434 89.673 141.917C89.673 147.399 85.2059 151.856 79.7296 151.856ZM79.7296 137.435C77.2561 137.435 75.2459 139.444 75.2459 141.917C75.2459 144.389 77.2561 146.398 79.7296 146.398C82.203 146.398 84.2132 144.389 84.2132 141.917C84.2132 139.444 82.203 137.435 79.7296 137.435Z" fill="#F084AD"/>
<path d="M427.991 197.515C422.506 197.515 418.047 193.058 418.047 187.576C418.047 182.094 422.506 177.637 427.991 177.637C433.475 177.637 437.934 182.094 437.934 187.576C437.934 193.058 433.475 197.515 427.991 197.515ZM427.991 183.086C425.517 183.086 423.507 185.096 423.507 187.568C423.507 190.04 425.517 192.05 427.991 192.05C430.464 192.05 432.474 190.04 432.474 187.568C432.474 185.096 430.464 183.086 427.991 183.086Z" fill="#F084AD"/>
</svg>
