<svg width="588" height="457" viewBox="0 0 588 457" fill="none" xmlns="http://www.w3.org/2000/svg">
<path fill-rule="evenodd" clip-rule="evenodd" d="M66.3651 303.663C59.5774 281.85 55.9219 258.657 55.9219 234.622C55.9219 106.351 160.096 2.20628 288.403 2.20628C407.617 2.20628 505.989 92.1051 519.345 207.722C514.392 201.573 505.8 194.575 492.664 195.409C469.692 196.872 457.148 202.392 452.484 208.321C447.812 214.25 448.426 220.073 452.962 226.017C452.962 226.017 446.803 253.418 448.176 259.696C449.549 265.974 450.36 270.773 453.917 272.403C453.917 272.403 447.797 280.038 448.176 284.837C448.555 289.637 449.61 298.705 449.61 298.705C449.61 298.705 438.537 301.95 434.305 303.967C430.065 305.983 420.911 312.094 420.911 312.094C420.911 312.094 425.409 304.27 425.697 300.138C425.978 296.006 425.219 288.659 425.219 288.659L426.175 269.052C426.175 269.052 422.534 266.914 420.911 272.403C419.289 277.885 417.559 285.793 417.559 285.793L410.119 275.891V246.579L406.077 243.986L404.128 268.582C404.128 268.582 400.639 266.808 398.417 273.366C398.417 273.366 394.102 274.973 393.632 280.538C393.632 280.538 388.148 278.4 390.28 288.666C392.411 298.94 398.41 318.797 398.41 318.797L383.583 376.662L347.703 318.319L339.868 314.771L336.994 301.487C357.645 286.452 371.069 262.099 371.069 234.63C371.069 189.01 334.021 151.972 288.388 151.972C242.755 151.972 205.707 189.01 205.707 234.63C205.707 261.364 218.425 285.141 238.136 300.259L236.164 309.38L219.502 316.408L209.453 328.365C209.453 328.365 201.725 316.363 198.449 313.542C195.18 310.722 143.434 280.068 143.434 280.068C143.434 280.068 133.863 269.044 135.304 249.938C136.745 230.831 139.195 213.802 133.393 203.074C127.591 192.346 114.615 183.907 97.035 190.64C79.4552 197.372 70.0661 206.986 69.7552 215.508C69.4442 224.03 72.038 240.908 76.9448 251.105C81.8517 261.303 88.1996 279.227 98.4683 278.635C98.4683 278.635 100.554 282.654 96.0794 285.808C92.4163 288.393 76.1258 296.802 66.3651 303.663Z" fill="#DFF1FD"/>
<g opacity="0.7">
<path d="M143.942 280.053C143.942 280.053 137.806 274.109 136.608 264.275C135.41 254.442 135.334 238.929 135.334 238.929C135.334 238.929 131.876 226.404 122.896 226.495C113.917 226.586 114.91 205.523 98.976 208.321C83.0495 211.119 69.7926 217.404 69.7926 217.404C69.7926 217.404 69.2541 236.048 74.5781 247.057C79.9021 258.066 87.6758 279.841 98.976 279.098V284.837C98.976 284.837 102.048 296.066 123.374 292.488C144.7 288.909 143.942 280.053 143.942 280.053Z" fill="#F8F8F8"/>
</g>
<path d="M117.254 407.255L76.4971 418.173H40.1316L21.9527 414.443L1.38477 328.835L44.9172 336.008L99.454 322.618L110.549 372.826C107.804 372.143 105.377 371.741 103.762 371.878C97.2395 372.424 104.808 375.585 104.717 375.707C104.664 375.775 108.434 377.435 111.907 378.959L112.332 380.878C107.683 380.506 100.933 380.271 96.1095 381.446C96.1095 381.446 91.5059 382.015 93.0455 383.835C94.5851 385.662 105.673 387.186 105.673 387.186L96.1095 388.619C96.1095 388.619 93.1441 391.887 96.1095 392.842C97.5504 393.304 98.2633 393.32 98.6273 393.213C98.0055 393.926 96.9361 395.526 98.506 396.754C100.448 398.263 110.367 402.479 117.254 407.255Z" fill="#DFF1FD"/>
<g opacity="0.7">
<path d="M164.988 414.435C164.988 414.435 149.084 406.755 147.764 404.874C146.445 402.986 130.063 379.528 130.063 379.528C130.063 379.528 110.276 371.332 103.754 371.878C97.2317 372.424 104.801 375.585 104.71 375.707C104.619 375.828 117.625 381.446 117.625 381.446C117.625 381.446 104.171 379.483 96.1016 381.446C96.1016 381.446 91.4981 382.015 93.0377 383.835C94.5773 385.662 105.665 387.186 105.665 387.186L96.1016 388.619C96.1016 388.619 93.1363 391.887 96.1016 392.842C99.067 393.797 98.9684 392.842 98.9684 392.842C98.9684 392.842 96.4126 395.132 98.4906 396.747C100.569 398.369 111.725 403.055 118.581 408.226C125.437 413.396 136.312 417.877 139.149 418.272L160.672 431.661L164.988 414.435Z" fill="#F8F8F8"/>
</g>
<path d="M293.189 1.25104H95.1465V11.2971H293.189V1.25104Z" fill="#DFF1FD"/>
<path fill-rule="evenodd" clip-rule="evenodd" d="M503.107 374.008C498.124 372.985 494.764 368.201 495.568 363.128C496.364 358.056 501.036 354.53 506.087 355.092V355.084L521.392 357.495L520.739 361.635L513.694 360.528C514.202 361.604 514.521 362.78 514.596 364.008L520.224 364.895L519.572 369.035L513.944 368.148C513.497 369.292 512.829 370.316 512.018 371.18L519.063 372.287L518.411 376.427L503.107 374.016V374.008ZM504.191 369.944C506.39 370.293 508.499 369.247 509.614 367.458C509.985 366.859 510.243 366.191 510.357 365.456C510.471 364.721 510.433 364 510.266 363.318C509.765 361.278 508.074 359.633 505.875 359.292C502.94 358.829 500.172 360.846 499.709 363.78C499.246 366.722 501.256 369.482 504.191 369.944Z" fill="#020144"/>
<path fill-rule="evenodd" clip-rule="evenodd" d="M150.851 359.481C145.762 359.535 141.469 355.569 141.181 350.444C140.885 345.311 144.7 340.883 149.766 340.367V340.352L165.238 339.473L165.473 343.658L158.351 344.067C159.079 345.008 159.633 346.092 159.967 347.275L165.655 346.949L165.89 351.134L160.202 351.46C160.005 352.673 159.572 353.818 158.958 354.834L166.08 354.424L166.315 358.61L150.843 359.489L150.851 359.481ZM151.056 355.281C153.278 355.152 155.121 353.681 155.826 351.71C156.061 351.05 156.167 350.338 156.129 349.595C156.084 348.852 155.894 348.154 155.591 347.525C154.666 345.637 152.671 344.386 150.441 344.515C147.468 344.682 145.193 347.237 145.36 350.209C145.534 353.173 148.09 355.448 151.056 355.281Z" fill="#020144"/>
<path fill-rule="evenodd" clip-rule="evenodd" d="M319.368 371.802C314.279 371.855 309.987 367.89 309.699 362.764C309.403 357.631 313.218 353.204 318.284 352.688V352.673L333.755 351.793L333.99 355.979L326.869 356.388C327.597 357.328 328.151 358.412 328.484 359.595L334.172 359.269L334.408 363.454L328.72 363.78C328.522 364.993 328.09 366.138 327.476 367.154L334.597 366.745L334.832 370.93L319.361 371.81L319.368 371.802ZM319.573 367.609C321.795 367.48 323.638 366.009 324.344 364.038C324.579 363.379 324.685 362.666 324.647 361.923C324.601 361.18 324.412 360.482 324.108 359.853C323.183 357.965 321.189 356.714 318.959 356.843C315.993 357.01 313.711 359.565 313.878 362.537C314.052 365.501 316.608 367.776 319.573 367.609Z" fill="#020144"/>
<path d="M135.327 238.929C135.327 238.929 140.325 208.048 130.541 197.805C120.758 187.562 109.116 186.265 96.1021 191.11C83.0803 195.955 71.1279 205.758 70.7487 214.546C70.3695 223.333 81.5711 220.528 84.1421 220.285C86.7131 220.042 102.632 210.042 107.107 214.546C111.581 219.049 112.461 222.787 112.848 226.025C113.234 229.262 118.589 237.026 118.589 237.026L122.897 236.548C122.897 236.548 126.544 226.146 130.071 228.898C133.598 231.65 134.037 238.686 133.416 240.377C132.801 242.053 135.327 238.929 135.327 238.929Z" fill="#020144"/>
<path d="M312.801 238.451L317.109 236.541C317.109 236.541 321.97 219.451 319.976 212.627C317.981 205.804 304.671 184.415 304.671 184.415C304.671 184.415 308.44 179.479 308.501 176.765C308.554 174.051 303.238 170.548 303.238 170.548C303.238 170.548 304.974 158.978 297.974 159.069C290.974 159.16 285.226 152.025 271.665 163.375C258.105 174.718 268.313 180.116 268.313 180.116C268.313 180.116 250.005 198.987 247.267 204.507C244.522 210.027 236.908 222.12 249.656 238.937L251.568 236.548C251.568 236.548 266.023 225.638 267.835 220.285C269.64 214.932 272.621 209.761 272.621 209.761C272.621 209.761 271.711 220.05 275.488 223.629C279.264 227.207 285.051 229.846 285.051 229.846C285.051 229.846 281.471 220.459 282.662 216.934C283.853 213.408 286.492 208.071 286.492 208.071C286.492 208.071 289.055 223.538 294.622 227.458C300.189 231.377 303.23 232.719 303.23 232.719L302.752 228.413L312.801 234.63V238.451Z" fill="#020144"/>
<path d="M531.896 310.661C531.896 310.661 534.816 298.879 533.33 293.921C531.843 288.97 525.678 281.486 525.678 281.486C525.678 281.486 536.288 277.278 538.115 270.007C539.943 262.736 532.374 246.094 532.374 246.094C532.374 246.094 527.953 208.351 512.762 200.663C497.571 192.975 477.944 195.53 465.407 200.663C452.863 205.796 442.382 214.591 452.969 225.532C452.969 225.532 456.852 214.591 462.055 211.664C467.258 208.738 474.971 206.88 474.971 206.88C474.971 206.88 472.733 219.337 476.404 224.576C480.075 229.816 488.842 237.488 488.842 237.488C488.842 237.488 485.99 245.912 487.886 250.878C489.782 255.844 495.061 260.446 495.061 260.446L498.405 253.752C498.405 253.752 506.99 252.705 506.581 259.013C506.171 265.322 500.976 269.158 496.009 269.06C491.049 268.961 489.016 279.416 489.312 283.405C489.608 287.393 492.839 293.435 497.92 295.361C497.92 295.361 495.941 306.074 500.787 311.139C505.641 316.211 516.091 321.663 516.091 321.663L520.035 309.229L531.896 310.661Z" fill="#5DB9F5"/>
<path d="M454.395 273.358C454.395 273.358 449.055 279.78 448.6 285.793C448.145 291.805 449.609 298.705 449.609 298.705L466.832 294.876L467.31 278.613L454.395 273.358Z" fill="#5DB9F5"/>
<path d="M467.318 413.298L460.144 368.527L407.048 376.654L417.575 445.521L457.922 439.781L454.403 436.916L436.224 438.826L435.268 436.916L451.05 431.176L429.527 430.698L427.616 428.31L439.098 425.922L426.66 423.056L426.182 419.705L446.75 418.181L434.312 414.738V411.577L437.665 411.099C437.665 411.099 432.909 406.239 438.62 403.927C444.331 401.607 442.299 408.028 441.009 410.621L454.403 412.054L467.318 413.298Z" fill="#5DB9F5"/>
<path d="M33.435 418.173C33.435 418.173 28.8467 426.475 32.4794 429.265C36.1046 432.056 40.1317 430.698 40.1317 430.698L39.1761 440.744L30.5683 441.7C30.5683 441.7 27.9821 445.21 29.1349 448.395C30.2876 451.579 31.046 452.701 31.046 452.701H76.4896C76.4896 452.701 72.9858 444.437 76.0118 442.177C79.0379 439.926 64.5296 441.7 64.5296 441.7C64.5296 441.7 61.1395 432.351 64.0518 431.176C66.9565 430.001 67.8817 430.221 67.8817 430.221C67.8817 430.221 66.1677 419.288 69.3151 419.219L33.435 418.173Z" fill="#5DB9F5"/>
<path d="M293.188 11.2895H94.668V128.453H293.188V11.2895Z" fill="#F8F8F8"/>
<path d="M293.188 129.704H94.6684C93.9782 129.704 93.417 129.143 93.417 128.453V1.25102C93.417 0.561062 93.9782 0 94.6684 0H293.188C293.878 0 294.44 0.561062 294.44 1.25102V128.46C294.44 129.15 293.878 129.704 293.188 129.704ZM95.9197 127.209H291.937V2.50203H95.9197V127.209Z" fill="#020144"/>
<path d="M293.188 10.046H94.668V12.5487H293.188V10.046Z" fill="#020144"/>
<path d="M126.718 22.958H113.803V25.4608H126.718V22.958Z" fill="#020144"/>
<path d="M126.718 49.002H113.803V51.5047H126.718V49.002Z" fill="#020144"/>
<path d="M141.834 49.002H128.918V51.5047H141.834V49.002Z" fill="#5DB9F5"/>
<path d="M132.141 75.0458H122.464V77.5485H132.141V75.0458Z" fill="#5DB9F5"/>
<path d="M163.115 75.0458H134.075V77.5485H163.115V75.0458Z" fill="#020144"/>
<path d="M139.634 29.4633H113.803V31.966H139.634V29.4633Z" fill="#020144"/>
<path d="M139.634 55.5148H113.803V58.0175H139.634V55.5148Z" fill="#020144"/>
<path d="M167.65 55.5148H141.818V58.0175H167.65V55.5148Z" fill="#020144"/>
<path d="M139.687 81.5587H122.464V84.0614H139.687V81.5587Z" fill="#5DB9F5"/>
<path d="M131.026 35.9762H113.803V38.4789H131.026V35.9762Z" fill="#020144"/>
<path d="M142.751 35.9762H132.702V38.4789H142.751V35.9762Z" fill="#020144"/>
<path d="M154.477 35.9762H144.428V38.4789H154.477V35.9762Z" fill="#5DB9F5"/>
<path d="M148.295 62.0276H122.464V64.5304H148.295V62.0276Z" fill="#020144"/>
<path d="M141.818 88.0716H122.464V90.5743H141.818V88.0716Z" fill="#020144"/>
<path d="M163.106 88.0716H143.752V90.5743H163.106V88.0716Z" fill="#020144"/>
<path d="M139.634 101.097H113.803V103.6H139.634V101.097Z" fill="#020144"/>
<path d="M139.634 42.4891H113.803V44.9918H139.634V42.4891Z" fill="#5DB9F5"/>
<path d="M139.687 68.5405H122.464V71.0433H139.687V68.5405Z" fill="#020144"/>
<path d="M139.634 94.5844H113.803V97.0871H139.634V94.5844Z" fill="#020144"/>
<path d="M108.061 7.75699H101.365C100.675 7.75699 100.113 7.19577 100.113 6.50562C100.113 5.81548 100.675 5.25426 101.365 5.25426H108.061C108.752 5.25426 109.313 5.81548 109.313 6.50562C109.313 7.19577 108.752 7.75699 108.061 7.75699Z" fill="#020144"/>
<path d="M119.862 7.75699H113.165C112.475 7.75699 111.914 7.19577 111.914 6.50562C111.914 5.81548 112.475 5.25426 113.165 5.25426H119.862C120.552 5.25426 121.113 5.81548 121.113 6.50562C121.113 7.19577 120.552 7.75699 119.862 7.75699Z" fill="#020144"/>
<path d="M131.663 7.75699H124.966C124.276 7.75699 123.715 7.19577 123.715 6.50562C123.715 5.81548 124.276 5.25426 124.966 5.25426H131.663C132.353 5.25426 132.914 5.81548 132.914 6.50562C132.914 7.19577 132.353 7.75699 131.663 7.75699Z" fill="#020144"/>
<path d="M481.425 154.284C510.091 154.284 533.33 131.052 533.33 102.394C533.33 73.7353 510.091 50.5031 481.425 50.5031C452.758 50.5031 429.52 73.7353 429.52 102.394C429.52 131.052 452.758 154.284 481.425 154.284Z" fill="#5DB9F5"/>
<path d="M318.367 117.717C340.692 117.717 358.79 99.6239 358.79 77.3052C358.79 54.9865 340.692 36.8936 318.367 36.8936C296.042 36.8936 277.944 54.9865 277.944 77.3052C277.944 99.6239 296.042 117.717 318.367 117.717Z" fill="#5DB9F5"/>
<path d="M160.165 183.452C177.468 183.452 191.494 169.429 191.494 152.131C191.494 134.833 177.468 120.81 160.165 120.81C142.862 120.81 128.835 134.833 128.835 152.131C128.835 169.429 142.862 183.452 160.165 183.452Z" fill="#5DB9F5"/>
<path d="M87.1984 108.96C77.908 108.96 70.3467 101.4 70.3467 92.1126C70.3467 82.8248 77.908 75.2656 87.1984 75.2656C96.4889 75.2656 104.05 82.8248 104.05 92.1126C104.05 101.4 96.4889 108.96 87.1984 108.96ZM87.1984 80.2621C80.661 80.2621 75.3446 85.577 75.3446 92.1126C75.3446 98.6482 80.661 103.963 87.1984 103.963C93.7359 103.963 99.0523 98.6482 99.0523 92.1126C99.0523 85.577 93.7359 80.2621 87.1984 80.2621Z" fill="#5DB9F5"/>
<path d="M399.889 48.3726C390.598 48.3726 383.037 40.8134 383.037 31.5256C383.037 22.2377 390.598 14.6786 399.889 14.6786C409.179 14.6786 416.741 22.2377 416.741 31.5256C416.741 40.8134 409.179 48.3726 399.889 48.3726ZM399.889 19.6751C393.351 19.6751 388.035 24.99 388.035 31.5256C388.035 38.0612 393.351 43.3761 399.889 43.3761C406.426 43.3761 411.743 38.0612 411.743 31.5256C411.743 24.99 406.426 19.6751 399.889 19.6751Z" fill="#5DB9F5"/>
<path d="M548.68 199.078C541.498 199.078 535.658 193.24 535.658 186.06C535.658 178.88 541.498 173.042 548.68 173.042C555.862 173.042 561.702 178.88 561.702 186.06C561.702 193.24 555.862 199.078 548.68 199.078ZM548.68 178.039C544.258 178.039 540.656 181.64 540.656 186.06C540.656 190.48 544.258 194.082 548.68 194.082C553.101 194.082 556.704 190.48 556.704 186.06C556.704 181.64 553.101 178.039 548.68 178.039Z" fill="#5DB9F5"/>
<path d="M46.783 192.202C41.1859 192.202 36.6279 187.645 36.6279 182.049C36.6279 176.454 41.1859 171.897 46.783 171.897C52.38 171.897 56.938 176.454 56.938 182.049C56.938 187.645 52.38 192.202 46.783 192.202ZM46.783 176.901C43.9389 176.901 41.6258 179.214 41.6258 182.057C41.6258 184.9 43.9389 187.213 46.783 187.213C49.627 187.213 51.9401 184.9 51.9401 182.057C51.9401 179.214 49.627 176.901 46.783 176.901Z" fill="#5DB9F5"/>
<path d="M160.165 158.136C156.85 158.136 154.15 155.437 154.15 152.124C154.15 148.81 156.85 146.111 160.165 146.111C163.479 146.111 166.179 148.81 166.179 152.124C166.179 155.437 163.479 158.136 160.165 158.136ZM160.165 148.613C158.231 148.613 156.653 150.19 156.653 152.124C156.653 154.057 158.231 155.634 160.165 155.634C162.098 155.634 163.676 154.057 163.676 152.124C163.676 150.19 162.106 148.613 160.165 148.613Z" fill="#020144"/>
<path d="M160.293 170.836C157.851 170.836 155.872 168.849 155.872 166.416V166.271C155.856 165.741 155.5 165.24 154.977 165.051C154.954 165.043 154.931 165.028 154.901 165.02C154.393 164.801 153.786 164.907 153.392 165.293L153.308 165.377C152.489 166.203 151.344 166.673 150.176 166.673C149.008 166.673 147.87 166.203 147.044 165.377C146.217 164.55 145.747 163.413 145.747 162.245C145.747 161.078 146.217 159.941 147.044 159.114L147.142 159.016C147.522 158.629 147.628 158.022 147.408 157.514C147.188 156.999 146.695 156.673 146.149 156.673H145.883C143.441 156.673 141.462 154.686 141.462 152.252C141.462 149.819 143.449 147.832 145.883 147.832H146.028C146.558 147.817 147.059 147.461 147.249 146.938C147.256 146.915 147.271 146.892 147.279 146.862C147.506 146.354 147.393 145.747 147.006 145.353L146.922 145.27C146.096 144.451 145.626 143.306 145.626 142.138C145.626 140.971 146.096 139.833 146.922 139.007C147.741 138.18 148.887 137.71 150.055 137.71C151.223 137.71 152.36 138.18 153.187 139.007L153.285 139.105C153.672 139.485 154.279 139.591 154.787 139.371C154.886 139.325 154.992 139.295 155.09 139.28C155.5 139.037 155.75 138.597 155.75 138.112V137.847C155.75 135.405 157.737 133.427 160.172 133.427C162.606 133.427 164.593 135.413 164.593 137.847V137.991C164.593 138.529 164.919 139.022 165.42 139.242C165.943 139.469 166.55 139.363 166.944 138.977L167.028 138.893C167.847 138.067 168.992 137.597 170.16 137.597C171.328 137.597 172.465 138.067 173.292 138.893C174.119 139.712 174.589 140.857 174.589 142.024C174.589 143.192 174.119 144.329 173.292 145.156L173.194 145.247C172.814 145.633 172.708 146.24 172.928 146.748C172.974 146.847 173.004 146.945 173.019 147.051C173.262 147.461 173.702 147.711 174.187 147.711H174.452C176.895 147.711 178.874 149.697 178.874 152.131C178.874 154.565 176.887 156.551 174.452 156.551H174.308C173.77 156.551 173.277 156.877 173.057 157.378C173.057 157.385 173.057 157.385 173.049 157.393C172.822 157.901 172.936 158.508 173.322 158.902L173.406 158.985C174.233 159.804 174.703 160.949 174.703 162.117C174.703 163.284 174.233 164.421 173.406 165.248C172.587 166.074 171.442 166.544 170.274 166.544C169.106 166.544 167.968 166.074 167.141 165.248L167.05 165.157C166.664 164.778 166.057 164.664 165.549 164.892C165.033 165.111 164.707 165.604 164.707 166.15V166.416C164.715 168.849 162.735 170.836 160.293 170.836ZM155.872 162.708C157.328 163.261 158.329 164.672 158.367 166.234V166.408C158.367 167.454 159.246 168.334 160.293 168.334C161.34 168.334 162.219 167.454 162.219 166.408V166.135C162.227 164.588 163.145 163.201 164.563 162.594C166.004 161.957 167.68 162.261 168.818 163.375L168.924 163.481C169.644 164.202 170.934 164.202 171.646 163.481C172.01 163.125 172.215 162.625 172.215 162.117C172.215 161.609 172.01 161.116 171.654 160.759L171.555 160.661C170.433 159.516 170.13 157.84 170.767 156.392C171.373 154.974 172.761 154.057 174.308 154.057H174.46C175.507 154.057 176.386 153.177 176.386 152.131C176.386 151.085 175.507 150.205 174.46 150.205H174.187C172.64 150.198 171.252 149.28 170.638 147.863C170.585 147.749 170.554 147.628 170.547 147.499C170.039 146.104 170.372 144.557 171.419 143.48L171.525 143.374C171.882 143.018 172.086 142.517 172.086 142.009C172.086 141.501 171.882 141.009 171.525 140.645C170.805 139.924 169.515 139.924 168.802 140.645L168.704 140.743C167.559 141.865 165.883 142.169 164.426 141.524C163.023 140.925 162.098 139.53 162.091 137.991V137.847C162.091 136.801 161.211 135.921 160.164 135.921C159.118 135.921 158.238 136.801 158.238 137.847V138.12C158.23 139.667 157.313 141.054 155.894 141.661C155.781 141.714 155.659 141.744 155.53 141.752C154.135 142.26 152.588 141.926 151.511 140.88L151.405 140.773C150.684 140.053 149.395 140.053 148.682 140.773C148.325 141.13 148.113 141.63 148.113 142.138C148.113 142.646 148.318 143.139 148.674 143.495L148.773 143.594C149.888 144.731 150.191 146.392 149.569 147.832C149.016 149.288 147.605 150.289 146.043 150.327H145.868C144.822 150.327 143.942 151.206 143.942 152.252C143.942 153.299 144.822 154.178 145.868 154.178H146.141C147.688 154.186 149.076 155.103 149.691 156.521C150.328 157.962 150.024 159.637 148.909 160.775L148.803 160.881C148.447 161.237 148.242 161.737 148.242 162.245C148.242 162.753 148.447 163.246 148.803 163.61C149.524 164.33 150.813 164.33 151.526 163.61L151.625 163.512C152.77 162.397 154.423 162.086 155.872 162.708Z" fill="#020144"/>
<path d="M329.993 89.1709C329.674 89.1709 329.356 89.0496 329.105 88.807C328.62 88.3217 328.62 87.5256 329.105 87.0404L338.843 77.3052L329.105 67.57C328.62 67.0848 328.62 66.2887 329.105 65.8034C329.591 65.3182 330.387 65.3182 330.872 65.8034L341.49 76.4181C341.975 76.9034 341.975 77.6995 341.49 78.1847L330.872 88.7994C330.63 89.0496 330.311 89.1709 329.993 89.1709Z" fill="#020144"/>
<path d="M313.816 89.1785C313.649 89.1785 313.482 89.1482 313.323 89.0799C312.686 88.807 312.397 88.0715 312.663 87.4422L321.749 66.2129C322.022 65.576 322.75 65.2803 323.387 65.5532C324.024 65.8262 324.312 66.5616 324.047 67.1909L314.961 88.4203C314.764 88.8904 314.301 89.1785 313.816 89.1785Z" fill="#020144"/>
<path d="M306.74 89.1709C306.422 89.1709 306.103 89.0496 305.853 88.807L295.235 78.1923C294.75 77.7071 294.75 76.911 295.235 76.4257L305.853 65.811C306.338 65.3258 307.134 65.3258 307.62 65.811C308.105 66.2963 308.105 67.0924 307.62 67.5776L297.882 77.3128L307.62 87.048C308.105 87.5332 308.105 88.3293 307.62 88.8146C307.385 89.0496 307.059 89.1709 306.74 89.1709Z" fill="#020144"/>
<path fill-rule="evenodd" clip-rule="evenodd" d="M76.2237 343.954C67.3201 346.016 61.7761 354.902 63.839 363.803C65.4847 370.923 71.5065 375.896 78.408 376.541C79.2498 376.503 79.4242 375.934 79.3256 375.51C79.2346 375.123 78.9919 374.115 78.6658 372.773C74.4112 374.782 72.7351 371.87 72.7351 371.87C71.5671 370.18 70.3992 369.929 70.3992 369.929C68.7004 369.27 70.2854 368.921 70.2854 368.921C71.9312 368.663 73.137 370.013 73.137 370.013C75.1468 372.143 77.3158 370.892 78.1425 370.263C78.0515 369.186 78.3018 368.383 78.6658 367.875C74.9951 368.299 70.9073 367.784 69.4815 361.612C69.072 359.853 69.3678 358.268 70.1413 356.904C69.8835 356.532 68.9507 355.023 69.3147 352.605C69.3147 352.605 70.5661 351.862 74.1306 353.234C75.3364 352.582 76.6712 352.081 78.0439 351.755C79.4166 351.445 80.8348 351.308 82.2076 351.361C84.8013 348.563 86.2499 348.685 86.2499 348.685C87.6453 350.702 87.4709 352.468 87.4026 352.916C88.6995 353.803 89.6551 355.099 90.057 356.858C91.4904 363.053 88.0397 365.282 84.5359 366.51C85.226 366.874 85.9692 367.738 86.3181 369.239C86.8187 371.393 87.1979 373.136 87.3192 373.667C87.4178 374.099 87.8273 374.532 88.6085 374.183C94.5165 370.566 97.7321 363.462 96.0863 356.343C94.0159 347.434 85.1274 341.891 76.2237 343.954Z" fill="#020144"/>
<path d="M500.596 126.239H494.635C493.945 126.239 493.384 125.678 493.384 124.988C493.384 124.298 493.945 123.737 494.635 123.737H500.596C500.998 123.737 501.332 123.396 501.332 123.001V91.7336L488.151 78.5562H464.822C464.42 78.5562 464.087 78.8974 464.087 79.2917V101.143C464.087 101.833 463.526 102.394 462.835 102.394C462.145 102.394 461.584 101.833 461.584 101.143V79.2917C461.584 77.5099 463.04 76.0542 464.822 76.0542H488.667C489 76.0542 489.319 76.1831 489.554 76.4181L503.463 90.3234C503.698 90.5584 503.827 90.8768 503.827 91.2105V122.994C503.835 124.783 502.379 126.239 500.596 126.239Z" fill="#020144"/>
<path d="M502.583 92.4615H488.674C487.984 92.4615 487.423 91.9004 487.423 91.2105V77.3052C487.423 76.6153 487.984 76.0542 488.674 76.0542C489.364 76.0542 489.926 76.6153 489.926 77.3052V89.9594H502.583C503.273 89.9594 503.835 90.5205 503.835 91.2105C503.835 91.9004 503.273 92.4615 502.583 92.4615Z" fill="#020144"/>
<path d="M452.113 119.711C451.427 119.408 450.863 118.968 450.417 118.384L452.381 115.821C452.67 116.223 452.951 116.519 453.233 116.708C453.515 116.898 453.803 116.997 454.098 116.997C454.483 116.997 454.771 116.868 454.971 116.617C455.17 116.367 455.273 115.996 455.273 115.503V110.954H451.591V107.913H458.885V115.26C458.885 116.89 458.508 118.111 457.745 118.93C456.983 119.741 455.877 120.151 454.407 120.151C453.563 120.166 452.8 120.014 452.113 119.711Z" fill="#020144"/>
<path d="M467.711 117.808H463.59L462.862 119.893H459.146L463.885 107.929H467.477L472.216 119.893H468.439L467.711 117.808ZM466.708 114.896L465.657 111.886L464.607 114.896H466.708Z" fill="#020144"/>
<path d="M483.769 107.929L479.188 119.893H475.596L471.015 107.929H474.95L477.532 114.919L480.183 107.929H483.769Z" fill="#020144"/>
<path d="M491.117 117.808H486.996L486.268 119.893H482.553L487.292 107.929H490.884L495.623 119.893H491.845L491.117 117.808ZM490.114 114.896L489.064 111.886L488.013 114.896H490.114Z" fill="#020144"/>
<path d="M515.712 323.793C515.553 323.793 515.394 323.763 515.242 323.702C514.795 323.52 504.169 319.123 499.695 312.261C495.956 306.529 496.661 299.372 497.078 296.787C494.765 295.551 488.736 291.767 487.841 285.656C486.787 278.446 493.15 268.506 493.423 268.089C493.665 267.717 494.09 267.498 494.53 267.52C494.575 267.52 499.634 267.695 502.288 265.041C505.466 261.864 506.862 259.734 505.686 256.875C504.844 254.821 500.832 254.457 498.769 254.495L495.956 260.431C495.812 260.735 495.554 260.97 495.235 261.076C494.917 261.189 494.568 261.167 494.264 261.015C494.007 260.886 487.894 257.77 486.468 251.651C485.361 246.905 487.211 240.567 488.053 238.065C485.437 236.662 478.528 232.469 475.411 225.797C472.491 219.542 473.037 211.369 473.477 207.752C469.821 208.7 461.403 211.513 458.733 217.783C457.641 220.346 456.541 223.378 455.457 226.79C455.32 227.222 455.184 227.655 455.055 228.094C455.055 228.102 455.047 228.11 455.047 228.125C453.796 232.211 452.643 236.594 451.726 240.794C450.292 247.368 449.488 253.084 449.412 257.307C449.223 267.619 451.582 269.355 454.85 271.751L454.964 271.834C459.166 274.92 467.311 277.21 467.387 277.233C467.948 277.392 468.327 277.915 468.297 278.491L467.265 300.949C467.235 301.639 466.651 302.17 465.961 302.139C465.271 302.109 464.74 301.525 464.77 300.835L465.756 279.356C463.382 278.628 457.194 276.573 453.478 273.844L453.364 273.76C449.784 271.129 446.697 268.862 446.91 257.254C446.986 252.864 447.805 246.981 449.276 240.248C450.163 236.184 451.263 231.961 452.469 227.981L449.951 224.629C447.706 221.839 444.748 214.932 449.822 208.973C455.715 202.05 472.786 195.985 473.507 195.727C473.545 195.712 473.583 195.704 473.621 195.697C474.698 195.431 500.104 189.245 515.591 201.141C530.418 212.521 532.526 241.492 532.738 245.04C533.982 247.148 541.323 260.181 539.2 269.575C537.433 277.43 531.055 281.274 528.006 282.692C529.955 285.201 533.906 290.857 534.869 296.589C536.144 304.202 532.116 311.541 531.942 311.852C531.677 312.329 531.123 312.58 530.584 312.466L519.952 310.123L516.933 322.846C516.85 323.202 516.615 323.498 516.289 323.664C516.107 323.74 515.909 323.793 515.712 323.793ZM495.175 270.022C493.885 272.168 489.524 279.909 490.321 285.3C491.208 291.358 498.921 294.921 498.997 294.959C499.535 295.202 499.831 295.801 499.702 296.377C499.68 296.461 497.837 304.831 501.795 310.904C504.966 315.764 511.92 319.411 514.848 320.791L517.805 308.341C517.965 307.682 518.624 307.265 519.292 307.409L530.175 309.812C531.123 307.795 533.307 302.367 532.412 297.006C531.267 290.183 525.109 283.078 525.041 283.003C524.768 282.684 524.661 282.252 524.775 281.85C524.889 281.448 525.192 281.122 525.594 280.993C525.685 280.963 534.786 277.854 536.773 269.029C538.813 259.969 530.531 246.208 530.448 246.064C530.342 245.882 530.281 245.684 530.266 245.472C530.251 245.161 528.628 214.288 514.082 203.12C499.869 192.209 475.623 197.789 474.296 198.108C473.204 198.502 457.034 204.378 451.741 210.595C446.75 216.449 451.726 222.833 451.938 223.098L453.402 225.039C454.41 221.953 455.427 219.186 456.443 216.797C460.402 207.502 474.19 204.992 474.774 204.894C475.175 204.825 475.585 204.954 475.873 205.242C476.161 205.531 476.29 205.948 476.214 206.349C476.192 206.456 474.243 217.366 477.686 224.736C481.099 232.045 490.04 236.268 490.131 236.313C490.73 236.594 491.011 237.284 490.768 237.898C490.738 237.981 487.704 245.919 488.903 251.083C489.729 254.623 492.664 257.027 494.28 258.111L496.82 252.743C497.01 252.341 497.404 252.068 497.852 252.03C498.694 251.962 506.171 251.507 507.984 255.92C509.857 260.462 507.066 263.79 504.048 266.808C501.295 269.567 496.926 269.969 495.175 270.022Z" fill="#020144"/>
<path d="M474.789 239.687C475.275 237.504 476.344 235.889 477.171 236.078C477.997 236.26 478.278 238.178 477.792 240.362C477.307 242.546 476.238 244.16 475.411 243.971C474.577 243.781 474.296 241.863 474.789 239.687Z" fill="#020144"/>
<path d="M475.555 245.237C475.418 245.237 475.274 245.222 475.13 245.192C473.249 244.767 472.991 241.984 473.56 239.414C473.826 238.216 474.273 237.109 474.804 236.306C475.828 234.759 476.89 234.736 477.443 234.857C477.989 234.979 478.945 235.456 479.21 237.291C479.347 238.247 479.279 239.437 479.006 240.635C478.475 243 477.223 245.237 475.555 245.237ZM476.761 237.89C476.503 238.338 476.215 239.012 476.002 239.96C475.79 240.9 475.767 241.643 475.805 242.151C476.063 241.704 476.351 241.022 476.563 240.081C476.776 239.141 476.806 238.406 476.761 237.89Z" fill="#020144"/>
<path d="M456.927 233.303C457.413 231.119 458.482 229.505 459.316 229.694C460.143 229.876 460.424 231.794 459.931 233.978C459.445 236.161 458.376 237.776 457.549 237.587C456.715 237.405 456.442 235.487 456.927 233.303Z" fill="#020144"/>
<path d="M457.701 238.853C457.565 238.853 457.421 238.838 457.277 238.808C455.396 238.383 455.138 235.601 455.707 233.03C456.283 230.46 457.709 228.057 459.582 228.474C461.463 228.898 461.721 231.681 461.144 234.251C460.621 236.624 459.37 238.853 457.701 238.853ZM458.149 233.576C457.936 234.516 457.914 235.259 457.952 235.767C458.209 235.328 458.498 234.645 458.71 233.705C458.922 232.765 458.945 232.022 458.907 231.514C458.649 231.954 458.361 232.636 458.149 233.576Z" fill="#020144"/>
<path d="M457.504 252.341C457.216 252.341 456.927 252.243 456.685 252.038C455.138 250.696 452.976 247.724 454.705 245.078C457.754 240.43 463.594 234.494 463.837 234.243C464.322 233.75 465.111 233.743 465.604 234.228C466.097 234.713 466.104 235.502 465.619 235.995C465.558 236.055 459.703 242 456.799 246.443C455.843 247.906 458.3 250.12 458.323 250.143C458.839 250.597 458.892 251.386 458.444 251.902C458.202 252.19 457.853 252.341 457.504 252.341Z" fill="#020144"/>
<path d="M468.683 261.303C468.675 261.303 468.66 261.303 468.653 261.303C468.478 261.303 464.277 261.197 461.243 260.462C458.073 259.696 456.23 258.248 456.154 258.187C455.616 257.755 455.525 256.974 455.957 256.428C456.389 255.89 457.17 255.799 457.717 256.231C457.724 256.238 459.241 257.406 461.842 258.035C464.618 258.71 468.675 258.809 468.721 258.809C469.411 258.824 469.957 259.4 469.942 260.09C469.919 260.765 469.366 261.303 468.683 261.303Z" fill="#020144"/>
<path d="M576.035 452.186C575.997 452.186 575.96 452.185 575.929 452.178L488.114 444.543C487.044 444.793 482.19 445.847 475.903 445.726C471.527 445.65 464.3 443.36 454.425 438.917C454.16 438.796 453.955 438.705 453.826 438.652C453.037 438.47 448.426 439.19 445.378 439.668C440.736 440.388 437.831 440.82 436.595 440.623C433.918 440.206 433.053 438.076 432.97 437.006C432.925 436.385 433.342 435.816 433.956 435.687C439.705 434.459 445.961 432.905 449.139 431.843C446.174 431.623 440.736 432.048 437.445 432.306C434.578 432.533 432.098 432.73 430.536 432.685C427.145 432.601 425.917 429.591 425.735 428.014C425.659 427.332 426.152 426.71 426.835 426.634L435.018 425.702C431.961 425.512 429.223 425.247 427.479 424.875C424.483 424.231 424.104 420.956 424.324 419.318C424.408 418.719 424.908 418.264 425.507 418.234L444.877 417.422C444.376 417.369 443.868 417.324 443.375 417.278C439.909 416.945 436.633 416.634 434.062 415.648C432.902 415.208 432.394 414.443 432.166 413.874C431.612 412.479 432.265 411.046 432.341 410.894C432.553 410.455 432.993 410.166 433.493 410.182C434.54 410.204 459.165 410.69 464.694 411.501C466.924 411.827 468.843 413.412 471.269 415.413C475.547 418.946 481.409 423.791 492.816 424.542C500.4 425.035 509.88 423.496 520.854 421.706C535.324 419.348 551.721 416.672 568.072 418.158C568.762 418.219 569.263 418.825 569.202 419.515C569.142 420.205 568.535 420.698 567.845 420.645C551.804 419.181 535.575 421.827 521.256 424.17C510.13 425.982 500.521 427.552 492.649 427.036C480.439 426.233 473.962 420.88 469.677 417.339C467.553 415.58 465.87 414.192 464.33 413.973C459.567 413.275 439.219 412.805 434.449 412.699C434.449 412.79 434.464 412.881 434.494 412.949C434.517 413.002 434.585 413.169 434.957 413.305C437.21 414.17 440.327 414.465 443.618 414.784C447.698 415.178 451.923 415.58 454.986 417.157C455.495 417.415 455.76 417.983 455.631 418.537C455.51 419.09 455.032 419.492 454.463 419.515L426.804 420.675C426.88 421.388 427.153 422.245 428.01 422.426C433.903 423.693 452.848 423.655 453.045 423.655C453.705 423.655 454.251 424.17 454.296 424.83C454.334 425.49 453.849 426.066 453.189 426.142L428.617 428.932C428.95 429.538 429.542 430.145 430.604 430.175C432.022 430.213 434.57 430.016 437.255 429.804C447.357 429.015 451.794 428.977 453.121 430.812C453.409 431.206 453.47 431.714 453.295 432.169C453.06 432.783 452.514 434.194 436.049 437.78C436.269 437.939 436.565 438.076 436.982 438.144C437.93 438.288 441.843 437.681 444.998 437.188C451.149 436.233 453.758 435.884 454.827 436.354C454.964 436.415 455.176 436.506 455.457 436.635C467.379 441.995 473.188 443.178 475.956 443.224C482.592 443.345 487.674 442.079 487.719 442.064C487.856 442.033 487.992 442.018 488.136 442.033L575.967 449.668C576.756 449.486 580.7 448.379 583.225 444.475C585.751 440.57 586.175 435.088 584.484 428.196C582.914 421.812 581.321 414.723 579.63 407.225C573.404 379.551 565.653 345.121 554.216 326.803C548.778 318.092 530.675 312.473 530.493 312.42C529.833 312.216 529.462 311.518 529.667 310.859C529.871 310.199 530.569 309.827 531.229 310.032C532.01 310.267 550.409 315.984 556.34 325.484C568.004 344.158 575.474 377.375 582.072 406.679C583.756 414.17 585.349 421.244 586.911 427.605C588.784 435.217 588.238 441.366 585.295 445.877C581.875 451.124 576.49 452.125 576.255 452.163C576.179 452.178 576.111 452.186 576.035 452.186Z" fill="#020144"/>
<path d="M536.439 448.743C535.779 448.743 535.226 448.228 535.195 447.561C534.156 428.401 524.312 423.503 524.214 423.458C523.592 423.162 523.326 422.419 523.622 421.79C523.918 421.168 524.669 420.903 525.29 421.198C525.753 421.418 536.575 426.794 537.698 447.424C537.736 448.114 537.205 448.705 536.515 448.743C536.484 448.743 536.462 448.743 536.439 448.743Z" fill="#020144"/>
<path d="M474.546 252.341C470.026 252.341 466.355 247.913 466.355 242.47C466.355 237.026 470.026 232.598 474.546 232.598C479.059 232.598 482.737 237.026 482.737 242.47C482.737 247.913 479.066 252.341 474.546 252.341ZM474.546 235.1C471.406 235.1 468.858 238.406 468.858 242.47C468.858 246.534 471.414 249.839 474.546 249.839C477.686 249.839 480.234 246.534 480.234 242.47C480.234 238.406 477.686 235.1 474.546 235.1Z" fill="#020144"/>
<path d="M454.926 243.827C450.414 243.827 446.735 239.399 446.735 233.955C446.735 228.511 450.406 224.084 454.926 224.084C459.446 224.084 463.117 228.511 463.117 233.955C463.117 239.399 459.439 243.827 454.926 243.827ZM454.926 226.586C451.786 226.586 449.238 229.891 449.238 233.955C449.238 238.019 451.794 241.325 454.926 241.325C458.066 241.325 460.614 238.019 460.614 233.955C460.614 229.899 458.066 226.586 454.926 226.586Z" fill="#020144"/>
<path d="M467.606 238.944C467.181 238.944 466.772 238.732 466.537 238.345C465.308 236.328 463.996 235.047 463.041 234.903C462.79 234.865 462.434 234.88 461.941 235.32C461.425 235.782 460.636 235.737 460.174 235.229C459.711 234.713 459.757 233.925 460.265 233.462C461.44 232.408 462.616 232.317 463.397 232.431C465.179 232.689 466.954 234.243 468.668 237.041C469.024 237.632 468.842 238.398 468.251 238.762C468.054 238.883 467.826 238.944 467.606 238.944Z" fill="#020144"/>
<path d="M383.53 375.798C383.424 375.798 383.31 375.782 383.196 375.752C382.529 375.57 382.142 374.88 382.324 374.213L397.674 318.213C396.939 316.136 393.23 305.673 389.681 295.005C388.687 292.017 387.967 283.829 389.635 280.918C390.166 280 390.841 279.682 391.319 279.583C395.801 278.628 404.834 288.151 406.593 290.069C406.654 290.137 406.707 290.205 406.752 290.289C406.95 290.63 407.905 292.412 407.147 293.814C406.859 294.353 406.222 295.012 404.856 295.081C404.022 295.126 402.869 294.929 401.641 294.641C403.704 296.514 405.858 298.803 407.056 301.032C409.953 306.438 407.314 311.306 407.2 311.511C406.866 312.11 406.108 312.329 405.501 311.996C404.902 311.662 404.682 310.896 405.016 310.297C405.099 310.146 407.094 306.385 404.856 302.215C402.422 297.674 395.028 292.51 394.952 292.457C394.428 292.101 394.262 291.403 394.557 290.85C394.853 290.289 395.513 290.039 396.104 290.266C398.569 291.206 403.097 292.67 404.727 292.586C404.826 292.579 404.894 292.571 404.94 292.563C404.932 292.351 404.803 291.964 404.644 291.654C400.078 286.725 393.973 281.736 391.888 282.025C390.811 283.025 390.902 290.797 392.039 294.216C395.983 306.044 400.109 317.629 400.147 317.743C400.23 317.986 400.245 318.243 400.177 318.494L384.728 374.873C384.584 375.434 384.076 375.798 383.53 375.798Z" fill="#020144"/>
<path d="M410.165 293.89C409.126 293.89 408.11 293.61 407.662 293.466C407.002 293.253 406.646 292.548 406.851 291.896C407.063 291.237 407.768 290.88 408.421 291.085C409.202 291.335 410.188 291.449 410.597 291.358C410.575 291.199 410.483 290.857 410.18 290.281C407.859 285.975 401.405 278.901 397.803 275.732C397.689 275.633 397.477 275.474 397.356 275.512C396.847 275.671 396.013 276.99 395.581 278.696C395.399 279.424 395.285 280.303 395.24 281.312C395.209 282.002 394.648 282.525 393.935 282.502C393.245 282.472 392.714 281.888 392.744 281.198C392.797 280.023 392.942 278.969 393.162 278.082C393.336 277.377 394.345 273.829 396.62 273.123C397.173 272.949 398.281 272.82 399.464 273.859C403.127 277.089 409.839 284.367 412.395 289.098C413.29 290.759 413.358 292.055 412.607 292.958C412 293.678 411.075 293.89 410.165 293.89Z" fill="#020144"/>
<path d="M412.842 289.091C412.447 289.091 412.068 288.909 411.833 288.59L400.321 273.192C400.07 273.973 399.911 274.678 399.858 275.004C399.744 275.686 399.107 276.141 398.425 276.035C397.742 275.921 397.279 275.277 397.393 274.602C397.408 274.496 397.825 272.039 398.933 270.113C398.94 270.098 398.955 270.075 398.963 270.06C399.721 268.764 400.654 267.968 401.731 267.68C402.702 267.422 403.726 267.604 404.765 268.21C406.676 269.332 408.762 271.615 411.158 275.193C412.645 277.422 413.995 279.75 415.185 281.805C415.648 282.601 416.073 283.336 416.459 283.988C417.324 285.436 417.15 286.49 416.846 287.12C416.361 288.128 415.254 288.788 413.623 289.015C413.176 289.076 412.857 289.083 412.857 289.083C412.857 289.091 412.849 289.091 412.842 289.091ZM401.572 270.682L413.418 286.521C414.199 286.392 414.548 286.149 414.594 286.043C414.609 286.005 414.617 285.762 414.321 285.27C413.926 284.61 413.494 283.867 413.024 283.056C411.856 281.031 410.521 278.742 409.08 276.581C406.934 273.366 405.053 271.273 403.498 270.364C402.831 269.969 402.482 270.06 402.368 270.091C402.11 270.166 401.837 270.371 401.572 270.682Z" fill="#020144"/>
<path d="M414.526 376.806C414.495 376.806 414.473 376.806 414.45 376.806C413.76 376.761 413.236 376.169 413.282 375.479L417.081 314.27C417.097 314.013 417.188 313.77 417.347 313.573C417.4 313.512 422.436 307.113 423.93 301.169C425.394 295.338 423.498 289.675 423.475 289.614C423.422 289.47 423.399 289.318 423.407 289.159L424.082 270.492C423.346 270.765 422.383 271.44 421.647 273.055C420.775 274.973 420.585 277.331 420.411 279.606C420.244 281.668 420.092 283.617 419.433 285.186C418.196 288.105 414.966 288.833 413.631 289.015C413.168 289.076 412.88 289.083 412.88 289.083C412.175 289.076 411.621 288.553 411.606 287.863C411.591 287.173 412.129 286.604 412.819 286.589C412.85 286.589 413.032 286.581 413.305 286.543C414.215 286.422 416.407 285.952 417.135 284.223C417.643 283.025 417.779 281.274 417.923 279.424C418.113 277.051 418.325 274.352 419.379 272.032C421.518 267.331 425.409 267.839 425.568 267.862C426.198 267.953 426.66 268.506 426.637 269.143L425.917 289.045C426.296 290.259 427.851 295.854 426.357 301.791C424.908 307.545 420.638 313.399 419.554 314.816L415.777 375.638C415.724 376.298 415.178 376.806 414.526 376.806Z" fill="#020144"/>
<path d="M410.119 277.142C409.429 277.142 408.875 276.588 408.868 275.898C408.852 270.909 408.746 254.078 408.132 246.913C408.041 245.821 407.336 245.275 406.668 245.01L405.379 269.363C405.341 270.053 404.742 270.583 404.067 270.546C403.377 270.508 402.846 269.924 402.884 269.234L404.249 243.433C404.287 242.765 404.833 242.25 405.493 242.25C405.5 242.25 405.515 242.25 405.523 242.25C407.154 242.288 410.324 243.273 410.612 246.7C411.234 253.964 411.34 270.879 411.355 275.891C411.37 276.581 410.817 277.142 410.119 277.142C410.127 277.142 410.127 277.142 410.119 277.142Z" fill="#020144"/>
<path d="M408.648 365.881C406.335 365.881 403.839 365.524 401.337 364.531C396.392 362.582 391.508 358.17 388.277 354.803C387.799 354.303 387.814 353.514 388.315 353.037C388.815 352.559 389.604 352.574 390.082 353.075C393.138 356.252 397.727 360.422 402.254 362.203C406.987 364.069 411.75 363.363 414.912 362.454C415.572 362.264 416.27 362.643 416.459 363.31C416.649 363.97 416.27 364.667 415.602 364.857C413.714 365.403 411.302 365.881 408.648 365.881Z" fill="#020144"/>
<path d="M418.31 315.666C417.991 315.666 417.665 315.544 417.423 315.294C416.937 314.801 416.937 314.013 417.43 313.527C420.221 310.76 423.679 308.205 427.691 305.938C432.515 303.216 439.773 300.487 449.276 297.833C456.405 295.839 462.844 294.436 466.044 293.777C466.719 293.64 467.379 294.072 467.523 294.747C467.659 295.422 467.227 296.081 466.552 296.226C463.382 296.878 457.004 298.273 449.951 300.244C440.645 302.845 433.569 305.498 428.928 308.122C425.105 310.282 421.829 312.701 419.197 315.309C418.947 315.544 418.629 315.666 418.31 315.666Z" fill="#020144"/>
<path d="M449.617 300.282C449.063 300.282 448.555 299.91 448.411 299.357C447.433 295.68 446.363 290.334 446.841 285.74C447.675 277.68 453.121 272.176 453.348 271.948C453.834 271.463 454.63 271.463 455.115 271.948C455.601 272.433 455.601 273.229 455.115 273.715C455.062 273.768 450.064 278.848 449.329 285.997C448.896 290.213 449.905 295.24 450.83 298.712C451.005 299.38 450.611 300.062 449.943 300.244C449.829 300.267 449.723 300.282 449.617 300.282Z" fill="#020144"/>
<path d="M477.504 292.177C472.976 292.177 468.335 289.409 465.961 287.756C465.392 287.362 465.255 286.581 465.65 286.02C466.044 285.452 466.825 285.315 467.387 285.709C469.518 287.195 473.651 289.682 477.496 289.682C477.511 289.682 477.526 289.682 477.542 289.682C482.949 289.652 488.152 284.64 488.197 284.587C488.69 284.102 489.479 284.117 489.964 284.61C490.45 285.103 490.435 285.891 489.942 286.377C489.699 286.612 483.958 292.154 477.549 292.184C477.542 292.177 477.519 292.177 477.504 292.177Z" fill="#020144"/>
<path d="M206.359 324.157C205.888 324.157 205.433 323.892 205.228 323.437C199.988 312.193 178.078 300.668 162.075 292.253C152.83 287.385 145.519 283.548 142.842 280.675C142.364 280.167 141.94 279.735 141.545 279.341C139.642 277.422 138.383 276.156 136.813 271.486C133.635 262.039 133.658 241.552 133.665 240.68C133.665 240.567 133.681 240.453 133.711 240.347C133.802 240.013 142.865 206.668 123.677 193.377C110.132 183.99 83.8611 195.234 76.6941 204.719C71.8328 211.156 71.6356 214.144 71.6356 214.174C71.6356 214.212 71.628 214.28 71.6204 214.318C71.6053 214.409 70.3842 223.196 71.5067 229.497C72.6443 235.904 73.9715 240.43 76.7093 248.785C78.484 254.199 88.8059 275.231 95.4495 277.225C105.445 280.228 122.707 268.733 124.36 264.912C126.135 260.81 126.263 253.335 126.271 253.259C126.279 252.569 126.847 252.023 127.538 252.03C128.228 252.038 128.781 252.607 128.766 253.297C128.759 253.623 128.63 261.341 126.65 265.905C124.413 271.069 105.764 282.934 94.729 279.621C86.2576 277.074 75.6248 253.501 74.3279 249.566C71.5522 241.09 70.2022 236.488 69.0343 229.937C67.8815 223.454 69.0039 214.917 69.1253 214.03C69.1632 213.317 69.641 209.898 74.6844 203.218C82.5263 192.831 110.2 181.018 125.088 191.33C145.224 205.28 136.949 237.898 136.153 240.862C136.161 242.841 136.274 262.076 139.171 270.697C140.552 274.814 141.53 275.8 143.305 277.589C143.714 278.006 144.162 278.453 144.655 278.984C147.044 281.547 154.544 285.489 163.228 290.054C180.451 299.114 201.884 310.388 207.481 322.398C207.769 323.02 207.504 323.763 206.874 324.059C206.715 324.119 206.533 324.157 206.359 324.157Z" fill="#020144"/>
<path d="M127.963 247.936C127.326 247.936 126.78 247.451 126.719 246.807C126.651 246.117 127.159 245.51 127.842 245.442C129.04 245.328 130.238 243.827 131.05 241.439C132.453 237.291 132.157 232.234 130.413 230.612C129.366 229.641 128.57 229.762 128.062 229.944C126.325 230.566 124.717 233.326 124.436 235.373C124.209 237.056 123.344 237.898 122.669 238.315C120.849 239.414 118.49 238.611 118.233 238.52C117.922 238.406 117.671 238.178 117.535 237.883L115.654 233.978C114.752 233.136 111.255 229.558 111.293 225.024C111.331 220.785 109.39 215.789 105.052 214.818C102.86 214.333 99.5759 215.812 95.7763 217.525C91.6657 219.383 87.0091 221.483 81.8444 222.036C70.8324 223.219 69.1715 214.432 69.1563 214.341C69.035 213.658 69.49 213.014 70.1726 212.893C70.8475 212.771 71.4998 213.226 71.6135 213.901C71.6666 214.189 72.9483 220.482 81.5714 219.55C86.3342 219.034 90.8012 217.025 94.7449 215.243C98.954 213.348 102.587 211.702 105.598 212.377C111.324 213.651 113.841 219.656 113.796 225.039C113.766 228.997 117.459 232.242 117.497 232.272C117.626 232.386 117.732 232.522 117.808 232.674L119.545 236.29C120.083 236.404 120.887 236.48 121.388 236.177C121.501 236.108 121.858 235.889 121.972 235.039C122.366 232.166 124.436 228.595 127.235 227.594C128.919 226.995 130.655 227.412 132.127 228.784C134.918 231.377 134.978 237.663 133.431 242.242C132.263 245.692 130.367 247.709 128.099 247.929C128.039 247.936 128.001 247.936 127.963 247.936Z" fill="#020144"/>
<path d="M39.1536 334.696C39.0474 334.696 38.9336 334.681 38.8275 334.651C38.1601 334.469 37.7657 333.786 37.9477 333.119C42.9683 314.581 74.6241 296.931 89.8377 288.446C93.5463 286.377 97.0577 284.42 97.6796 283.791C98.658 281.752 98.3243 279.591 98.2484 279.174C98.1195 278.499 98.567 277.839 99.2419 277.718C99.9169 277.589 100.577 278.036 100.698 278.711C100.85 279.5 101.229 282.282 99.8714 284.997C99.4164 285.914 97.8996 286.816 91.0512 290.63C76.1409 298.947 45.107 316.249 40.3594 333.771C40.2078 334.332 39.7072 334.696 39.1536 334.696Z" fill="#020144"/>
<path d="M115.828 294.36C114.562 294.36 113.25 294.315 111.892 294.209C99.1433 293.231 97.581 284.997 97.5204 284.648C97.4066 283.966 97.8616 283.321 98.5442 283.207C99.2268 283.086 99.8714 283.549 99.9852 284.223C100.038 284.489 101.365 290.895 112.082 291.714C134.189 293.405 142.334 279.773 142.676 279.189C143.025 278.59 143.783 278.385 144.382 278.726C144.981 279.068 145.186 279.833 144.845 280.432C144.496 281.039 136.616 294.36 115.828 294.36Z" fill="#020144"/>
<path d="M98.4831 240.976C97.8536 238.77 98.0128 236.791 98.8319 236.563C99.651 236.328 100.827 237.928 101.448 240.134C102.078 242.341 101.919 244.32 101.1 244.547C100.28 244.775 99.1049 243.182 98.4831 240.976Z" fill="#020144"/>
<path d="M100.917 245.821C99.2867 245.821 97.9367 243.652 97.2769 241.317C96.9356 240.112 96.7915 238.906 96.8674 237.928C97.0191 236.048 97.9443 235.509 98.4904 235.358C99.0288 235.206 100.106 235.168 101.221 236.692C101.805 237.481 102.313 238.58 102.654 239.786C103.39 242.371 103.299 245.214 101.448 245.745C101.266 245.798 101.092 245.821 100.917 245.821ZM99.3474 238.383C99.3398 238.914 99.408 239.68 99.6811 240.635C99.9541 241.59 100.295 242.28 100.584 242.727C100.591 242.197 100.523 241.431 100.25 240.476C99.9693 239.513 99.6356 238.83 99.3474 238.383Z" fill="#020144"/>
<path d="M80.0465 242.508C79.4171 240.301 79.5763 238.33 80.3954 238.095C81.2145 237.86 82.39 239.46 83.0119 241.666C83.6414 243.872 83.4821 245.844 82.663 246.079C81.8515 246.314 80.676 244.714 80.0465 242.508Z" fill="#020144"/>
<path d="M82.4881 247.352C80.8576 247.352 79.5076 245.184 78.8478 242.849C78.1121 240.263 78.2031 237.42 80.0537 236.889C80.5921 236.738 81.6691 236.707 82.7839 238.224C83.3679 239.012 83.876 240.119 84.2173 241.325C84.9529 243.91 84.8619 246.753 83.0114 247.284C82.837 247.33 82.6626 247.352 82.4881 247.352ZM82.6929 244.888H82.7005H82.6929ZM80.9182 239.915C80.9106 240.445 80.9789 241.211 81.2519 242.166C81.525 243.122 81.8662 243.812 82.1544 244.259C82.162 243.728 82.0938 242.963 81.8207 242.007C81.5401 241.052 81.1988 240.362 80.9182 239.915Z" fill="#020144"/>
<path d="M92.5752 258.498C90.3455 258.498 86.3487 257.543 85.6434 253.812C84.8319 249.521 89.2382 244.009 89.7464 243.395C90.1862 242.864 90.9674 242.781 91.5059 243.22C92.0367 243.66 92.1202 244.449 91.6803 244.979C90.5123 246.405 87.6001 250.673 88.1006 253.342C88.6163 256.072 92.7041 255.988 92.7421 255.988C93.4246 255.996 94.0086 256.511 94.0313 257.201C94.0541 257.891 93.5156 258.468 92.8255 258.49C92.7496 258.49 92.6662 258.498 92.5752 258.498Z" fill="#020144"/>
<path d="M95.3063 265.564C94.9347 265.564 94.5631 265.557 94.1763 265.534C93.4862 265.504 92.9553 264.912 92.9856 264.23C93.0159 263.547 93.5923 263.017 94.2901 263.039C101.138 263.365 104.832 260.249 104.87 260.219C105.393 259.772 106.182 259.825 106.629 260.34C107.084 260.856 107.031 261.644 106.516 262.099C106.349 262.243 102.496 265.564 95.3063 265.564Z" fill="#020144"/>
<path d="M128.236 242.333C128.001 242.333 127.758 242.265 127.553 242.129C126.977 241.749 126.817 240.976 127.197 240.4C129.442 236.996 127.538 234.926 127.318 234.698C126.833 234.213 126.825 233.425 127.31 232.939C127.788 232.454 128.569 232.431 129.062 232.909C130.352 234.145 132.05 237.587 129.29 241.772C129.04 242.136 128.645 242.333 128.236 242.333Z" fill="#020144"/>
<path d="M165.056 415.398C164.911 415.398 164.76 415.375 164.616 415.315C158.533 413.025 147.855 408.43 144.677 403.388C140.984 397.527 132.952 385.222 129.016 380.597C127.302 378.588 120.719 376.184 111.406 374.168C107.333 373.288 104.148 372.788 103.587 372.773H103.579C103.337 372.773 103.238 373.053 103.2 373.174C103.17 373.296 103.041 373.925 103.693 374.274C104.391 374.638 106.074 375.07 107.849 375.525C109.556 375.957 111.489 376.45 113.332 377.071C114.553 377.481 115.585 377.89 116.48 378.33C120.901 380.491 124.875 384.813 125.042 384.995C125.452 385.442 125.482 386.132 125.103 386.609C124.724 387.087 124.056 387.224 123.518 386.936C123.472 386.913 118.937 384.449 113.401 382.841C110.079 381.878 107.083 381.416 104.497 381.484C98.0202 381.636 95.2748 382.356 94.3723 382.667C94.2813 383.031 94.2282 383.501 94.395 383.804C94.615 384.206 95.2596 384.365 95.7602 384.433C96.4427 384.524 97.4514 384.57 98.6269 384.631C102.798 384.835 109.791 385.177 116.085 388.111C117.61 388.816 119.028 389.65 120.317 390.582C120.788 390.924 120.962 391.545 120.734 392.084C120.507 392.622 119.938 392.925 119.362 392.827C119.362 392.827 117.913 392.569 115.752 392.182C103.086 389.953 97.7396 389.233 96.9433 389.316C96.602 389.369 96.4352 389.635 96.3896 389.87C96.3214 390.294 96.6399 390.742 97.2391 391.06C98.809 391.902 109.578 395.389 118.33 398.119L119.02 398.331C119.68 398.536 120.044 399.233 119.84 399.893C119.635 400.553 118.937 400.924 118.277 400.712L117.587 400.5C113.082 399.097 98.2326 394.419 96.0635 393.259C94.1827 392.25 93.7276 390.628 93.9248 389.445C94.122 388.293 94.9335 387.353 96.018 386.981C95.8057 386.958 95.6085 386.943 95.4265 386.92C93.4698 386.663 92.59 385.738 92.1881 385.002C91.278 383.327 92.1426 381.416 92.2412 381.204C92.3398 380.991 92.499 380.809 92.7038 380.688C93.0982 380.438 95.4947 379.202 104.429 378.997C107.273 378.929 110.511 379.422 114.083 380.453C114.948 380.703 115.782 380.969 116.586 381.249C116.184 381.014 115.782 380.787 115.373 380.589C114.576 380.203 113.651 379.831 112.536 379.452C110.784 378.861 108.896 378.383 107.227 377.959C105.134 377.428 103.488 377.003 102.525 376.503C101.084 375.745 100.364 374.122 100.773 372.56C101.137 371.165 102.313 370.263 103.655 370.293C104.55 370.324 108.084 370.907 111.929 371.741C119.089 373.288 128.197 375.805 130.912 378.99C134.939 383.721 143.054 396.148 146.786 402.069C148.795 405.253 155.788 409.333 165.495 412.987C166.14 413.23 166.466 413.95 166.224 414.594C166.034 415.087 165.556 415.398 165.056 415.398ZM101.479 387.292C103.511 387.58 106.408 388.035 110.579 388.74C107.364 387.853 104.194 387.481 101.479 387.292Z" fill="#020144"/>
<path d="M160.119 433.367C159.876 433.367 159.634 433.299 159.421 433.155L139.157 419.53C137.481 419.242 129.04 417.635 123.92 413.48C122.479 412.312 120.568 410.894 118.392 409.378C113.106 405.708 106.09 401.379 102.329 399.976C98.0892 398.399 96.2842 396.989 96.6331 395.541C96.7999 394.874 97.4749 394.464 98.1423 394.624C98.6125 394.737 98.9538 395.101 99.0599 395.541C99.2647 395.761 100.137 396.489 103.201 397.634C107.167 399.112 114.402 403.563 119.817 407.323C122.047 408.87 124.011 410.326 125.498 411.539C130.549 415.641 139.726 417.089 139.817 417.104C139.999 417.134 140.173 417.203 140.325 417.301L160.817 431.077C161.386 431.464 161.545 432.237 161.158 432.814C160.915 433.178 160.521 433.367 160.119 433.367Z" fill="#020144"/>
<path d="M64.0974 420.213C63.5286 420.213 63.0204 419.826 62.8839 419.25L42.9682 335.924C42.8924 335.606 42.9455 335.265 43.1199 334.977C43.2943 334.696 43.5749 334.491 43.8935 334.416L99.3025 321.185C99.6286 321.109 99.9623 321.162 100.25 321.337C100.531 321.511 100.736 321.792 100.812 322.11L112.886 372.651C113.045 373.318 112.635 373.993 111.96 374.16C111.293 374.327 110.618 373.91 110.451 373.235L98.6654 323.907L45.6909 336.561L65.3108 418.673C65.4701 419.341 65.0605 420.015 64.3856 420.182C64.2946 420.205 64.196 420.213 64.0974 420.213ZM74.6847 420.213C74.1159 420.213 73.6078 419.826 73.4712 419.25C73.312 418.582 73.7215 417.908 74.3965 417.741L118.816 407.134C119.484 406.975 120.159 407.384 120.325 408.059C120.485 408.726 120.075 409.401 119.4 409.568L74.9805 420.175C74.8819 420.205 74.7833 420.213 74.6847 420.213ZM115.972 392.19C115.403 392.19 114.895 391.803 114.759 391.227L114.349 389.521C114.19 388.854 114.6 388.179 115.274 388.012C115.942 387.845 116.617 388.262 116.784 388.937L117.193 390.643C117.353 391.318 116.943 391.985 116.268 392.152C116.162 392.182 116.063 392.19 115.972 392.19ZM113.743 382.887C113.174 382.887 112.666 382.5 112.529 381.924L111.718 378.542C111.558 377.875 111.968 377.2 112.643 377.034C113.31 376.874 113.985 377.284 114.152 377.959L114.964 381.34C115.123 382.007 114.713 382.682 114.038 382.849C113.94 382.872 113.841 382.887 113.743 382.887Z" fill="#020144"/>
<path d="M47.8675 420.22C47.8068 420.22 47.7385 420.213 47.6703 420.205L21.5357 416.133C21.0351 416.058 20.6332 415.686 20.5118 415.186L0.034923 329.48C-0.0636696 329.078 0.050091 328.646 0.330701 328.342C0.61131 328.039 1.02843 327.888 1.43797 327.956L44.2499 334.62C44.7504 334.696 45.1524 335.068 45.2737 335.568L65.1363 418.673C65.2956 419.341 64.8861 420.015 64.2111 420.182C63.5437 420.341 62.8687 419.932 62.7019 419.257L43.0364 336.956L2.89411 330.708L22.7491 413.798L48.0571 417.741C48.7396 417.847 49.2099 418.484 49.1037 419.166C49.0051 419.78 48.4742 420.22 47.8675 420.22Z" fill="#020144"/>
<path d="M70.21 431.441C69.0269 431.441 67.9803 430.767 67.2674 429.531C65.7885 426.976 65.7885 422.154 67.2674 419.606C67.9803 418.378 69.0269 417.703 70.21 417.703C70.2176 417.703 70.2176 417.703 70.2251 417.703C78.4007 417.741 120.371 417.703 120.796 417.703C121.129 417.703 121.448 417.832 121.675 418.067C121.91 418.302 122.039 418.62 122.039 418.954V430.19C122.039 430.524 121.91 430.842 121.675 431.077C121.44 431.312 121.122 431.441 120.796 431.441C120.378 431.441 79.3336 431.403 70.2251 431.441C70.2176 431.441 70.2176 431.441 70.21 431.441ZM70.21 420.205C69.9445 420.205 69.6867 420.425 69.4288 420.865C68.405 422.631 68.405 426.513 69.4288 428.287C69.6867 428.727 69.9673 428.955 70.21 428.947C78.4159 428.909 112.552 428.939 119.544 428.947V420.205C112.468 420.213 77.5893 420.235 70.21 420.205Z" fill="#020144"/>
<path d="M77.0665 453.937C76.5583 453.937 75.6103 453.747 74.8898 452.504C73.4716 450.063 73.4716 444.065 74.8898 441.631C75.6103 440.388 76.5583 440.199 77.0665 440.199C77.074 440.199 77.074 440.199 77.0816 440.199C82.9062 440.236 112.848 440.199 113.151 440.199C113.485 440.199 113.804 440.327 114.031 440.562C114.266 440.797 114.395 441.116 114.395 441.45V452.686C114.395 453.02 114.266 453.338 114.031 453.573C113.796 453.808 113.477 453.937 113.151 453.937C112.856 453.937 83.5736 453.899 77.0816 453.937C77.074 453.937 77.0665 453.937 77.0665 453.937ZM77.1726 442.701C76.8465 443.034 76.3156 444.543 76.3156 447.068C76.3156 449.593 76.8465 451.101 77.1726 451.435C83.0806 451.397 106.235 451.427 111.9 451.435V442.701C106.166 442.708 82.5421 442.738 77.1726 442.701Z" fill="#020144"/>
<path d="M31.7593 453.937C30.5535 453.937 29.4917 453.247 28.7636 452.004C27.2923 449.464 27.2923 444.672 28.7636 442.139C29.4841 440.888 30.5535 440.206 31.7593 440.206C31.7669 440.206 31.7669 440.206 31.7745 440.206C38.6001 440.236 68.0869 440.221 76.9602 440.214L83.255 440.206C83.5887 440.206 83.9072 440.335 84.1347 440.57C84.3698 440.805 84.4988 441.123 84.4988 441.457C84.4988 442.193 83.8162 442.776 83.1109 442.708L76.9526 442.716C68.0793 442.723 38.585 442.746 31.7517 442.708C31.4636 442.708 31.1829 442.943 30.9175 443.398C29.8785 445.187 29.8785 448.971 30.9175 450.76C31.1829 451.215 31.4636 451.45 31.7517 451.45C38.5698 451.42 62.998 451.435 76.9526 451.442L83.1109 451.45C83.8238 451.374 84.4988 451.95 84.4988 452.686V452.701C84.4988 453.035 84.3698 453.353 84.1347 453.588C83.8996 453.823 83.5811 453.952 83.2474 453.952L76.9526 453.944C62.998 453.937 38.5774 453.922 31.7669 453.952C31.7745 453.937 31.7669 453.937 31.7593 453.937Z" fill="#020144"/>
<path d="M66.2289 442.678C64.6742 442.678 63.3394 441.844 62.4596 440.327C61.0187 437.833 61.0187 433.784 62.4596 431.29C63.3394 429.773 64.6742 428.939 66.2289 428.939C66.2365 428.939 66.2365 428.939 66.2441 428.939C76.7631 428.977 130.777 428.939 131.323 428.939C131.656 428.939 131.975 429.068 132.21 429.303C132.445 429.538 132.574 429.857 132.574 430.19V441.427C132.574 441.76 132.445 442.079 132.21 442.314C131.975 442.549 131.656 442.678 131.323 442.678C130.792 442.678 77.969 442.64 66.2441 442.678C66.2441 442.678 66.2365 442.678 66.2289 442.678ZM66.2137 431.441C65.9559 431.441 65.2506 431.472 64.6287 432.541C63.62 434.277 63.62 437.333 64.6287 439.076C65.2733 440.183 66.0014 440.183 66.2441 440.183C76.9527 440.145 121.972 440.176 130.079 440.183V431.449C121.873 431.457 75.8682 431.487 66.2441 431.449C66.2289 431.441 66.2213 431.441 66.2137 431.441Z" fill="#020144"/>
<path d="M41.9369 442.685C40.3822 442.685 39.0474 441.851 38.1676 440.335C36.7267 437.841 36.7267 433.792 38.1676 431.297C39.0474 429.781 40.3822 428.947 41.9369 428.947C41.9445 428.947 41.9445 428.947 41.9521 428.947C45.782 428.962 55.3 428.97 65.9101 428.962H77.2027C92.6362 428.955 107.031 428.947 107.031 428.947C107.364 428.947 107.683 429.076 107.918 429.311C108.153 429.546 108.282 429.864 108.282 430.198C108.282 430.933 107.615 431.51 106.902 431.449C105.431 431.449 91.7792 431.457 77.2027 431.464H65.9101C55.2924 431.472 45.782 431.464 41.9445 431.449C41.7018 431.441 40.9737 431.449 40.3291 432.556C39.3204 434.292 39.3204 437.348 40.3291 439.092C40.9737 440.199 41.6942 440.199 41.9445 440.199C46.1461 440.183 55.5427 440.183 65.9101 440.183H77.6729C92.1053 440.191 105.461 440.199 106.902 440.199C107.607 440.138 108.282 440.699 108.282 441.434V441.45C108.282 441.783 108.153 442.102 107.918 442.337C107.683 442.572 107.364 442.701 107.031 442.701C107.031 442.701 92.9548 442.693 77.6729 442.685H65.9101C55.5351 442.678 46.1536 442.685 41.9521 442.701C41.9445 442.685 41.9369 442.685 41.9369 442.685Z" fill="#020144"/>
<path d="M34.1475 431.441C32.9568 431.441 31.9178 430.767 31.2049 429.531C29.726 426.976 29.726 422.154 31.2049 419.606C31.9178 418.378 32.9644 417.703 34.1475 417.703C34.1551 417.703 34.1551 417.703 34.1626 417.703C39.4942 417.726 58.9094 417.718 70.0124 417.711L84.733 417.703C85.0667 417.703 85.3853 417.832 85.6128 418.067C85.8479 418.302 85.9768 418.62 85.9768 418.954C85.9768 419.697 85.2943 420.281 84.5738 420.205L69.9972 420.213C58.8942 420.22 39.4715 420.228 34.1323 420.197C33.8669 420.197 33.609 420.417 33.3512 420.857C32.3273 422.624 32.3273 426.506 33.3512 428.28C33.6014 428.719 33.8669 428.939 34.1323 428.939C40.0175 428.909 59.1293 428.924 69.9897 428.932L84.5662 428.939C85.2867 428.864 85.9617 429.432 85.9617 430.175V430.19C85.9617 430.524 85.8327 430.842 85.5976 431.077C85.3625 431.312 85.044 431.441 84.7179 431.441L69.9897 431.434C59.1293 431.426 40.0251 431.419 34.1399 431.441C34.1551 431.441 34.1551 431.441 34.1475 431.441Z" fill="#020144"/>
<path d="M546.701 419.864C546.139 419.864 545.631 419.485 545.487 418.916L535.332 378.05C535.165 377.382 535.575 376.7 536.242 376.533C536.917 376.366 537.592 376.776 537.759 377.443L547.914 418.309C548.081 418.977 547.671 419.659 547.004 419.826C546.898 419.849 546.799 419.864 546.701 419.864Z" fill="#020144"/>
<path d="M417.954 447.356C417.688 447.356 417.431 447.272 417.211 447.113C416.945 446.916 416.763 446.62 416.718 446.294L406.199 376.821C406.092 376.139 406.563 375.502 407.245 375.396L460.447 367.344C460.773 367.291 461.107 367.374 461.372 367.571C461.638 367.768 461.82 368.064 461.865 368.39L468.759 413.889C468.866 414.572 468.395 415.209 467.713 415.315C467.03 415.413 466.393 414.951 466.287 414.268L459.59 369.998L408.861 377.678L419.008 444.679L459.408 438.561C460.098 438.462 460.728 438.925 460.834 439.607C460.94 440.289 460.47 440.926 459.787 441.033L418.151 447.333C418.083 447.348 418.022 447.356 417.954 447.356Z" fill="#020144"/>
<path d="M438.93 412.145C436.625 412.145 434.592 410.455 434.236 408.104C434.046 406.853 434.357 405.595 435.108 404.579C435.859 403.555 436.966 402.888 438.218 402.698C439.477 402.509 440.728 402.82 441.744 403.57C442.768 404.321 443.435 405.428 443.625 406.679C444.019 409.264 442.23 411.69 439.643 412.085C439.408 412.123 439.166 412.145 438.93 412.145ZM438.938 405.147C438.824 405.147 438.711 405.155 438.597 405.17C438.005 405.261 437.482 405.579 437.118 406.057C436.761 406.542 436.617 407.134 436.708 407.725C436.898 408.953 438.036 409.795 439.272 409.613C440.5 409.423 441.342 408.279 441.16 407.05C441.069 406.459 440.758 405.936 440.273 405.579C439.878 405.299 439.416 405.147 438.938 405.147Z" fill="#020144"/>
<path fill-rule="evenodd" clip-rule="evenodd" d="M223.824 382.394H337.676L330.198 447.068H231.302L223.824 382.394Z" fill="#DFF1FD"/>
<path d="M330.198 448.319H231.302C230.665 448.319 230.134 447.841 230.059 447.212L222.581 382.538C222.543 382.182 222.649 381.833 222.892 381.56C223.127 381.295 223.468 381.143 223.825 381.143H337.676C338.033 381.143 338.374 381.295 338.609 381.56C338.844 381.825 338.958 382.182 338.92 382.538L331.442 447.212C331.366 447.841 330.828 448.319 330.198 448.319ZM232.417 445.817H329.076L336.266 383.645H225.228L232.417 445.817Z" fill="#020144"/>
<path d="M330.501 447.068H231.477V452.686H330.501V447.068Z" fill="#DFF1FD"/>
<path d="M330.502 453.937H231.477C230.787 453.937 230.226 453.376 230.226 452.686V447.068C230.226 446.378 230.787 445.817 231.477 445.817H330.494C331.184 445.817 331.746 446.378 331.746 447.068V452.686C331.753 453.376 331.192 453.937 330.502 453.937ZM232.728 451.442H329.25V448.319H232.728V451.442Z" fill="#020144"/>
<path d="M280.993 424.299C275.729 424.299 271.611 421.608 271.611 418.173C271.611 414.738 275.729 412.047 280.993 412.047C286.256 412.047 290.374 414.738 290.374 418.173C290.374 421.608 286.249 424.299 280.993 424.299ZM280.993 414.549C276.935 414.549 274.114 416.46 274.114 418.173C274.114 419.887 276.943 421.797 280.993 421.797C285.043 421.797 287.871 419.887 287.871 418.173C287.871 416.46 285.043 414.549 280.993 414.549Z" fill="#020144"/>
<path d="M281.396 314.217C269.732 314.217 258.788 297.742 258.333 297.037C257.954 296.46 258.113 295.687 258.689 295.308C259.266 294.929 260.039 295.088 260.418 295.664C260.525 295.824 271.074 311.715 281.396 311.715C291.741 311.715 302.737 295.808 302.844 295.642C303.23 295.073 304.012 294.929 304.58 295.316C305.149 295.702 305.293 296.483 304.906 297.052C304.429 297.757 293.045 314.217 281.396 314.217Z" fill="#5DB9F5"/>
<path d="M283.209 283.162C275.382 283.162 268.678 280.121 263.27 274.124C259.516 269.962 256.414 264.389 254.048 257.558C253.821 256.906 254.169 256.193 254.822 255.965C255.474 255.738 256.187 256.087 256.414 256.739C258.674 263.252 261.602 268.536 265.128 272.456C270.134 278.006 276.353 280.736 283.611 280.667C289.139 280.584 293.993 278.256 298.035 273.737C301.774 269.56 304.838 263.54 307.144 255.859C307.227 255.579 307.311 255.306 307.387 255.025C307.523 254.548 307.66 254.07 307.781 253.6C309.374 247.671 310.185 242.159 310.579 238.573C310.724 237.284 310.807 236.283 310.853 235.684L304.05 230.505V232.856C304.05 233.197 303.906 233.531 303.655 233.766C303.405 234.001 303.064 234.122 302.722 234.099C302.434 234.084 295.662 233.584 291.271 225.949C288.601 221.301 286.864 214.053 285.939 209.268C285.021 212.21 284.028 216.085 283.922 219.345C283.724 225.274 286.5 229.36 286.53 229.398C286.811 229.808 286.826 230.346 286.568 230.771C286.303 231.195 285.818 231.423 285.325 231.347C284.976 231.294 276.762 229.99 273.653 222.893C272.523 220.315 272.113 217.017 272.045 213.886C270.665 217.275 268.822 221.058 266.493 224.326C261.518 231.324 254.511 235.782 252.251 237.102C252.44 239.323 253.168 246.086 255.39 253.585L255.55 254.123C255.747 254.783 255.375 255.48 254.715 255.677C254.048 255.874 253.358 255.503 253.161 254.843L252.994 254.29C250.203 244.866 249.718 236.814 249.695 236.472C249.664 235.987 249.922 235.532 250.355 235.297C250.438 235.252 258.932 230.642 264.453 222.87C270.012 215.046 272.788 203.734 272.819 203.62C272.978 202.968 273.622 202.551 274.29 202.687C274.95 202.824 275.382 203.461 275.268 204.128C275.245 204.242 273.258 215.759 275.943 221.877C277.49 225.418 280.744 227.23 283.065 228.109C282.208 226.07 281.305 222.999 281.426 219.239C281.646 212.635 285.059 204.135 285.203 203.779C285.416 203.256 285.954 202.938 286.515 203.006C287.077 203.074 287.524 203.514 287.6 204.075C287.615 204.211 289.496 217.821 293.44 224.667C296.079 229.254 299.643 230.801 301.547 231.317V227.943C301.547 227.465 301.82 227.033 302.245 226.821C302.669 226.608 303.177 226.661 303.557 226.949L312.9 234.061C313.226 234.311 313.416 234.706 313.393 235.123C313.393 235.183 313.317 236.548 313.067 238.808C312.658 242.477 311.831 248.126 310.2 254.206C310.071 254.699 309.935 255.184 309.791 255.677C309.707 255.965 309.624 256.246 309.54 256.534C307.129 264.571 303.89 270.902 299.901 275.36C295.373 280.425 289.905 283.033 283.649 283.124C283.504 283.162 283.36 283.162 283.209 283.162Z" fill="#020144"/>
<path d="M251.287 242.212C251.006 242.212 250.725 242.121 250.498 241.931C250.407 241.856 248.215 240.036 246.061 236.442C242.944 231.233 239.949 222.4 243.43 209.905C246.88 197.516 262.769 184.817 267.319 181.382C264.824 178.577 262.337 173.216 266.121 167.34C270.823 160.054 278.726 155.952 288.979 155.482C294.516 155.232 299.028 156.877 302.76 160.509C305.839 163.512 305.133 167.75 304.565 169.736C306.203 170.684 309.229 172.883 309.434 176.325C309.631 179.661 306.991 182.603 305.497 183.983C308.266 187.47 317.495 199.677 320.355 211.088C323.699 224.447 318.239 236.177 318.003 236.67C317.882 236.92 317.685 237.124 317.442 237.246L312.406 239.793C311.792 240.104 311.041 239.862 310.73 239.24C310.419 238.626 310.662 237.875 311.284 237.564L315.918 235.214C316.798 233.144 320.741 222.878 317.935 211.695C314.765 199.04 302.926 184.764 302.805 184.62C302.585 184.354 302.487 184.013 302.524 183.672C302.562 183.331 302.744 183.02 303.017 182.815C304.163 181.951 307.105 179.115 306.946 176.454C306.764 173.353 302.593 171.495 302.547 171.48C301.918 171.207 301.63 170.479 301.895 169.85C301.91 169.805 303.859 165.043 301.023 162.283C297.807 159.16 293.909 157.742 289.101 157.962C282.541 158.257 273.591 160.358 268.229 168.675C263.982 175.264 269.799 180.328 270.05 180.541C270.345 180.791 270.505 181.162 270.489 181.549C270.474 181.936 270.285 182.292 269.966 182.512C269.761 182.656 249.557 197.213 245.841 210.55C242.603 222.188 245.341 230.339 248.208 235.13C250.119 238.322 252.068 239.96 252.091 239.975C252.621 240.415 252.697 241.203 252.257 241.734C252 242.06 251.643 242.212 251.287 242.212Z" fill="#020144"/>
<path d="M309.919 255.215C309.562 255.215 309.198 255.192 308.842 255.147C308.159 255.056 307.674 254.434 307.757 253.752C307.841 253.069 308.47 252.584 309.153 252.667C309.449 252.705 309.752 252.72 310.033 252.713C310.435 252.705 310.814 252.652 311.163 252.561C311.838 252.379 312.422 252.046 312.892 251.553C315.668 248.694 317.366 245.229 317.814 241.514C318.026 239.733 317.435 238.262 316.039 237.124C315.501 236.692 315.417 235.904 315.857 235.365C316.289 234.827 317.078 234.751 317.617 235.183C319.695 236.867 320.62 239.156 320.301 241.81C319.793 246.063 317.852 250.036 314.697 253.289C313.9 254.108 312.93 254.677 311.815 254.972C311.276 255.116 310.692 255.192 310.101 255.207C310.025 255.215 309.972 255.215 309.919 255.215Z" fill="#020144"/>
<path d="M253.525 255.215C252.903 255.215 252.289 255.139 251.72 254.995C250.567 254.707 249.574 254.131 248.762 253.297C245.607 250.044 243.666 246.079 243.158 241.818C242.809 238.944 243.969 236.442 246.419 234.759C246.987 234.365 247.769 234.509 248.155 235.085C248.55 235.654 248.398 236.434 247.829 236.821C246.138 237.981 245.395 239.566 245.638 241.522C246.085 245.229 247.784 248.702 250.56 251.56C251.045 252.061 251.644 252.402 252.334 252.576C252.713 252.675 253.153 252.713 253.555 252.72C253.745 252.72 253.919 252.713 254.086 252.69C254.776 252.629 255.383 253.13 255.451 253.812C255.519 254.502 255.011 255.109 254.329 255.177C254.079 255.2 253.806 255.215 253.525 255.215Z" fill="#020144"/>
<path d="M293.689 245.616C293.689 243.342 294.433 241.499 295.343 241.499C296.253 241.499 296.996 243.342 296.996 245.616C296.996 247.891 296.253 249.733 295.343 249.733C294.433 249.733 293.689 247.883 293.689 245.616Z" fill="#020144"/>
<path d="M295.35 250.977C293.355 250.977 292.445 248.194 292.445 245.609C292.445 243.023 293.355 240.241 295.35 240.241C297.345 240.241 298.255 243.023 298.255 245.609C298.255 248.194 297.345 250.977 295.35 250.977ZM295.35 243.137C295.145 243.637 294.948 244.502 294.948 245.609C294.948 246.716 295.153 247.58 295.35 248.08C295.555 247.58 295.752 246.716 295.752 245.609C295.752 244.502 295.547 243.645 295.35 243.137Z" fill="#020144"/>
<path d="M267.903 245.616C267.903 243.342 268.647 241.499 269.557 241.499C270.467 241.499 271.21 243.342 271.21 245.616C271.21 247.891 270.467 249.733 269.557 249.733C268.647 249.733 267.903 247.883 267.903 245.616Z" fill="#020144"/>
<path d="M269.557 250.977C267.562 250.977 266.652 248.194 266.652 245.609C266.652 243.023 267.562 240.241 269.557 240.241C271.552 240.241 272.462 243.023 272.462 245.609C272.462 248.194 271.559 250.977 269.557 250.977ZM269.838 248.558H269.845H269.838ZM269.557 243.137C269.352 243.637 269.155 244.494 269.155 245.609C269.155 246.723 269.36 247.58 269.557 248.08C269.762 247.58 269.959 246.716 269.959 245.609C269.967 244.502 269.762 243.645 269.557 243.137Z" fill="#020144"/>
<path d="M284.194 262.342C283.694 262.342 283.231 262.046 283.034 261.553C282.776 260.909 283.095 260.189 283.732 259.931C283.906 259.855 285.59 259.066 285.613 256.655C285.658 251.795 283.959 242.348 283.944 242.257C283.823 241.575 284.27 240.931 284.953 240.802C285.635 240.673 286.28 241.128 286.409 241.81C286.477 242.204 288.168 251.583 288.123 256.678C288.077 260.848 284.801 262.198 284.665 262.251C284.505 262.312 284.346 262.342 284.194 262.342Z" fill="#020144"/>
<path d="M284.468 269.636C283.664 269.636 282.792 269.552 281.866 269.385C279.06 268.885 276.618 267.808 276.52 267.763C275.89 267.482 275.609 266.739 275.89 266.11C276.171 265.481 276.914 265.2 277.543 265.481C277.566 265.488 279.811 266.482 282.306 266.921C283.231 267.088 284.073 267.156 284.816 267.126C287.941 266.997 290.58 265.056 290.603 265.041C291.157 264.632 291.938 264.738 292.355 265.291C292.772 265.845 292.658 266.626 292.112 267.035C291.983 267.134 288.851 269.461 284.923 269.621C284.763 269.628 284.612 269.636 284.468 269.636Z" fill="#020144"/>
<path d="M384.243 457C384.19 457 384.145 457 384.091 456.992L330.351 450.495C329.668 450.411 329.175 449.79 329.259 449.107C329.342 448.425 329.957 447.924 330.647 448.015L384.236 454.49C385.32 454.346 392.987 453.171 397.348 447.818L397.728 447.363C399.988 444.641 403.764 440.092 401.391 429.66C393.776 396.125 362.818 337.941 345.261 318.994C343.183 316.75 337.268 314.149 331.178 311.662C329.881 311.131 328.546 310.593 327.196 310.055C317.208 306.044 306.878 301.897 302.904 297.158C297.739 291.001 297.436 280.319 297.709 274.503C297.739 273.813 298.339 273.283 299.014 273.313C299.704 273.343 300.235 273.935 300.204 274.617C299.946 280.068 300.197 290.046 304.815 295.551C308.388 299.804 318.869 304.02 328.121 307.735C329.471 308.281 330.814 308.811 332.118 309.35C339.672 312.428 344.806 314.831 347.089 317.296C364.836 336.455 396.135 395.238 403.818 429.106C406.457 440.737 402.02 446.09 399.639 448.963L399.275 449.403C393.935 455.954 384.736 456.962 384.349 457C384.327 457 384.289 457 384.243 457Z" fill="#020144"/>
<path d="M332.891 424.299C332.376 424.299 331.898 423.981 331.716 423.465C331.488 422.813 331.822 422.1 332.474 421.865C332.649 421.805 349.94 415.686 364.76 413.495C380.079 411.22 387.527 418.507 387.83 418.817C388.316 419.31 388.316 420.099 387.823 420.584C387.337 421.069 386.548 421.069 386.056 420.584C385.965 420.493 379.093 413.897 365.116 415.967C350.539 418.128 333.475 424.163 333.301 424.223C333.172 424.276 333.028 424.299 332.891 424.299Z" fill="#020144"/>
<path d="M228.322 424.299C228.186 424.299 228.042 424.276 227.905 424.223C227.731 424.163 210.667 418.128 196.09 415.967C182.09 413.889 175.219 420.516 175.151 420.584C174.665 421.069 173.869 421.069 173.384 420.584C172.898 420.099 172.898 419.31 173.384 418.825C173.695 418.514 181.142 411.228 196.454 413.503C211.273 415.701 228.565 421.812 228.739 421.873C229.392 422.108 229.733 422.821 229.498 423.473C229.316 423.981 228.838 424.299 228.322 424.299Z" fill="#020144"/>
<path d="M179.004 457C178.958 457 178.92 457 178.875 456.992C178.488 456.954 169.296 455.946 163.949 449.395L163.585 448.956C161.462 446.393 157.503 441.624 158.883 431.942C159.012 431.024 159.194 430.069 159.414 429.098C160.453 424.519 161.955 419.348 163.874 413.738C176.084 378.012 201.999 332.558 216.143 317.288C218.759 314.46 225.357 311.655 233.078 308.546L235.103 307.735C244.355 304.02 254.844 299.804 258.416 295.551C263.475 289.523 263.278 278.029 262.959 273.374C262.914 272.684 263.429 272.092 264.119 272.039C264.825 272.009 265.401 272.509 265.454 273.199C265.879 279.363 265.773 290.675 260.335 297.158C256.361 301.897 246.031 306.044 236.036 310.055L234.011 310.866C226.851 313.755 220.238 316.545 217.978 318.986C204.001 334.074 178.351 379.103 166.24 414.549C164.351 420.076 162.872 425.163 161.856 429.652C161.651 430.554 161.485 431.441 161.363 432.29C160.142 440.881 163.51 444.93 165.519 447.356L165.898 447.811C170.282 453.179 177.927 454.346 179.011 454.483L231.341 448.159C232.024 448.068 232.646 448.569 232.729 449.251C232.812 449.934 232.327 450.555 231.637 450.639L179.163 456.985C179.102 457 179.057 457 179.004 457Z" fill="#020144"/>
<path d="M284.46 331.982C283.846 331.982 283.239 331.967 282.632 331.944C262.595 331.019 241.117 316.795 232.813 310.722C232.259 310.313 232.138 309.532 232.54 308.978C232.949 308.417 233.73 308.296 234.284 308.705C242.407 314.642 263.384 328.555 282.746 329.449C302.138 330.352 322.881 315.817 330.897 309.524C331.436 309.1 332.224 309.191 332.649 309.736C333.074 310.282 332.983 311.063 332.437 311.488C324.451 317.751 304.133 331.982 284.46 331.982Z" fill="#020144"/>
<path d="M279.886 323.316C279.424 323.316 278.991 323.058 278.772 322.633L276.314 317.819C276.072 317.333 276.163 316.75 276.542 316.371L280.364 312.549C280.751 312.17 281.335 312.079 281.813 312.322L286.629 314.778C287.114 315.021 287.379 315.552 287.296 316.09L286.454 321.428C286.371 321.966 285.954 322.383 285.415 322.466L280.076 323.316C280.015 323.308 279.947 323.316 279.886 323.316ZM278.954 317.493L280.584 320.692L284.126 320.131L284.687 316.59L281.487 314.96L278.954 317.493Z" fill="#5DB9F5"/>
<path d="M308.319 256.564C308.319 255.01 309.578 253.752 311.133 253.752C312.688 253.752 313.947 255.01 313.947 256.564C313.947 258.119 312.688 259.377 311.133 259.377C309.578 259.385 308.319 258.126 308.319 256.564Z" fill="#5DB9F5"/>
<path d="M311.133 260.636C308.889 260.636 307.068 258.809 307.068 256.572C307.068 254.335 308.896 252.508 311.133 252.508C313.371 252.508 315.198 254.335 315.198 256.572C315.198 258.809 313.378 260.636 311.133 260.636ZM311.133 255.003C310.269 255.003 309.563 255.708 309.563 256.564C309.563 257.421 310.269 258.134 311.133 258.134C311.998 258.134 312.703 257.429 312.703 256.564C312.703 255.7 311.998 255.003 311.133 255.003Z" fill="#5DB9F5"/>
<path d="M249.664 256.564C249.664 255.01 250.923 253.752 252.478 253.752C254.032 253.752 255.291 255.01 255.291 256.564C255.291 258.119 254.032 259.377 252.478 259.377C250.923 259.385 249.664 258.126 249.664 256.564Z" fill="#5DB9F5"/>
<path d="M252.478 260.636C250.233 260.636 248.413 258.809 248.413 256.572C248.413 254.335 250.233 252.508 252.478 252.508C254.723 252.508 256.543 254.335 256.543 256.572C256.543 258.809 254.715 260.636 252.478 260.636ZM252.478 255.003C251.614 255.003 250.916 255.708 250.916 256.564C250.916 257.421 251.621 258.134 252.478 258.134C253.343 258.134 254.048 257.429 254.048 256.564C254.048 255.7 253.343 255.003 252.478 255.003Z" fill="#5DB9F5"/>
<path d="M339.444 422.146C339.346 422.146 339.247 422.138 339.149 422.108C338.481 421.949 338.064 421.274 338.223 420.599L345.542 390.234C345.663 389.726 346.088 389.347 346.611 389.286C347.127 389.225 347.635 389.491 347.87 389.961L360.68 415.102C360.991 415.716 360.748 416.467 360.134 416.786C359.519 417.096 358.769 416.854 358.45 416.24L347.18 394.116L340.658 421.191C340.521 421.759 340.013 422.146 339.444 422.146Z" fill="#020144"/>
<path d="M221.77 422.146C221.209 422.146 220.693 421.759 220.557 421.191L214.034 394.116L202.764 416.24C202.453 416.854 201.703 417.096 201.081 416.786C200.466 416.475 200.224 415.716 200.535 415.102L213.344 389.961C213.579 389.491 214.08 389.225 214.603 389.286C215.126 389.347 215.551 389.726 215.672 390.234L222.991 420.599C223.15 421.266 222.741 421.941 222.066 422.108C221.967 422.131 221.869 422.146 221.77 422.146Z" fill="#020144"/>
<path d="M354.9 406.959C354.605 406.959 354.309 406.853 354.074 406.641C353.558 406.186 353.512 405.39 353.967 404.874C368.347 388.672 390.833 393.555 391.053 393.608C391.728 393.759 392.146 394.426 391.994 395.101C391.842 395.776 391.175 396.201 390.5 396.041C390.287 395.996 369.219 391.454 355.833 406.527C355.583 406.815 355.242 406.959 354.9 406.959Z" fill="#020144"/>
<path d="M206.845 406.959C206.504 406.959 206.155 406.815 205.912 406.542C194.566 393.759 177.745 395.071 172.861 395.768C172.178 395.875 171.541 395.397 171.443 394.707C171.344 394.025 171.814 393.388 172.505 393.289C177.7 392.539 195.606 391.159 207.778 404.874C208.233 405.39 208.187 406.178 207.672 406.641C207.437 406.853 207.141 406.959 206.845 406.959Z" fill="#020144"/>
</svg>
