<svg version="1.2" xmlns="http://www.w3.org/2000/svg" viewBox="0 0 433 403" width="433" height="403">
	<title>Slice 1-svg</title>
	<defs>
		<clipPath clipPathUnits="userSpaceOnUse" id="cp1">
			<path d="m53 80h296v274.46h-296z"/>
		</clipPath>
	</defs>
	<style>
		.s0 { fill: none;stroke: #5cba9e;stroke-linecap: round;stroke-linejoin: round;stroke-width: .9 } 
		.s1 { fill: none;stroke: #5cba9e;stroke-dasharray: 6 } 
		.s2 { opacity: .2;fill: none;stroke: #020144;stroke-width: .9;stroke-dasharray: 8.5551 } 
		.s3 { fill: none;stroke: #bee3d8;stroke-width: 11.1 } 
		.s4 { fill: none;stroke: #bee3d8;stroke-width: 11.3 } 
		.s5 { fill: none;stroke: #5cba9e;stroke-width: 2;stroke-dasharray: 1.95349 } 
		.s6 { opacity: .4;fill: #5cba9e } 
		.s7 { fill: none;stroke: #020144;stroke-linecap: round;stroke-linejoin: round;stroke-width: 1.6 } 
		.s8 { fill: none;stroke: #5cba9e;stroke-linecap: round;stroke-linejoin: round;stroke-width: 1.6 } 
		.s9 { fill: #5cba9e;stroke: #020144;stroke-linecap: round;stroke-linejoin: round;stroke-width: 1.6 } 
		.s10 { fill: #020144 } 
		.s11 { fill: none;stroke: #020144;stroke-linecap: round;stroke-linejoin: round;stroke-width: 1.4 } 
		.s12 { fill: #5cba9e } 
		.s13 { fill: none;stroke: #020144;stroke-linecap: round;stroke-linejoin: round;stroke-width: 1.3 } 
		.s14 { fill: #5cba9e;stroke: #020144;stroke-linecap: round;stroke-linejoin: round;stroke-width: 1.4 } 
		.s15 { fill: #020144;stroke: #020144;stroke-linecap: round;stroke-linejoin: round;stroke-width: 1.4 } 
		.s16 { fill: none;stroke: #5cba9e;stroke-linecap: round;stroke-linejoin: round;stroke-width: 2.9 } 
		.s17 { fill: none;stroke: #5cba9e;stroke-linecap: round;stroke-linejoin: round;stroke-width: 1.4 } 
		.s18 { fill: none;stroke: #020144;stroke-linecap: round;stroke-linejoin: round;stroke-width: 1.2 } 
		.s19 { fill: none;stroke: #bee3d8;stroke-width: 12.5 } 
	</style>
	<path id="Layer" class="s0" d="m349 400.6q-13.2-3.7-19.6-15.4c-6.4-11.8-2.6-17.2 3.8-22.3 6.5-5.2 14.5-2.6 15.2 1.6 0.7 4.3-5.7 19.6-54.4-4.1"/>
	<path id="Layer" class="s1" d="m58 85.5c-13.5 0-24.5-11-24.5-24.5 0-13.5 11-24.5 24.5-24.5 13.5 0 24.5 11 24.5 24.5 0 13.5-11 24.5-24.5 24.5z"/>
	<path id="Layer" class="s2" d="m75 40.8c0 0 33.9-37.8 53.5-22.2 34.8 27.7 14.6 129.1 53.2 142.2 32.6 10.9 90.3-54.1 90.3-54.1 0 0 44.1-88.1 91.3-103.6 37.2-12.3 67.6 33.8 84.1 49.2 46.7 43.5 69.1-63.7 116.9-39.8 57.4 28.7 86.7 148.3 86.7 148.3"/>
	<path id="Layer" class="s3" d="m326.5 38.5c-8.8 0-16-7.2-16-16 0-8.8 7.2-16 16-16 8.8 0 16 7.2 16 16 0 8.8-7.2 16-16 16z"/>
	<path id="Layer" class="s4" d="m147.5 50.3c-6 0-10.8-4.8-10.8-10.8 0-6 4.8-10.8 10.8-10.8 6 0 10.8 4.8 10.8 10.8 0 6-4.8 10.8-10.8 10.8z"/>
	<path id="Layer" class="s5" d="m38 402c-20.5 0-37-16.5-37-37 0-20.5 16.5-37 37-37 20.5 0 37 16.5 37 37 0 20.5-16.5 37-37 37z"/>
	<g id="Clip-Path" clip-path="url(#cp1)">
		<g id="Layer">
			<path id="Layer" fill-rule="evenodd" class="s6" d="m332.5 234.1q-0.7 6.7-2 13.2c-9.4 46-42.3 83.4-85.4 99.1l-3.5-12.8h16.9v-81.5h-31.4c10.4-8.6 17.1-21.5 17.1-36.1 0-25.7-20.8-46.5-46.4-46.5-25.6 0-46.4 20.8-46.4 46.5 0 14.6 6.6 27.5 17 36.1h-26.9v81.5h16.1l-3.5 12.8c-42.7-15.5-75.3-52.3-85.1-97.6l51.9-4.1-6.7-85.9-34.7 2.7c21.7-44.6 67.3-75.3 120.1-75.3 16.5 0 32.4 3 47 8.5l-16.1-2.8-12.8 74.6 53.2 9.2 10.6-61.4c21.9 17.1 38.4 40.9 46.4 68.4q0.5 1.8 1 3.6l-69.9 9.6 6.5 47.4zm-59-0.3l-2.2-16.3 4.3-0.6 2.2 16.3zm7.6-1l-1.6-12 4.3-0.6 1.7 12zm15.2-2.1l-1.4-9.9 4.4-0.6 1.3 9.9zm-7.6 1l-2.2-16.2 4.3-0.6 2.2 16.2zm22.9-3.1l-3.3-23.9 4.3-0.6 3.3 23.9zm-7.6 1.1l-2.3-16.3 4.4-0.6 2.2 16.3z"/>
			<path id="Layer" class="s7" d="m166 276.4h18.8"/>
			<path id="Layer" class="s7" d="m166 280.6h18.8"/>
			<path id="Layer" class="s8" d="m166 285.5h29.6"/>
			<path id="Layer" class="s8" d="m166 290h14.8"/>
			<path id="Layer" class="s7" d="m166 300.5h36.9"/>
			<path id="Layer" class="s7" d="m166 305.3h67.3"/>
			<path id="Layer" class="s7" d="m166 310h54"/>
			<path id="Layer" class="s7" d="m166 314.8h59.1"/>
			<path id="Layer" class="s7" d="m258.5 252.1h-117v81.5h117z"/>
			<path id="Layer" class="s9" d="m258.5 322.2h-117v11.4h117z"/>
			<path id="Layer" class="s9" d="m258.5 252.1h-117v4.6h117z"/>
			<path id="Layer" class="s7" d="m241.3 270.2h-82.6v52h82.6z"/>
			<path id="Layer" fill-rule="evenodd" class="s10" d="m225 288.3c-3.1-0.2-5.7-2.8-5.7-6 0-3.2 2.6-5.8 5.7-5.9h9.6v2.6h-4.4q0.6 0.9 0.9 2h3.5v2.6h-3.5q-0.3 1.2-0.9 2.1h4.4v2.6h-9.6zm0.3-2.6c1.4 0 2.6-0.9 3.1-2.1q0.2-0.6 0.2-1.3 0-0.7-0.2-1.3c-0.5-1.2-1.7-2-3.1-2-1.9 0-3.4 1.5-3.4 3.3 0 1.9 1.5 3.4 3.4 3.4z"/>
			<path id="Layer" class="s7" d="m216.8 333.6h-33.6v16.8h33.6z"/>
			<path id="Layer" class="s10" d="m216.8 333.6h-33.6v4.8h33.6z"/>
			<path id="Layer" class="s7" d="m230.5 350.4h-61v4.4h61z"/>
			<path id="Layer" class="s11" d="m114.2 158.8l-61.4 4.8 6.8 85.9 61.3-4.8z"/>
			<path id="Layer" fill-rule="evenodd" class="s10" d="m84.4 195.8c-2.9 0.1-5.4-2.1-5.6-5.1-0.3-2.9 1.9-5.5 4.7-5.8l8.9-0.7 0.1 2.4-4 0.3q0.6 0.8 0.9 1.8l3.3-0.3 0.2 2.4-3.3 0.3q-0.1 1-0.6 1.9l4-0.3 0.2 2.4-8.8 0.7zm0.1-2.4c1.2-0.1 2.3-1 2.6-2.1q0.2-0.6 0.2-1.2-0.1-0.7-0.3-1.2c-0.6-1.1-1.8-1.8-3-1.7-1.7 0.2-3 1.7-2.8 3.4 0.1 1.6 1.6 2.9 3.3 2.8z"/>
			<path id="Layer" fill-rule="evenodd" class="s12" d="m71.8 209.6l-1.3 0.1 1.5-5.8 1.6-0.1 2.3 5.5-1.2 0.1-0.6-1.3h0.5v-0.9h-0.8l-0.9-2.1-0.6 2.2-0.8 0.1 0.1 0.9h0.5zm0.3-1.3l0.3-1 1.4-0.1 0.4 0.9zm8.7-5.1l0.5 5.7-1.1 0.1-2.7-3.4 0.3 3.5-1.2 0.1-0.5-5.6 1.1-0.1 2.7 3.4-0.3-3.6zm5.7-0.4l0.5 5.6-1 0.1-2.8-3.3 0.3 3.5-1.2 0.1-0.5-5.6 1.1-0.1 2.7 3.3-0.2-3.5zm4.4-0.4l1.2-0.1 0.3 3.7q0 0.6-0.2 1.1-0.3 0.5-0.8 0.8-0.5 0.3-1.2 0.3-0.7 0.1-1.2-0.1-0.6-0.2-0.9-0.7-0.3-0.4-0.4-1l-0.3-3.7 1.2-0.1 0.3 3.6q0 0.3 0.2 0.5 0.2 0.3 0.4 0.4 0.3 0.1 0.6 0.1 0.4 0 0.6-0.2 0.3-0.2 0.4-0.4 0.1-0.3 0.1-0.6zm3.6 5.4l-1.3 0.1 1.5-5.8 1.5-0.1 2.4 5.4-1.3 0.1-0.5-1.2h0.5l-0.1-1-0.8 0.1-0.8-2.1h-0.1l-0.5 2.2-0.8 0.1 0.1 0.9h0.5zm0.3-1.4l0.2-0.9 1.5-0.1 0.3 0.9zm4.5 0.9l-0.4-5.6 1.2-0.1 0.4 4.6 2.4-0.1v0.9z"/>
			<path id="Layer" fill-rule="evenodd" class="s12" d="m72.2 217.7l-0.4-5.6 2.2-0.2q0.7 0 1.1 0.2 0.5 0.2 0.8 0.6 0.2 0.4 0.3 0.9 0 0.6-0.2 1-0.2 0.4-0.6 0.7-0.1 0-0.1 0l1.4 2.1-1.3 0.1-1.3-1.9-0.8 0.1 0.1 2zm1.1-2.1l-0.1-1h-0.5l0.1 1zm0.7-1q0.3 0 0.6-0.2 0.2-0.1 0.3-0.3 0.1-0.2 0.1-0.4-0.1-0.3-0.2-0.5-0.1-0.2-0.4-0.3-0.2-0.1-0.5 0h-0.8l0.1 1.7zm3.3 2.8l-0.4-5.7 3.8-0.3v1l-2.6 0.2 0.1 1.4 2.4-0.2 0.1 0.9-2.4 0.2 0.1 1.4 2.6-0.2 0.1 1zm4.7-0.4l-0.4-5.6 2.2-0.2q0.7-0.1 1.1 0.1 0.5 0.2 0.8 0.7 0.3 0.4 0.3 0.9 0 0.6-0.2 1-0.2 0.5-0.6 0.8-0.5 0.2-1.1 0.3l-1 0.1 0.1 1.8zm1.1-1.9l-0.1-1-0.4 0.1 0.1 0.9zm0.7-1q0.3 0 0.6-0.2 0.2-0.1 0.3-0.3 0.1-0.3 0-0.5 0-0.3-0.1-0.5-0.1-0.2-0.4-0.3-0.2-0.1-0.5-0.1l-0.9 0.1 0.2 1.9zm8.2-0.7q0.1 0.9-0.2 1.6-0.3 0.6-0.9 1-0.6 0.4-1.3 0.5-0.8 0-1.4-0.3-0.6-0.3-1-0.9-0.4-0.6-0.5-1.5-0.1-0.9 0.2-1.6 0.3-0.7 0.9-1.1 0.6-0.3 1.3-0.4 0.8-0.1 1.4 0.2 0.6 0.3 1 0.9 0.4 0.7 0.5 1.6zm-1.2 0.1q-0.1-0.6-0.3-1-0.2-0.4-0.5-0.6-0.4-0.2-0.8-0.2-0.4 0.1-0.7 0.3-0.3 0.3-0.5 0.7-0.1 0.4-0.1 1 0.1 0.6 0.3 1 0.2 0.4 0.5 0.6 0.4 0.2 0.8 0.1 0.4 0 0.7-0.2 0.3-0.3 0.5-0.7 0.1-0.4 0.1-1zm2.3 2.6l-0.5-5.6 2.3-0.2q0.6 0 1.1 0.2 0.4 0.2 0.7 0.5 0.3 0.4 0.3 1 0.1 0.6-0.1 1-0.3 0.4-0.7 0.7 0 0 0 0l1.3 2.1-1.3 0.1-1.2-1.9h-0.9l0.2 2zm1-2.1l-0.1-0.9h-0.5l0.1 1zm0.8-1q0.3-0.1 0.5-0.2 0.2-0.1 0.3-0.3 0.1-0.2 0.1-0.5 0-0.2-0.2-0.4-0.1-0.2-0.3-0.3-0.2-0.1-0.6 0h-0.8l0.1 1.7zm2.8-1.9l-0.1-1 4.6-0.3 0.1 0.9-1.7 0.2 0.3 4.6-1.1 0.1-0.4-4.6z"/>
			<path id="Layer" class="s11" d="m70.7 226.4l35.6-2.8"/>
			<path id="Layer" class="s13" d="m74.5 230.7l28.7-2.2"/>
			<path id="Layer" class="s13" d="m75.8 235.3l26.8-2.1"/>
			<path id="Layer" class="s11" d="m121 244.7l-6-77.2 5.9-0.5 6.6 84.7-57.8 4.5-0.6-7.4z"/>
			<path id="Layer" fill-rule="evenodd" class="s10" d="m120.9 244.7l-6.1-77.2 3.3-0.3 6.4 81-49 3.8-0.3-3.7z"/>
			<path id="Layer" class="s11" d="m283.7 101.1l-53.2-9.2-12.8 74.6 53.2 9.2z"/>
			<path id="Layer" class="s11" d="m222 167.3l-0.7 4 53.3 9.2 12.8-74.6-4.4-0.8"/>
			<path id="Layer" fill-rule="evenodd" class="s14" d="m256.3 106.6c0.2-0.7-0.3-1.4-1.1-1.6l-18-3.1c-0.8-0.1-1.5 0.4-1.6 1.2l-3.1 18c-0.1 0.7 0.4 1.4 1.1 1.6l18.1 3.1c0.7 0.1 1.4-0.4 1.5-1.1z"/>
			<path id="Layer" fill-rule="evenodd" class="s14" d="m269.6 146c0.1-0.7-0.4-1.4-1.1-1.6l-18-3.1c-0.8-0.1-1.5 0.4-1.6 1.2l-3.1 18c-0.2 0.7 0.3 1.5 1.1 1.6l18 3.1c0.8 0.1 1.5-0.4 1.6-1.1z"/>
			<path id="Layer" class="s11" d="m234.4 122.8c1.5-3.7 5.4-5.8 9.4-5.2 3.9 0.7 6.9 4.1 7.1 8"/>
			<path id="Layer" class="s11" d="m247.6 162.2c1.6-3.7 5.5-5.8 9.4-5.2 4 0.7 7 4.1 7.2 8.1"/>
			<path id="Layer" class="s11" d="m262.1 117.6l9.9 1.7"/>
			<path id="Layer" class="s11" d="m232 149.3l9.9 1.7"/>
			<path id="Layer" class="s11" d="m261.3 122.5l13.5 2.3"/>
			<path id="Layer" class="s11" d="m227.5 153.5l13.6 2.3"/>
			<path id="Layer" class="s11" d="m260.5 127.3l9.9 1.7"/>
			<path id="Layer" class="s11" d="m230.3 158.9l9.9 1.7"/>
			<path id="Layer" fill-rule="evenodd" class="s15" d="m245.4 108.2c2.6 0.4 4.3 2.9 3.9 5.5-0.5 2.6-2.9 4.4-5.5 3.9-2.6-0.4-4.4-2.9-3.9-5.5 0.4-2.6 2.9-4.3 5.5-3.9z"/>
			<path id="Layer" fill-rule="evenodd" class="s15" d="m258.7 147.6c2.6 0.5 4.3 2.9 3.9 5.5-0.5 2.6-3 4.4-5.6 3.9-2.6-0.4-4.3-2.9-3.9-5.5 0.5-2.6 3-4.3 5.6-3.9z"/>
			<path id="Layer" class="s12" d="m199.6 112c8.8 0 15.9-7.1 15.9-15.9 0-8.8-7.1-16-15.9-16-8.8 0-15.9 7.2-15.9 16 0 8.8 7.1 15.9 15.9 15.9z"/>
			<path id="Layer" class="s12" d="m173.8 205.3c10 0 18-8.1 18-18 0-10-8-18-18-18-9.9 0-18 8-18 18 0 9.9 8.1 18 18 18z"/>
			<path id="Layer" class="s12" d="m314.8 159.9c3.6 0 6.5-2.8 6.5-6.4 0-3.5-2.9-6.4-6.5-6.4-3.5 0-6.4 2.9-6.4 6.4 0 3.6 2.9 6.4 6.4 6.4z"/>
			<path id="Layer" class="s12" d="m342.5 238.9c3.5 0 6.4-2.9 6.4-6.5 0-3.5-2.9-6.4-6.4-6.4-3.6 0-6.4 2.9-6.4 6.4 0 3.6 2.8 6.5 6.4 6.5z"/>
			<path id="Layer" class="s12" d="m127.8 285.3c4.8 0 8.7-3.9 8.7-8.7 0-4.8-3.9-8.7-8.7-8.7-4.8 0-8.7 3.9-8.7 8.7 0 4.8 3.9 8.7 8.7 8.7z"/>
			<path id="Layer" class="s16" d="m99.1 307.9c8.6 0 15.6-7 15.6-15.7 0-8.6-7-15.6-15.6-15.6-8.7 0-15.7 7-15.7 15.6 0 8.7 7 15.7 15.7 15.7z"/>
			<path id="Layer" class="s16" d="m298.3 315.1c5.6 0 10.1-4.5 10.1-10.1 0-5.6-4.5-10.1-10.1-10.1-5.6 0-10.1 4.5-10.1 10.1 0 5.6 4.5 10.1 10.1 10.1z"/>
			<path id="Layer" class="s16" d="m290.8 305.7c4.8 0 8.6-3.8 8.6-8.5 0-4.8-3.8-8.6-8.6-8.6-4.7 0-8.5 3.8-8.5 8.6 0 4.7 3.8 8.5 8.5 8.5z"/>
			<path id="Layer" class="s16" d="m242.5 217.1c4.7 0 8.5-3.9 8.5-8.6 0-4.7-3.8-8.6-8.5-8.6-4.8 0-8.6 3.9-8.6 8.6 0 4.7 3.8 8.6 8.6 8.6z"/>
			<path id="Layer" class="s16" d="m129.3 147.1c4.7 0 8.6-3.9 8.6-8.6 0-4.7-3.9-8.6-8.6-8.6-4.7 0-8.6 3.9-8.6 8.6 0 4.7 3.9 8.6 8.6 8.6z"/>
			<path id="Layer" class="s17" d="m148.9 149c8.7 0 15.8-7.1 15.8-15.8 0-8.7-7.1-15.8-15.8-15.8-8.7 0-15.8 7.1-15.8 15.8 0 8.7 7.1 15.8 15.8 15.8z"/>
			<path id="Layer" class="s18" d="m197.3 95.5c3.2 0 5.8-1.2 5.8-2.6 0-1.5-2.6-2.6-5.8-2.6-3.2 0-5.8 1.1-5.8 2.6 0 1.4 2.6 2.6 5.8 2.6z"/>
			<path id="Layer" class="s18" d="m191.5 92.9v2.9c0 1.4 2.6 2.6 5.8 2.6 3.2 0 5.8-1.2 5.8-2.6v-2.9"/>
			<path id="Layer" class="s18" d="m195 95.3v2.9"/>
			<path id="Layer" class="s18" d="m203.1 93.8c2.6 0.2 4.6 1.3 4.6 2.6 0 1.4-2.6 2.6-5.8 2.6-1.4 0-2.7-0.3-3.7-0.6"/>
			<path id="Layer" class="s18" d="m196.1 98.3v1c0 1.4 2.6 2.6 5.8 2.6 3.2 0 5.8-1.2 5.8-2.6v-2.9"/>
			<path id="Layer" class="s18" d="m204.2 98.7v2.9"/>
			<path id="Layer" class="s18" d="m199.6 95.3v6.3"/>
			<path id="Layer" class="s18" d="m143.1 137.8v-8.1"/>
			<path id="Layer" class="s18" d="m154.7 129.7v8.1"/>
			<path id="Layer" class="s18" d="m146.6 133.7v1.2"/>
			<path id="Layer" class="s18" d="m148.9 133.2v1.7"/>
			<path id="Layer" class="s18" d="m151.2 132.6v2.3"/>
			<path id="Layer" class="s18" d="m155.8 128.5c0-0.6-0.5-1.1-1.1-1.1h-11.6c-0.7 0-1.2 0.5-1.2 1.1 0 0.7 0.5 1.2 1.2 1.2h11.6c0.6 0 1.1-0.5 1.1-1.2z"/>
			<path id="Layer" class="s18" d="m148.9 137.8v2.3"/>
			<path id="Layer" class="s18" d="m148.9 142.4c0.6 0 1.1-0.5 1.1-1.1 0-0.7-0.5-1.2-1.1-1.2-0.7 0-1.2 0.5-1.2 1.2 0 0.6 0.5 1.1 1.2 1.1z"/>
			<path id="Layer" class="s18" d="m141.9 137.8h13.9"/>
			<path id="Layer" class="s11" d="m168.4 185.8c0-0.7-0.6-1.3-1.4-1.3h-2.5c-0.8 0-1.4 0.6-1.4 1.3v2.9c0 0.8 0.6 1.4 1.4 1.4h2.5c0.8 0 1.4-0.6 1.4-1.4z"/>
			<path id="Layer" class="s11" d="m182 179.8c0-0.7-0.6-1.3-1.3-1.3h-3.4c-0.7 0-1.3 0.6-1.3 1.3v3.7c0 0.7 0.6 1.4 1.3 1.4h3.4c0.7 0 1.3-0.7 1.3-1.4z"/>
			<path id="Layer" class="s11" d="m182 191c0-0.7-0.6-1.3-1.3-1.3h-3.4c-0.7 0-1.3 0.6-1.3 1.3v3.7c0 0.8 0.6 1.4 1.3 1.4h3.4c0.7 0 1.3-0.6 1.3-1.4z"/>
			<path id="Layer" class="s11" d="m168.4 187.3h3.8"/>
			<path id="Layer" class="s11" d="m176 192.9h-1.5q0 0-0.1 0c-1.2 0-2.2-1.1-2.2-2.4q0 0 0 0v-6.4q0 0 0 0c0-1.4 1-2.4 2.2-2.4q0.1 0 0.1 0h1.5"/>
			<path id="Layer" class="s11" d="m336.5 181.5l-78 10.7 7 51.1 78-10.7z"/>
			<path id="Layer" fill-rule="evenodd" class="s10" d="m336.5 181.5l-78 10.7 0.5 3.7 78-10.7z"/>
			<path id="Layer" fill-rule="evenodd" class="s12" d="m275.6 217l-4.3 0.6 2.2 16.2 4.3-0.6z"/>
			<path id="Layer" fill-rule="evenodd" class="s12" d="m283.8 220.3l-4.3 0.5 1.6 12 4.4-0.6z"/>
			<path id="Layer" fill-rule="evenodd" class="s12" d="m290.9 214.9l-4.4 0.6 2.2 16.2 4.4-0.5z"/>
			<path id="Layer" fill-rule="evenodd" class="s12" d="m299.3 220.2l-4.3 0.6 1.4 9.9 4.3-0.6z"/>
			<path id="Layer" fill-rule="evenodd" class="s12" d="m306.1 212.8l-4.4 0.6 2.3 16.3 4.3-0.6z"/>
			<path id="Layer" fill-rule="evenodd" class="s12" d="m312.6 204.1l-4.3 0.6 3.3 23.9 4.3-0.6z"/>
			<path id="Layer" class="s11" d="m270.3 234.3l49-6.7"/>
			<path id="Layer" class="s11" d="m269.2 226.1c0 0 4.5-0.6 7-0.9 1.2-0.2 2.3-0.6 3.3-1.2 1.7-0.9 4.4-2.5 6.5-3.7 2-1.2 4.4-1.7 6.8-1.5q1.1 0.1 2.3 0.2c4.6 0.5 8.9-1.8 11.1-5.9 1.4-2.4 2.8-5 3.8-6.8 0.7-1.3 1.7-2.5 2.8-3.4 1.3-1 2.8-2.2 2.8-2.2"/>
			<path id="Layer" fill-rule="evenodd" class="s10" d="m325.7 201.3c-2.3 0.2-4.4-1.5-4.8-3.8-0.3-2.3 1.3-4.5 3.6-4.9l7.1-1 0.2 1.9-3.2 0.5q0.5 0.6 0.8 1.4l2.6-0.4 0.3 1.9-2.6 0.4q-0.1 0.8-0.5 1.6l3.3-0.5 0.2 1.9-7 1zm-0.1-1.9c1.1-0.2 1.8-0.9 2.1-1.8q0.1-0.5 0.1-1-0.1-0.5-0.4-1c-0.5-0.8-1.4-1.3-2.4-1.1-1.4 0.1-2.3 1.4-2.1 2.7 0.1 1.4 1.4 2.3 2.7 2.2z"/>
		</g>
	</g>
	<path id="Layer" class="s19" d="m255 387.8c-10.4-0.1-18.8-8.4-18.8-18.8 0.1-10.4 8.4-18.8 18.8-18.8 10.4 0 18.8 8.4 18.8 18.8-0.1 10.4-8.4 18.7-18.8 18.7z"/>
</svg>