<svg version="1.2" xmlns="http://www.w3.org/2000/svg" viewBox="0 0 488 420" width="488" height="420">
	<title>05 Open Office - final-svg</title>
	<style>
		.s0 { fill: #d4d5fb } 
		.s1 { fill: #9395f6 } 
		.s2 { fill: none;stroke: #9395f6;stroke-linecap: round;stroke-linejoin: round;stroke-width: 4.4 } 
		.s3 { fill: none;stroke: #9395f6;stroke-linecap: round;stroke-linejoin: round;stroke-width: 2.2 } 
		.s4 { fill: none;stroke: #020144;stroke-linecap: round;stroke-linejoin: round;stroke-width: 2.2 } 
		.s5 { fill: #020144;stroke: #020144;stroke-linecap: round;stroke-linejoin: round;stroke-width: 2.2 } 
		.s6 { fill: #9395f6;stroke: #020144;stroke-linecap: round;stroke-linejoin: round;stroke-width: 2.2 } 
		.s7 { fill: none;stroke: #020144;stroke-linecap: round;stroke-linejoin: round;stroke-width: 2.1 } 
		.s8 { fill: #020144 } 
		.s9 { fill: none;stroke: #020144;stroke-linejoin: round;stroke-width: 2.2 } 
	</style>
	<path id="Layer" fill-rule="evenodd" class="s0" d="m256.7 144.3q-1.1 0-2.3 0c-29.2 0-54.5 17.6-65.7 42.7l-18.8 0.1-0.3 8.8-57.1-0.3c0 0-0.6-13-7.7-16.7-8-4 1.2-25.4-1.9-35.9-2.9-10-8.9-25.7-16.4-26.7-2.5-0.3-5.7 0.8-9.1 2.8q3.4-5.7 7-11.2l35.5 0.2 0.3-41.3c36.6-32.3 84.5-51.9 137.1-51.9 71.2 0 134.1 36 171.5 91l-3.6 3.1c0 0-9.4-19.9-18.4-19.9-9 0-36 19.9-36 19.9l6.4-48.7-2.7-0.1-7 47.5-17.1 5.2c0 0-6.6-9.1-11.6-9.6-6.8-0.6-23.7 7.7-23.7 7.7 0 0-10.5-13.7-16.5-17.4-1.9-1.3-6.8 0.1-6.8 0.1 0 0 1-4 2.6-4.9 1.9-1.2 6.9 0.4 8.4-1.9 1.7-2.5 0.8-10.1 1.5-13 0.3-1.6 3-2.9 2.2-4.4-1-1.9-5.6-2.7-8.1-6.9-1.2-2.1-0.8-7.1-0.8-7.1 0 0-30.7 4.2-37.4 7.4-3.7 1.7-0.8 9.9-2.9 11.7-2.1 1.8-9.8-1-9.8-1 0 0-4.3-3.6-12.6-49.2-0.8-4.6-5.5 18.2-5.2 27.5 1.3 38.2 14 73.3 27 92.4zm189.8-6.9c11.8 26.2 18.4 55.3 18.4 85.8 0 33.9-8.1 65.9-22.4 94.2-2.7-6.7-7.1-16.3-12.9-21.2-8.9-7.5-30.5-12.6-38.3-18.1-4.7-3.2-9.1-6.9-8.8-14.5 0.2-4.7-0.5-7.1-0.3-10.1 0.3-3.9 4.6-3.3 7.1-13.3 0.6-2.4-1.1-5.2-2.9-6.8-5.3-4.6-20.8-21.9-29.2-21.1-8.3 0.8-18.5 19.4-20.9 26-1.8 4.8 2.4 10 6.6 13.6 2 1.7 4.1 6.9 5.9 10.5 3.1 6.3 9.7 10 9.4 11-2.7 7.3-27.5 16.2-35.7 21.6-10.9 7.1-14.3 32.3-15.9 36.2-1.8 4-3.1-19.5-10-28.8l-6.2-23c21.6-12.6 36.1-36 36.1-62.7 0-10.4-2.2-20.3-6.1-29.2 15.8 3.9 31.1 4.6 36.1 4.9 41 2.1 73.1-30.6 90-55zm-256.5 111.7c6.6 13.3 17.3 24.3 30.4 31.3-1.4 1.7-3.4 3.5-6.2 5.4-6.5 4.5-19.9 9.6-26.1 17.5-6.2 7.9-9.2 19.4-11 29.9-2.8 15.8-11.6 61-5.5 64.9 5.7 3.6 9.1 4.7 19.9 3.1l-4.9 18c-72-26.1-125.5-91.2-135.3-169.8z"/>
	<path id="Layer" class="s1" d="m253 29.2c7.9 0 14.3-6.4 14.3-14.3 0-7.9-6.4-14.3-14.3-14.3-7.9 0-14.3 6.4-14.3 14.3 0 7.9 6.4 14.3 14.3 14.3z"/>
	<path id="Layer" class="s1" d="m454.9 141.3c5.5 0 10-4.5 10-10 0-5.5-4.5-10-10-10-5.5 0-10 4.5-10 10 0 5.5 4.5 10 10 10z"/>
	<path id="Layer" class="s1" d="m444.9 317.2c5.5 0 10-4.5 10-10 0-5.6-4.5-10-10-10-5.5 0-10 4.4-10 10 0 5.5 4.5 10 10 10z"/>
	<path id="Layer" class="s1" d="m138.6 320.4c7.5 0 13.5-6 13.5-13.5 0-7.5-6-13.5-13.5-13.5-7.5 0-13.5 6-13.5 13.5 0 7.5 6 13.5 13.5 13.5z"/>
	<path id="Layer" class="s2" d="m106 381.8c13.4 0 24.3-10.9 24.3-24.3 0-13.4-10.9-24.3-24.3-24.3-13.4 0-24.3 10.9-24.3 24.3 0 13.4 10.9 24.3 24.3 24.3z"/>
	<path id="Layer" class="s2" d="m469.5 281.4c8.7 0 15.7-7.1 15.7-15.7 0-8.7-7-15.7-15.7-15.7-8.7 0-15.7 7-15.7 15.7 0 8.6 7 15.7 15.7 15.7z"/>
	<path id="Layer" class="s2" d="m457.9 266.8c7.3 0 13.3-6 13.3-13.3 0-7.4-6-13.3-13.3-13.3-7.4 0-13.3 5.9-13.3 13.3 0 7.3 5.9 13.3 13.3 13.3z"/>
	<path id="Layer" class="s2" d="m158 61c7.4 0 13.4-6 13.4-13.3 0-7.4-6-13.3-13.4-13.3-7.3 0-13.3 5.9-13.3 13.3 0 7.3 6 13.3 13.3 13.3z"/>
	<path id="Layer" class="s3" d="m72.8 333.9q65.6-36.5 131.2-73.1"/>
	<path id="Layer" class="s3" d="m319.3 214.8q75 1.2 150.1 2.3"/>
	<path id="Layer" class="s3" d="m197.5 8q22.5 71.6 45.1 143.2"/>
	<path id="Layer" class="s1" d="m89.7 188.4c0.7 0.5 4.7-1.9 5.7-2.4 5.9-2.9 10.7-8.2 12.4-14.7 0.6-2.5 0.9-4.8 0.3-7.3-0.5-1.7-2.2-4.1-1.8-5.9 0.8-3.3 3.6-6 3.9-9.5 0.3-3-0.6-7-0.9-10.1-0.3-3.4 1.1-6.9 0.8-10.4-0.8-8.5-9.1-16.7-15.3-21.7-5.4-4.3-11.5-8.4-18.8-6.9-7.6 1.5-14.8 4.5-17.4 12.5-2.1 6-1.5 13-4.4 18.8-3.7 7.4-12.1 12.1-15.1 19.1-1 2.4-1.6 5.7-1.3 8.3 0.2 2 2 4.5 1.5 6.5-1.1 4.2-9.3 11.4-5.4 16.6 1.3 1.7 3.3 2 5.2 2 7.4 0 11.2-4.6 14.6-10.3 0.7-1 2.5-1.1 3.3-2 3.3-3.3 6.9-9.7 7.5-14.4 0.2-1.7-2.3-3.9-1.9-5.1 0.8-2.4 2.9-4.3 3.4-6.9 0.3-1.7-0.6-5.4 0.2-6.8 0.6-0.9 3.7-0.9 4.6-1.3 2.7-1 5.5-2.9 7.4-5 2.1-2.4 3.9-5.5 5.3-8.4 0.2-0.3 1.2-2.8 1.5-2.8 0.3 0 1.4 2.8 1.6 3.2 1.8 2.9 3.2 6.4 5.5 8.9 2.1 2.3 3.8 5.2 6.2 7.1 1 0.8 4.1 2.6 4.5 3.8 0.7 2-2.2 6.4-3 8.3-2.4 5.6-5 11.2-9.1 15.8-1.3 1.4-6.7 3.4-7 4-2.3 4.6 2.1 14.3 6 17z"/>
	<path id="Layer" class="s1" d="m42.1 233.2c2.9-3.6 5.4-7.4 7.2-11.6q0.1 0.5 0.2 0.6c0.6 1.6 2.5 3.4 3.9 4.5 1.9 1.5 4.1 2.4 6.5 2.5q0.1 0 0.2 0.1-0.4 1.5-1 2.9c-1.3 3.4-2.8 6.6-4.4 9.8-4.3-0.7-9.1-4.7-11.1-7.2-0.4-0.5-1-1-1.5-1.6z"/>
	<path id="Layer" class="s1" d="m51.9 197.9c-5.2-3.3-12.3-11.6-14.2-14.8l1.2 0.9c1.3 0 6.3-1.7 6.8-1.5 1.5 0.8 2.9 3.3 4.2 4.4q0.1 0.1 0.1 0.1c-0.3 2 0.9 5.6 1.2 6.8q0.4 2 0.7 4.1z"/>
	<path id="Layer" class="s1" d="m90.8 186c-0.8 2.7-2.8 6.6-5.4 8.2-0.6 0.4-3.8 1.4-4 2.3-0.1 0.6 2.5 2.3 2.9 2.6 3 1.5 5.3 1.3 7.8-1 3-2.8 5.3-10.3 4.7-14.4-0.5-2.5-5.7 1.2-6 2.3z"/>
	<path id="Layer" class="s1" d="m189 140.3c0.2-0.1 2.9-2.6 3.1-2.8 1.8-1.5 4.2-3 6.3-4.1 6.3-3.1 13.5-3.2 18.5-8.6 3.3-3.4-1.3-5.8-1.1-8.1 0-0.9 1-2.1 1.2-3 0.6-1.9 0.8-4.1 0.9-6.1 0.3-7.5-4.9-13.5-11.6-15.8-5.1-1.7-9.7 1.3-13.1 4.6-0.4 0.4-3 4.3-3.2 4.3-0.3 0-1.2-0.9-1.5-1-1.5-0.6-3.9-1-5.5-0.6-1.4 0.3-2.5 0.9-3.7 1.7-0.5 0.4-0.7 1.9-1.3 1.6-1.1-0.4-2.4-3-3.4-3.8-4-3.4-10.2-6.5-15.4-3.8-3.1 1.6-5.5 4.1-6.8 7.4-0.5 1.3-0.2 4.2-1 5.2-4.2 5.3-8.7 11.2-8.3 18.6 0.3 3.9 0.6 8 2 11.7 0.2 0.4 1.8 3.6 1.6 3.8-1.9 3-4 4.7-4.6 8.6-0.9 5.2 0.5 11.2 2.7 16 0.2 0.4 1.4 4.8 1.8 4.7 2.8-0.6 4.2-6 7-6.6 1.1-0.3 2 4.7 3.2 4.8 0 0 0.3-0.3 0.3-0.3 2.3-2.4 4.3-4.8 7.1-6.7 4-2.8 10.4-3.3 13.7-7 4-4.4 3.4-9.4 4.7-14.9 0.1-0.6 0.6-5 1.2-5.2 0.2 0 0.4 0.6 0.4 0.7 1 1.6 2 4.8 3.5 6"/>
	<path id="Layer" class="s1" d="m115 69.3c-6.3-10.4-14 2.3-20.3 3.7-5.5 1.3-7.5-9.3-12.6-5.8-7.1 5.1-2.3 17.9 3.8 21.2 3.8 2.1 7.5-0.2 10.9 0.8 3 0.9 2.7 7.1 9 6.8 5.2-0.3 7.7-7 6.9-11.4-0.2-1.7-1.8-3.5-1.5-5.3 0.4-1.9 1.9-3.2 3.1-4.7 1-1.2 0.8-2.8 0.7-4.2-0.1-0.4 0.4-0.4 0-1.1z"/>
	<path id="Layer" class="s1" d="m21.8 34.2v-7.2h27.2q0.4 0.4 0.7 0.9 0.3 0.2 0.6 0.7 1 1.5 1.5 3.1l-0.8-1.2c0.9 3.4 1.1 8.7 0.7 10.5-1.3 6.2-6.8 5.5-10.5 9.2-3.7 3.7 0.3 9.9-6.6 13.4-1.6 0.8-3.6 0.7-5.1-0.2-4.6-2.5-5.6-9.6-4.3-14.2 0.8-2.7 2.7-5.9 1.7-8.8-0.8-2.3-3.1-4.2-5.1-6.2z"/>
	<path id="Layer" class="s1" d="m64.6 45.9q0.1 0.1 0 0.2zm-3.4 21.5q-1.2 1.7-2.7 3c-4.1 3.7-15 9.7-20 4.6-1.3-1.3-0.9-3.9-0.2-5.4 2-3.8 6.6-5.1 8.8-8.7 2.7-4.4-0.9-9.8 4.6-13.1 2.6-1.5 6.2-2.7 9.3-2.6q0.1 0 0.2 0z"/>
	<path id="Layer" class="s1" d="m193.9 180.6c4.4 4.3 12.6 0 16-3.4 1.1-1 3.8-4.8 2.5-6.4-0.6-0.8-2.3-0.8-3.2-0.8-4.8-0.5-9.7 0.8-12.7 4.8-0.7 0.8-3.6 4.8-2.6 5.8z"/>
	<path id="Layer" class="s1" d="m230.9 167.5c1.2-4.4 1.3-8.7 2.7-13 2.3-7.5 7.6-16.9 3.6-24.6-3.2-6-11.8-7.3-16.9-2.8-1.8 1.6-2.7 3.5-3.1 5.9-0.1 0.2-0.1 0.5-0.4 0.6-1.6 0.3-3.2-0.4-4.8-0.3-4 0.3-7.8 2.5-8.8 6.5-2.7 9.9 7.2 20.2 15.5 24 1.6 0.8 11.7 5.9 12.2 3.7z"/>
	<path id="Layer" class="s4" d="m104 139.6q-0.3 1.4-0.8 3.2c-2.4 8.5-8.3 22.3-14.2 26.3-1.9 1.3-3.8 1.9-5.7 2-7.5 0.6-14.4-7.1-18.6-14.7-0.9-1.7-1.7-3.5-2.4-5.1"/>
	<path id="Layer" class="s4" d="m103.2 142.8c-6-2.6-11.5-10.7-14.7-15.8-1.1-1.8-2-3.9-2.7-5.9-0.4-0.9-0.7-1.8-0.9-2.7q0 0 0 0m0 0c0-0.1 0-0.2 0-0.2q0 0.1 0 0.2zm0 0c-0.1 2.4-2.5 5.2-3.7 7.2-3.9 6.7-8.4 11-15.2 12.4"/>
	<path id="Layer" class="s4" d="m90.3 144.8c0 3.1 0.6 7.8-2.1 10"/>
	<path id="Layer" class="s4" d="m74 100.9c2.3-2.7 7-2.2 10.1-1.4 8.3 2 14.9 8.7 19.9 15.3 3.5 4.6 7.2 10 7 16-0.1 2.8-2.3 5.2-2.1 8 0.1 3.7 1.8 6.9 1.2 10.8-0.3 1.9-4.3 8.4-4.2 9.2 0.1 0.1 1.1 1.3 1.2 1.6 0.9 1.8 1.3 4 1.4 6 0.1 4.9-1.3 9.1-3.7 12.5-2 2.8-4.6 5-7.6 6.8-2.2 1.3-4.7 2.3-7.3 3q-0.5 0.2-1 0.3"/>
	<path id="Layer" class="s4" d="m83.3 171.1c0.2 6 2.1 12.9 5.6 17.9q0.3 0.3 0.5 0.7"/>
	<path id="Layer" class="s4" d="m76.1 101.7q-1.1-0.5-2.1-0.8-2-0.4-3.9 0c-4.8 0.8-8.7 5.2-10.7 9.8-2.6 6.2-1.8 13.4-4.6 19.2-3.9 8.2-12.5 13-15.8 21.6-1 2.7-1.5 6-1 8.9 0.2 1.2 1.4 2.9 1.2 4.1-0.1 0.7-4.2 5.3-4.7 6.8-0.7 1.8-1.1 3.7-1.1 5.6-0.1 1.9 0.2 3.7 0.7 5.5"/>
	<path id="Layer" class="s4" d="m64.7 156.4c-1 5.4-4.2 11.7-7.5 14.7-1.1 1-3.6 1.4-4.4 2.5-1 1.2-0.8 3.4-2 4.9-1.5 1.7-3.3 3-5.3 3.7-2.5 1-5.2 1.2-7.9 0.9q-1.8-0.2-3.5-0.7"/>
	<path id="Layer" class="s4" d="m33.4 176.9c-2.7 0.8-5.2 1.6-7.5 3.8-6.2 5.8-6.9 15.9-8.3 23.8-2.6 14.6-4.3 29.7-5.7 44.5"/>
	<path id="Layer" class="s4" d="m26.8 249c2.2-1.9 4.3-4.2 6.4-6.1 8.7-8.4 17.3-18.7 18.9-31 0.8-5.8 0.3-12.4-0.9-18.1-0.4-1.5-2-6.4-0.8-7.8 1.6-1.9 3 2.9 3.3 3.7 0.7 2.1 0.5 4.8 1.7 6.8 0.5 0.7 1.8 1.2 2.5 1.9 1.8 2.1 2.1 6.5 1.3 8.9"/>
	<path id="Layer" class="s4" d="m53.3 181c3 2 3.7 8.6 3.7 11.9"/>
	<path id="Layer" class="s4" d="m55.8 177.4c3 4.5 4.3 9.1 4.3 14.6"/>
	<path id="Layer" class="s4" d="m51.2 249c2.8-5.5 5.6-10.9 7.9-16.8 2-4.9 2.6-10.3 4.4-15.2 0.7-1.9 2.8-3.5 3.9-5.2 1.3-1.8 1.9-3.9 2.6-6 1.1-3.7 2.3-7 4-10.4 0.4-0.8 1.4-2.4 0.4-3.1-3.4-2.6-5.6 10.6-8.4 7.8-2.2-2.2-1.4-7-1.8-9.7-0.7-5.3-2.5-11.5-6.4-15.4"/>
	<path id="Layer" class="s4" d="m89.9 188.7q-0.2 0.5-0.5 1c-1.9 3-5 5.2-8.5 6.6-2.6 1.1-5.5 1.6-8 1.5m-3.5-0.4q-2.4-0.4-4.8-1.3 0 0-0.1 0m-14.5-8.9c-1.7-1.6-3.2-3.2-4.5-5"/>
	<path id="Layer" class="s4" d="m97.2 185.7c-0.9 6.5-4.1 16-11.2 14.1-2-0.5-3.6-2-5.1-3.5"/>
	<path id="Layer" class="s4" d="m64.6 196.1q0 0.1-0.1 0.2m-12.6 1.6c-5.5-3-11-9.4-14.3-14.8"/>
	<path id="Layer" class="s4" d="m104.8 178.9c5.3 2.2 7 8.1 7.3 14.4"/>
	<path id="Layer" class="s4" d="m216.6 134.7c-4.5-1.6-10.3-1.5-12.6 2.5-1.1 2.1-1.6 4.2-1.5 6.4 0.1 2.7 1.1 5.4 2.5 7.9 3.2 5.6 8.7 10.4 13 12.7 3.9 2.1 8.4 3.8 12.9 4.6"/>
	<path id="Layer" class="s4" d="m216.6 134.7c0.7-10.9 15.9-15.1 21.8-2.7 2.8 6-2.1 13.7-4.1 19.2q-1.5 4.1-2.3 8.3-0.9 4.6-1.1 9.3"/>
	<path id="Layer" class="s4" d="m232 159.5c-1.5-3.3-3.4-6.6-5.6-9.6q-1.2-1.8-2.5-3.5-0.9-1.1-1.8-2.2"/>
	<path id="Layer" class="s4" d="m233.6 140.8c-2.7 2.7-5.1 5.9-7.2 9.1"/>
	<path id="Layer" class="s4" d="m229.8 138.8c-2.4 1.6-4.3 4.9-5.9 7.6"/>
	<path id="Layer" class="s4" d="m205.3 115.5c1-1 2.2-1.5 3.5-1.6 2.4-0.3 5.1 0.8 6.9 2.5 2.5 2.4 3.5 6 0.4 9.5-3.4 3.7-9.4 4.6-13.9 6.4-5.2 2.1-10.3 5.3-14.6 9.1"/>
	<path id="Layer" class="s4" d="m208.8 113.9c-1-2.3-3-3.9-5.3-5.1q-0.6-0.3-1.2-0.6c-5.1-2.2-11.4-2-16.2 0.7-2.6 1.5-4.8 3.7-6.1 6.7-2.9 6.6 1.1 13.4 4.4 19.3q0.5 1 1 2 1.2 2.2 2.2 4.5"/>
	<path id="Layer" class="s4" d="m199.2 117.5c-3.1 1.1-5.7 3.1-7.9 5.5q-1.8 2-3.2 4.3c-1.5 2.4-2.8 5-3.7 7.6-1.3 3.3-2.2 6.7-2.7 9.8"/>
	<path id="Layer" class="s4" d="m189.6 116.4c0 3.5 1.8 7.2 3.5 10.2"/>
	<path id="Layer" class="s4" d="m186.1 120.1c0 3.4 2 8 4.1 10.8"/>
	<path id="Layer" class="s4" d="m215.7 116.4c0.8-1.5 1.5-3.2 1.6-3.4 1.7-3.9 1-9.5-0.7-13.2-1-2.2-2.4-3.8-4.3-5.3-12.8-10.3-22 3.4-26.2 14.4"/>
	<path id="Layer" class="s4" d="m201.7 98.9c1 2.5 1.3 6.2 0.6 9.3"/>
	<path id="Layer" class="s4" d="m205.6 98.1c1.4 2.2 1 7.5 0.7 9.5"/>
	<path id="Layer" class="s4" d="m177.8 103.8c0-1.9-3.1-5-4-6-3.4-4.1-11-6-15.8-3.4-8.3 4.6-7.7 16-5.5 23.7"/>
	<path id="Layer" class="s4" d="m151.1 107.9c-4.4 2.3-6.6 7.8-7.5 12.4-1.6 7.5-0.3 15.4 3.6 22 1.6 2.7 3.7 5.2 6.1 7.3"/>
	<path id="Layer" class="s4" d="m170.5 131.8c-2.4 1.2-4.9 2-7.2 3.5-4.8 3.2-8.4 8.5-10 14.3-1 3.9-1.2 8-0.2 11.8q0.4 1.5 1 2.9c0.7 1.9 1.7 3.7 2.7 5.4"/>
	<path id="Layer" class="s4" d="m176.7 136.3c1.7 0.5 2.7 2.8 3.5 4 0.8 1.4 1.3 2.9 1.5 4.4 0.4 2.9-0.2 6-1.7 8.4-2.2 3.6-6.7 5.1-10.3 6.7-5 2.3-10.2 5.3-12.9 9.9"/>
	<path id="Layer" class="s4" d="m180.2 134.7c-8.1 1.7-13.8 13-16.6 19.8"/>
	<path id="Layer" class="s4" d="m170.9 141.4c0.6 3.3 2.1 6.6 3.2 9.6"/>
	<path id="Layer" class="s4" d="m168.1 145.5c0.6 2.9 1.9 5.9 3.1 8.3"/>
	<path id="Layer" class="s4" d="m165.2 151c-2.1 0.3-4.7 0.8-5.9 1"/>
	<path id="Layer" class="s4" d="m147.2 142.3c-10 5-5 21.1-0.5 28.5"/>
	<path id="Layer" class="s4" d="m154.1 164.3q-0.5 0.4-1 0.8c-1.8 1.7-4.4 3.7-6.4 5.7"/>
	<path id="Layer" class="s4" d="m202.5 143.6c-6.1 2-10.5 7.8-13.6 13.2-5.3 9.3-7.7 19.7-8 30.2"/>
	<path id="Layer" class="s4" d="m205 151.5q-0.6 0.3-1.1 0.6c-11.9 6.1-15.7 21.7-16 34.9"/>
	<path id="Layer" class="s4" d="m174.2 163.3c1.8 5.8 2.4 12 2.6 18"/>
	<path id="Layer" class="s4" d="m174.2 116.5c-12.1-0.5-21 11.1-24.8 21.1"/>
	<path id="Layer" class="s4" d="m168.7 108.4c-2.4 3.5-3.6 6.4-4 10.3"/>
	<path id="Layer" class="s4" d="m161.9 110.9c-1.4 3.5-1.9 7.1-1.7 10.8"/>
	<path id="Layer" class="s4" d="m197.5 187h-27.4v62h27.4z"/>
	<path id="Layer" class="s4" d="m213.1 171.2c-5.8-2.8-12.9-1.2-16.9 4.1-1.4 1.7-2.1 3.7-2.5 5.7 5.8 2.8 12.9 1.2 16.9-4.1 1.3-1.7 2.1-3.7 2.5-5.7z"/>
	<path id="Layer" class="s4" d="m170.1 208.7l-12.6 36.4h-72.8l17.1-49.5h68.3"/>
	<path id="Layer" class="s4" d="m157.4 245.1h-91.9v3.9h91.9z"/>
	<path id="Layer" class="s4" d="m157.4 245.1h-72.4v3.9h72.4z"/>
	<path id="Layer" class="s4" d="m131.3 222.4c0.5-2.1 2.3-3.5 4-3.1 1.6 0.4 2.6 2.4 2.2 4.5-0.5 2.1-2.3 3.5-3.9 3.1-1.7-0.3-2.7-2.4-2.3-4.5z"/>
	<path id="Layer" class="s4" d="m73.5 97.4v-54.3h46.2v65h-21.6"/>
	<path id="Layer" class="s4" d="m64.6 21.3h-46.2v64.9h46.2z"/>
	<path id="Layer" class="s4" d="m76.9 95v-46.1h39.4v53.4h-19.8"/>
	<path id="Layer" class="s4" d="m61.2 27h-39.4v53.5h39.4z"/>
	<path id="Layer" class="s5" d="m94 146.2c0.3-1.1 1-1.9 1.6-1.8 0.6 0.1 1 1.1 0.7 2.3-0.2 1.1-0.9 1.9-1.6 1.8-0.6-0.2-0.9-1.2-0.7-2.3z"/>
	<path id="Layer" class="s5" d="m81.1 144.8c0.3-1.1 1-1.9 1.6-1.8 0.6 0.1 1 1.2 0.7 2.3-0.2 1.1-0.9 1.9-1.6 1.8-0.6-0.2-0.9-1.2-0.7-2.3z"/>
	<path id="Layer" class="s4" d="m89.4 159.8c-2.9 1.8-7.9 0.5-10.4-1.6"/>
	<path id="Layer" class="s4" d="m50.7 141.6c0.4-5.8 4.3-10.3 8.6-10 4.4 0.3 7.6 5.3 7.2 11.1-0.4 5.8-4.3 10.3-8.6 10-4.4-0.3-7.6-5.3-7.2-11.1z"/>
	<path id="Layer" class="s4" d="m96.6 106.4c1.9-7.8-8.6-13.2-14.8-12.8-3.6 0.2-6.8 2.3-9.4 4.7q-1.3 1.3-2.3 2.6c-5.9 7-7.8 15.8-9.2 24.9-0.3 1.9-0.5 3.9-0.7 5.9"/>
	<path id="Layer" class="s4" d="m174.7 249h-172.9"/>
	<path id="Layer" class="s1" d="m382.8 100.2c0.4 1.9 0.3 3.8-0.5 5.6-0.6 1.3-2 0.9-2.9 1.8-1.3 1-3.3 6.8-5.4 2.9q-0.7-1.3-1-2.8c3.2-2.6 6.5-5.2 9.8-7.5z"/>
	<path id="Layer" class="s1" d="m390.6 97.4q0 0.2 0 0.3c0.4 2.7 1.2 5.5 2.4 8.2-1.6 2.9-6.8 9.9-9.9 7.2-0.8-0.7-0.7-2.5-0.3-3.3 0.5-1.3 1.9-2 2.5-3.3 1.4-2.8 0.9-6.5 3.8-8.6 0.3-0.2 0.8-0.4 1.5-0.5z"/>
	<path id="Layer" class="s1" d="m397.1 116.3q-0.2 0.1-0.5 0.3c0.2 0.5 0.2 0.9-0.1 1.2l-0.2-0.9q-1 0.8-2.2 1.7-1.6 1.2-3.1 2.4-0.4-0.4-0.8-0.9c-1.4-2.3 1-8.1 4.1-6.4 0.3 0.1 1.1 0.9 1.7 1.7l-0.2-0.9c0.7 0.4 1.1 1.1 1.3 1.8z"/>
	<path id="Layer" class="s1" d="m382.8 127.8c-0.1 1.8-0.1 3.6 0.1 5.3q-4.2 1.6-8.5 2.9c-0.5-0.7-0.9-1.5-1-2.5-0.7-5.9 5.8-4.8 9.4-5.7z"/>
	<path id="Layer" class="s1" d="m406.5 121.8q-4.2 2.5-8.7 4.7c-0.4-1.7 0.2-4.1 1.3-5.8 2.5 0 5 0.3 7.4 1.1zm-4.6-3.7q0 0 0 0z"/>
	<path id="Layer" class="s1" d="m380.1 122.7c-0.2 0.1 0-2.1 0-2.7 0-1.1-0.8-2.6-2-2.9-3.2-1-9.4 3.5-9.2 6.8 0.1 1.3 7.5-0.5 8.6-0.7 0.5-0.2 2.9-0.6 2.6-0.5z"/>
	<path id="Layer" class="s1" d="m367.4 112.3c1.6 1.1 2.2 3.7 1.5 5.6-0.7 1.7-3.3 1.4-4.7 1.9-2.4 1-1.9 6.7-6.1 4.3-1.1-0.6-1.6-1.5-1.8-2.5q1.6-1.2 3.1-2.5 4-3.4 8-6.8z"/>
	<path id="Layer" class="s1" d="m367.1 126.8c0-1.1 1.3 2.4 0.5 4.5-0.6 1.5-3.6 4-5.4 2.7-2-1.4-0.4-4.9 0.8-6.2 0.7-0.6 1.9-1.3 2.9-1.3 0.3 0.1 1.2 0.6 1.2 0.3z"/>
	<path id="Layer" class="s1" d="m363.7 138.7q-3.2 0.7-6.4 1.2 0.3-2.1 0.2-4.3c1-0.6 2.2-0.7 3.4-0.1 1.2 0.6 2.5 1.8 2.8 3.2z"/>
	<path id="Layer" class="s1" d="m303 47.7c-0.3 3.4-4.5 7.2-7.8 8.3-1.1 0.4-3.4 0.3-4.3 1-0.4 0.3 0 2.2 0 2.6-0.3 1.6-1.6 3.1-2.6 4.3-1 1.3-5.1 3.1-5.3 4.6-0.3 1.3 3.2 3 2.3 4.6-0.1 0.2-0.9-0.4-1-0.5-2.2-1.7-5-1.5-5.3 1.9-0.1 2 0.9 4.4 2.3 6 0.3 0.3 2.1 1.1 2.1 1.5 0 1-4 5.7-4.9 6.4-2.9 2.1-2.8-1.3-5.7-2.4-2.5-1-5.2-1.5-7.6-2.6-5.5-2.5-7.1-10.1-6.7-15.5 0.1-1.7 0.9-3 1.3-4.5 0.5-2.2-1.2-4.3 0.5-6.2 1.2-1.4 3.8-1.5 4.8-3.1 1.1-1.8 1-4.1 2.3-5.8 4.6-6.1 10.7-6.3 17.7-6.8 2.5-0.2 6.4-0.8 8.7 0.5 2.8 1.5 1.3 3.8 3 5.5 0.9 0.9 6.2-1 6.2 0.2z"/>
	<path id="Layer" class="s1" d="m271.6 96.2c-3.3-4.9-6.9-8.6-10.1-13.5-1.9-2.9-3.2-6.7-5.7-9-2.6-2.4-6.7-2.7-8.6 0.5-2.2 3.7-1.6 8.4-1.2 12.4 0.5 4.2 2.3 8.3 2.6 12.4 0.1 2.4-0.5 4.8-0.3 7.4 0.7 5.9 2.8 11.5 6 16.5 2.8 4.4 6.5 9.2 10.7 12.3 0.9 0.6 1.7 1.3 2.4 2 0.4 0.3 0.7 1.3 0.9 1 0.7-0.9-0.4-10.7-0.5-12.3-0.8-6.8-1-13.6 0.3-20.3 0.4-2.2 0.9-4.4 1.7-6.4 0.4-1 2.4-2.1 1.8-3z"/>
	<path id="Layer" class="s1" d="m291.7 150.9c-0.3 0.7 3.8 1.3 5.3 1.7 3 0.7 6.3 0.9 9.4 0.9 11.2 0.1 22-1.7 32.3-6q4.8-1.9 9.2-4.4c1.2-0.6 2.4-1.2 3.5-2 0.3-0.2 0.9-0.6 0.9-0.6 0 0-0.8 0.5-1.3 0.6-2 0.5-4.2 0.3-6.3 0.4-5.1 0.1-10.1-0.8-15.3-1-5.5-0.2-11.7-1.7-17-3.3-0.8-0.3-5.9-2.9-6-2.9-1 0.1-2.6 3.6-3.3 4.3-2.1 2.4-3.9 5-6 7.3-1.6 1.7-4.5 3-5.4 5z"/>
	<path id="Layer" class="s1" d="m292.9 127.6c0.3 0.1-3 2.2-3.3 2.4-0.6 0.4-3.3 3.3-4 3.1-0.4-0.1-0.4-5-0.5-5.5-0.1-0.7-0.2-1.3-0.2-2.1 0-1.2-0.8-2.8-0.2-4 0.1-0.3 0.9 0.6 1.1 0.7 1.7 1.4 4.9 5 7.1 5.4z"/>
	<path id="Layer" class="s4" d="m297.1 55.1q0 0 0 0c0.5 2.1 0.7 5.4 1.3 7.5m1.5 2.5c1.8 1.5 4.7 1.8 6.2 3.7 1.7 2.4-1.9 3.7-2.2 5.4-0.3 1.5-0.1 3 0.1 4.5 0.3 2.5 0.6 5.1-0.9 7.4-3.4 5.4-9.8-1.9-10.9 7.7q-0.1 0.4-0.1 0.8-0.2 1.8-0.1 3.6 0 0.6 0.1 1.2c0.1 1.5 0.3 3 0.6 4.5"/>
	<path id="Layer" class="s4" d="m303.4 47.2c-0.4 2-1.5 3.8-3.1 5.3-0.9 1-2 1.9-3.2 2.6q-0.4 0.2-0.8 0.5-0.9 0.4-1.7 0.7c-0.3 0.1-2.1 0.3-3.2 0.4-0.5 0.1-0.9 0.1-0.9 0.2-0.3 0.5 0.2 1.9 0 2.6-0.3 1.6-1.4 3.3-2.4 4.6q-0.1 0.3-0.3 0.5c-0.6 0.7-2.4 1.6-3.6 2.4-0.5 0.3-0.9 0.6-1 0.9q-0.1 0.1-0.1 0.2c0 0.3 0.2 0.9 0.5 1.5q0.1 0.2 0.2 0.5c0.3 0.6 0.6 1.2 0.7 1.6 0.1 0.4 0.7 1.2 0.7 1.5q0 0.1-0.2 0.1c-1.2 0-2-1.2-3-1.7-0.6-0.3-1.3-0.3-2.2 0.5-3.4 3-0.5 8.7 3.3 10.1q0.1 0.1 0.2 0.1c1 0.3 1.9 0.3 2.8 0"/>
	<path id="Layer" class="s4" d="m303.4 47.2c-2.6 0.1-6.8 0.1-7.1-0.5-0.5-1 0.2-2.2-0.6-3.4-2.2-3.2-8.5-2.7-11.8-2.5-6 0.3-13.6 2.7-17.2 7.9-0.4 0.6-0.5 1.6-0.6 2.6-0.1 1.1-0.2 2.1-0.6 2.5q-0.2 0.3-0.6 0.5c-1.6 1.1-3.8 1.3-5.2 3.2-1.7 2.5 0.1 3.4-0.3 5.7-0.7 4-2.7 7.5-1.2 11.8 1 2.6 2.5 5.1 4.7 6.9q0.5 0.4 1.1 0.7c1.5 0.9 3.3 1.5 5.1 2.2 2.2 0.8 4.3 1.6 5.8 2.7q0.6 0.6 1 1.2 0.3 0.3 0.4 0.8c0.6 1.3 0.3 3.2-1.1 5.6q-0.1 0.3-0.3 0.5"/>
	<path id="Layer" class="s4" d="m283.2 81.7q0 0.2-0.1 0.5-0.4 1.1-1 2.1c-0.6 0.9-1.3 1.8-2.2 2.6-0.9 0.9-1.9 1.6-2.9 2.2q-0.3 0.2-0.7 0.4"/>
	<path id="Layer" class="s4" d="m286.5 100.1q-0.8-0.7-1.6-1.4c-3-2.5-6.6-4.1-9.7-3.6-1.2 0.2-2.2 0.7-3.2 1.5q-0.3 0.3-0.6 0.7-0.1 0.1-0.3 0.3c-0.9 1.1-1.5 2.7-2 4.7-1.1 5.1-1.6 10.6-1.6 16.2q0 0.9 0.1 1.8 0 2.8 0.2 5.6 0.2 4.5 0.7 8.7 0.3 3.5 0.8 6.8c0.5 4.4 0.6 10.9 4.7 13.6 6.7 4.5 12.3 0.1 17.5-4.4q0.6-0.5 1.2-1.1 0.3-0.2 0.6-0.5c4.6-4.5 8.4-9.9 12.4-15 4.4-5.8 9.1-11.2 15.6-14.8"/>
	<path id="Layer" class="s4" d="m277.7 139.7c0.4-0.3 2.6-2.5 2.8-2.7 2.7-2.4 6.1-4.3 9.1-6.3 3.9-2.7 7.8-5.3 11.6-8.1 5.3-3.9 10.1-8.3 15.2-12.5 2.2-1.8 5.9-2.1 8.5-3.3 9.2-4.4 16.3-6 24.1 3.2"/>
	<path id="Layer" class="s4" d="m334.8 107.3c5-1.3 10.5 2.7 13.5 6.3"/>
	<path id="Layer" class="s4" d="m335.1 110.6c2.2-0.7 7.3 2 9.3 4.2"/>
	<path id="Layer" class="s4" d="m319.4 118.3c7.8 5.1 13.6-7.7 21.5-2.6"/>
	<path id="Layer" class="s4" d="m292.2 93.8c1.9-0.4 4-0.8 5.8-0.4 5.6 1.4 11.4 11.9 15.5 15.9"/>
	<path id="Layer" class="s4" d="m285.2 114.9q-0.4 2.6-0.4 5.2 0 0.4 0 0.7c0 4.1 0.4 8.4 0.9 12.4"/>
	<path id="Layer" class="s4" d="m284.8 120.1c-0.8-0.2-1.6-0.3-2.3-0.5-1.6-0.5-3.3-0.6-5-0.8-3.3-0.4-6.9 0-9.9 1.5"/>
	<path id="Layer" class="s4" d="m272 96.6q-0.2-0.3-0.5-0.5-0.6-0.8-1.2-1.4c-5.1-5.7-8.6-11.6-12.5-18.2-1.8-2.9-5.8-6.4-9.3-3.5q-0.7 0.6-1.2 1.5c-1.3 2-1.7 4.9-1.7 7.7 0 1.9 0.2 3.9 0.4 5.4 0.3 3.3 1.2 7.4 2.6 11.5 3.1 9.5 9.2 19.1 18.6 19.4q0.2 0 0.3 0"/>
	<path id="Layer" class="s4" d="m471.1 72.5c-4 24.4-12.3 47.6-26.2 68-12.8 18.8-30.3 34.5-51.2 43.6-42 18.2-95.8 5.4-127-27.4-24.6-26-37-69.8-37-104.8"/>
	<path id="Layer" class="s4" d="m457.3 68.4c-3.4 13.7-20.1 30.5-31 39.5q-0.8 0.6-1.5 1.2c-4.4 3.6-9.1 6.9-14 10.1q-1.8 1.1-3.5 2.1-0.4 0.2-0.8 0.5-4.2 2.5-8.7 4.7-3.4 1.8-7 3.4-3.9 1.7-7.9 3.2-4.2 1.6-8.5 2.9-5.3 1.6-10.7 2.7-3.2 0.7-6.4 1.1-1.7 0.3-3.5 0.5c-6.5 0.8-13.1 1-19.6 0.6q-1.2-0.1-2.3-0.2c-9-0.9-17.8-3.1-26.2-6.7m-11.7-6.3q-4.7-3.1-9.2-6.9"/>
	<path id="Layer" class="s4" d="m390.6 95.1c0 1.5 0.2 3 0.3 4.1 1.2 8.6 6.5 18.2 13.2 24"/>
	<path id="Layer" class="s4" d="m347.5 128.3c1.5 2.6 2.3 5.6 3 8.5q0.5 2 0.7 3.8"/>
	<path id="Layer" class="s4" d="m237.5 36.3c2 11.9 4.5 25.9 9.7 37.9q0 0.2 0.1 0.3"/>
	<path id="Layer" class="s4" d="m326.7 118.7c1.3 0.9 2.8 1.7 4.2 2.5q0.2 0.1 0.4 0.3 0.1 0 0.1 0c4.9 2.9 10.9 6.1 16.7 6.9q0.6 0.1 1.2 0.2c2.4 0.2 4.7-0.1 6.9-0.6 3.3-0.7 6.4-1.9 9.7-2.6q2.3-0.6 4.6-1 3.2-0.6 6.5-1.1 3.5-0.5 6.9-1 1.5-0.2 2.9-0.4 1.8-0.2 3.6-0.4 0.5-0.1 0.9-0.2 2-0.2 4-0.4 1.9-0.2 3.8-0.2c2.5 0 5 0.3 7.4 1.1"/>
	<path id="Layer" class="s4" d="m348.1 128.4c2-1.8 4.2-3.6 6.4-5.3q0.9-0.7 1.8-1.5 1.6-1.2 3.1-2.5 4-3.4 8-6.8 0.9-0.8 1.7-1.5 1.1-0.9 2.2-1.8 0.9-0.7 1.7-1.3c3.2-2.6 6.5-5.2 9.8-7.6q3.7-2.5 7.5-4.8 0 0 0.1-0.1c5.6-3.3 13.3-8.2 20.1-4.9 7 3.4 10.7 11.7 14.3 18.8"/>
	<path id="Layer" class="s4" d="m284.9 98.7c2.4 0.5 5 1.1 7.2 0.7"/>
	<path id="Layer" class="s4" d="m304 78.7c-2.1 0.6-5.9-0.1-6.8-0.4"/>
	<path id="Layer" class="s4" d="m450.2 115.4c-1.6 4.7-4.5 8.9-7.1 13.2-10.3 16.7-26.1 30.4-44.4 37.7"/>
	<path id="Layer" class="s4" d="m435.3 130.4c-14.3 18.6-34.2 30.6-57.1 35.7"/>
	<path id="Layer" class="s4" d="m363.7 182.1h-91.7"/>
	<path id="Layer" class="s4" d="m374.4 60.1l2.9 0.4-6.9 46.9-2.9-0.5z"/>
	<path id="Layer" class="s4" d="m330.9 121.2l-0.6-2.5 40.7-11.5 0.3 1.8m-2.2 1.8l-37.7 10.7"/>
	<path id="Layer" class="s4" d="m296.7 67.2c0-2.5 0.8-4.6 1.7-4.6 0.9 0 1.7 2.1 1.7 4.6 0 2.6-0.8 4.6-1.7 4.6-0.9 0-1.7-2-1.7-4.6z"/>
	<path id="Layer" class="s4" d="m296.8 67.7l-13.4 1.9"/>
	<path id="Layer" class="s6" d="m336.5 168.9c3.8 0 6.8-3.1 6.8-6.8 0-3.7-3-6.7-6.8-6.7-3.7 0-6.7 3-6.7 6.7 0 3.7 3 6.8 6.7 6.8z"/>
	<path id="Layer" fill-rule="evenodd" class="s6" d="m326.7 171.3l-9.7-8.5h19.4z"/>
	<path id="Layer" fill-rule="evenodd" class="s5" d="m326.7 176.9l5.9 5.2h-11.8z"/>
	<path id="Layer" class="s7" d="m326.7 171.3v5.6"/>
	<path id="Layer" class="s1" d="m385.5 233.9c0.5-1 0-2.3 0.1-3.3 0.2-2.5 2.6-5.1 2.2-7.5-0.3-1.5-2.2-1.9-2.3-3.5-0.2-2.2 1.2-4.5-0.1-6.6-1.2-2.1-5-2.8-5.6-3.9-2-4-1.7-9-7.1-10.6-4.6-1.3-9.9 0-14.6-0.4-1.5-0.1-3.6-1.9-5-1.7-0.7 0.2 0.8 4-0.1 4.1-2 0.3-4.2-1.4-6.9-0.8-4.8 1.2-6.3 6.4-9 10.1-1.2 1.6-2.5 4.3-4.1 5.4-0.5 0.3-4.1 1.4-4.1 1.5-0.5 2.6 4.8 3.9 5.2 5.9 0.6 2.7-4.6 5.1-3 9.6 0.5 1.7 2.7 4.4 4.6 4.9 0.5 0.1 2-0.5 2.6-0.5 0.3-0.1 1.6 0.3 1.6 0.3 0.4-0.3-0.1-2.3-0.1-2.6 0-2 0-4.3 1.8-5.6 2.1-1.5 6.5 1.5 9.5 0.8 2.7-0.6 2.3-3.4 3.8-4.9 0 0 5.8 1.8 7.2 1.4 3.9-1.1 6-6 10.4-5.5 3.6 0.4 6.3 7.3 6.8 10.3 0.3 1.5-0.2 3.7 0.2 5.1 0.2 0.3 1 0.9 1.2 1.3 0.3 0.4 0.6 2.6 0.9 2.8 0.5 0.2 1.3-2.2 1.4-2.6 0.4-1.5 1.8-2.3 2.5-3.5z"/>
	<path id="Layer" class="s8" d="m277.5 222.1c-0.1-0.5 0 0-0.8 0.4-0.7 0.5-1.8 1-2.7 1.2-2.3 0.7-5 1.5-7.4 1.5-4 0-7.3-0.8-11.1-1.5-1.6-0.3-3.1-1.7-4.5-0.1-2.3 2.6-4 7.2-3.4 10.7 0.1 1 0.6 2.3 0.4 3.2-0.1 0.6-1.6 1.6-2 2.1-1 1.2-1.9 2.6-2.3 4.2-0.7 2.1-0.3 5.6-2.1 7.3-3.7 3.8-3.9-12.3-8.4-7.2-2.7 3-2.5 10.6-0.1 13.8 0.7 0.8 4.3 1.7 4.2 2.4-0.4 1.8-6.7 6.8-8.3 5.6-0.8-0.7-0.3-3.6-0.3-4.4 0-4 0.3-8 0.1-12-0.8-13.4-5.5-27 3-38.9 1.6-2.3 4-4.7 6.7-5.9 9.9-4.4 21.2-2.8 29.7 4.3 2.6 2.2 5.7 5.2 7.5 8.3 0.7 1.1 1.5 2.1 1.8 3.5 0.1 0.4 0.1 2 0 1.5z"/>
	<path id="Layer" class="s1" d="m396.1 281c0.3 2.1-8 7.4-10.2 8.6-9.6 5.1-20.5 4.1-29.9-0.6-2.3-1.2-6.7-3.5-7.9-5.9-0.1-0.2 2.8-2.6 3.6-2.3 6.5 2.8 12.6 4.6 19.7 5.2 5.4 0.5 10.8-1.2 15.4-3.9 1.6-0.9 3.2-2.8 4.8-3.5 0.9-0.3 4.4 1.6 4.5 2.4z"/>
	<path id="Layer" class="s1" d="m278.1 256.8c2.7 0 4.9 2.2 4.9 4.9 0 2.7-2.2 4.9-4.9 4.9-1.2 0-2.3-0.4-3.1-1.1"/>
	<path id="Layer" class="s4" d="m278.1 256.8c2.7 0 4.9 2.2 4.9 4.9 0 2.7-2.2 4.9-4.9 4.9-1.2 0-2.3-0.4-3.1-1.1"/>
	<path id="Layer" class="s4" d="m241.2 267.5c6.1 7.1 18 16.3 27.1 8.3 4.6-4 7.2-11 9.1-16.6 5.6-17 6.6-36.9-7.7-49.6-9.8-8.7-27.6-12.3-36.9-1.2-15.6 18.8 2.3 42.6-6.1 62.9-6.4 15.6-23.2 18.7-35.3 28.6-8.6 7.1-12.7 22.9-14.3 33.3"/>
	<path id="Layer" class="s4" d="m254.5 277.7c0.6 6.8 8.3 9.5 16.5 11.4 6.7 1.6 13.8 2.7 17.4 5.2 11.6 8 14.3 21 16 34.1"/>
	<path id="Layer" class="s4" d="m271 289.1c-0.4 0.3-0.6 0.6-0.8 0.7-3.5 3-7.8 5.7-12.1 7.5-13.4 5.8-30 1.7-42-5.8-0.7-0.4-3-1.9-5.3-3.6"/>
	<path id="Layer" class="s4" d="m232 265.3c-1.2 0.5-2.5 0.8-3.7 1m50-44.8c-4.9 4.1-13.9 3.8-19.3 3.1-2.4-0.4-4.8-1.1-7.1-1.5-0.1 0-0.1 0-0.2 0-2.8 2.2-4 7.6-4 10.8 0 0.5 0.8 3.4 0.4 3.7-2.2 1.7-3.7 3-4.4 5.9-0.6 2.2-0.5 7.2-2.7 8.6-3.1 2.1-3.1-11.8-7.7-8.3-3.4 2.6-2.3 10.1-0.4 13.2 0.2 0.4 0.6 0.9 1 1.4"/>
	<path id="Layer" class="s4" d="m266.6 249.8c0.5 4.9 3.2 7.2-0.7 11"/>
	<path id="Layer" class="s4" d="m234.8 249.1c-0.9 1.8 0 4.7 1.9 5.7"/>
	<path id="Layer" class="s4" d="m340.6 242.6c3.4 10.9 10.8 36.7 27.5 27.7 2.1-1 3.6-2.4 5.1-4.1 2.2-2.3 3.8-4.8 5-7.8"/>
	<path id="Layer" class="s4" d="m382.9 238c0.8-3.5 4.4-6.6 6-1.8 1.3 3.8-1.8 15.6-7.5 13.6"/>
	<path id="Layer" class="s4" d="m385.6 239.3c0.6 1.9-0.5 4.2-1.9 5.4"/>
	<path id="Layer" class="s4" d="m379.6 236.2c0.1-1.2 0-2.5-0.1-3.7-0.2-3.4-4.1-14.4-9.3-12.2-3.1 1.3-3.7 4.9-7.2 5.5-1.6 0.3-3.5 0.3-5.1-0.3-0.7-0.2-2.6-1.3-3.4-1.1-0.2 0-0.9 3.1-1.1 3.4-1.4 2.5-4.9 2.3-7.2 1.3"/>
	<path id="Layer" class="s4" d="m344.2 228.1c-6.6-0.8-4.5 8.7-4 12.6"/>
	<path id="Layer" class="s4" d="m339.2 237.1c-2.4-1.4-3.5 1.4-3.5 3.3 0.2 3.4 1.9 6.7 4.2 9 0.5 0.5 2.5 2.6 3.3 2.1"/>
	<path id="Layer" class="s4" d="m336.1 237.5c-1.2-0.3-2.6-1.5-3.5-2.3-3.2-2.5-2.2-6.5-0.2-9.3 0.6-1 2-2.1 2.3-3.2 0.1-0.4-1.5-0.9-1.7-1.1-0.7-0.5-4.9-4.3-4.8-5 0-0.4 1.9-0.3 2.2-0.3 1.2-0.2 2.4-0.9 3.2-2 3.3-4.2 4.8-9.2 9.1-12.8 1.8-1.6 4.8-2.2 7.1-1.9 0.3 0 3.6 0.9 3.7 0.8 0.4-0.7-1.6-2.9-0.6-4 0.3-0.2 2.4 1.3 2.8 1.5 1.4 0.5 3 0.4 4.6 0.3 5.5-0.3 11.3-2.1 16 1.9 1.6 1.4 2.6 3.1 3 5.2 0 0.3 0.3 3.7 0.3 3.7 2.6 0 5.2 1.4 6.4 4 1.3 2.8-0.8 4.4-0.7 7 0.1 1.4 2.7 2.2 2.6 3.8-0.1 1.1-1.1 2.2-1.5 3.2-0.8 2.2-0.8 4.4-0.8 6.7"/>
	<path id="Layer" class="s4" d="m356.3 242.8c1 4.2-1.8 9.5 2 12.1"/>
	<path id="Layer" class="s4" d="m358.3 260c3.1 1.4 6.4-0.1 9.1-1.6"/>
	<path id="Layer" class="s4" d="m382 257.7c0.6 4.8 0.2 9.4 2.5 13.7 1.7 3.3 4.3 5.6 7.2 7.3 3.4 2 7.2 3.3 10.8 4.8 8.7 3.6 18.1 6.4 25.9 11.7 9 6.3 13.1 20.7 16.1 30.9"/>
	<path id="Layer" class="s4" d="m444.5 326.1q-2.4 0.2-4.8 0.6c-9.8 1.9-17.4 7.7-23.4 14.5"/>
	<path id="Layer" class="s4" d="m415.2 336.3q0.5 2.5 1.1 4.9c2.1 9.5 4.9 18.9 7.1 28.3"/>
	<path id="Layer" class="s4" d="m429.4 368.2c-2 0-4 0.5-6 1.3-5.1 2.2-10.1 6.3-14.2 8.7-8.3 4.8-17.8 7.8-27.3 9.2"/>
	<path id="Layer" class="s4" d="m439 324.5q0.4 1.1 0.7 2.2c3.2 10 5.4 20.4 7.4 30.6 1.3 6.4 2.9 14.3 0.7 20.7-2.8 8.1-11.1 12.1-18.5 15.1-15.3 6.3-31.1 9.5-47.4 11.6"/>
	<path id="Layer" class="s4" d="m358.6 271.8c-1.1 3.8-4.2 6.5-7.5 8.6q-1.2 0.8-2.4 1.5c-9.4 5.5-19.8 6.9-28 14.5-2.2 2.1-3.8 5.3-5.2 7.9-6.1 11.7-7.5 25.1-10.8 37.7"/>
	<path id="Layer" class="s4" d="m391.7 278.7c-2.2 2.1-5.5 3.7-7.7 4.7-9.7 4.5-23.5 3.2-32.9-3"/>
	<path id="Layer" class="s4" d="m246.1 377.6c-1.5-1.7-2.3-4.5 0.9-5.3 2-0.5 4.1-0.8 6.3-0.8 2.7 0 5.4 0.4 7.9 0.8 6 1.1 4.6 3.7-0.6 4.7q0 0 0 0"/>
	<path id="Layer" class="s4" d="m245.5 383.4c-3.9-2.4-4.4-4.6 1.2-6 4.6-1 10.9-1.3 15.5 0 1.6 0.4 5.4 3 2.5 4.6-1.2 0.7-3 0.4-4.4 0.4"/>
	<path id="Layer" class="s4" d="m246 387.2c-3.7-1.5-2.6-3-0.6-3.9 1.3-0.6 3-1 4.1-1.1 3.7-0.2 9-0.8 12.4 1 4.2 2.1-0.4 4.4-3.1 4.5q-1.1 0.1-2.1 0.2"/>
	<path id="Layer" class="s4" d="m246.1 391.3c-3.6-2.2-1-3.6 1.7-3.7 3.8-0.2 7.8-0.2 11.5 0.8 4.4 1.2-1.2 3.4-2.9 3.5-1.6 0.2-3.1-0.1-4.7-0.1"/>
	<path id="Layer" class="s4" d="m253.3 395c-0.3 0.8-0.8 1.5-1.5 1.8-3 1.2-7 1.2-10 0.2"/>
	<path id="Layer" class="s4" d="m240.6 382.4c-2.5 0.3-3.7 0.9-6.3 1.2-12.5 1.4-25.4-3.2-37.6-4.8-5.3-0.7-10.3 0.3-15.5 0.1"/>
	<path id="Layer" class="s4" d="m176.2 337.9c-1.5 8.2-2.8 16.8-3.6 25.1-0.9 8.6-6.6 26.1-1.9 34.1 3.4 5.8 12.8 4.9 18.3 4.4 10.1-1 20.2-2 30.2-3.2 5.9-0.7 12.3-2.4 18.2-1.3"/>
	<path id="Layer" class="s4" d="m203 341.5c-1.3 6.1-2.3 12.2-3.3 18.3q-0.9 5.5-1.7 11-0.7 4-1.4 8"/>
	<path id="Layer" class="s4" d="m199.7 359.8c0.8 1.7 1.7 3.3 2.4 4.8 2.3 4.8 4.8 10.5 5.4 16.1"/>
	<path id="Layer" class="s4" d="m198 370.8c-1.1-0.7-2.2-1.2-3.8-1.7-6.1-2-15.3-2.7-21.5 0-0.3 0.1-0.7 0.3-1.2 0.5"/>
	<path id="Layer" class="s5" d="m254.6 249.9c0.2-1.7 1-2.9 1.8-2.8 0.8 0.1 1.3 1.5 1 3.2-0.2 1.6-1 2.8-1.8 2.7-0.8-0.1-1.3-1.5-1-3.1z"/>
	<path id="Layer" class="s5" d="m270.9 248.7c0.2-1.6 1-2.9 1.8-2.8 0.8 0.1 1.2 1.5 1 3.2-0.2 1.6-1 2.9-1.8 2.8-0.8-0.1-1.3-1.6-1-3.2z"/>
	<path id="Layer" class="s9" d="m265.5 265.5l-11.4 0.7c0 0 2.7 3.3 6.3 3.8 3.9 0.6 5.1-4.5 5.1-4.5z"/>
	<path id="Layer" class="s6" d="m231.2 262.8c0-2.7 2.2-4.9 4.9-4.9 2.8 0 5 2.2 5 4.9 0 2.7-2.2 4.9-5 4.9-2.7 0-4.9-2.2-4.9-4.9z"/>
	<path id="Layer" class="s4" d="m253.3 371.5v-11.6c0-1 0.8-1.7 1.8-1.7h15.1c0.9 0 1.7 0.7 1.7 1.7v37.1c0 1-0.8 1.8-1.7 1.8h-15.1c-1 0-1.8-0.8-1.8-1.8v-5.1"/>
	<path id="Layer" class="s4" d="m381.9 342h-98.3v64.6h98.3z"/>
	<path id="Layer" class="s5" d="m388.3 406.6h-111.1v4h111.1z"/>
	<path id="Layer" class="s6" d="m327.4 374.3c0-3 2.4-5.4 5.3-5.4 3 0 5.4 2.4 5.4 5.4 0 3-2.4 5.4-5.4 5.4-2.9 0-5.3-2.4-5.3-5.4z"/>
	<path id="Layer" class="s5" d="m364.3 243.8c-0.2-1.4 0.1-2.7 0.8-2.8 0.8-0.1 1.5 0.9 1.8 2.3 0.3 1.4-0.1 2.6-0.8 2.7-0.7 0.2-1.5-0.9-1.8-2.2z"/>
	<path id="Layer" class="s5" d="m348.8 245.4c-0.3-1.4 0.1-2.7 0.8-2.8 0.7-0.1 1.5 0.9 1.8 2.3 0.2 1.4-0.1 2.6-0.8 2.7-0.8 0.2-1.5-0.8-1.8-2.2z"/>
</svg>