<svg width="68" height="69" viewBox="0 0 68 69" fill="none" xmlns="http://www.w3.org/2000/svg">
<g clip-path="url(#clip0_4_2151)">
<path d="M39.9885 18.4645C43.8782 5.73001 44.7764 -0.028288 42.819 0.408296C41.8077 0.647862 41.4908 0.945533 40.5023 2.55677C38.6235 5.71541 34.1853 20.7925 34.8514 21.7934C35.7753 23.1821 39.1996 21.009 39.9885 18.4645Z" fill="#F1E34B"/>
<path d="M17.4851 33.417C18.0922 32.0069 17.9409 31.9201 10.7662 30.1458C6.92988 29.1658 4.08773 28.8356 2.3594 29.1237C-0.00996464 29.5038 -0.162946 31.1744 1.15855 31.612C12.5095 35.4401 16.4366 35.8527 17.4851 33.417Z" fill="#F1E34B"/>
<path d="M53.6103 25.0721C51.2276 25.7843 38.892 29.2031 37.9461 29.4003C37.5002 29.5043 36.8088 29.0282 35.9474 28.0151C29.4102 20.5129 22.101 13.1873 20.7253 12.7385C19.6964 12.3886 17.9489 13.8446 17.9626 14.9911C17.9763 16.1377 20.9909 25.8765 23.5047 32.7512L25.1341 37.241C10.4166 55.0975 9.31633 55.6258 19.4228 52.7272L28.3541 50.1742C33.4345 48.7305 33.5541 48.699 34.4707 49.584C35.7862 50.8574 42.7257 56.7123 45.8428 59.6375C52.5187 65.9406 53.0014 59.0651 46.914 43.2302L45.5281 39.599C45.8779 39.2801 48.2141 37.4425 57.4207 28.1948C59.5095 26.0556 57.1137 24.0033 53.6103 25.0721ZM50.0169 29.6653C49.9056 30.061 43.8786 36.4163 42.4717 37.328C40.7703 38.4306 40.9147 39.4924 44.0334 48.3318C46.0876 54.164 46.0538 54.3245 43.4004 51.8847C40.089 48.8083 35.4534 45.7122 34.5583 44.8597C33.7603 44.0827 31.4984 44.6244 23.2809 47.5465C19.1557 49.0181 18.4061 49.088 19.4899 47.8311C20.8363 46.2653 27.1338 38.487 28.0499 37.8932C28.9334 37.3207 29.2563 36.1872 28.8734 35.0487L24.8939 23.5783C24.2132 21.57 24.2132 21.5699 29.9369 27.4273C36.4153 33.997 36.0368 33.7801 38.7151 32.7377C42.068 31.4429 50.1395 29.2161 50.0169 29.6653Z" fill="#F1E34B"/>
<path d="M49.777 42.1143C50.2498 42.8247 64.6245 45.8486 66.1574 45.5483C69.397 44.9278 69.149 43.1473 65.6809 42.2984C56.2848 39.9302 48.2731 39.8539 49.777 42.1143Z" fill="#F1E34B"/>
<path d="M25.9579 60.5079C22.4689 68.7771 22.3936 70.2123 25.5346 68.1767C27.0725 67.18 32.3643 54.2305 31.4897 53.5494C30.1292 52.49 28.4096 54.621 25.9579 60.5079Z" fill="#F1E34B"/>
</g>
<defs>
<clipPath id="clip0_4_2151">
<rect width="68" height="69" fill="white"/>
</clipPath>
</defs>
</svg>
