<svg width="223" height="224" viewBox="0 0 223 224" fill="none" xmlns="http://www.w3.org/2000/svg">
<path d="M222.639 99.4764C222.799 101.464 222.906 103.467 222.96 105.484L222.46 105.497C222.487 106.495 222.5 107.496 222.5 108.5C222.5 109.504 222.487 110.505 222.46 111.503L222.96 111.516C222.906 113.533 222.799 115.536 222.639 117.524L222.14 117.484C221.979 119.484 221.765 121.469 221.499 123.438L221.995 123.505C221.725 125.501 221.402 127.481 221.027 129.441L220.536 129.348C220.16 131.317 219.732 133.267 219.252 135.196L219.738 135.316C219.252 137.271 218.715 139.204 218.128 141.114L217.65 140.967C217.061 142.882 216.421 144.775 215.732 146.642L216.201 146.816C215.505 148.703 214.759 150.566 213.964 152.402L213.505 152.203C212.71 154.04 211.867 155.851 210.976 157.632L211.423 157.856C210.524 159.654 209.578 161.423 208.586 163.161L208.151 162.913C207.16 164.65 206.122 166.356 205.04 168.03L205.46 168.301C204.369 169.988 203.234 171.642 202.055 173.261L201.651 172.967C200.475 174.583 199.255 176.165 197.994 177.71L198.381 178.026C197.111 179.582 195.8 181.1 194.448 182.58L194.079 182.243C192.731 183.718 191.344 185.155 189.918 186.551L190.268 186.908C188.835 188.312 187.362 189.675 185.854 190.996L185.524 190.62C184.022 191.935 182.483 193.208 180.909 194.436L181.217 194.83C179.636 196.064 178.02 197.254 176.371 198.397L176.086 197.986C174.446 199.123 172.774 200.214 171.07 201.257L171.331 201.683C169.622 202.729 167.882 203.728 166.113 204.676L165.876 204.236C164.119 205.178 162.334 206.07 160.52 206.912L160.731 207.365C158.915 208.208 157.071 209 155.202 209.74L155.019 209.275C153.167 210.008 151.289 210.688 149.389 211.315L149.545 211.79C147.646 212.417 145.723 212.99 143.778 213.508L143.649 213.025C141.727 213.537 139.784 213.995 137.821 214.397L137.922 214.887C135.966 215.288 133.99 215.634 131.997 215.923L131.925 215.428C129.96 215.713 127.977 215.942 125.979 216.114L126.022 216.613C124.035 216.784 122.032 216.899 120.016 216.957L120.002 216.457C119.005 216.486 118.004 216.5 117 216.5C115.996 216.5 114.995 216.486 113.998 216.457L113.984 216.957C111.967 216.899 109.965 216.784 107.978 216.613L108.021 216.114C106.023 215.942 104.04 215.713 102.075 215.428L102.003 215.923C100.01 215.634 98.0344 215.288 96.0784 214.887L96.1787 214.397C94.2159 213.995 92.2728 213.537 90.351 213.025L90.2223 213.508C88.2774 212.99 86.3543 212.417 84.4546 211.79L84.6113 211.315C82.7105 210.688 80.8334 210.008 78.9814 209.275L78.7975 209.74C76.9286 209 75.0852 208.208 73.2692 207.365L73.4797 206.912C71.6664 206.07 69.8805 205.178 68.1237 204.236L67.8874 204.676C66.1178 203.728 64.3777 202.729 62.6687 201.683L62.9298 201.257C61.2261 200.214 59.5535 199.123 57.9138 197.986L57.6289 198.397C55.98 197.254 54.3641 196.064 52.7832 194.83L53.0908 194.436C51.5171 193.208 49.9781 191.935 48.4756 190.62L48.1463 190.996C46.6375 189.675 45.1654 188.312 43.7317 186.908L44.0816 186.551C42.656 185.155 41.2686 183.718 39.9212 182.243L39.552 182.58C38.2004 181.1 36.8889 179.582 35.6191 178.026L36.0064 177.71C34.7453 176.165 33.5255 174.583 32.3489 172.967L31.9446 173.261C30.7661 171.642 29.6306 169.988 28.54 168.301L28.9599 168.03C27.8779 166.356 26.8402 164.65 25.8485 162.913L25.4143 163.161C24.422 161.423 23.4756 159.654 22.5768 157.856L23.024 157.632C22.1334 155.851 21.2897 154.04 20.4946 152.203L20.0358 152.402C19.2413 150.566 18.495 148.703 17.7988 146.815L18.2679 146.642C17.579 144.775 16.9393 142.882 16.3503 140.967L15.8723 141.114C15.2849 139.204 14.7477 137.271 14.2623 135.316L14.7476 135.196C14.2684 133.267 13.84 131.317 13.4638 129.348L12.9727 129.441C12.5982 127.481 12.2752 125.501 12.0054 123.505L12.5009 123.438C12.2349 121.469 12.0207 119.484 11.8598 117.484L11.3614 117.524C11.2015 115.536 11.0939 113.533 11.0402 111.516L11.54 111.503C11.5134 110.505 11.5 109.504 11.5 108.5C11.5 107.496 11.5134 106.495 11.54 105.497L11.0402 105.484C11.094 103.467 11.2015 101.464 11.3614 99.4764L11.8598 99.5164C12.0207 97.5158 12.2349 95.5306 12.5009 93.5624L12.0054 93.4954C12.2752 91.4986 12.5982 89.5191 12.9727 87.5586L13.4638 87.6524C13.84 85.6833 14.2684 83.7333 14.7476 81.8041L14.2623 81.6836C14.7477 79.7294 15.2849 77.7963 15.8723 75.8861L16.3503 76.033C16.9393 74.1176 17.579 72.2252 18.2679 70.3575L17.7988 70.1845C18.4951 68.2968 19.2413 66.4341 20.0358 64.5983L20.4947 64.7968C21.2897 62.9597 22.1334 61.1494 23.024 59.3679L22.5768 59.1443C23.4756 57.3462 24.422 55.5773 25.4143 53.8391L25.8486 54.0869C26.8402 52.3499 27.8779 50.6437 28.9599 48.9701L28.54 48.6987C29.6306 47.0118 30.7661 45.3579 31.9446 43.7388L32.3489 44.0331C33.5255 42.4166 34.7453 40.835 36.0064 39.29L35.6191 38.9738C36.8889 37.4182 38.2004 35.8997 39.552 34.4198L39.9212 34.757C41.2686 33.2817 42.656 31.8451 44.0816 30.4491L43.7317 30.0918C45.1654 28.6878 46.6376 27.3245 48.1463 26.0039L48.4757 26.3801C49.9781 25.065 51.5171 23.7924 53.0908 22.564L52.7832 22.1699C54.3641 20.9359 55.98 19.7464 57.6289 18.6031L57.9138 19.014C59.5535 17.8772 61.2261 16.7864 62.9298 15.7434L62.6687 15.3169C64.3777 14.2707 66.1179 13.2723 67.8874 12.3236L68.1237 12.7643C69.8805 11.8224 71.6665 10.9297 73.4798 10.0881L73.2693 9.63453C75.0853 8.7916 76.9286 7.99955 78.7975 7.26016L78.9815 7.72509C80.8334 6.99243 82.7106 6.31172 84.6113 5.68473L84.4547 5.2099C86.3544 4.58323 88.2775 4.00996 90.2223 3.49179L90.3511 3.97494C92.2729 3.46291 94.216 3.00496 96.1788 2.60277L96.0784 2.11295C98.0344 1.71214 100.01 1.36644 102.003 1.0775L102.075 1.57233C104.04 1.28745 106.023 1.05801 108.021 0.885593L107.978 0.387443C109.965 0.216047 111.968 0.10074 113.984 0.0430743L113.998 0.54287C114.995 0.514353 115.996 0.5 117 0.5C118.004 0.5 119.005 0.514354 120.002 0.542871L120.016 0.0430752C122.033 0.100741 124.035 0.216049 126.022 0.387446L125.979 0.885596C127.977 1.05801 129.96 1.28746 131.925 1.57233L131.997 1.0775C133.99 1.36645 135.966 1.71215 137.922 2.11295L137.821 2.60278C139.784 3.00497 141.727 3.46292 143.649 3.97495L143.778 3.4918C145.723 4.00997 147.646 4.58325 149.545 5.20991L149.389 5.68474C151.289 6.31174 153.167 6.99244 155.019 7.72511L155.203 7.26017C157.071 7.99956 158.915 8.79161 160.731 9.63454L160.52 10.0881C162.334 10.9298 164.12 11.8224 165.876 12.7643L166.113 12.3236C167.882 13.2723 169.622 14.2707 171.331 15.317L171.07 15.7434C172.774 16.7864 174.447 17.8772 176.086 19.014L176.371 18.6031C178.02 19.7464 179.636 20.9359 181.217 22.1699L180.909 22.564C182.483 23.7924 184.022 25.0651 185.524 26.3802L185.854 26.0039C187.362 27.3246 188.835 28.6878 190.268 30.0918L189.918 30.4491C191.344 31.8451 192.731 33.2817 194.079 34.757L194.448 34.4199C195.8 35.8997 197.111 37.4183 198.381 38.9738L197.994 39.29C199.255 40.835 200.475 42.4166 201.651 44.0331L202.055 43.7388C203.234 45.3579 204.369 47.0118 205.46 48.6987L205.04 48.9701C206.122 50.6437 207.16 52.3499 208.151 54.087L208.586 53.8391C209.578 55.5773 210.524 57.3463 211.423 59.1443L210.976 59.3679C211.867 61.1495 212.71 62.9597 213.505 64.7969L213.964 64.5983C214.759 66.4341 215.505 68.2968 216.201 70.1845L215.732 70.3575C216.421 72.2252 217.061 74.1176 217.65 76.0331L218.128 75.8861C218.715 77.7963 219.252 79.7294 219.738 81.6836L219.252 81.8042C219.732 83.7334 220.16 85.6833 220.536 87.6524L221.027 87.5586C221.402 89.5192 221.725 91.4986 221.995 93.4955L221.499 93.5624C221.765 95.5306 221.979 97.5158 222.14 99.5165L222.639 99.4764Z" stroke="#9492FD" stroke-dasharray="6 6"/>
<circle cx="109" cy="115" r="75" stroke="#E1F0EB" stroke-width="68"/>
<circle cx="105.5" cy="116.5" r="100" stroke="white" stroke-dasharray="6 6"/>
</svg>
