<?xml version="1.0" encoding="UTF-8" standalone="no"?><!DOCTYPE svg PUBLIC "-//W3C//DTD SVG 1.1//EN" "http://www.w3.org/Graphics/SVG/1.1/DTD/svg11.dtd"><svg width="100%" height="100%" viewBox="0 0 4500 4500" version="1.1" xmlns="http://www.w3.org/2000/svg" xmlns:xlink="http://www.w3.org/1999/xlink" xml:space="preserve" xmlns:serif="http://www.serif.com/" style="fill-rule:evenodd;clip-rule:evenodd;stroke-linecap:round;stroke-linejoin:round;stroke-miterlimit:1.5;"><rect id="_01_Security_Support" serif:id="01_Security_Support" x="0" y="0" width="4500" height="4500" style="fill:none;"/><g id="_01_Security_Support1" serif:id="01_Security_Support"><path d="M1074.47,3576.02l2595.85,-0" style="fill:none;stroke:#020144;stroke-width:69.46px;"/><path d="M1345.79,3164.84l2053.22,-0" style="fill:none;stroke:#020144;stroke-width:69.46px;"/><path d="M1241.13,2849.92l2262.52,-0" style="fill:none;stroke:#020144;stroke-width:69.46px;"/><path d="M1314.07,3301.07l2116.66,-0" style="fill:none;stroke:#020144;stroke-width:69.46px;"/><path d="M3503.65,1604.57l0,1428.65l-2262.52,-0l0,-1428.65l2262.52,-0" style="fill:none;stroke:#020144;stroke-width:69.46px;"/><path d="M3503.65,3033.22l-2262.52,-0l-166.666,408.612l2595.85,0l-166.667,-408.612Z" style="fill:none;stroke:#020144;stroke-width:69.46px;"/><path d="M2725.73,2517.42l-706.667,-0c-5.295,-0 -9.654,-4.358 -9.654,-9.654c0,-1.75 0.475,-3.471 1.379,-4.975l353.271,-621.696c1.667,-3.042 4.871,-4.938 8.338,-4.938c3.466,0 6.671,1.896 8.337,4.938l353.271,621.696c0.904,1.504 1.383,3.225 1.383,4.975c0,5.296 -4.358,9.654 -9.658,9.654Z" style="fill:none;fill-rule:nonzero;stroke:#020144;stroke-width:69.46px;stroke-linecap:butt;stroke-linejoin:miter;stroke-miterlimit:4;"/><path d="M2372.39,2412.98l-0,9.8" style="fill:none;fill-rule:nonzero;stroke:#020144;stroke-width:69.46px;stroke-linejoin:miter;stroke-miterlimit:4;"/><path d="M2372.39,2080.18l-0,254.971" style="fill:none;fill-rule:nonzero;stroke:#020144;stroke-width:69.46px;stroke-linejoin:miter;stroke-miterlimit:4;"/><rect x="1434.63" y="1784.65" width="633.446" height="408.142" style="fill:#5cba9e;"/><rect x="2861.47" y="1918.52" width="438.308" height="682.41" style="fill:#5cba9e;"/><rect x="1434.63" y="2396.86" width="438.308" height="224.379" style="fill:#5cba9e;"/><circle cx="1259.87" cy="1144.94" r="220.967" style="fill:none;stroke:#5cba9e;stroke-opacity:0.5;stroke-width:69.46px;"/><circle cx="934.29" cy="1470.52" r="104.608" style="fill:#5cba9e;fill-opacity:0.5;"/></g></svg>