<?xml version="1.0" encoding="UTF-8" standalone="no"?><!DOCTYPE svg PUBLIC "-//W3C//DTD SVG 1.1//EN" "http://www.w3.org/Graphics/SVG/1.1/DTD/svg11.dtd"><svg width="100%" height="100%" viewBox="0 0 2501 2501" version="1.1" xmlns="http://www.w3.org/2000/svg" xmlns:xlink="http://www.w3.org/1999/xlink" xml:space="preserve" xmlns:serif="http://www.serif.com/" style="fill-rule:evenodd;clip-rule:evenodd;stroke-linecap:round;stroke-linejoin:round;stroke-miterlimit:1.5;"><rect id="_05-software-launch" serif:id="05-software-launch" x="0.158" y="0.46" width="2500" height="2500" style="fill:none;"/><g id="Fill"></g><g id="Mid-layer" serif:id="Mid layer"></g><g id="Top-layer" serif:id="Top layer"></g><g id="Ref"></g><g><rect x="429.351" y="953.787" width="1641.61" height="1121.64" style="fill:#fff;stroke:#000;stroke-width:16.67px;"/><rect x="429.351" y="953.787" width="1641.61" height="152.482" style="fill:#5cba9e;stroke:#000;stroke-width:16.67px;"/><circle cx="570.773" cy="1030.03" r="25.751" style="fill:#bb1756;stroke:#000;stroke-width:16.67px;"/><circle cx="688.308" cy="1030.03" r="25.751" style="fill:#f1e34b;stroke:#000;stroke-width:16.67px;"/><circle cx="805.843" cy="1030.03" r="25.751" style="fill:#5cba9e;stroke:#000;stroke-width:16.67px;"/></g><g><path d="M1415.86,1435.72c-27.628,-36.016 -52.131,-74.552 -73.104,-115.202c-37.041,-71.792 -63.069,-150.176 -75.842,-232.91c-5.923,-38.363 -8.995,-77.661 -8.995,-117.67c-0,-210.494 85.056,-401.279 222.644,-539.83c124.388,125.258 205.841,293.208 220.325,479.817c1.537,19.804 2.32,39.818 2.32,60.013c0,103.13 -20.417,201.529 -57.427,291.371c-25.846,62.745 -59.786,121.316 -100.515,174.411" style="fill:#5cba9e;stroke:#000;stroke-width:16.67px;"/><path d="M1648.64,685.605c-47.05,13.103 -96.629,20.108 -147.832,20.108c-64.396,-0 -126.225,-11.08 -183.682,-31.436" style="fill:none;stroke:#000;stroke-width:16.67px;"/><path d="M1691.57,1103.63c81.578,96.033 130.817,220.376 130.817,356.129c0,21.398 -1.223,42.512 -3.604,63.276" style="fill:none;stroke:#000;stroke-width:16.67px;"/><path d="M1125.55,1523.04c-2.38,-20.764 -3.604,-41.878 -3.604,-63.276c0,-143.434 54.969,-274.13 144.972,-372.154m-141.368,435.43c-2.38,-20.764 -3.604,-41.878 -3.604,-63.276c0,-143.434 54.969,-274.13 144.972,-372.154" style="fill:none;stroke:#000;stroke-width:16.67px;"/><path d="M1614.7,1327.55c83.792,46.372 154.242,113.956 204.082,195.485" style="fill:none;stroke:#000;stroke-width:16.67px;"/><path d="M1125.55,1523.04c52.422,-85.752 127.644,-156.078 217.21,-202.52m-217.21,202.52c52.422,-85.752 127.644,-156.078 217.21,-202.52" style="fill:none;stroke:#000;stroke-width:16.67px;"/><circle cx="1472.16" cy="969.937" r="86.686" style="fill:#5db9f5;stroke:#000;stroke-width:16.67px;"/><path d="M1415.86,1579.51l0,-157.732l129.406,0l0,157.732" style="fill:none;stroke:#000;stroke-width:16.67px;"/><path d="M1264.13,1676.24l0,-26.406c0,-18.65 7.409,-36.536 20.597,-49.724c13.188,-13.188 31.074,-20.596 49.724,-20.596l81.413,-0m129.406,-0l81.414,-0c18.65,-0 36.536,7.408 49.724,20.596c13.187,13.188 20.596,31.074 20.596,49.724l0,26.406" style="fill:none;stroke:#000;stroke-width:16.67px;"/><path d="M1697,1676.24l49.15,0c18.65,0 36.537,7.409 49.724,20.596c13.188,13.188 20.597,31.075 20.597,49.725" style="fill:none;stroke:#000;stroke-width:16.67px;"/><path d="M1144.66,1746.56c-0,-18.65 7.409,-36.537 20.596,-49.725c13.188,-13.187 31.074,-20.596 49.725,-20.596l49.149,0" style="fill:none;stroke:#000;stroke-width:16.67px;"/><circle cx="1264.13" cy="1795.89" r="49.335" style="fill:#5db9f5;stroke:#000;stroke-width:16.67px;"/><circle cx="1402.85" cy="1860" r="34.567" style="fill:#03026f;stroke:#000;stroke-width:16.67px;"/><circle cx="1697" cy="1845.23" r="49.335" style="fill:#5db9f5;stroke:#000;stroke-width:16.67px;"/><circle cx="1545.27" cy="1700.38" r="72.507" style="fill:#5db9f5;stroke:#000;stroke-width:16.67px;"/></g></svg>