<?xml version="1.0" encoding="UTF-8" standalone="no"?><!DOCTYPE svg PUBLIC "-//W3C//DTD SVG 1.1//EN" "http://www.w3.org/Graphics/SVG/1.1/DTD/svg11.dtd"><svg width="100%" height="100%" viewBox="0 0 2501 2501" version="1.1" xmlns="http://www.w3.org/2000/svg" xmlns:xlink="http://www.w3.org/1999/xlink" xml:space="preserve" xmlns:serif="http://www.serif.com/" style="fill-rule:evenodd;clip-rule:evenodd;stroke-miterlimit:10;"><rect id="_19-helper" serif:id="19-helper" x="0.604" y="0.316" width="2500" height="2500" style="fill:none;"/><g id="Fill"></g><g id="Mid-layer" serif:id="Mid layer"></g><g id="Top-layer" serif:id="Top layer"></g><g id="Ref"></g><path d="M1677.88,938.579l-161.1,161.175c-15.414,15.421 -41.78,4.506 -41.78,-17.301l0,-143.874l-110.928,-0c-63.878,-0 -116.153,-52.268 -116.153,-116.154l-0,-376.136c-0,-63.886 52.275,-116.154 116.153,-116.154l768.743,-0c63.878,-0 116.146,52.268 116.146,116.154l-0,376.136c-0,63.886 -52.268,116.154 -116.146,116.154l-454.935,-0Z" style="fill:#fff;fill-rule:nonzero;stroke:#000;stroke-width:16.67px;"/><path d="M1534.44,998.015l0,-59.436c0,-32.826 -26.61,-59.436 -59.436,-59.436l-110.928,0c-31.192,0 -56.718,-25.522 -56.718,-56.718l0,-376.136c0,-31.196 25.526,-56.718 56.718,-56.718l768.743,-0c31.191,-0 56.71,25.523 56.71,56.718l0,376.136c0,31.195 -25.519,56.718 -56.71,56.718l-454.935,0c-15.768,0 -30.89,6.266 -42.037,17.418l-101.407,101.454Z" style="fill:#def1ec;fill-rule:nonzero;"/><circle cx="1546.95" cy="636.791" r="54.451" style="fill:none;stroke:#000;stroke-width:16.67px;stroke-linecap:round;stroke-linejoin:round;stroke-miterlimit:1.5;"/><circle cx="1748.44" cy="636.791" r="54.451" style="fill:none;stroke:#000;stroke-width:16.67px;stroke-linecap:round;stroke-linejoin:round;stroke-miterlimit:1.5;"/><circle cx="1949.94" cy="636.791" r="54.451" style="fill:none;stroke:#000;stroke-width:16.67px;stroke-linecap:round;stroke-linejoin:round;stroke-miterlimit:1.5;"/><path d="M497.815,1080.81c-8.424,1.72 -17.145,2.623 -26.074,2.623c-71.697,-0 -129.907,-58.209 -129.907,-129.907c0,-71.697 58.21,-129.906 129.907,-129.906c5.748,-0 11.409,0.374 16.961,1.099" style="fill:#5db9f5;stroke:#000;stroke-width:16.67px;stroke-linecap:round;stroke-linejoin:round;stroke-miterlimit:1.5;"/><path d="M1066.11,824.714c5.551,-0.725 11.212,-1.099 16.96,-1.099c71.698,-0 129.907,58.209 129.907,129.906c-0,71.698 -58.209,129.907 -129.907,129.907c-8.929,-0 -17.649,-0.903 -26.074,-2.623" style="fill:#5db9f5;stroke:#000;stroke-width:16.67px;stroke-linecap:round;stroke-linejoin:round;stroke-miterlimit:1.5;"/><circle cx="1023.57" cy="1180.81" r="122.713" style="stroke:#000;stroke-width:16.67px;stroke-linecap:round;stroke-linejoin:round;stroke-miterlimit:1.5;"/><path d="M1247.16,1495.44c2.133,1.941 4.225,3.937 6.274,5.986c18.987,18.987 33.398,41.694 42.524,66.408c7.469,20.226 11.398,41.797 11.398,63.772l0,281.047l-161.07,-0" style="fill:none;stroke:#000;stroke-width:16.67px;stroke-linecap:round;stroke-linejoin:round;stroke-miterlimit:1.5;"/><path d="M252.254,1641.02c0,0 -0.73,-43.068 11.398,-73.193c8.462,-21.019 23.188,-46.49 48.799,-72.394c51.897,-52.491 148.491,-106.76 328.234,-129.364l278.24,-0c179.742,22.604 276.336,76.873 328.234,129.364c25.61,25.904 40.336,51.375 48.798,72.394c12.128,30.125 11.381,73.193 11.381,73.193" style="fill:none;stroke:#000;stroke-width:16.67px;stroke-linecap:round;stroke-linejoin:round;stroke-miterlimit:1.5;"/><path d="M900.859,1266.19c-0,0 -0,65.172 -0,121.067c-0,50.422 -19.884,98.811 -55.337,134.665c-31.894,32.255 -65.726,66.47 -65.726,66.47c0,0 -35.997,-36.409 -68.73,-69.518c-33.517,-33.902 -52.315,-79.652 -52.315,-127.325c-0,-56.793 -0,-125.359 -0,-125.359" style="fill:#fff;stroke:#000;stroke-width:16.67px;stroke-linecap:round;stroke-linejoin:round;stroke-miterlimit:1.5;"/><path d="M777.407,456.876c159.446,-0 288.703,129.256 288.703,288.703l-0,262.98c-0,159.447 -129.257,288.703 -288.703,288.703l-0.002,0c-159.446,0 -288.703,-129.256 -288.703,-288.703c-0,-84.999 -0,-177.981 -0,-262.98c-0,-159.447 129.257,-288.703 288.703,-288.703l0.002,-0Z" style="fill:#fff;stroke:#000;stroke-width:16.67px;stroke-linecap:round;stroke-linejoin:round;stroke-miterlimit:1.5;"/><path d="M312.451,1495.44c-2.133,1.941 -4.225,3.937 -6.274,5.986c-18.987,18.987 -33.399,41.694 -42.525,66.408c-7.469,20.226 -11.398,41.797 -11.398,63.772l0,281.047l161.07,-0" style="fill:none;stroke:#000;stroke-width:16.67px;stroke-linecap:round;stroke-linejoin:round;stroke-miterlimit:1.5;"/><path d="M488.702,873.282l-0,-127.703c-0,-76.569 30.417,-150.002 84.559,-204.144c54.142,-54.143 127.575,-84.559 204.144,-84.559l0.001,-0c76.569,-0 150.002,30.416 204.144,84.559c54.143,54.142 84.56,127.575 84.56,204.144l-0,96.459c-113.323,-48.372 -190.508,-128.634 -190.508,-128.634c-153.677,104.135 -289.548,145.014 -386.9,159.878Z" style="stroke:#000;stroke-width:16.67px;stroke-linecap:round;stroke-linejoin:round;stroke-miterlimit:1.5;"/><ellipse cx="885.5" cy="963.771" rx="15.359" ry="33.626" style="stroke:#000;stroke-width:16.67px;stroke-linecap:round;stroke-linejoin:round;stroke-miterlimit:1.5;"/><ellipse cx="669.311" cy="963.771" rx="15.359" ry="33.626" style="stroke:#000;stroke-width:16.67px;stroke-linecap:round;stroke-linejoin:round;stroke-miterlimit:1.5;"/><path d="M488.702,873.282c97.352,-14.864 233.223,-55.743 386.9,-159.878c0,-0 77.185,80.262 190.508,128.634" style="fill:none;stroke:#000;stroke-width:16.67px;stroke-linecap:round;stroke-linejoin:round;stroke-miterlimit:1.5;"/><path d="M684.67,1132.3c0,-0 94.376,81.147 185.471,-0" style="fill:none;stroke:#000;stroke-width:16.67px;stroke-linecap:round;stroke-linejoin:round;stroke-miterlimit:1.5;"/><path d="M1283.45,1912.65l-0,206.012c-0,28.628 -23.208,51.835 -51.836,51.835c-127.273,0 -454.266,0 -584.796,0c-30.383,0 -55.014,-24.63 -55.014,-55.014l0,-3.576c0,-26.459 20.197,-48.541 46.551,-50.897c129.883,-11.608 486.769,-43.503 486.769,-43.503l0,-104.857l158.326,-0Z" style="fill:#fff;stroke:#000;stroke-width:16.67px;stroke-linecap:round;stroke-linejoin:round;stroke-miterlimit:1.5;"/><path d="M912.079,2170.5l255.965,0c11.096,0 20.959,-7.068 24.526,-17.575c3.566,-10.508 0.044,-22.12 -8.76,-28.874l-63.628,-48.82c-28.136,-21.587 -63.558,-31.398 -98.79,-27.361l-106.828,12.24c0,-0 -476.662,-42.6 -476.662,-42.6l0,-104.857l-158.325,-0l-0,191.639c-0,17.559 6.975,34.4 19.392,46.816c12.416,12.417 29.257,19.392 46.816,19.392l569.658,0" style="fill:#fff;stroke:#000;stroke-width:16.67px;stroke-linecap:round;stroke-linejoin:round;stroke-miterlimit:1.5;"/><path d="M900.859,1366.07c-0,-0 31.681,286.191 -27.948,675.501" style="fill:none;stroke:#000;stroke-width:16.67px;stroke-linecap:round;stroke-linejoin:round;stroke-miterlimit:1.5;"/><path d="M658.52,1366.07c-0,-0 -31.682,286.191 27.947,675.501" style="fill:none;stroke:#000;stroke-width:16.67px;stroke-linecap:round;stroke-linejoin:round;stroke-miterlimit:1.5;"/><path d="M909.267,1366.07l123.866,153.611l-61.911,81.596l69.748,137.02l-67.326,292.745" style="fill:none;stroke:#000;stroke-width:16.67px;stroke-linecap:round;stroke-linejoin:round;stroke-miterlimit:1.5;"/><path d="M650.111,1366.07l-123.866,153.611l61.911,81.596l-69.748,137.02l67.326,292.745" style="fill:none;stroke:#000;stroke-width:16.67px;stroke-linecap:round;stroke-linejoin:round;stroke-miterlimit:1.5;"/><path d="M430.67,830.252l0,-84.674c0,-191.496 155.238,-346.734 346.734,-346.734l0.003,0c191.496,0 346.734,155.238 346.734,346.734l-0,84.674m-346.734,525.042l-0.003,-0c-167.379,-0 -307.058,-118.6 -339.585,-276.348" style="fill:none;stroke:#000;stroke-width:16.67px;stroke-linecap:round;stroke-linejoin:round;stroke-miterlimit:1.5;"/><path d="M1178.03,2168.5l-113.975,-88.438" style="fill:none;stroke:#000;stroke-width:16.67px;stroke-linecap:round;stroke-linejoin:round;stroke-miterlimit:1.5;"/><path d="M1139.59,2170.5l-103.867,-80.594" style="fill:none;stroke:#000;stroke-width:16.67px;stroke-linecap:round;stroke-linejoin:round;stroke-miterlimit:1.5;"/><path d="M1095.26,2170.5l-88.539,-68.701" style="fill:none;stroke:#000;stroke-width:16.67px;stroke-linecap:round;stroke-linejoin:round;stroke-miterlimit:1.5;"/><path d="M1048.9,2170.5l-67.662,-52.501" style="fill:none;stroke:#000;stroke-width:16.67px;stroke-linecap:round;stroke-linejoin:round;stroke-miterlimit:1.5;"/></svg>