<?xml version="1.0" encoding="UTF-8"?>
<svg id="Layer_1" data-name="Layer 1" xmlns="http://www.w3.org/2000/svg" viewBox="0 0 667.14 105.75">
  <defs>
    <style>
      .cls-1 {
        fill: #f4e301;
      }

      .cls-2 {
        fill: #010149;
      }

      .cls-3 {
        fill: #fd0177;
      }

      .cls-4 {
        fill: #0fbbfb;
      }

      .cls-5 {
        fill: #01bd9c;
      }
    </style>
  </defs>
  <g>
    <path class="cls-2" d="M144.18,63.89c-.12,10.7-6.68,21.41-21.23,21.41s-21.29-10.47-21.29-21.35,6.98-21.82,21.29-21.82,21.35,10.94,21.23,21.76ZM109.34,64.07c.18,6.8,3.84,14.08,13.6,14.08s13.43-7.33,13.54-14.14c.12-6.98-3.79-14.79-13.54-14.79s-13.78,7.87-13.6,14.84Z"/>
    <path class="cls-2" d="M149.38,96.53v-41.34h6.74l.47,4.02c2.25-3.25,6.15-4.67,9.46-4.67,8.99,0,14.96,6.68,14.96,15.26s-5.38,15.26-14.73,15.26c-3.08,0-7.63-.95-9.7-4.14v15.61h-7.22ZM173.8,69.8c0-4.55-3.08-8.28-8.28-8.28s-8.28,3.73-8.28,8.28,3.37,8.28,8.28,8.28,8.28-3.73,8.28-8.28Z"/>
    <path class="cls-2" d="M192.49,72.35c.47,3.61,3.61,6.21,8.69,6.21,2.66,0,6.15-1,7.81-2.72l4.61,4.55c-3.07,3.19-8.1,4.73-12.54,4.73-10.05,0-16.03-6.21-16.03-15.55s6.03-15.26,15.49-15.26,15.85,6.03,14.73,18.04h-22.77ZM208.34,66.37c-.47-3.79-3.43-5.68-7.57-5.68-3.9,0-7.1,1.89-8.16,5.68h15.73Z"/>
    <path class="cls-2" d="M242.28,84.35v-15.26c0-4.44-2.42-7.81-7.04-7.81s-7.45,3.73-7.45,8.16v14.9h-7.16v-29.22h6.45l.47,3.96c2.96-2.9,5.91-4.38,9.58-4.38,6.86,0,12.36,5.15,12.36,14.31v15.32h-7.22Z"/>
    <path class="cls-2" d="M304.79,69.74c0-8.75,6.62-15.08,14.84-15.08s15.55,5.03,14.43,16.44h-26.32c.59,6.86,5.86,10.82,11.89,10.82,3.84,0,8.34-1.54,10.53-4.44l2.07,1.66c-2.84,3.73-7.93,5.62-12.6,5.62-8.22,0-14.84-5.74-14.84-15.02ZM331.47,68.56c-.06-7.22-4.79-11.24-11.83-11.24-6.03,0-11.24,4.08-11.89,11.24h23.72Z"/>
    <path class="cls-2" d="M297.57,42.95v41.4h-2.9v-41.4h2.9Z"/>
    <path class="cls-2" d="M382.32,84.35v-17.51c0-5.62-3.79-9.58-9.34-9.58s-9.4,4.14-9.4,9.76v17.33h-2.9v-17.33c0-5.62-3.84-9.7-9.4-9.7s-9.34,4.08-9.34,9.7v17.33h-2.9v-29.22h2.72l.06,4.85c2.01-3.84,5.74-5.44,9.52-5.44,4.44,0,9.11,2.01,10.82,7.22,1.77-4.79,6.33-7.22,10.82-7.22,7.16,0,12.24,5.03,12.24,12.3v17.51h-2.9Z"/>
    <path class="cls-2" d="M391.71,69.74c0-8.75,6.62-15.08,14.84-15.08s15.55,5.03,14.43,16.44h-26.32c.59,6.86,5.86,10.82,11.89,10.82,3.84,0,8.34-1.54,10.53-4.44l2.07,1.66c-2.84,3.73-7.93,5.62-12.6,5.62-8.22,0-14.84-5.74-14.84-15.02ZM418.39,68.56c-.06-7.22-4.79-11.24-11.83-11.24-6.03,0-11.24,4.08-11.89,11.24h23.72Z"/>
    <path class="cls-2" d="M431.33,55.14v5.2c2.25-4.02,6.33-5.68,10.41-5.74,7.81,0,13.19,4.79,13.19,12.89v16.86h-2.9v-16.8c0-6.62-4.08-10.17-10.41-10.11-6.03.06-10.23,4.61-10.23,10.65v16.26h-2.9v-29.22h2.84Z"/>
    <path class="cls-2" d="M467.94,46.32v8.81h9.94v2.42h-9.94v17.8c0,3.96.83,6.74,5.38,6.74,1.42,0,3.02-.47,4.49-1.18l1.01,2.37c-1.83.89-3.67,1.48-5.5,1.48-6.21,0-8.22-3.67-8.22-9.4v-17.8h-6.21v-2.42h6.21v-8.52l2.84-.3Z"/>
    <path class="cls-2" d="M504.61,60.46c-2.96-2.6-5.86-3.07-9.11-3.07-4.55-.06-8.93,1.66-8.81,5.38.12,3.9,5.2,4.67,8.87,5.32,5.2.89,12.36,1.77,12.06,8.58-.18,6.45-6.86,8.16-12.01,8.16s-10.23-1.95-12.77-5.86l2.13-1.89c2.42,3.49,6.8,4.97,10.7,4.97,3.55,0,8.93-.95,9.11-5.56.12-4.2-4.73-5.03-9.52-5.8-5.68-.95-11.3-2.01-11.36-7.87-.06-5.74,5.68-8.22,11.59-8.16,4.26,0,7.98,1.18,10.88,3.9l-1.77,1.89Z"/>
    <g>
      <polygon class="cls-2" points="258.51 42.81 258.51 45.83 261.65 45.83 271.34 45.83 287.79 45.83 287.79 42.81 258.51 42.81"/>
      <polygon class="cls-2" points="261.65 81.11 258.51 81.11 258.51 84.21 287.79 84.21 287.79 81.14 261.65 81.14 261.65 81.11"/>
      <polygon class="cls-2" points="261.65 61.88 258.51 61.88 258.51 64.8 272.63 64.8 272.63 64.81 287.79 64.81 287.79 61.92 261.65 61.92 261.65 61.88"/>
    </g>
  </g>
  <g>
    <path class="cls-5" d="M573.58,95.26c-6.62-.95-41.57-.72-54.98.36-3.61.23-6.84.47-8.74.6-.14.01-.28.02-.41.03,2.64-6.17,17.39-35.22,26.27-51.38,5.69-10.27,8.01-13.13,9.26-14.66.6-.74,1.03-1.27,1.48-2.16,1.64-3.46,2.32-5.04,1.22-6.14-1.64-1.4-4.02-1-5.79,1-3.34,3.89-5.18,7.09-11.01,18.01-8.32,15.4-23.19,44.91-27.1,53.78h-.19l-.23.55q-.93,2.17-2.25,2.17c-2.02,0-3.82.87-5.41,1.64-.75.37-1.47.71-2.13.93-1.26.42-2.17,1.32-2.36,2.34-.15.79.14,1.55.74,2.05.31.31.84.4,1.4.4.51,0,1.03-.08,1.41-.16.89-.18,4.19-.73,7.37-1.26l2.17-.32c8.35-1.23,17.82-2.63,33.21-3.29,11.56-.54,17.46-.54,26.31,0,6.37.36,11.3.87,11.72.96.1.09.27.45.27.67,0,.89.56,1.62,1.5,1.94,1.35.46,3.51.07,4.63-1.38.84-1.07,1.07-2.08.7-3.01-.7-1.75-3.41-2.85-9.06-3.68Z"/>
    <path class="cls-5" d="M666.3,65.8c-.65-.44-1.57-.49-3.18-.07l.53-.53-4.08,1.63c-1.19.48-2.95,1.09-4.97,1.81-2.61.92-5.57,1.96-8.41,3.07-8.39,3.3-9.91,3.99-10.32,4.27-.11.08-.19.13-.25.16-.3-.51-.72-2.09-.89-2.73-.65-2.49-.41-3.87.12-4.7l.67.17-.13-.77c.18-.15.36-.27.53-.37,1.44-.8,1.7-1.68,1.66-2.28-.04-.6-.41-1.44-1.87-2.02-.55-.28-1.07-.28-1.49-.28-2.03,0-4.13,1.7-5.34,4.33-.1.22-.18.41-.26.61-.51.37-1.05.77-1.65,1.22-3.55,2.81-7.01,4.01-10.68,5.28-.69.24-1.38.48-2.1.74-1.81.69-6.21,1.53-8.3,1.76.25-.47.6-1.1,1.07-1.89,2.8-4.6,2.85-7.93.16-10.21-4.22-3.41-11.28-.81-21.6,7.98l-2,1.75c7.3-13.91,14.25-25.27,23.22-37.98,3.5-4.91,5.13-7.86,4.84-8.73-.21-.74-.83-1.31-1.69-1.57-1.26-.38-2.76-.07-3.75.78-1.79,1.59-13.46,18.54-17.71,25.52-2.57,4.14-5.38,9.08-7.94,13.85-.42.25-.87.54-1.39.89l-1.26.86.35.18c-.92.65-1.95,1.45-3.14,2.38l-1.25.96c-7.9,6.36-13,9.22-17.05,9.57-2.06.17-2.21-.01-2.61-.51-.85-1.28-.09-4.38,2.03-8.28,1.5-2.67,2.23-4.13.94-5.42-1.75-1.75-3.18-.83-5,.66l-.94.75-.41-.81c-2.11-4.21-7.57-4.98-13.73-1.47-6.7,3.83-12.41,11.37-12.47,16.47-.02,1.77.66,3.12,1.95,3.89.92.56,2.01.84,3.25.84,3.7,0,8.83-2.48,15.3-7.4l2.9-2.17v1.27c0,2.87.23,3.72,2.51,5.59,3.96,3.17,8.92,2.56,17.11-2.09,2.11-1.23,4.73-3.04,7.29-4.98-.59,1.28-1.11,2.46-1.53,3.49-2.42,5.77-2.98,7.76-1.74,8.99.48.41.99.61,1.55.61,1.76,0,4.05-2,7.65-5.74.47-.5.94-.99,1.4-1.47-.03.53.15.96.35,1.25,1.67,2.52,9.07,2.16,14.15-.72,2.6-1.56,3.92-1.88,7.39-2.23,10.22-.84,15.63-1.88,24.59-8.3.1.39.2.81.32,1.27l.93,4.01-.85.43c-2.96,1.67-7.93,5.16-9.27,6.69-1.11,1.23-1.65,3.07-1.38,4.68.19,1.14.76,2.03,1.59,2.49.94.57,2.26.85,3.76.85,1.76,0,3.76-.38,5.72-1.14,3.94-1.58,6.85-5.34,7.43-9.59l.3-2.37,9.79-3.95c2.52-.94,5.11-1.89,7.45-2.74,3.05-1.11,5.68-2.07,7.21-2.68,3.85-1.47,5.46-2.34,5.46-3.92,0-.87-.28-1.5-.83-1.87ZM626.05,88.26c-.84.37-1.7.58-2.18.58,1.09-1.09,4.65-3.78,6.17-4.74-.47.91-1.61,2.4-3.18,3.45l-.91.61.11.11ZM602.52,68.87c.32.76-.7,3.7-3.84,6.85-1.44,1.44-1.96,1.75-4.69,2.09-2.95.27-5.65.92-7.73,1.86,7.33-6.86,13.63-10.91,15.96-10.91.26,0,.29.07.31.11ZM542.8,74.94l-.45.34c-2.33,1.79-5.94,4.14-7.86,5.36-2.02,1.17-3.37,1.84-4,2.01.01-.12.04-.27.09-.48,1.16-4.8,10.67-12.88,14.21-12.88.14,0,.32.06.37.1l.15.12c.14.13.54.81.89,1.86.36,1.19.37,1.24-3.03,3.75l-.37-.19Z"/>
  </g>
  <g>
    <g>
      <path class="cls-5" d="M66.01,60.73c-.03.06-.06.11-.09.17-1.13,1.32-8.13,8.77-19.3,5.98-.45-.11-.89-.21-1.32-.29-1.06-.2-2.09-.3-3.07-.33-9.55-.26-15.08,6.79-15.08,6.79,3.59,10.46,14.9,16.19,25.49,12.83,10.6-3.36,16.53-14.56,13.43-25.18l-.08.02Z"/>
      <path class="cls-4" d="M38.32,51.77c-.21.07-.42.15-.62.24-2.37,1.09-3.61,3.8-2.8,6.35s3.38,4.05,5.95,3.57c.21-.04.43-.09.64-.16,2.76-.88,4.29-3.83,3.41-6.59s-3.83-4.29-6.59-3.41Z"/>
      <circle class="cls-3" cx="53.42" cy="59.87" r="3.09"/>
      <circle class="cls-1" cx="45.66" cy="73.32" r="2.65"/>
    </g>
    <path class="cls-5" d="M2.19,80.67c3.41,10.75,10.38,19.4,19.2,25.08h50.72c9.42-6.1,16.22-15.35,19.37-25.84,1.67-5.56,2.31-11.47,1.79-17.43-.29-3.36-.94-6.74-2.01-10.08-1.06-3.35-2.48-6.48-4.18-9.39-3.02-5.17-6.95-9.63-11.52-13.21-7.54-5.9-16.81-9.41-26.52-9.91l-3.82-12.04,6.35-2.02-1.85-5.84-6.35,2.02-5.81,1.84h-.03s1.85,5.85,1.85,5.85l-9.73,3.09,1.85,5.84,9.73-3.09,1.85,5.84-9.73,3.09,1.85,5.84,9.73-3.09,4.21,13.26.24-.08c6.7.7,12.94,3.94,17.32,9.06,2.22,2.59,3.97,5.66,5.06,9.11,1.1,3.45,1.44,6.97,1.12,10.36-.95,10.2-7.86,19.36-18.23,22.65-13.82,4.39-28.63-3.29-33.01-17.11-3.26-10.26.14-21.06,7.77-27.74l.28-.09-9.77-30.78-1.85-5.84-5.84,1.85-6.32,2.01,1.85,5.84,6.32-2.01,3.82,12.03C3.04,41.45-3.87,61.58,2.19,80.67Z"/>
  </g>
</svg>