<?xml version="1.0" encoding="UTF-8"?>
<svg id="Layer_2" data-name="Layer 2" xmlns="http://www.w3.org/2000/svg" viewBox="0 0 640.19 202.72">
  <defs>
    <style>
      .cls-1 {
        fill: #020144;
      }

      .cls-2 {
        fill: #5db9f5;
      }

      .cls-3 {
        fill: #fd0177;
      }
    </style>
  </defs>
  <g id="Layer_1-2" data-name="Layer 1">
    <g>
      <g>
        <g>
          <g>
            <path class="cls-1" d="M398.85,153.96c-.08,7.11-4.44,14.22-14.1,14.22s-14.14-6.95-14.14-14.18,4.63-14.49,14.14-14.49,14.18,7.27,14.1,14.45ZM375.72,154.07c.12,4.52,2.55,9.35,9.03,9.35s8.91-4.87,8.99-9.39c.08-4.63-2.51-9.82-8.99-9.82s-9.15,5.22-9.03,9.86Z"/>
            <path class="cls-1" d="M402.3,175.63v-27.45h4.48l.31,2.67c1.49-2.16,4.08-3.1,6.28-3.1,5.97,0,9.94,4.44,9.94,10.13s-3.57,10.13-9.78,10.13c-2.04,0-5.07-.63-6.44-2.75v10.37h-4.79ZM418.52,157.88c0-3.02-2.04-5.5-5.5-5.5s-5.5,2.47-5.5,5.5,2.24,5.5,5.5,5.5,5.5-2.47,5.5-5.5Z"/>
            <path class="cls-1" d="M430.93,159.57c.31,2.4,2.4,4.12,5.77,4.12,1.77,0,4.08-.67,5.18-1.81l3.06,3.02c-2.04,2.12-5.38,3.14-8.33,3.14-6.68,0-10.64-4.12-10.64-10.33s4.01-10.13,10.29-10.13,10.52,4.01,9.78,11.98h-15.12ZM441.46,155.61c-.31-2.51-2.28-3.77-5.03-3.77-2.59,0-4.71,1.26-5.42,3.77h10.45Z"/>
            <path class="cls-1" d="M463.99,167.54v-10.13c0-2.95-1.61-5.18-4.67-5.18s-4.95,2.47-4.95,5.42v9.9h-4.75v-19.4h4.28l.31,2.63c1.96-1.92,3.93-2.91,6.36-2.91,4.56,0,8.21,3.42,8.21,9.5v10.17h-4.79Z"/>
            <path class="cls-1" d="M505.5,157.84c0-5.81,4.4-10.01,9.86-10.01s10.33,3.34,9.58,10.92h-17.48c.39,4.56,3.89,7.19,7.89,7.19,2.55,0,5.54-1.02,6.99-2.95l1.37,1.1c-1.89,2.47-5.26,3.73-8.36,3.73-5.46,0-9.86-3.81-9.86-9.98ZM523.22,157.06c-.04-4.79-3.18-7.46-7.85-7.46-4.01,0-7.46,2.71-7.89,7.46h15.75Z"/>
            <path class="cls-1" d="M500.71,140.05v27.49h-1.92v-27.49h1.92Z"/>
            <path class="cls-1" d="M556.98,167.54v-11.62c0-3.73-2.51-6.36-6.2-6.36s-6.24,2.75-6.24,6.48v11.51h-1.92v-11.51c0-3.73-2.55-6.44-6.24-6.44s-6.2,2.71-6.2,6.44v11.51h-1.92v-19.4h1.81l.04,3.22c1.34-2.55,3.81-3.61,6.32-3.61,2.95,0,6.05,1.34,7.19,4.79,1.18-3.18,4.2-4.79,7.19-4.79,4.75,0,8.13,3.34,8.13,8.17v11.62h-1.92Z"/>
            <path class="cls-1" d="M563.22,157.84c0-5.81,4.4-10.01,9.86-10.01s10.33,3.34,9.58,10.92h-17.48c.39,4.56,3.89,7.19,7.89,7.19,2.55,0,5.54-1.02,6.99-2.95l1.37,1.1c-1.89,2.47-5.26,3.73-8.36,3.73-5.46,0-9.86-3.81-9.86-9.98ZM580.93,157.06c-.04-4.79-3.18-7.46-7.85-7.46-4.01,0-7.46,2.71-7.89,7.46h15.75Z"/>
            <path class="cls-1" d="M589.53,148.15v3.46c1.49-2.67,4.2-3.77,6.91-3.81,5.18,0,8.76,3.18,8.76,8.56v11.19h-1.92v-11.15c0-4.4-2.71-6.75-6.91-6.72-4.01.04-6.79,3.06-6.79,7.07v10.8h-1.92v-19.4h1.88Z"/>
            <path class="cls-1" d="M613.84,142.29v5.85h6.6v1.61h-6.6v11.82c0,2.63.55,4.48,3.57,4.48.94,0,2-.31,2.98-.79l.67,1.57c-1.22.59-2.43.98-3.65.98-4.12,0-5.46-2.44-5.46-6.24v-11.82h-4.12v-1.61h4.12v-5.66l1.89-.2Z"/>
            <path class="cls-1" d="M638.18,151.68c-1.96-1.73-3.89-2.04-6.05-2.04-3.02-.04-5.93,1.1-5.85,3.57.08,2.59,3.46,3.1,5.89,3.53,3.46.59,8.21,1.18,8.01,5.69-.12,4.28-4.56,5.42-7.97,5.42s-6.79-1.3-8.48-3.89l1.41-1.26c1.61,2.32,4.52,3.3,7.11,3.3,2.36,0,5.93-.63,6.05-3.69.08-2.79-3.14-3.34-6.32-3.85-3.77-.63-7.5-1.34-7.54-5.22-.04-3.81,3.77-5.46,7.7-5.42,2.83,0,5.3.79,7.23,2.59l-1.18,1.26Z"/>
            <g>
              <polygon class="cls-1" points="474.77 139.96 474.77 141.97 476.85 141.97 483.29 141.97 494.21 141.97 494.21 139.96 474.77 139.96"/>
              <polygon class="cls-1" points="476.85 165.39 474.77 165.39 474.77 167.45 494.21 167.45 494.21 165.41 476.85 165.41 476.85 165.39"/>
              <polygon class="cls-1" points="476.85 152.62 474.77 152.62 474.77 154.56 484.15 154.56 484.15 154.57 494.21 154.57 494.21 152.65 476.85 152.65 476.85 152.62"/>
            </g>
          </g>
          <g>
            <path class="cls-1" d="M319.14,140.32v12.29c1.56-3.13,4.69-4.54,8.02-4.54,5.4,0,9.71,3.6,9.71,9.98s-4.27,9.98-9.67,9.98c-3.29,0-6.46-1.64-8.06-4.58v4.26h-1.88v-27.39h1.88ZM319.18,158c0,4.81,3.36,8.14,7.9,8.14s7.91-2.74,7.91-8.1-3.56-8.14-7.91-8.14-7.9,3.29-7.9,8.1Z"/>
            <path class="cls-1" d="M357.27,148.38l-11.78,27.39h-2.03l3.56-8.3-7.75-19.1h2.07l4.5,11.43,2.27,5.6,2.23-5.63,4.85-11.39h2.07Z"/>
          </g>
        </g>
        <g>
          <path class="cls-1" d="M215.96,77.49h-21.31v55.8h21.31c8.36,0,15.4-2.69,20.39-7.79,5-5.12,7.77-12.63,7.59-20.59-.24-13.65-8.98-27.42-27.98-27.42ZM228.91,118.48c-3.17,3.25-7.53,4.89-12.95,4.89h-11.16v-36.05h11.16c12.83,0,17.62,9.45,17.83,17.54.13,5.34-1.65,10.3-4.88,13.61Z"/>
          <rect class="cls-1" x="250.84" y="93.38" width="9.53" height="39.91"/>
          <path class="cls-1" d="M303.19,89.6l-4.23,5.17c-2.98-1.75-7.25-2.39-10.14-2.39-10.34,0-21.47,6.26-21.47,19.99,0,12.05,8.43,19.84,21.47,19.84,7.04,0,11.24,2.81,11.24,7.52s-5.91,7.06-11.39,7.06c-3.96-.05-7.53-1.34-9.54-3.46-1.31-1.38-1.94-3.05-1.86-4.96l.03-.8h-9.54l-.02.75c-.14,4.76,1.35,8.89,4.32,11.94,3.7,3.81,9.44,5.83,16.6,5.83,10.23,0,21.24-5.12,21.24-16.35,0-3.36-1.2-9.23-8.82-12.53,5.76-2.88,8.9-8.08,8.9-14.83,0-4.56-1.29-8.03-4.41-11.85l4.68-5.47-7.05-5.45ZM300.45,112.37c0,6.33-4.89,10.93-11.63,10.93-5.9,0-11.86-3.38-11.86-10.93s5.96-11.01,11.86-11.01c5.6,0,11.63,3.44,11.63,11.01Z"/>
          <rect class="cls-1" x="317.27" y="93.38" width="9.53" height="39.91"/>
          <path class="cls-1" d="M398.2,98.02c-2.79-3.3-7.39-5.33-12.34-5.33-12.28,0-20.54,8.32-20.54,20.69,0,6.37,1.98,11.7,5.74,15.43,3.62,3.6,8.62,5.5,14.46,5.5.06,0,.12,0,.19,0,4.24,0,9.43-1.76,12.55-5.62l.29,4.62h9.09v-39.76h-9.27l-.17,4.48ZM398.09,113.42c0,3.13-1.03,6.05-2.91,8.21-2.1,2.42-5.11,3.69-8.7,3.69-6.85,0-11.63-4.91-11.63-11.94s4.78-11.86,11.63-11.86c7.98,0,11.61,6.17,11.61,11.9Z"/>
          <rect class="cls-1" x="417.25" y="77.57" width="9.53" height="55.72"/>
          <polygon class="cls-1" points="495.3 77.49 449.42 77.49 449.42 86.87 467.24 86.87 467.24 133.29 477.55 133.29 477.55 86.87 495.3 86.87 495.3 77.49"/>
          <path class="cls-1" d="M513.51,92.68c-3.15,0-7.5.51-10.7,4.49l-.39-3.63h-8.91v39.76h9.53v-21.47c0-7.15,5.14-9.69,9.54-9.69,2.57,0,4.32.6,6.26,2.16l.73.59,4.36-8.34-.45-.4c-2.38-2.13-6.2-3.45-9.97-3.45Z"/>
          <path class="cls-1" d="M555.99,114.23c0,6.14-4.23,10.78-9.85,10.78-6.02,0-9.61-3.83-9.61-10.23v-21.24h-9.53v21.31c0,11.58,6.63,19.06,16.89,19.06,4.97,0,8.99-1.65,12.55-5.17l.38,4.63h8.69v-39.83h-9.53v20.69Z"/>
          <path class="cls-1" d="M590.17,108.81c-5.19-.49-7.54-1.77-7.59-4.11,0-.82.28-1.49.87-2.07,1.18-1.16,3.49-1.78,6.5-1.73,4.14,0,7,1.01,9.55,3.36l.59.55,5.51-6.46-.56-.5c-4.18-3.72-8.74-5.31-15.24-5.31-8.29,0-16.66,3.83-16.66,12.41.06,7.08,5.54,11.19,16.28,12.23,5.84.56,8.2,1.86,8.14,4.48-.07,3.32-4.66,4.2-7.35,4.2-5.07-.09-9.88-2.11-12.85-5.4l-.63-.7-5.12,6.92.42.47c5.84,6.55,13.08,7.31,18.02,7.31,10.11,0,16.97-5.17,17.05-12.86.09-11.3-11.39-12.3-16.9-12.79Z"/>
          <path class="cls-1" d="M637.35,123.37l-.79.4c-1.57.79-3.22,1.24-4.54,1.24-3.18,0-4.73-1.8-4.73-5.51v-17.44h11.24v-8.44h-11.16v-11.7l-9.61,5.98v5.72h-7.36v8.44h7.36v17.44c0,4.8,1.29,8.48,3.82,10.94,2.27,2.21,5.43,3.33,9.37,3.33.2,0,.4,0,.6,0,2.75,0,5.21-.55,7.99-1.77l.65-.29-2.84-8.33Z"/>
          <path class="cls-1" d="M359.95,123.37l-.79.4c-1.57.79-3.22,1.24-4.54,1.24-3.18,0-4.73-1.8-4.73-5.51v-17.44h11.24v-8.44h-11.16v-11.7l-9.61,5.98v5.72h-7.36v8.44h7.36v17.44c0,4.8,1.29,8.48,3.82,10.94,2.27,2.21,5.43,3.33,9.37,3.33.2,0,.4,0,.6,0,2.75,0,5.21-.55,7.99-1.77l.65-.29-2.84-8.33Z"/>
        </g>
        <path class="cls-1" d="M253.22,87.72h0c-1.47-.85-2.38-2.42-2.38-4.13h0c0-1.7.91-3.28,2.38-4.13h0c1.47-.85,3.29-.85,4.76,0h0c1.47.85,2.38,2.42,2.38,4.13h0c0,1.7-.91,3.28-2.38,4.13h0c-1.47.85-3.29.85-4.76,0Z"/>
        <path class="cls-1" d="M319.65,87.72h0c-1.47-.85-2.38-2.42-2.38-4.13h0c0-1.7.91-3.28,2.38-4.13h0c1.47-.85,3.29-.85,4.76,0h0c1.47.85,2.38,2.42,2.38,4.13h0c0,1.7-.91,3.28-2.38,4.13h0c-1.47.85-3.29.85-4.76,0Z"/>
      </g>
      <path class="cls-2" d="M90.61,196.27L9.51,149.44V55.79L90.61,8.97l81.1,46.82v93.65l-81.1,46.82ZM16.48,145.42l74.13,42.8,74.13-42.8V59.82L90.61,17.02,16.48,59.82v85.6Z"/>
      <path class="cls-2" d="M92.18,189.38c-30.39-17.12-50.97-49.7-50.97-87S63.14,30.39,95.16,13.76c-2.51-.99-4.76-2.47-6.65-4.32-32.37,18.36-54.27,53.14-54.27,92.94s21.57,74.07,53.55,92.54c1.13-2.07,2.62-3.94,4.39-5.53Z"/>
      <path class="cls-2" d="M8.12,64.49c12.27-4.12,25.4-6.35,39.05-6.35,55.15,0,101.94,36.47,117.53,86.56,1.94-1.27,4.11-2.24,6.41-2.85-16.71-52.52-65.95-90.68-123.94-90.68-13.97,0-27.43,2.22-40.05,6.32.57,1.82.91,3.74,1,5.72.02.43.02.86,0,1.29Z"/>
      <path class="cls-2" d="M165.08,55.67c-14.52,53.73-63.68,93.38-121.93,93.38-12.62,0-24.81-1.87-36.32-5.33.37,1.57.63,3.22.84,4.96.11.86.12,1.72.1,2.57,11.27,3.11,23.13,4.78,35.38,4.78,61.26,0,112.99-41.56,128.51-97.96-2.26-.4-4.53-1.25-6.58-2.39Z"/>
      <path class="cls-2" d="M92.4,9.67c-1.18,2.12-2.76,3.93-4.61,5.41,30.92,16.97,51.92,49.85,51.92,87.54s-21.47,71.29-52.95,88.09c.83.12,1.66.29,2.48.53,2.17.63,4.25,1.49,6.17,2.56,30.73-18.77,51.28-52.62,51.28-91.18S124.78,28.03,92.4,9.67Z"/>
      <circle class="cls-3" cx="90.18" cy="12.99" r="12.99"/>
      <circle class="cls-3" cx="168.23" cy="147.92" r="12.99"/>
      <circle class="cls-3" cx="12.99" cy="59.76" r="12.99"/>
      <circle class="cls-3" cx="168.23" cy="59.76" r="12.99"/>
      <circle class="cls-3" cx="136.59" cy="102.37" r="20.46"/>
      <circle class="cls-3" cx="12.99" cy="147.92" r="12.99"/>
      <circle class="cls-3" cx="90.18" cy="189.73" r="12.99"/>
    </g>
  </g>
</svg>