<?xml version="1.0" encoding="UTF-8" standalone="no"?><!DOCTYPE svg PUBLIC "-//W3C//DTD SVG 1.1//EN" "http://www.w3.org/Graphics/SVG/1.1/DTD/svg11.dtd"><svg width="100%" height="100%" viewBox="0 0 1081 1081" version="1.1" xmlns="http://www.w3.org/2000/svg" xmlns:xlink="http://www.w3.org/1999/xlink" xml:space="preserve" xmlns:serif="http://www.serif.com/" style="fill-rule:evenodd;clip-rule:evenodd;stroke-linecap:round;stroke-linejoin:round;stroke-miterlimit:1.5;"><rect id="_04_Community_Pink" serif:id="04_Community_Pink" x="0.786" y="0.513" width="1080" height="1080" style="fill:none;"/><clipPath id="_clip1"><rect x="0.786" y="0.513" width="1080" height="1080"/></clipPath><g clip-path="url(#_clip1)"><g id="Background"><rect x="0.786" y="0.513" width="1080" height="1080" style="fill:#fad6e4;"/></g><path d="M290.98,612.289l143.574,0c0,0 -5.251,-84.184 -67.966,-84.184c-62.715,-0 -75.608,60.105 -75.608,84.184Z" style="fill:#5cba9e;"/><g id="Fill"></g><g id="Outline"></g><path d="M194.667,669.133l0,-257.325m63.62,-107.858l219.547,-126.756m-0.448,726.378l-219.135,-126.517m565.071,-0l-219.135,126.517m282.719,-491.764l-0,257.325m-283.167,-491.939l219.547,126.756" style="fill:none;stroke:#020144;stroke-width:16.67px;"/><circle cx="194.667" cy="741.822" r="72.69" style="fill:#f084ad;stroke:#020144;stroke-width:16.67px;"/><circle cx="194.667" cy="339.118" r="72.69" style="fill:none;stroke:#020144;stroke-width:16.67px;"/><circle cx="886.906" cy="741.822" r="72.69" style="fill:#5db9f5;stroke:#020144;stroke-width:16.67px;"/><circle cx="886.906" cy="339.118" r="72.69" style="fill:#f084ad;stroke:#020144;stroke-width:16.67px;"/><circle cx="540.786" cy="140.849" r="72.69" style="fill:#5db9f5;stroke:#020144;stroke-width:16.67px;"/><circle cx="540.786" cy="939.132" r="72.69" style="fill:none;stroke:#020144;stroke-width:16.67px;"/><circle cx="528.358" cy="459.166" r="79.953" style="fill:#5db9f5;"/><path d="M409.124,716.893l244.317,0c-0,0 -8.936,-143.255 -115.657,-143.255c-106.72,0 -128.66,102.279 -128.66,143.255Z" style="fill:#f084ad;"/><circle cx="525.829" cy="460.559" r="79.953" style="fill:none;stroke:#020144;stroke-width:16.67px;"/><path d="M408.776,707.371c0,-0 7.414,-134.891 125.718,-134.891c110.58,-0 121.308,134.891 121.308,134.891" style="fill:none;stroke:#020144;stroke-width:16.67px;"/><circle cx="702.552" cy="446.036" r="49.899" style="fill:#5cba9e;"/><circle cx="360.122" cy="446.036" r="49.899" style="fill:#5cba9e;"/><circle cx="701.165" cy="448.844" r="49.899" style="fill:#f084ad;stroke:#020144;stroke-width:16.67px;"/><circle cx="358.735" cy="448.844" r="49.899" style="fill:#5db9f5;stroke:#020144;stroke-width:16.67px;"/><path d="M628.113,612.289c0,0 4.627,-84.184 78.46,-84.184c69.013,-0 75.708,84.184 75.708,84.184" style="fill:none;stroke:#020144;stroke-width:16.67px;"/><path d="M285.683,612.289c0,0 4.627,-84.184 78.46,-84.184c69.012,-0 75.708,84.184 75.708,84.184" style="fill:#f084ad;stroke:#020144;stroke-width:16.67px;"/></g></svg>