<?xml version="1.0" encoding="UTF-8" standalone="no"?><!DOCTYPE svg PUBLIC "-//W3C//DTD SVG 1.1//EN" "http://www.w3.org/Graphics/SVG/1.1/DTD/svg11.dtd"><svg width="100%" height="100%" viewBox="0 0 1081 1081" version="1.1" xmlns="http://www.w3.org/2000/svg" xmlns:xlink="http://www.w3.org/1999/xlink" xml:space="preserve" xmlns:serif="http://www.serif.com/" style="fill-rule:evenodd;clip-rule:evenodd;stroke-linecap:round;stroke-linejoin:round;stroke-miterlimit:1.5;"><rect id="_04_Community_Purple" serif:id="04_Community_Purple" x="0.786" y="0.902" width="1080" height="1080" style="fill:none;"/><clipPath id="_clip1"><rect x="0.786" y="0.902" width="1080" height="1080"/></clipPath><g clip-path="url(#_clip1)"><g id="Background"><rect x="0.786" y="0.902" width="1080" height="1080" style="fill:#d4d4fe;"/></g><path d="M290.98,612.679l143.574,-0c0,-0 -5.251,-84.185 -67.966,-84.185c-62.715,0 -75.608,60.105 -75.608,84.185Z" style="fill:#5cba9e;"/><g id="Fill"></g><g id="Outline"></g><path d="M194.667,669.522l0,-257.324m63.62,-107.858l219.547,-126.756m-0.448,726.378l-219.135,-126.518m565.071,0l-219.135,126.518m282.719,-491.764l-0,257.324m-283.167,-491.938l219.547,126.756" style="fill:none;stroke:#020144;stroke-width:16.67px;"/><circle cx="194.667" cy="742.212" r="72.69" style="fill:#5cba9e;stroke:#020144;stroke-width:16.67px;"/><circle cx="194.667" cy="339.508" r="72.69" style="fill:none;stroke:#020144;stroke-width:16.67px;"/><circle cx="886.906" cy="742.212" r="72.69" style="fill:#9492fd;stroke:#020144;stroke-width:16.67px;"/><circle cx="886.906" cy="339.508" r="72.69" style="fill:#5cba9e;stroke:#020144;stroke-width:16.67px;"/><circle cx="540.786" cy="141.238" r="72.69" style="fill:#9492fd;stroke:#020144;stroke-width:16.67px;"/><circle cx="540.786" cy="939.521" r="72.69" style="fill:none;stroke:#020144;stroke-width:16.67px;"/><circle cx="528.358" cy="459.555" r="79.953" style="fill:#9492fd;"/><path d="M409.124,717.283l244.317,-0c-0,-0 -8.936,-143.255 -115.657,-143.255c-106.72,-0 -128.66,102.279 -128.66,143.255Z" style="fill:#5cba9e;"/><circle cx="525.829" cy="460.949" r="79.953" style="fill:none;stroke:#020144;stroke-width:16.67px;"/><path d="M408.776,707.76c0,0 7.414,-134.891 125.718,-134.891c110.58,0 121.308,134.891 121.308,134.891" style="fill:none;stroke:#020144;stroke-width:16.67px;"/><circle cx="702.552" cy="446.426" r="49.899" style="fill:#5cba9e;"/><circle cx="360.122" cy="446.426" r="49.899" style="fill:#5cba9e;"/><circle cx="701.165" cy="449.234" r="49.899" style="fill:none;stroke:#020144;stroke-width:16.67px;"/><circle cx="358.735" cy="449.234" r="49.899" style="fill:#9492fd;stroke:#020144;stroke-width:16.67px;"/><path d="M628.113,612.679c0,-0 4.627,-84.185 78.46,-84.185c69.013,0 75.708,84.185 75.708,84.185" style="fill:none;stroke:#020144;stroke-width:16.67px;"/><path d="M285.683,612.679c0,-0 4.627,-84.185 78.46,-84.185c69.012,0 75.708,84.185 75.708,84.185" style="fill:none;stroke:#020144;stroke-width:16.67px;"/></g></svg>