<?xml version="1.0" encoding="UTF-8" standalone="no"?><!DOCTYPE svg PUBLIC "-//W3C//DTD SVG 1.1//EN" "http://www.w3.org/Graphics/SVG/1.1/DTD/svg11.dtd"><svg width="100%" height="100%" viewBox="0 0 1081 1080" version="1.1" xmlns="http://www.w3.org/2000/svg" xmlns:xlink="http://www.w3.org/1999/xlink" xml:space="preserve" xmlns:serif="http://www.serif.com/" style="fill-rule:evenodd;clip-rule:evenodd;stroke-linejoin:round;stroke-miterlimit:2;"><rect id="_07_GitHub_Green" serif:id="07_GitHub_Green" x="0.624" y="0" width="1080" height="1080" style="fill:none;"/><clipPath id="_clip1"><rect x="0.624" y="0" width="1080" height="1080"/></clipPath><g clip-path="url(#_clip1)"><g id="Background"><rect x="0.624" y="-0" width="1080" height="1080" style="fill:#def1ec;"/></g><path d="M540.963,136.303c-227.204,0 -410.877,185.027 -410.877,413.931c0,182.974 117.686,337.859 280.946,392.677c20.412,4.121 27.889,-8.906 27.889,-19.865c0,-9.596 -0.673,-42.489 -0.673,-76.761c-114.296,24.676 -138.097,-49.343 -138.097,-49.343c-18.368,-47.973 -45.584,-60.302 -45.584,-60.302c-37.409,-25.357 2.725,-25.357 2.725,-25.357c41.496,2.741 63.271,42.489 63.271,42.489c36.728,63.043 95.911,45.23 119.721,34.263c3.397,-26.728 14.289,-45.23 25.853,-55.508c-91.16,-9.596 -187.071,-45.231 -187.071,-204.227c0,-45.231 16.316,-82.236 42.17,-111.017c-4.079,-10.277 -18.369,-52.774 4.087,-109.653c0,-0 34.693,-10.967 112.917,42.489c33.49,-9.061 68.029,-13.67 102.723,-13.709c34.693,-0 70.058,4.802 102.715,13.709c78.233,-53.456 112.926,-42.489 112.926,-42.489c22.455,56.879 8.158,99.376 4.079,109.653c26.534,28.781 42.177,65.786 42.177,111.017c0,158.996 -95.911,193.941 -187.751,204.227c14.97,13.019 27.888,37.687 27.888,76.753c0,55.508 -0.673,100.057 -0.673,113.757c0,10.968 7.486,23.995 27.889,19.882c163.261,-54.835 280.946,-209.711 280.946,-392.685c0.673,-228.904 -183.672,-413.931 -410.196,-413.931Z" style="fill:#5cba9e;stroke:#020144;stroke-width:16.67px;"/></g></svg>