<?xml version="1.0" encoding="UTF-8" standalone="no"?><!DOCTYPE svg PUBLIC "-//W3C//DTD SVG 1.1//EN" "http://www.w3.org/Graphics/SVG/1.1/DTD/svg11.dtd"><svg width="100%" height="100%" viewBox="0 0 1081 1081" version="1.1" xmlns="http://www.w3.org/2000/svg" xmlns:xlink="http://www.w3.org/1999/xlink" xml:space="preserve" xmlns:serif="http://www.serif.com/" style="fill-rule:evenodd;clip-rule:evenodd;stroke-linecap:round;stroke-linejoin:round;stroke-miterlimit:1.5;"><rect id="_03_Open_Source_Pink" serif:id="03_Open_Source_Pink" x="0.524" y="0.022" width="1080" height="1080" style="fill:none;"/><clipPath id="_clip1"><rect x="0.524" y="0.022" width="1080" height="1080"/></clipPath><g clip-path="url(#_clip1)"><g id="Background"><rect x="0.524" y="0.022" width="1080" height="1080" style="fill:#fad6e4;"/></g><g id="Outline"><path d="M511.737,622.718l-70.883,176.103c-99.761,-46.539 -168.967,-147.765 -168.967,-265.027c0,-161.311 130.964,-292.274 292.274,-292.274c161.31,-0 292.274,130.963 292.274,292.274c-0,117.262 -69.206,218.488 -168.967,265.027c0,-0 -70.883,-176.103 -70.883,-176.103c30.398,-17.972 50.803,-51.084 50.803,-88.924c-0,-56.973 -46.255,-103.227 -103.227,-103.227c-56.972,0 -103.227,46.254 -103.227,103.227c0,37.84 20.405,70.952 50.803,88.924" style="fill:#5cba9e;stroke:#020144;stroke-width:16.67px;"/><circle cx="832.528" cy="342.717" r="77.255" style="fill:none;stroke:#f084ad;stroke-width:16.67px;"/><circle cx="253.656" cy="844.811" r="77.255" style="fill:none;stroke:#5db9f5;stroke-width:16.67px;"/><circle cx="730.627" cy="194.277" r="36.298" style="fill:none;stroke:#f084ad;stroke-width:16.67px;"/><circle cx="207.564" cy="686.515" r="36.298" style="fill:#f084ad;"/></g></g></svg>