<?xml version="1.0" encoding="UTF-8" standalone="no"?><!DOCTYPE svg PUBLIC "-//W3C//DTD SVG 1.1//EN" "http://www.w3.org/Graphics/SVG/1.1/DTD/svg11.dtd"><svg width="100%" height="100%" viewBox="0 0 1081 1081" version="1.1" xmlns="http://www.w3.org/2000/svg" xmlns:xlink="http://www.w3.org/1999/xlink" xml:space="preserve" xmlns:serif="http://www.serif.com/" style="fill-rule:evenodd;clip-rule:evenodd;stroke-linecap:round;stroke-linejoin:round;stroke-miterlimit:1.5;"><rect id="_04_Software_Development_Purple" serif:id="04_Software_Development_Purple" x="0.786" y="0.934" width="1080" height="1080" style="fill:none;"/><clipPath id="_clip1"><rect x="0.786" y="0.934" width="1080" height="1080"/></clipPath><g clip-path="url(#_clip1)"><g id="Background"><rect x="0.786" y="0.934" width="1080" height="1080" style="fill:#d4d4fe;"/></g><g id="Fill"><rect x="269.168" y="274.781" width="593.274" height="44.197" style="fill:#9492fd;"/><rect x="131.971" y="401.019" width="100.728" height="44.197" style="fill:#5cba9e;"/></g><g id="Outline"><rect x="269.168" y="274.781" width="593.274" height="405.528" style="fill:none;stroke:#020144;stroke-width:16.67px;"/><path d="M269.168,327.22l593.274,0" style="fill:none;stroke:#020144;stroke-width:16.67px;"/><path d="M131.348,448.247l97.719,-0" style="fill:none;stroke:#020144;stroke-width:16.67px;"/><path d="M228.851,401.559l-97.503,-0l0,405.528l593.275,-0l-0,-68.508" style="fill:none;stroke:#020144;stroke-width:16.67px;"/><path d="M585.714,410.453l-41.615,165.328" style="fill:none;fill-rule:nonzero;stroke:#5db9f5;stroke-width:16.67px;stroke-linejoin:miter;stroke-miterlimit:4;"/><path d="M523.073,449.408l-41.223,43.753l41.223,43.665m84.976,-87.418l41.223,43.753l-41.223,43.665" style="fill:none;fill-rule:nonzero;stroke:#5db9f5;stroke-width:16.67px;stroke-miterlimit:4;"/><path d="M310.481,300.551l13.622,-0" style="fill:none;stroke:#020144;stroke-width:16.67px;"/><path d="M354.202,300.551l13.622,-0" style="fill:none;stroke:#020144;stroke-width:16.67px;"/><path d="M175.269,424.797l13.622,-0" style="fill:none;stroke:#020144;stroke-width:16.67px;"/><path d="M598.759,753.611l351.325,-0c-0,-0 5.965,-51.745 -59.668,-73.302c-0,-0 0.741,-55.195 -66.638,-74.764c-67.379,-19.568 -99.284,30.776 -99.284,30.776c0,-0 -39.058,-1.33 -58.799,18.645c-19.742,19.975 -25.338,43.038 -25.338,43.038c-0,0 -48.363,3.921 -41.598,55.607Z" style="fill:#9492fd;stroke:#020144;stroke-width:16.67px;"/></g></g></svg>