<?xml version="1.0" encoding="UTF-8"?>
<svg xmlns="http://www.w3.org/2000/svg" viewBox="0 0 800 800">
  <defs>
    <style>
      .cls-1 {
        fill: #bee3fb;
      }

      .cls-1, .cls-2, .cls-3 {
        stroke-width: 0px;
      }

      .cls-2 {
        fill: #5cba9e;
      }

      .cls-4 {
        fill: none;
        stroke: #020144;
        stroke-linecap: round;
        stroke-linejoin: round;
        stroke-width: 6px;
      }

      .cls-3 {
        fill: #dff1fd;
      }
    </style>
  </defs>
  <g id="BK">
    <g>
      <path class="cls-3" d="M380.85,283.73s12.86,5.47,19.16,16.69h0c.13,1.52.25,3.03.37,4.55.48-.21.97-.42,1.46-.62,7.9-3.33,16.25-6.27,24.58-8.84-7.7-19.57-23.09-67.95,1.89-91.45-9.27-1.2-18.72-1.82-28.31-1.82-3.5,0-6.97.08-10.43.24h0c-19.12.9-37.59,4.25-55.11,9.75,12.69,13.44,22.84,31.08,28.98,54.03,7.18,4.58,12.63,10.43,17.42,17.47Z"/>
      <path class="cls-3" d="M450.28,431.06c56.92-38.89,136.73,10.65,164.69,30.63,2.48-13.18,3.78-26.79,3.78-40.7,0-35.71-8.56-69.42-23.73-99.2-85.75,3.04-161.68,86.62-189.72,119.14-7.14,8.28-11.18,13.25-11.49,12.75-21.08-33.66-7.25-62.68,10.57-82.62,16.01-17.92,35.25-28.5,35.25-28.5,40.63-63.09,123.22-49.3,123.22-49.3,3.72-2.04,7.43-3.67,11.11-4.91-24.93-32.64-58.84-58.07-98.04-72.58-20.54,19.64-37.34,45.17-44.15,78.13,33.53-9.78,65.26-13.76,65.26-13.76-51.97,16.73-137.43,124.84-137.43,124.84-39.47-36.44-4.73-59.14-4.73-59.14.79-4.33,2.56-8.41,5.13-12.25h0c-13.74-24.67-39.18-63.7-76.72-95.67t-.02-.01c-.44-.37-.88-.75-1.32-1.11-18.04,11.59-34.27,25.75-48.16,41.97,19.29-3.28,40.12-2.5,59.47,7.02,59.43,29.24,22.53,89.15,22.53,89.15-3.76-1.7-72.46-26.96-116.29-41.55-11.74,26.82-18.25,56.45-18.25,87.6,0,1.89.02,3.78.07,5.67,26.25-4.33,65.09-8.62,93.79-2.63-5.51-9.33-8.3-15.34-8.3-15.34l-15.79-7.89s71.81-7.78,102.18,21.6h0c.93.91,1.83,1.84,2.68,2.82,28.31,32.41,4.19,84.76,3.76,85.69h0c-10.98-6.02-21.02-13.2-30.1-20.93-1.12,3.23-2.58,6.67-4.41,10.35,0,0-13.93-8.34-34.44-19.18-6.04,28.73-52.88,84.09-53.86,85.24.19-.81,5.19-21.86-1.34-41.22-6.66-19.73-31.65-76.85,20.99-58.62,0,0,.8-.63,2.17-1.51-24.92-11.86-52.98-23.51-76.9-29.19,5.32,79.39,53.01,147.18,120.64,180.95-.1-1.71-.14-3.43-.14-5.16v-89.64h195.51v89.64c0,1.73-.04,3.45-.14,5.16,58.78-29.35,102.49-84.39,116.42-150.41-49.99-8.09-158.9,27.81-158.9,27.81,0,0-74.93-15.27-4.85-63.14Z"/>
    </g>
  </g>
  <g id="Fill">
    <g>
      <g>
        <path class="cls-1" d="M497.75,522v89.64c0,53.99-43.77,97.76-97.75,97.76s-97.76-43.77-97.76-97.76v-89.64h195.51Z"/>
        <path class="cls-2" d="M562.85,293.26c68.6-37.67,131.86,66.31,132.69,67.69-121.22-107.48-251.48,35.03-290.24,79.98-7.14,8.28-11.18,13.25-11.49,12.75-21.08-33.66-7.25-62.68,10.57-82.62,16.01-17.92,35.25-28.5,35.25-28.5,40.63-63.09,123.22-49.3,123.22-49.3Z"/>
        <path class="cls-2" d="M625.12,469.33c-42.34-17.2-169.99,24.87-169.99,24.87,0,0-74.93-15.27-4.85-63.14,69.65-47.59,173.57,37.23,174.84,38.27Z"/>
        <path class="cls-2" d="M462.47,191.08s11.61-56.99,140.37-36.94c0,0-147.14,23.95-171.07,139.76-1.78.52-3.56,1.05-5.35,1.61-9.99-25.38-32.9-99.2,36.05-104.43Z"/>
        <path class="cls-2" d="M363.43,266.26c7.18,4.58,12.63,10.43,17.42,17.47,0,0,12.86,5.47,19.16,16.69.13,1.51.25,3.03.37,4.55-17.46,7.5-32.6,16.94-40.38,28.61-13.74-24.66-39.18-63.69-76.72-95.66.66.43,22.13,14.21,48,17.74,13.89,1.89,24.11,5.45,32.15,10.6Z"/>
        <path class="cls-2" d="M308.56,443.37s34.58,7.59,20.97,46.61c-1.12,3.23-2.58,6.67-4.41,10.35,0,0-13.93-8.34-34.44-19.18.96-4.57.89-8.46-.56-11.36-8.67-17.35-25.51-8.61-31.48-4.75-36.27-17.25-79.17-34.08-106.3-32.69,0,0,75.28-18.23,122.76-8.32,15.03,3.14,27.27,9.09,33.46,19.34Z"/>
        <path class="cls-2" d="M293.25,285.79c59.43,29.24,22.53,89.15,22.53,89.15-5.28-2.39-138.76-51.28-151.34-51.76-12.58-.48-12.6,15.34-12.6,15.34,0,0-13.41-33.55,8.64-28.76,0,0,73.34-53.2,132.77-23.97Z"/>
      </g>
      <g>
        <path class="cls-4" d="M409.26,522h88.49v89.64c0,53.99-43.77,97.76-97.75,97.76s-97.76-43.77-97.76-97.76v-89.64h107.02Z"/>
        <path class="cls-4" d="M431.77,293.9c23.93-115.81,171.07-139.76,171.07-139.76-128.76-20.05-140.37,36.94-140.37,36.94-68.95,5.23-46.04,79.05-36.05,104.43"/>
        <path class="cls-4" d="M360,333.59c-2.57,3.84-4.34,7.92-5.13,12.25,0,0-34.74,22.7,4.73,59.14,0,0,18.74-23.71,44.01-50.64,28.69-30.57,65.79-65.3,93.42-74.2,0,0-31.73,3.98-65.26,13.76-1.78.52-3.56,1.05-5.35,1.61-8.33,2.57-16.68,5.51-24.58,8.84-.49.2-.98.41-1.46.62-17.46,7.5-32.6,16.94-40.38,28.61"/>
        <path class="cls-4" d="M290.68,481.15c20.51,10.84,34.44,19.18,34.44,19.18,1.83-3.68,3.29-7.12,4.41-10.35,13.61-39.02-20.97-46.61-20.97-46.61-6.19-10.25-18.43-16.2-33.46-19.34-47.48-9.91-122.76,8.32-122.76,8.32,27.13-1.39,70.03,15.44,106.3,32.69h.01"/>
        <path class="cls-4" d="M366.52,280.15c-.87-4.83-1.91-9.46-3.09-13.89-37.62-140.63-225.82-81.68-225.82-81.68,60.44-2.5,108.86,22.01,145.65,53.33"/>
        <path class="cls-4" d="M283.26,237.91s.01.01.02.01c.66.43,22.13,14.21,48,17.74,13.89,1.89,24.11,5.45,32.15,10.6,7.18,4.58,12.63,10.43,17.42,17.47,0,0,12.86,5.47,19.16,16.69.7,1.24,1.32,2.55,1.83,3.93"/>
        <path class="cls-4" d="M360,333.59h0c-13.74-24.67-39.18-63.7-76.72-95.67"/>
        <path class="cls-4" d="M695.55,360.96h-.01c-.83-1.39-64.09-105.37-132.69-67.7,0,0-82.59-13.79-123.22,49.3,0,0-19.24,10.58-35.25,28.5-17.82,19.94-31.65,48.96-10.57,82.62.31.5,4.35-4.47,11.49-12.75,38.76-44.95,169.02-187.46,290.24-79.98"/>
        <path class="cls-4" d="M625.13,469.34h-.01c-1.27-1.05-105.19-85.87-174.84-38.28-70.08,47.87,4.85,63.14,4.85,63.14,0,0,127.65-42.07,169.99-24.87"/>
        <path class="cls-4" d="M353.19,422.4c-30.37-29.38-102.18-21.6-102.18-21.6l15.79,7.89s2.79,6.01,8.3,15.34"/>
        <path class="cls-4" d="M329.53,489.98c9.08,7.73,19.12,14.91,30.1,20.94h0c.43-.94,24.55-53.29-3.76-85.7-.85-.98-1.75-1.91-2.68-2.81"/>
        <path class="cls-4" d="M315.78,374.94c-5.28-2.39-138.76-51.28-151.34-51.76-12.58-.48-12.6,15.34-12.6,15.34,0,0-13.41-33.55,8.64-28.76,0,0,73.34-53.2,132.77-23.97,59.43,29.24,22.53,89.15,22.53,89.15Z"/>
        <path class="cls-4" d="M236.81,566.41h.01s-.01-.02,0-.02c.19-.81,5.19-21.86-1.34-41.22-6.66-19.73-31.65-76.85,20.99-58.62,0,0,.8-.63,2.17-1.51,5.97-3.86,22.81-12.6,31.48,4.75,1.45,2.9,1.52,6.79.56,11.36-6.04,28.73-52.88,84.09-53.86,85.24"/>
        <path class="cls-4" d="M400,90.6s-39.46,22.86-16.83,67.49c0,0,44.98-22.99,16.83-67.49Z"/>
        <path class="cls-4" d="M383.17,158.09s15.89-17.37,11.25-27.8c-4.63-10.44-16.7,5.74-11.25,27.8Z"/>
        <path class="cls-4" d="M393.81,453.68s-3.85,4.37-8.76,12.67c-6.17,10.42-14.01,27.02-18.01,48.93-.4,2.19-.76,4.43-1.08,6.72"/>
        <line class="cls-4" x1="455.13" y1="494.2" x2="409.26" y2="522"/>
        <polyline class="cls-4" points="359.63 510.91 367.04 515.28 378.45 522"/>
        <path class="cls-4" d="M325.12,500.33s24.62,13.99,31.52,21.67"/>
        <path class="cls-4" d="M315.78,374.94s20.2,13.99,39.87,38.76c11.28,14.21,22.39,31.96,29.4,52.65,5.69,16.73,8.69,35.39,6.95,55.65"/>
        <path class="cls-4" d="M359.6,404.98s-1.75,2.23-3.95,8.72c-.78,2.32-1.62,5.19-2.46,8.7h0"/>
        <path class="cls-4" d="M405.3,440.93c-.47,28.02-2.08,55.52-5.3,81.07"/>
        <path class="cls-4" d="M404.38,371.06c-.22-5.6-.48-11.17-.76-16.71"/>
        <path class="cls-4" d="M383.17,158.09s10.24,61.92,16.84,142.33c.13,1.51.25,3.03.37,4.55"/>
      </g>
    </g>
  </g>
</svg>