<?xml version="1.0" encoding="UTF-8" standalone="no"?><!DOCTYPE svg PUBLIC "-//W3C//DTD SVG 1.1//EN" "http://www.w3.org/Graphics/SVG/1.1/DTD/svg11.dtd"><svg width="100%" height="100%" viewBox="0 0 2048 1536" version="1.1" xmlns="http://www.w3.org/2000/svg" xmlns:xlink="http://www.w3.org/1999/xlink" xml:space="preserve" xmlns:serif="http://www.serif.com/" style="fill-rule:evenodd;clip-rule:evenodd;stroke-linecap:round;stroke-linejoin:round;stroke-miterlimit:10;"><rect id="_01" serif:id="01" x="0" y="0" width="2048" height="1536" style="fill:none;"/><g id="_011" serif:id="01"><g id="background-circle" serif:id="background circle"><path d="M1601.41,816.01c-14.298,202.676 -131.828,377.044 -300.272,470.787c0.14,-2.275 0.216,-3.585 0.216,-3.585l-104.93,-278.608c0,-0 3.913,-4.631 3.618,-13.267c-0.212,-6.231 -34.014,-17.244 -52.831,-22.896l-5.87,-27.122c50.879,-38.027 83.84,-98.735 83.84,-167.08c-0,-115.055 -93.41,-208.465 -208.465,-208.465c-115.055,0 -208.465,93.41 -208.465,208.465c-0,68.346 32.961,129.054 83.841,167.081l-1.178,5.442c-28.348,12.007 -82.741,35.194 -93.708,40.956c-14.978,7.87 -4.824,16.886 -4.824,16.886l-89.112,264.927c-163.866,-103.983 -272.717,-287.026 -272.717,-495.292c-0,-12.36 0.383,-24.631 1.139,-36.803l269.026,0l0,-162.203l-1.206,-56.686l-210.316,-0c33.634,-69.198 80.485,-130.804 137.263,-181.526l0.687,117.603l240.014,-1.207l-0,-237.601l-5.671,-6.93c49.447,-13.565 101.498,-20.81 155.227,-20.81c43.766,0 86.418,4.807 127.457,13.922l-49.061,8.994l-12.061,20.504l-15.679,2.412l27.74,191.769l165.235,3.619c0,-0 12.674,10.909 21.71,10.854c9.036,-0.054 15.679,-9.648 15.679,-9.648l147.144,-0l-11.009,-67.886c54.254,54.977 97.734,120.611 127,193.461l-172.678,-42.355l-59.098,233.403l272.315,68.885Z" style="fill:#bee3d8;"/></g><g id="fill"><path d="M1099.36,746.724c4.537,-10.036 10.518,-26.523 8.991,-41.102c-2.395,-22.87 -23.066,-35.575 -23.066,-35.575l5.278,-15.834c0,0 -15.45,6.935 -30.695,3.416c-15.247,-3.517 -14.273,-14.787 -30.886,-14.982c-26.444,-0.311 -68.207,23.099 -68.207,23.099c0,-0 0.562,-18.588 -2.54,-13.682c-10.751,17.006 -30.521,25.217 -49.843,46.519c-19.322,21.305 -15.515,31.631 -15.515,31.631l5.685,17.05c0,-0 -10.804,1.01 -10.056,4.723c0.748,3.71 13.045,10.124 13.045,10.124c0,-0 -10.905,19.037 3.91,44.565c14.814,25.528 49.805,57.613 49.805,57.613l15.25,-21.428c-35.324,-18.144 -31.031,-44.768 -17.573,-49.382c6.175,-2.118 15.653,9.605 23.321,13.322c7.852,3.804 14.939,0.755 14.939,0.755l-6.016,-39.977c-0,0 10.9,-7.55 16.982,-18.07c6.081,-10.522 7.34,-24.011 7.34,-24.011c-0,0 20.388,0.374 35.539,-8.165c15.148,-8.537 25.06,-25.984 25.06,-25.984c-0,-0 22.236,13.342 26.684,37.973c0.822,4.556 1.715,10.495 2.568,17.402Z" style="fill:#020144;fill-rule:nonzero;"/><path d="M1298.94,1275.98c0,0 -6.745,21.787 -18.091,24.122c-11.347,2.335 -27.541,-2.302 -32.565,3.619c-5.024,5.92 -12.061,12.061 -12.061,12.061c0,-0 3.243,-9.038 -6.03,-7.237c-9.274,1.801 -24.122,8.443 -24.122,8.443c-0,-0 3.011,-4.54 -8.443,-4.825c-11.453,-0.285 -66.384,10.354 -82.014,8.443c-0,-0 92.545,9.632 109.754,8.443c17.21,-1.189 54.079,0.685 68.748,-20.504c10.855,-15.679 4.824,-32.565 4.824,-32.565" style="fill:#020144;fill-rule:nonzero;"/><path d="M821.264,1180.69c0,-0 3.409,29.052 -7.176,42.213c-10.584,13.161 -8.472,16.275 -8.442,24.122c0.03,7.847 3.372,7.237 3.372,7.237l31.605,-0l-15.68,-74.778l-3.679,1.206Z" style="fill:#020144;fill-rule:nonzero;"/><path d="M761.02,1291.65c0,-0 -4.214,34.678 3.618,36.602l-13.989,4.294c0,-0 4.65,-37.223 10.371,-40.896Z" style="fill:#020144;fill-rule:nonzero;"/><path d="M967.263,1013.05c-0,0 -31.196,-4.471 -44.626,8.443c-13.43,12.914 -9.649,-9.649 -9.649,-9.649l44.626,-7.236l9.649,8.442Z" style="fill:#020144;fill-rule:nonzero;"/><path d="M1016.71,1010.63c0,0 24.33,2.245 31.358,14.845c7.029,12.601 7.237,-12.433 7.237,-12.433l-26.534,-8.442l-12.061,6.03Z" style="fill:#020144;fill-rule:nonzero;"/><rect x="370.245" y="518.547" width="330.47" height="20.504" style="fill:#5cba9e;"/><path d="M660.914,630.714l0,33.77l-254.486,0l-0,-57.892c-0,-0 14.977,-2.338 26.534,14.473c11.557,16.811 17.126,31.784 25.328,24.122c8.202,-7.663 -0.845,-27.307 1.206,-32.565c2.051,-5.258 6.869,-12.97 30.152,12.061c23.284,25.032 33.771,15.679 33.771,15.679c0,0 20.88,9.577 37.389,3.619c16.509,-5.959 35.753,-28.196 53.068,-27.353c17.316,0.842 47.038,14.086 47.038,14.086Z" style="fill:#5cba9e;fill-rule:nonzero;"/><path d="M713.982,574.027l-12.061,0l0,164.029l-297.112,0l0,19.298l307.967,-0l1.206,-183.327Z" style="fill:#020144;fill-rule:nonzero;"/><path d="M823.737,162.939l0,51.671l43.697,0l-43.697,-51.671" style="fill:#020144;fill-rule:nonzero;"/><path d="M656.592,455.588l210.842,0l0,-216.856l12.99,0l-0,229.159l-223.832,-0l-0,-12.303Z" style="fill:#020144;"/><path d="M1295.32,401.555c-0,0 49.928,-45.622 132.671,-48.244l-3.619,-25.328c0,0 -52.553,5.407 -90.457,37.389c-37.904,31.983 -38.595,36.183 -38.595,36.183Z" style="fill:#020144;fill-rule:nonzero;"/><path d="M1427.99,418.441l-143.526,3.618l-173.678,-11.574l10.855,-8.93c0,0 64.898,-29.021 159.205,8.93c-0,0 59.273,-27.615 90.457,-24.609c31.185,3.006 64.094,10.855 64.094,10.855l-7.407,21.71Z" style="fill:#020144;fill-rule:nonzero;"/><path d="M1737.09,616.471l12.816,3.209l-59.099,236.029l-353.019,-88.393l3.769,-15.054l340.203,85.184l55.33,-220.975Z" style="fill:#020144;fill-rule:nonzero;"/></g><g id="man"><path d="M1016.74,877.79c21.27,9.62 33.16,11.653 44.268,11.014c12.971,-0.745 32.905,-5.128 38.178,-29.829c6.952,-32.569 3.935,-81.813 0.173,-112.251c4.537,-10.036 10.518,-26.523 8.991,-41.102c-2.395,-22.87 -23.066,-35.575 -23.066,-35.575l5.278,-15.834c0,0 -15.45,6.935 -30.695,3.416c-15.247,-3.517 -14.273,-14.787 -30.886,-14.982c-26.444,-0.311 -68.207,23.099 -68.207,23.099c0,-0 0.562,-18.588 -2.54,-13.682c-10.751,17.006 -30.521,25.217 -49.843,46.519c-19.322,21.305 -15.515,31.631 -15.515,31.631l5.685,17.05c0,-0 -10.804,1.01 -10.056,4.723c0.748,3.71 13.045,10.124 13.045,10.124c0,-0 -10.905,19.037 3.91,44.565c14.814,25.528 49.805,57.613 49.805,57.613l15.25,-21.428c-35.324,-18.144 -31.031,-44.768 -17.573,-49.382c6.175,-2.118 15.653,9.605 23.321,13.322c7.852,3.804 14.939,0.755 14.939,0.755l-6.016,-39.977c-0,0 10.9,-7.55 16.982,-18.07c6.081,-10.522 7.34,-24.011 7.34,-24.011c-0,0 20.388,0.374 35.539,-8.165c15.148,-8.537 25.06,-25.984 25.06,-25.984c-0,-0 22.236,13.342 26.684,37.973c0.822,4.556 1.715,10.495 2.568,17.402" style="fill:none;fill-rule:nonzero;stroke:#020144;stroke-width:6.25px;"/><path d="M1028.17,772.145c-0.56,-5.992 1.028,-11.038 3.548,-11.274c2.519,-0.237 5.018,4.429 5.577,10.42c0.562,5.99 -1.027,11.039 -3.546,11.275c-2.52,0.236 -5.017,-4.429 -5.579,-10.421Z" style="fill:#020144;fill-rule:nonzero;stroke:#020144;stroke-width:6.25px;"/><path d="M1081.27,761.25c-0.559,-5.992 1.028,-11.039 3.549,-11.275c2.52,-0.236 5.017,4.429 5.577,10.421c0.562,5.991 -1.026,11.038 -3.546,11.274c-2.521,0.237 -5.018,-4.429 -5.58,-10.42Z" style="fill:#020144;fill-rule:nonzero;stroke:#020144;stroke-width:6.25px;"/><path d="M1066.39,767.731c-0,0 10.896,18.504 15.045,26.978c5.929,12.107 -7.608,16.777 -7.608,16.777" style="fill:none;fill-rule:nonzero;stroke:#020144;stroke-width:6.25px;"/><path d="M1084.33,825.638c0,0 -11.002,7.787 -21.55,9.236c-10.551,1.45 -26.081,-5.07 -26.081,-5.07" style="fill:none;fill-rule:nonzero;stroke:#020144;stroke-width:6.25px;"/><path d="M1045.8,887.8l1.379,36.95c-0,0 -37.156,60.203 -55.838,95.973c-2.779,5.321 -5.149,10.101 -6.928,14.062c-2.542,5.664 5.143,11.096 5.143,11.096l-0.432,108.756" style="fill:none;fill-rule:nonzero;stroke:#020144;stroke-width:6.25px;stroke-linecap:butt;"/><path d="M991.341,1020.72c-8.308,-9.203 -26.698,-30.703 -36.436,-50.838c-5.664,-11.714 -14.808,-34.917 -9.815,-49.093c1.062,-3.015 5.127,-6.406 8.176,-8.617" style="fill:none;fill-rule:nonzero;stroke:#020144;stroke-width:6.25px;stroke-linecap:butt;"/><path d="M952.98,923.428l1.521,-59.85" style="fill:none;fill-rule:nonzero;stroke:#020144;stroke-width:6.25px;"/><path d="M1046.87,908.116c8.378,2.13 24.314,7.288 28.726,11.981c6.432,6.841 -10.972,17.22 -10.972,17.22l4.655,84.317c0,-0 -25.607,-16.205 -41.398,-17.095c-15.789,-0.892 -26.843,12.677 -26.843,12.677" style="fill:none;fill-rule:nonzero;stroke:#020144;stroke-width:6.25px;"/><path d="M950.828,905.66l-38.14,15.638l3.876,11.235l-12.018,82.033c-0,-0 28.353,-10.463 45.354,-11.142c16.998,-0.681 27.605,14.447 27.605,14.447" style="fill:none;fill-rule:nonzero;stroke:#020144;stroke-width:6.25px;"/><path d="M1077.83,938.459c0,-0 85.45,32.176 115.154,47.858c11.315,5.975 3.268,15.609 3.268,15.609c0,0 73.837,189.953 100.524,268.371c12.391,36.417 -14.317,49.257 -28.076,53.288c-45.66,13.382 -162.312,-6.13 -168.51,-7.182" style="fill:none;fill-rule:nonzero;stroke:#020144;stroke-width:6.25px;"/><path d="M1110.79,1250.65c0,0 1.771,-13.788 -7.355,-26.343c-9.125,-12.556 -18.422,-9.895 -26.857,-19.932c-4.581,-5.447 -11.231,-16.114 -11.231,-16.114c-0,0 -7.36,4.287 -7.167,10.812c0.196,6.525 7.939,15.291 7.939,15.291c-0,-0 11.82,9.077 15.165,17.84c3.348,8.766 -1.003,13.745 -9.195,16.635c-20.265,7.15 -71.502,12.98 -71.502,12.98c-0,-0 -5.843,0.386 -6.289,4.962c-0.449,4.578 4.311,6.057 4.311,6.057l69.956,-3.488l-82.193,14.914c-0,0 -4.637,2.697 -3.976,6.648c0.661,3.951 5.334,5.664 5.334,5.664l75.55,-7.818l-67.501,14.659c0,0 -4.166,0.811 -3.3,5.683c0.811,4.554 5.476,4.436 5.476,4.436l63.426,-6.793" style="fill:none;fill-rule:nonzero;stroke:#020144;stroke-width:6.25px;"/><path d="M1007.18,1312.55c-1.504,2.571 -2.589,5.981 1.86,6.425c13.821,1.384 44.93,1.309 66.356,1.057" style="fill:none;fill-rule:nonzero;stroke:#020144;stroke-width:6.25px;"/><path d="M1264.06,1237.5c-0,0 -20.08,-16.733 -39.512,-15.85c-19.433,0.883 -38.219,19.384 -38.219,19.384l-75.538,10.821" style="fill:none;fill-rule:nonzero;stroke:#020144;stroke-width:6.25px;"/><path d="M1185.18,1241.33c0.153,0.064 0.307,0.13 0.462,0.196c8.291,3.565 18.88,10.811 22.616,25.142c4.804,18.436 -0.864,47.878 -4.106,61.831m16.615,0.226c6.066,-11.422 14.658,-30.592 14.31,-47.007c-0.536,-25.278 -22.267,-44.025 -22.267,-44.025" style="fill:none;fill-rule:nonzero;stroke:#020144;stroke-width:6.25px;"/><path d="M1141.98,1141.67l43.664,99.858" style="fill:none;fill-rule:nonzero;stroke:#020144;stroke-width:6.25px;"/><path d="M1157.53,1177.23l-15.948,65.866" style="fill:none;fill-rule:nonzero;stroke:#020144;stroke-width:6.25px;"/><path d="M916.932,934.966c0,0 -92.534,36.656 -122.416,52.378c-10.04,5.283 -3.558,18.982 -3.558,18.982l-88.291,260.333c-0,0 -4.793,26.58 2.41,43.83c7.2,17.25 26.399,25.166 26.399,25.166l124.243,-20.119" style="fill:none;fill-rule:nonzero;stroke:#020144;stroke-width:6.25px;"/><path d="M840.554,1253.23l-42.48,1.031c-0,-0 -24.356,5.934 -36.224,26.686c-9.234,16.143 -10.911,41.252 -11.201,51.609" style="fill:none;fill-rule:nonzero;stroke:#020144;stroke-width:6.25px;"/><path d="M806.867,1254.04l-4.519,-9.4l-21.379,0.717" style="fill:none;fill-rule:nonzero;stroke:#020144;stroke-width:6.25px;"/><path d="M792.734,1244.97c-0.535,-2.847 -2.535,-7.354 -9.835,-7.484c-10.694,-0.191 -17.493,-4.2 -32.755,9.009c-15.262,13.209 -28.293,43.825 -28.293,43.825c-0,-0 -6.556,-13.711 -2.943,-23.063c3.614,-9.35 12.572,-16.753 12.572,-16.753" style="fill:none;fill-rule:nonzero;stroke:#020144;stroke-width:6.25px;"/><path d="M1109.16,1312.55c-0.724,0.252 -8.766,6.664 -36.17,7.87l-208.754,0c-4.383,0 -8.744,-3.459 -9.745,-7.726l-33.025,-140.87c-0.999,-4.267 1.741,-7.726 6.124,-7.726l208.754,0c4.383,0 8.746,3.459 9.745,7.726l18.579,79.247" style="fill:none;fill-rule:nonzero;stroke:#020144;stroke-width:6.25px;"/><path d="M928.093,1245.95c0,-7.097 5.754,-12.85 12.853,-12.85c7.096,0 12.849,5.753 12.849,12.85c0,7.096 -5.753,12.85 -12.849,12.85c-7.099,-0 -12.853,-5.754 -12.853,-12.85Z" style="fill:none;fill-rule:nonzero;stroke:#020144;stroke-width:6.25px;"/><path d="M1087.36,1258.43c2.81,1.075 0.774,8.428 -1.103,9.61" style="fill:none;fill-rule:nonzero;stroke:#020144;stroke-width:6.25px;"/><path d="M1085.94,1276.69c2.014,3.201 3.22,6.289 0.506,9.596" style="fill:none;fill-rule:nonzero;stroke:#020144;stroke-width:6.25px;"/><path d="M1086.67,1296.06c5.845,2.236 1.484,7.948 0.227,11.231" style="fill:none;fill-rule:nonzero;stroke:#020144;stroke-width:6.25px;"/><path d="M821.61,1089.95c-0,-0 2.487,43.231 11.93,74.141" style="fill:none;fill-rule:nonzero;stroke:#020144;stroke-width:6.25px;"/><path d="M958.82,808.01c-0,-0 -4.206,11.603 7.237,15.679" style="fill:none;stroke:#020144;stroke-width:6.25px;stroke-miterlimit:1.5;"/></g><g id="items"><path d="M1436.38,708.479l-38.882,-9.602l23.904,-96.808l259.244,64.015l-23.905,96.808l-77.32,-19.092l0.313,-0.919c0,-0 32.857,-15.34 32.791,-20.504c-0.066,-5.164 3.619,-14.473 3.619,-14.473l-12.061,7.236l-18.092,2.413l-1.206,-6.031l-7.519,-11.408c0,-0 -3.099,6.056 -3.336,12.614c-0.236,6.558 -9.071,9.762 -4.824,17.472l-6.103,9.546l-38.852,-9.594l-17.483,-18.63c-0,0 -9.411,-13.401 -6.904,-19.297c-0,-0 19.026,0.14 25.922,-13.267c6.897,-13.408 8.443,-34.977 8.443,-34.977l-45.832,-7.237l-12.061,15.679c0,0 -4.721,9.693 -1.206,14.474c3.516,4.78 -5.201,24.761 -12.061,27.74c-5.891,2.558 -22.122,11.396 -26.589,13.842Z" style="fill:#5cba9e;"/><rect x="747.078" y="336.655" width="77.972" height="65.17" style="fill:#bee3d8;fill-rule:nonzero;"/><path d="M700.112,573.499l0,164.632l-298.509,0l0,55.555l331.301,0l-0,-220.187l-32.792,-0Z" style="fill:none;fill-rule:nonzero;stroke:#020144;stroke-width:6.25px;"/><rect x="368.812" y="517.944" width="331.3" height="220.187" style="fill:none;fill-rule:nonzero;stroke:#020144;stroke-width:6.25px;"/><path d="M700.112,539.19l-331.3,0" style="fill:none;fill-rule:nonzero;stroke:#020144;stroke-width:6.25px;"/><path d="M396.251,528.83l-13.54,-0" style="fill:none;fill-rule:nonzero;stroke:#020144;stroke-width:6.25px;stroke-linecap:butt;"/><path d="M416.518,528.83l-13.54,-0" style="fill:none;fill-rule:nonzero;stroke:#020144;stroke-width:6.25px;stroke-linecap:butt;"/><path d="M436.785,528.83l-13.539,-0" style="fill:none;fill-rule:nonzero;stroke:#020144;stroke-width:6.25px;stroke-linecap:butt;"/><rect x="404.809" y="566.926" width="255.345" height="99.404" style="fill:none;fill-rule:nonzero;stroke:#020144;stroke-width:6.25px;"/><path d="M660.154,633.582c-14.902,-13.186 -37.716,-22.201 -57.079,-13.743c-23.322,10.185 -37.013,34.43 -66.261,26.038c-4.303,-1.234 -8.979,-3.207 -12.77,-5.629l-0.031,-0.021c-4.89,-3.128 -9.726,-7.164 -12.452,-12.374c-2.121,-4.048 -3.406,-8.527 -3.348,-13.123c0.398,-32.639 51.678,-17.77 40.421,6.636c-1.551,3.361 -3.833,6.658 -6.446,9.302c-4.963,5.025 -11.392,8.262 -18.144,9.58c-11.634,2.269 -24.23,-1.159 -31.952,-10.955c-6.351,-8.057 -14.456,-25.292 -27.311,-23.027c-13.966,2.461 -0.434,21.437 0.135,29.369c0.454,6.281 -6.53,11.325 -12.295,10.565c-9.487,-1.25 -12.603,-14.755 -17.245,-21.148c-6.165,-8.492 -18.78,-16.185 -30.567,-16.894" style="fill:none;fill-rule:nonzero;stroke:#020144;stroke-width:6.25px;"/><path d="M404.809,682.895l106.892,0" style="fill:none;fill-rule:nonzero;stroke:#020144;stroke-width:6.25px;stroke-linecap:square;"/><path d="M658.878,209.132l106.892,0" style="fill:none;fill-rule:nonzero;stroke:#5cba9e;stroke-width:6.25px;stroke-linecap:square;"/><path d="M658.878,280.572l166.171,0" style="fill:none;fill-rule:nonzero;stroke:#020144;stroke-width:6.25px;stroke-linecap:square;"/><path d="M658.878,309.148l166.171,0" style="fill:none;fill-rule:nonzero;stroke:#020144;stroke-width:6.25px;stroke-linecap:square;"/><path d="M658.878,352.012l43.603,0" style="fill:none;fill-rule:nonzero;stroke:#020144;stroke-width:6.25px;stroke-linecap:square;"/><path d="M404.809,697.425l65.067,0" style="fill:none;fill-rule:nonzero;stroke:#020144;stroke-width:6.25px;stroke-linecap:square;"/><path d="M658.878,223.42l65.067,0" style="fill:none;fill-rule:nonzero;stroke:#5cba9e;stroke-width:6.25px;stroke-linecap:square;"/><path d="M658.878,251.996l65.067,0" style="fill:none;fill-rule:nonzero;stroke:#5cba9e;stroke-width:6.25px;stroke-linecap:square;"/><path d="M658.878,323.436l65.067,0" style="fill:none;fill-rule:nonzero;stroke:#020144;stroke-width:6.25px;stroke-linecap:square;"/><path d="M658.878,366.301l65.067,-0" style="fill:none;fill-rule:nonzero;stroke:#020144;stroke-width:6.25px;stroke-linecap:square;"/><path d="M480.882,697.425l30.819,0" style="fill:none;fill-rule:nonzero;stroke:#5cba9e;stroke-width:6.25px;stroke-linecap:square;"/><path d="M522.56,697.425l81.171,0" style="fill:none;fill-rule:nonzero;stroke:#020144;stroke-width:6.25px;stroke-linecap:square;"/><path d="M404.809,711.955l106.892,0" style="fill:none;fill-rule:nonzero;stroke:#5cba9e;stroke-width:6.25px;stroke-linecap:square;"/><path d="M658.878,237.708l106.892,0" style="fill:none;fill-rule:nonzero;stroke:#5cba9e;stroke-width:6.25px;stroke-linecap:square;"/><path d="M658.878,266.284l106.892,0" style="fill:none;fill-rule:nonzero;stroke:#020144;stroke-width:6.25px;stroke-linecap:square;"/><path d="M658.878,294.86l166.171,0" style="fill:none;fill-rule:nonzero;stroke:#020144;stroke-width:6.25px;stroke-linecap:square;"/><path d="M658.878,337.724l43.603,0" style="fill:none;fill-rule:nonzero;stroke:#020144;stroke-width:6.25px;stroke-linecap:square;"/><path d="M658.878,380.589l43.603,-0" style="fill:none;fill-rule:nonzero;stroke:#020144;stroke-width:6.25px;stroke-linecap:square;"/><path d="M625.315,162.939l198.509,-0l43.61,52.477l0,240.172l-242.119,0l-0,-292.649Z" style="fill:none;fill-rule:nonzero;stroke:#020144;stroke-width:6.25px;stroke-linecap:butt;"/><path d="M823.824,162.939l0,52.877l43.61,0" style="fill:none;fill-rule:nonzero;stroke:#020144;stroke-width:6.25px;"/><path d="M1281.57,410.485l-24.752,-184.53c0,-0 -37.987,-22.009 -78.948,-25.376c-40.964,-3.368 -84.902,11.904 -84.902,11.904l26.314,186.409c0,0 43.707,-9.477 84.278,-6.578c40.57,2.897 78.01,18.171 78.01,18.171Z" style="fill:none;fill-rule:nonzero;stroke:#020144;stroke-width:6.25px;stroke-linecap:butt;"/><path d="M1256.82,225.955c0,-0 22.323,-34.854 60.467,-56.079c38.144,-21.227 93.361,-30.077 93.361,-30.077l24.749,186.095c0,0 -40.57,1.959 -78.948,23.184c-38.378,21.227 -74.877,61.407 -74.877,61.407l-24.752,-184.53Z" style="fill:none;fill-rule:nonzero;stroke:#020144;stroke-width:6.25px;stroke-linecap:butt;"/><path d="M1423.66,327.764l9.752,68.668l-3.382,20.829c0,0 -28.9,-10.353 -65.035,-9.774c-36.134,0.579 -79.501,12.087 -79.501,12.087l-11.031,0.234c0,0 -41.159,-12.22 -82.625,-14.552c-41.465,-2.331 -83.24,5.229 -83.24,5.229l-22.339,-176.859l6.716,-21.143" style="fill:none;fill-rule:nonzero;stroke:#020144;stroke-width:6.25px;stroke-linecap:butt;"/><path d="M1433.41,396.432c0,-0 -26.761,-14.259 -64.721,-10.744c-37.958,3.512 -87.114,24.797 -87.114,24.797" style="fill:none;fill-rule:nonzero;stroke:#020144;stroke-width:6.25px;stroke-linecap:butt;"/><path d="M1086.26,233.626l-16.338,2.241l24.846,189.916l166.755,3.913c-0,-0 8.358,11.159 19.071,10.722c10.715,-0.439 15.727,-9.526 15.727,-9.526l147.245,1.737l-13.52,-107.123" style="fill:none;fill-rule:nonzero;stroke:#020144;stroke-width:6.25px;stroke-linecap:butt;"/><path d="M1358.92,201.341c-0,-0 -21.956,6.925 -39.297,19.179c-17.344,12.252 -30.071,29.834 -30.071,29.834" style="fill:none;fill-rule:nonzero;stroke:#5cba9e;stroke-width:6.25px;"/><path d="M1334.34,242.903c-0,-0 -13.557,4.882 -24.265,13.518c-10.708,8.634 -18.568,21.025 -18.568,21.025" style="fill:none;fill-rule:nonzero;stroke:#5cba9e;stroke-width:6.25px;"/><path d="M1364.62,255.521c-0,0 -21.956,6.928 -39.297,19.179c-17.341,12.254 -30.071,29.837 -30.071,29.837" style="fill:none;fill-rule:nonzero;stroke:#5cba9e;stroke-width:6.25px;"/><path d="M1369.34,282.612c-0,0 -21.956,6.928 -39.297,19.18c-17.342,12.254 -30.071,29.836 -30.071,29.836" style="fill:none;fill-rule:nonzero;stroke:#5cba9e;stroke-width:6.25px;"/><path d="M1225.03,257.552c-0,0 -18.304,-5.553 -39.172,-7.42c-23.393,-2.093 -44.505,2.842 -44.505,2.842" style="fill:none;fill-rule:nonzero;stroke:#5cba9e;stroke-width:6.25px;"/><path d="M1228.17,280.811c-0,-0 -18.306,-5.553 -39.172,-7.42c-23.393,-2.092 -44.505,2.841 -44.505,2.841" style="fill:none;fill-rule:nonzero;stroke:#5cba9e;stroke-width:6.25px;"/><path d="M1230.6,304.105c-0,0 -18.304,-5.55 -39.172,-7.417c-23.393,-2.094 -44.505,2.841 -44.505,2.841" style="fill:none;fill-rule:nonzero;stroke:#5cba9e;stroke-width:6.25px;"/><path d="M1232.62,326.362c-0,0 -18.306,-5.55 -39.172,-7.417c-23.393,-2.094 -44.505,2.839 -44.505,2.839" style="fill:none;fill-rule:nonzero;stroke:#5cba9e;stroke-width:6.25px;"/><path d="M1387.24,513.196l353.019,88.393l-59.099,236.028l-353.019,-88.392l59.099,-236.029Z" style="fill:none;fill-rule:nonzero;stroke:#020144;stroke-width:6.25px;stroke-linecap:butt;"/><path d="M1399.77,532.586l88.547,22.173" style="fill:none;fill-rule:nonzero;stroke:#020144;stroke-width:6.25px;stroke-linecap:butt;"/><path d="M1396.7,544.82l57.379,14.367" style="fill:none;fill-rule:nonzero;stroke:#020144;stroke-width:6.25px;stroke-linecap:butt;"/><path d="M1349.8,732.158l316.815,79.328" style="fill:none;fill-rule:nonzero;stroke:#020144;stroke-width:6.25px;"/><path d="M1408.17,746.774c0.784,-3.126 3.954,-5.027 7.082,-4.246c3.127,0.784 5.027,3.954 4.243,7.083c-0.781,3.126 -3.953,5.027 -7.079,4.243c-3.127,-0.782 -5.027,-3.954 -4.246,-7.08Z" style="fill:none;fill-rule:nonzero;stroke:#020144;stroke-width:6.25px;stroke-linecap:butt;"/><path d="M1533.46,655.441c-2.524,11.296 -9.474,33.237 -25.877,37.032c-2.392,0.553 -4.715,0.459 -6.928,-0.086c-11.286,-2.78 -19.708,-17.27 -19.708,-17.27" style="fill:none;fill-rule:nonzero;stroke:#020144;stroke-width:6.25px;"/><path d="M1521.96,605.755c11.535,6.556 15.349,15.826 20.352,28.22c5.005,12.396 1.544,19.594 -4.057,22.088c-5.601,2.497 -18.347,-12.102 -18.347,-12.102c-0,0 -5.934,4.625 -12.459,5.797c-6.525,1.172 -13.639,-1.11 -13.639,-1.11l-5.922,14.066c0,-0 -1.652,-9.569 -5.061,-11.034c-3.408,-1.466 -7.687,1.043 -8.573,5.17c-0.887,4.129 2.885,11.11 2.885,11.11c0,0 -9.562,-5.553 -10.184,-26.898c-0.398,-13.641 8.658,-22.607 8.658,-22.607c-0,-0 -5.891,-4.026 -6.038,-6.807c-0.147,-2.779 -0.2,-6.902 6.093,-11.757c4.81,-3.713 10.896,-5.167 16.246,-3.539c5.35,1.631 5.155,10.061 5.155,10.061c-0,0 8.093,-10.206 24.891,-0.658Z" style="fill:none;fill-rule:nonzero;stroke:#020144;stroke-width:6.25px;"/><path d="M1477.14,667.96c0,0 -4.604,17.055 -9.993,22.176c-13.682,12.999 -31.245,18.166 -46.172,28.258c-10.617,7.181 -12.977,10.274 -13.455,11.462" style="fill:none;fill-rule:nonzero;stroke:#020144;stroke-width:6.25px;"/><path d="M1500.66,692.387c-0.128,3.289 -0.172,8.052 0.441,10.791c1.256,5.615 6.291,10.88 12.147,16.818c5.434,5.512 11.575,11.604 16.057,19.095c6.972,11.657 7.955,19.872 8.009,23.263" style="fill:none;fill-rule:nonzero;stroke:#020144;stroke-width:6.25px;"/><path d="M1513.25,719.996c-5.009,2.076 -15.762,5.329 -28.721,2.106c-13.445,-3.344 -29.264,-13.656 -36.412,-18.664" style="fill:none;fill-rule:nonzero;stroke:#020144;stroke-width:6.25px;"/><path d="M1565.32,769.366l14.637,-28.239c-0,-0 11.93,-2.349 20.168,-7.082c8.24,-4.733 10.073,-8.081 12.789,-11.851c2.714,-3.771 2.895,-5.64 2.895,-5.64c-0,-0 4.219,-8.539 0.053,-8.641c-4.166,-0.101 -21.541,10.646 -21.541,10.646l-9.468,-1.409c0,-0 -0.516,-11.01 -1.968,-13.712c-1.45,-2.702 -7.451,-3.868 -8.732,-1.094c-1.279,2.774 -1.209,10.756 -1.209,10.756c0,-0 -2.988,5.63 -3.705,10.247c-0.714,4.617 0.847,8.223 0.847,8.223l-25.501,32.604" style="fill:none;fill-rule:nonzero;stroke:#020144;stroke-width:6.25px;"/><path d="M1539.71,627.095c-0,0 8.873,16.201 6.479,20.504c-2.394,4.303 -7.173,12.021 -16.885,4.824c-9.713,-7.197 -9.649,-7.236 -9.649,-7.236c-0,-0 -8.901,6.115 -24.122,3.618l-7.237,13.267c0,0 -2.509,-14.62 -9.648,-9.649l-6.031,9.649c0,0 -10.324,-15.398 -3.618,-31.358c6.705,-15.96 7.236,-12.061 7.236,-12.061c0,-0 -15.85,-8.432 2.413,-20.504c18.263,-12.072 16.325,5.643 18.091,7.237c0,-0 22.059,-8.989 33.771,7.236c11.711,16.225 9.2,14.473 9.2,14.473Z" style="fill:#020144;fill-rule:nonzero;"/><path d="M659.004,455.588l218.954,31.459l41.62,-289.675l-46.962,-6.747" style="fill:none;stroke:#020144;stroke-width:6.25px;"/></g><g id="deco"><circle cx="460.099" cy="936.459" r="48.847" style="fill:#5cba9e;"/><circle cx="538.115" cy="860.611" r="18.83" style="fill:#5cba9e;"/><circle cx="948.273" cy="415.844" r="18.83" style="fill:#5cba9e;"/><circle cx="1506.41" cy="436.518" r="34.962" style="fill:#5cba9e;"/><circle cx="1646.63" cy="408.748" r="16.929" style="fill:#5cba9e;"/><circle cx="1390.44" cy="1028.19" r="16.929" style="fill:#5cba9e;"/><circle cx="740.219" cy="1087.12" r="48.847" style="fill:none;stroke:#5cba9e;stroke-width:12.5px;stroke-miterlimit:1.5;"/><circle cx="1564.56" cy="981.52" r="48.847" style="fill:none;stroke:#5cba9e;stroke-width:12.5px;stroke-miterlimit:1.5;"/><circle cx="620.2" cy="313.803" r="31.651" style="fill:none;stroke:#5cba9e;stroke-width:12.5px;stroke-miterlimit:1.5;"/></g><g id="java-duke" serif:id="java duke"><path d="M785.841,328.079c-1.766,3.302 -3.534,6.606 -5.14,9.988c-4.99,10.505 -11.071,23.024 -14.769,34.522c-2.281,7.09 -3.754,12.032 -3.15,19.32c0.279,3.377 3.528,4.72 6.428,4.726c6.446,0.012 10.135,-6.662 16.912,-6.662c6.777,-0 10.467,6.674 16.913,6.662c2.9,-0.006 6.148,-1.349 6.428,-4.726c0.603,-7.288 -0.87,-12.23 -3.15,-19.32c-3.698,-11.498 -9.779,-24.017 -14.769,-34.522c-1.607,-3.382 -3.937,-6.686 -5.703,-9.988Z" style="fill:none;fill-rule:nonzero;stroke:#020144;stroke-width:6.25px;stroke-linecap:square;"/><path d="M801.041,358.7l7.181,3.657l-2.813,7.877l-4.368,-11.534Z" style="fill:#020144;fill-rule:nonzero;"/><path d="M771.086,358.7l-7.181,3.657l2.813,7.877l4.368,-11.534Z" style="fill:#020144;fill-rule:nonzero;"/><path d="M772.271,356.229l27.462,0" style="fill:none;fill-rule:nonzero;stroke:#020144;stroke-width:6.25px;"/><ellipse cx="786.002" cy="359.7" rx="8.145" ry="6.345" style="fill:#5cba9e;stroke:#020144;stroke-width:6.86px;"/><path d="M799.733,356.229l-6.14,0c-0,0 -3.504,-3.211 -7.591,-2.874c-4.088,0.336 -6.025,1.75 -7.039,2.874c-1.013,1.124 -6.692,0 -6.692,0l13.731,-28.15l13.731,28.15Z" style="fill:#020144;fill-rule:nonzero;"/><path d="M806.534,365.17c-0,0 7.025,2.534 7.315,5.064c0.289,2.531 -3.376,6.19 -3.376,6.19" style="fill:none;fill-rule:nonzero;stroke:#020144;stroke-width:6.25px;"/><path d="M765.593,365.17c0,0 -7.025,2.534 -7.314,5.064c-0.29,2.531 3.376,6.19 3.376,6.19" style="fill:none;fill-rule:nonzero;stroke:#020144;stroke-width:6.25px;"/><path d="M811.598,374.736c-0,-0 3.388,2.4 1.688,5.626c-1.7,3.226 1.24,0.89 1.125,2.814c-0.115,1.924 -3.921,3.44 -4.813,1.688c-0.891,-1.753 -3.064,-10.128 -3.064,-10.128c-0,-0 3.26,-1.693 5.064,-0Z" style="fill:#020144;fill-rule:nonzero;"/><path d="M760.529,374.736c0,-0 -3.388,2.4 -1.688,5.626c1.7,3.226 -1.24,0.89 -1.125,2.814c0.115,1.924 3.921,3.44 4.813,1.688c0.891,-1.753 3.064,-10.128 3.064,-10.128c0,-0 -3.26,-1.693 -5.064,-0Z" style="fill:#020144;fill-rule:nonzero;"/></g></g></svg>