<?xml version="1.0" encoding="UTF-8" standalone="no"?><!DOCTYPE svg PUBLIC "-//W3C//DTD SVG 1.1//EN" "http://www.w3.org/Graphics/SVG/1.1/DTD/svg11.dtd"><svg width="100%" height="100%" viewBox="0 0 1281 960" version="1.1" xmlns="http://www.w3.org/2000/svg" xmlns:xlink="http://www.w3.org/1999/xlink" xml:space="preserve" xmlns:serif="http://www.serif.com/" style="fill-rule:evenodd;clip-rule:evenodd;stroke-linecap:round;stroke-linejoin:round;stroke-miterlimit:2.99419;"><rect id="_04---Small-tree" serif:id="04 - Small tree" x="0.852" y="0" width="1280" height="960" style="fill:none;"/><g id="bg"><path d="M408.773,382.053c-0.24,-0.08 -0.481,-0.16 -0.721,-0.24c-0.979,-0.326 -45.271,9.333 -70.963,27.317c-25.702,17.992 -67.342,18.184 -87.603,85.72c-6.17,20.565 -10.583,18.783 -18.84,51.809c-0.211,0.847 -1.266,2.778 -2.492,6.023c-2.033,-14.085 -3.08,-28.427 -3.08,-42.974c0,-194.084 186.304,-351.656 415.778,-351.656c229.474,0 415.777,157.572 415.777,351.656c0,133.163 -87.701,249.138 -216.875,308.825c11.314,-21.383 34.198,-19.393 38.672,-51.598c36.073,-14.338 7.562,-23.211 5.646,-23.306c-30.152,-1.508 -29.641,-4.612 -59.58,-6.818c-4.964,-30.944 2.213,-64.052 4.258,-64.209c10.139,-0.78 31.411,11.835 59.605,-21.058c5.449,-6.357 42.391,-37.58 28.197,-96.724c-10.634,-44.308 -98.564,-107.372 -174.533,-58.535c-45.92,29.52 -93.591,21.258 -58.177,92.085c13.9,27.8 30.876,30.789 42.473,48.184c8.364,12.546 -48.3,19.193 -54.965,21.415c-1.152,0.383 -5.983,-0.087 -8.002,1.954c-0.495,-0.172 -1.024,-0.352 -1.591,-0.541c-7.854,-2.618 -18.713,-18.624 -18.86,-45.064c15.833,-6.413 39.836,-19.805 34.559,-26.84c-19.902,-26.536 -15.49,-48.417 -38.307,-89.488c-23.095,-41.571 -16.984,-52.193 -92.627,-81.01c-18.754,-7.144 -30.139,-11.339 -38.751,-14.012c-0.022,-5.12 1.351,-9.77 8.421,-5.419c10.805,6.65 33.727,4.829 41.294,-2.737c7.622,-7.623 10.164,-4.579 18.023,-15.058c0.938,-1.25 12.044,-11.312 15.97,-19.163c12.077,-24.155 11.47,-35.924 20.304,-50.648c9.419,-15.697 -5.12,-113.169 -121.827,-96.959c-38.351,5.326 -31.615,43.155 -36.502,52.928c-17.492,34.984 1.133,46.426 -2.966,55.21c-23.328,49.99 -29.881,45.512 -39.696,58.861c-0.081,0.109 -0.91,0.827 -2.019,2.07Zm203.377,336.832c0.53,0.636 1.1,1.283 1.712,1.94c11.708,7.961 40.228,21.345 58.637,31.579c9.216,5.123 8.056,9.457 16.697,11.926c15.17,4.334 2.595,16.083 21.415,31.765c2.127,1.773 23.182,18.325 23.913,18.203c5.116,-0.853 3.683,5.069 -1.428,4.283c-35.556,-5.47 -35.637,-1.047 -71.74,-2.141c-37.39,-1.133 -37.286,3.548 -74.239,-1.071c-5.129,-0.641 -4.935,-0.005 -9.993,0.357c3.116,-16.214 6.147,-34.12 2.906,-50.703c-0.66,-3.376 -1.624,-6.667 -2.773,-9.964c11.71,-14.052 7.121,-8.244 12.747,-18.097c4.213,-7.377 -9.109,-6.184 12.722,-11.642c2.685,-0.671 5.59,-3.138 9.424,-6.435Z" style="fill:#def1ec;"/><circle cx="232.572" cy="480" r="34.371" style="fill:#5cba9e;"/><circle cx="266.943" cy="412.457" r="14.503" style="fill:#5cba9e;"/><circle cx="1059.7" cy="505.887" r="25.887" style="fill:none;stroke:#5cba9e;stroke-width:8.33px;"/><g id="Layer9"></g></g><g id="color"><g id="color1" serif:id="color"></g><path d="M588.038,261.14c1.376,2.527 3.668,22.984 19.902,37.189c4.748,4.154 9.091,11.227 22.817,12.053c-3.406,-8.765 -2.499,-11.759 -2.374,-11.763c0.818,-0.023 11.762,-0.336 9.569,-3.624c-21.798,-32.698 30.039,-63.336 -19.573,-89.601c1.367,-0.273 7.349,-2.604 10.149,-4.204c4.152,-2.373 6.19,-5.87 6.562,-6.509c-2.19,-0.083 -29.266,-3.941 -55.132,-19.299c-42.844,-25.438 -55.79,-29.535 -84.526,-13.918c-2.4,1.304 -9.314,8.218 -10.757,9.304c-2.054,-3.731 -2.328,-3.435 -5.153,-6.695c-0.838,7.042 0.808,8.267 -5.112,12.034c-25.79,16.412 -25.075,41.571 -28.562,59.009c-1.971,9.854 1.839,12.353 4.366,37.401c5.004,-13.059 23.984,-4.893 22.746,3.775c-1.808,12.656 2.344,16.649 7.829,11.163c0.954,-0.953 0.444,-1.287 8.844,-14.353c9.454,-14.706 12.494,-10.21 13.919,-9.714c24.679,8.584 52.302,-15.24 53.368,-16.391c-0.296,14.577 -1.128,14.475 -7.334,27.534c3.582,0.347 25.062,6.437 36.462,-16.362" style="fill:#020144;"/><path d="M655.738,609.909c-0.715,4.063 -17.254,32.879 7.376,49.3c5.707,3.804 70.324,-20.431 88.143,-16.16c-29.979,-59.437 -55.332,-47.502 -64.859,-87.516c-0.988,-4.149 -1.243,-9 -1.243,-9c0,-0 9.051,-1.524 16.895,-3.627c2.904,11.593 5.753,37.402 37.044,45.225c22.668,5.667 31.544,-9.651 40.686,-21.078c1.292,-1.616 0.621,-1.978 11.274,-23.284c2.256,-4.513 0.721,-4.874 2.941,-9.314c0.421,-0.842 0.85,-0.073 10.67,-4.953c-18.001,42.468 -22.469,42.839 -16.797,59.855c0.674,2.023 16.694,14.451 41.666,6.127c1.955,-0.652 1.989,-0.278 24.755,-7.108c2.679,-0.804 26.703,-8.011 33.74,-9.17c3.636,5.422 6.067,6.945 8.305,11.086c-21.213,6.087 -21.835,8.526 -47.683,30.682c-13.961,11.967 -19.892,47.048 -20.631,51.418c15.479,3.062 15.676,4.318 30.68,-0.683c11.596,-3.866 11.847,-4.731 23.529,-1.226c13.126,3.938 29.104,7.34 45.343,-11.764c5.158,-6.069 2.091,-16.365 17.402,-24.02c4.535,-2.268 27.704,-20.917 28.888,-36.31c0.419,-5.445 -1.349,-25.902 -9.518,-43.188c-3.709,-7.849 -0.837,-16.801 -6.87,-23.932c-23.855,-28.192 -31.893,-27.66 -41.502,-62.894c-4.826,-17.693 -7.198,-5.275 -45.94,-50.473c-14.567,-16.995 -29.803,-11.993 -57.655,-21.681c-5.716,-1.988 -36.815,-0.853 -44.117,5.638c-6.755,6.005 -10.091,5.679 -19.608,15.196c-10.123,10.123 -18.263,-6.027 -52.479,21.346l-5.853,8.555c-13.907,31.017 -12.263,34.022 -29.412,66.176l-4.411,4.412c1.2,2.401 0.312,2.287 -0.981,4.656l-2.083,2.084c-4.48,11.456 -9.652,30.313 -9.652,30.313c0.479,13.452 2.035,29.788 2.035,29.788c-0,-0 5.671,11.566 9.455,24.824" style="fill:#5cba9e;"/><path d="M296.16,643.44c-5.044,-0.744 -4.361,-3.971 -62.379,-13.037c-8.142,-1.272 -31.365,-1.606 -31.419,-1.802c-0.369,-1.353 0.563,-1.27 3.734,-17.126c2.154,-10.767 6.414,-6.567 17.383,-6.567c15.652,0 62.617,4.59 94.127,20.345c0.259,0.13 2.72,1.184 2.957,1.285c-1.363,1.742 -8.772,11.212 -22.658,15.84" style="fill:#5cba9e;"/><path d="M379.886,389.887c9.258,18.516 38.366,46.096 80.032,49.828c19.413,1.738 57.215,9.017 73.006,-28.408c-11.759,-5.071 -20.622,-11.247 -21.36,-8.049c-1.325,5.742 1.982,12.621 -11.848,17.94c-24.892,9.574 -96.987,-11.436 -99.046,-31.992c2.393,-1.866 9.44,-5.887 5.789,-7.105c-5.268,-1.755 -19.678,6.689 -23.695,6.94" style="fill:#5cba9e;"/><path d="M656,607.634c-4.571,2.519 -9.151,4.795 -13.04,6.253c-19.661,7.373 -19.577,7.574 -21.309,7.72c0.528,-1.659 2.414,-7.574 4.705,-21.249c6.345,-1.195 14.749,-4.617 21.473,-8.317c3.277,9.494 7.462,14.744 8.171,15.593Z" style="fill:#5cba9e;"/></g><g id="Tree"><path d="M824.3,736.984c22.07,1.2 40.753,3.443 53.322,6.326c10.836,2.484 17.128,5.444 17.128,8.62c-0,1.167 -0.85,2.305 -2.463,3.402c-2.44,1.658 -6.627,3.219 -12.26,4.641c-18.663,4.708 -53.202,7.872 -92.69,7.872c-39.488,0 -74.027,-3.164 -92.69,-7.872c-5.633,-1.422 -9.82,-2.983 -12.26,-4.641c-1.613,-1.097 -2.463,-2.235 -2.463,-3.402c0,-3.176 6.292,-6.136 17.128,-8.62c12.646,-2.9 31.482,-5.154 53.728,-6.348" style="fill:none;stroke:#020144;stroke-width:4.17px;stroke-miterlimit:1.5;"/><path d="M825.154,743.834c22.739,1.269 41.817,3.649 54.213,6.692c5.966,1.465 10.385,3.083 12.92,4.806c1.613,1.096 2.463,2.234 2.463,3.401c-0,3.001 -5.619,5.81 -15.383,8.206c-18.81,4.618 -53.004,7.709 -92.03,7.709c-39.026,-0 -73.22,-3.091 -92.03,-7.709c-9.763,-2.396 -15.383,-5.205 -15.383,-8.206c0,-1.167 0.85,-2.305 2.463,-3.401c2.535,-1.723 6.954,-3.341 12.92,-4.806c12.31,-3.022 31.208,-5.39 53.737,-6.666" style="fill:none;stroke:#020144;stroke-width:4.17px;stroke-miterlimit:1.5;"/><path d="M879.367,766.939c-3.333,20.106 -18.753,37.507 -40.789,48.208m-102.482,0c-22.036,-10.701 -37.456,-28.102 -40.789,-48.208" style="fill:none;stroke:#020144;stroke-width:4.17px;stroke-miterlimit:1.5;"/><path d="M898.584,589.944c-15.081,3.51 -38.834,16.114 -48.843,27.943c-12.216,14.436 -19.32,34.161 -23.074,54.427c-4.304,23.227 -4.208,47.166 -2.367,64.67c0.254,2.412 0.541,4.701 0.854,6.85c1.178,8.088 2.727,14.18 4.276,17.279" style="fill:none;stroke:#020144;stroke-width:4.17px;stroke-miterlimit:1.5;"/><path d="M744.697,759.16c0.484,-1.59 0.954,-3.163 1.409,-4.719c0.591,-2.021 1.157,-4.013 1.699,-5.978c0.428,-1.552 0.841,-3.086 1.239,-4.603c0.614,-2.339 1.192,-4.638 1.736,-6.898c2.264,-9.4 3.935,-18.121 5.083,-26.228c0.61,-4.31 1.072,-8.447 1.397,-12.42c0.817,-10.006 0.763,-18.978 0.003,-27.079c-0.47,-5.015 -1.21,-9.695 -2.181,-14.081m-3.678,-12.61c-2.639,-7.18 -5.951,-13.455 -9.673,-19.079m-12.748,-15.822c-2.18,-2.304 -4.395,-4.51 -6.61,-6.649c-14.841,-14.332 -29.717,-25.724 -34.333,-44.189c-1.286,-5.143 -2.264,-9.376 -3.108,-13.006" style="fill:none;stroke:#020144;stroke-width:4.17px;stroke-miterlimit:1.5;"/><path d="M700.778,541.756c3.622,14.032 7.42,28.245 16.745,35.498c7.356,5.721 45.657,42.326 77.7,-44.577" style="fill:none;stroke:#020144;stroke-width:4.17px;stroke-miterlimit:1.5;"/><path d="M804.914,529.114c-10.58,29.836 -23.577,39.033 -19.85,56.736c3.239,15.386 31.988,14.204 56.646,6.395c23.571,-7.464 37.429,-11.347 48.798,-12.692" style="fill:none;stroke:#020144;stroke-width:4.17px;stroke-miterlimit:1.5;"/><path d="M826.667,672.314c19.566,8.577 37.44,-5.828 49.123,-3.046c9.472,2.255 35.345,15.323 54.054,-14.077c5.892,-9.259 -0.183,-13.836 9.853,-18.017c19.35,-8.063 46.169,-40.934 28.434,-70.946c-9.56,-16.178 -1.694,-29.948 -16.891,-43.073c-26.948,-23.273 -29.581,-35.782 -30.405,-39.696c-8.097,-38.458 -24.862,-29.575 -42.511,-55.461c-18.464,-27.081 -31.742,-24.307 -50.112,-25.619c-0.05,-0.004 -23.091,-7.601 -34.91,-7.601c-26.236,-0 -48.42,26.398 -52.364,27.308c-1.333,0.307 -15.18,-1.056 -33.22,7.32c-27.354,12.7 -24.819,58.636 -55.129,95.215c-12.344,31.048 -9.503,53.679 -4.76,67.42l8.276,15.716m-0.105,-0.123c0.068,0.082 0.105,0.123 0.105,0.123c-0.006,1.341 -0.153,2.61 -0.47,3.798c-0.825,3.092 -14.135,23.235 5.63,45.326c0.985,1.1 2.001,2.112 3.045,3.041m162.357,12.392c19.566,8.577 37.44,-5.828 49.123,-3.046c9.472,2.255 35.345,15.323 54.054,-14.077c5.892,-9.259 -0.183,-13.836 9.853,-18.017c19.35,-8.063 46.169,-40.934 28.434,-70.946c-9.56,-16.178 -1.694,-29.948 -16.891,-43.073c-26.948,-23.273 -29.581,-35.782 -30.405,-39.696c-8.097,-38.458 -24.862,-29.575 -42.511,-55.461c-18.464,-27.081 -31.742,-24.307 -50.112,-25.619c-0.05,-0.004 -23.091,-7.601 -34.91,-7.601c-26.236,-0 -48.42,26.398 -52.364,27.308c-1.333,0.307 -15.18,-1.056 -33.22,7.32c-27.354,12.7 -24.819,58.636 -55.129,95.215m77.597,140.365c5.565,2.724 15.208,6.913 27.077,6.249" style="fill:none;stroke:#020144;stroke-width:4.17px;stroke-miterlimit:1.5;"/><path d="M816.813,517.34c-16.466,22.653 -31.405,14.892 -39.28,10.973c-0.979,5.674 -1.666,9.672 -11.995,13.115c-0.583,0.195 -8.072,1.451 -10.068,0.12" style="fill:none;stroke:#020144;stroke-width:4.17px;stroke-miterlimit:1.5;"/><path d="M725.579,515.538c-2.588,5.976 -21.377,37.807 -52.805,28.827" style="fill:none;stroke:#020144;stroke-width:4.17px;stroke-miterlimit:1.5;"/><path d="M853.645,554.279c0.818,2.746 9.164,12.529 32.679,10.52c1.801,25.922 27.86,35.354 31.044,36.31" style="fill:none;stroke:#020144;stroke-width:4.17px;stroke-miterlimit:1.5;"/></g><g id="developer"><path d="M612.888,305.012c-6.522,19.699 -18.776,52.473 -31.36,67.574c-7.035,8.442 -25.702,34.934 -54.545,28.278c-5.571,-1.286 -10.755,-3.547 -15.541,-6.472c-25.281,-15.449 -39.473,-49.396 -41.144,-55.69" style="fill:none;stroke:#020144;stroke-width:4.17px;stroke-miterlimit:1.5;"/><path d="M473.215,273.973c-5.082,-8.72 -16.662,-13.529 -22.765,0.783c-0.174,0.408 -0.344,0.832 -0.509,1.272c-7.785,20.76 -2.743,32.533 2.97,39.031c3.337,3.795 6.903,5.791 8.276,6.727" style="fill:none;stroke:#020144;stroke-width:4.17px;stroke-miterlimit:1.5;"/><path d="M477.153,174.152c0.012,-0.966 -0.1,-3.222 0.81,-11.898c3.601,4.943 3.536,4.837 7.938,8.987c8.584,-15.252 35.444,-23.061 50.612,-18.235c34.545,10.991 46.26,31.504 99.612,40.901c-2.711,3.743 -1.787,7.158 -16.205,11.505c19.658,8.837 22.754,32.889 20.129,43.763c-5.771,23.909 -12.277,28.675 -0.775,48.084c-0.799,0.228 -0.652,1.46 -12.274,0.975c2.054,6.192 1.842,6.121 3.937,12.403c-2.015,-0.093 -8.86,1.604 -18.049,-5.625c-3.735,-2.938 -7.856,-7.351 -12.198,-13.957c-4.628,-7.043 -10.883,-14.814 -12.991,-32.38c-9.267,14.415 -19.644,15.251 -37.57,16.906c3.584,-7.622 5.231,-7.125 8.33,-28.568c-16.792,13.427 -27.375,21.523 -61.625,16.884c-1.158,2.224 -22.544,43.267 -24.305,19.79c-0.395,-5.267 -0.252,-6.437 0.686,-9.714" style="fill:none;stroke:#020144;stroke-width:4.17px;stroke-miterlimit:1.5;"/><path d="M480.162,173.581c-1.03,0.115 -2.033,0.308 -3.009,0.571c-22.841,6.156 -31.187,51.077 -31.201,51.141c-3.764,16.798 1.879,36.402 4.498,49.463" style="fill:none;stroke:#020144;stroke-width:4.17px;stroke-miterlimit:1.5;"/><path d="M604.617,304.547c-13.211,-9.569 -27.173,-1.139 -28.803,0.499c-11.122,11.183 -11.309,21.917 -13.294,40.5" style="fill:none;stroke:#020144;stroke-width:4.17px;stroke-miterlimit:1.5;"/><path d="M553.199,292.583c-12.498,-14.434 -41.51,-14.86 -42.789,-12.302" style="fill:none;stroke:#020144;stroke-width:4.17px;stroke-miterlimit:1.5;"/><path d="M582.132,316.969c1.842,0.601 1.924,5.421 0.182,10.758c-1.741,5.337 -4.65,9.182 -6.491,8.581c-1.842,-0.6 -1.924,-5.421 -0.182,-10.758c1.741,-5.337 4.65,-9.182 6.491,-8.581Z" style="fill:#020144;stroke:#020144;stroke-width:4.17px;stroke-miterlimit:1.5;"/><path d="M534.96,302.384c1.841,0.601 1.923,5.422 0.182,10.759c-1.741,5.337 -4.65,9.182 -6.492,8.581c-1.842,-0.601 -1.923,-5.421 -0.182,-10.758c1.741,-5.337 4.65,-9.182 6.492,-8.582Z" style="fill:#020144;stroke:#020144;stroke-width:4.17px;stroke-miterlimit:1.5;"/><path d="M556.587,368.385c0,0 -21.311,0.79 -41.14,-13.337" style="fill:none;stroke:#020144;stroke-width:4.17px;stroke-miterlimit:1.5;"/><path d="M462.428,282.717c0,-0 -9.969,6.596 -4.183,19.606" style="fill:none;stroke:#020144;stroke-width:4.17px;stroke-miterlimit:1.5;"/><path d="M452.911,315.059c-12.149,30.362 -28.338,51.795 -42.474,66.643c-3.385,3.555 -6.652,6.732 -9.717,9.565" style="fill:none;stroke:#020144;stroke-width:4.17px;stroke-miterlimit:1.5;"/><path d="M511.442,394.392c-0.842,2.113 -1.554,4.528 -1.93,7.414c-0.468,3.582 -0.418,7.89 0.541,13.246" style="fill:none;stroke:#020144;stroke-width:4.17px;stroke-miterlimit:1.5;"/><path d="M513.289,410.75c0.117,0.224 -11.447,25.301 -71.332,5.702c-3.854,-1.261 -31.409,-10.279 -42.735,-27.268" style="fill:none;stroke:#020144;stroke-width:4.17px;stroke-miterlimit:1.5;"/><path d="M509.512,401.806c20.751,8.331 77.762,31.506 86.045,36.591c29.369,18.027 42.014,46.038 57.032,86.224" style="fill:none;stroke:#020144;stroke-width:4.17px;stroke-miterlimit:1.5;"/><path d="M656.105,607.757c-4.567,2.298 -9.222,4.357 -13.923,6.212c-7.391,2.917 -14.899,5.331 -22.367,7.379" style="fill:none;stroke:#020144;stroke-width:4.17px;stroke-miterlimit:1.5;"/><path d="M300.974,735.489c0.776,17.411 2.422,29.244 3.537,79.658" style="fill:none;stroke:#020144;stroke-width:4.17px;stroke-miterlimit:1.5;"/><path d="M577.882,752.793c0.846,5.406 2.107,12.797 4.003,23.035c1.857,10.029 -1.924,9.567 -2.846,18.784c-1.016,10.159 -0.898,15.443 -0.638,20.535" style="fill:none;stroke:#020144;stroke-width:4.17px;stroke-miterlimit:1.5;"/><path d="M331.039,738.934c27.207,31.967 68.757,42.815 95.163,50.529" style="fill:none;stroke:#020144;stroke-width:4.17px;stroke-miterlimit:1.5;"/><path d="M346.344,766.281c16.403,15.931 39.746,22.215 44.557,24.009" style="fill:none;stroke:#020144;stroke-width:4.17px;stroke-miterlimit:1.5;"/><path d="M682.022,687.252c15.683,15.227 36.977,35.122 53.804,50.712m-93.644,-123.995c3.386,14.779 4.391,30.697 15.782,47.339" style="fill:none;stroke:#020144;stroke-width:4.17px;stroke-miterlimit:1.5;"/><path d="M612.637,719.965c9.232,6.424 22.408,14.287 41.363,23.468c10.623,5.146 19.485,9.309 27.147,12.892" style="fill:none;stroke:#020144;stroke-width:4.17px;stroke-miterlimit:1.5;"/><path d="M410.437,381.702c-26.49,-3.189 -126.566,56.086 -126.592,56.101c-33.986,19.896 -80.81,187.713 -81.804,190.698c11.025,0.385 19.156,0.663 26.945,1.249c9.79,0.736 19.041,1.959 32.82,4.49c8.728,1.603 19.988,4.347 35.254,9.807" style="fill:none;stroke:#020144;stroke-width:4.17px;stroke-miterlimit:1.5;"/><path d="M228.986,629.75c-4.678,40.38 -13.371,145.844 52.827,116.773c6.586,-2.892 12.965,-6.637 19.161,-11.034c53.909,-38.262 93.947,-125.964 135.574,-131.994c0.209,-0.031 0.418,-0.059 0.628,-0.085c16.034,-2.004 22.935,-5.454 28.035,-8.833c3.257,-2.158 2.349,-6.105 2.564,-11.438c7.367,-5.668 10.48,-6.61 12.754,-10.065c1.961,-2.981 1.668,-5.581 0.888,-10.669c7.139,-5.986 10.953,-5.983 6.832,-14.225c-0.529,-1.057 0.41,-2.879 1.921,-5.055c4.587,-6.604 14.45,-16.466 4.611,-18.106c-7.96,-1.327 -18.002,-2.131 -27.717,-2.796c-3.147,-0.216 -6.259,-0.417 -9.256,-0.616c-1.874,-0.125 -3.702,-0.249 -5.466,-0.376c-9.43,-0.678 -16.991,-1.43 -19.62,-2.745" style="fill:none;stroke:#020144;stroke-width:4.17px;stroke-miterlimit:1.5;"/><path d="M242.977,688.942c21.765,-26.796 42.44,-39.025 54.083,-44.895c4.772,-2.406 8.027,-3.743 9.218,-4.577c3.29,-2.302 63.535,-51.759 67.561,-55.901c23.096,-23.76 31.921,-71.281 61.53,-75.191c9.969,-1.316 20.419,-5.277 27.732,-7.155c5.51,-1.416 9.239,-1.649 9.637,1.322c0.168,1.25 -0.254,3.067 -1.381,5.602c-0.26,0.586 -0.631,1.176 -1.097,1.767c-2.244,2.847 -6.69,5.721 -11.561,8.262c-2.087,1.088 -4.253,2.116 -6.357,3.055" style="fill:none;stroke:#020144;stroke-width:4.17px;stroke-miterlimit:1.5;"/><path d="M591.622,729.937l-3.103,11.95c-1.023,3.943 -3.572,7.318 -7.084,9.382c-1.125,0.662 -2.32,1.171 -3.553,1.524c-2.617,0.75 -5.41,0.797 -8.09,0.101l-146.302,-37.984c-3.943,-1.024 -7.318,-3.572 -9.382,-7.084c-2.064,-3.512 -2.649,-7.7 -1.625,-11.643l24.065,-92.688m53.622,-60.37l131.663,34.183m8.821,2.29l-24.132,92.949" style="fill:none;stroke:#020144;stroke-width:4.17px;stroke-miterlimit:1.5;"/><path d="M457.808,521.607l0.891,-3.431m4.402,-16.953l0.42,-1.619c3.63,-13.984 17.931,-22.39 31.915,-18.759l125.362,32.548c13.984,3.63 22.39,17.931 18.759,31.915l-13.157,50.675" style="fill:none;stroke:#020144;stroke-width:4.17px;stroke-miterlimit:1.5;"/><path d="M467.064,522.223l3.196,-12.309m2.478,-7.369c4.409,-8.396 14.165,-12.977 23.735,-10.492l117.967,30.628c11.156,2.896 17.862,14.305 14.965,25.461l-7.572,29.166" style="fill:none;stroke:#020144;stroke-width:4.17px;stroke-miterlimit:1.5;"/><path d="M606.522,672.547l137.248,-29.985l28.428,7.381l-3.111,10.131c0,-0 -11.637,-5.719 -24.802,-1.149c-11.019,3.824 -118.046,54.564 -152.663,71.012" style="fill:none;stroke:#020144;stroke-width:4.17px;stroke-miterlimit:1.5;"/><path d="M777.392,665.6c10.198,6.282 24.362,31.978 26.102,35.136c9.11,16.527 13.98,43.099 14.701,47.036" style="fill:none;stroke:#020144;stroke-width:3.33px;stroke-miterlimit:1.5;stroke-dasharray:3.33,10,0,0,0,0;"/><path d="M780.505,659.437c11.513,5.555 27.503,28.276 29.468,31.069c10.285,14.614 15.783,38.11 16.597,41.592" style="fill:none;stroke:#020144;stroke-width:3.33px;stroke-miterlimit:1.5;stroke-dasharray:3.33,10,0,0,0,0;"/><path d="M783.112,653.562c13.074,5.555 31.231,28.276 33.462,31.069c11.679,14.614 17.921,38.11 18.846,41.592" style="fill:none;stroke:#020144;stroke-width:3.33px;stroke-miterlimit:1.5;stroke-dasharray:3.33,10,0,0,0,0;"/></g><path d="M1047.04,815.147l-870.885,0" style="fill:none;stroke:#020144;stroke-width:3.33px;stroke-miterlimit:1.5;"/></svg>