<?xml version="1.0" encoding="UTF-8"?>
<svg xmlns="http://www.w3.org/2000/svg" viewBox="0 0 800 800">
  <defs>
    <style>
      .cls-1 {
        fill: #01bd9c;
      }

      .cls-1, .cls-2, .cls-3 {
        stroke-width: 0px;
      }

      .cls-2 {
        fill: #bee3d8;
      }

      .cls-3 {
        fill: #def1ec;
      }

      .cls-4 {
        fill: none;
        stroke: #020144;
        stroke-linecap: round;
        stroke-linejoin: round;
        stroke-width: 6px;
      }
    </style>
  </defs>
  <g id="BK">
    <path class="cls-3" d="M453.96,151.66c-120.81,0-218.75,97.94-218.75,218.75,0,21.49,3.1,42.25,8.87,61.87,3.78-.89,7.73-1.55,11.81-1.95,29.94-2.95,56.01,9.18,57.76,26.87l-54.58,5.38,4.27,1.27,42.41,12.66c-7.44,7.74-19.31,13.67-32.89,16.64,8.64,12.73,18.59,24.5,29.65,35.11,4.17-9.78,9.77-18.82,16.52-26.84h25.39c2.68-3.42,5.88-7.02,9.5-10.66,3.54-3.58,7.49-7.19,11.76-10.74,3.78-3.14,7.56-6.02,11.27-8.6,17.22-11.99,32.68-17.52,37.44-12.77h0c.12.11.21.21.3.32,1.75,2.11,1.49,5.67-.42,10.15-3.32,7.78-11.65,18.3-23.07,28.75-1.3,1.19-2.63,2.37-4.01,3.55h95.35c15.62,18.56,25.03,42.53,25.03,68.68,0,4.27-.25,8.49-.74,12.63,95.27-23.64,165.88-109.73,165.88-212.32,0-120.81-97.93-218.75-218.75-218.75ZM466.22,240.96c21.73-18.05,43.67-27.48,49.01-21.06,5.33,6.42-7.97,26.26-29.7,44.31-21.73,18.05-43.67,27.47-49.01,21.05-5.33-6.42,7.97-26.26,29.7-44.3ZM422.99,319.98c5.51-15.76,31.59-20.99,58.26-11.67,1.08.38,2.14.77,3.18,1.18,24.84,9.76,40.43,29.1,35.15,44.22-4.86,13.94-25.83,19.63-49.05,14.32-3.04-.69-6.12-1.57-9.21-2.65-2.54-.89-5-1.88-7.36-2.95-22.38-10.19-35.95-28.19-30.97-42.45ZM298.2,332.11s-.07-.11-.11-.17c-11.93-18.2,3.6-49.81,34.41-70.01,20.76-13.6,44.35-19.34,61.18-14.89l-39.42,48.09,56.17-36.82c11.4,17.38-2.26,47-30.36,67.23-1.32.95-2.67,1.87-4.05,2.78-4.38,2.87-8.85,5.37-13.32,7.48-26.93,12.74-54.16,11.77-64.5-3.69ZM366.44,451.89c-4.66,1.63-9.78,2.53-15.17,2.53-21.27,0-38.51-14.06-38.51-31.41s17.24-31.41,38.51-31.41c5.19,0,10.13.84,14.65,2.35,14.01,4.7,23.87,15.94,23.87,29.06s-9.62,24.08-23.35,28.88ZM575.9,485.51l-46.28-42.54,19.02,50.13c-14.41-1.96-30.57-10.3-44.15-22.78-5.87-5.4-10.89-11.23-14.97-17.2-5.79,4.47-14.28,6.56-24.04,6.2-7.2-.26-15.09-1.85-23.09-4.81-3.6-1.32-7.23-2.93-10.83-4.82-1.37-.72-2.71-1.46-4.02-2.23-5.14-3.03-9.79-6.44-13.84-10.06h0c-15.05-13.48-21.86-30.03-15.65-41.88,1.82-3.47,4.6-6.24,8.12-8.33,12.57-7.41,34.54-5.89,55.49,5.11.46.24.92.49,1.38.74,6.44,3.51,12.17,7.62,17.02,12.04.89-1.68,1.98-3.24,3.28-4.65,13.79-15,46.03-8.14,71.42,15.19,25.39,23.34,34.93,54.89,21.14,69.89ZM561.2,392.87c-28.07-3.2-50.39-9.6-49.86-14.31.54-4.7,23.73-5.92,51.8-2.72,28.07,3.19,50.39,9.6,49.85,14.3-.54,4.71-23.72,5.93-51.79,2.73Z"/>
  </g>
  <g id="Fill">
    <g>
      <g>
        <path class="cls-2" d="M480.06,405.08c.89-1.68,1.98-3.24,3.28-4.65,13.79-15,46.03-8.14,71.42,15.19,25.39,23.34,34.93,54.89,21.14,69.89l-46.28-42.54,19.02,50.13c-14.41-1.96-30.57-10.3-44.15-22.78-5.87-5.4-10.89-11.23-14.97-17.2-2.48-3.61-4.61-7.27-6.37-10.92-6.74-13.91-8.15-27.55-3.09-37.12Z"/>
        <path class="cls-1" d="M483.15,442.2c1.76,3.65,3.89,7.31,6.37,10.92-5.79,4.47-14.28,6.56-24.04,6.2,5.35-7.37,11.47-12.93,17.67-17.12Z"/>
        <path class="cls-1" d="M480.06,405.08c-5.06,9.57-3.65,23.21,3.09,37.12-6.2,4.19-12.32,9.75-17.67,17.12-7.2-.26-15.09-1.85-23.09-4.81-3.6-1.32-7.23-2.93-10.83-4.82-1.37-.72-2.71-1.46-4.02-2.23-5.14-3.03-9.79-6.44-13.84-10.06h0c-15.05-13.48-21.86-30.03-15.65-41.88,1.82-3.47,4.6-6.24,8.12-8.33,9.51-5.61,24.4-6.1,40.17-1.23,5.06,1.55,10.22,3.66,15.32,6.34.46.24.92.49,1.38.74,6.44,3.51,12.17,7.62,17.02,12.04Z"/>
        <path class="cls-2" d="M376.95,471.42c17.22-11.99,32.68-17.52,37.44-12.77h0c.12.11.21.21.3.32,1.75,2.11,1.49,5.67-.42,10.15-3.33,7.78-11.65,18.31-23.08,28.74-1.29,1.19-2.63,2.38-4,3.56h0c-.72.62-1.45,1.24-2.19,1.85-21.73,18.05-43.67,27.48-49.01,21.06-3.21-3.88.34-12.62,8.43-22.91h0c2.68-3.42,5.88-7.02,9.5-10.66,3.54-3.58,7.49-7.19,11.76-10.74,3.78-3.14,7.56-6.02,11.27-8.6Z"/>
        <path class="cls-2" d="M380.07,325.54c-1.32.95-2.67,1.87-4.05,2.78-4.38,2.87-8.85,5.37-13.32,7.48-26.93,12.74-54.16,11.77-64.5-3.69-.03-.05-.07-.11-.11-.17-11.93-18.2,3.6-49.81,34.41-70.01,20.76-13.6,44.35-19.34,61.18-14.89l-39.42,48.09,56.17-36.82c11.4,17.38-2.26,47-30.36,67.23Z"/>
        <path class="cls-1" d="M385.66,362.08c1.16,11.81-6.56,23.26-19.74,31.87-4.52-1.51-9.46-2.35-14.65-2.35-14.9,0-27.82,6.9-34.22,16.99h-.01c-34.44,1.68-63.02-12.65-65.06-33.33-1.81-18.38,17.91-35.92,46.22-43.15,10.34,15.46,37.57,16.43,64.5,3.69,13.16,5.94,21.86,15.2,22.96,26.28Z"/>
        <path class="cls-2" d="M366.44,451.89c-4.66,1.63-9.78,2.53-15.17,2.53-21.27,0-38.51-14.06-38.51-31.41,0-5.2,1.55-10.1,4.29-14.42,6.4-10.09,19.32-16.99,34.22-16.99,5.19,0,10.13.84,14.65,2.35,14.01,4.7,23.87,15.94,23.87,29.06s-9.62,24.08-23.35,28.88Z"/>
        <path class="cls-1" d="M313.65,457.2l-54.58,5.38,4.27,1.27,42.41,12.66c-9.33,9.7-25.61,16.56-43.5,18.32-29.94,2.95-56.01-9.18-57.76-26.87-1.74-17.69,21.46-34.68,51.4-37.63s56.01,9.18,57.76,26.87Z"/>
      </g>
      <g>
        <path class="cls-4" d="M387.19,501.42h95.35c15.62,18.56,25.03,42.53,25.03,68.68,0,39.36-21.3,73.74-53,92.26h-107.56c-31.71-18.51-53.01-52.9-53.01-92.26,0-26.15,9.41-50.12,25.03-68.68h25.38"/>
        <path class="cls-4" d="M298.2,332.11c-.03-.05-.07-.11-.11-.17-11.93-18.2,3.6-49.81,34.41-70.01,20.76-13.6,44.35-19.34,61.18-14.89l-39.42,48.09,56.17-36.82c11.4,17.38-2.26,47-30.36,67.23-1.32.95-2.67,1.87-4.05,2.78-4.38,2.87-8.85,5.37-13.32,7.48-26.93,12.74-54.16,11.77-64.5-3.69Z"/>
        <path class="cls-4" d="M362.7,335.8c13.16,5.94,21.86,15.2,22.96,26.28,1.16,11.81-6.56,23.26-19.74,31.87"/>
        <path class="cls-4" d="M298.2,332.11c-28.31,7.23-48.03,24.77-46.22,43.15,2.04,20.68,30.62,35.01,65.06,33.33"/>
        <path class="cls-4" d="M259.07,462.58l4.27,1.27,42.41,12.66c-9.33,9.7-25.61,16.56-43.5,18.32-29.94,2.95-56.01-9.18-57.76-26.87-1.74-17.69,21.46-34.68,51.4-37.63s56.01,9.18,57.76,26.87l-54.58,5.38Z"/>
        <path class="cls-4" d="M413.7,437.4c4.05,3.62,8.7,7.03,13.84,10.06,1.31.77,2.65,1.51,4.02,2.23,3.6,1.89,7.23,3.5,10.83,4.82,8,2.96,15.89,4.55,23.09,4.81,9.76.36,18.25-1.73,24.04-6.2"/>
        <path class="cls-4" d="M480.07,405.09h-.01c-4.85-4.43-10.58-8.54-17.02-12.05-.46-.25-.92-.5-1.38-.74-5.1-2.68-10.26-4.79-15.32-6.34-15.77-4.87-30.66-4.38-40.17,1.23-3.52,2.09-6.3,4.86-8.12,8.33-6.21,11.85.6,28.4,15.65,41.87"/>
        <path class="cls-4" d="M484.43,309.49c24.84,9.76,40.43,29.1,35.15,44.22-4.86,13.94-25.83,19.63-49.05,14.32-3.04-.69-6.12-1.57-9.21-2.65-2.54-.89-5-1.88-7.36-2.95-22.38-10.19-35.95-28.19-30.97-42.45,5.51-15.76,31.59-20.99,58.26-11.67,1.08.38,2.14.77,3.18,1.18Z"/>
        <path class="cls-4" d="M515.23,219.9c5.33,6.42-7.97,26.26-29.7,44.31s-43.67,27.47-49.01,21.05c-5.33-6.42,7.97-26.26,29.7-44.3,21.73-18.05,43.67-27.48,49.01-21.06Z"/>
        <path class="cls-4" d="M612.99,390.14c-.54,4.71-23.72,5.93-51.79,2.73s-50.39-9.6-49.86-14.31c.54-4.7,23.73-5.92,51.8-2.72,28.07,3.19,50.39,9.6,49.85,14.3Z"/>
        <path class="cls-4" d="M414.39,458.66c.12.1.21.2.3.31,1.75,2.11,1.49,5.67-.42,10.15-3.33,7.78-11.65,18.31-23.08,28.74-1.29,1.19-2.63,2.38-4,3.56h0c-.72.62-1.45,1.24-2.19,1.85-21.73,18.05-43.67,27.48-49.01,21.06-3.21-3.88.34-12.62,8.43-22.91h0c2.68-3.42,5.88-7.02,9.5-10.66,3.54-3.58,7.49-7.19,11.76-10.74,3.78-3.14,7.56-6.02,11.27-8.6,17.22-11.99,32.68-17.52,37.44-12.77"/>
        <path class="cls-4" d="M480.06,405.08c.89-1.68,1.98-3.24,3.28-4.65,13.79-15,46.03-8.14,71.42,15.19,25.39,23.34,34.93,54.89,21.14,69.89l-46.28-42.54,19.02,50.13c-14.41-1.96-30.57-10.3-44.15-22.78-5.87-5.4-10.89-11.23-14.97-17.2-2.48-3.61-4.61-7.27-6.37-10.92-6.74-13.91-8.15-27.55-3.09-37.12Z"/>
        <path class="cls-4" d="M365.92,393.95c14.01,4.7,23.87,15.94,23.87,29.06s-9.62,24.08-23.35,28.88c-4.66,1.63-9.78,2.53-15.17,2.53-21.27,0-38.51-14.06-38.51-31.41,0-5.2,1.55-10.1,4.29-14.42,6.4-10.09,19.32-16.99,34.22-16.99,5.19,0,10.13.84,14.65,2.35Z"/>
        <path class="cls-4" d="M486.21,263.65c1.97,8.09,2.31,22-1.78,45.84"/>
        <path class="cls-4" d="M425.11,501.42c6.35-16.73,12.09-32.34,17.28-46.9h0"/>
        <path class="cls-4" d="M470.53,368.03c-2.22,7.8-4.71,16.13-7.49,25.01"/>
        <path class="cls-4" d="M449.78,501.42c2.44-18.26,8.3-31.9,15.69-42.09,0,0,0-.01.01-.01,5.35-7.37,11.47-12.93,17.67-17.12"/>
        <path class="cls-4" d="M446.34,385.95c2.9-9.1,5.47-16.98,7.62-23.52h0"/>
        <path class="cls-4" d="M412.17,501.42c5.33-19.35,10.49-37.43,15.37-53.96"/>
        <path class="cls-4" d="M413.7,437.39h0c.44,6.8.67,13.87.69,21.26h0"/>
        <path class="cls-4" d="M414.27,469.09v.03c-.26,10.21-.93,20.97-2.1,32.3"/>
        <path class="cls-4" d="M380.06,325.53s0,.01.01.01c8.82,13.26,19.1,33.37,26.1,61.65"/>
        <polyline class="cls-4" points="376.96 471.43 376.95 471.42 366.44 451.89 366.44 451.88"/>
        <line class="cls-4" x1="393.11" y1="501.42" x2="391.2" y2="497.87"/>
        <path class="cls-4" d="M263.34,463.85c21.94-2.12,69.49-2.83,90.58,26.91"/>
      </g>
    </g>
  </g>
</svg>