<?xml version="1.0" encoding="UTF-8" standalone="no"?><!DOCTYPE svg PUBLIC "-//W3C//DTD SVG 1.1//EN" "http://www.w3.org/Graphics/SVG/1.1/DTD/svg11.dtd"><svg width="100%" height="100%" viewBox="0 0 4505 4500" version="1.1" xmlns="http://www.w3.org/2000/svg" xmlns:xlink="http://www.w3.org/1999/xlink" xml:space="preserve" xmlns:serif="http://www.serif.com/" style="fill-rule:evenodd;clip-rule:evenodd;stroke-linejoin:round;stroke-miterlimit:1.5;"><rect id="_02_Knowledge-transfer---training" serif:id="02_Knowledge transfer &amp; training" x="1.092" y="0" width="4500" height="4500" style="fill:none;"/><g id="_02_Knowledge-transfer---training1" serif:id="02_Knowledge transfer &amp; training"><g id="Layer6"><path d="M1159.42,1488.81l-0,352.05l491.608,0" style="fill:none;stroke:#5cba9e;stroke-opacity:0.5;stroke-width:69.46px;"/><path d="M974.329,2761.7l0,-285.646l548.038,0" style="fill:none;stroke:#5cba9e;stroke-opacity:0.5;stroke-width:69.46px;"/><path d="M2295.16,3123.8l-0,425.792l789.454,-0" style="fill:none;stroke:#5cba9e;stroke-opacity:0.5;stroke-width:69.46px;stroke-linecap:round;"/><path d="M1897.23,3349.68l363.329,0" style="fill:none;stroke:#5cba9e;stroke-opacity:0.5;stroke-width:69.46px;"/><path d="M3606.05,2404.07l-521.437,-0" style="fill:none;stroke:#5cba9e;stroke-opacity:0.5;stroke-width:69.46px;stroke-linecap:round;"/><path d="M2295.16,1287.08l-0,257.809" style="fill:none;stroke:#5cba9e;stroke-opacity:0.5;stroke-width:69.46px;stroke-linecap:round;"/><path d="M3067.22,2125.98l337.708,0l0,-366.637" style="fill:none;stroke:#5cba9e;stroke-opacity:0.5;stroke-width:69.46px;stroke-linecap:round;"/></g><g id="Layer5"><circle cx="2295.16" cy="2334.35" r="789.458" style="fill:none;stroke:#020144;stroke-width:69.46px;stroke-linecap:round;"/><circle cx="1159.42" cy="997.2" r="491.608" style="fill:#5cba9e;"/><circle cx="2303.01" cy="2334.35" r="465.65" style="fill:#5cba9e;fill-opacity:0.5;"/><circle cx="974.329" cy="3189.07" r="427.367" style="fill:#5cba9e;"/><circle cx="3267.75" cy="3559.11" r="183.135" style="fill:none;stroke:#5cba9e;stroke-width:66.67px;stroke-miterlimit:2;"/><circle cx="3748.62" cy="2404.07" r="142.563" style="fill:none;stroke:#5cba9e;stroke-width:69.46px;stroke-linecap:round;"/><circle cx="1754.66" cy="3349.68" r="142.563" style="fill:none;stroke:#5cba9e;stroke-width:69.46px;stroke-linecap:round;"/><circle cx="2295.16" cy="1144.52" r="142.563" style="fill:none;stroke:#5cba9e;stroke-width:69.46px;stroke-linecap:round;"/><circle cx="807.083" cy="1910.2" r="142.563" style="fill:#5cba9e;"/></g><g id="Layer2"><circle cx="3404.32" cy="1359.08" r="77.263" style="fill:none;stroke:#020144;stroke-width:52.08px;stroke-linecap:round;stroke-miterlimit:4;"/><path d="M3560.65,1650.79c-0.075,-85.734 -70.6,-156.255 -156.329,-156.33c-85.763,0 -156.334,70.571 -156.334,156.33l312.663,-0Z" style="fill:none;fill-rule:nonzero;stroke:#020144;stroke-width:52.08px;stroke-linecap:round;stroke-miterlimit:4;"/><circle cx="3634.16" cy="1359.08" r="77.263" style="fill:none;stroke:#020144;stroke-width:52.08px;stroke-linecap:round;stroke-miterlimit:4;"/><path d="M3612.11,1650.79l178.388,-0c-0,-85.759 -70.571,-156.33 -156.334,-156.33c-25.587,-0.012 -50.791,6.275 -73.379,18.309" style="fill:none;fill-rule:nonzero;stroke:#020144;stroke-width:52.08px;stroke-linecap:round;stroke-miterlimit:4;"/><circle cx="3177.52" cy="1359.08" r="77.263" style="fill:none;stroke:#020144;stroke-width:52.08px;stroke-linecap:round;stroke-miterlimit:4;"/><path d="M3199.58,1650.79l-178.387,-0c-0,-85.759 70.57,-156.33 156.329,-156.33c25.591,-0.012 50.796,6.275 73.383,18.309" style="fill:none;fill-rule:nonzero;stroke:#020144;stroke-width:52.08px;stroke-linecap:round;stroke-miterlimit:4;"/></g><g id="java-duke" serif:id="java duke"><path d="M972.729,2942.7c-12.691,23.729 -25.396,47.479 -36.946,71.787c-35.866,75.5 -79.57,165.484 -106.154,248.13c-16.387,50.958 -26.975,86.483 -22.637,138.866c2.008,24.267 25.358,33.925 46.2,33.963c46.329,0.087 72.85,-47.888 121.562,-47.888c48.709,0 75.229,47.975 121.559,47.888c20.845,-0.038 44.191,-9.696 46.2,-33.963c4.337,-52.383 -6.25,-87.908 -22.638,-138.866c-26.579,-82.646 -70.287,-172.63 -106.154,-248.13c-11.55,-24.308 -28.296,-48.058 -40.992,-71.787Z" style="fill:none;fill-rule:nonzero;stroke:#020144;stroke-width:34.71px;stroke-linecap:square;stroke-miterlimit:10;"/><path d="M1081.98,3162.78l51.613,26.288l-20.221,56.617l-31.392,-82.905Z" style="fill:#020144;fill-rule:nonzero;"/><path d="M866.679,3162.78l-51.612,26.288l20.221,56.617l31.391,-82.905Z" style="fill:#020144;fill-rule:nonzero;"/><ellipse cx="973.888" cy="3169.97" rx="58.546" ry="45.608" style="fill:#5cba9e;stroke:#020144;stroke-width:34.71px;stroke-linecap:round;stroke-miterlimit:10;"/><path d="M1072.58,3145.02l-44.133,-0c-0,-0 -25.179,-23.079 -54.558,-20.659c-29.38,2.421 -43.309,12.584 -50.592,20.659c-7.279,8.079 -48.104,-0 -48.104,-0l98.696,-202.325l98.691,202.325Z" style="fill:#020144;fill-rule:nonzero;"/><path d="M1121.46,3209.29c-0,-0 50.491,18.208 52.575,36.396c2.079,18.187 -24.267,44.487 -24.267,44.487" style="fill:none;fill-rule:nonzero;stroke:#020144;stroke-width:34.71px;stroke-linecap:round;stroke-miterlimit:10;"/><path d="M827.2,3209.29c0,-0 -50.496,18.208 -52.575,36.396c-2.083,18.187 24.263,44.487 24.263,44.487" style="fill:none;fill-rule:nonzero;stroke:#020144;stroke-width:34.71px;stroke-linecap:round;stroke-miterlimit:10;"/><path d="M1157.86,3278.04c0,-0 24.355,17.254 12.134,40.441c-12.221,23.188 8.916,6.392 8.087,20.221c-0.825,13.829 -28.183,24.729 -34.591,12.134c-6.409,-12.6 -22.026,-72.796 -22.026,-72.796c0,-0 23.434,-12.171 36.396,-0Z" style="fill:#020144;fill-rule:nonzero;"/><path d="M790.8,3278.04c0,-0 -24.35,17.254 -12.133,40.441c12.221,23.188 -8.917,6.392 -8.088,20.221c0.829,13.829 28.183,24.729 34.592,12.134c6.408,-12.6 22.029,-72.796 22.029,-72.796c0,-0 -23.438,-12.171 -36.4,-0Z" style="fill:#020144;fill-rule:nonzero;"/></g><path d="M2737.8,2166.03l-429.192,-228.9c-8.4,-4.475 -18.495,-4.475 -26.896,0l-429.191,228.9c-9.317,4.967 -15.158,14.696 -15.158,25.25c-0,10.558 5.841,20.288 15.158,25.254l99.287,52.967l0,173.179c-0.033,14.05 5.146,27.629 14.521,38.092c46.854,52.183 151.825,139.704 328.834,139.704c58.687,0.483 116.941,-10.146 171.675,-31.333l-0,117.17c-0,15.696 12.916,28.613 28.612,28.613c15.696,0 28.612,-12.917 28.612,-28.613l0,-144.816c37.313,-21.538 71.03,-48.775 99.934,-80.725c9.375,-10.463 14.55,-24.042 14.521,-38.092l-0,-173.179l99.283,-52.967c9.317,-4.966 15.158,-14.696 15.158,-25.254c0,-10.554 -5.841,-20.283 -15.158,-25.25Zm-442.638,397.221c-154.762,-0 -245.787,-75.613 -286.129,-120.571l0,-142.671l272.679,145.425c8.4,4.475 18.496,4.475 26.896,0l158.229,-84.371l0,165.742c-45.066,21.029 -101.862,36.446 -171.675,36.446Zm286.125,-120.713c-17.15,19.034 -36.341,36.125 -57.225,50.967l0,-162.987l57.225,-30.509l0,142.529Zm-71.529,-169.208l-0.787,-0.467l-200.292,-106.833c-4.029,-2.058 -8.487,-3.129 -13.012,-3.129c-15.7,-0 -28.613,12.917 -28.613,28.612c0,10.384 5.65,19.984 14.729,25.021l167.171,89.2l-153.792,82.013l-368.391,-196.467l368.391,-196.462l368.388,196.462l-153.792,82.05Z" style="fill:#020144;fill-rule:nonzero;"/><g id="Java"><path d="M1349.7,1247.41l62.554,-0c11.438,-0 20.85,-9.413 20.85,-20.851l0,-333.62l-145.958,-145.959l-250.217,0c-11.437,0 -20.85,9.413 -20.85,20.855l0,229.362" style="fill:none;fill-rule:nonzero;stroke:#020144;stroke-width:34.71px;stroke-linecap:round;stroke-miterlimit:4;"/><path d="M1287.15,746.983l-0,145.959l145.958,-0" style="fill:none;fill-rule:nonzero;stroke:#020144;stroke-width:34.71px;stroke-linecap:round;stroke-miterlimit:4;"/><path d="M927.654,1196.78c-8.879,0 -16.896,-1.587 -24.041,-4.754c-7.15,-3.171 -13.105,-7.804 -17.871,-13.904l20.633,-26.909c3.029,4.067 6.008,7.146 8.933,9.238c2.925,2.091 5.959,3.137 9.1,3.137c8.23,0 12.346,-5.2 12.346,-15.604l0,-47.721l-38.666,0l-0,-31.933l76.52,0l0,77.142c0,17.22 -4.008,30.079 -12.025,38.57c-8.012,8.492 -19.658,12.738 -34.929,12.738Z" style="fill:#020144;fill-rule:nonzero;"/><path d="M977.367,1193.9l49.716,-125.579l37.688,0l49.712,125.579l-39.637,0l-36.717,-105.487l14.946,-0l-36.717,105.487l-38.991,0Zm29.571,-21.887l9.745,-30.496l52.313,-0l9.746,30.496l-71.805,-0Z" style="fill:#020144;fill-rule:nonzero;"/><path d="M1149.9,1193.9l-48.088,-125.579l41.267,0l39.15,106.025l-24.529,0l40.287,-106.025l37.692,0l-48.087,125.579l-37.692,0Z" style="fill:#020144;fill-rule:nonzero;"/><path d="M1223.01,1193.9l49.713,-125.579l37.691,0l49.713,125.579l-39.642,0l-36.716,-105.487l14.945,-0l-36.712,105.487l-38.992,0Zm29.567,-21.887l9.75,-30.496l52.308,-0l9.75,30.496l-71.808,-0Z" style="fill:#020144;fill-rule:nonzero;"/></g></g></svg>