<svg width="22" height="22" viewBox="0 0 22 22" fill="none" xmlns="http://www.w3.org/2000/svg">
<path d="M3.41426 1.91812H5.17125V4.26206C5.17125 4.9139 5.47418 5.48968 5.96316 5.89015C6.37652 6.22917 6.92652 6.43886 7.51391 6.43886C8.10129 6.43886 8.65129 6.22917 9.06465 5.89015C9.55363 5.48968 9.85699 4.9139 9.85699 4.26206V1.91812H13.4036V4.26206C13.4036 4.9139 13.707 5.48968 14.196 5.89015C14.6093 6.22917 15.1589 6.43886 15.7467 6.43886C16.3341 6.43886 16.8841 6.22917 17.2975 5.89015C17.7864 5.48968 18.0894 4.9139 18.0894 4.26206V1.91812H19.9233C20.9713 1.91812 21.8281 2.77491 21.8281 3.82292V8.24569V19.5271C21.8281 20.0514 21.6137 20.5275 21.2686 20.8725C20.9223 21.2175 20.4462 21.4319 19.9233 21.4319H11.1787C11.2814 21.2326 11.3691 21.019 11.4327 20.802C11.4507 20.741 11.467 20.68 11.4816 20.6185H19.3131C20.1373 20.6185 20.8114 19.9418 20.8114 19.1207V7.43229H2.52652V10.5153C2.16215 10.4878 1.82312 10.5058 1.50988 10.5617V8.24569V3.82249C1.50988 2.77663 2.3684 1.91812 3.41426 1.91812ZM15.5387 15.1916H18.0344C18.2093 15.1916 18.3523 15.3355 18.3523 15.5096V17.5854C18.3523 17.7594 18.2084 17.9033 18.0344 17.9033H15.5387C15.3647 17.9033 15.2208 17.7603 15.2208 17.5854V15.5096C15.2208 15.3347 15.3639 15.1916 15.5387 15.1916ZM5.30359 9.79472H7.79879C7.97367 9.79472 8.11676 9.93866 8.11676 10.1127V12.1885C8.11676 12.3625 7.97281 12.5065 7.79879 12.5065H5.30359C5.12957 12.5065 4.98562 12.3634 4.98562 12.1885V10.1127C4.98562 9.9378 5.12871 9.79472 5.30359 9.79472ZM15.5387 9.79472H18.0344C18.2088 9.79472 18.3523 9.93866 18.3523 10.1127V12.1885C18.3523 12.3625 18.2084 12.5065 18.0344 12.5065H15.5387C15.3647 12.5065 15.2208 12.3634 15.2208 12.1885V10.1127C15.2208 9.9378 15.3639 9.79472 15.5387 9.79472ZM10.5561 9.79472H13.0513C13.2262 9.79472 13.3693 9.93866 13.3693 10.1127V12.1885C13.3693 12.3625 13.2253 12.5065 13.0513 12.5065H10.5561C10.3821 12.5065 10.2381 12.3634 10.2381 12.1885V10.1127C10.2381 9.9378 10.3812 9.79472 10.5561 9.79472ZM10.5561 15.1916H13.0513C13.2262 15.1916 13.3693 15.3355 13.3693 15.5096V17.5854C13.3693 17.7594 13.2253 17.9033 13.0513 17.9033H10.5561C10.3821 17.9033 10.2381 17.7603 10.2381 17.5854V15.5096C10.2381 15.3347 10.3812 15.1916 10.5561 15.1916ZM2.94203 16.2869C3.25184 16.8162 3.60719 17.3246 4.05277 17.7938C4.56582 18.3373 5.20434 18.8323 6.03191 19.2539C6.09336 19.2844 6.15137 19.2844 6.20293 19.2629C6.38082 19.1946 6.54711 18.9724 6.65797 18.8229C6.97594 18.4044 7.36996 17.8853 7.92598 18.1448C7.93801 18.1508 7.94746 18.1573 7.95949 18.1633L9.81359 19.2294C9.81961 19.2324 9.82562 19.2384 9.83164 19.2414C10.0761 19.4098 10.1771 19.6694 10.1801 19.9624C10.1801 20.2619 10.0701 20.5979 9.90812 20.8819C9.25371 22.0322 7.39016 22.1839 6.23687 21.8285C5.44582 21.5845 4.34367 20.9378 3.64328 20.4144C2.57723 19.6109 1.49312 18.4503 0.787578 17.1737C0.194609 16.1017 -0.128945 14.9441 0.0485155 13.8411C0.146055 13.2365 0.405586 12.6865 0.857617 12.323C1.25164 12.0055 1.78316 11.8314 2.47066 11.8925C2.55016 11.8985 2.6202 11.9444 2.65672 12.0115L3.84523 14.0216C4.01926 14.2476 4.04031 14.4706 3.94578 14.6932C3.86629 14.8766 3.70773 15.0446 3.49074 15.2036C3.27676 15.3871 2.75383 15.6625 2.78777 15.9758C2.79894 16.0737 2.88746 16.1936 2.94203 16.2869ZM14.8268 0.75581C14.8268 0.339873 15.2384 0.00170898 15.7467 0.00170898C16.255 0.00170898 16.6663 0.339873 16.6663 0.75581V4.26206C16.6663 4.678 16.255 5.01616 15.7467 5.01616C15.2384 5.01616 14.8268 4.678 14.8268 4.26206V0.75581ZM6.59437 0.75581C6.59437 0.339873 7.00559 0.00170898 7.51391 0.00170898C8.02223 0.00170898 8.43387 0.339873 8.43387 0.75581V4.26206C8.43387 4.678 8.02223 5.01616 7.51391 5.01616C7.00559 5.01616 6.59437 4.678 6.59437 4.26206V0.75581Z" fill="#F8F8F8"/>
</svg>
