<?xml version="1.0" encoding="utf-8"?>
<!-- Generator: Adobe Illustrator 27.5.0, SVG Export Plug-In . SVG Version: 6.00 Build 0)  -->
<svg version="1.1" id="Ebene_1" xmlns="http://www.w3.org/2000/svg" xmlns:xlink="http://www.w3.org/1999/xlink" x="0px" y="0px"
	 viewBox="0 0 317.5 317.5" style="enable-background:new 0 0 317.5 317.5;" xml:space="preserve">
<style type="text/css">
	.st0{fill:#E72378;}
	.st1{fill:#3EB7EA;}
	.st2{fill:#F4E305;}
	.st3{fill:#30B298;}
</style>
<path class="st0" d="M123.2,46.5v0.1c1.7-0.1,3.4-0.1,5.1-0.1H123.2z"/>
<path class="st0" d="M215.8,94.5h84.5V46.5H128.3C165.9,46.5,196.1,65.6,215.8,94.5z"/>
<path class="st1" d="M232.2,180.1h68.2v-47.9h-68.2c1.7,7.7,2.7,15.7,2.7,24S233.9,172.3,232.2,180.1z"/>
<path class="st2" d="M123.2,265.7h5.1c-1.7,0-3.4-0.1-5.1-0.1V265.7z"/>
<path class="st2" d="M128.3,265.7h172.1v-47.9h-85.5C195.1,246.7,165.9,265.7,128.3,265.7z"/>
<path class="st3" d="M235.2,132.1c-3.1-13.7-8.7-26.4-16.4-37.7c-19.7-28.9-52.9-47.9-90.5-47.9c-1.7,0-3.4,0.1-5.1,0.1
	C65.2,49.3,18.8,97.4,18.8,156.1c0,58.7,46.4,106.8,104.5,109.4c1.7,0.1,3.4,0.1,5.1,0.1c37.6,0,70.8-19,90.5-47.9
	c7.7-11.2,13.3-24,16.4-37.7c1.7-7.7,2.7-15.7,2.7-24S236.9,139.9,235.2,132.1z M128.3,217.8c-34,0-61.6-27.7-61.6-61.6
	c0-34,27.7-61.6,61.6-61.6c25.5,0,47.4,15.6,56.8,37.7c3.1,7.4,4.8,15.5,4.8,24c0,8.5-1.7,16.6-4.8,24
	C175.7,202.2,153.8,217.8,128.3,217.8z"/>
</svg>
