<svg width="32" height="32" viewBox="0 0 32 32" fill="none" xmlns="http://www.w3.org/2000/svg">
<rect width="32" height="32" rx="16" fill="#9492FD" fill-opacity="0.12"/>
<path d="M9.04077 17.556C8.69055 17.2289 8.50951 16.7937 8.50036 16.3555C8.49132 15.9174 8.65429 15.4753 8.99048 15.1346C9.32643 14.7941 9.77382 14.6179 10.2242 14.6091C10.6747 14.6001 11.129 14.7582 11.4794 15.0855L14.5053 17.9179L20.5295 10.4736L20.7453 10.6338L20.5292 10.4729C20.5464 10.4512 20.566 10.4327 20.5877 10.4176C20.9461 10.1156 21.3959 9.97927 21.8356 10.0025V10.0021L21.8571 10.004C22.2994 10.0325 22.7314 10.2237 23.0504 10.5699C23.3749 10.922 23.522 11.3692 23.4974 11.8064H23.4979L23.496 11.8273C23.4672 12.2498 23.2773 12.6627 22.9333 12.9711L15.7037 21.5318L15.7041 21.5323C15.6906 21.549 15.6753 21.5634 15.6587 21.576C15.3202 21.8651 14.8927 22.0069 14.4677 21.9998C14.0391 21.9926 13.6113 21.834 13.2785 21.5229L9.04077 17.556Z" fill="#9492FD"/>
</svg>
