<svg width="15" height="12" viewBox="0 0 15 12" fill="none" xmlns="http://www.w3.org/2000/svg">
<g clip-path="url(#clip0_6874_1575)">
<path d="M0.540786 7.55616C0.190557 7.229 0.00952274 6.79378 0.000367245 6.35559C-0.00866618 5.91752 0.154302 5.47541 0.490492 5.13472C0.826437 4.79426 1.27384 4.61803 1.72416 4.60924C2.17474 4.60022 2.62897 4.75828 2.97944 5.08567L6.00528 7.918L12.0295 0.47375L12.2453 0.633944L12.0292 0.473037C12.0464 0.451306 12.066 0.432781 12.0877 0.417699C12.4461 0.115716 12.8959 -0.0206097 13.3357 0.00266545V0.00219044L13.3571 0.00409045C13.7994 0.0325906 14.2314 0.223779 14.5504 0.570056C14.8749 0.922152 15.022 1.36937 14.9974 1.80649H14.9979L14.996 1.82739C14.9672 2.2499 14.7773 2.6628 14.4333 2.9712L7.20367 11.5319L7.20416 11.5324C7.19061 11.5492 7.17535 11.5635 7.15875 11.5761C6.82024 11.8653 6.39274 12.0071 5.96768 11.9999C5.53908 11.9927 5.11133 11.8342 4.77856 11.523L0.540786 7.55616Z" fill="#9492FD"/>
</g>
<defs>
<clipPath id="clip0_6874_1575">
<rect width="15" height="12" fill="white"/>
</clipPath>
</defs>
</svg>
