<svg width="24" height="24" viewBox="0 0 24 24" fill="none" xmlns="http://www.w3.org/2000/svg">
<rect width="24" height="24" rx="12" fill="#FAD6E4" fill-opacity="0.44"/>
<path d="M14.793 7.79303C15.1836 7.40251 15.8166 7.40251 16.2071 7.79303C16.5976 8.18356 16.5976 8.81659 16.2071 9.20709L13.4141 12.0001L16.2071 14.793C16.5976 15.1836 16.5976 15.8166 16.2071 16.2071C15.8166 16.5976 15.1836 16.5975 14.793 16.2071L12.0001 13.4141L9.20711 16.2071C8.81661 16.5976 8.18358 16.5975 7.79305 16.2071C7.40252 15.8166 7.40252 15.1836 7.79305 14.793L10.586 12.0001L7.79305 9.20709C7.40252 8.81657 7.40252 8.18355 7.79305 7.79303C8.18357 7.40251 8.81658 7.40251 9.20711 7.79303L12.0001 10.586L14.793 7.79303Z" fill="#E63277"/>
</svg>
