<svg width="14" height="15" viewBox="0 0 14 15" fill="none" xmlns="http://www.w3.org/2000/svg">
<path d="M4.91741 0.916689C5.70498 -0.305636 7.49232 -0.305638 8.27989 0.916687L8.7823 1.69645C9.1318 2.23887 9.72153 2.57935 10.366 2.61081L11.2925 2.65604C12.7449 2.72693 13.6385 4.27481 12.9738 5.56802L12.5497 6.39301C12.2547 6.96689 12.2547 7.64785 12.5497 8.22174L12.9738 9.04672C13.6385 10.3399 12.7449 11.8878 11.2925 11.9587L10.366 12.0039C9.72153 12.0354 9.1318 12.3759 8.7823 12.9183L8.27989 13.6981C7.49232 14.9204 5.70499 14.9204 4.91742 13.6981L4.415 12.9183C4.0655 12.3759 3.47577 12.0354 2.83127 12.0039L1.90478 11.9587C0.452426 11.8878 -0.441242 10.3399 0.223538 9.04672L0.647621 8.22174C0.942626 7.64785 0.942627 6.96689 0.647621 6.39301L0.223538 5.56803C-0.441241 4.27481 0.452425 2.72693 1.90477 2.65604L2.83127 2.61081C3.47577 2.57935 4.0655 2.23887 4.415 1.69645L4.91741 0.916689Z" fill="#F1E34B"/>
</svg>
