<?xml version="1.0" encoding="UTF-8" standalone="no"?><!DOCTYPE svg PUBLIC "-//W3C//DTD SVG 1.1//EN" "http://www.w3.org/Graphics/SVG/1.1/DTD/svg11.dtd"><svg width="100%" height="100%" viewBox="0 0 1025 769" version="1.1" xmlns="http://www.w3.org/2000/svg" xmlns:xlink="http://www.w3.org/1999/xlink" xml:space="preserve" xmlns:serif="http://www.serif.com/" style="fill-rule:evenodd;clip-rule:evenodd;stroke-linecap:round;stroke-linejoin:round;stroke-miterlimit:1.5;"><rect id="_03" serif:id="03" x="0.262" y="0.555" width="1024" height="768" style="fill:none;"/><clipPath id="_clip1"><rect x="0.262" y="0.555" width="1024" height="768"/></clipPath><g clip-path="url(#_clip1)"><path d="M740.292,291.055c14.986,8.407 19.274,13.168 14.377,24.128c-2.039,4.563 4.399,6.879 1.731,14.66c-2.143,6.25 -15.687,4.2 -13.816,18.312c-4.013,-0.836 -7.707,-2.859 -11.076,-5.554c-1.701,3.215 -3.641,6.682 -5.787,10.204c-1.258,2.064 -2.586,4.147 -3.979,6.209c59.039,-28.222 100.005,-64.469 89.731,-81.468c-19.066,-31.546 -38.771,-53.659 -62.564,-74.431c-5.426,9.062 -16.524,17.126 -22.033,20.786c10.862,14.032 17.958,27.135 30.521,55.54c-8.393,5.723 -11.847,8.095 -17.105,11.614" style="fill:#bee3fb;"/><path d="M513.187,480.123c10.282,6.8 23.134,12.528 39.346,14.45c10.626,1.26 22.696,0.884 36.43,-1.895c32.34,-6.545 42.468,-22.745 45.813,-32.17c9.113,-4.703 17.6,-9.333 25.46,-14.783c18.929,-13.125 34.224,-31.007 45.885,-66.137c-0.634,0.115 -1.333,-0.131 -2.049,-0.605c-2.568,1.986 -5.218,3.624 -7.931,4.793c-4.801,2.069 -9.798,2.672 -14.879,1.145c-3.818,12.522 -15.572,15.107 -28.303,-8.492c-1.18,-2.188 -17.883,-39.607 3.396,-54.603c-0.733,-3.62 -1.275,-6.876 -1.539,-9.883c-33.874,-4.108 -40.815,7.899 -153.021,52.517c-5.165,-13.369 -8.584,-24.229 -11.596,-33.949c-11.391,2.517 -22.456,11.074 -30.458,18.695c2.278,23.756 5.258,47.126 11.781,66.052c17.556,-0.627 37.07,-3.952 56.159,-8.432c-11.842,20.603 -15.484,45.695 -14.494,73.297" style="fill:#bee3fb;"/><g><path d="M291.192,587.036c42.425,-38.262 59.249,-118.175 40.842,-117.093c-31.389,1.847 -35.002,55.515 -76.736,117.093l35.894,-0" style="fill:#5cba9e;"/><path d="M542.868,587.036c2.178,-4.132 3.567,-8.925 3.699,-14.475c0.062,-2.598 -6.05,-40.574 -42.011,-8.609c-24.205,21.516 -37.125,3.186 -26.515,-4.476c4.888,-3.531 27.1,-7.544 22.383,-21.695c-2.862,-8.585 -52.445,7.398 -25.827,-24.449c18.084,-21.636 25.131,-18.647 26.86,-47.177c4.041,-66.67 -169.174,-71.659 -96.419,22.039c2.233,2.877 40.05,51.58 9.986,44.422c-8.506,-2.025 -41.671,-47.302 -56.474,-30.648c-12.106,13.62 86.003,47.435 52.342,61.295c-7.221,2.974 -66.905,-27.012 -62.329,-4.132c1.582,7.909 71.062,27.281 32.37,18.595c-9.783,-2.196 -30.818,-12.387 -50.276,4.477c-1.862,1.614 -3.237,3.229 -4.199,4.833l216.41,-0" style="fill:#5cba9e;"/><path d="M955.805,587.036c10.553,-14.402 3.144,-29.113 -3.588,-27.905c-2.949,0.53 -36.938,19.813 -32.025,9.986c0.694,-1.387 11.215,-22.428 2.066,-19.283c-0.257,0.088 -39.025,24.097 -36.501,8.953c3.602,-21.612 68.405,-48.176 56.818,-73.003c-9.723,-20.836 -40.552,51.439 -54.063,22.727c-8.871,-18.851 91.888,-76.963 36.846,-105.373c-10.914,-5.632 -61.026,-9.498 -57.852,46.833c1.191,21.134 9.201,54.408 -13.43,54.408c-19.239,-0 12.726,-59.801 -33.747,-44.766c-9.123,2.951 -22.406,27.263 7.232,46.488c3.005,1.949 43.32,28.099 15.496,42.011c-12.649,6.324 -61.414,-38.208 -67.149,-12.397c-5.154,23.189 57.177,27.23 34.091,42.356c-3.905,2.558 -65.428,-27.415 -65.428,6.887c0,0.678 0.08,1.372 0.231,2.078l211.003,-0" style="fill:#5cba9e;"/><path d="M227.189,587.036l0.15,-0.315l0.067,0.315l13.409,-0c5.512,-8.546 13.665,-21.189 25.792,-39.957c83.156,-128.694 -1.661,-176.752 -24.105,-140.841c-24.563,39.3 -30.322,72.234 -28.237,105.094c-14.186,-15.761 -32.463,-19.905 -40.29,0.967c-3.443,9.183 -4.33,36.682 -3.099,43.733c1.274,7.297 7.824,20.257 13.805,31.004" style="fill:#5cba9e;"/><path d="M955.805,587.036c10.553,-14.402 3.144,-29.113 -3.588,-27.905c-2.949,0.53 -36.938,19.813 -32.025,9.986c0.694,-1.387 11.215,-22.428 2.066,-19.283c-0.257,0.088 -39.025,24.097 -36.501,8.953c3.602,-21.612 68.405,-48.176 56.818,-73.003c-9.723,-20.836 -40.552,51.439 -54.063,22.727c-8.871,-18.851 91.888,-76.963 36.846,-105.373c-10.914,-5.632 -61.026,-9.498 -57.852,46.833c1.191,21.134 9.201,54.408 -13.43,54.408c-19.239,-0 12.726,-59.801 -33.747,-44.766c-9.123,2.951 -22.406,27.263 7.232,46.488c3.005,1.949 43.32,28.099 15.496,42.011c-12.649,6.324 -61.414,-38.208 -67.149,-12.397c-5.154,23.189 57.177,27.23 34.091,42.356c-3.905,2.558 -65.428,-27.415 -65.428,6.887c0,0.678 0.08,1.372 0.231,2.078" style="fill:none;stroke:#000;stroke-width:4.17px;"/><path d="M542.868,587.036c2.178,-4.132 3.567,-8.925 3.699,-14.475c0.062,-2.598 -6.05,-40.574 -42.011,-8.609c-24.205,21.516 -37.125,3.186 -26.515,-4.476c4.888,-3.531 27.1,-7.544 22.383,-21.695c-2.862,-8.585 -52.445,7.398 -25.827,-24.449c18.084,-21.636 25.131,-18.647 26.86,-47.177c4.041,-66.67 -169.174,-71.659 -96.419,22.039c2.233,2.877 40.05,51.58 9.986,44.422c-8.506,-2.025 -41.671,-47.302 -56.474,-30.648c-12.106,13.62 86.003,47.435 52.342,61.295c-7.221,2.974 -66.905,-27.012 -62.329,-4.132c1.582,7.909 71.062,27.281 32.37,18.595c-9.783,-2.196 -30.818,-12.387 -50.276,4.477c-1.862,1.614 -3.237,3.229 -4.199,4.833" style="fill:none;stroke:#000;stroke-width:4.17px;"/><path d="M240.815,587.036c5.512,-8.546 13.665,-21.189 25.792,-39.957c83.156,-128.694 -1.661,-176.752 -24.105,-140.841c-24.563,39.3 -30.322,72.234 -28.237,105.094c1.543,24.32 7.382,48.6 13.074,75.389c0.022,0.105 0.044,0.21 0.067,0.315" style="fill:none;stroke:#000;stroke-width:4.17px;"/><path d="M227.189,587.036c0.05,-0.105 0.1,-0.21 0.15,-0.315c12.941,-27.379 2.352,-58.252 -13.074,-75.389c-14.186,-15.761 -32.463,-19.905 -40.29,0.967c-3.443,9.183 -4.33,36.682 -3.099,43.733c1.274,7.297 7.824,20.257 13.805,31.004" style="fill:none;stroke:#000;stroke-width:4.17px;"/><path d="M291.192,587.036c42.425,-38.262 59.249,-118.175 40.842,-117.093c-31.389,1.847 -35.002,55.515 -76.736,117.093" style="fill:none;stroke:#000;stroke-width:4.17px;"/><path d="M162.328,587.036l809.318,-0" style="fill:none;stroke:#000;stroke-width:4.17px;"/></g><path d="M505.567,654.594c0.509,0.291 3.166,2.754 7.465,5.515c11.495,7.384 34.729,16.901 60.024,-7.286c21.856,-20.897 29.865,-74.599 32.787,-106.562c7.864,-1.099 18.459,-3.52 36.365,-8.404c8.052,-2.196 14.255,-5.28 28.098,-9.127c-16.764,24.098 -24.976,51.324 -37.538,102.809l-0.177,0.725l0.177,-0.725c-0.097,0.216 -0.196,0.444 -0.297,0.681l0.12,0.044c6.559,2.383 13.752,3.984 21.701,4.055c7.193,0.064 15.005,-1.125 23.525,-4.123c0.404,-0.143 0.81,-0.289 1.218,-0.44c-0.403,-0.18 -0.801,-0.363 -1.196,-0.547c0.18,-6.76 0.933,-14.666 2.82,-23.654c5.607,-6.425 12.372,-14.086 23.004,-25.464c68.732,-73.551 69.344,-72.801 75.075,-79.402c30.324,-34.927 -33.468,-61.475 -118.502,-56.96c-7.861,5.45 -16.348,10.08 -25.461,14.783c-3.345,9.426 -13.472,25.625 -45.812,32.17c-13.735,2.78 -25.804,3.155 -36.43,1.895c-16.213,-1.922 -29.065,-7.65 -39.346,-14.45c0.489,13.642 2.11,27.897 4.433,42.526c3.79,23.871 9.446,48.738 15.1,73.562c-12.458,-8.502 -24.67,-9.921 -40.86,-6.313c-6.044,1.347 -12.642,3.395 -20.013,6.036c-2.567,7.889 -1.397,16.316 -1.178,17.897c2.455,17.696 37.33,42.148 42.363,46.274" style="fill:#5db9f5;"/><path d="M731.508,342.601c-1.701,3.215 -3.641,6.682 -5.787,10.204c-4.806,7.886 -10.645,16.048 -17.145,22.278m-4.504,3.903c-2.568,1.986 -5.218,3.623 -7.931,4.793c-5.252,2.264 -10.739,2.773 -16.314,0.657c-13.977,-5.303 -20.775,-20.42 -21.81,-37.716" style="fill:none;stroke:#000;stroke-width:4.17px;"/><path d="M742.584,348.155c-4.013,-0.836 -7.707,-2.859 -11.076,-5.554c-8.835,-7.067 -15.438,-18.756 -19.698,-25.789c-6.976,6.179 -8.405,6.014 -26.062,-1.385c0,18.344 -11.063,27.455 -13.031,29.075c1.827,-10.657 1.841,-13.008 0.917,-15.576c-1.647,-4.572 -9.165,-7.928 -13.948,-4.718c-10.031,6.732 -8.425,20.423 -0.288,23.102" style="fill:none;stroke:#000;stroke-width:4.17px;"/><path d="M742.584,348.155c-1.871,-14.112 11.673,-12.062 13.816,-18.312c2.668,-7.781 -3.77,-10.097 -1.731,-14.66c6.401,-14.325 -2.891,-18.062 -31.253,-33.188c-33.921,-18.091 -38.443,-9.052 -46.016,0.204c-2.88,3.52 -12.659,0.865 -19.037,11.707c-5.232,8.895 -4.289,17.611 -1.249,31.521" style="fill:none;stroke:#000;stroke-width:4.17px;"/><path d="M725.721,352.805c-5.464,0.487 -12.81,1.15 -12.699,1.191c0.175,0.064 -1.415,1.214 -4.446,21.087c-0.731,4.793 -2.553,5.195 -4.504,3.903c-3.052,-2.022 -6.42,-8.194 -6.42,-8.194" style="fill:none;stroke:#000;stroke-width:4.17px;"/><path d="M703.213,352.292c0,0 -6.825,-5.301 -20.356,-4.137" style="fill:none;stroke:#000;stroke-width:4.17px;"/><path d="M694.188,356.973c0.737,0.361 0.769,1.81 0.072,3.234c-0.698,1.425 -1.862,2.288 -2.599,1.927c-0.737,-0.361 -0.769,-1.81 -0.072,-3.234c0.698,-1.425 1.863,-2.288 2.599,-1.927Z" style="fill:none;stroke:#000;stroke-width:4.17px;"/><path d="M717.682,359.636c0.737,0.36 0.769,1.81 0.071,3.234c-0.697,1.424 -1.862,2.288 -2.599,1.927c-0.737,-0.361 -0.769,-1.81 -0.071,-3.235c0.697,-1.424 1.862,-2.287 2.599,-1.926Z" style="fill:none;stroke:#000;stroke-width:4.17px;"/><path d="M696.141,383.779c-2.143,-2.5 -6.569,-6.583 -13.284,-7.668" style="fill:none;stroke:#000;stroke-width:4.17px;"/><path d="M654.816,311.946c-33.874,-4.108 -40.815,7.899 -153.021,52.517" style="fill:none;stroke:#000;stroke-width:4.17px;"/><path d="M625.202,375.844c-6.957,2.273 -50.976,20.062 -97.521,30.985c-19.089,4.48 -38.603,7.805 -56.159,8.431" style="fill:none;stroke:#000;stroke-width:4.17px;"/><path d="M471.522,415.26c-6.523,-18.925 -9.503,-42.295 -11.781,-66.051c-0.401,-4.191 -0.781,-8.394 -1.155,-12.587c-1.194,-13.402 -2.325,-26.698 -3.901,-39.162" style="fill:none;stroke:#000;stroke-width:4.17px;"/><path d="M467.447,276.72c10.372,16.744 15.125,29.592 19.751,44.163c0.988,3.113 1.971,6.305 3.001,9.631c3.012,9.72 6.431,20.58 11.596,33.949c2.227,5.765 4.778,11.996 7.762,18.804" style="fill:none;stroke:#000;stroke-width:4.17px;"/><path d="M467.447,276.72c-3.328,0.11 -7.405,0.819 -12.171,2.699c-15.865,6.258 -17.632,6.162 -31.386,8.271" style="fill:none;stroke:#000;stroke-width:4.17px;"/><path d="M423.89,287.69c6.59,11.37 12.255,11.288 30.795,9.77" style="fill:none;stroke:#000;stroke-width:4.17px;"/><path d="M487.198,320.883c-10.914,3.064 -21.008,9.129 -28.612,15.739" style="fill:none;stroke:#000;stroke-width:4.17px;"/><path d="M490.199,330.514c-11.391,2.517 -22.456,11.074 -30.458,18.695" style="fill:none;stroke:#000;stroke-width:4.17px;"/><path d="M721.838,358.922c59.039,-28.221 99.909,-64.377 89.635,-81.376c-29.076,-48.109 -59.638,-74.279 -103.921,-107.211" style="fill:none;stroke:#000;stroke-width:4.17px;"/><path d="M688.386,179.606c14.843,16.878 24.994,27.888 32.951,37.425c1.968,2.358 3.802,4.626 5.539,6.87c10.862,14.032 17.958,27.135 30.521,55.54" style="fill:none;stroke:#000;stroke-width:4.17px;"/><path d="M766.445,273.278c-3.579,2.435 -6.535,4.449 -9.048,6.163c-8.393,5.723 -11.847,8.095 -17.105,11.614" style="fill:none;stroke:#000;stroke-width:4.17px;"/><path d="M741.564,196.848c-3.118,6.19 -9.324,15.486 -20.227,20.183" style="fill:none;stroke:#000;stroke-width:4.17px;"/><path d="M748.909,203.115c-5.426,9.062 -16.524,17.126 -22.033,20.786" style="fill:none;stroke:#000;stroke-width:4.17px;"/><path d="M706.121,379.591c-11.661,35.13 -26.956,53.012 -45.885,66.137c-7.86,5.45 -16.347,10.079 -25.46,14.783c-7.32,3.778 -15.044,7.603 -23.172,11.94" style="fill:none;stroke:#000;stroke-width:4.17px;"/><path d="M527.681,406.829c-11.842,20.603 -15.484,45.695 -14.494,73.297c0.49,13.642 2.111,27.897 4.434,42.526c3.789,23.871 9.446,48.738 15.1,73.562c2.803,12.311 5.606,24.611 8.18,36.774" style="fill:none;stroke:#000;stroke-width:4.17px;"/><path d="M607.448,522.305c-0.456,10.788 -4.3,101.745 -34.391,130.517c-34.755,33.231 -65.618,2.839 -67.49,1.77" style="fill:none;stroke:#000;stroke-width:4.17px;"/><path d="M532.721,596.214c-12.458,-8.502 -24.671,-9.921 -40.861,-6.313c-6.043,1.347 -12.641,3.395 -20.013,6.036" style="fill:none;stroke:#000;stroke-width:4.17px;"/><path d="M482.835,583.282c-15.471,6.729 -12.527,27.946 -12.165,30.552c2.455,17.696 37.329,42.148 42.363,46.274" style="fill:none;stroke:#000;stroke-width:4.17px;"/><path d="M660.236,445.728c85.034,-4.516 148.827,22.033 118.503,56.959c-5.731,6.601 -6.343,5.852 -75.075,79.403c-10.632,11.377 -17.397,19.038 -23.004,25.464" style="fill:none;stroke:#000;stroke-width:4.17px;"/><path d="M727.459,517.422c-28.315,4.263 -45.459,8.057 -57.153,11.307c-13.842,3.847 -20.045,6.931 -28.098,9.127c-17.906,4.883 -28.5,7.305 -36.365,8.404" style="fill:none;stroke:#000;stroke-width:4.17px;"/><path d="M670.306,528.729c-16.763,24.098 -24.976,51.324 -37.537,102.809l-0.177,0.725" style="fill:none;stroke:#000;stroke-width:4.17px;"/><path d="M680.66,607.554c-1.887,8.988 -2.64,16.894 -2.82,23.654" style="fill:none;stroke:#000;stroke-width:4.17px;"/><path d="M679.035,631.755c-0.407,0.151 -0.813,0.297 -1.217,0.439c-8.521,2.999 -16.333,4.188 -23.526,4.124c-7.948,-0.071 -15.142,-1.673 -21.7,-4.055l-0.121,-0.044" style="fill:none;stroke:#000;stroke-width:4.17px;"/><path d="M677.84,631.208c0.395,0.184 0.793,0.366 1.195,0.547c23.968,10.769 61.026,15.775 45.424,22.054c-0.184,0.074 -23.386,0.198 -45.454,-0.169c-15.436,-0.257 -30.317,-0.754 -36.378,-1.677c-15.754,-2.399 -12.587,-14.014 -10.156,-19.744c0.101,-0.238 0.201,-0.465 0.298,-0.681" style="fill:none;stroke:#000;stroke-width:4.17px;"/><path d="M491.86,589.901c-35.419,-58.405 -50.003,60.068 -36.608,62.735c18.154,3.614 34.452,0.529 35.404,-0.747c1.2,-1.607 1.388,-2.347 0.039,-10.003" style="fill:none;stroke:#000;stroke-width:4.17px;"/><path d="M634.776,460.511c-3.345,9.425 -13.473,25.625 -45.813,32.17c-13.734,2.779 -25.804,3.154 -36.43,1.895c-16.212,-1.922 -29.064,-7.65 -39.346,-14.45" style="fill:none;stroke:#000;stroke-width:4.17px;"/><path d="M552.533,494.576c10.318,38.706 -18.022,33.514 -34.912,28.076" style="fill:none;stroke:#000;stroke-width:4.17px;"/><path d="M656.355,321.829c-21.279,14.996 -4.576,52.415 -3.396,54.603c12.731,23.599 24.485,21.014 28.303,8.492" style="fill:none;stroke:#000;stroke-width:4.17px;"/><g><path d="M795.113,126.288l-20.899,-15.152l116.546,-7.872l-52.354,54.412l-18.864,-13.676c0,-0 -412.778,157.378 -412.778,157.378l-99.414,-97.69l-35.528,338.542l-125.051,-115.636l-130.38,175.392l-82.285,-37.93l189.945,-205.411l108.602,90.932l54.156,-305.623l119.966,114.712l388.338,-132.378" style="fill:#2496ef;"/><path d="M795.113,115.047l-20.899,-15.152l116.546,-7.873l-52.354,54.413l-18.864,-13.677c0,0 -412.778,157.378 -412.778,157.378l-99.414,-97.689l-35.528,338.541l-125.051,-115.635l-130.38,175.392l-82.285,-37.93l189.945,-205.411l108.602,90.931l54.156,-305.622l119.966,114.712l388.338,-132.378" style="fill:#9ed5f9;"/></g><path d="M657.051,326.303c-3.041,-13.91 -3.92,-23.587 1.312,-32.481c6.378,-10.842 16.157,-8.188 19.037,-11.708c7.573,-9.256 12.095,-18.294 46.016,-0.203c28.362,15.126 37.654,18.863 31.253,33.188c-2.039,4.563 4.399,6.878 1.731,14.659c-2.143,6.25 -15.687,4.201 -13.816,18.313c-4.013,-0.836 -7.707,-2.859 -11.076,-5.554c-8.835,-7.068 -15.438,-18.756 -19.698,-25.79c-6.976,6.179 -8.405,6.015 -26.062,-1.384c0,18.344 -11.063,27.455 -13.031,29.075c1.827,-10.657 1.841,-13.008 0.917,-15.576c-1.647,-4.573 -9.165,-7.928 -13.948,-4.718c-0.99,0.664 -1.867,1.397 -2.635,2.179"/><path d="M490.695,641.886c1.349,7.656 1.161,8.396 -0.039,10.003c-0.952,1.276 -17.25,4.361 -35.404,0.747c-13.395,-2.667 1.189,-121.14 36.608,-62.735c-6.043,1.347 -12.641,3.395 -20.013,6.036c-2.566,7.888 -1.397,16.316 -1.177,17.897c1.219,8.79 10.438,19.247 20.025,28.052"/><path d="M679.035,631.755c-0.407,0.151 -0.813,0.297 -1.217,0.439c-8.521,2.999 -16.333,4.188 -23.526,4.124c-7.948,-0.071 -15.142,-1.673 -21.7,-4.055l-0.121,-0.044l0.298,-0.681c-0.097,0.216 -0.197,0.443 -0.298,0.681c-2.431,5.73 -5.598,17.345 10.156,19.744c6.061,0.923 20.942,1.42 36.378,1.677c22.068,0.367 45.27,0.243 45.454,0.169c15.602,-6.279 -21.456,-11.285 -45.424,-22.054c-0.402,-0.181 -0.8,-0.363 -1.195,-0.547"/></g></svg>