<?xml version="1.0" encoding="UTF-8"?>
<svg id="Layer_1" xmlns="http://www.w3.org/2000/svg" version="1.1" viewBox="0 0 688.45 149.94">
  <!-- Generator: Adobe Illustrator 29.0.0, SVG Export Plug-In . SVG Version: 2.1.0 Build 186)  -->
  <defs>
    <style>
      .st0 {
        fill: #5dba9f;
      }

      .st1 {
        fill: #9cd5fd;
      }

      .st2 {
        fill: #020144;
      }
    </style>
  </defs>
  <g>
    <g>
      <g>
        <path class="st1" d="M8.1,79.54h25.3c-.62-2.75-.96-5.61-.96-8.55,0-2.62.26-5.18.76-7.65h-16.41c3.93-26.63,26.93-47.14,54.64-47.14,21.27,0,39.76,12.09,48.99,29.75.38.73,1.12,1.19,1.95,1.19h13.04c1.55,0,2.63-1.58,2.03-3.02C126.7,18.25,101.16,0,71.44,0,32.05,0,0,32.05,0,71.44c0,.95.02,1.89.06,2.82.12,2.94,2.52,5.28,5.47,5.28h2.58Z"/>
        <path class="st1" d="M142.82,68.61c-.12-2.94-2.52-5.27-5.47-5.27h-2.68s-21.81,0-21.81,0h0s-.7,0-.7,0h-1.34c-.19,0-.38.05-.55.15l-12.12,7c-.74.43-.74,1.49,0,1.91l12.11,6.99c.17.1.36.15.55.15h5.15s10.11,0,10.11,0c-3.93,26.63-26.93,47.14-54.64,47.14-21.27,0-39.76-12.09-48.99-29.75-.38-.73-1.12-1.19-1.95-1.19H7.46c-1.55,0-2.63,1.58-2.03,3.02,10.75,25.88,36.29,44.12,66.01,44.12,39.39,0,71.44-32.05,71.44-71.44,0-.95-.02-1.89-.06-2.82Z"/>
      </g>
      <path class="st0" d="M71.44,88.95c-10.04,0-18.11-8.45-17.47-18.63.53-8.44,7.2-15.43,15.62-16.29,8.01-.82,15.05,3.75,17.95,10.53.8,1.86,3.06,2.59,4.81,1.58l17.38-10.03c1.57-.91,2.14-2.88,1.33-4.5-7.46-14.88-23.05-24.99-40.96-24.46-23.54.69-42.6,20.05-42.97,43.59-.39,24.8,19.6,45.02,44.31,45.02,17.34,0,32.34-9.96,39.62-24.47.81-1.62.24-3.6-1.33-4.5l-17.38-10.04c-1.76-1.02-4.02-.27-4.82,1.6-2.68,6.23-8.86,10.6-16.08,10.6Z"/>
    </g>
    <g>
      <path class="st2" d="M193.32,55.74c-1.87-3.11-7-6.07-12.92-6.07-7.63,0-11.28,3.19-11.28,7.24,0,4.75,5.6,6.07,12.14,6.85,11.36,1.4,21.94,4.36,21.94,17.35,0,12.14-10.74,17.35-22.88,17.35-11.13,0-19.69-3.42-23.73-13.38l8.56-4.43c2.41,5.99,8.71,8.64,15.33,8.64s12.53-2.26,12.53-8.17c0-5.14-5.37-7.24-12.61-8.01-11.13-1.32-21.4-4.28-21.4-16.5,0-11.2,11.05-15.8,21.09-15.87,8.48,0,17.27,2.41,21.4,10.82l-8.17,4.2Z"/>
      <path class="st2" d="M218.59,58.69v20.07c0,5.84,3.19,10.27,9.26,10.27s9.8-4.9,9.8-10.74v-19.61h9.41v38.44h-8.48l-.62-5.21c-3.97,3.89-7.63,5.76-12.99,5.76-9.18,0-15.87-6.92-15.87-18.83v-20.15h9.49Z"/>
      <path class="st2" d="M254.19,113.08v-54.39h8.87l.62,5.29c2.96-4.28,8.09-6.15,12.45-6.15,11.83,0,19.69,8.79,19.69,20.08s-7.08,20.07-19.37,20.07c-4.05,0-10.04-1.24-12.76-5.45v20.54h-9.49ZM286.32,77.91c0-5.99-4.05-10.89-10.89-10.89s-10.89,4.9-10.89,10.89,4.43,10.89,10.89,10.89,10.89-4.9,10.89-10.89Z"/>
      <path class="st2" d="M301.53,113.08v-54.39h8.87l.62,5.29c2.96-4.28,8.09-6.15,12.45-6.15,11.83,0,19.69,8.79,19.69,20.08s-7.08,20.07-19.37,20.07c-4.05,0-10.04-1.24-12.76-5.45v20.54h-9.49ZM333.67,77.91c0-5.99-4.05-10.89-10.89-10.89s-10.89,4.9-10.89,10.89,4.43,10.89,10.89,10.89,10.89-4.9,10.89-10.89Z"/>
      <path class="st2" d="M388.29,77.91c0,11.05-7.55,20-20,20s-19.92-8.95-19.92-20,7.63-20,19.84-20,20.07,9.03,20.07,20ZM357.87,77.91c0,5.84,3.5,11.28,10.43,11.28s10.43-5.45,10.43-11.28-4.05-11.36-10.43-11.36c-6.85,0-10.43,5.6-10.43,11.36Z"/>
      <path class="st2" d="M402.33,58.69l.7,4.44c2.96-4.75,6.93-5.45,10.82-5.45s7.78,1.56,9.88,3.66l-4.28,8.25c-1.95-1.63-3.73-2.49-6.85-2.49-4.98,0-9.57,2.65-9.57,9.73v20.23h-9.49v-38.36h8.79Z"/>
      <path class="st2" d="M444.39,47.88v10.89h10.58v8.17h-10.66v16.57c0,3.66,2.02,5.45,4.98,5.45,1.48,0,3.19-.47,4.59-1.17l2.65,8.09c-2.72,1.09-4.98,1.56-7.86,1.63-8.33.31-13.77-4.43-13.77-14.01v-16.57h-7.16v-8.17h7.16v-4.89l9.49-6.01Z"/>
      <path class="st2" d="M566.78,90.21c-5.6,5.52-12.84,8.09-20.7,8.09-20.23,0-28.79-13.93-28.87-28.09-.08-14.24,9.18-28.71,28.87-28.71,7.39,0,14.39,2.8,20,8.33l-6.85,6.61c-3.58-3.5-8.4-5.14-13.15-5.14-13.15,0-18.83,9.8-18.75,18.91.08,9.03,5.29,18.44,18.75,18.44,4.75,0,10.12-1.95,13.69-5.52l7,7.08Z"/>
      <path class="st2" d="M601.27,58.69h9.1v38.36h-8.95l-.47-5.6c-2.18,4.51-8.17,6.69-12.45,6.77-11.36.08-19.76-6.93-19.76-20.39s8.79-20.15,20-20.08c5.14,0,10.04,2.41,12.22,6.22l.31-5.29ZM578.24,77.84c0,7.31,5.06,11.67,11.36,11.67,14.94,0,14.94-23.27,0-23.27-6.3,0-11.36,4.28-11.36,11.59Z"/>
      <path class="st2" d="M625.25,58.69l.7,4.44c2.96-4.75,6.93-5.45,10.82-5.45s7.78,1.56,9.88,3.66l-4.28,8.25c-1.95-1.63-3.73-2.49-6.85-2.49-4.98,0-9.57,2.65-9.57,9.73v20.23h-9.49v-38.36h8.79Z"/>
      <path class="st2" d="M658.32,81.26c.62,4.75,4.75,8.17,11.44,8.17,3.5,0,8.09-1.32,10.27-3.58l6.07,5.99c-4.05,4.2-10.66,6.22-16.5,6.22-13.23,0-21.09-8.17-21.09-20.46s7.94-20.07,20.39-20.07,20.85,7.94,19.37,23.73h-29.96ZM679.17,73.4c-.62-4.98-4.51-7.47-9.96-7.47-5.14,0-9.34,2.49-10.74,7.47h20.7Z"/>
    </g>
  </g>
  <g>
    <path d="M327.62,142.29v-19.38l-3.04-.2c-.41-.04-.61-.22-.61-.54v-.85h3.65v-2.74c0-1.23.16-2.32.48-3.25s.77-1.71,1.35-2.34c.58-.62,1.28-1.09,2.09-1.4.81-.31,1.71-.47,2.7-.47.45,0,.9.04,1.36.12.46.08.87.19,1.23.34l-.07,1c-.03.13-.09.21-.18.25-.09.04-.23.05-.4.04s-.4-.03-.67-.07-.59-.05-.96-.05c-.71,0-1.37.1-1.97.31-.6.21-1.12.55-1.55,1.01-.44.46-.77,1.07-1.01,1.82-.24.75-.36,1.66-.36,2.75v2.67h7.02v1.54h-6.96v19.42h-2.09Z"/>
    <path d="M348.85,120.3c1.55,0,2.94.26,4.16.79,1.23.53,2.26,1.28,3.1,2.25.84.97,1.48,2.14,1.92,3.51.44,1.37.66,2.9.66,4.6s-.22,3.23-.66,4.59c-.44,1.36-1.08,2.53-1.92,3.5-.84.97-1.87,1.72-3.1,2.24-1.22.52-2.61.78-4.16.78s-2.94-.26-4.16-.78c-1.23-.52-2.26-1.27-3.11-2.24s-1.49-2.14-1.94-3.5c-.44-1.36-.66-2.89-.66-4.59s.22-3.23.66-4.6c.44-1.37,1.09-2.54,1.94-3.51.85-.97,1.88-1.72,3.11-2.25,1.22-.53,2.61-.79,4.16-.79ZM348.85,140.94c1.29,0,2.42-.22,3.38-.66.96-.44,1.77-1.08,2.41-1.9.64-.83,1.13-1.82,1.45-2.99.32-1.17.48-2.48.48-3.93s-.16-2.74-.48-3.91c-.32-1.17-.8-2.18-1.45-3.01-.65-.83-1.45-1.48-2.41-1.92-.96-.45-2.09-.67-3.38-.67s-2.42.22-3.38.67c-.96.45-1.77,1.09-2.41,1.92s-1.13,1.84-1.46,3.01-.49,2.48-.49,3.91.16,2.76.49,3.93.81,2.16,1.46,2.99c.65.83,1.45,1.46,2.41,1.9.96.44,2.09.66,3.38.66Z"/>
    <path d="M366.53,125.87c.33-.88.71-1.67,1.14-2.36.43-.69.92-1.27,1.48-1.75.56-.48,1.18-.84,1.87-1.1.69-.25,1.45-.38,2.29-.38.45,0,.89.04,1.33.12.44.08.82.22,1.15.42l-.17,1.44c-.07.23-.21.35-.41.35-.17,0-.44-.05-.79-.15s-.82-.15-1.4-.15c-.84,0-1.58.13-2.23.38-.65.25-1.23.63-1.74,1.14-.51.51-.96,1.13-1.35,1.88-.38.75-.74,1.61-1.05,2.58v14h-2.09v-21.64h1.11c.25,0,.42.05.52.15s.17.28.2.52l.15,4.54Z"/>
    <path d="M410.26,140.44l-.04,1.85h-18.44v-30.77h18.44v1.85h-16.2v12.44h13.48v1.8h-13.48v12.83h16.24Z"/>
    <path d="M429.35,123.54c-.07.07-.14.13-.21.19s-.16.08-.27.08c-.14,0-.34-.1-.59-.29-.25-.2-.58-.41-1-.64s-.95-.45-1.58-.64c-.63-.2-1.39-.29-2.29-.29-1.25,0-2.35.22-3.32.66-.96.44-1.78,1.08-2.45,1.9-.67.83-1.17,1.83-1.51,3s-.51,2.49-.51,3.96.18,2.87.53,4.04c.35,1.17.86,2.16,1.51,2.97.65.8,1.44,1.42,2.37,1.84.93.42,1.96.63,3.09.63,1.04,0,1.92-.12,2.62-.37.7-.25,1.28-.51,1.74-.8.46-.29.82-.56,1.08-.8.26-.25.48-.37.65-.37s.32.07.43.22l.54.7c-.33.44-.75.84-1.26,1.22-.51.38-1.08.7-1.72.98-.64.28-1.33.49-2.08.64-.75.15-1.53.23-2.34.23-1.38,0-2.63-.25-3.77-.75-1.14-.5-2.12-1.22-2.94-2.17-.82-.95-1.46-2.11-1.91-3.49-.46-1.38-.68-2.94-.68-4.7,0-1.65.22-3.16.65-4.52.43-1.36,1.07-2.54,1.91-3.52.84-.99,1.87-1.75,3.08-2.29,1.21-.54,2.6-.82,4.16-.82,1.41,0,2.65.22,3.74.67,1.09.45,2.04,1.06,2.85,1.83l-.54.74Z"/>
    <path d="M437.59,110.65v31.64h-2.09v-31.64h2.09Z"/>
    <path d="M448.12,113.19c0,.26-.05.5-.16.73-.11.23-.25.42-.42.6s-.38.31-.61.41c-.23.1-.48.15-.74.15s-.51-.05-.74-.15c-.23-.1-.43-.24-.61-.41-.17-.17-.31-.37-.41-.6-.1-.22-.15-.47-.15-.73s.05-.51.15-.75.24-.45.41-.62c.17-.17.38-.31.61-.41.23-.1.48-.15.74-.15s.51.05.74.15c.23.1.44.24.61.41.17.17.32.38.42.62.11.24.16.49.16.75ZM447.22,120.65v21.64h-2.07v-21.64h2.07Z"/>
    <path d="M456.6,124.54c.96-1.3,2.08-2.34,3.36-3.11,1.28-.77,2.72-1.15,4.32-1.15,2.65,0,4.72.92,6.21,2.76,1.49,1.84,2.23,4.6,2.23,8.29,0,1.58-.21,3.06-.62,4.43s-1.02,2.56-1.83,3.57c-.8,1.01-1.79,1.8-2.96,2.38-1.17.58-2.51.87-4.03.87s-2.73-.27-3.81-.8c-1.07-.54-2-1.33-2.78-2.37v10.55h-2.09v-29.29h1.15c.36,0,.57.18.63.54l.22,3.35ZM456.68,137.57c.42.62.86,1.15,1.32,1.58.46.43.94.78,1.45,1.04.51.27,1.05.46,1.62.58.57.12,1.18.17,1.82.17,1.28,0,2.39-.23,3.35-.7s1.76-1.12,2.4-1.97,1.13-1.86,1.46-3.04c.33-1.18.49-2.48.49-3.9,0-3.22-.6-5.58-1.78-7.1-1.19-1.51-2.89-2.27-5.11-2.27-1.44,0-2.73.37-3.89,1.11-1.16.74-2.2,1.77-3.11,3.09v11.42Z"/>
    <path d="M490.48,123.32c-.12.2-.28.3-.5.3-.16,0-.36-.09-.61-.27-.25-.18-.58-.38-.99-.61-.41-.22-.92-.43-1.53-.61-.61-.18-1.35-.27-2.22-.27-.78,0-1.5.11-2.14.34-.65.23-1.2.53-1.65.9-.46.38-.81.82-1.05,1.32-.25.5-.37,1.03-.37,1.58,0,.68.17,1.25.52,1.7.35.45.8.83,1.36,1.15s1.2.59,1.92.83c.72.23,1.46.46,2.21.7.75.23,1.48.49,2.21.77.72.28,1.37.63,1.92,1.05.56.42,1.01.94,1.36,1.54s.52,1.35.52,2.22c0,.94-.17,1.82-.5,2.63-.33.81-.82,1.52-1.47,2.11-.65.59-1.44,1.07-2.38,1.41-.94.35-2.02.52-3.24.52-1.52,0-2.83-.24-3.94-.73-1.1-.49-2.09-1.12-2.96-1.9l.48-.74c.07-.12.16-.2.25-.26.09-.06.22-.09.38-.09.19,0,.42.12.68.35s.63.48,1.08.75c.45.27,1,.52,1.66.75.66.23,1.48.35,2.45.35.91,0,1.72-.13,2.41-.38.7-.25,1.28-.6,1.74-1.03.46-.43.82-.95,1.05-1.53.24-.59.36-1.21.36-1.86,0-.73-.17-1.33-.52-1.81s-.8-.88-1.37-1.22c-.57-.33-1.21-.62-1.92-.85-.72-.23-1.45-.46-2.21-.7-.75-.23-1.49-.49-2.21-.76-.72-.27-1.36-.62-1.92-1.04-.57-.42-1.02-.93-1.37-1.53s-.52-1.35-.52-2.25c0-.77.17-1.51.5-2.22.33-.71.81-1.33,1.42-1.87.62-.54,1.37-.96,2.25-1.28.88-.32,1.88-.48,2.98-.48,1.32,0,2.49.19,3.51.56,1.02.38,1.95.96,2.79,1.74l-.44.72Z"/>
    <path d="M497.8,130.61v.41c0,1.62.19,3.05.57,4.28.38,1.23.91,2.27,1.61,3.1.7.83,1.54,1.46,2.52,1.88.99.42,2.09.63,3.3.63,1.09,0,2.03-.12,2.83-.36.8-.24,1.47-.51,2.01-.8.54-.3.98-.57,1.29-.8s.55-.36.7-.36c.19,0,.33.07.44.22l.57.7c-.35.44-.81.84-1.38,1.22-.57.38-1.21.7-1.91.97-.7.27-1.46.48-2.26.64s-1.61.24-2.43.24c-1.48,0-2.83-.26-4.04-.77-1.22-.51-2.26-1.26-3.13-2.25-.87-.99-1.54-2.19-2.01-3.62-.47-1.43-.71-3.06-.71-4.9,0-1.55.22-2.98.66-4.29.44-1.31,1.08-2.44,1.91-3.39.83-.95,1.86-1.69,3.07-2.23,1.21-.54,2.58-.8,4.12-.8,1.22,0,2.35.21,3.39.63,1.04.42,1.95,1.03,2.72,1.84.77.8,1.37,1.79,1.82,2.97.44,1.17.66,2.52.66,4.04,0,.32-.04.54-.13.65-.09.12-.23.17-.44.17h-15.74ZM512.24,129.28c0-1.16-.16-2.2-.49-3.12-.33-.92-.79-1.7-1.38-2.34-.59-.64-1.3-1.13-2.12-1.47-.82-.34-1.72-.51-2.71-.51-1.12,0-2.12.17-3,.52-.88.35-1.65.85-2.29,1.5s-1.16,1.44-1.55,2.35c-.39.91-.65,1.94-.78,3.07h14.33Z"/>
    <path d="M551.23,113.41h-10.81v28.88h-2.24v-28.88h-10.87v-1.89h23.92v1.89Z"/>
    <path d="M550.76,130.61v.41c0,1.62.19,3.05.57,4.28.38,1.23.91,2.27,1.61,3.1.7.83,1.54,1.46,2.52,1.88.99.42,2.09.63,3.3.63,1.09,0,2.03-.12,2.83-.36.8-.24,1.47-.51,2.01-.8.54-.3.98-.57,1.29-.8s.55-.36.7-.36c.19,0,.33.07.44.22l.57.7c-.35.44-.81.84-1.38,1.22-.57.38-1.21.7-1.91.97-.7.27-1.46.48-2.26.64s-1.61.24-2.43.24c-1.48,0-2.83-.26-4.04-.77-1.22-.51-2.26-1.26-3.13-2.25-.87-.99-1.54-2.19-2.01-3.62-.47-1.43-.71-3.06-.71-4.9,0-1.55.22-2.98.66-4.29.44-1.31,1.08-2.44,1.91-3.39.83-.95,1.86-1.69,3.07-2.23,1.21-.54,2.58-.8,4.12-.8,1.22,0,2.35.21,3.39.63,1.04.42,1.95,1.03,2.72,1.84.77.8,1.37,1.79,1.82,2.97.44,1.17.66,2.52.66,4.04,0,.32-.04.54-.13.65-.09.12-.23.17-.44.17h-15.74ZM565.19,129.28c0-1.16-.16-2.2-.49-3.12-.33-.92-.79-1.7-1.38-2.34-.59-.64-1.3-1.13-2.12-1.47-.82-.34-1.72-.51-2.71-.51-1.12,0-2.12.17-3,.52-.88.35-1.65.85-2.29,1.5s-1.16,1.44-1.55,2.35c-.39.91-.65,1.94-.78,3.07h14.33Z"/>
    <path d="M572.7,142.29v-21.64h1.15c.36,0,.57.18.63.54l.2,3.13c.84-1.2,1.8-2.17,2.89-2.91,1.09-.74,2.31-1.11,3.68-1.11,1.58,0,2.84.46,3.79,1.37.95.91,1.59,2.18,1.92,3.81.26-.88.63-1.65,1.1-2.31.47-.65,1.01-1.19,1.62-1.62.61-.43,1.27-.74,1.99-.95.72-.2,1.45-.3,2.21-.3,1.07,0,2.04.18,2.89.53.85.36,1.58.88,2.17,1.58.59.7,1.05,1.55,1.37,2.57.32,1.01.48,2.17.48,3.48v13.83h-2.07v-13.83c0-2.12-.46-3.73-1.37-4.84-.91-1.11-2.22-1.66-3.91-1.66-.75,0-1.48.14-2.16.41-.69.28-1.3.69-1.83,1.23-.53.54-.95,1.22-1.26,2.03-.31.81-.47,1.75-.47,2.83v13.83h-2.09v-13.83c0-2.1-.42-3.71-1.25-4.83-.83-1.12-2.06-1.67-3.67-1.67-1.17,0-2.26.35-3.26,1.04s-1.89,1.66-2.67,2.89v16.4h-2.09Z"/>
    <path d="M624.5,120.65v21.64h-1.15c-.36,0-.57-.19-.63-.57l-.2-3.22c-1,1.25-2.16,2.25-3.47,3s-2.77,1.13-4.38,1.13c-1.2,0-2.25-.19-3.15-.57-.9-.38-1.65-.92-2.24-1.63-.59-.71-1.04-1.57-1.35-2.57-.3-1-.46-2.13-.46-3.39v-13.83h2.09v13.83c0,2.03.46,3.62,1.39,4.77.93,1.15,2.34,1.73,4.24,1.73,1.41,0,2.72-.36,3.95-1.08,1.23-.72,2.32-1.71,3.27-2.99v-16.27h2.09Z"/>
    <path d="M633.59,125.87c.33-.88.71-1.67,1.14-2.36.43-.69.92-1.27,1.48-1.75.56-.48,1.18-.84,1.87-1.1.69-.25,1.45-.38,2.29-.38.45,0,.89.04,1.33.12.43.08.82.22,1.15.42l-.17,1.44c-.07.23-.21.35-.41.35-.17,0-.44-.05-.79-.15s-.82-.15-1.4-.15c-.84,0-1.58.13-2.23.38-.65.25-1.23.63-1.74,1.14-.52.51-.96,1.13-1.35,1.88s-.74,1.61-1.05,2.58v14h-2.09v-21.64h1.11c.25,0,.42.05.52.15.1.1.17.28.2.52l.15,4.54Z"/>
    <path d="M650.18,113.19c0,.26-.05.5-.16.73-.11.23-.25.42-.42.6s-.38.31-.61.41c-.23.1-.48.15-.74.15s-.51-.05-.74-.15c-.23-.1-.43-.24-.61-.41-.17-.17-.31-.37-.41-.6-.1-.22-.15-.47-.15-.73s.05-.51.15-.75.24-.45.41-.62c.17-.17.38-.31.61-.41.23-.1.48-.15.74-.15s.51.05.74.15c.23.1.44.24.61.41.17.17.32.38.42.62.11.24.16.49.16.75ZM649.28,120.65v21.64h-2.07v-21.64h2.07Z"/>
    <path d="M658.64,124.43c1-1.25,2.16-2.25,3.47-3,1.31-.75,2.77-1.13,4.38-1.13,1.19,0,2.24.19,3.14.56.91.38,1.66.92,2.25,1.63.59.71,1.04,1.57,1.35,2.57.3,1,.46,2.13.46,3.39v13.83h-2.09v-13.83c0-2.03-.46-3.62-1.39-4.77-.93-1.15-2.34-1.73-4.24-1.73-1.41,0-2.72.36-3.95,1.08-1.22.72-2.32,1.71-3.27,2.99v16.27h-2.09v-21.64h1.15c.36,0,.57.18.63.54l.2,3.24Z"/>
  </g>
  <g>
    <path class="st2" d="M678.57,107.48h-2.25v6.31h-1.39v-6.31h-2.25v-1.14h5.88v1.14Z"/>
    <path class="st2" d="M687.62,106.34v7.45h-1.22v-4.81c0-.19.01-.4.03-.62l-2.25,4.23c-.11.2-.27.3-.49.3h-.2c-.22,0-.38-.1-.49-.3l-2.28-4.24c.01.11.02.22.03.33,0,.11.01.21.01.3v4.81h-1.22v-7.45h1.04c.06,0,.12,0,.16,0s.08.01.12.03c.04.01.07.04.1.07.03.03.06.07.08.12l2.23,4.14c.06.11.11.22.16.34.05.12.1.24.15.36.05-.13.1-.25.15-.37.05-.12.11-.23.17-.34l2.2-4.13c.03-.05.06-.09.09-.12.03-.03.06-.05.1-.07.04-.01.08-.02.12-.03s.1,0,.16,0h1.05Z"/>
  </g>
  <path class="st2" d="M514.46,97.66h-3.57c-.48,0-.88-.05-1.18-.16-.31-.11-.66-.35-1.06-.72l-8.23-8.07c-1.18,1.39-2.49,2.67-3.93,3.83-1.44,1.16-3.01,2.17-4.69,3.03-1.69.86-3.49,1.52-5.42,2.01s-3.95.72-6.06.72-3.99-.33-5.94-1c-1.95-.67-3.7-1.65-5.24-2.95-1.54-1.3-2.78-2.89-3.73-4.77-.95-1.89-1.42-4.03-1.42-6.44,0-1.93.35-3.77,1.04-5.52.7-1.75,1.64-3.36,2.85-4.81,1.2-1.46,2.63-2.76,4.29-3.91,1.66-1.15,3.45-2.09,5.38-2.81-1.93-2.17-3.36-4.25-4.29-6.26-.94-2.01-1.4-4.16-1.4-6.46,0-1.87.34-3.6,1.02-5.2.68-1.59,1.65-2.98,2.91-4.15,1.26-1.18,2.76-2.1,4.51-2.77,1.75-.67,3.71-1,5.88-1,1.79,0,3.49.31,5.1.92,1.6.62,3,1.44,4.19,2.49,1.19,1.04,2.14,2.25,2.85,3.63.71,1.38,1.09,2.82,1.14,4.31l-2.17.44c-.27.05-.52,0-.74-.14-.23-.15-.41-.41-.54-.78-.13-.72-.42-1.54-.86-2.45-.44-.91-1.06-1.77-1.87-2.57-.8-.8-1.79-1.48-2.97-2.03-1.18-.55-2.55-.82-4.13-.82s-3.06.25-4.37.74c-1.31.5-2.43,1.19-3.37,2.09-.94.9-1.67,1.96-2.19,3.19-.52,1.23-.78,2.58-.78,4.05,0,2.19.56,4.29,1.69,6.3,1.12,2.01,2.86,4.16,5.22,6.46l17.94,17.62c1.2-1.93,2.15-3.93,2.85-6,.7-2.07,1.15-4.09,1.36-6.04.05-.35.16-.62.32-.82.16-.2.4-.3.72-.3h2.21c-.05,2.51-.52,5.1-1.4,7.76-.88,2.66-2.15,5.21-3.81,7.64l11.92,11.72ZM479.39,68.04c-1.77.72-3.36,1.6-4.8,2.65-1.43,1.04-2.64,2.21-3.63,3.49-.99,1.28-1.75,2.66-2.29,4.13-.54,1.47-.8,3-.8,4.57,0,2.06.39,3.85,1.18,5.38.79,1.52,1.81,2.8,3.07,3.83,1.26,1.03,2.65,1.8,4.19,2.31,1.54.51,3.06.76,4.55.76,1.9,0,3.68-.21,5.36-.64,1.67-.43,3.23-1.02,4.67-1.79,1.44-.76,2.78-1.67,4.01-2.73,1.23-1.06,2.34-2.2,3.33-3.43l-18.42-18.1-.44-.44Z"/>
</svg>