<svg version="1.2" xmlns="http://www.w3.org/2000/svg" viewBox="0 0 32 21" width="32" height="21">
	<title>adoptopenjdk-seeklogo</title>
	<style>
		.s0 { fill: #152935 } 
	</style>
	<g id="Artboard">
		<g id="Logo">
			<g id="Window">
				<path id="Rectangle-17" class="s0" d="m0 0h8.7v9h-8.7z"/>
				<path id="Rectangle-17" class="s0" d="m11.6 0h8.8v9h-8.8z"/>
				<path id="Rectangle-17" class="s0" d="m23.3 0h8.7v9h-8.7z"/>
				<path id="Rectangle-17" class="s0" d="m0 12h8.7v9h-8.7z"/>
				<path id="Rectangle-17" class="s0" d="m11.6 12h8.8v9h-8.8z"/>
				<path id="Rectangle-17" class="s0" d="m23.3 12h8.7v9h-8.7z"/>
			</g>
			<path id="AdoptOpenJDK" fill-rule="evenodd" class="s0" d="m48.6 12.2h-6.3l-2.1 5.5h-1.2l6.2-15.8h0.7l6 15.8h-1.2zm-5.9-1h5.5l-2.1-5.6q-0.2-0.7-0.6-1.9-0.3 1-0.6 1.9zm15.5-5.4q1.3 0 2.2 0.5 0.9 0.4 1.6 1.6h0.1q-0.1-1.4-0.1-2.7v-4.2h1v16.7h-0.7l-0.2-1.8h-0.1q-1.3 2-3.7 2-2.4 0-3.6-1.5-1.3-1.5-1.3-4.4 0-3 1.2-4.6 1.3-1.6 3.6-1.6zm0 1q-1.8 0-2.8 1.3-0.9 1.4-0.9 3.9 0 5 3.8 5 1.9 0 2.8-1.2 0.9-1.1 0.9-3.8v-0.1q0-2.7-0.9-3.9-0.9-1.2-2.9-1.2zm18.4 5.1q0 2.8-1.4 4.4-1.3 1.6-3.7 1.6-1.5 0-2.7-0.7-1.1-0.7-1.7-2.1-0.6-1.4-0.6-3.2 0-2.9 1.3-4.5 1.4-1.6 3.7-1.6 2.4 0 3.7 1.6 1.4 1.6 1.4 4.5zm-9 0q0 2.4 1 3.7 1 1.4 2.9 1.4 1.9 0 2.9-1.4 1.1-1.3 1.1-3.7 0-2.5-1.1-3.8-1-1.3-2.9-1.3-1.9 0-2.9 1.3-1 1.3-1 3.8zm17.3 6q-2.6 0-3.9-2v0.9q0 0.8 0 1.8v4.4h-1v-17h0.9l0.2 1.7h0.1q1.1-1.9 3.7-1.9 2.3 0 3.5 1.6 1.2 1.5 1.2 4.5 0 2.9-1.2 4.4-1.3 1.6-3.5 1.6zm0-0.9q1.7 0 2.7-1.3 0.9-1.4 0.9-3.8 0-5.1-3.6-5.1-2 0-2.9 1.1-1 1.1-1 3.7v0.3q0 2.7 0.9 3.9 0.9 1.2 3 1.2zm11.2 0q1 0 1.7-0.2v0.9q-0.7 0.2-1.7 0.2-1.5 0-2.3-0.8-0.7-0.8-0.7-2.6v-7.5h-1.7v-0.7l1.7-0.4 0.5-2.7h0.6v2.8h3.3v1h-3.3v7.4q0 1.3 0.4 1.9 0.5 0.7 1.5 0.7zm17.6-7.2q0 3.8-1.8 6-1.8 2.1-5 2.1-3.2 0-5.1-2.1-1.8-2.2-1.8-6 0-3.7 1.8-5.9 1.9-2.1 5.1-2.1 3.2 0 5 2.1 1.8 2.2 1.8 5.9zm-12.5 0q0 3.4 1.4 5.3 1.5 1.8 4.3 1.8 2.7 0 4.2-1.8 1.5-1.9 1.5-5.3 0-3.4-1.5-5.2-1.5-1.8-4.2-1.8-2.8 0-4.2 1.9-1.5 1.8-1.5 5.1zm20.9 8.1q-2.6 0-3.8-2h-0.1l0.1 0.9q0 0.8 0 1.8v4.4h-1v-17h0.8l0.2 1.7h0.1q1.2-1.9 3.8-1.9 2.3 0 3.5 1.6 1.2 1.5 1.2 4.5 0 2.9-1.3 4.4-1.3 1.6-3.5 1.6zm0-0.9q1.8 0 2.7-1.3 1-1.4 1-3.8 0-5.1-3.6-5.1-2 0-3 1.1-0.9 1.1-0.9 3.7v0.3q0 2.7 0.9 3.9 0.9 1.2 2.9 1.2zm12.8 0.9q-2.4 0-3.8-1.5-1.4-1.6-1.4-4.4 0-2.8 1.3-4.5 1.4-1.7 3.6-1.7 2 0 3.2 1.5 1.2 1.4 1.2 3.9v0.8h-8.2q0 2.4 1.1 3.7 1 1.3 3 1.3 1 0 1.8-0.2 0.7-0.1 1.8-0.6v1q-0.9 0.4-1.8 0.6-0.8 0.1-1.8 0.1zm-0.3-11.1q-1.6 0-2.6 1.1-1 1.1-1.2 3.2h7.1q0-2.1-0.9-3.2-0.8-1.1-2.4-1.1zm15.8 10.9v-7.6q0-1.7-0.8-2.5-0.7-0.8-2.2-0.8-2.1 0-3 1-1 1.1-1 3.5v6.4h-1v-11.7h0.9l0.2 1.6q1.2-1.8 4-1.8 3.9 0 3.9 4.3v7.6zm2.7 4q-0.9 0-1.5-0.3v-1q0.8 0.3 1.5 0.3 2.6 0 2.6-2.9v-15.8h1v15.7q0 4-3.6 4zm19.8-12q0 4-2 6-2.1 2-6 2h-3.7v-15.7h4.2q3.7 0 5.6 2 1.9 1.9 1.9 5.7zm-1.2 0.1q0-3.4-1.6-5.1-1.7-1.7-5-1.7h-2.8v13.8h2.6q6.8 0 6.8-7zm15.3 7.9h-1.3l-5.9-8.3-2 1.9v6.4h-1.1v-15.7h1.1v8.2l1.7-1.8 6-6.4h1.3l-6.2 6.7z"/>
		</g>
	</g>
</svg>