<svg width="106" height="113" viewBox="0 0 106 113" fill="none" xmlns="http://www.w3.org/2000/svg">
<path d="M93.4322 24.3639L92.9421 24.463L93.4322 24.3639ZM53.637 62.7492L54.0605 62.4834L53.637 62.7492ZM96.0423 111.762C96.169 112.007 96.4706 112.103 96.716 111.977L100.715 109.913C100.96 109.786 101.056 109.485 100.93 109.239C100.803 108.994 100.501 108.898 100.256 109.024L96.7016 110.859L94.867 107.304C94.7403 107.059 94.4387 106.963 94.1933 107.089C93.948 107.216 93.8517 107.518 93.9784 107.763L96.0423 111.762ZM1.6007 32.0069C2.39417 31.3844 3.21315 30.7532 4.05568 30.1156L3.45218 29.3182C2.60511 29.9593 1.78154 30.594 0.98345 31.2202L1.6007 32.0069ZM9.05897 26.4546C10.7075 25.2879 12.4189 24.1139 14.1822 22.9453L13.6297 22.1118C11.8578 23.2861 10.138 24.4658 8.48126 25.6384L9.05897 26.4546ZM19.4169 19.5913C21.1601 18.5125 22.9394 17.4493 24.7455 16.4122L24.2475 15.545C22.4314 16.5879 20.6427 17.6567 18.8907 18.7409L19.4169 19.5913ZM30.1838 13.4162C32.0182 12.4492 33.8697 11.518 35.7292 10.6328L35.2994 9.72991C33.4268 10.6213 31.5631 11.5587 29.7175 12.5316L30.1838 13.4162ZM41.3908 8.09695C43.3197 7.28916 45.247 6.54161 47.1627 5.86539L46.8299 4.92241C44.8946 5.60552 42.9495 6.36006 41.0045 7.17457L41.3908 8.09695ZM53.0738 4.0043C55.113 3.44454 57.1255 2.98242 59.0987 2.63177L58.9238 1.64719C56.9171 2.00379 54.8745 2.47301 52.8091 3.03997L53.0738 4.0043ZM65.214 1.90959C67.3321 1.79746 69.381 1.84622 71.3433 2.07481L71.459 1.08153C69.4339 0.845616 67.3281 0.796276 65.1611 0.91099L65.214 1.90959ZM77.2836 3.43497C79.2031 4.12472 80.9988 5.0529 82.6492 6.24521L83.2348 5.43461C81.5039 4.18418 79.6241 3.21339 77.6218 2.49388L77.2836 3.43497ZM87.0016 10.4568C88.1792 11.9617 89.2343 13.6905 90.1499 15.6629L91.0569 15.2418C90.1116 13.2054 89.0175 11.4103 87.7892 9.84057L87.0016 10.4568ZM92.2274 21.4344C92.4908 22.4017 92.7294 23.4109 92.9421 24.463L93.9223 24.2649C93.7054 23.1921 93.4618 22.1614 93.1923 21.1716L92.2274 21.4344ZM92.9421 24.463C93.147 25.4763 93.335 26.4711 93.5068 27.4478L94.4917 27.2745C94.3184 26.2894 94.1288 25.2862 93.9223 24.2649L92.9421 24.463ZM94.3763 33.3487C94.6194 35.4232 94.7815 37.4034 94.8684 39.2921L95.8674 39.2461C95.7793 37.3325 95.6152 35.3288 95.3695 33.2323L94.3763 33.3487ZM94.8875 45.2728C94.7962 47.3804 94.5982 49.3496 94.3053 51.1861L95.2928 51.3437C95.5922 49.4666 95.7937 47.4591 95.8865 45.316L94.8875 45.2728ZM92.953 56.9498C92.3057 58.9697 91.5184 60.7725 90.6175 62.3713L91.4888 62.8622C92.4252 61.2002 93.2389 59.3347 93.9053 57.2549L92.953 56.9498ZM87.1265 67.0706C85.6945 68.5341 84.1239 69.6967 82.4652 70.5839L82.9368 71.4657C84.6854 70.5304 86.338 69.3064 87.8412 67.7699L87.1265 67.0706ZM76.9586 72.5062C75.0329 72.864 73.063 72.9346 71.1116 72.7461L71.0154 73.7414C73.0545 73.9385 75.1184 73.8652 77.1413 73.4893L76.9586 72.5062ZM65.3902 71.4362C63.5438 70.7605 61.7813 69.8559 60.1657 68.7524L59.6017 69.5782C61.2864 70.7289 63.123 71.6714 65.0465 72.3753L65.3902 71.4362ZM55.7964 64.8445C55.161 64.099 54.5798 63.3106 54.0605 62.4834L53.2136 63.015C53.7593 63.8846 54.3695 64.7119 55.0353 65.4931L55.7964 64.8445ZM54.0605 62.4834C53.5547 61.6775 53.2707 60.8071 53.1839 59.8868L52.1883 59.9806C52.2892 61.0506 52.6216 62.072 53.2136 63.015L54.0605 62.4834ZM54.5528 54.4433C55.3913 52.8878 56.5805 51.3007 58.0484 49.7513L57.3224 49.0636C55.8082 50.6619 54.5617 52.3194 53.6725 53.9688L54.5528 54.4433ZM62.4745 45.8315C64.0127 44.6725 65.6852 43.5841 67.448 42.6035L66.9619 41.7296C65.1596 42.7322 63.4485 43.8456 61.8727 45.0328L62.4745 45.8315ZM72.8124 40.0804C74.6688 39.3607 76.5682 38.78 78.4691 38.3721L78.2593 37.3944C76.3022 37.8143 74.3521 38.411 72.4509 39.148L72.8124 40.0804ZM84.3166 37.6984C86.3169 37.682 88.2661 37.9057 90.1153 38.4087L90.3778 37.4437C88.4294 36.9138 86.388 36.6814 84.3084 36.6984L84.3166 37.6984ZM95.3753 40.8361C96.8882 41.8857 98.2751 43.2255 99.4929 44.8953L100.301 44.306C99.019 42.5484 97.5523 41.1293 95.9453 40.0144L95.3753 40.8361ZM102.262 50.0356C102.919 51.7144 103.463 53.5932 103.877 55.688L104.858 55.4943C104.434 53.3476 103.874 51.411 103.193 49.6712L102.262 50.0356ZM104.64 61.5808C104.77 63.4322 104.818 65.4109 104.775 67.5233L105.775 67.5434C105.818 65.4036 105.77 63.3947 105.638 61.5108L104.64 61.5808ZM104.446 73.4457C104.281 75.3237 104.054 77.2899 103.761 79.3477L104.751 79.4884C105.046 77.4142 105.275 75.4303 105.443 73.5335L104.446 73.4457ZM102.785 85.2617C102.43 87.1642 102.025 89.1355 101.567 91.1773L102.543 91.396C103.003 89.3431 103.411 87.3601 103.768 85.4451L102.785 85.2617ZM100.195 96.8921C99.7132 98.7787 99.1902 100.72 98.6244 102.717L99.5865 102.989C100.155 100.984 100.68 99.0349 101.164 97.1396L100.195 96.8921ZM96.9383 108.419C96.6385 109.394 96.3293 110.381 96.0103 111.38L96.963 111.684C97.283 110.682 97.5933 109.691 97.8942 108.713L96.9383 108.419Z" fill="#5DB9F5"/>
</svg>
