<svg width="347" height="201" viewBox="0 0 347 201" fill="none" xmlns="http://www.w3.org/2000/svg">
<path fill-rule="evenodd" clip-rule="evenodd" d="M166.849 173.109C205.893 191.698 250.108 204.54 293.008 199.328C308.616 197.435 322.881 192.159 337.535 186.891C338.562 186.523 339.099 185.385 338.731 184.351C338.358 183.318 337.219 182.781 336.186 183.155C321.817 188.32 307.836 193.527 292.529 195.384C250.237 200.523 206.67 187.73 168.214 169.362L168.45 168.747C171.017 162.085 168.719 152.673 163.446 142.949C155.889 129.008 142.408 114.308 130.555 106.418C125.228 102.875 120.186 100.708 116.108 100.414C112.928 100.182 110.255 101.035 108.26 103.035C104.011 107.299 104.527 114.167 108.481 121.956C116.741 138.248 139.59 159.076 151.728 165.506C155.52 167.513 159.372 169.478 163.277 171.384C162.857 172.568 162.442 173.727 161.986 174.834C160.68 177.987 159.019 180.77 155.643 182.795C150.378 185.946 143.914 186.78 137.232 186.386C126.806 185.763 115.855 182.11 107.766 178.904C62.7116 161.049 39.0937 127.228 25.5733 92.7414C11.9242 57.9125 8.51658 22.3811 3.92498 1.55638C3.69079 0.485022 2.62974 -0.187909 1.55798 0.0462479C0.486226 0.280405 -0.190898 1.34152 0.0479288 2.41348C4.6676 23.373 8.13406 59.1319 21.8783 94.1926C35.7514 129.596 60.0532 164.266 106.297 182.6C114.726 185.939 126.138 189.705 136.994 190.351C144.511 190.797 151.759 189.748 157.684 186.202C163.001 183.018 164.936 178.383 166.849 173.109ZM164.625 167.622L164.747 167.318C166.991 161.493 164.566 153.347 159.952 144.843C152.691 131.448 139.748 117.311 128.351 109.729C124.444 107.126 120.741 105.304 117.533 104.623C114.885 104.064 112.625 104.282 111.078 105.839C109.609 107.304 109.098 109.241 109.24 111.46C109.402 114.065 110.426 117.011 112.019 120.158C119.959 135.812 141.923 155.818 153.587 161.994C157.211 163.91 160.891 165.791 164.625 167.622Z" fill="#5DB9F5"/>
<path fill-rule="evenodd" clip-rule="evenodd" d="M342.247 180.487C342.12 181.348 341.595 182.449 341.019 183.627C339.647 186.432 337.642 189.447 336.755 190.908C336.185 191.848 336.49 193.068 337.426 193.637C338.367 194.205 339.586 193.906 340.156 192.965C341.24 191.175 343.904 187.151 345.276 183.859C346.011 182.093 346.357 180.478 346.203 179.339C345.944 177.398 344.341 176.262 341.289 176.496C337.68 176.773 331.065 178.937 325.332 177.052C324.295 176.709 323.166 177.281 322.828 178.319C322.485 179.365 323.052 180.487 324.096 180.83C329.562 182.623 335.755 181.3 339.937 180.662C340.73 180.542 341.682 180.503 342.247 180.487Z" fill="#5DB9F5"/>
</svg>
