<svg width="515" height="528" viewBox="0 0 515 528" fill="none" xmlns="http://www.w3.org/2000/svg">
<circle cx="267.572" cy="247.428" r="247.428" fill="#DFF1FD"/>
<circle cx="267.573" cy="247.428" r="231.662" fill="#D4D4FE"/>
<circle cx="277.206" cy="247.428" r="186.87" stroke="#F8F8F8" stroke-width="2" stroke-dasharray="6 6"/>
<circle cx="249.617" cy="277.645" r="248.617" stroke="#9492FD" stroke-width="2" stroke-dasharray="6 6"/>
<circle cx="45.9837" cy="297.351" r="35.4719" fill="#9492FD"/>
<path fill-rule="evenodd" clip-rule="evenodd" d="M46.7722 275.77C34.8465 275.741 25.1547 285.381 25.1192 297.307C25.0956 306.847 31.2652 314.952 39.8402 317.828C40.9216 318.029 41.3176 317.362 41.3176 316.789C41.3176 316.275 41.3058 314.916 41.2998 313.115C35.2897 314.402 34.031 310.202 34.031 310.202C33.0559 307.704 31.6376 307.036 31.6376 307.036C29.6815 305.689 31.7912 305.725 31.7912 305.725C33.96 305.884 35.0947 307.958 35.0947 307.958C37.0153 311.26 40.1475 310.321 41.3767 309.765C41.5776 308.371 42.139 307.42 42.7536 306.883C37.9609 306.327 32.92 304.461 32.9436 296.185C32.9495 293.828 33.7946 291.902 35.1834 290.396C34.9647 289.847 34.226 287.655 35.4079 284.684C35.4079 284.684 37.2222 284.111 41.3412 286.911C43.0668 286.439 44.9107 286.202 46.7486 286.196C48.5806 286.208 50.4303 286.456 52.1559 286.935C56.2868 284.153 58.0951 284.737 58.0951 284.737C59.2652 287.714 58.5206 289.906 58.296 290.449C59.6789 291.962 60.5063 293.893 60.5004 296.25C60.4767 304.543 55.4239 306.357 50.6135 306.877C51.3876 307.544 52.0732 308.862 52.0673 310.882C52.0613 313.77 52.0259 316.098 52.0259 316.806C52.0259 317.385 52.41 318.059 53.5092 317.846C62.09 315.005 68.2952 306.936 68.3188 297.402C68.3484 285.487 58.7038 275.8 46.7722 275.77Z" fill="#F8F8F8"/>
<circle cx="89.3394" cy="216.335" r="23.648" fill="#9492FD"/>
<g opacity="0.4">
<path d="M90.7789 221.702C92.7413 220.947 94.0457 219.054 94.0457 216.949C94.0457 214.156 91.7485 211.86 88.955 211.86C86.1615 211.86 83.8644 214.156 83.8644 216.949C83.8644 219.054 85.1688 220.947 87.1311 221.702L83.7027 230.639C78.0465 228.469 74.2891 223.006 74.2891 216.954C74.2891 208.912 80.9092 202.295 88.955 202.295C97.0008 202.295 103.621 208.912 103.621 216.954C103.621 223.012 99.8693 228.469 94.2073 230.639L90.7789 221.702Z" fill="#F8F8F8"/>
</g>
<path d="M83.6974 231.25C83.6223 231.25 83.5473 231.239 83.478 231.21C77.614 228.96 73.6719 223.231 73.6719 216.954C73.6719 208.532 80.5287 201.684 88.9496 201.684C97.3706 201.684 104.227 208.537 104.227 216.954C104.227 223.231 100.285 228.96 94.427 231.21C94.2769 231.268 94.1095 231.262 93.9595 231.198C93.8094 231.135 93.694 231.008 93.6363 230.858L90.2079 221.922C90.0867 221.604 90.2425 221.252 90.5599 221.131C92.2799 220.474 93.4343 218.789 93.4343 216.949C93.4343 214.48 91.4257 212.472 88.9554 212.472C86.4851 212.472 84.4765 214.48 84.4765 216.949C84.4765 218.789 85.6309 220.468 87.3509 221.131C87.6683 221.252 87.8241 221.604 87.7029 221.922L84.2745 230.858C84.2168 231.008 84.1014 231.129 83.9513 231.198C83.8705 231.233 83.7839 231.25 83.6974 231.25ZM88.9554 202.907C81.204 202.907 74.9013 209.207 74.9013 216.954C74.9013 222.527 78.2719 227.627 83.351 229.837L86.3524 222.026C84.4765 221.056 83.2529 219.089 83.2529 216.954C83.2529 213.81 85.8098 211.255 88.9554 211.255C92.101 211.255 94.6579 213.81 94.6579 216.954C94.6579 219.095 93.4343 221.062 91.5584 222.026L94.5597 229.837C99.6389 227.627 103.01 222.522 103.01 216.954C103.01 209.207 96.7068 202.907 88.9554 202.907Z" fill="#F8F8F8"/>
<circle cx="110.796" cy="271.952" r="31.0927" fill="#9492FD"/>
<g clip-path="url(#clip0_884_4534)">
<path d="M93.5 274.244V269.759C94.8623 269.747 95.8818 269.343 96.5732 268.552C97.2559 267.758 97.6016 265.974 97.6016 263.202C97.6016 261.087 97.6777 259.522 97.8389 258.506C97.9912 257.489 98.3691 256.634 98.9697 255.948C99.5703 255.26 100.344 254.768 101.29 254.46C102.233 254.152 103.578 254 105.315 254H106.306V258.485C104.489 258.485 103.405 258.67 103.048 259.048C102.69 259.42 102.497 260.152 102.474 261.239C102.397 264.23 102.301 266.179 102.187 267.078C102.066 267.972 101.791 268.83 101.363 269.647C100.936 270.465 100.136 271.25 98.9668 272C100.08 272.677 100.883 273.482 101.381 274.414C101.885 275.354 102.187 276.702 102.269 278.466L102.55 283.924C102.664 284.448 102.934 284.844 103.361 285.113C103.789 285.383 104.773 285.515 106.309 285.515V290H105.33C103.329 290 101.791 289.771 100.698 289.317C99.6113 288.863 98.8262 288.116 98.334 287.082C97.8477 286.042 97.6045 284.366 97.6045 282.061C97.6045 279.512 97.5137 277.883 97.3438 277.165C97.1709 276.456 96.834 275.803 96.333 275.211C95.8262 274.613 94.8857 274.294 93.5 274.244ZM127.238 274.244C125.876 274.256 124.854 274.66 124.165 275.466C123.482 276.266 123.137 278.035 123.137 280.783C123.137 282.91 123.061 284.478 122.914 285.5C122.762 286.517 122.39 287.372 121.789 288.055C121.188 288.746 120.409 289.235 119.463 289.543C118.511 289.851 117.169 290.003 115.432 290.003H114.436V285.518C116.179 285.518 117.248 285.339 117.638 284.976C118.033 284.612 118.244 283.877 118.271 282.764C118.347 279.562 118.461 277.511 118.616 276.603C118.777 275.694 119.082 274.851 119.557 274.065C120.022 273.274 120.764 272.589 121.774 272C120.708 271.303 119.961 270.614 119.539 269.943C119.117 269.267 118.83 268.537 118.684 267.746C118.537 266.955 118.423 265.479 118.344 263.325C118.273 261.172 118.183 259.938 118.08 259.631C117.983 259.317 117.74 259.051 117.359 258.825C116.976 258.603 116.006 258.485 114.438 258.485V254H115.429C117.43 254 118.968 254.231 120.055 254.683C121.142 255.137 121.927 255.884 122.413 256.918C122.899 257.961 123.143 259.634 123.143 261.939C123.143 264.591 123.239 266.258 123.43 266.943C123.629 267.635 123.966 268.259 124.464 268.827C124.956 269.396 125.882 269.703 127.244 269.753V274.244H127.238Z" fill="#F8F8F8"/>
</g>
<circle cx="497.921" cy="256.186" r="10.9481" fill="#9492FD"/>
<defs>
<clipPath id="clip0_884_4534">
<rect width="33.7383" height="36" fill="white" transform="translate(93.5 254)"/>
</clipPath>
</defs>
</svg>
