<svg width="144" height="122" viewBox="0 0 144 122" fill="none" xmlns="http://www.w3.org/2000/svg">
<g opacity="0.6">
<circle cx="41" cy="81" r="40.5" stroke="#D4D4FE" stroke-dasharray="6 6"/>
<ellipse cx="121.592" cy="21.5901" rx="21.5918" ry="21.5901" fill="#5CBA9E"/>
<g opacity="0.4">
<path d="M122.908 26.49C124.699 25.8 125.89 24.0724 125.89 22.1499C125.89 19.6006 123.793 17.5043 121.242 17.5043C118.692 17.5043 116.594 19.6006 116.594 22.1499C116.594 24.0724 117.785 25.8 119.577 26.49L116.447 34.6487C111.282 32.6683 107.852 27.6804 107.852 22.1552C107.852 14.8128 113.896 8.77148 121.242 8.77148C128.589 8.77148 134.633 14.8128 134.633 22.1552C134.633 27.6856 131.208 32.6683 126.038 34.6487L122.908 26.49Z" fill="#F8F8F8"/>
</g>
<path d="M116.439 35.2072C116.37 35.2072 116.302 35.1967 116.239 35.1704C110.884 33.1162 107.285 27.886 107.285 22.1554C107.285 14.4654 113.546 8.21338 121.235 8.21338C128.923 8.21338 135.184 14.4707 135.184 22.1554C135.184 27.886 131.585 33.1162 126.236 35.1704C126.099 35.223 125.946 35.2178 125.809 35.1598C125.672 35.1019 125.566 34.986 125.514 34.8491L122.383 26.6903C122.273 26.4007 122.415 26.0794 122.705 25.9688C124.275 25.3683 125.329 23.8303 125.329 22.1501C125.329 19.8958 123.495 18.0628 121.24 18.0628C118.984 18.0628 117.15 19.8958 117.15 22.1501C117.15 23.8303 118.204 25.363 119.775 25.9688C120.065 26.0794 120.207 26.4007 120.096 26.6903L116.966 34.8491C116.913 34.986 116.808 35.0966 116.671 35.1598C116.597 35.1914 116.518 35.2072 116.439 35.2072ZM121.24 9.33C114.162 9.33 108.408 15.0817 108.408 22.1554C108.408 27.2434 111.485 31.8995 116.123 33.9168L118.863 26.7852C117.15 25.9003 116.033 24.1042 116.033 22.1554C116.033 19.2848 118.368 16.9515 121.24 16.9515C124.112 16.9515 126.446 19.2848 126.446 22.1554C126.446 24.1095 125.329 25.9056 123.617 26.7852L126.357 33.9168C130.994 31.8995 134.072 27.2381 134.072 22.1554C134.072 15.0817 128.317 9.33 121.24 9.33Z" fill="#F8F8F8"/>
</g>
</svg>
