<svg width="1440" height="366" fill="none" xmlns="http://www.w3.org/2000/svg"><g clip-path="url(#Frame 7__a)"><path d="M1437.84-51.225c.95 6.654 1.6 13.355 1.92 20.1l-2 .095a209.135 209.135 0 0 1 0 20.06l2 .096c-.32 6.744-.97 13.445-1.92 20.1l-1.98-.285a216.32 216.32 0 0 1-3.77 19.65l1.94.466a221.02 221.02 0 0 1-5.6 19.404l-1.89-.639a238.393 238.393 0 0 1-7.2 18.688l1.83.797a257.927 257.927 0 0 1-8.78 18.192l-1.76-.938a278.729 278.729 0 0 1-10.06 17.35l1.69 1.065a298.199 298.199 0 0 1-11.33 16.729l-1.62-1.175a326.725 326.725 0 0 1-12.3 15.876l1.54 1.273a357.779 357.779 0 0 1-13.3 15.226l-1.47-1.357a389.13 389.13 0 0 1-14.05 14.425l1.4 1.431a428.492 428.492 0 0 1-14.82 13.784l-1.33-1.496a455.6 455.6 0 0 1-15.3 12.992l1.26 1.552a501.913 501.913 0 0 1-15.92 12.405l-1.2-1.602a526.251 526.251 0 0 1-16.35 11.75l1.14 1.645a568.09 568.09 0 0 1-16.86 11.212l-1.08-1.684a610.732 610.732 0 0 1-17.17 10.598l1.03 1.719a655.33 655.33 0 0 1-17.48 10.039l-.97-1.749a689.922 689.922 0 0 1-17.76 9.513l.92 1.776a724.918 724.918 0 0 1-18.12 9.06l-.87-1.8a781.212 781.212 0 0 1-18.25 8.524l.82 1.822a812.504 812.504 0 0 1-18.49 8.074l-.78-1.843a852.417 852.417 0 0 1-18.7 7.633l.74 1.86a910.088 910.088 0 0 1-18.9 7.206l-.69-1.876a925.584 925.584 0 0 1-18.96 6.753l.65 1.892a971.246 971.246 0 0 1-19.21 6.386l-.62-1.904a969.275 969.275 0 0 1-19.26 5.964l.58 1.916c-6.41 1.913-12.88 3.775-19.4 5.585l-.54-1.927c-6.45 1.792-12.97 3.533-19.54 5.222l.5 1.937c-6.48 1.663-13 3.276-19.58 4.837l-.46-1.946c-6.51 1.545-13.068 3.04-19.676 4.484l.427 1.954a1145.17 1145.17 0 0 1-19.815 4.144l-.392-1.961a1165.78 1165.78 0 0 1-19.776 3.779l.359 1.967a1191.399 1191.399 0 0 1-19.963 3.463l-.325-1.973a1217.932 1217.932 0 0 1-19.897 3.109l.293 1.978c-6.638.982-13.315 1.913-20.028 2.794l-.261-1.983c-6.643.872-13.323 1.694-20.038 2.466l.228 1.987c-6.658.766-13.349 1.481-20.074 2.147l-.197-1.99c-6.684.661-13.4 1.273-20.147 1.834l.166 1.994a1300.62 1300.62 0 0 1-20.102 1.516l-.136-1.995c-6.7.454-13.43.858-20.187 1.212l.105 1.998c-6.692.35-13.41.652-20.154.903l-.074-1.998c-6.706.25-13.438.45-20.193.601l.045 1.999c-6.71.15-13.443.25-20.198.3l-.015-2a1367.353 1367.353 0 0 1-20.27 0l-.015 2c-6.756-.05-13.489-.15-20.198-.3l.045-1.999a1354.4 1354.4 0 0 1-20.193-.601l-.074 1.998c-6.744-.251-13.463-.553-20.154-.903l.105-1.998c-6.757-.354-13.487-.758-20.188-1.212l-.135 1.995a1300.62 1300.62 0 0 1-20.102-1.516l.166-1.994a1295.703 1295.703 0 0 1-20.148-1.834l-.197 1.99a1286.862 1286.862 0 0 1-20.073-2.147l.228-1.987a1259.067 1259.067 0 0 1-20.039-2.466l-.26 1.983c-6.713-.881-13.39-1.812-20.028-2.794l.292-1.978a1217.807 1217.807 0 0 1-19.896-3.109l-.325 1.973a1191.399 1191.399 0 0 1-19.963-3.463l.358-1.967a1165.66 1165.66 0 0 1-19.775-3.779l-.392 1.961a1145.17 1145.17 0 0 1-19.815-4.144l.427-1.954a1122.689 1122.689 0 0 1-19.676-4.484l-.462 1.946a1091.005 1091.005 0 0 1-19.574-4.837l.498-1.937a1062.577 1062.577 0 0 1-19.547-5.222l-.534 1.927a1029.634 1029.634 0 0 1-19.397-5.585l.573-1.916a999.074 999.074 0 0 1-19.262-5.964l-.611 1.904a963.21 963.21 0 0 1-19.216-6.386l.651-1.892A923.364 923.364 0 0 1 314 296.518l-.692 1.876a888.398 888.398 0 0 1-18.894-7.206l.734-1.86a857.482 857.482 0 0 1-18.701-7.633l-.778 1.843a814.455 814.455 0 0 1-18.49-8.074l.823-1.822a779.389 779.389 0 0 1-18.251-8.524l-.87 1.8a735.526 735.526 0 0 1-18.122-9.06l.919-1.776a698.329 698.329 0 0 1-17.76-9.513l-.97 1.749a659.765 659.765 0 0 1-17.475-10.039l1.023-1.719a616.374 616.374 0 0 1-17.167-10.598l-1.079 1.684a577.28 577.28 0 0 1-16.858-11.212l1.137-1.645a537.833 537.833 0 0 1-16.352-11.75l-1.197 1.602a499.643 499.643 0 0 1-15.92-12.405l1.261-1.552a461.9 461.9 0 0 1-15.305-12.992l-1.328 1.496a427.455 427.455 0 0 1-14.817-13.784l1.397-1.431a389.772 389.772 0 0 1-14.045-14.425l-1.469 1.357a359.218 359.218 0 0 1-13.305-15.226l1.543-1.273a327.203 327.203 0 0 1-12.307-15.876l-1.618 1.175a301.996 301.996 0 0 1-11.329-16.729l1.693-1.065a275.349 275.349 0 0 1-10.058-17.35l-1.766.938a256.343 256.343 0 0 1-8.778-18.192l1.835-.797a237.108 237.108 0 0 1-7.203-18.688l-1.896.639a225.923 225.923 0 0 1-5.597-19.404l1.944-.467A214.985 214.985 0 0 1 4.143 8.94l-1.98.285a212.53 212.53 0 0 1-1.921-20.1l1.997-.095a210.117 210.117 0 0 1 0-20.06l-1.997-.095c.322-6.745.965-13.446 1.922-20.1l1.98.284a214.985 214.985 0 0 1 3.768-19.65l-1.944-.466a225.92 225.92 0 0 1 5.598-19.404l1.895.639a237.082 237.082 0 0 1 7.203-18.688l-1.835-.797a256.51 256.51 0 0 1 8.778-18.192l1.766.938a275.336 275.336 0 0 1 10.058-17.35l-1.693-1.065a301.732 301.732 0 0 1 11.33-16.729l1.617 1.175a327.266 327.266 0 0 1 12.307-15.876l-1.543-1.273a359.215 359.215 0 0 1 13.305-15.226l1.47 1.357a389.768 389.768 0 0 1 14.044-14.425l-1.397-1.431a427.542 427.542 0 0 1 14.817-13.784l1.328 1.496a460.918 460.918 0 0 1 15.306-12.992l-1.262-1.552a499.643 499.643 0 0 1 15.92-12.405l1.198 1.602a534.81 534.81 0 0 1 16.351-11.75l-1.137-1.645a575.99 575.99 0 0 1 16.859-11.212l1.078 1.684a616.374 616.374 0 0 1 17.167-10.598l-1.022-1.719a656.578 656.578 0 0 1 17.475-10.039l.969 1.749a698.329 698.329 0 0 1 17.76-9.513l-.919-1.776a737.298 737.298 0 0 1 18.122-9.06l.87 1.8a781.294 781.294 0 0 1 18.251-8.524l-.823-1.823a820.935 820.935 0 0 1 18.49-8.073l.778 1.843a852.595 852.595 0 0 1 18.702-7.633l-.734-1.86a888.306 888.306 0 0 1 18.893-7.206l.692 1.876a923.364 923.364 0 0 1 18.959-6.753l-.651-1.892a963.21 963.21 0 0 1 19.216-6.386l.611 1.904a1001.257 1001.257 0 0 1 19.262-5.964l-.572-1.916a1031.691 1031.691 0 0 1 19.396-5.585l.534 1.927a1062.577 1062.577 0 0 1 19.547-5.222l-.497-1.937a1088.789 1088.789 0 0 1 19.573-4.837l.462 1.946c6.508-1.545 13.068-3.04 19.676-4.484l-.427-1.954a1145.17 1145.17 0 0 1 19.815-4.144l.392 1.961c6.547-1.31 13.14-2.57 19.776-3.779l-.359-1.967c6.612-1.205 13.267-2.36 19.963-3.463l.325 1.973a1217.932 1217.932 0 0 1 19.897-3.109l-.293-1.978c6.638-.982 13.315-1.913 20.028-2.794l.261 1.983a1246.07 1246.07 0 0 1 20.038-2.466l-.228-1.987c6.658-.766 13.349-1.481 20.074-2.147l.197 1.99c6.684-.661 13.4-1.273 20.147-1.834l-.166-1.994a1300.62 1300.62 0 0 1 20.102-1.516l.136 1.995c6.7-.454 13.43-.858 20.187-1.212l-.105-1.998c6.692-.35 13.41-.652 20.154-.903l.074 1.998c6.706-.25 13.438-.45 20.193-.601l-.045-1.999c6.71-.15 13.443-.25 20.198-.3l.015 2a1367.353 1367.353 0 0 1 20.27 0l.015-2c6.756.05 13.489.15 20.198.3l-.045 1.999a1354.4 1354.4 0 0 1 20.193.601l.074-1.998c6.744.251 13.462.553 20.154.903l-.105 1.998c6.757.354 13.487.758 20.188 1.212l.135-1.995c6.73.456 13.431.961 20.102 1.516l-.166 1.994c6.747.561 13.464 1.173 20.148 1.834l.196-1.99c6.725.666 13.417 1.381 20.074 2.147l-.228 1.987c6.715.772 13.395 1.594 20.039 2.466l.26-1.983c6.713.881 13.39 1.812 20.028 2.794l-.292 1.978c6.671.986 13.304 2.023 19.896 3.109l.325-1.973a1191.399 1191.399 0 0 1 19.963 3.463l-.358 1.967a1165.66 1165.66 0 0 1 19.775 3.779l.392-1.961a1145.17 1145.17 0 0 1 19.815 4.144l-.427 1.954a1126.83 1126.83 0 0 1 19.676 4.484l.46-1.946c6.58 1.561 13.1 3.174 19.58 4.837l-.5 1.937c6.57 1.689 13.09 3.43 19.54 5.222l.54-1.927c6.52 1.81 12.99 3.672 19.4 5.585l-.58 1.916a969.275 969.275 0 0 1 19.26 5.964l.62-1.904a971.246 971.246 0 0 1 19.21 6.386l-.65 1.892c6.39 2.198 12.71 4.45 18.96 6.753l.69-1.876a910.088 910.088 0 0 1 18.9 7.206l-.74 1.86a837.437 837.437 0 0 1 18.7 7.633l.78-1.843a816.987 816.987 0 0 1 18.49 8.074l-.82 1.822a781.212 781.212 0 0 1 18.25 8.524l.87-1.8a724.918 724.918 0 0 1 18.12 9.06l-.92 1.776a689.922 689.922 0 0 1 17.76 9.513l.97-1.749a655.33 655.33 0 0 1 17.48 10.039l-1.03 1.719a610.732 610.732 0 0 1 17.17 10.598l1.08-1.684a568.09 568.09 0 0 1 16.86 11.212l-1.14 1.645a527.92 527.92 0 0 1 16.35 11.75l1.2-1.602a501.913 501.913 0 0 1 15.92 12.405l-1.26 1.552a455.6 455.6 0 0 1 15.3 12.992l1.33-1.496c5.11 4.535 10.05 9.13 14.82 13.784l-1.4 1.431a389.13 389.13 0 0 1 14.05 14.425l1.47-1.357a357.779 357.779 0 0 1 13.3 15.226l-1.54 1.273a326.725 326.725 0 0 1 12.3 15.876l1.62-1.175a298.565 298.565 0 0 1 11.33 16.729l-1.69 1.065a278.8 278.8 0 0 1 10.06 17.351l1.76-.939a258.034 258.034 0 0 1 8.78 18.192l-1.83.797a238.358 238.358 0 0 1 7.2 18.688l1.89-.639a221.023 221.023 0 0 1 5.6 19.404l-1.94.467a216.318 216.318 0 0 1 3.77 19.65l1.98-.285Z" stroke="#5DB9F5" stroke-width="4" stroke-dasharray="20 20"/></g><defs><clipPath id="Frame 7__a"><path fill="#fff" d="M0 0h1440v366H0z"/></clipPath></defs></svg>