<svg width="44" height="44" viewBox="0 0 44 44" fill="none" xmlns="http://www.w3.org/2000/svg">
<g opacity="0.6">
<ellipse cx="21.5918" cy="21.5901" rx="21.5918" ry="21.5901" fill="#5CBA9E"/>
<g opacity="0.4">
<path d="M22.9076 26.4905C24.6994 25.8005 25.8904 24.0729 25.8904 22.1504C25.8904 19.6011 23.793 17.5048 21.2424 17.5048C18.6917 17.5048 16.5943 19.6011 16.5943 22.1504C16.5943 24.0729 17.7853 25.8005 19.5771 26.4905L16.4468 34.6492C11.2823 32.6688 7.85156 27.6808 7.85156 22.1557C7.85156 14.8133 13.8961 8.77197 21.2424 8.77197C28.5886 8.77197 34.6331 14.8133 34.6331 22.1557C34.6331 27.6861 31.2077 32.6688 26.0379 34.6492L22.9076 26.4905Z" fill="#F8F8F8"/>
</g>
<path d="M16.4404 35.2075C16.3719 35.2075 16.3034 35.1969 16.2402 35.1706C10.8859 33.1164 7.28662 27.8862 7.28662 22.1556C7.28662 14.4657 13.5472 8.21362 21.236 8.21362C28.9248 8.21362 35.1854 14.4709 35.1854 22.1556C35.1854 27.8862 31.5861 33.1164 26.2371 35.1706C26.1001 35.2233 25.9473 35.218 25.8103 35.1601C25.6733 35.1021 25.5679 34.9863 25.5152 34.8493L22.3848 26.6906C22.2742 26.4009 22.4165 26.0796 22.7063 25.969C24.2767 25.3685 25.3307 23.8306 25.3307 22.1504C25.3307 19.896 23.4968 18.0631 21.2413 18.0631C18.9858 18.0631 17.1519 19.896 17.1519 22.1504C17.1519 23.8306 18.2058 25.3633 19.7763 25.969C20.0661 26.0796 20.2084 26.4009 20.0977 26.6906L16.9674 34.8493C16.9147 34.9863 16.8093 35.0969 16.6723 35.1601C16.5985 35.1917 16.5195 35.2075 16.4404 35.2075ZM21.2413 9.33025C14.1638 9.33025 8.40911 15.0819 8.40911 22.1556C8.40911 27.2436 11.4867 31.8997 16.1242 33.917L18.8646 26.7854C17.1519 25.9005 16.0346 24.1044 16.0346 22.1556C16.0346 19.2851 18.3692 16.9517 21.2413 16.9517C24.1134 16.9517 26.4479 19.2851 26.4479 22.1556C26.4479 24.1097 25.3307 25.9058 23.618 26.7854L26.3583 33.917C30.9959 31.8997 34.0735 27.2384 34.0735 22.1556C34.0735 15.0819 28.3188 9.33025 21.2413 9.33025Z" fill="#F8F8F8"/>
</g>
</svg>
