<svg version="1.2" xmlns="http://www.w3.org/2000/svg" viewBox="0 0 460 484" width="460" height="484">
	<title>Group 1-svg</title>
	<defs>
		<clipPath clipPathUnits="userSpaceOnUse" id="cp1">
			<path d="m-99 18.13h603v452.25h-603z"/>
		</clipPath>
	</defs>
	<style>
		.s0 { fill: #def1ec } 
		.s1 { fill: #f8f8f8 } 
		.s2 { fill: #bee3d8 } 
		.s3 { fill: #5cba9e } 
		.s4 { fill: #020144 } 
		.s5 { fill: #73fdb3 } 
		.s6 { opacity: .7;fill: #ccccda } 
		.s7 { fill: none;stroke: #020144;stroke-linecap: round;stroke-linejoin: round;stroke-width: 1.8 } 
		.s8 { fill: none;stroke: #5cba9e;stroke-linejoin: round;stroke-width: 1.6 } 
		.s9 { fill: none;stroke: #020144;stroke-linejoin: round;stroke-width: 1.8 } 
		.s10 { fill: #ffffff;stroke: #020144;stroke-linecap: round;stroke-linejoin: round;stroke-width: 1.8 } 
		.s11 { fill: none;stroke: #020144;stroke-linecap: round;stroke-linejoin: round;stroke-width: 1.5 } 
		.s12 { fill: #fd0177 } 
		.s13 { fill: #0fbbfb } 
		.s14 { fill: #f4e301 } 
		.s15 { fill: #01bd9c } 
		.s16 { fill: none;stroke: #020144;stroke-linecap: round;stroke-linejoin: round;stroke-width: 1.7 } 
		.s17 { fill: none;stroke: #020144;stroke-linecap: round;stroke-linejoin: round;stroke-width: 1.6 } 
		.s18 { fill: #5cba9e;stroke: #5cba9e;stroke-linejoin: round;stroke-width: 1.6 } 
		.s19 { fill: none;stroke: #5cba9e;stroke-linecap: round;stroke-linejoin: round;stroke-width: 3.7 } 
		.s20 { fill: none;stroke: #020144;stroke-linecap: round;stroke-linejoin: round;stroke-width: 3.7 } 
		.s21 { fill: none;stroke: #020144;stroke-linecap: square;stroke-linejoin: round;stroke-width: 1.6 } 
		.s22 { fill: #5cba9e;stroke: #020144;stroke-linecap: round;stroke-linejoin: round;stroke-width: 2.1 } 
		.s23 { fill: none;stroke: #f8f8f8;stroke-width: .9;stroke-dasharray: 5.209926 } 
		.s24 { fill: none;stroke: #f8f8f8;stroke-dasharray: 6 } 
	</style>
	<path id="Layer" class="s0" d="m230 484c-127.2 0-230-102.8-230-230 0-127.2 102.8-230 230-230 127.2 0 230 102.8 230 230 0 127.2-102.8 230-230 230z"/>
	<path id="Layer" class="s1" d="m229.5 428c-97.6 0-176.5-77.3-176.5-173 0-95.7 78.9-173 176.5-173 97.6 0 176.5 77.3 176.5 173 0 95.7-78.9 173-176.5 173z"/>
	<g id="Clip-Path" clip-path="url(#cp1)">
		<g id="Layer">
			<path id="Layer" fill-rule="evenodd" class="s2" d="m232.5 202.6q-2.7-0.3-5.5-0.3c-7.6 0-14.9 1.7-21.4 4.7l-1-2.1-4.3 2.1 1.1 2.3c-15 8.8-25.2 25.1-25.2 43.8 0 18.6 10.1 35 25.2 43.8l-1.1 2.1 2.1 1.1-19.7 87.5c-56.5-18.6-97.3-71.9-97.3-134.5 0-32.6 11.1-62.7 29.6-86.6l1.8 1.4 3-3.7-1.8-1.5c26-31.3 65.2-51.2 109-51.2 40 0 76.1 16.6 101.8 43.3l-7.2 4.7 0.7 1.6 10.2-2.4q0.7 0.8 1.3 1.5l0.6 0.8-1.5 4.3-10.1 1.7v1.7l5.3 0.9 8.3-1.6 1.7-2.6c16.2 20.4 26.8 45.4 29.7 72.6l-2.4 0.2 0.5 4.8 2.3-0.2q0.4 5.1 0.4 10.3c0 61.8-39.8 114.4-95.1 133.7l-0.4-2.1-2.3 0.5-19.8-87.4q4.7-2.5 8.7-6l13.9-0.6 11.2 3 0.5-7.8-4.2-1.2-4.6-5.5 3.7-5.1 3.9 4 2.8-10.3-2.8-1.9c0 0 1-1.6 2.8-11.4 1.8-9.9-0.8-26.1-16.1-41.2-12.7-12.5-32.1-11.8-38.3-11.2zm107.1 49.7c-1.2-6.8-1-13.7 1.2-20.7l-16.7-12.9-3.7 5.1-2.4 8.8-3.3 3.9 1.7 2.9 2.4 8.4 6.1 1.4 1.7 5.8zm-245.6-17.5c0 0 26.4-5.4 26.6-11.3 0.2-6-2.6-34.3-2.6-34.3l2.6-9.5-8-6.3-6.1 7.6 3.4 8.2-1.9 27.4-16.6 2.6z"/>
			<path id="Layer" class="s3" d="m323.4 220.3c-0.6 0.7-0.2 4.4-0.2 5.3 0.2 4.8 3.8 10.1 7.9 12.2 1.1 0.6 2.6-2.5 3.9-0.8 0.6 0.9 0.9 2.8 0.5 3.8-0.2 0.5-1.3 1.3-1.2 1.8 0.1 1 1.5 2 2.1 2.8 0.3 0.4 1 1.7 1.5 1.9 2.3 0.7 4 1.4 6.3 0.4 0.9-0.4 0.4-4 1.3-2.9 1.2 1.3 2.2 4.2 2.2 6 0 3.2-2.6 6.3-3.6 9.3-1.8 6 3.2 12 9.5 11 2.1-0.4 2.8-1.6 4.3-2.5 0.1 0 1.6 1.3 1.9 1.4 1.8 0.8 4 1.2 5.6-0.2 0.3-0.3 2.3-1.9 1.9-2.4 0 0-2.1 0.4-2.4 0.3-1.3-0.3-2.1-1.4-3-2.3-0.3-0.2-0.8-1.3-0.7-1.7 0-0.1 1.7-0.8 1.9-1 0.8-0.5 1.1-1.6 1.4-2.4 1.9-5 1.6-11-3.6-13.9-1-0.5-5-2.3-5-2.3 0 0 1.6-2.3 1.9-3.3 0.6-2.1 0.9-4.4 0.3-6.6-0.8-2.8-3-5.2-5.8-5.9-0.8-0.2-2.2 0.2-2.8-0.1-0.2 0-1.2-4.7-1.4-5.3-1-3.1-4.4-5.7-7.3-6.8-5.7-2.3-15.2-1.3-20.5 1.6-2.9 1.5-6.2 4.4-5 8.2 0.2 0.8 3.3 3.6 3.7 3.3 1.3-0.9 0.8-4.1 1.5-5.5 0.5-0.9 1.1-2.3 1.8-3 0.2-0.2 1.8-1.1 1.1-0.4z"/>
			<path id="Layer" class="s4" d="m327.5 313c0 0-1.7 13.6-3 19.8-0.9 4.5-1.3 9.2-2.4 13.6-0.8 3.1-0.6 6.8-1.2 9.9-0.5 2.5-0.4 6 0 8.6 0.8 4.3 1.5 8.6 2.6 12.9 1.1 4.2 2.9 16.9 2.9 16.9 0 0 6.4 1 9.4 2 3.6 1.2 7.1 2.7 11 3.2 6.4 1 12.8-2 19-1.1 4.6 0.6 5.3 2.6 10 3.1 2.7 0.4 8.1-0.8 10.8-1.1 2.8-0.4 8.8-2.8 8.8-2.8 0 0-3-11.6-3.5-12.9-4-10.5-7.6-18.7-15.8-29.5-8.9-11.8-9.7-24.7-16.8-40.1-0.8-1.8-5.8-9.5-5.8-9.5 0 0-5.9 1.4-7.8 2-5.9 1.8-18.2 5-18.2 5z"/>
			<path id="Layer" class="s4" d="m67.4 207.3c-0.7-1.7-3.2-2-4-3.7-1.2-2.2 0.4-4.1 2.9-3.8 0.9 0.1 3.4 2.7 3.6 2.6 1.9-0.4 0.3-4.4 0.5-5.6 0.2-1.3 1.8-2.5 2.6-3.5 1.4-1.8 2.4-6.8 1.2-8.9-0.3-0.6-1.2-0.9-1.7-1.3-0.5-0.4-0.7-1.2-1.2-1.6-1.5-1.1-5.1 0-6.8 0-6.2 0-14.1-1.6-18.9 3.3-2.5 2.4-1.7 5.6-2.2 8.6-0.5 2-1.4 3.9-1.8 6.1-0.8 5.6 5.1 10.6 9 13.5 2.1 1.5 6.1 3.6 8.8 2.9 1.8-0.5 3.2-3.1 3.5-4.8 0.1-0.5 0-1.7 0.3-2.2 0.6-0.8 4.7-0.4 4.2-1.6z"/>
			<path id="Layer" class="s4" d="m92.7 218.5c0 0 1.1 2.8 1.2 3.5 0.5 3.5 2.3 7.9 1.7 11.4-0.2 1.2-0.8 6.5-0.8 6.5l-6.8 2.3c0 0 0.4 6.4 0.4 8.7 0 7.2 0.3 14.5-0.6 21.6-0.1 0.7-0.6 9.9-0.8 10-0.9 0.6-1.9 1-2.9 1.6-6.6 3.7-20 2.8-27.8 0.6-1.1-0.3-8.3-1.6-8.5-2.6-0.2-1 1.1-2.4 1.1-3.4 0-1.3-1.4-0.9-1.8-3.1-0.5-2.8 3.2-2.1 0.5-11.2-0.3-1-3.3-1.6-4.5-2.1-3.3-1.4-6.1-3.3-9-5.5-0.8-0.7-4.1-3.8-4.1-3.8 0 0 1.9-3.9 2.6-5.4 1-2.5 1.8-4.9 3.1-7.3 1.7-3 2.9-6.4 5-9.3 4.5-6.3 12.9-8.4 20.1-9.9 2.5-0.5 5.1-0.3 7.6-0.6 4.6-0.7 9.4-0.4 14-1 2.3-0.2 10.3-1 10.3-1z"/>
			<path id="Layer" fill-rule="evenodd" class="s3" d="m88.1 286.2c1.8 2.9 3.3 6.1 4.9 9 5.7 9.7 8.8 21.5 9.2 32.6 0.6 16-9.4 29.4-18.4 41.6-2.3 3-4.7 5.7-7.6 8.7-0.2 0.2-1.9 1.9-1.9 1.7 0.5-2.5 0-3.8 0-4.1-0.4-2.1-2.2-5.4-3.6-7-2.6-3.1-6.8-7.3-11-8.1-0.7-0.1-2.4 0.4-2.8 0.3-0.7-0.3-1.1 0.8-1.5 2.2-0.2 1.1 0.7 2.7 0.4 3.5-0.5 1.7-6 5.1-7.4 6.6-0.1 0-0.5 0.7-0.5 0.7-0.3 0-1-0.6-2-1.2-0.9-0.5-5.2-2.2-7.6-2.4-1.7-0.1-2.6 0-4.3 0.3-0.4 0-1.2 0.6-1.5 0.8-0.3 0.1 0-0.5 0.1-0.8 0.7-1.9 1.7-3.9 2.7-5.7 1.8-3.6 4-7.7 5.7-11.3 3.9-8.3 8.1-16.3 8.1-25.7-0.1-11.2-1.3-22.1-1.2-33.3 0-6.9 3.3-11.1 3.3-11.1 0 0 8.8 2.2 10.1 2.4 8.9 1.3 16.6 0.8 25-2.7 0.6-0.3 1.4 2.2 1.8 3zm-15.3 37.3c-0.1 3.1-0.5 6.4-1.2 9.7-0.2 1.3-0.4 3.1-0.6 3.9-0.4 1.8-1.1 3.4-1.8 5.1 0 0-0.2 0.6-0.2 0.6 0.2 0.2 0.4-0.4 0.6-0.7 0.9-1.1 1.6-2.4 2.4-3.7 0.6-0.8 5.3-7.3 5.3-7.8-0.2-1.6-3.1-5.5-4-7.1-0.1-0.1-0.3-0.5-0.5-0.9 0 0.3 0 0.7 0 0.9z"/>
			<path id="Layer" class="s3" d="m31.2 379.2c2.7-3.3 5.4 4.1 6.7 5.4 0.7 0.8 2.6 0.9 3 1.5 1 1.7 1 4.2 1.8 5.9 0.9 1.8 1.3 3.9 2.2 5.7 1.4 2.7 4.3 7.4 2.7 10.5-0.7 1.4-3 0.2-3.8-0.6-2.7-2.4-4.3-5.6-6.7-8.1-1.6-1.6-2.5-3.9-4.3-5.5-2.7-2.4-6.7-4.2-6.4-8.4 0.2-2.2 3.5-4.8 4.8-6.4z"/>
			<path id="Layer" class="s3" d="m268.6 117.7c2.7-8.4 6.8-20.8 10.8-25.6 2.2-2.7 4.1-4.6 6.9-6.8 2.6-2.1 6.6-2.2 6.5-4.8-0.5-6.9 2.9-14.6 7.7-11.7 0.3 0.2 0.2 5.9 0.2 5.9 0 0 1 3.5 1.6 4.5 1.3 2.1 3.3 2.8 5.2 4.3 1 0.7 2 3.1 2 3.1l6.6-0.2c0 0 1.2-2.9 1.9-4.1 0.9-1.6 2.4-2.6 3.7-4.7 1.3-2.2 1.1-7.7 1.1-7.7 5.1-9.7 13.8 2.4 11.2 8.5-0.5 1.2 11.5 5.2 15.1 12.8 2.6 5.6 4.6 10.3 6 16.2 1.3 5.4 4.4 14.5 3.7 20.9-0.7 5.1-3 9.8-5.3 14.3-1.2 2.3-4.8 6.7-4.8 6.7 0 0-6.5-3.7-9.3-8.2 0-0.2-1.2 3.2-2 4.7-1.4 2.6-2 5.5-5.6 6.9q-2 0.8-4 1c-10.5-10.7-22.8-19.7-36.3-26.7-1-2.4-2-4.8-2.8-7.3-0.4-0.9-2.6-7.4-2.6-7.4 0 0-3 5.3-3.8 7q-0.6 1.5-1.3 2.9-6.1-2.5-12.4-4.5z"/>
			<path id="Layer" class="s3" d="m357.3 311.5c5.8-2.2 9.1-8.1 9.1-8.1 0 0-3.8-8.1-4.6-9.7-3.9-7.3-8.2-15-11.5-22.6-0.3-0.8-2.8-0.1-5.5-4.6-2.2-3.8-0.3-4.7-1-6.1-0.9-1.7-2.5-3.2-3.3-5-0.2-0.5-1.4-2.9-1.7-3.1-1.7-0.8-10.5 1.2-11.5 2.7-0.7 1 0.8 3.9 0.8 3.9 0 0-3.2 3.5-4.3 5.1-1.3 1.8-2 4.1-3.3 6-1.4 2-4 3.8-5.8 5.4-1.1 0.9-1.9 2.3-3.3 2.8-1.7 0.5-4.3-0.7-5.8-1.5-4.4-2.3-8.9-4.8-13.4-6.8-1.8-0.8-6.2-2.8-6.2-2.8-0.4 0.5-0.7 2.6-0.8 3.2 0 2.5-1 4.8-1.9 7-0.3 0.8-1.4 3.1-1.2 3.9 0 0.5 7 4.5 7.9 5.1 0.2 0 2.3 1.2 2.2 1.4-0.2 0.2-6.5-1.7-6.9-1.4-0.4 0.5-0.5 2.5-0.5 3.1 0 1.3 0.1 9.3 0.9 10.1 1.8 1.7 5.9 2.6 8.3 3.3 5.5 1.4 13.9 5.9 19.5 4 2.2-0.8 5.6-4.7 7-6.5 0.4-0.6 2.4-3.3 2.4-3.3 0 0 0.6 3.5 0.7 4 0.4 2 1.7 12.2 1.7 12.2 0 0 5.2-1.4 6-1.4 7.1-0.2 14.9-4.6 22-5.8 0.3 0 3.1 5.8 4 5.5z"/>
			<path id="Layer" class="s4" d="m370.2 405.9c-0.8-0.5-2.7 3.1-3.3 3.9-2.7 4.3-3.6 9.4-5.6 14-1.2 2.8 0-0.8-0.6-1.9-0.3-0.5-2.2-1.9-2.7-1-0.3 0.6-0.1 1.9-0.2 2.5-0.3 2.7-1.4 5.4-1.4 8.1 0 0.8-0.3 2.6 0.5 3.1 2.2 1.4 6.1-4.3 7.1-5.7 2.3-3 2.8-7.3 4.4-10.6 1.1-2.1 5.2-5.6 5.4-7.4 0.2-2.1-2-4-3.6-5z"/>
			<path id="Layer" class="s4" d="m349.8 417.6c-1-0.4-3.1 1.6-3.9 2.1-3.5 2.4-6.5 5.8-9.2 9.1-0.8 1-1.6 2.2-2.6 3.2-0.4 0.4-1.2 1.5-1.2 1.5 0 0 0.7-1 0.8-1.5 0.2-0.7 0.4-5-1.2-4.7-0.1 0-0.9 2.3-1 2.5-1.6 2.3-2.7 5-4.1 7.4-0.4 0.7-0.8 2 0.3 2.3 5.6 1.5 12.9-7.8 16.1-11.5 1.9-2 4.9-2.8 7-4.4 1.5-1.1 0.4-5.3-1-6z"/>
			<path id="Layer" class="s5" d="m71.6 320.5c1.6 2 0.8 8.2 0 12.7 0.7-3.3 1.1-6.6 1.2-9.7 0-0.2 0-0.6 0-0.9-0.6-0.9-1.3-2.3-1.2-2.1z"/>
			<path id="Layer" class="s4" d="m61.9 375.7c0.4-0.1 0.5 0.6 0.8 0.8 0.4 0.6 1.2 1 1.8 1.4 2.4 1.5 7.5 4.8 9.8 1.5 1.2-1.9-0.5-5.5-1.3-7.2-2.2-4.2-10.5-13.8-16-11.2-1.1 0.5-2.4 4.6-1.2 5.2 0.7 0.4 1.7-2.6 2.3-2.4 5.3 1.4 7.1 5.6 7.1 5.6 0 0-2.2 3-2.8 4.2-0.2 0.4-0.7 2.3-0.5 2.1z"/>
			<path id="Layer" class="s4" d="m40.7 382.9c0.5 1.1 7.2 2.4 8.8 2.6 0.5 0.1 2.2 0.4 2.5-0.2 0.4-0.8-3.4-4.9-3.9-5.9-0.6-1.1-1.3-2.1-1-3.5 0-0.3 0.8-1.7 0.6-1.9-2-2.4-8.6-4-11.6-3.6-3.8 0.6-5.6 1.8-3.6 5.6 0 0.1 0.7-1.3 0.8-1.4 0.5-1 6.1-0.4 8.2 3.8 0.7 1.3-1.5 3.2-0.8 4.5z"/>
			<path id="Layer" class="s3" d="m54.3 368.9c2.5-1.2 3.4 5.3 4.6 6.4 0.4 0.3 2.4 1.2 2.4 1.5 0.2 2.3-0.5 4.7-0.1 7.1 0.7 3.7 1.4 7.3 2 11 0.2 1.7 0.8 5.6-1.1 6.6-1.2 0.7-2.2-0.8-2.9-1.6-2.5-2.5-3.2-5.9-4.7-8.9-0.7-1.4-0.9-3.1-1.6-4.5-1.1-2.4-3-4.5-4.2-6.8-0.7-1.4-2.2-2.9-1.6-4.7 0.7-2.1 3.6-3.3 5.4-4.3 0.7-0.5 1.1-1.4 1.8-1.8z"/>
			<path id="Layer" class="s3" d="m322.8 55.7c0 0 2.7-12.7-11.1-13.7-4.9-0.3-6.8 1.7-8.4 3.3-3 3-2.8 7-2.8 9.5 0 2.1-0.4 4.3 0 7.6 0.1 0.4 7.2 6 11.2 5.3 3.8 0.1 7.4-1.5 10.8-5.2z"/>
			<path id="Layer" class="s6" d="m323 61.7c0 0 2.9-1.5 3.1 1.7 0.1 3.2-3.1 6.1-3.1 6.1 0 0 0.6 8.1-4.8 12.8l-1.7 4.1-6.8 0.3-2.1-3.4c0 0-6.8-1.8-7.3-13.3 0 0-3.7-1.9-3.2-6.6 0.5-4.6 3.4-1.7 3.4-1.7 0 0 4.8 6.4 11.8 6.1 7-0.4 10.7-6.1 10.7-6.1z"/>
			<path id="Layer" class="s6" d="m345.7 153.8c0 0-7.3 14.6-11.9 15.4-4.5 0.8-12.5 0-11-1.9 1.5-1.9 6.4-0.2 8.3-1.2 1.9-1.1 3.7-6.4 2.1-7.1-1.6-0.6-10.5 3.7-11.4 2.3-0.9-1.5 7.4-5.1 10-7.5 2.6-2.3 5.5-8.3 5.5-8.3 0 0 5.7 7.4 8.4 8.3z"/>
			<path id="Layer" class="s7" d="m318.9 65.9c0 0-0.7 2.5 3.9 2.7"/>
			<path id="Layer" class="s7" d="m304.5 65.9c0 0 0.6 2.5-4 2.7"/>
			<path id="Layer" class="s4" d="m322.8 68.6v-6.2l-4 3.5c0 0 0.1 2.6 4 2.7z"/>
			<path id="Layer" class="s4" d="m300.5 68.6v-6.2l4 3.5c0 0-0.1 2.6-4 2.7z"/>
			<path id="Layer" class="s8" d="m119.5 201.7c0 0-2.1 0.9-4.6 0.1-1.4-0.4 1.3 3.4 2.2 8.1 0.6 3.7-0.7 8.7-0.7 8.7l4.2-1.8c0 0 1.3-5.1-2.4-4.7-5.4 0.5-4.5-6.2-1.4-5.6 2.5 0.5 2.8 3.6 3.2-0.2"/>
			<path id="Layer" class="s7" d="m323.6 219.8c-3.4 2-3.8 5.9-4.6 9.6-0.3 1-0.5 2-0.9 3-0.6 1.7-2.2 3-3.8 4"/>
			<path id="Layer" class="s9" d="m270.8 385.2l-19.8-87.4c2.4-1.3 4.8-2.4 6.9-4m-26-91.2q-2.4-0.3-4.9-0.3c-7.6 0-14.9 1.7-21.4 4.7m162.6 35.8q0.4 5.1 0.4 10.3c0 14.6-2.3 28.7-6.4 41.9m-5.7 15.4c-15.9 35.6-45.9 63.5-83 76.4m64.7-221.3c16.1 20.4 26.7 45.3 29.6 72.5m-249.8-75.3c26-31.3 65.2-51.2 109-51.2 40 0 76.1 16.6 101.9 43.3m-127.5 54.5c-15.1 8.8-25.2 25.1-25.2 43.8 0 18.6 10.1 35 25.2 43.8"/>
			<path id="Layer" class="s7" d="m314.3 236.4c0.8 0.8 1.7 1.9 1.9 2.7q0.3 1.2 0.4 2.3c0.6 4.5 0.6 8.2 8.6 7.2"/>
			<path id="Layer" class="s7" d="m325.2 248.6l2.8 10.4"/>
			<path id="Layer" class="s7" d="m324.1 218.1q-0.3 0.8-0.5 1.7c-2 7.5 1.6 14.3 7.8 18.4"/>
			<path id="Layer" class="s7" d="m331.4 238.2c2.9-3.6 5.5 0.2 3.8 3.1-1.4 2.2-2.4 2.1-4.4 2.2"/>
			<path id="Layer" class="s7" d="m319 229.4c-2-0.7-4.1-2.6-4.1-4.1-0.7-10.6 20.5-12.2 27-8.9 6.6 3.4 7.6 7.9 7.2 11.5"/>
			<path id="Layer" class="s7" d="m347.5 227.8q0.8 0 1.6 0.1c4.4 0.2 7.6 1.6 8.9 5.3 1.4 3.9 0.1 7.8-2.3 10.9"/>
			<path id="Layer" class="s7" d="m355.7 244.1c4.5 1 8.4 4 9.2 6.3 2 5.6 0.6 10.9-3.8 13.8"/>
			<path id="Layer" class="s7" d="m348.4 234.4c0.2 2.1 0.2 4.7-2.4 8.1-1.4 1.8-0.1 4.6-2.5 5.6-2 0.8-3.8-0.3-5.6-0.9"/>
			<path id="Layer" class="s7" d="m345.3 244.4c3 2.7 2.5 5.6 2.2 7.4-0.5 3-2.5 5.8-3.4 8.6-0.7 2.3-0.8 4.5 1 6.9 1.8 2.2 3.5 3.3 5.2 3.8 4.1 1 7.5-2.3 8-2.3 0.3 0 4.6 5 9.4-1.4 0 0-4 1.2-6.6-3.2"/>
			<path id="Layer" class="s7" d="m330 257.4c-0.2 0.3-0.9 0.7-2 1.6-1.2 1-2.9 2.7-4.6 5.7-0.6 1.1-1.8 3.2-3.2 5.7-3.3 5.9-8 14.4-11.3 20"/>
			<path id="Layer" class="s7" d="m309.5 290.9c-3-2.4-2.1-0.7-4.3-0.8-1.3-0.1-17.6-3.7-24.4-4.8 0 0-6.9-7.5-9.4-10.5"/>
			<path id="Layer" class="s7" d="m276.1 280.1c-2.7 2.5-10.8 1.4-13.1 1.2"/>
			<path id="Layer" class="s7" d="m269.8 285.1c-5.1 0-5.8-0.4-10.9-1.6"/>
			<path id="Layer" class="s7" d="m256.4 286.2c5.1 2.1 6.8 1.9 12 2.2"/>
			<path id="Layer" class="s7" d="m259.6 291.7q1.1 0 2.2 0c3-0.2 10.3-0.6 13.3-0.2 3.2 0.4 6.4 1.4 9.4 2.6"/>
			<path id="Layer" class="s7" d="m285.4 286.1c-0.8 2.6-1.1 5.3-0.9 8 0.1 1.9 0.4 3.8 0.8 5.6"/>
			<path id="Layer" class="s7" d="m323.2 296.8l2 16.5"/>
			<path id="Layer" class="s7" d="m350.3 271.1l16.3 32.7"/>
			<path id="Layer" class="s7" d="m366.6 303.8q-0.8 1.1-1.9 2.1c-2.1 2.2-4.8 4.2-7.5 5.8"/>
			<path id="Layer" class="s7" d="m325.2 313.3q1.1-0.3 2.4-0.6c3-0.6 6.5-1.4 8.7-2 5.6-1.5 11.4-3.5 17.2-4.6q2.3-0.5 4.5-0.8c2.3-0.2 4.7-0.2 6.7 0.6"/>
			<path id="Layer" class="s7" d="m338.5 247.5c0 1.5 0.1 2.8 0.6 4.6q0 0 0 0.1c0.8 3.1 3.1 5.6 5 8.2"/>
			<path id="Layer" class="s7" d="m339.1 252.1c-4.1-0.4-8.8 1.1-12.2 2.8"/>
			<path id="Layer" class="s7" d="m320.2 270.4c-1.6 1.5-3.2 2.9-4.6 4.3-1 1-2.9 3.2-4.5 3.4-2.5 0.2-6.1-1.9-8.2-2.8-7.4-3.4-14.6-6.6-21.5-10.9"/>
			<path id="Layer" class="s10" d="m320.8 232.5c0-0.9 0.3-1.6 0.6-1.6 0.3 0 0.5 0.7 0.5 1.6 0 0.9-0.2 1.6-0.5 1.6-0.3 0-0.6-0.7-0.6-1.6z"/>
			<path id="Layer" class="s7" d="m322.1 241.4c-1.8 1.1-4.2 0.5-5.5 0"/>
			<path id="Layer" class="s7" d="m327.6 312.7c-1.7 11.2-6 34.4-7 45.9-0.6 8 2 15.4 3.5 23.1 0.9 4.5 1.4 8.9 1.9 13.4"/>
			<path id="Layer" class="s7" d="m353.5 306.1q2.1 2.8 3.7 5.6c8 13.4 8.4 24.1 12.5 33 4.6 10 12 18 17.1 27.7 4.3 8.2 6.4 16.7 8.6 25.6"/>
			<path id="Layer" class="s7" d="m395.4 398c-5.7 2-16.1 4.8-20.9 3.8-3.6-0.8-7-2.9-10.6-3.5q-0.5-0.1-0.9-0.1c-3.4-0.4-6.7 0.9-10 1.7-1.9 0.4-3.7 0.7-5.7 0.4q-0.9-0.1-1.9-0.3c-3.6-0.8-7.2-2.5-10.8-3.4q-0.4-0.2-0.9-0.3c-2.5-0.6-5.1-1-7.7-1.2"/>
			<path id="Layer" class="s7" d="m333.7 396.3c2.3 8.5 3.9 17.1 1 25.6-1.4 4.4-3.8 8.6-6 12.6-0.5 0.8-2.4 3.7-1.9 4.7 0.8 1.6 5.9-1 6.8-1.5 4.4-3 7.4-7.6 11.6-10.7 1.6-1.2 5-2.4 6-3.9 1.7-2.4-3.3-8.1-4.2-10.4-1.6-4.2-1.6-8.4-1.6-12.7"/>
			<path id="Layer" class="s7" d="m353 399.9c2.8 4.8 4.7 10 5 15.8 0.2 4.5-0.5 9.4-1.2 13.9-0.1 0.9-0.8 4.2 0 5 1.4 1.3 5.2-3 5.8-3.8 3-4.4 4.2-9.7 7-14.2 1.1-1.6 3.8-3.9 4.2-5.8 0.7-2.8-6-6.3-7.6-8.2-1.3-1.4-2.3-2.9-3.2-4.4"/>
			<path id="Layer" class="s11" d="m261.4 291.7c-6.6 3.4-14.1 5.4-22 5.4-26.3 0-47.6-21.3-47.6-47.6 0-26.2 21.3-47.5 47.6-47.5 26.2 0 47.5 21.3 47.5 47.5 0 11.6-4.1 22.2-11 30.4"/>
			<path id="Layer" class="s12" d="m227.6 231.7q0.5-0.2 0.9-0.3z"/>
			<path id="Layer" class="s12" d="m247 235.6l14.6-3.9-2.3-8.5-30.8 8.2c6.7-1.8 13.6 0 18.5 4.2z"/>
			<path id="Layer" class="s13" d="m254.1 250.2l11.6-3.1-2.3-8.6-11.6 3.1q1 2 1.6 4.2 0.6 2.2 0.7 4.4z"/>
			<path id="Layer" class="s14" d="m238.1 270.9l0.9-0.2q-0.4 0.1-0.9 0.2z"/>
			<path id="Layer" class="s14" d="m239 270.7l30.8-8.3-2.3-8.6-14.6 3.9c-2.1 6.2-7.1 11.2-13.9 13z"/>
			<path id="Layer" fill-rule="evenodd" class="s15" d="m253.4 245.8q0.6 2.2 0.7 4.4c0.1 2.6-0.3 5.2-1.2 7.5-2.1 6.2-7.1 11.2-13.9 13q-0.4 0.1-0.9 0.2c-10.5 2.3-21.1-4.1-23.9-14.6-2.9-10.5 3.1-21.4 13.4-24.6q0.5-0.2 0.9-0.3c6.7-1.8 13.6 0 18.5 4.2 1.9 1.7 3.6 3.7 4.8 6q1 2 1.6 4.2zm-8.3 6.8c0.2-1.5 0.1-3-0.3-4.5-0.4-1.5-1.1-2.9-2-4.1-2.7-3.5-7.4-5.2-12-4-6.1 1.6-9.7 7.9-8.1 14 1.7 6.1 7.9 9.7 14 8.1 4.6-1.3 7.8-5.1 8.4-9.5z"/>
			<path id="Layer" class="s4" d="m266.1 291.4c-8.2 6.5-18.4 10.3-29.6 10.3-26.3 0-47.6-21.3-47.6-47.5 0-11.1 3.8-21.3 10.2-29.4-4.4 7.2-6.9 15.7-6.9 24.7 0 26.3 21.3 47.6 47.5 47.6 8 0 15.5-2 22.1-5.4q2.1-0.1 4.3-0.3z"/>
			<path id="Layer" class="s7" d="m73.3 192.4c3.6 9.3 7.1 23.5-4.2 23.4"/>
			<path id="Layer" class="s7" d="m69.1 214.7l-0.2 5.7"/>
			<path id="Layer" class="s7" d="m74 183.8c1.3 2.5 0.7 5.8-0.7 8.6-0.8 1.5-1.8 2.9-2.9 3.9"/>
			<path id="Layer" class="s7" d="m70.3 194.9l0.6 6.6-1.2 1.1c0 0-4.3-4.4-6.4-1.8-2.1 2.5 2.5 5.9 4.4 6.5l-4.5 1.7c0 0-0.2 8.8-7.1 6.7-6.9-2.1-19.7-12-12.9-22.2 0 0-2-9 6.7-11.4 8.8-2.3 14.6 0 17.6-0.9 4-1.2 4.5 1.6 4.5 1.6l2 1"/>
			<path id="Layer" class="s7" d="m56.4 215.8c-0.4 2.2-1.5 4.7-2.4 6.8"/>
			<path id="Layer" class="s7" d="m117.8 189.2c1.5-3.2 2.5-5.7 2-8.9-0.2-1.5-1.5-0.3-2.1-2.8-0.7-2.5-2.4-0.2-3.2-2.6-0.9-2.5-4.5-0.8-4.6 1.4-0.1 2.2-2.9 2.1-3.6 5.1-0.6 3.1 3.5 6.8 3.5 6.8l-1.4 28.6c-5 0.9-10.3 1.5-15.7 1.9-8 0.7-16.2 1-23.8 1.7q-0.9 0.1-1.8 0.2c-4.7 0.4-9 0.8-13.1 2-4.6 1.2-8.8 3.4-12.6 7.6-3 3.3-8.3 15.8-11.4 22.9"/>
			<path id="Layer" class="s7" d="m92.7 218.7c2.2 5.3 2.9 10.7 2.7 16.2q-0.1 2.5-0.5 5"/>
			<path id="Layer" class="s7" d="m30 253.1c1.6 1.7 3.4 3.3 5.4 4.7 3.7 2.7 8.1 4.8 12.2 6.4"/>
			<path id="Layer" class="s7" d="m94.9 239.9c-2.3 0.8-4.6 1.5-6.9 2.2q-2.4 0.7-4.8 1.1"/>
			<path id="Layer" class="s7" d="m88 242.1c0.8 10.3 0.2 30-0.8 38.1"/>
			<path id="Layer" class="s7" d="m44 250c0.9 4 1.9 8.1 2.9 12.1q0.3 1 0.7 2.1c0.6 2.2 1.3 4.4 1.3 6.6 0.1 1.9-1.7 3.1-1.8 4.8-0.1 1.1 1.4 2.3 1.7 3.4 0.3 0.8-1 2.1-1.1 3q0 0 0 0.1"/>
			<path id="Layer" class="s7" d="m86.5 282.8c-8 4.9-22.2 5.5-35.4 0.7q-1.7-0.7-3.4-1.4"/>
			<path id="Layer" class="s7" d="m35.4 257.8c-3.2 8.2-7 17.5 3.8 29.1"/>
			<path id="Layer" class="s7" d="m95.4 234.9c8.6-2 22.1-6.2 24.5-11.6 1.9-4.4-0.9-27.1-2.1-34.1"/>
			<path id="Layer" class="s7" d="m84.4 278.8c3.6 7.2 8 14 10.9 21.6 1.8 4.9 4.1 10 5.2 15.1 1 5 2.3 10.9 1.8 16.1-1.2 13.2-10.1 26.1-17.7 36.6-2.9 4-6.6 8.4-10.7 12.1q-0.2 0.2-0.4 0.4"/>
			<path id="Layer" class="s7" d="m62.1 302.9l15.6 28"/>
			<path id="Layer" class="s7" d="m80.6 326.6l-24.8 35.7"/>
			<path id="Layer" class="s7" d="m51.1 283.5c-0.4 1.1-1.1 2.3-1.6 3.4q-0.3 0.5-0.5 1c-0.8 2.1-1 4.4-1.1 6.7-0.9 13.3 2.7 26.7 0.6 40-1.4 8.5-5.8 15.4-9.5 22.9-2.3 4.8-4.6 9.7-7 14.5q-0.1 0.2-0.2 0.4"/>
			<path id="Layer" class="s7" d="m55.9 366.6c-0.5-1.7-0.6-3.2-0.1-4.2q0.2-0.6 0.6-1 0 0 0 0c0.8-0.7 2-0.9 3.4-0.7 2.4 0.5 5.5 2.3 8.3 5.1q0.6 0.6 1.1 1.2c4.8 5.3 6.8 11.3 4.5 13.5-2.1 2-7.4-0.1-12-4.8"/>
			<path id="Layer" class="s7" d="m68.2 365.8c-2.6 3-5.8 6.7-6.3 9.1q-0.1 0.3-0.2 0.6c-1 6 0.8 12.6 1.4 18.6 0.2 2.3 1.1 5.9-1.1 7.4-1.9 1.3-4.5-3.6-5.1-4.7-1.9-3.6-2.9-7.8-4.7-11.5q-0.7-1.3-1.5-2.6c-1.4-1.9-4.1-4.5-3.6-7.1 0.2-0.6 0.5-1.2 0.9-1.8 1.2-1.6 3.4-2.7 4.8-3.9 1.1-1 2.1-2.1 3.1-3.4 1.4-1.8 2.7-3.9 3.9-5.8"/>
			<path id="Layer" class="s7" d="m44.5 372.1c-1.8 3.6-4 8-3.9 10.5q0 0.1 0 0.2c0.3 6.3 3.9 12.4 5.9 18.1 0.8 2.2 2.6 5.5 0.8 7.5-1.5 1.7-5.2-2.4-6.1-3.3-3.4-3.8-5.6-8.7-9.5-12.1-1.8-1.5-5.1-3.3-5.2-6-0.2-2.8 2.7-4.9 4.1-7 0.7-1.1 1.4-2.4 2-3.7 0.8-1.9 1.5-4 2.2-5.9"/>
			<path id="Layer" class="s7" d="m72.8 322.2c-0.2 6.6-1.3 13.4-3.4 19.6-0.1 0.4-0.3 1-0.6 1.7"/>
			<path id="Layer" class="s7" d="m322.8 61.6c2.9-2.4 3.8 1.5 3.3 3.7-0.5 2.2-1.6 3.6-3.3 3.9"/>
			<path id="Layer" class="s7" d="m300.5 61.6c-2.9-2.4-3.9 1.5-3.4 3.7 0.5 2.2 1.7 3.6 3.4 3.9"/>
			<path id="Layer" class="s7" d="m315.5 72.9c0-1 0.3-1.7 0.7-1.7 0.4 0 0.7 0.7 0.7 1.7 0 0.9-0.3 1.6-0.7 1.6-0.4 0-0.7-0.7-0.7-1.6z"/>
			<path id="Layer" class="s7" d="m306.7 72.9c0-1 0.4-1.7 0.7-1.7 0.4 0 0.7 0.7 0.7 1.7 0 0.9-0.3 1.6-0.7 1.6-0.3 0-0.7-0.7-0.7-1.6z"/>
			<path id="Layer" class="s7" d="m315.3 79.1c0 0-3.1 2.3-7-0.2"/>
			<path id="Layer" class="s7" d="m334.5 78.9c4.8 2.9 9.2 5.8 11.3 8 6.2 6.3 8.7 17.6 10.6 25.9 1.4 6.4 3.6 14 1.5 20.4-2.1 6.3-4.9 10.3-9.1 16.2q-1.3 1.8-2.8 3.8-0.7 1-1.4 2.1c0 0-4.9 10.5-9.8 13.3-4.8 2.7-13 0.3-12.9-1.3 0-1.6 11.1 2.2 12-5.3 0.8-7.4-8.4-0.3-10.5-0.5-1.5-0.2-2.8-1.1-1.2-2.6 1.6-1.4 11.6-6.3 13.2-9.1 0.4-0.8 1.2-2.2 2-4 0.7-1.3 1.4-2.9 2.2-4.6 1.8-4.3 3.6-9.1 3.7-12.1 0.1-5.6-5.2-18.7-5.2-18.7"/>
			<path id="Layer" class="s7" d="m339.6 141.2c2.1 2.9 5.3 6 9.2 8.2"/>
			<path id="Layer" class="s7" d="m337.4 145.8c2.5 3.3 5.7 5.8 8.6 7.4"/>
			<path id="Layer" class="s7" d="m292.9 80.4c-4.9 3.8-10.1 8.1-12.8 10.8-2.7 2.7-7.8 16.1-11.5 26.5"/>
			<path id="Layer" class="s7" d="m289.1 106.6l-8.3 15.5"/>
			<path id="Layer" class="s7" d="m286.1 112.3l5.8 15"/>
			<path id="Layer" class="s7" d="m318.2 81.8l-4.5 10.7"/>
			<path id="Layer" class="s7" d="m313.1 92.5l-5.8-9.5"/>
			<path id="Layer" class="s7" d="m316.1 86.6h-6.6"/>
			<path id="Layer" class="s7" d="m334.5 279.2c-1.9 2.9-6.6 11-11.3 17.6-3.7 5.2-7.3 9.5-9.7 10-6.4 1.3-20.1-4.5-28.2-7.1"/>
			<path id="Layer" class="s7" d="m52.2 385.3c-2.8 0.6-7-0.2-11.3-2.3q-0.2-0.1-0.3-0.2m-8-6.5c-0.9-1.4-1.3-2.8-0.8-3.9q0-0.1 0.1-0.2 0-0.1 0.1-0.2c0.5-0.9 1.5-1.4 2.8-1.6 2.4-0.5 6 0.1 9.7 1.7q0.7 0.3 1.4 0.6 1.1 0.6 2.1 1.1"/>
			<path id="Layer" class="s7" d="m311.7 47.8c6.1 0 11.1 5 11.1 11.2v13.8c0 6.1-5 11.1-11.1 11.1-6.2 0-11.2-5-11.2-11.1v-13.8c0-6.2 5-11.2 11.2-11.2z"/>
			<path id="Layer" class="s16" d="m300.5 63.4v-11.8c0-5.3 5-9.6 11.2-9.6 6.1 0 11.1 4.3 11.1 9.6v11.8"/>
			<path id="Layer" class="s17" d="m273.1 384.7l-4.7 1 1 4.7 4.7-1z"/>
			<path id="Layer" class="s17" d="m119.8 164.2l-3.7-3-3 3.7 3.7 3z"/>
			<path id="Layer" class="s17" d="m370.2 237.8l-4.8 0.4 0.5 4.8 4.7-0.5z"/>
			<path id="Layer" class="s17" d="m206.7 296.9l-4.3-2.1-2.1 4.2 4.2 2.2z"/>
			<path id="Layer" class="s17" d="m204.6 204.9l-4.3 2.1 2.1 4.3 4.3-2.1z"/>
			<path id="Layer" class="s7" d="m322.8 61.7c-2.4 3.7-6.5 6.1-11.1 6.1-4.7 0-8.8-2.4-11.2-6.1"/>
			<path id="Layer" class="s7" d="m307.8 61v3.3q1.8 0.6 3.9 0.6 2 0 3.9-0.6v-3.3q-1.9 0.6-3.9 0.6-2.1 0-3.9-0.6z"/>
			<path id="Layer" class="s7" d="m326.2 64.8c5.1 2.8 8.4 7.3 8.4 12.3 0 8.5-9.4 15.4-21.1 15.4-11.6 0-21.1-6.9-21.1-15.4 0-3.9 2-7.5 5.3-10.2"/>
			<path id="Layer" class="s7" d="m318.2 92.5c0 0-0.7 6.6 1.6 10.2"/>
			<path id="Layer" class="s7" d="m309.5 92.5c0 0 2 8.3-0.5 12.1"/>
			<path id="Layer" class="s18" d="m329.8 244.8c0.8 0 1.5-0.7 1.5-1.5 0-0.8-0.7-1.5-1.5-1.5-0.9 0-1.5 0.7-1.5 1.5 0 0.8 0.6 1.5 1.5 1.5z"/>
			<path id="Layer" class="s3" d="m368.6 219.6c9 0 16.4-7.4 16.4-16.5 0-9-7.4-16.4-16.4-16.4-9.1 0-16.5 7.4-16.5 16.4 0 9.1 7.4 16.5 16.5 16.5z"/>
			<path id="Layer" class="s3" d="m121.1 277.2c5.4 0 9.7-4.3 9.7-9.6 0-5.3-4.3-9.7-9.7-9.7-5.3 0-9.6 4.4-9.6 9.7 0 5.3 4.3 9.6 9.6 9.6z"/>
			<path id="Layer" class="s3" d="m124.4 138.3c2.8 0 5.1-2.3 5.1-5.1 0-2.9-2.3-5.2-5.1-5.2-2.8 0-5.1 2.3-5.1 5.2 0 2.8 2.3 5.1 5.1 5.1z"/>
			<path id="Layer" class="s19" d="m302.5 186.7c8.4 0 15.1-6.8 15.1-15.2 0-8.3-6.7-15.1-15.1-15.1-8.3 0-15.1 6.8-15.1 15.1 0 8.4 6.8 15.2 15.1 15.2z"/>
			<path id="Layer" class="s3" d="m216.5 140c10.9 0 19.8-8.9 19.8-19.8 0-11-8.9-19.9-19.8-19.9-10.9 0-19.8 8.9-19.8 19.9 0 10.9 8.9 19.8 19.8 19.8z"/>
			<path id="Layer" class="s20" d="m98.3 365.9c4.9 0 8.8-3.9 8.8-8.8 0-4.8-3.9-8.8-8.8-8.8-4.8 0-8.8 4-8.8 8.8 0 4.9 4 8.8 8.8 8.8z"/>
			<path id="Layer" class="s3" d="m146.2 341.2c8.9 0 16.1-7.2 16.1-16.1 0-8.9-7.2-16.1-16.1-16.1-8.9 0-16.1 7.2-16.1 16.1 0 8.9 7.2 16.1 16.1 16.1z"/>
			<path id="Layer" class="s19" d="m162.3 196.5c12.8 0 23.2-10.4 23.2-23.2 0-12.8-10.4-23.1-23.2-23.1-12.8 0-23.2 10.3-23.2 23.1 0 12.8 10.4 23.2 23.2 23.2z"/>
			<path id="Layer" class="s3" d="m270.2 368.8c12.8 0 23.2-10.4 23.2-23.2 0-12.8-10.4-23.2-23.2-23.2-12.8 0-23.2 10.4-23.2 23.2 0 12.8 10.4 23.2 23.2 23.2z"/>
			<path id="Layer" class="s7" d="m300.2 172.3l-1 0.3c-0.9 0.3-1.9 0.2-2.8-0.3-1.7-1-2.3-3.3-1.3-5.1 1-1.7 3.3-2.3 5-1.3 0.8 0.5 1.5 1.3 1.7 2.2l1.4 6.9c0.3 0.9 0.9 1.7 1.7 2.2 1.8 1 4.1 0.4 5.1-1.4 1-1.7 0.4-4-1.4-5-0.8-0.5-1.8-0.6-2.8-0.4l-0.9 0.4"/>
			<path id="Layer" class="s21" d="m368.5 192.6q-0.8 1.5-1.6 3c-1.5 3.3-3.4 7.2-4.5 10.7-0.8 2.2-1.2 3.7-1 6 0.1 1 1.1 1.4 2 1.4 2 0 3.1-2 5.2-2 2.1 0 3.2 2 5.2 2 0.9 0 1.9-0.4 2-1.4 0.2-2.3-0.3-3.8-1-6-1.1-3.5-3-7.4-4.5-10.7-0.5-1-1.3-2-1.8-3z"/>
			<path id="Layer" class="s4" d="m373.2 202l2.2 1.1-0.9 2.5z"/>
			<path id="Layer" class="s4" d="m363.9 202l-2.2 1.1 0.9 2.5z"/>
			<path id="Layer" class="s22" d="m368.5 204.3c1.4 0 2.6-0.9 2.6-2 0-1.1-1.2-1.9-2.6-1.9-1.3 0-2.5 0.8-2.5 1.9 0 1.1 1.2 2 2.5 2z"/>
			<path id="Layer" class="s4" d="m372.8 201.3h-1.9c0 0-1.1-1-2.4-0.9-1.2 0.1-1.8 0.5-2.1 0.9-0.3 0.3-2.1 0-2.1 0l4.2-8.7z"/>
			<path id="Layer" class="s17" d="m374.9 204c0 0 2.2 0.8 2.2 1.6 0.1 0.8-1 1.9-1 1.9"/>
			<path id="Layer" class="s17" d="m362.2 204c0 0-2.1 0.8-2.2 1.6-0.1 0.8 1 1.9 1 1.9"/>
			<path id="Layer" class="s4" d="m376.4 207c0 0 1.1 0.7 0.6 1.7-0.6 1 0.4 0.3 0.3 0.9 0 0.6-1.2 1-1.5 0.5-0.2-0.5-0.9-3.1-0.9-3.1 0 0 1-0.6 1.5 0z"/>
			<path id="Layer" class="s4" d="m360.7 207c0 0-1.1 0.7-0.5 1.7 0.5 1-0.4 0.3-0.4 0.9 0.1 0.6 1.2 1 1.5 0.5 0.3-0.5 0.9-3.1 0.9-3.1 0 0-1-0.6-1.5 0z"/>
			<path id="Layer" class="s7" d="m212.4 119c0-0.9-0.8-1.7-1.8-1.7h-1.6c-1 0-1.8 0.8-1.8 1.7v2.3c0 0.9 0.8 1.7 1.8 1.7h1.6c1 0 1.8-0.8 1.8-1.7z"/>
			<path id="Layer" class="s7" d="m225.8 112.9c0-1-0.8-1.8-1.8-1.8h-2.4c-1 0-1.7 0.8-1.7 1.8v3c0 1 0.7 1.8 1.7 1.8h2.4c1 0 1.8-0.8 1.8-1.8z"/>
			<path id="Layer" class="s7" d="m225.8 124.4c0-1-0.8-1.8-1.8-1.8h-2.4c-1 0-1.7 0.8-1.7 1.8v3c0 1 0.7 1.8 1.7 1.8h2.4c1 0 1.8-0.8 1.8-1.8z"/>
			<path id="Layer" class="s7" d="m212.4 120.2h3.7"/>
			<path id="Layer" class="s7" d="m219.9 125.9h-1.5q0 0 0 0c-1.3 0-2.3-1.1-2.3-2.4q0 0 0-0.1v-6.5q0 0 0 0c0-1.4 1-2.5 2.3-2.5q0 0 0 0h1.5"/>
			<path id="Layer" fill-rule="evenodd" class="s4" d="m162.4 157.7c-8.9 0-16.1 7.1-16.1 16 0 7.1 4.5 13.1 10.9 15.2 0.8 0.2 1.1-0.3 1.1-0.7 0-0.4 0-1.4 0-2.8-4.5 1-5.4-2.1-5.4-2.1-0.7-1.9-1.8-2.4-1.8-2.4-1.4-1 0.1-1 0.1-1 1.6 0.2 2.5 1.7 2.5 1.7 1.4 2.5 3.7 1.8 4.7 1.3 0.1-1 0.5-1.7 1-2.1-3.6-0.4-7.3-1.8-7.3-7.9 0-1.8 0.6-3.2 1.7-4.3-0.2-0.4-0.8-2.1 0.1-4.3 0 0 1.4-0.4 4.4 1.7 1.3-0.4 2.7-0.5 4-0.5 1.4 0 2.8 0.1 4.1 0.5 3-2.1 4.4-1.6 4.4-1.6 0.8 2.2 0.3 3.8 0.1 4.2 1 1.1 1.7 2.6 1.6 4.3 0 6.2-3.7 7.5-7.3 7.9 0.6 0.5 1.1 1.5 1.1 3 0 2.1 0 3.9 0 4.4 0 0.4 0.2 0.9 1.1 0.8 6.3-2.2 10.9-8.1 11-15.2 0-8.9-7.2-16.1-16-16.1z"/>
			<path id="Layer" class="s7" d="m279 357.1h2.9c0.5 0 0.9-0.4 0.9-0.9v-15.4l-6.7-6.7h-11.5c-0.5 0-1 0.4-1 1v10.5"/>
			<path id="Layer" class="s7" d="m276.1 334.1v6.7h6.7"/>
			<path id="Layer" fill-rule="evenodd" class="s4" d="m260.6 348.7h1.2v4q0 0.5-0.3 0.9-0.2 0.4-0.7 0.7-0.4 0.2-1 0.2-0.5 0-0.9-0.2-0.4-0.2-0.7-0.5-0.2-0.4-0.2-1h1.2q0 0.2 0.1 0.4 0.1 0.2 0.2 0.2 0.2 0.1 0.4 0.1 0.2 0 0.4-0.1 0.1-0.1 0.2-0.3 0.1-0.1 0.1-0.4zm3.2 5.7h-1.3l1.9-5.7h1.6l2 5.7h-1.3l-0.5-1.3h0.5v-0.9h-0.8l-0.7-2.2-0.7 2.2h-0.8v0.9h0.5zm0.4-1.3l0.3-1h1.5l0.3 1zm4.8-4.4l1.3 4.3h0.1l1.4-4.3h1.3l-2 5.7h-1.5l-2-5.7zm5.1 5.7h-1.3l2-5.7h1.5l2 5.7h-1.3l-0.4-1.3h0.5v-1h-0.8l-0.7-2.1h-0.1l-0.7 2.1h-0.8v1h0.5zm2.5-1.3l-0.3-1h-1.5l-0.3 1z"/>
			<path id="Layer" class="s7" d="m146.2 327.4c1.3 0 2.3-1.1 2.3-2.3 0-1.3-1-2.3-2.3-2.3-1.2 0-2.3 1-2.3 2.3 0 1.2 1.1 2.3 2.3 2.3z"/>
			<path id="Layer" class="s7" d="m151.8 327.4c-0.2 0.4-0.1 1 0.3 1.3v0.1c0.3 0.3 0.4 0.6 0.4 1 0 0.4-0.1 0.8-0.4 1.1-0.3 0.3-0.7 0.5-1.1 0.5-0.4 0-0.8-0.2-1-0.5h-0.1c-0.3-0.4-0.9-0.5-1.4-0.3-0.4 0.2-0.7 0.7-0.7 1.2v0.1c0 0.8-0.7 1.5-1.5 1.5-0.9 0-1.5-0.7-1.5-1.5v-0.1c0-0.5-0.4-0.9-0.9-1.1-0.4-0.2-1-0.1-1.3 0.2l-0.1 0.1c-0.3 0.3-0.6 0.4-1 0.4-0.4 0-0.8-0.1-1.1-0.4-0.3-0.3-0.5-0.7-0.5-1.1 0-0.4 0.2-0.8 0.5-1.1 0.4-0.4 0.5-0.9 0.3-1.4-0.2-0.4-0.7-0.7-1.2-0.7h-0.1c-0.8 0-1.5-0.7-1.5-1.6 0-0.8 0.7-1.5 1.5-1.5h0.1c0.5 0 0.9-0.3 1.1-0.8 0.2-0.4 0.1-1-0.2-1.4h-0.1c-0.3-0.3-0.4-0.7-0.4-1.1 0-0.4 0.1-0.8 0.4-1 0.3-0.3 0.7-0.5 1.1-0.5 0.4 0 0.8 0.2 1.1 0.5 0.4 0.4 0.9 0.5 1.4 0.3 0.5-0.2 0.8-0.7 0.8-1.2v-0.1c0-0.8 0.7-1.5 1.5-1.5 0.8 0 1.5 0.7 1.5 1.5v0.1c0 0.4 0.3 0.9 0.8 1.1 0.4 0.2 1 0.1 1.4-0.3 0.3-0.3 0.7-0.4 1.1-0.4 0.4 0 0.8 0.1 1 0.4 0.3 0.3 0.5 0.7 0.5 1.1 0 0.4-0.2 0.8-0.5 1v0.1c-0.4 0.3-0.5 0.9-0.3 1.4 0.2 0.5 0.7 0.8 1.2 0.8h0.1c0.8 0 1.5 0.7 1.5 1.5 0 0.8-0.7 1.5-1.5 1.5-0.5 0-1 0.3-1.2 0.8z"/>
			<path id="Layer" fill-rule="evenodd" class="s4" d="m340.7 157.2c-0.1-0.3-0.3-0.6-0.6-0.7-0.3-0.2-0.6-0.2-0.9-0.1-4.6 1.6-21.4 7.7-26 9.3-0.2 0.1-0.5 0.3-0.6 0.6-0.2 0.3-0.2 0.6-0.1 0.9 0.1 0.3 0.4 0.5 0.6 0.7 0.3 0.1 0.7 0.1 1 0 4.5-1.6 21.3-7.6 25.9-9.2 0.3-0.1 0.5-0.4 0.6-0.6 0.2-0.3 0.2-0.7 0.1-0.9z"/>
			<path id="Layer" class="s23" d="m423.9 134.1c-17.1 0-30.9-13.8-30.9-30.9 0-17.1 13.8-30.9 30.9-30.9 17.1 0 30.9 13.8 30.9 30.9 0 17.1-13.8 30.9-30.9 30.9z"/>
		</g>
	</g>
	<path id="Layer" class="s3" d="m388 44c-9.4 0-17-7.8-17-17.5 0-9.7 7.6-17.5 17-17.5 9.4 0 17 7.8 17 17.5 0 9.7-7.6 17.5-17 17.5z"/>
	<path id="Layer" class="s3" d="m147 19c-5 0-9-4.2-9-9.5 0-5.3 4-9.5 9-9.5 5 0 9 4.2 9 9.5 0 5.3-4 9.5-9 9.5z"/>
	<path id="Layer" class="s3" d="m91 423c-5 0-9-4.2-9-9.5 0-5.3 4-9.5 9-9.5 5 0 9 4.2 9 9.5 0 5.3-4 9.5-9 9.5z"/>
	<path id="Layer" class="s24" d="m114.5 87.5c-16 0-29-13-29-29 0-16 13-29 29-29 16 0 29 13 29 29 0 16-13 29-29 29z"/>
	<path id="Layer" class="s24" d="m146.4 123.1c-9.6 0-17.5-7.8-17.5-17.5 0-9.7 7.9-17.5 17.5-17.5 9.7 0 17.5 7.8 17.5 17.5 0 9.7-7.8 17.5-17.5 17.5z"/>
</svg>