<svg width="1464" height="631" viewBox="0 0 1464 631" fill="none" xmlns="http://www.w3.org/2000/svg">
<path d="M227 186C121.4 164 31 216.167 -1 245V0H1465V594.5C1098.5 749 1046 370.5 908 209.5C770 48.5001 542.099 117.459 478.5 140C399.5 168 359 213.5 227 186Z" fill="#020144"/>
<path opacity="0.05" d="M1290.3 311.168C1261.11 192.878 1395.82 135.102 1466.82 121H1584.22C1621.4 218.069 1675.71 477.924 1595.54 740.791C1495.33 1069.37 1064.3 507.086 1105.81 521.05C1147.32 535.015 1326.78 459.03 1290.3 311.168Z" fill="white"/>
<path opacity="0.07" d="M1350.96 372.066C1293.42 247.246 1430.27 155.854 1505.89 125.761L1635.9 101.78C1697.76 201.505 1813.31 477.706 1780.58 784.706C1739.67 1168.46 1142.46 634.836 1191.4 641.796C1240.35 648.757 1422.88 528.092 1350.96 372.066Z" fill="white"/>
<path opacity="0.1" d="M1435.54 415.814C1383.39 280.594 1533.75 193.195 1615.45 166.397L1754.03 149.566C1812.44 258.631 1915.44 557.081 1860.14 878.361C1791.02 1279.96 1198.09 679.101 1249.18 689.608C1300.27 700.114 1500.73 584.839 1435.54 415.814Z" fill="white"/>
</svg>
