<?xml version="1.0" encoding="utf-8"?>
<!-- Generator: Adobe Illustrator 27.5.0, SVG Export Plug-In . SVG Version: 6.00 Build 0)  -->
<svg version="1.1" id="Ebene_1" xmlns="http://www.w3.org/2000/svg" xmlns:xlink="http://www.w3.org/1999/xlink" x="0px" y="0px"
	 viewBox="0 0 460 484" style="enable-background:new 0 0 460 484;" xml:space="preserve">
<style type="text/css">
	.st0{fill:#DEF1EC;}
	.st1{fill:#F8F8F8;}
	.st2{clip-path:url(#SVGID_00000156558191500825544300000008813871044741011089_);}
	.st3{fill-rule:evenodd;clip-rule:evenodd;fill:#BEE3D8;}
	.st4{fill:#5CBA9E;}
	.st5{fill:#020144;}
	.st6{fill-rule:evenodd;clip-rule:evenodd;fill:#5CBA9E;}
	.st7{fill:#73FDB3;}
	.st8{opacity:0.7;fill:#CCCCDA;enable-background:new    ;}
	.st9{fill:none;stroke:#020144;stroke-width:1.8;stroke-linecap:round;stroke-linejoin:round;}
	.st10{fill:none;stroke:#5CBA9E;stroke-width:1.6;stroke-linejoin:round;}
	.st11{fill:none;stroke:#020144;stroke-width:1.8;stroke-linejoin:round;}
	.st12{fill:#FFFFFF;stroke:#020144;stroke-width:1.8;stroke-linecap:round;stroke-linejoin:round;}
	.st13{fill:none;stroke:#020144;stroke-width:1.5;stroke-linecap:round;stroke-linejoin:round;}
	.st14{fill:#FD0177;}
	.st15{fill:#0FBBFB;}
	.st16{fill:#F4E301;}
	.st17{fill-rule:evenodd;clip-rule:evenodd;fill:#01BD9C;}
	.st18{fill:none;stroke:#020144;stroke-width:1.7;stroke-linecap:round;stroke-linejoin:round;}
	.st19{fill:none;stroke:#020144;stroke-width:1.6;stroke-linecap:round;stroke-linejoin:round;}
	.st20{fill:#5CBA9E;stroke:#5CBA9E;stroke-width:1.6;stroke-linejoin:round;}
	.st21{fill:none;stroke:#5CBA9E;stroke-width:3.7;stroke-linecap:round;stroke-linejoin:round;}
	.st22{fill:none;stroke:#020144;stroke-width:3.7;stroke-linecap:round;stroke-linejoin:round;}
	.st23{fill:none;stroke:#020144;stroke-width:1.6;stroke-linecap:square;stroke-linejoin:round;}
	.st24{fill:#5CBA9E;stroke:#020144;stroke-width:2.1;stroke-linecap:round;stroke-linejoin:round;}
	.st25{fill-rule:evenodd;clip-rule:evenodd;fill:#020144;}
	.st26{fill:none;stroke:#F8F8F8;stroke-width:0.9;stroke-dasharray:5.2099;}
	.st27{fill:none;stroke:#F8F8F8;stroke-dasharray:6;}
</style>
<path id="Layer" class="st0" d="M230,484C102.8,484,0,381.2,0,254S102.8,24,230,24s230,102.8,230,230S357.2,484,230,484z"/>
<path id="Layer_00000142154580453497306970000018387510911535303099_" class="st1" d="M229.5,428C131.9,428,53,350.7,53,255
	S131.9,82,229.5,82S406,159.3,406,255S327.1,428,229.5,428z"/>
<g>
	<defs>
		<rect id="SVGID_1_" x="-99" y="18.1" width="603" height="452.2"/>
	</defs>
	<clipPath id="SVGID_00000157269240368498518100000017024863303550893219_">
		<use xlink:href="#SVGID_1_"  style="overflow:visible;"/>
	</clipPath>
	<g id="Clip-Path" style="clip-path:url(#SVGID_00000157269240368498518100000017024863303550893219_);">
		<g id="Layer_00000108283215134795010260000007267640497802620814_">
			<path id="Layer_00000167373189007726851180000003915320936613186450_" class="st3" d="M232.5,202.6c-1.8-0.2-3.6-0.3-5.5-0.3
				c-7.6,0-14.9,1.7-21.4,4.7l-1-2.1l-4.3,2.1l1.1,2.3c-15,8.8-25.2,25.1-25.2,43.8c0,18.6,10.1,35,25.2,43.8l-1.1,2.1l2.1,1.1
				l-19.7,87.5c-56.5-18.6-97.3-71.9-97.3-134.5c0-32.6,11.1-62.7,29.6-86.6l1.8,1.4l3-3.7l-1.8-1.5c26-31.3,65.2-51.2,109-51.2
				c40,0,76.1,16.6,101.8,43.3l-7.2,4.7l0.7,1.6l10.2-2.4c0.5,0.5,0.9,1,1.3,1.5l0.6,0.8l-1.5,4.3l-10.1,1.7v1.7l5.3,0.9l8.3-1.6
				l1.7-2.6c16.2,20.4,26.8,45.4,29.7,72.6l-2.4,0.2l0.5,4.8l2.3-0.2c0.3,3.4,0.4,6.8,0.4,10.3c0,61.8-39.8,114.4-95.1,133.7
				l-0.4-2.1l-2.3,0.5L251,297.8c3.1-1.7,6-3.7,8.7-6l13.9-0.6l11.2,3l0.5-7.8l-4.2-1.2l-4.6-5.5l3.7-5.1l3.9,4l2.8-10.3l-2.8-1.9
				c0,0,1-1.6,2.8-11.4c1.8-9.9-0.8-26.1-16.1-41.2C258.1,201.3,238.7,202,232.5,202.6L232.5,202.6z M339.6,252.3
				c-1.2-6.8-1-13.7,1.2-20.7l-16.7-12.9l-3.7,5.1l-2.4,8.8l-3.3,3.9l1.7,2.9l2.4,8.4l6.1,1.4l1.7,5.8L339.6,252.3z M94,234.8
				c0,0,26.4-5.4,26.6-11.3c0.2-6-2.6-34.3-2.6-34.3l2.6-9.5l-8-6.3l-6.1,7.6l3.4,8.2l-1.9,27.4l-16.6,2.6L94,234.8z"/>
			<path id="Layer_00000178175793627242292850000011160718880163687048_" class="st4" d="M323.4,220.3c-0.6,0.7-0.2,4.4-0.2,5.3
				c0.2,4.8,3.8,10.1,7.9,12.2c1.1,0.6,2.6-2.5,3.9-0.8c0.6,0.9,0.9,2.8,0.5,3.8c-0.2,0.5-1.3,1.3-1.2,1.8c0.1,1,1.5,2,2.1,2.8
				c0.3,0.4,1,1.7,1.5,1.9c2.3,0.7,4,1.4,6.3,0.4c0.9-0.4,0.4-4,1.3-2.9c1.2,1.3,2.2,4.2,2.2,6c0,3.2-2.6,6.3-3.6,9.3
				c-1.8,6,3.2,12,9.5,11c2.1-0.4,2.8-1.6,4.3-2.5c0.1,0,1.6,1.3,1.9,1.4c1.8,0.8,4,1.2,5.6-0.2c0.3-0.3,2.3-1.9,1.9-2.4
				c0,0-2.1,0.4-2.4,0.3c-1.3-0.3-2.1-1.4-3-2.3c-0.3-0.2-0.8-1.3-0.7-1.7c0-0.1,1.7-0.8,1.9-1c0.8-0.5,1.1-1.6,1.4-2.4
				c1.9-5,1.6-11-3.6-13.9c-1-0.5-5-2.3-5-2.3s1.6-2.3,1.9-3.3c0.6-2.1,0.9-4.4,0.3-6.6c-0.8-2.8-3-5.2-5.8-5.9
				c-0.8-0.2-2.2,0.2-2.8-0.1c-0.2,0-1.2-4.7-1.4-5.3c-1-3.1-4.4-5.7-7.3-6.8c-5.7-2.3-15.2-1.3-20.5,1.6c-2.9,1.5-6.2,4.4-5,8.2
				c0.2,0.8,3.3,3.6,3.7,3.3c1.3-0.9,0.8-4.1,1.5-5.5c0.5-0.9,1.1-2.3,1.8-3C322.5,220.5,324.1,219.6,323.4,220.3L323.4,220.3z"/>
			<path id="Layer_00000014624941696912002460000008090676841659519646_" class="st5" d="M327.5,313c0,0-1.7,13.6-3,19.8
				c-0.9,4.5-1.3,9.2-2.4,13.6c-0.8,3.1-0.6,6.8-1.2,9.9c-0.5,2.5-0.4,6,0,8.6c0.8,4.3,1.5,8.6,2.6,12.9c1.1,4.2,2.9,16.9,2.9,16.9
				s6.4,1,9.4,2c3.6,1.2,7.1,2.7,11,3.2c6.4,1,12.8-2,19-1.1c4.6,0.6,5.3,2.6,10,3.1c2.7,0.4,8.1-0.8,10.8-1.1
				c2.8-0.4,8.8-2.8,8.8-2.8s-3-11.6-3.5-12.9c-4-10.5-7.6-18.7-15.8-29.5c-8.9-11.8-9.7-24.7-16.8-40.1c-0.8-1.8-5.8-9.5-5.8-9.5
				s-5.9,1.4-7.8,2C339.8,309.8,327.5,313,327.5,313z"/>
			<path id="Layer_00000053541999209491701690000014193853614767326121_" class="st5" d="M67.4,207.3c-0.7-1.7-3.2-2-4-3.7
				c-1.2-2.2,0.4-4.1,2.9-3.8c0.9,0.1,3.4,2.7,3.6,2.6c1.9-0.4,0.3-4.4,0.5-5.6c0.2-1.3,1.8-2.5,2.6-3.5c1.4-1.8,2.4-6.8,1.2-8.9
				c-0.3-0.6-1.2-0.9-1.7-1.3c-0.5-0.4-0.7-1.2-1.2-1.6c-1.5-1.1-5.1,0-6.8,0c-6.2,0-14.1-1.6-18.9,3.3c-2.5,2.4-1.7,5.6-2.2,8.6
				c-0.5,2-1.4,3.9-1.8,6.1c-0.8,5.6,5.1,10.6,9,13.5c2.1,1.5,6.1,3.6,8.8,2.9c1.8-0.5,3.2-3.1,3.5-4.8c0.1-0.5,0-1.7,0.3-2.2
				C63.8,208.1,67.9,208.5,67.4,207.3z"/>
			<path id="Layer_00000139989898098267842510000008062572427172620701_" class="st5" d="M92.7,218.5c0,0,1.1,2.8,1.2,3.5
				c0.5,3.5,2.3,7.9,1.7,11.4c-0.2,1.2-0.8,6.5-0.8,6.5l-6.8,2.3c0,0,0.4,6.4,0.4,8.7c0,7.2,0.3,14.5-0.6,21.6
				c-0.1,0.7-0.6,9.9-0.8,10c-0.9,0.6-1.9,1-2.9,1.6c-6.6,3.7-20,2.8-27.8,0.6c-1.1-0.3-8.3-1.6-8.5-2.6s1.1-2.4,1.1-3.4
				c0-1.3-1.4-0.9-1.8-3.1c-0.5-2.8,3.2-2.1,0.5-11.2c-0.3-1-3.3-1.6-4.5-2.1c-3.3-1.4-6.1-3.3-9-5.5c-0.8-0.7-4.1-3.8-4.1-3.8
				s1.9-3.9,2.6-5.4c1-2.5,1.8-4.9,3.1-7.3c1.7-3,2.9-6.4,5-9.3c4.5-6.3,12.9-8.4,20.1-9.9c2.5-0.5,5.1-0.3,7.6-0.6
				c4.6-0.7,9.4-0.4,14-1C84.7,219.3,92.7,218.5,92.7,218.5L92.7,218.5z"/>
			<path id="Layer_00000138556687061661833310000017993498023298280080_" class="st6" d="M88.1,286.2c1.8,2.9,3.3,6.1,4.9,9
				c5.7,9.7,8.8,21.5,9.2,32.6c0.6,16-9.4,29.4-18.4,41.6c-2.3,3-4.7,5.7-7.6,8.7c-0.2,0.2-1.9,1.9-1.9,1.7c0.5-2.5,0-3.8,0-4.1
				c-0.4-2.1-2.2-5.4-3.6-7c-2.6-3.1-6.8-7.3-11-8.1c-0.7-0.1-2.4,0.4-2.8,0.3c-0.7-0.3-1.1,0.8-1.5,2.2c-0.2,1.1,0.7,2.7,0.4,3.5
				c-0.5,1.7-6,5.1-7.4,6.6c-0.1,0-0.5,0.7-0.5,0.7c-0.3,0-1-0.6-2-1.2c-0.9-0.5-5.2-2.2-7.6-2.4c-1.7-0.1-2.6,0-4.3,0.3
				c-0.4,0-1.2,0.6-1.5,0.8c-0.3,0.1,0-0.5,0.1-0.8c0.7-1.9,1.7-3.9,2.7-5.7c1.8-3.6,4-7.7,5.7-11.3c3.9-8.3,8.1-16.3,8.1-25.7
				c-0.1-11.2-1.3-22.1-1.2-33.3c0-6.9,3.3-11.1,3.3-11.1s8.8,2.2,10.1,2.4c8.9,1.3,16.6,0.8,25-2.7
				C86.9,282.9,87.7,285.4,88.1,286.2z M72.8,323.5c-0.1,3.1-0.5,6.4-1.2,9.7c-0.2,1.3-0.4,3.1-0.6,3.9c-0.4,1.8-1.1,3.4-1.8,5.1
				l-0.2,0.6c0.2,0.2,0.4-0.4,0.6-0.7c0.9-1.1,1.6-2.4,2.4-3.7c0.6-0.8,5.3-7.3,5.3-7.8c-0.2-1.6-3.1-5.5-4-7.1
				c-0.1-0.1-0.3-0.5-0.5-0.9C72.8,322.9,72.8,323.3,72.8,323.5z"/>
			<path id="Layer_00000033340170837229973140000002540234355100250282_" class="st4" d="M31.2,379.2c2.7-3.3,5.4,4.1,6.7,5.4
				c0.7,0.8,2.6,0.9,3,1.5c1,1.7,1,4.2,1.8,5.9c0.9,1.8,1.3,3.9,2.2,5.7c1.4,2.7,4.3,7.4,2.7,10.5c-0.7,1.4-3,0.2-3.8-0.6
				c-2.7-2.4-4.3-5.6-6.7-8.1c-1.6-1.6-2.5-3.9-4.3-5.5c-2.7-2.4-6.7-4.2-6.4-8.4C26.6,383.4,29.9,380.8,31.2,379.2z"/>
			<path id="Layer_00000128445125653162601550000005464332608943615673_" class="st4" d="M268.6,117.7c2.7-8.4,6.8-20.8,10.8-25.6
				c2.2-2.7,4.1-4.6,6.9-6.8c2.6-2.1,6.6-2.2,6.5-4.8c-0.5-6.9,2.9-14.6,7.7-11.7c0.3,0.2,0.2,5.9,0.2,5.9s1,3.5,1.6,4.5
				c1.3,2.1,3.3,2.8,5.2,4.3c1,0.7,2,3.1,2,3.1l6.6-0.2c0,0,1.2-2.9,1.9-4.1c0.9-1.6,2.4-2.6,3.7-4.7c1.3-2.2,1.1-7.7,1.1-7.7
				c5.1-9.7,13.8,2.4,11.2,8.5c-0.5,1.2,11.5,5.2,15.1,12.8c2.6,5.6,4.6,10.3,6,16.2c1.3,5.4,4.4,14.5,3.7,20.9
				c-0.7,5.1-3,9.8-5.3,14.3c-1.2,2.3-4.8,6.7-4.8,6.7s-6.5-3.7-9.3-8.2c0-0.2-1.2,3.2-2,4.7c-1.4,2.6-2,5.5-5.6,6.9
				c-1.3,0.5-2.7,0.9-4,1C317.3,143,305,134,291.5,127c-1-2.4-2-4.8-2.8-7.3c-0.4-0.9-2.6-7.4-2.6-7.4s-3,5.3-3.8,7
				c-0.4,1-0.8,2-1.3,2.9C276.9,120.5,272.8,119,268.6,117.7L268.6,117.7z"/>
			<path id="Layer_00000089576329184532492490000007098622943279913661_" class="st4" d="M357.3,311.5c5.8-2.2,9.1-8.1,9.1-8.1
				s-3.8-8.1-4.6-9.7c-3.9-7.3-8.2-15-11.5-22.6c-0.3-0.8-2.8-0.1-5.5-4.6c-2.2-3.8-0.3-4.7-1-6.1c-0.9-1.7-2.5-3.2-3.3-5
				c-0.2-0.5-1.4-2.9-1.7-3.1c-1.7-0.8-10.5,1.2-11.5,2.7c-0.7,1,0.8,3.9,0.8,3.9s-3.2,3.5-4.3,5.1c-1.3,1.8-2,4.1-3.3,6
				c-1.4,2-4,3.8-5.8,5.4c-1.1,0.9-1.9,2.3-3.3,2.8c-1.7,0.5-4.3-0.7-5.8-1.5c-4.4-2.3-8.9-4.8-13.4-6.8c-1.8-0.8-6.2-2.8-6.2-2.8
				c-0.4,0.5-0.7,2.6-0.8,3.2c0,2.5-1,4.8-1.9,7c-0.3,0.8-1.4,3.1-1.2,3.9c0,0.5,7,4.5,7.9,5.1c0.2,0,2.3,1.2,2.2,1.4
				c-0.2,0.2-6.5-1.7-6.9-1.4c-0.4,0.5-0.5,2.5-0.5,3.1c0,1.3,0.1,9.3,0.9,10.1c1.8,1.7,5.9,2.6,8.3,3.3c5.5,1.4,13.9,5.9,19.5,4
				c2.2-0.8,5.6-4.7,7-6.5c0.4-0.6,2.4-3.3,2.4-3.3s0.6,3.5,0.7,4c0.4,2,1.7,12.2,1.7,12.2s5.2-1.4,6-1.4c7.1-0.2,14.9-4.6,22-5.8
				C353.6,306,356.4,311.8,357.3,311.5L357.3,311.5z"/>
			<path id="Layer_00000009582550618711788660000010530077659456276918_" class="st5" d="M370.2,405.9c-0.8-0.5-2.7,3.1-3.3,3.9
				c-2.7,4.3-3.6,9.4-5.6,14c-1.2,2.8,0-0.8-0.6-1.9c-0.3-0.5-2.2-1.9-2.7-1c-0.3,0.6-0.1,1.9-0.2,2.5c-0.3,2.7-1.4,5.4-1.4,8.1
				c0,0.8-0.3,2.6,0.5,3.1c2.2,1.4,6.1-4.3,7.1-5.7c2.3-3,2.8-7.3,4.4-10.6c1.1-2.1,5.2-5.6,5.4-7.4
				C374,408.8,371.8,406.9,370.2,405.9L370.2,405.9z"/>
			<path id="Layer_00000049200046508265794050000002724093298459512460_" class="st5" d="M349.8,417.6c-1-0.4-3.1,1.6-3.9,2.1
				c-3.5,2.4-6.5,5.8-9.2,9.1c-0.8,1-1.6,2.2-2.6,3.2c-0.4,0.4-1.2,1.5-1.2,1.5s0.7-1,0.8-1.5c0.2-0.7,0.4-5-1.2-4.7
				c-0.1,0-0.9,2.3-1,2.5c-1.6,2.3-2.7,5-4.1,7.4c-0.4,0.7-0.8,2,0.3,2.3c5.6,1.5,12.9-7.8,16.1-11.5c1.9-2,4.9-2.8,7-4.4
				C352.3,422.5,351.2,418.3,349.8,417.6L349.8,417.6z"/>
			<path id="Layer_00000096030999227630100110000012267969382770727312_" class="st7" d="M71.6,320.5c1.6,2,0.8,8.2,0,12.7
				c0.7-3.3,1.1-6.6,1.2-9.7c0-0.2,0-0.6,0-0.9C72.2,321.7,71.5,320.3,71.6,320.5z"/>
			<path id="Layer_00000078044126963595908770000005755802925577198493_" class="st5" d="M61.9,375.7c0.4-0.1,0.5,0.6,0.8,0.8
				c0.4,0.6,1.2,1,1.8,1.4c2.4,1.5,7.5,4.8,9.8,1.5c1.2-1.9-0.5-5.5-1.3-7.2c-2.2-4.2-10.5-13.8-16-11.2c-1.1,0.5-2.4,4.6-1.2,5.2
				c0.7,0.4,1.7-2.6,2.3-2.4c5.3,1.4,7.1,5.6,7.1,5.6s-2.2,3-2.8,4.2C62.2,374,61.7,375.9,61.9,375.7z"/>
			<path id="Layer_00000075133514159085950520000017406444437759562404_" class="st5" d="M40.7,382.9c0.5,1.1,7.2,2.4,8.8,2.6
				c0.5,0.1,2.2,0.4,2.5-0.2c0.4-0.8-3.4-4.9-3.9-5.9c-0.6-1.1-1.3-2.1-1-3.5c0-0.3,0.8-1.7,0.6-1.9c-2-2.4-8.6-4-11.6-3.6
				c-3.8,0.6-5.6,1.8-3.6,5.6c0,0.1,0.7-1.3,0.8-1.4c0.5-1,6.1-0.4,8.2,3.8C42.2,379.7,40,381.6,40.7,382.9z"/>
			<path id="Layer_00000108302323356985783670000010888849460299795081_" class="st4" d="M54.3,368.9c2.5-1.2,3.4,5.3,4.6,6.4
				c0.4,0.3,2.4,1.2,2.4,1.5c0.2,2.3-0.5,4.7-0.1,7.1c0.7,3.7,1.4,7.3,2,11c0.2,1.7,0.8,5.6-1.1,6.6c-1.2,0.7-2.2-0.8-2.9-1.6
				c-2.5-2.5-3.2-5.9-4.7-8.9c-0.7-1.4-0.9-3.1-1.6-4.5c-1.1-2.4-3-4.5-4.2-6.8c-0.7-1.4-2.2-2.9-1.6-4.7c0.7-2.1,3.6-3.3,5.4-4.3
				C53.2,370.2,53.6,369.3,54.3,368.9L54.3,368.9z"/>
			<path id="Layer_00000068642451128988271280000001899397316841932720_" class="st4" d="M322.8,55.7c0,0,2.7-12.7-11.1-13.7
				c-4.9-0.3-6.8,1.7-8.4,3.3c-3,3-2.8,7-2.8,9.5c0,2.1-0.4,4.3,0,7.6c0.1,0.4,7.2,6,11.2,5.3c3.8,0.1,7.4-1.5,10.8-5.2L322.8,55.7z
				"/>
			<path id="Layer_00000135655233214117008180000014840980799040824479_" class="st8" d="M323,61.7c0,0,2.9-1.5,3.1,1.7
				c0.1,3.2-3.1,6.1-3.1,6.1s0.6,8.1-4.8,12.8l-1.7,4.1l-6.8,0.3l-2.1-3.4c0,0-6.8-1.8-7.3-13.3c0,0-3.7-1.9-3.2-6.6
				c0.5-4.6,3.4-1.7,3.4-1.7s4.8,6.4,11.8,6.1C319.3,67.4,323,61.7,323,61.7z"/>
			<path id="Layer_00000101080752853820518840000013309308608843477949_" class="st8" d="M345.7,153.8c0,0-7.3,14.6-11.9,15.4
				c-4.5,0.8-12.5,0-11-1.9s6.4-0.2,8.3-1.2c1.9-1.1,3.7-6.4,2.1-7.1c-1.6-0.6-10.5,3.7-11.4,2.3c-0.9-1.5,7.4-5.1,10-7.5
				c2.6-2.3,5.5-8.3,5.5-8.3S343,152.9,345.7,153.8z"/>
			<path id="Layer_00000166652845846474918630000000872618878471681458_" class="st9" d="M318.9,65.9c0,0-0.7,2.5,3.9,2.7"/>
			<path id="Layer_00000066515319859699659160000006203104403669310346_" class="st9" d="M304.5,65.9c0,0,0.6,2.5-4,2.7"/>
			<path id="Layer_00000164494292585168950160000004113734671036349069_" class="st5" d="M322.8,68.6v-6.2l-4,3.5
				C318.8,65.9,318.9,68.5,322.8,68.6z"/>
			<path id="Layer_00000158725487023515902780000016113088576385465760_" class="st5" d="M300.5,68.6v-6.2l4,3.5
				C304.5,65.9,304.4,68.5,300.5,68.6z"/>
			<path id="Layer_00000041290721083433025320000008827157632930454670_" class="st10" d="M119.5,201.7c0,0-2.1,0.9-4.6,0.1
				c-1.4-0.4,1.3,3.4,2.2,8.1c0.6,3.7-0.7,8.7-0.7,8.7l4.2-1.8c0,0,1.3-5.1-2.4-4.7c-5.4,0.5-4.5-6.2-1.4-5.6
				c2.5,0.5,2.8,3.6,3.2-0.2"/>
			<path id="Layer_00000087379208285681115400000017657150605298691749_" class="st9" d="M323.6,219.8c-3.4,2-3.8,5.9-4.6,9.6
				c-0.3,1-0.5,2-0.9,3c-0.6,1.7-2.2,3-3.8,4"/>
			<path id="Layer_00000102516874946798725510000000980725035721952132_" class="st11" d="M270.8,385.2L251,297.8
				c2.4-1.3,4.8-2.4,6.9-4 M231.9,202.6c-1.6-0.2-3.2-0.3-4.9-0.3c-7.6,0-14.9,1.7-21.4,4.7 M368.2,242.8c0.3,3.4,0.4,6.8,0.4,10.3
				c0,14.6-2.3,28.7-6.4,41.9 M356.5,310.4c-15.9,35.6-45.9,63.5-83,76.4 M338.2,165.5c16.1,20.4,26.7,45.3,29.6,72.5 M118,162.7
				c26-31.3,65.2-51.2,109-51.2c40,0,76.1,16.6,101.9,43.3 M201.4,209.3c-15.1,8.8-25.2,25.1-25.2,43.8c0,18.6,10.1,35,25.2,43.8"/>
			<path id="Layer_00000162345900319459884960000003436248415308167069_" class="st9" d="M314.3,236.4c0.8,0.8,1.7,1.9,1.9,2.7
				c0.2,0.8,0.3,1.6,0.4,2.3c0.6,4.5,0.6,8.2,8.6,7.2"/>
			<path id="Layer_00000166641945642743630330000011537687873926031772_" class="st9" d="M325.2,248.6L328,259"/>
			<path id="Layer_00000019648994428158161820000010509249098988407995_" class="st9" d="M324.1,218.1c-0.2,0.5-0.4,1.1-0.5,1.7
				c-2,7.5,1.6,14.3,7.8,18.4"/>
			<path id="Layer_00000094597725316752551440000011248445089687059588_" class="st9" d="M331.4,238.2c2.9-3.6,5.5,0.2,3.8,3.1
				c-1.4,2.2-2.4,2.1-4.4,2.2"/>
			<path id="Layer_00000103956563181278971860000001213001121840693168_" class="st9" d="M319,229.4c-2-0.7-4.1-2.6-4.1-4.1
				c-0.7-10.6,20.5-12.2,27-8.9c6.6,3.4,7.6,7.9,7.2,11.5"/>
			<path id="Layer_00000023988189874782995710000006398971440796231611_" class="st9" d="M347.5,227.8c0.5,0,1.1,0,1.6,0.1
				c4.4,0.2,7.6,1.6,8.9,5.3c1.4,3.9,0.1,7.8-2.3,10.9"/>
			<path id="Layer_00000079486458087994384310000000916644261425840052_" class="st9" d="M355.7,244.1c4.5,1,8.4,4,9.2,6.3
				c2,5.6,0.6,10.9-3.8,13.8"/>
			<path id="Layer_00000181794652547055455930000017912203005773183891_" class="st9" d="M348.4,234.4c0.2,2.1,0.2,4.7-2.4,8.1
				c-1.4,1.8-0.1,4.6-2.5,5.6c-2,0.8-3.8-0.3-5.6-0.9"/>
			<path id="Layer_00000129893177169554218960000011886442824085501347_" class="st9" d="M345.3,244.4c3,2.7,2.5,5.6,2.2,7.4
				c-0.5,3-2.5,5.8-3.4,8.6c-0.7,2.3-0.8,4.5,1,6.9c1.8,2.2,3.5,3.3,5.2,3.8c4.1,1,7.5-2.3,8-2.3c0.3,0,4.6,5,9.4-1.4
				c0,0-4,1.2-6.6-3.2"/>
			<path id="Layer_00000028306301480169608110000003562864096819226033_" class="st9" d="M330,257.4c-0.2,0.3-0.9,0.7-2,1.6
				c-1.2,1-2.9,2.7-4.6,5.7c-0.6,1.1-1.8,3.2-3.2,5.7c-3.3,5.9-8,14.4-11.3,20"/>
			<path id="Layer_00000151525953641514137340000011652792614499822976_" class="st9" d="M309.5,290.9c-3-2.4-2.1-0.7-4.3-0.8
				c-1.3-0.1-17.6-3.7-24.4-4.8c0,0-6.9-7.5-9.4-10.5"/>
			<path id="Layer_00000082366577249966666590000009831873211855807650_" class="st9" d="M276.1,280.1c-2.7,2.5-10.8,1.4-13.1,1.2"
				/>
			<path id="Layer_00000117668934034054664460000009345876761249154239_" class="st9" d="M269.8,285.1c-5.1,0-5.8-0.4-10.9-1.6"/>
			<path id="Layer_00000123412501410059557250000002370137170145529751_" class="st9" d="M256.4,286.2c5.1,2.1,6.8,1.9,12,2.2"/>
			<path id="Layer_00000046314852056384412550000017391027611968943255_" class="st9" d="M259.6,291.7c0.7,0,1.5,0,2.2,0
				c3-0.2,10.3-0.6,13.3-0.2c3.2,0.4,6.4,1.4,9.4,2.6"/>
			<path id="Layer_00000168824959053033173060000005737704240853387938_" class="st9" d="M285.4,286.1c-0.8,2.6-1.1,5.3-0.9,8
				c0.1,1.9,0.4,3.8,0.8,5.6"/>
			<path id="Layer_00000106827861566913433740000012158137147373282729_" class="st9" d="M323.2,296.8l2,16.5"/>
			<path id="Layer_00000014620041330273453500000015263921694779413935_" class="st9" d="M350.3,271.1l16.3,32.7"/>
			<path id="Layer_00000047759498029405284250000009393255959647213228_" class="st9" d="M366.6,303.8c-0.5,0.7-1.2,1.4-1.9,2.1
				c-2.1,2.2-4.8,4.2-7.5,5.8"/>
			<path id="Layer_00000133516965962432969840000009717845832037854121_" class="st9" d="M325.2,313.3c0.7-0.2,1.5-0.4,2.4-0.6
				c3-0.6,6.5-1.4,8.7-2c5.6-1.5,11.4-3.5,17.2-4.6c1.5-0.3,3-0.6,4.5-0.8c2.3-0.2,4.7-0.2,6.7,0.6"/>
			<path id="Layer_00000030445802139082640980000003569629751217086113_" class="st9" d="M338.5,247.5c0,1.5,0.1,2.8,0.6,4.6
				c0,0,0,0,0,0.1c0.8,3.1,3.1,5.6,5,8.2"/>
			<path id="Layer_00000038377684867837919360000010857735934230868915_" class="st9" d="M339.1,252.1c-4.1-0.4-8.8,1.1-12.2,2.8"/>
			<path id="Layer_00000109745695866033424470000016303071231652057499_" class="st9" d="M320.2,270.4c-1.6,1.5-3.2,2.9-4.6,4.3
				c-1,1-2.9,3.2-4.5,3.4c-2.5,0.2-6.1-1.9-8.2-2.8c-7.4-3.4-14.6-6.6-21.5-10.9"/>
			<path id="Layer_00000155831326382240231120000007456201122376654267_" class="st12" d="M320.8,232.5c0-0.9,0.3-1.6,0.6-1.6
				c0.3,0,0.5,0.7,0.5,1.6c0,0.9-0.2,1.6-0.5,1.6S320.8,233.4,320.8,232.5z"/>
			<path id="Layer_00000174577693224973366330000017555675872660957627_" class="st9" d="M322.1,241.4c-1.8,1.1-4.2,0.5-5.5,0"/>
			<path id="Layer_00000136402422660349007810000012286250913244607900_" class="st9" d="M327.6,312.7c-1.7,11.2-6,34.4-7,45.9
				c-0.6,8,2,15.4,3.5,23.1c0.9,4.5,1.4,8.9,1.9,13.4"/>
			<path id="Layer_00000168114896035207723040000013965469630484307119_" class="st9" d="M353.5,306.1c1.4,1.9,2.6,3.7,3.7,5.6
				c8,13.4,8.4,24.1,12.5,33c4.6,10,12,18,17.1,27.7c4.3,8.2,6.4,16.7,8.6,25.6"/>
			<path id="Layer_00000148631961541103592670000008653457879879566228_" class="st9" d="M395.4,398c-5.7,2-16.1,4.8-20.9,3.8
				c-3.6-0.8-7-2.9-10.6-3.5c-0.3-0.1-0.6-0.1-0.9-0.1c-3.4-0.4-6.7,0.9-10,1.7c-1.9,0.4-3.7,0.7-5.7,0.4c-0.6-0.1-1.2-0.2-1.9-0.3
				c-3.6-0.8-7.2-2.5-10.8-3.4c-0.3-0.1-0.6-0.2-0.9-0.3c-2.5-0.6-5.1-1-7.7-1.2"/>
			<path id="Layer_00000067939965323092883120000001503493311084682663_" class="st9" d="M333.7,396.3c2.3,8.5,3.9,17.1,1,25.6
				c-1.4,4.4-3.8,8.6-6,12.6c-0.5,0.8-2.4,3.7-1.9,4.7c0.8,1.6,5.9-1,6.8-1.5c4.4-3,7.4-7.6,11.6-10.7c1.6-1.2,5-2.4,6-3.9
				c1.7-2.4-3.3-8.1-4.2-10.4c-1.6-4.2-1.6-8.4-1.6-12.7"/>
			<path id="Layer_00000164510702756105981310000017467231308502998451_" class="st9" d="M353,399.9c2.8,4.8,4.7,10,5,15.8
				c0.2,4.5-0.5,9.4-1.2,13.9c-0.1,0.9-0.8,4.2,0,5c1.4,1.3,5.2-3,5.8-3.8c3-4.4,4.2-9.7,7-14.2c1.1-1.6,3.8-3.9,4.2-5.8
				c0.7-2.8-6-6.3-7.6-8.2c-1.3-1.4-2.3-2.9-3.2-4.4"/>
			<path id="Layer_00000000906366676557055230000005740756253659290257_" class="st13" d="M261.4,291.7c-6.6,3.4-14.1,5.4-22,5.4
				c-26.3,0-47.6-21.3-47.6-47.6c0-26.2,21.3-47.5,47.6-47.5c26.2,0,47.5,21.3,47.5,47.5c0,11.6-4.1,22.2-11,30.4"/>
			<path id="Layer_00000001655304808121405560000010445322123893370501_" class="st14" d="M227.6,231.7c0.3-0.1,0.6-0.2,0.9-0.3
				L227.6,231.7z"/>
			<path id="Layer_00000037693591267737667680000010364012205188130222_" class="st14" d="M247,235.6l14.6-3.9l-2.3-8.5l-30.8,8.2
				C235.2,229.6,242.1,231.4,247,235.6L247,235.6z"/>
			<path id="Layer_00000058578977827474365130000016390988402630964619_" class="st15" d="M254.1,250.2l11.6-3.1l-2.3-8.6l-11.6,3.1
				c0.7,1.3,1.2,2.7,1.6,4.2S254,248.7,254.1,250.2L254.1,250.2z"/>
			<path id="Layer_00000024706422646725583650000008081654997364626568_" class="st16" d="M238.1,270.9l0.9-0.2
				C238.7,270.8,238.4,270.8,238.1,270.9z"/>
			<path id="Layer_00000023246854289484444380000015425455990127801251_" class="st16" d="M239,270.7l30.8-8.3l-2.3-8.6l-14.6,3.9
				C250.8,263.9,245.8,268.9,239,270.7z"/>
			<path id="Layer_00000103236172758773901400000004852930157615676056_" class="st17" d="M253.4,245.8c0.4,1.5,0.6,2.9,0.7,4.4
				c0.1,2.6-0.3,5.2-1.2,7.5c-2.1,6.2-7.1,11.2-13.9,13c-0.3,0.1-0.6,0.1-0.9,0.2c-10.5,2.3-21.1-4.1-23.9-14.6
				c-2.9-10.5,3.1-21.4,13.4-24.6c0.3-0.1,0.6-0.2,0.9-0.3c6.7-1.8,13.6,0,18.5,4.2c1.9,1.7,3.6,3.7,4.8,6
				C252.5,242.9,253,244.3,253.4,245.8L253.4,245.8z M245.1,252.6c0.2-1.5,0.1-3-0.3-4.5c-0.4-1.5-1.1-2.9-2-4.1
				c-2.7-3.5-7.4-5.2-12-4c-6.1,1.6-9.7,7.9-8.1,14c1.7,6.1,7.9,9.7,14,8.1C241.3,260.8,244.5,257,245.1,252.6L245.1,252.6z"/>
			<path id="Layer_00000126305436097022462780000000657846766686521728_" class="st5" d="M266.1,291.4c-8.2,6.5-18.4,10.3-29.6,10.3
				c-26.3,0-47.6-21.3-47.6-47.5c0-11.1,3.8-21.3,10.2-29.4c-4.4,7.2-6.9,15.7-6.9,24.7c0,26.3,21.3,47.6,47.5,47.6
				c8,0,15.5-2,22.1-5.4C263.2,291.6,264.6,291.5,266.1,291.4L266.1,291.4z"/>
			<path id="Layer_00000054983680445717920560000001305567259971455387_" class="st9" d="M73.3,192.4c3.6,9.3,7.1,23.5-4.2,23.4"/>
			<path id="Layer_00000126283274947501330350000008158106324651471253_" class="st9" d="M69.1,214.7l-0.2,5.7"/>
			<path id="Layer_00000122709207465001109930000000542446817111872940_" class="st9" d="M74,183.8c1.3,2.5,0.7,5.8-0.7,8.6
				c-0.8,1.5-1.8,2.9-2.9,3.9"/>
			<path id="Layer_00000080185986869560867020000010232560913838743224_" class="st9" d="M70.3,194.9l0.6,6.6l-1.2,1.1
				c0,0-4.3-4.4-6.4-1.8c-2.1,2.5,2.5,5.9,4.4,6.5l-4.5,1.7c0,0-0.2,8.8-7.1,6.7s-19.7-12-12.9-22.2c0,0-2-9,6.7-11.4
				c8.8-2.3,14.6,0,17.6-0.9c4-1.2,4.5,1.6,4.5,1.6l2,1"/>
			<path id="Layer_00000025426932386711678680000006442160866256874668_" class="st9" d="M56.4,215.8c-0.4,2.2-1.5,4.7-2.4,6.8"/>
			<path id="Layer_00000140718158264140353340000007320335588411062956_" class="st9" d="M117.8,189.2c1.5-3.2,2.5-5.7,2-8.9
				c-0.2-1.5-1.5-0.3-2.1-2.8c-0.7-2.5-2.4-0.2-3.2-2.6c-0.9-2.5-4.5-0.8-4.6,1.4s-2.9,2.1-3.6,5.1c-0.6,3.1,3.5,6.8,3.5,6.8
				l-1.4,28.6c-5,0.9-10.3,1.5-15.7,1.9c-8,0.7-16.2,1-23.8,1.7c-0.6,0.1-1.2,0.1-1.8,0.2c-4.7,0.4-9,0.8-13.1,2
				c-4.6,1.2-8.8,3.4-12.6,7.6c-3,3.3-8.3,15.8-11.4,22.9"/>
			<path id="Layer_00000068653641061431601610000011153836057069279417_" class="st9" d="M92.7,218.7c2.2,5.3,2.9,10.7,2.7,16.2
				c-0.1,1.7-0.2,3.3-0.5,5"/>
			<path id="Layer_00000141429649955710082760000010814873783201411994_" class="st9" d="M30,253.1c1.6,1.7,3.4,3.3,5.4,4.7
				c3.7,2.7,8.1,4.8,12.2,6.4"/>
			<path id="Layer_00000122713847534503651330000003179026245646113466_" class="st9" d="M94.9,239.9c-2.3,0.8-4.6,1.5-6.9,2.2
				c-1.6,0.5-3.2,0.8-4.8,1.1"/>
			<path id="Layer_00000158717913035460898000000012942956779586137019_" class="st9" d="M88,242.1c0.8,10.3,0.2,30-0.8,38.1"/>
			<path id="Layer_00000008831747329626802400000000655487002620367744_" class="st9" d="M44,250c0.9,4,1.9,8.1,2.9,12.1
				c0.2,0.7,0.4,1.4,0.7,2.1c0.6,2.2,1.3,4.4,1.3,6.6c0.1,1.9-1.7,3.1-1.8,4.8c-0.1,1.1,1.4,2.3,1.7,3.4c0.3,0.8-1,2.1-1.1,3
				c0,0,0,0,0,0.1"/>
			<path id="Layer_00000000195482810190344110000007681355600354392202_" class="st9" d="M86.5,282.8c-8,4.9-22.2,5.5-35.4,0.7
				c-1.1-0.5-2.3-0.9-3.4-1.4"/>
			<path id="Layer_00000159469529323016657560000000758819229604697785_" class="st9" d="M35.4,257.8c-3.2,8.2-7,17.5,3.8,29.1"/>
			<path id="Layer_00000083786437920873764440000011847554305884709285_" class="st9" d="M95.4,234.9c8.6-2,22.1-6.2,24.5-11.6
				c1.9-4.4-0.9-27.1-2.1-34.1"/>
			<path id="Layer_00000133502931525253192390000012400684657514629287_" class="st9" d="M84.4,278.8c3.6,7.2,8,14,10.9,21.6
				c1.8,4.9,4.1,10,5.2,15.1c1,5,2.3,10.9,1.8,16.1c-1.2,13.2-10.1,26.1-17.7,36.6c-2.9,4-6.6,8.4-10.7,12.1
				c-0.1,0.1-0.3,0.3-0.4,0.4"/>
			<path id="Layer_00000168093688807974952300000017508434319281443487_" class="st9" d="M62.1,302.9l15.6,28"/>
			<path id="Layer_00000052097475446146830290000000164988633808938174_" class="st9" d="M80.6,326.6l-24.8,35.7"/>
			<path id="Layer_00000086655912826906115880000014272301536260614847_" class="st9" d="M51.1,283.5c-0.4,1.1-1.1,2.3-1.6,3.4
				c-0.2,0.3-0.4,0.7-0.5,1c-0.8,2.1-1,4.4-1.1,6.7c-0.9,13.3,2.7,26.7,0.6,40c-1.4,8.5-5.8,15.4-9.5,22.9c-2.3,4.8-4.6,9.7-7,14.5
				c-0.1,0.1-0.1,0.3-0.2,0.4"/>
			<path id="Layer_00000165923935681957259210000008013591814821860254_" class="st9" d="M55.9,366.6c-0.5-1.7-0.6-3.2-0.1-4.2
				c0.1-0.4,0.3-0.7,0.6-1c0,0,0,0,0,0c0.8-0.7,2-0.9,3.4-0.7c2.4,0.5,5.5,2.3,8.3,5.1c0.4,0.4,0.8,0.8,1.1,1.2
				c4.8,5.3,6.8,11.3,4.5,13.5c-2.1,2-7.4-0.1-12-4.8"/>
			<path id="Layer_00000090987744024962022750000011627376259618438074_" class="st9" d="M68.2,365.8c-2.6,3-5.8,6.7-6.3,9.1
				c-0.1,0.2-0.1,0.4-0.2,0.6c-1,6,0.8,12.6,1.4,18.6c0.2,2.3,1.1,5.9-1.1,7.4c-1.9,1.3-4.5-3.6-5.1-4.7c-1.9-3.6-2.9-7.8-4.7-11.5
				c-0.5-0.9-1-1.7-1.5-2.6c-1.4-1.9-4.1-4.5-3.6-7.1c0.2-0.6,0.5-1.2,0.9-1.8c1.2-1.6,3.4-2.7,4.8-3.9c1.1-1,2.1-2.1,3.1-3.4
				c1.4-1.8,2.7-3.9,3.9-5.8"/>
			<path id="Layer_00000182521564198567974700000002760882844674243988_" class="st9" d="M44.5,372.1c-1.8,3.6-4,8-3.9,10.5
				c0,0.1,0,0.1,0,0.2c0.3,6.3,3.9,12.4,5.9,18.1c0.8,2.2,2.6,5.5,0.8,7.5c-1.5,1.7-5.2-2.4-6.1-3.3c-3.4-3.8-5.6-8.7-9.5-12.1
				c-1.8-1.5-5.1-3.3-5.2-6c-0.2-2.8,2.7-4.9,4.1-7c0.7-1.1,1.4-2.4,2-3.7c0.8-1.9,1.5-4,2.2-5.9"/>
			<path id="Layer_00000042009773482617077470000014779347557900304771_" class="st9" d="M72.8,322.2c-0.2,6.6-1.3,13.4-3.4,19.6
				c-0.1,0.4-0.3,1-0.6,1.7"/>
			<path id="Layer_00000139998683113706424770000011300568461462302337_" class="st9" d="M322.8,61.6c2.9-2.4,3.8,1.5,3.3,3.7
				s-1.6,3.6-3.3,3.9"/>
			<path id="Layer_00000038374333466571496110000000668021793705266569_" class="st9" d="M300.5,61.6c-2.9-2.4-3.9,1.5-3.4,3.7
				s1.7,3.6,3.4,3.9"/>
			<path id="Layer_00000022559636101513547080000003401142094088144565_" class="st9" d="M315.5,72.9c0-1,0.3-1.7,0.7-1.7
				c0.4,0,0.7,0.7,0.7,1.7c0,0.9-0.3,1.6-0.7,1.6C315.8,74.5,315.5,73.8,315.5,72.9z"/>
			<path id="Layer_00000080192166555138764560000012403343620712069525_" class="st9" d="M306.7,72.9c0-1,0.4-1.7,0.7-1.7
				c0.4,0,0.7,0.7,0.7,1.7c0,0.9-0.3,1.6-0.7,1.6C307.1,74.5,306.7,73.8,306.7,72.9z"/>
			<path id="Layer_00000080180458287073976990000001609263057921017019_" class="st9" d="M315.3,79.1c0,0-3.1,2.3-7-0.2"/>
			<path id="Layer_00000056400476509827461650000013288622679383159685_" class="st9" d="M334.5,78.9c4.8,2.9,9.2,5.8,11.3,8
				c6.2,6.3,8.7,17.6,10.6,25.9c1.4,6.4,3.6,14,1.5,20.4c-2.1,6.3-4.9,10.3-9.1,16.2c-0.9,1.2-1.8,2.5-2.8,3.8
				c-0.5,0.7-0.9,1.4-1.4,2.1c0,0-4.9,10.5-9.8,13.3c-4.8,2.7-13,0.3-12.9-1.3c0-1.6,11.1,2.2,12-5.3c0.8-7.4-8.4-0.3-10.5-0.5
				c-1.5-0.2-2.8-1.1-1.2-2.6c1.6-1.4,11.6-6.3,13.2-9.1c0.4-0.8,1.2-2.2,2-4c0.7-1.3,1.4-2.9,2.2-4.6c1.8-4.3,3.6-9.1,3.7-12.1
				c0.1-5.6-5.2-18.7-5.2-18.7"/>
			<path id="Layer_00000145758636333282240460000000566684325452408726_" class="st9" d="M339.6,141.2c2.1,2.9,5.3,6,9.2,8.2"/>
			<path id="Layer_00000181803419723766186470000004979261482960156827_" class="st9" d="M337.4,145.8c2.5,3.3,5.7,5.8,8.6,7.4"/>
			<path id="Layer_00000170238028706212744010000005015454418052786313_" class="st9" d="M292.9,80.4c-4.9,3.8-10.1,8.1-12.8,10.8
				c-2.7,2.7-7.8,16.1-11.5,26.5"/>
			<path id="Layer_00000158732743570964634340000015890622041299650741_" class="st9" d="M289.1,106.6l-8.3,15.5"/>
			<path id="Layer_00000116235117421426945310000010107103324994312593_" class="st9" d="M286.1,112.3l5.8,15"/>
			<path id="Layer_00000132791629577113154400000012133775818710701487_" class="st9" d="M318.2,81.8l-4.5,10.7"/>
			<path id="Layer_00000134931350495562459020000010134227158643946381_" class="st9" d="M313.1,92.5l-5.8-9.5"/>
			<path id="Layer_00000067196116895288002040000000929386554605945271_" class="st9" d="M316.1,86.6h-6.6"/>
			<path id="Layer_00000039841760387428217750000011883950756802083488_" class="st9" d="M334.5,279.2c-1.9,2.9-6.6,11-11.3,17.6
				c-3.7,5.2-7.3,9.5-9.7,10c-6.4,1.3-20.1-4.5-28.2-7.1"/>
			<path id="Layer_00000071550796945524982380000005589304507111924381_" class="st9" d="M52.2,385.3c-2.8,0.6-7-0.2-11.3-2.3
				c-0.1-0.1-0.2-0.1-0.3-0.2 M32.6,376.3c-0.9-1.4-1.3-2.8-0.8-3.9c0-0.1,0-0.1,0.1-0.2c0-0.1,0-0.1,0.1-0.2
				c0.5-0.9,1.5-1.4,2.8-1.6c2.4-0.5,6,0.1,9.7,1.7c0.5,0.2,0.9,0.4,1.4,0.6c0.7,0.4,1.4,0.8,2.1,1.1"/>
			<path id="Layer_00000137836546274616441720000001404194268814408891_" class="st9" d="M311.7,47.8c6.1,0,11.1,5,11.1,11.2v13.8
				c0,6.1-5,11.1-11.1,11.1c-6.2,0-11.2-5-11.2-11.1V59C300.5,52.8,305.5,47.8,311.7,47.8z"/>
			<path id="Layer_00000143590581542966181450000003710285766246131366_" class="st18" d="M300.5,63.4V51.6c0-5.3,5-9.6,11.2-9.6
				c6.1,0,11.1,4.3,11.1,9.6v11.8"/>
			<path id="Layer_00000096754216410406410020000004478714622763324073_" class="st19" d="M273.1,384.7l-4.7,1l1,4.7l4.7-1
				L273.1,384.7z"/>
			<path id="Layer_00000152948220455547217650000005532026249523616414_" class="st19" d="M119.8,164.2l-3.7-3l-3,3.7l3.7,3
				L119.8,164.2z"/>
			<path id="Layer_00000168837415405064369350000007463299039739578245_" class="st19" d="M370.2,237.8l-4.8,0.4l0.5,4.8l4.7-0.5
				L370.2,237.8z"/>
			<path id="Layer_00000021801441670961807500000001927561758965458846_" class="st19" d="M206.7,296.9l-4.3-2.1l-2.1,4.2l4.2,2.2
				L206.7,296.9z"/>
			<path id="Layer_00000006707621810094333100000006314874450569280899_" class="st19" d="M204.6,204.9l-4.3,2.1l2.1,4.3l4.3-2.1
				L204.6,204.9z"/>
			<path id="Layer_00000057140156811098278280000013348510609637950391_" class="st9" d="M322.8,61.7c-2.4,3.7-6.5,6.1-11.1,6.1
				c-4.7,0-8.8-2.4-11.2-6.1"/>
			<path id="Layer_00000092448337422492848580000006754652706124911254_" class="st9" d="M307.8,61v3.3c1.2,0.4,2.5,0.6,3.9,0.6
				c1.3,0,2.6-0.2,3.9-0.6V61c-1.3,0.4-2.6,0.6-3.9,0.6C310.3,61.6,309,61.4,307.8,61z"/>
			<path id="Layer_00000032616065589647907430000016305521389152201642_" class="st9" d="M326.2,64.8c5.1,2.8,8.4,7.3,8.4,12.3
				c0,8.5-9.4,15.4-21.1,15.4c-11.6,0-21.1-6.9-21.1-15.4c0-3.9,2-7.5,5.3-10.2"/>
			<path id="Layer_00000181808216278611462660000005257885818145980829_" class="st9" d="M318.2,92.5c0,0-0.7,6.6,1.6,10.2"/>
			<path id="Layer_00000100357430724968111670000012292663446239341186_" class="st9" d="M309.5,92.5c0,0,2,8.3-0.5,12.1"/>
			<path id="Layer_00000160871599070154198390000014669106090400660127_" class="st20" d="M329.8,244.8c0.8,0,1.5-0.7,1.5-1.5
				s-0.7-1.5-1.5-1.5c-0.9,0-1.5,0.7-1.5,1.5S328.9,244.8,329.8,244.8z"/>
			<path id="Layer_00000026871445261149437990000017089889888332087984_" class="st4" d="M368.6,219.6c9,0,16.4-7.4,16.4-16.5
				c0-9-7.4-16.4-16.4-16.4c-9.1,0-16.5,7.4-16.5,16.4C352.1,212.2,359.5,219.6,368.6,219.6z"/>
			<path id="Layer_00000182521428539927204390000016431012153271580829_" class="st4" d="M121.1,277.2c5.4,0,9.7-4.3,9.7-9.6
				c0-5.3-4.3-9.7-9.7-9.7c-5.3,0-9.6,4.4-9.6,9.7C111.5,272.9,115.8,277.2,121.1,277.2z"/>
			<path id="Layer_00000158736241602504413900000005739935454135546800_" class="st4" d="M124.4,138.3c2.8,0,5.1-2.3,5.1-5.1
				c0-2.9-2.3-5.2-5.1-5.2c-2.8,0-5.1,2.3-5.1,5.2C119.3,136,121.6,138.3,124.4,138.3z"/>
			<path id="Layer_00000106829014536696252490000011123187455217517452_" class="st21" d="M302.5,186.7c8.4,0,15.1-6.8,15.1-15.2
				c0-8.3-6.7-15.1-15.1-15.1c-8.3,0-15.1,6.8-15.1,15.1C287.4,179.9,294.2,186.7,302.5,186.7z"/>
			<path id="Layer_00000133527235772368685980000001110450076079406749_" class="st4" d="M216.5,140c10.9,0,19.8-8.9,19.8-19.8
				c0-11-8.9-19.9-19.8-19.9c-10.9,0-19.8,8.9-19.8,19.9C196.7,131.1,205.6,140,216.5,140z"/>
			<path id="Layer_00000150065007722458955330000017843770778448510362_" class="st22" d="M98.3,365.9c4.9,0,8.8-3.9,8.8-8.8
				c0-4.8-3.9-8.8-8.8-8.8c-4.8,0-8.8,4-8.8,8.8C89.5,362,93.5,365.9,98.3,365.9z"/>
			<path id="Layer_00000043453824886337372210000004517886351417424783_" class="st4" d="M146.2,341.2c8.9,0,16.1-7.2,16.1-16.1
				s-7.2-16.1-16.1-16.1c-8.9,0-16.1,7.2-16.1,16.1S137.3,341.2,146.2,341.2z"/>
			<path id="Layer_00000071555908242988252660000008159813811937319854_" class="st21" d="M162.3,196.5c12.8,0,23.2-10.4,23.2-23.2
				s-10.4-23.1-23.2-23.1s-23.2,10.3-23.2,23.1S149.5,196.5,162.3,196.5z"/>
			<path id="Layer_00000083799612139641472810000016087991128396969396_" class="st4" d="M270.2,368.8c12.8,0,23.2-10.4,23.2-23.2
				c0-12.8-10.4-23.2-23.2-23.2c-12.8,0-23.2,10.4-23.2,23.2C247,358.4,257.4,368.8,270.2,368.8z"/>
			<path id="Layer_00000073700599603122263810000010978544228325033886_" class="st9" d="M300.2,172.3l-1,0.3
				c-0.9,0.3-1.9,0.2-2.8-0.3c-1.7-1-2.3-3.3-1.3-5.1c1-1.7,3.3-2.3,5-1.3c0.8,0.5,1.5,1.3,1.7,2.2l1.4,6.9c0.3,0.9,0.9,1.7,1.7,2.2
				c1.8,1,4.1,0.4,5.1-1.4c1-1.7,0.4-4-1.4-5c-0.8-0.5-1.8-0.6-2.8-0.4l-0.9,0.4"/>
			<path id="Layer_00000072249994910090821120000017695806651768545451_" class="st23" d="M368.5,192.6c-0.5,1-1.1,2-1.6,3
				c-1.5,3.3-3.4,7.2-4.5,10.7c-0.8,2.2-1.2,3.7-1,6c0.1,1,1.1,1.4,2,1.4c2,0,3.1-2,5.2-2s3.2,2,5.2,2c0.9,0,1.9-0.4,2-1.4
				c0.2-2.3-0.3-3.8-1-6c-1.1-3.5-3-7.4-4.5-10.7C369.8,194.6,369,193.6,368.5,192.6L368.5,192.6z"/>
			<path id="Layer_00000161598325132805041640000016012926921554789820_" class="st5" d="M373.2,202l2.2,1.1l-0.9,2.5L373.2,202z"/>
			<path id="Layer_00000134931608132410050470000010135364408776495539_" class="st5" d="M363.9,202l-2.2,1.1l0.9,2.5L363.9,202z"/>
			<path id="Layer_00000159450474558690559320000000708498078494797227_" class="st24" d="M368.5,204.3c1.4,0,2.6-0.9,2.6-2
				s-1.2-1.9-2.6-1.9c-1.3,0-2.5,0.8-2.5,1.9C366,203.4,367.2,204.3,368.5,204.3z"/>
			<path id="Layer_00000163068657032986352950000008444251974075219112_" class="st5" d="M372.8,201.3h-1.9c0,0-1.1-1-2.4-0.9
				c-1.2,0.1-1.8,0.5-2.1,0.9c-0.3,0.3-2.1,0-2.1,0l4.2-8.7L372.8,201.3z"/>
			<path id="Layer_00000077295740947387704400000004911491614560201365_" class="st19" d="M374.9,204c0,0,2.2,0.8,2.2,1.6
				c0.1,0.8-1,1.9-1,1.9"/>
			<path id="Layer_00000096780838156620738860000008936953710533781644_" class="st19" d="M362.2,204c0,0-2.1,0.8-2.2,1.6
				s1,1.9,1,1.9"/>
			<path id="Layer_00000124854547564499994850000009342651654712659643_" class="st5" d="M376.4,207c0,0,1.1,0.7,0.6,1.7
				c-0.6,1,0.4,0.3,0.3,0.9c0,0.6-1.2,1-1.5,0.5c-0.2-0.5-0.9-3.1-0.9-3.1S375.9,206.4,376.4,207L376.4,207z"/>
			<path id="Layer_00000036932799945422003980000013293801958465151885_" class="st5" d="M360.7,207c0,0-1.1,0.7-0.5,1.7
				c0.5,1-0.4,0.3-0.4,0.9c0.1,0.6,1.2,1,1.5,0.5s0.9-3.1,0.9-3.1S361.2,206.4,360.7,207L360.7,207z"/>
			<path id="Layer_00000149373697945930507540000007862781745119566222_" class="st9" d="M212.4,119c0-0.9-0.8-1.7-1.8-1.7H209
				c-1,0-1.8,0.8-1.8,1.7v2.3c0,0.9,0.8,1.7,1.8,1.7h1.6c1,0,1.8-0.8,1.8-1.7V119z"/>
			<path id="Layer_00000064313030207250345210000002005021168378407339_" class="st9" d="M225.8,112.9c0-1-0.8-1.8-1.8-1.8h-2.4
				c-1,0-1.7,0.8-1.7,1.8v3c0,1,0.7,1.8,1.7,1.8h2.4c1,0,1.8-0.8,1.8-1.8V112.9z"/>
			<path id="Layer_00000028309021535114838390000006171867804459368848_" class="st9" d="M225.8,124.4c0-1-0.8-1.8-1.8-1.8h-2.4
				c-1,0-1.7,0.8-1.7,1.8v3c0,1,0.7,1.8,1.7,1.8h2.4c1,0,1.8-0.8,1.8-1.8V124.4z"/>
			<path id="Layer_00000158716825042748830450000017872045694370664115_" class="st9" d="M212.4,120.2h3.7"/>
			<path id="Layer_00000032607487632642613150000004925632947308545952_" class="st9" d="M219.9,125.9h-1.5c0,0,0,0,0,0
				c-1.3,0-2.3-1.1-2.3-2.4c0,0,0,0,0-0.1v-6.5l0,0c0-1.4,1-2.5,2.3-2.5c0,0,0,0,0,0h1.5"/>
			<path id="Layer_00000024703175431067122020000000842185390709142961_" class="st25" d="M162.4,157.7c-8.9,0-16.1,7.1-16.1,16
				c0,7.1,4.5,13.1,10.9,15.2c0.8,0.2,1.1-0.3,1.1-0.7s0-1.4,0-2.8c-4.5,1-5.4-2.1-5.4-2.1c-0.7-1.9-1.8-2.4-1.8-2.4
				c-1.4-1,0.1-1,0.1-1c1.6,0.2,2.5,1.7,2.5,1.7c1.4,2.5,3.7,1.8,4.7,1.3c0.1-1,0.5-1.7,1-2.1c-3.6-0.4-7.3-1.8-7.3-7.9
				c0-1.8,0.6-3.2,1.7-4.3c-0.2-0.4-0.8-2.1,0.1-4.3c0,0,1.4-0.4,4.4,1.7c1.3-0.4,2.7-0.5,4-0.5c1.4,0,2.8,0.1,4.1,0.5
				c3-2.1,4.4-1.6,4.4-1.6c0.8,2.2,0.3,3.8,0.1,4.2c1,1.1,1.7,2.6,1.6,4.3c0,6.2-3.7,7.5-7.3,7.9c0.6,0.5,1.1,1.5,1.1,3
				c0,2.1,0,3.9,0,4.4c0,0.4,0.2,0.9,1.1,0.8c6.3-2.2,10.9-8.1,11-15.2C178.4,164.9,171.2,157.7,162.4,157.7L162.4,157.7z"/>
			<path id="Layer_00000178162918741558770210000017997065499093712552_" class="st9" d="M279,357.1h2.9c0.5,0,0.9-0.4,0.9-0.9
				v-15.4l-6.7-6.7h-11.5c-0.5,0-1,0.4-1,1v10.5"/>
			<path id="Layer_00000173128618081615167730000007673746173940597165_" class="st9" d="M276.1,334.1v6.7h6.7"/>
			<path id="Layer_00000159439389881113774950000012116309886408663478_" class="st9" d="M146.2,327.4c1.3,0,2.3-1.1,2.3-2.3
				c0-1.3-1-2.3-2.3-2.3c-1.2,0-2.3,1-2.3,2.3C143.9,326.3,145,327.4,146.2,327.4z"/>
			<path id="Layer_00000000182963798810920100000013461563100988567955_" class="st9" d="M151.8,327.4c-0.2,0.4-0.1,1,0.3,1.3v0.1
				c0.3,0.3,0.4,0.6,0.4,1s-0.1,0.8-0.4,1.1c-0.3,0.3-0.7,0.5-1.1,0.5c-0.4,0-0.8-0.2-1-0.5h-0.1c-0.3-0.4-0.9-0.5-1.4-0.3
				c-0.4,0.2-0.7,0.7-0.7,1.2v0.1c0,0.8-0.7,1.5-1.5,1.5c-0.9,0-1.5-0.7-1.5-1.5v-0.1c0-0.5-0.4-0.9-0.9-1.1c-0.4-0.2-1-0.1-1.3,0.2
				l-0.1,0.1c-0.3,0.3-0.6,0.4-1,0.4s-0.8-0.1-1.1-0.4s-0.5-0.7-0.5-1.1s0.2-0.8,0.5-1.1c0.4-0.4,0.5-0.9,0.3-1.4
				c-0.2-0.4-0.7-0.7-1.2-0.7h-0.1c-0.8,0-1.5-0.7-1.5-1.6c0-0.8,0.7-1.5,1.5-1.5h0.1c0.5,0,0.9-0.3,1.1-0.8c0.2-0.4,0.1-1-0.2-1.4
				h-0.1c-0.3-0.3-0.4-0.7-0.4-1.1s0.1-0.8,0.4-1c0.3-0.3,0.7-0.5,1.1-0.5c0.4,0,0.8,0.2,1.1,0.5c0.4,0.4,0.9,0.5,1.4,0.3
				s0.8-0.7,0.8-1.2v-0.1c0-0.8,0.7-1.5,1.5-1.5s1.5,0.7,1.5,1.5v0.1c0,0.4,0.3,0.9,0.8,1.1c0.4,0.2,1,0.1,1.4-0.3
				c0.3-0.3,0.7-0.4,1.1-0.4c0.4,0,0.8,0.1,1,0.4c0.3,0.3,0.5,0.7,0.5,1.1s-0.2,0.8-0.5,1v0.1c-0.4,0.3-0.5,0.9-0.3,1.4
				s0.7,0.8,1.2,0.8h0.1c0.8,0,1.5,0.7,1.5,1.5s-0.7,1.5-1.5,1.5C152.5,326.6,152,326.9,151.8,327.4L151.8,327.4z"/>
			<path id="Layer_00000173848316748977229910000012146595380285493893_" class="st25" d="M340.7,157.2c-0.1-0.3-0.3-0.6-0.6-0.7
				c-0.3-0.2-0.6-0.2-0.9-0.1c-4.6,1.6-21.4,7.7-26,9.3c-0.2,0.1-0.5,0.3-0.6,0.6c-0.2,0.3-0.2,0.6-0.1,0.9c0.1,0.3,0.4,0.5,0.6,0.7
				c0.3,0.1,0.7,0.1,1,0c4.5-1.6,21.3-7.6,25.9-9.2c0.3-0.1,0.5-0.4,0.6-0.6C340.8,157.8,340.8,157.4,340.7,157.2z"/>
			<path id="Layer_00000041989283681430407200000011695538940004164517_" class="st26" d="M423.9,134.1c-17.1,0-30.9-13.8-30.9-30.9
				s13.8-30.9,30.9-30.9s30.9,13.8,30.9,30.9S441,134.1,423.9,134.1z"/>
		</g>
	</g>
</g>
<path id="Layer_00000183228765296343235250000016475113929563134376_" class="st4" d="M388,44c-9.4,0-17-7.8-17-17.5S378.6,9,388,9
	s17,7.8,17,17.5S397.4,44,388,44z"/>
<path id="Layer_00000159428223194789980790000001561994838372372391_" class="st4" d="M147,19c-5,0-9-4.2-9-9.5s4-9.5,9-9.5
	s9,4.2,9,9.5S152,19,147,19z"/>
<path id="Layer_00000033357758200406502220000011262060839660788114_" class="st4" d="M91,423c-5,0-9-4.2-9-9.5s4-9.5,9-9.5
	s9,4.2,9,9.5S96,423,91,423z"/>
<path id="Layer_00000111871582199087933070000011517646112598787756_" class="st27" d="M114.5,87.5c-16,0-29-13-29-29s13-29,29-29
	s29,13,29,29S130.5,87.5,114.5,87.5z"/>
<path id="Layer_00000135654675908694647620000002009821234633562540_" class="st27" d="M146.4,123.1c-9.6,0-17.5-7.8-17.5-17.5
	s7.9-17.5,17.5-17.5c9.7,0,17.5,7.8,17.5,17.5S156.1,123.1,146.4,123.1z"/>
<path class="st25" d="M276.3,349.5l2.3,5.6l-1.8,0l-0.3-1l-1.9,0l-0.3,1l-1.7,0l2.2-5.6L276.3,349.5z M275.5,351.3l-0.5,1.4l1,0
	L275.5,351.3z M265.4,349.6l2.3,5.6l-1.8,0l-0.3-1l-1.9,0l-0.3,1l-1.7,0l2.2-5.6L265.4,349.6z M264.5,351.4l-0.5,1.4l1,0
	L264.5,351.4z M261.3,349.6c0,0,0,3,0,3.8c0,0.7-0.4,1.8-1.9,2c-1.5,0.1-2.1-0.8-2.1-0.8l0.9-1.2c0.3,0.5,0.6,0.6,1,0.5
	c0.4-0.1,0.4-0.7,0.4-0.7l0-2.1l-1.7,0l0-1.4L261.3,349.6z M273,349.5l-2.1,5.6l-1.7,0l-2.2-5.6l1.8,0l1.2,3.3l1.2-3.3L273,349.5z"
	/>
</svg>
