<?xml version="1.0" encoding="UTF-8"?>
<svg id="svg3290" xmlns="http://www.w3.org/2000/svg" viewBox="0 0 655.64 778.07">
  <defs>
    <style>
      .cls-1 {
        fill: #3fa652;
        stroke: #21552a;
        stroke-linejoin: round;
        stroke-width: 23.31px;
      }

      .cls-2 {
        isolation: isolate;
      }

      .cls-3 {
        fill: none;
        stroke: #000;
        stroke-width: 6.67px;
      }
    </style>
  </defs>
  <g id="layer1">
    <g id="g3879">
      <path id="path3773" class="cls-1" d="m382.15,382.08c50.07-19.22,75.08-75.4,55.86-125.47-19.22-50.07-75.4-75.08-125.47-55.86-50.07,19.22-75.08,75.4-55.86,125.47,9.86,25.69,30.16,45.99,55.86,55.86l-65.42,170.45C102.91,497.18,30.87,335.41,86.22,191.2S303.35-25.05,447.56,30.3c144.21,55.35,216.24,217.13,160.89,361.34-28.41,74.01-86.88,132.49-160.89,160.89l-65.42-170.45Z"/>
      <g id="text7890-3-1" class="cls-2">
        <g class="cls-2">
          <path d="m54.06,636.82c0,4.93-.63,9.33-1.88,13.2-1.25,3.87-3.06,7.14-5.43,9.81-2.36,2.67-5.22,4.7-8.57,6.11-3.35,1.41-7.14,2.11-11.37,2.11-3.94,0-7.55-.7-10.83-2.11s-6.11-3.44-8.49-6.11c-2.38-2.67-4.23-5.93-5.53-9.81-1.31-3.87-1.96-8.27-1.96-13.2,0-6.57,1.09-12.17,3.28-16.79,2.18-4.62,5.31-8.14,9.38-10.57,4.07-2.43,8.91-3.64,14.54-3.64s10.08,1.22,14.11,3.67c4.03,2.45,7.16,5.98,9.4,10.6,2.24,4.62,3.36,10.2,3.36,16.74Zm-44.82,0c0,4.82.63,9,1.88,12.54,1.25,3.54,3.19,6.28,5.8,8.22,2.61,1.94,5.98,2.9,10.1,2.9s7.44-.97,10.08-2.9c2.63-1.94,4.58-4.67,5.83-8.22,1.25-3.54,1.88-7.72,1.88-12.54s-.63-8.92-1.88-12.41c-1.25-3.49-3.19-6.18-5.8-8.08-2.62-1.9-6-2.85-10.16-2.85-6.13,0-10.61,2.06-13.46,6.19s-4.27,9.84-4.27,17.15Z"/>
          <path d="m97.16,605.81c7.34,0,13.2,2.58,17.57,7.72,4.37,5.15,6.56,12.89,6.56,23.23,0,6.83-1,12.56-3.01,17.2-2.01,4.64-4.83,8.14-8.46,10.52-3.64,2.37-7.93,3.56-12.87,3.56-3.12,0-5.86-.42-8.22-1.26-2.36-.84-4.39-1.97-6.07-3.4-1.68-1.42-3.08-2.98-4.19-4.66h-.65c.11,1.42.24,3.14.4,5.15.16,2.01.24,3.76.24,5.26v24.65h-8.97v-86.88h7.36l1.18,8.88h.43c1.15-1.83,2.54-3.5,4.19-5.01,1.65-1.51,3.66-2.72,6.05-3.62,2.38-.89,5.2-1.34,8.46-1.34Zm-1.56,7.67c-4.08,0-7.37.8-9.86,2.41-2.49,1.61-4.31,4.01-5.45,7.2-1.15,3.2-1.76,7.2-1.83,12.02v1.75c0,5.08.55,9.37,1.64,12.87,1.09,3.51,2.9,6.17,5.43,8,2.53,1.83,5.92,2.74,10.18,2.74,3.65,0,6.7-1,9.14-3.01,2.44-2.01,4.25-4.81,5.45-8.41,1.2-3.6,1.8-7.73,1.8-12.41,0-7.08-1.35-12.72-4.06-16.9-2.71-4.18-6.85-6.27-12.44-6.27Z"/>
          <path d="m159.49,605.81c5.02,0,9.31,1.13,12.9,3.4,3.58,2.27,6.32,5.43,8.22,9.5,1.9,4.07,2.85,8.83,2.85,14.27v5.64h-40.68c.11,7.05,1.83,12.42,5.16,16.11,3.33,3.69,8.02,5.53,14.08,5.53,3.73,0,7.02-.35,9.89-1.04,2.87-.69,5.84-1.72,8.92-3.07v8c-2.97,1.35-5.92,2.34-8.84,2.96-2.92.62-6.37.93-10.34.93-5.66,0-10.6-1.18-14.8-3.53-4.21-2.36-7.48-5.82-9.81-10.38-2.33-4.56-3.49-10.15-3.49-16.76s1.07-12.06,3.2-16.79c2.13-4.73,5.14-8.37,9.03-10.93,3.89-2.56,8.46-3.83,13.73-3.83Zm-.11,7.45c-4.77,0-8.56,1.59-11.39,4.77-2.83,3.18-4.51,7.61-5.05,13.31h31.17c-.04-3.58-.58-6.73-1.64-9.45-1.06-2.72-2.66-4.84-4.81-6.35s-4.91-2.27-8.28-2.27Z"/>
          <path d="m226.5,605.81c6.99,0,12.27,1.75,15.85,5.23,3.58,3.49,5.37,9.08,5.37,16.79v39.11h-8.81v-38.51c0-5-1.12-8.75-3.36-11.23-2.24-2.48-5.67-3.72-10.29-3.72-6.52,0-11.11,1.88-13.76,5.64-2.65,3.76-3.98,9.22-3.98,16.38v31.44h-8.92v-60.04h7.2l1.34,8.66h.48c1.25-2.12,2.85-3.9,4.78-5.34,1.93-1.44,4.1-2.54,6.5-3.29,2.4-.75,4.93-1.12,7.58-1.12Z"/>
        </g>
      </g>
      <g id="text7890-3-1-1" class="cls-2">
        <g class="cls-2">
          <path d="m363.27,648.51c0,3.83-.94,7.06-2.82,9.67-1.88,2.61-4.57,4.57-8.06,5.89-3.49,1.32-7.66,1.97-12.49,1.97-4.12,0-7.68-.33-10.69-.99s-5.64-1.59-7.9-2.79v-8.38c2.4,1.21,5.27,2.3,8.6,3.29,3.33.99,6.73,1.48,10.21,1.48,5.09,0,8.78-.84,11.07-2.52,2.29-1.68,3.44-3.96,3.44-6.85,0-1.64-.46-3.09-1.37-4.35-.91-1.26-2.44-2.48-4.59-3.67-2.15-1.19-5.12-2.49-8.92-3.92-3.76-1.46-7.01-2.91-9.75-4.35-2.74-1.44-4.85-3.21-6.34-5.29-1.49-2.08-2.23-4.78-2.23-8.11,0-5.08,2.02-8.97,6.05-11.7s9.32-4.08,15.88-4.08c3.55,0,6.87.36,9.97,1.07,3.1.71,5.99,1.67,8.68,2.88l-3.01,7.29c-2.44-1.06-5.03-1.95-7.79-2.68-2.76-.73-5.57-1.09-8.44-1.09-4.12,0-7.28.69-9.48,2.08-2.2,1.39-3.3,3.29-3.3,5.7,0,1.86.51,3.4,1.53,4.6s2.66,2.34,4.92,3.4c2.26,1.06,5.23,2.3,8.92,3.73,3.69,1.39,6.88,2.82,9.57,4.3,2.69,1.48,4.75,3.27,6.21,5.37,1.45,2.1,2.18,4.79,2.18,8.08Z"/>
          <path d="m428.39,634.82c0,4.93-.63,9.33-1.88,13.2-1.25,3.87-3.06,7.14-5.43,9.81-2.36,2.67-5.22,4.7-8.57,6.11s-7.14,2.11-11.37,2.11c-3.94,0-7.55-.7-10.83-2.11s-6.11-3.44-8.49-6.11c-2.38-2.67-4.23-5.93-5.54-9.81-1.31-3.87-1.96-8.27-1.96-13.2,0-6.57,1.09-12.17,3.28-16.79,2.19-4.62,5.31-8.14,9.38-10.57s8.91-3.64,14.54-3.64,10.08,1.22,14.11,3.67c4.03,2.45,7.16,5.98,9.4,10.6,2.24,4.62,3.36,10.2,3.36,16.74Zm-44.82,0c0,4.82.63,9,1.88,12.54,1.25,3.54,3.19,6.28,5.8,8.22,2.61,1.94,5.98,2.9,10.1,2.9s7.44-.97,10.08-2.9c2.63-1.94,4.58-4.67,5.83-8.22,1.25-3.54,1.88-7.72,1.88-12.54s-.63-8.92-1.88-12.41c-1.25-3.49-3.19-6.18-5.8-8.08-2.62-1.9-6-2.85-10.16-2.85-6.13,0-10.61,2.06-13.46,6.19s-4.27,9.84-4.27,17.15Z"/>
          <path d="m492.45,604.9v60.04h-7.31l-1.29-8.44h-.48c-1.22,2.08-2.79,3.83-4.73,5.26-1.94,1.42-4.11,2.49-6.53,3.21s-4.99,1.07-7.71,1.07c-4.66,0-8.56-.77-11.71-2.3s-5.53-3.91-7.12-7.12c-1.59-3.21-2.39-7.34-2.39-12.38v-39.33h9.03v38.68c0,5,1.11,8.74,3.33,11.2,2.22,2.46,5.61,3.7,10.16,3.7s7.85-.84,10.45-2.52c2.6-1.68,4.47-4.15,5.62-7.42,1.15-3.27,1.72-7.28,1.72-12.02v-31.61h8.97Z"/>
          <path d="m538.07,603.81c1.18,0,2.42.06,3.71.19,1.29.13,2.44.3,3.44.52l-1.13,8.44c-.97-.25-2.04-.46-3.22-.6-1.18-.15-2.29-.22-3.33-.22-2.37,0-4.59.48-6.69,1.45s-3.93,2.36-5.51,4.16c-1.58,1.81-2.81,3.98-3.71,6.52-.9,2.54-1.34,5.36-1.34,8.46v32.21h-8.97v-60.04h7.42l.97,11.07h.38c1.22-2.23,2.69-4.26,4.41-6.11,1.72-1.84,3.72-3.31,5.99-4.41,2.27-1.1,4.81-1.64,7.6-1.64Z"/>
          <path d="m579.88,666.04c-5.3,0-9.98-1.11-14.03-3.34-4.05-2.23-7.2-5.62-9.46-10.19-2.26-4.56-3.39-10.32-3.39-17.26s1.19-13.21,3.57-17.83c2.38-4.62,5.67-8.04,9.86-10.27,4.19-2.23,8.96-3.34,14.29-3.34,2.94,0,5.78.3,8.52.9s4.99,1.36,6.74,2.27l-2.69,7.61c-1.79-.73-3.86-1.39-6.21-1.97-2.35-.58-4.54-.88-6.58-.88-4.08,0-7.48.9-10.18,2.68-2.71,1.79-4.73,4.42-6.07,7.89-1.34,3.47-2.01,7.74-2.01,12.82s.65,9,1.96,12.43c1.31,3.43,3.26,6.05,5.86,7.86,2.6,1.81,5.85,2.71,9.75,2.71,3.12,0,5.93-.34,8.44-1.01,2.51-.67,4.78-1.47,6.82-2.38v8.11c-1.97,1.02-4.16,1.81-6.58,2.36-2.42.55-5.29.82-8.62.82Z"/>
          <path d="m631.68,603.81c5.01,0,9.31,1.13,12.9,3.4,3.58,2.27,6.32,5.43,8.22,9.5,1.9,4.07,2.85,8.83,2.85,14.27v5.64h-40.68c.11,7.05,1.83,12.42,5.16,16.11,3.33,3.69,8.03,5.53,14.08,5.53,3.73,0,7.02-.35,9.89-1.04,2.87-.69,5.84-1.72,8.92-3.07v8c-2.97,1.35-5.92,2.34-8.84,2.96-2.92.62-6.37.93-10.34.93-5.66,0-10.6-1.18-14.8-3.53s-7.48-5.82-9.81-10.38c-2.33-4.56-3.49-10.15-3.49-16.76s1.06-12.06,3.2-16.79c2.13-4.73,5.14-8.37,9.03-10.93,3.89-2.56,8.46-3.83,13.73-3.83Zm-.11,7.45c-4.76,0-8.56,1.59-11.39,4.77-2.83,3.18-4.51,7.61-5.05,13.31h31.17c-.04-3.58-.58-6.73-1.64-9.45-1.06-2.72-2.66-4.84-4.81-6.35s-4.91-2.27-8.28-2.27Z"/>
        </g>
      </g>
      <g id="text7890-3-1-1-4" class="cls-2">
        <g class="cls-2">
          <path d="m115.12,694.48c1.47,0,2.73.48,3.79,1.45,1.06.97,1.59,2.47,1.59,4.52s-.53,3.51-1.59,4.49c-1.06.99-2.32,1.48-3.79,1.48-1.54,0-2.82-.49-3.84-1.48s-1.53-2.48-1.53-4.49.51-3.55,1.53-4.52c1.02-.97,2.3-1.45,3.84-1.45Zm4.35,22.46v60.04h-8.92v-60.04h8.92Z"/>
          <path d="m166.22,715.84c6.99,0,12.27,1.75,15.85,5.23,3.58,3.49,5.37,9.08,5.37,16.79v39.11h-8.81v-38.51c0-5-1.12-8.75-3.36-11.23-2.24-2.48-5.67-3.72-10.29-3.72-6.52,0-11.11,1.88-13.76,5.64-2.65,3.76-3.98,9.22-3.98,16.38v31.44h-8.92v-60.04h7.2l1.34,8.66h.48c1.25-2.12,2.85-3.9,4.78-5.34,1.93-1.44,4.1-2.54,6.5-3.29,2.4-.75,4.93-1.12,7.58-1.12Z"/>
          <path d="m210.4,694.48c1.47,0,2.73.48,3.79,1.45,1.06.97,1.59,2.47,1.59,4.52s-.53,3.51-1.59,4.49c-1.06.99-2.32,1.48-3.79,1.48-1.54,0-2.82-.49-3.84-1.48s-1.53-2.48-1.53-4.49.51-3.55,1.53-4.52c1.02-.97,2.3-1.45,3.84-1.45Zm4.35,22.46v60.04h-8.92v-60.04h8.92Z"/>
          <path d="m252.63,770.62c1.47,0,2.97-.13,4.51-.38,1.54-.25,2.79-.57,3.76-.93v7.07c-1.04.47-2.48.88-4.33,1.21-1.85.33-3.65.49-5.4.49-3.12,0-5.95-.56-8.49-1.67-2.54-1.11-4.58-3-6.1-5.67-1.52-2.67-2.28-6.35-2.28-11.07v-35.61h-8.38v-4.44l8.44-3.56,3.55-13.04h5.37v13.91h17.25v7.12h-17.25v35.33c0,3.76.85,6.57,2.55,8.44,1.7,1.86,3.97,2.79,6.8,2.79Z"/>
          <path d="m277.4,694.48c1.47,0,2.73.48,3.79,1.45,1.06.97,1.59,2.47,1.59,4.52s-.53,3.51-1.59,4.49c-1.06.99-2.32,1.48-3.79,1.48-1.54,0-2.82-.49-3.84-1.48s-1.53-2.48-1.53-4.49.51-3.55,1.53-4.52c1.02-.97,2.3-1.45,3.84-1.45Zm4.35,22.46v60.04h-8.92v-60.04h8.92Z"/>
          <path d="m322.65,715.95c7.02,0,12.23,1.61,15.64,4.82,3.4,3.21,5.1,8.35,5.1,15.39v40.81h-6.5l-1.72-8.88h-.43c-1.65,2.19-3.37,4.03-5.16,5.51-1.79,1.48-3.86,2.59-6.21,3.34-2.35.75-5.22,1.12-8.62,1.12-3.58,0-6.76-.64-9.54-1.92-2.78-1.28-4.96-3.21-6.56-5.81-1.59-2.59-2.39-5.88-2.39-9.86,0-5.99,2.33-10.59,6.99-13.8,4.66-3.21,11.75-4.97,21.28-5.26l10.16-.44v-3.67c0-5.19-1.09-8.82-3.28-10.9-2.19-2.08-5.27-3.12-9.24-3.12-3.08,0-6.02.46-8.81,1.37-2.79.91-5.45,1.99-7.95,3.23l-2.74-6.9c2.65-1.39,5.7-2.57,9.14-3.56,3.44-.99,7.06-1.48,10.85-1.48Zm11.93,31.44l-8.97.38c-7.34.29-12.52,1.52-15.53,3.67-3.01,2.16-4.51,5.2-4.51,9.15,0,3.43,1.02,5.97,3.06,7.62,2.04,1.64,4.75,2.46,8.11,2.46,5.23,0,9.51-1.48,12.84-4.44s5-7.4,5-13.31v-5.53Z"/>
          <path d="m380.79,770.62c1.47,0,2.97-.13,4.51-.38,1.54-.25,2.79-.57,3.76-.93v7.07c-1.04.47-2.48.88-4.33,1.21s-3.65.49-5.4.49c-3.12,0-5.95-.56-8.49-1.67-2.54-1.11-4.58-3-6.1-5.67-1.52-2.67-2.28-6.35-2.28-11.07v-35.61h-8.38v-4.44l8.44-3.56,3.55-13.04h5.37v13.91h17.25v7.12h-17.25v35.33c0,3.76.85,6.57,2.55,8.44,1.7,1.86,3.97,2.79,6.8,2.79Z"/>
          <path d="m405.57,694.48c1.47,0,2.73.48,3.79,1.45,1.06.97,1.58,2.47,1.58,4.52s-.53,3.51-1.58,4.49c-1.06.99-2.32,1.48-3.79,1.48-1.54,0-2.82-.49-3.84-1.48-1.02-.99-1.53-2.48-1.53-4.49s.51-3.55,1.53-4.52c1.02-.97,2.3-1.45,3.84-1.45Zm4.35,22.46v60.04h-8.92v-60.04h8.92Z"/>
          <path d="m441.73,776.98l-22.35-60.04h9.57l12.95,36.32c.9,2.48,1.81,5.22,2.74,8.22.93,3,1.58,5.41,1.93,7.23h.38c.43-1.83,1.15-4.25,2.15-7.26,1-3.01,1.92-5.74,2.74-8.19l12.95-36.32h9.56l-22.41,60.04h-10.21Z"/>
          <path d="m506.43,715.84c5.01,0,9.31,1.13,12.9,3.4,3.58,2.27,6.32,5.43,8.22,9.5,1.9,4.07,2.85,8.83,2.85,14.27v5.64h-40.68c.11,7.05,1.83,12.42,5.16,16.11,3.33,3.69,8.03,5.53,14.08,5.53,3.73,0,7.02-.35,9.89-1.04,2.87-.69,5.84-1.72,8.92-3.07v8c-2.97,1.35-5.92,2.34-8.84,2.96-2.92.62-6.37.93-10.34.93-5.66,0-10.6-1.18-14.8-3.53s-7.48-5.82-9.81-10.38c-2.33-4.56-3.49-10.15-3.49-16.76s1.06-12.06,3.2-16.79c2.13-4.73,5.14-8.37,9.03-10.93,3.89-2.56,8.46-3.83,13.73-3.83Zm-.11,7.45c-4.76,0-8.56,1.59-11.39,4.77-2.83,3.18-4.51,7.61-5.05,13.31h31.17c-.04-3.58-.58-6.73-1.64-9.45-1.06-2.72-2.66-4.84-4.81-6.35s-4.91-2.27-8.28-2.27Z"/>
        </g>
      </g>
      <g id="g3797">
        <path id="path3015" class="cls-3" d="m632.62,539.44c0,13.93-11.31,25.22-25.27,25.22s-25.27-11.29-25.27-25.22,11.31-25.22,25.27-25.22,25.27,11.29,25.27,25.22Z"/>
        <g id="text3793" class="cls-2">
          <g class="cls-2">
            <path d="m604.01,523.96c2.34,0,4.28.29,5.81.87s2.67,1.46,3.43,2.65,1.13,2.7,1.13,4.53c0,1.51-.27,2.77-.82,3.78s-1.26,1.83-2.15,2.45-1.83,1.11-2.83,1.45l7.83,12.83h-3.87l-6.99-11.91h-5.94v11.91h-3.32v-28.55h7.71Zm-.2,2.87h-4.2v10.96h4.53c2.33,0,4.05-.48,5.15-1.43s1.65-2.35,1.65-4.2c0-1.94-.58-3.31-1.75-4.12s-2.96-1.21-5.38-1.21Z"/>
          </g>
        </g>
      </g>
    </g>
  </g>
</svg>