<svg width="500" height="444" viewBox="0 0 500 444" fill="none" xmlns="http://www.w3.org/2000/svg">
<g clip-path="url(#clip0_221_3116)">
<path fill-rule="evenodd" clip-rule="evenodd" d="M331.403 237.935C330.457 192.75 293.613 156.358 248.368 156.358C207.533 156.358 173.542 185.999 166.607 224.995C161.803 223.648 155.66 222.217 152.625 222.693C142.361 224.302 140.762 231.524 140.762 231.524C131.02 234.48 126.14 243.817 124.183 256.992C120.901 266.441 124.246 276.526 131.148 286.953C137.196 299.743 138.066 311.354 134.08 321.861C125.975 337.957 110.252 340.987 95.4833 344.921C90.6349 341.759 89.4198 334.836 91.0578 326.58C91.0578 326.58 100.619 327.78 103.578 324.776C109.612 318.65 108.191 305.861 109.056 304.378C109.056 304.378 114.194 301.49 113.721 299.22C112.813 294.854 106.793 289.249 106.793 289.249C106.793 289.249 105.724 279.37 104.128 262.943C103.715 258.692 98.4342 254.726 98.4342 254.726L60.678 268.712L59.6352 310.641C63.6501 319.139 60.8982 330.535 53.8422 339.503L35.6773 350.563C20.7868 319.277 12.4482 284.259 12.4482 247.301C12.4482 114.8 119.632 7.22534 251.652 7.22534C383.672 7.22534 490.855 114.8 490.855 247.301C490.855 286.299 481.57 323.138 465.1 355.71L465.084 355.534C455.993 351.984 447.209 348.026 440.162 341.75C436.337 337.762 435.496 332.061 437.278 324.856L450.99 299.616L400.511 256.555L396.475 260.174C393.227 266.382 391.975 272.937 392.431 279.788L391.255 287.978C391.255 287.978 383.493 295.996 383.413 299.008C383.332 302.02 389.945 306.71 389.945 306.71C389.945 306.71 388.365 320.375 391.608 323.687C394.851 326.999 409.063 326.126 409.063 326.126C408.302 332.201 408.598 338.186 405.571 344.129L386.846 353.084C379.9 345.206 371.7 339.314 362.315 335.3C353.263 328.854 349.993 319.894 353.074 308.173C356.225 296.191 365.265 276.31 362.536 263.991C357.594 247.101 346.37 238.68 331.403 237.935ZM298.491 344.229L289.835 311.94C293.196 309.991 296.407 307.813 299.449 305.427C299.705 314.046 302.776 320.358 308.602 324.411C313.457 326.995 317.636 327.668 321.194 326.58C320.188 331.643 317.373 335.205 313.011 337.48C307.823 340.25 302.952 342.546 298.491 344.229ZM193.912 302.634C199.545 307.55 205.843 311.717 212.653 314.981L204.298 346.148L203.969 346.074C189.408 341.693 178.341 336.532 170.579 330.634C168.276 325.342 168.098 322.583 170.579 321.847C170.579 321.847 179.497 322.954 185.575 319.666C189.072 317.775 192.38 307.853 193.912 302.634Z" fill="#BEE3D8"/>
<path fill-rule="evenodd" clip-rule="evenodd" d="M34.4719 351.453L113.723 351.79C113.723 351.79 144.886 353.621 145.252 393.482C145.618 433.342 145.184 443.885 145.184 443.885H7.18555C7.18555 443.885 10.7967 380.85 19.9501 367.563C28.1211 355.702 34.4719 351.453 34.4719 351.453ZM90.8429 336.436C90.8429 336.436 91.1478 342.635 74.6581 341.95C58.168 341.265 57.9833 333.338 57.9833 333.338C64.9098 324.82 60.0332 311.289 60.0332 311.289L41.8928 280.722L96.6621 254.726L103.565 261.265L106.721 288.035C106.721 288.035 113.953 296.51 113.913 299.192C113.873 301.874 109.463 304.253 109.463 304.253C109.463 304.253 106.226 323.374 102.148 325.869C98.071 328.365 91.3349 325.553 91.3349 325.553L90.8429 336.436Z" fill="#CCCCDA"/>
<path d="M437.116 241.667C443.468 242.772 449.871 246.071 454.406 249.82C461.929 258.29 464.689 271.653 467.604 281.671C469.329 287.599 468.163 295.109 465.894 302.437C465.167 302.575 464.42 302.658 463.655 302.682C462.289 302.724 455.91 300.212 455.892 300.219C455.683 300.31 456.283 305.125 456.295 305.499C456.437 309.674 455.272 315.614 451.936 318.531C449.089 321.02 441.525 325.812 437.476 323.853C437.225 323.731 437.149 323.411 437.127 323.166C436.811 319.651 433.168 316.284 434.216 313.158C436.055 307.667 441.632 304.779 441.401 298.003C441.293 294.872 438.595 289.347 434.548 291.294C431.668 292.68 430.473 297.575 429.178 300.252C428.985 300.649 428.667 301.959 428.275 302.2C427.889 302.439 428.197 301.292 428.082 300.853C427.805 299.789 427.617 298.742 427.295 297.691C426.208 294.142 425.111 290.949 422.694 288.05C420.744 285.713 418.062 284.323 415.219 283.107C410.948 281.279 406.311 279.838 403.238 276.153C400.678 273.085 398.577 269.427 397.756 265.514C397.648 264.998 397.104 260.653 396.731 260.506C395.974 260.209 395.227 262.531 395.006 262.889C392.713 266.598 392.183 270.458 392.139 274.925C392.125 276.273 392.14 277.608 392.07 278.953C392.038 279.549 392.752 280.688 392.159 280.741C389.968 280.938 386.875 276.508 386.096 274.822C383.898 270.062 384.772 256.463 389.906 253.292C394.198 250.641 400.087 249.665 405.379 248.451C406.831 248.118 408.238 247.768 409.554 247.359C415.732 245.444 422.021 242.966 428.369 241.733C428.675 241.674 428.981 241.617 429.287 241.564C431.793 241.126 434.45 241.203 437.116 241.667Z" fill="#020144"/>
<path d="M405.352 248.475L422.181 307.534C422.181 307.534 426.213 347.247 405.93 344.176L383.466 355.709C383.466 355.709 391.357 386.667 450.529 375.817C450.529 375.817 467.65 368.887 472.51 363.751C472.51 363.751 462.238 347.54 449.842 341.176C449.842 341.176 458.43 334.348 454.006 333.289C449.583 332.231 450.777 334.691 453.778 329.157C456.78 323.623 472.128 297.213 467.605 281.671C463.083 266.129 458.933 242.538 436.796 241.652C414.659 240.766 405.352 248.475 405.352 248.475Z" fill="#020144"/>
<path fill-rule="evenodd" clip-rule="evenodd" d="M332.376 272.292C332.273 271.993 332.181 271.688 332.103 271.375C331.83 270.28 332.285 268.259 332.738 266.372C336.321 267.995 339.667 269.773 342.722 271.572C339.19 271.956 335.724 272.184 332.376 272.292Z" fill="#5CBA9E"/>
<path fill-rule="evenodd" clip-rule="evenodd" d="M361.35 285.201C358.402 292.457 353.524 300.089 352.674 307.801C352.642 308.089 348.639 304.286 348.834 303.314C349.007 302.449 350.545 301.097 351.039 300.272C353.421 296.302 355.664 290.974 352.789 286.66C350.388 283.059 347.414 283.903 345.032 286.584C343.92 287.835 343.464 289.295 342.522 290.615C342.459 290.702 341.386 292.52 341.23 292.364C341.068 292.202 340.196 285.724 339.861 284.607C338.494 280.051 333.992 276.957 332.377 272.292C335.725 272.185 339.19 271.957 342.723 271.572C352.579 277.376 359.401 283.403 361.35 285.201Z" fill="#5CBA9E"/>
<path d="M363.748 443.886H261.961C262.434 437.861 262.739 431.811 262.923 425.818C263.371 411.264 262.599 396.68 263.739 382.154C264.195 376.361 264.539 369.151 267.935 364.161C274.014 355.228 283.196 349.785 293.562 346.594C297.679 345.328 300.94 342.518 305.131 341.279C309.422 340.01 313.052 344.857 316.776 346.682C322.272 349.375 329.237 350.131 335.247 349.748C341.148 349.373 349.916 347.894 354.538 343.773C356.583 341.948 361.441 336.69 364.171 336.17C367.595 335.52 378.835 345.469 381.097 347.494C382.59 348.83 387.226 351.825 385.144 353.303C381.886 355.614 377.3 356.537 374.511 359.595C364.059 371.054 367.036 389.19 367.358 403.308C367.519 410.423 366.551 417.899 366.151 424.888C365.91 429.114 363.956 433.297 364.052 437.52C364.101 439.67 363.976 441.787 363.748 443.886Z" fill="#5CBA9E"/>
<path d="M59.9451 310.637C60.1306 310.793 63.3385 306.479 63.095 305.991C62.4772 304.756 60.9241 303.521 60.2258 302.125C58.0088 297.69 59.0515 289.989 64.2795 288.029C66.6808 287.129 69.6631 289.546 71.2023 291.085C71.3531 291.236 73.4529 293.824 73.5722 293.705C74.1491 293.127 73.8852 284.048 73.7593 282.666C73.5101 279.92 76.3163 280.495 76.3163 278.237C76.3163 276.825 74.5659 274.067 75.3189 272.811C76.0274 271.631 77.7962 271.656 78.3752 270.691C79.4085 268.968 78.0205 267.255 79.9336 265.888C81.3804 264.855 83.4299 265.249 84.7366 264.205C85.8664 263.3 85.2032 261.674 86.6693 260.836C88.6894 259.683 90.6739 260.658 92.7818 260.275C94.8489 259.899 94.509 257.661 95.4018 256.47C95.9955 255.678 97.544 255.56 98.083 254.662C98.5978 253.804 98.4572 252.482 98.4572 251.543C98.4572 247.308 93.7192 249.675 92.969 248.737C91.6464 247.083 90.4414 241.572 86.9193 243.685C84.7256 245.001 83.1039 240.829 81.5553 240.442C78.8198 239.758 76.4618 241.087 73.6972 240.691C72.5617 240.529 71.9227 238.944 70.5159 239.507C69.1557 240.051 68.287 241.895 66.8994 242.126C65.4546 242.366 64.409 240.799 63.095 241.128C61.7429 241.466 60.6834 242.933 59.3526 243.124C57.8576 243.337 56.4389 243.042 54.9868 243.622C53.9735 244.028 53.5032 245.214 52.4919 245.618C50.9859 246.221 49.0671 245.35 47.6268 246.429C46.4173 247.337 46.345 249.199 45.1327 250.109C43.9948 250.963 42.6313 251.337 41.5154 252.229C40.1107 253.353 39.6947 255.678 38.7705 257.219C37.4989 259.339 35.1389 260.576 34.4046 263.144C33.9139 264.865 35.1299 266.216 34.5918 268.009C33.299 272.319 33.4073 275.311 33.4073 279.734C33.4073 280.615 32.7711 281.719 32.908 282.541C33.0506 283.396 33.9168 283.558 34.2175 284.162C34.7834 285.293 33.6528 286.882 33.8432 288.029C33.9973 288.952 36.8329 292.07 37.3367 293.58C37.8377 295.083 36.9171 296.636 37.7731 298.133C38.4918 299.39 40.7996 301.345 42.2007 301.625C42.7862 301.742 44.1799 301.603 44.6338 301.875C45.3256 302.29 45.1858 303.583 45.8184 304.058C46.9019 304.87 48.3426 305.055 49.3735 305.742C50.0301 306.18 50.2079 307.179 50.8702 307.676C53.2356 309.449 57.5883 308.658 59.9451 310.637Z" fill="#020144"/>
<path d="M37.7162 443.886C37.547 439.356 37.8702 435 38.537 430.334C39.5769 423.052 39.1732 414.965 39.1732 407.595C39.1732 404.871 38.6359 401.643 39.1732 398.954C39.7657 395.992 41.9051 393.894 42.7211 391.041C43.5481 388.145 44.2047 385.145 44.5401 382.127C45.4505 373.931 41.5803 366.428 39.0825 358.935C38.2314 356.38 34.1451 352.503 36.5357 350.111C40.4448 346.203 46.8119 344.057 51.4527 340.744C52.8215 339.765 55.6527 336.229 57.1825 335.923C57.752 335.809 60.0794 338.125 60.6388 338.469C63.2284 340.063 67.3373 341.728 70.3707 342.108C75.0569 342.693 80.6097 342.814 85.1059 341.016C86.8914 340.302 88.6447 338.976 90.5626 338.697C90.8989 338.648 94.106 344.275 95.6566 345.382C97.8614 346.957 100.763 348.637 103.388 349.293C105.759 349.886 109.414 349.953 111.21 351.749C112.63 353.169 112.302 357.029 112.665 358.844C113.732 364.177 113.26 369.93 112.847 375.307C112.699 377.223 111.651 380.162 112.119 382.037C113.649 388.157 116.585 393.829 118.394 399.864C120.822 407.953 119.034 419.819 116.758 427.787C115.277 432.973 114.91 438.509 114.856 443.886H37.7162Z" fill="#5CBA9E"/>
<path d="M198.901 258.539C201.324 257.967 201.73 255.42 202.255 253.058C202.866 250.307 200.216 250.634 199.801 248.559C199.275 245.932 205.868 236.164 201.436 233.505C199.382 232.272 195.408 232.407 193.092 232.197C189.385 231.86 185.806 230.542 182.211 229.824C174.582 228.298 167.546 224.749 159.713 223.77C157.606 223.507 155.526 222.505 153.332 222.87C149.506 223.508 145.603 223.88 142.941 227.206C141.991 228.395 141.509 230.408 140.324 231.296C138.869 232.388 136.752 233.054 135.17 234.241C128.856 238.977 125.619 249.057 124.043 256.413C122.806 262.19 122.43 268.064 124.534 273.675C125.412 276.014 127.08 277.868 128.052 280.139C130.29 285.359 134.043 289.281 135.088 295.028C135.208 295.686 137.011 303.66 137.133 303.781C137.181 303.829 139.57 300.536 139.751 300.263C140.011 299.873 142.69 296.821 142.451 296.582C141.658 295.789 139.358 296.587 138.279 295.355C133.907 290.359 130.863 282.202 134.761 275.965C138.902 269.341 144.736 276.987 146.542 281.202C147 282.27 148.596 284.955 150.141 283.41C152.208 281.344 151.44 275.272 152.105 272.611C152.491 271.067 154.15 269.816 154.15 268.193C154.15 266.44 152.649 264.775 153.168 262.958C153.939 260.26 157.88 258.07 157.341 255.103C157.025 253.366 154.277 247.36 154.641 246.268C154.733 245.992 155.265 245.979 155.459 246.023C158.118 246.614 161.33 250.566 164.049 250.113C166.38 249.724 167.751 247.749 170.594 247.986C174.372 248.301 177.975 250.141 181.884 249.786C183.329 249.655 183.867 248.112 185.075 247.659C188.43 246.401 190.185 247.676 193.501 248.15C194.035 248.226 194.912 247.833 195.382 248.067C198.093 249.424 197.403 258.893 198.901 258.539Z" fill="#5CBA9E"/>
<path d="M140.367 443.886C140.388 438.767 140.475 433.666 140.779 428.503C141.942 408.722 142.325 387.496 135.967 368.42C131.681 355.563 118.538 353.895 107.781 349.86C105.167 348.879 97.9484 347.688 96.7827 344.773C95.0514 340.446 112.505 337.049 114.656 335.974C119.816 333.394 125.475 331.678 130.055 327.862C131.439 326.709 133.558 322.759 135.142 322.363C136.36 322.058 142.967 326.039 145.453 326.349C150.402 326.969 155.139 328.746 160.164 329.374C163.291 329.765 166.072 327.738 168.963 328.206C170.959 328.529 171.285 331.051 172.401 332.674C174.002 335.004 178.178 337.011 180.649 338.173C193.281 344.118 206.882 345.969 217.771 355.497C223.328 360.36 224.251 367.789 226.433 374.333C231.327 389.014 232.075 404.511 233.17 419.841C233.74 427.825 234.343 435.868 234.125 443.886H140.367Z" fill="#020144"/>
<path fill-rule="evenodd" clip-rule="evenodd" d="M302.145 259.152C304.029 259.208 306.058 259.341 308.232 259.57C325.029 261.342 341.435 271.427 341.435 271.427C341.435 271.427 315.235 273.171 305.18 270.626C295.125 268.08 283.41 267.033 283.31 261.826C283.31 261.826 288.258 259.373 298.414 259.138C298.225 258.873 298.139 258.592 298.189 258.295C298.837 254.402 304.869 249.805 307.465 247.497C322.656 233.994 345.738 235.438 357.427 252.972C362.857 261.117 365.407 274.148 361.99 283.542C361.79 284.093 361.576 284.645 361.35 285.201C359.401 283.403 352.579 277.376 342.723 271.572C339.668 269.773 336.322 267.995 332.739 266.372C333.215 264.392 329.379 265.12 329.011 264.658C327.096 262.265 322.076 261.528 320.423 261.832C314.642 260.197 308.495 259.174 302.145 259.152Z" fill="#020144"/>
<path d="M401.984 255.56C394.725 260.617 392.559 267.393 392.104 276.051C391.938 279.185 392.574 282.519 391.876 285.609C390.636 291.09 385.281 293.667 383.59 298.786C382.38 302.452 387.978 303.867 388.859 306.619C390.591 312.025 387.625 319.574 392.2 323.966C396.719 328.304 410.722 324.744 416.168 325.03" stroke="#020144" stroke-width="2.55372" stroke-miterlimit="10" stroke-linecap="round" stroke-linejoin="round"/>
<path d="M408.767 325.566C408.929 330.129 408.381 334.314 407.312 338.542C406.847 340.379 406.285 342.224 405.639 344.111" stroke="#020144" stroke-width="2.55372" stroke-miterlimit="10" stroke-linecap="round" stroke-linejoin="round"/>
<path d="M397.187 259.992C396.321 269.064 402.486 276.922 410.411 281.387C412.005 282.285 413.719 283 415.406 283.764" stroke="#020144" stroke-width="2.55372" stroke-miterlimit="10" stroke-linecap="round" stroke-linejoin="round"/>
<path d="M405.359 248.511C403.882 249.009 402.429 249.488 401.007 249.931C397.394 251.057 393.669 251.899 389.927 252.602" stroke="#020144" stroke-width="2.55372" stroke-miterlimit="10" stroke-linecap="round" stroke-linejoin="round"/>
<path d="M389.926 252.602C383.337 261.021 382.561 274.809 392.166 280.229" stroke="#020144" stroke-width="2.55372" stroke-miterlimit="10" stroke-linecap="round" stroke-linejoin="round"/>
<path d="M470.477 360.793C471.838 362.382 473.045 364.074 474.038 365.79C476.454 369.962 477.185 375.129 478.425 379.733C483.943 400.229 484.62 422.698 485.107 443.884" stroke="#020144" stroke-width="2.55372" stroke-miterlimit="10" stroke-linecap="round" stroke-linejoin="round"/>
<path d="M405.641 344.111C396.875 348.578 392.733 350.05 386.437 352.967C386.004 353.168 385.561 353.375 385.106 353.591C384.584 353.838 384.05 354.091 383.511 354.352C379.487 356.298 375.105 358.686 372.548 362.309C365.073 372.899 367.254 389.198 367.254 401.436C367.254 415.825 365.74 429.792 363.839 443.885" stroke="#020144" stroke-width="2.55372" stroke-miterlimit="10" stroke-linecap="round" stroke-linejoin="round"/>
<path d="M443.623 376.929C443.289 380.762 443.18 384.553 443.18 388.147C443.18 406.731 445.185 425.302 445.038 443.886" stroke="#020144" stroke-width="2.55372" stroke-miterlimit="10" stroke-linecap="round" stroke-linejoin="round"/>
<path d="M453.059 391.475C454.548 395.946 457.74 425.28 458.121 443.886" stroke="#020144" stroke-width="2.55372" stroke-miterlimit="10" stroke-linecap="round" stroke-linejoin="round"/>
<path d="M383.511 354.354C380.322 364.996 381.294 377.411 384.214 388.158" stroke="#020144" stroke-width="2.55372" stroke-miterlimit="10" stroke-linecap="round" stroke-linejoin="round"/>
<path d="M389.313 377.023C388.169 379.694 386.127 383.503 384.211 388.159C381.951 393.652 379.868 400.325 379.643 407.699C379.403 415.518 383.642 421.028 385.154 428.081C386.426 434.015 386.574 438.345 386.051 443.888" stroke="#020144" stroke-width="2.55372" stroke-miterlimit="10" stroke-linecap="round" stroke-linejoin="round"/>
<path d="M401.723 309.056C397.959 311.702 395.926 312.497 389.472 311.099" stroke="#020144" stroke-width="2.55372" stroke-miterlimit="10" stroke-linecap="round" stroke-linejoin="round"/>
<path d="M397.906 288.06C397.906 285.742 398.691 283.863 399.658 283.863C400.625 283.863 401.408 285.742 401.408 288.06C401.408 290.377 400.625 292.256 399.658 292.256C398.691 292.256 397.906 290.377 397.906 288.06Z" fill="#020144" stroke="#020144" stroke-width="2.55372" stroke-miterlimit="10" stroke-linejoin="round"/>
<path d="M297.825 259.57C295.889 270.866 297.974 281.806 298.509 293.56C298.884 301.813 298.862 311.448 303.078 318.826C306.952 325.606 313.971 327.717 321.168 326.817C330.391 325.663 339.909 319.568 343.485 312.017" stroke="#020144" stroke-width="2.55372" stroke-miterlimit="10" stroke-linecap="round" stroke-linejoin="round"/>
<path d="M298.147 257.882C303.52 246.798 312.827 243.183 320.205 240.109C332.347 235.05 346.338 239.044 355.154 249.183C361.244 256.186 364.315 265.327 363.176 278.605C362.038 291.882 347.307 306.366 353.522 325.009C356.502 333.949 366.84 336.523 373.77 341.226C379.31 344.985 382.895 348.611 386.436 352.968" stroke="#020144" stroke-width="2.55372" stroke-miterlimit="10" stroke-linecap="round" stroke-linejoin="round"/>
<path d="M321.168 326.817C319.976 333.401 314.182 337.551 308.267 340.249C308.017 340.363 307.765 340.477 307.51 340.589C295.156 346.054 277.285 350.001 269.558 361.997C261.856 373.957 262.611 390.136 262.464 403.701C262.287 420.055 261.621 427.809 260.546 443.886" stroke="#020144" stroke-width="2.55372" stroke-miterlimit="10" stroke-linecap="round" stroke-linejoin="round"/>
<path d="M363.646 335.579C360.576 338.941 358.972 340.214 357.053 341.83C346.271 350.911 328.908 351.469 317.652 347.459C315.302 346.622 310.784 343.267 307.514 340.589" stroke="#020144" stroke-width="2.55372" stroke-miterlimit="10" stroke-linecap="round" stroke-linejoin="round"/>
<path d="M297.825 259.57C303.155 263.623 313.34 262.45 318.238 261.729C324.066 260.871 330.1 259.58 332.81 261.393C335.982 263.515 329.221 269.107 333.758 275.769C336.931 280.427 338.101 280.443 339.387 285.805C340.395 290.008 340.202 294.441 340.232 294.463C340.514 294.674 341.366 292.396 343.843 288.629C346.321 284.862 349.079 281.45 352.944 287.33C357.007 293.507 349.821 303.808 345.221 303.83" stroke="#020144" stroke-width="2.55372" stroke-miterlimit="10" stroke-linecap="round" stroke-linejoin="round"/>
<path d="M349.046 289.474C352.271 291.893 348.125 297.328 346.356 298.986" stroke="#020144" stroke-width="2.55372" stroke-miterlimit="10" stroke-linecap="round" stroke-linejoin="round"/>
<path d="M309.785 293.833C308.574 295.351 308.309 295.298 306.518 297.183C304.153 299.673 306.976 301.982 309 303.428" stroke="#020144" stroke-width="2.55372" stroke-miterlimit="10" stroke-linecap="round" stroke-linejoin="round"/>
<path d="M322.565 308.382C319.156 312.756 312.476 311.518 309.563 309.599" stroke="#020144" stroke-width="2.55372" stroke-miterlimit="10" stroke-linecap="round" stroke-linejoin="round"/>
<path d="M97.9603 254.726C109.517 263.39 103.331 276.975 106.733 288.488C108.021 292.848 113.982 294.248 113.713 299.425C113.556 302.439 109.475 302.595 108.935 305.427C108.748 306.407 108.615 307.439 108.509 308.499C107.627 317.235 108.524 327.838 95.7203 326.457C94.0075 326.272 92.5227 326.03 90.9479 325.601C90.5398 325.489 90.1255 325.366 89.6997 325.227C87.479 324.503 85.1108 324.136 83.1475 322.779" stroke="#020144" stroke-width="2.55372" stroke-miterlimit="10" stroke-linecap="round" stroke-linejoin="round"/>
<path d="M90.9486 325.601C90.6087 329.422 89.97 334.07 90.7366 337.724C90.92 338.599 91.184 339.416 91.5517 340.152C91.7887 340.626 92.0498 341.077 92.3334 341.507C93.0766 342.634 93.9747 343.617 94.9986 344.486C99.116 347.978 105.265 349.614 111.547 351.324C120.094 353.65 128.887 356.109 133.142 363.555C140.241 375.978 140.542 391.301 140.897 405.145C141.227 418.016 141.011 430.98 140.528 443.886" stroke="#020144" stroke-width="2.55372" stroke-miterlimit="10" stroke-linecap="round" stroke-linejoin="round"/>
<path d="M61.3183 312.924C61.7412 317.74 62.7054 327.409 56.9892 335.293C56.145 336.458 55.1554 337.583 53.9971 338.648C53.0716 339.498 52.0383 340.311 50.8856 341.073C45.464 344.661 40.209 347.335 35.1445 350.829C30.0681 354.332 25.1825 358.659 20.5123 365.554C8.62462 383.109 7.93818 419.449 7.55859 443.886" stroke="#020144" stroke-width="2.55372" stroke-miterlimit="10" stroke-linecap="round" stroke-linejoin="round"/>
<path d="M98.3587 252.683C98.6819 256.047 96.2912 254.792 94.9216 256.121C94.3104 256.716 94.9392 258.043 94.2307 258.731C91.8236 261.068 89.3104 259.824 86.6108 260.781C85.1611 261.295 85.6281 263.201 84.6675 264.077C83.2146 265.401 80.1873 264.436 79.0424 266.312C78.36 267.433 79.3778 269.136 78.3931 270.331C77.4227 271.507 75.061 271.206 74.9777 273.013C74.8821 275.081 76.1953 276.821 76.103 278.839C76.0364 280.286 73.7041 279.887 73.5848 281.058C73.3551 283.311 74.3088 292.787 73.2354 294.09C72.9216 294.47 72.6005 293.333 72.2797 292.957C71.6595 292.23 70.9546 291.472 70.2821 290.794C68.7458 289.246 65.694 287.51 63.3781 288.538C57.0015 291.368 57.938 301.494 62.6418 305.373C64.5013 306.907 67.198 307.114 69.4923 307.069" stroke="#020144" stroke-width="2.55372" stroke-miterlimit="10" stroke-linecap="round" stroke-linejoin="round"/>
<path d="M98.358 252.683C98.794 250.977 97.7872 249.679 96.4094 248.886C95.5518 248.391 94.0142 249.433 93.3576 248.893C91.847 247.652 92.674 244.89 90.1726 243.828C88.4577 243.099 86.6481 244.244 84.9986 243.68C83.2686 243.09 82.5915 240.458 80.7169 240.031C78.6936 239.57 76.9235 240.725 74.9733 240.739C72.9998 240.752 71.4234 239.193 69.4405 239.899C68.4366 240.258 68.3459 241.594 67.4576 241.911C65.887 242.471 64.1283 240.416 62.6447 241.001C61.2935 241.535 60.0461 242.915 58.8763 243.332C57.4973 243.824 55.9229 242.971 54.4716 243.619C53.4003 244.096 53.5 245.306 52.3518 245.715C50.8282 246.259 48.1016 245.651 46.9886 246.604C45.8486 247.581 46.0746 249.167 45.1679 250.271C43.8473 251.878 41.2511 251.099 39.8574 253.189C38.8988 254.628 39.3221 256.283 38.5462 257.605C37.2632 259.788 34.7794 260.277 33.9156 263C33.3652 264.732 35.1778 264.935 34.9526 266.169C34.5592 268.322 33.0911 270.314 32.8095 272.483C32.5366 274.585 33.6255 276.63 33.4874 278.666C33.4053 279.891 32.43 281.312 32.7021 282.521C32.8716 283.269 33.6709 283.614 33.8931 284.294C34.296 285.525 32.9374 287.07 33.5479 288.18C33.9042 288.83 34.7786 288.668 35.1426 289.622C35.6881 291.055 36.6622 292.629 37.0912 293.937C37.5958 295.479 36.3075 297.385 37.7004 298.673C38.6173 299.521 41.0113 301.305 42.1488 301.799C42.9165 302.132 43.6275 301.079 44.3221 301.731C45.1928 302.549 45.1908 304.004 45.9994 304.764C46.9506 305.658 48.5519 305.206 49.5382 306.016C50.1401 306.511 50.3281 308.003 51.131 308.185C54.3421 308.918 59.7486 309.407 61.3176 312.924" stroke="#020144" stroke-width="2.55372" stroke-miterlimit="10" stroke-linecap="round" stroke-linejoin="round"/>
<path d="M108.509 308.499C105.408 309.484 100.805 309.185 97.1465 307.422" stroke="#020144" stroke-width="2.55372" stroke-miterlimit="10" stroke-linecap="round" stroke-linejoin="round"/>
<path d="M65.7721 293.91C63.325 295.643 65.2458 300.028 67.0167 301.548" stroke="#020144" stroke-width="2.55372" stroke-miterlimit="10" stroke-linecap="round" stroke-linejoin="round"/>
<path d="M93.3843 335.816C88.6536 339.565 83.1192 342.154 75.6203 342.065C68.1221 341.976 61.7051 340.2 54.4648 332.959" stroke="#020144" stroke-width="2.55372" stroke-miterlimit="10" stroke-linecap="round" stroke-linejoin="round"/>
<path d="M95.0489 339.285C92.5512 341.825 84.6632 347.268 74.2073 346.561C64.8255 345.928 59.7304 344.518 51.3174 336.106" stroke="#020144" stroke-width="2.55372" stroke-miterlimit="10" stroke-linecap="round" stroke-linejoin="round"/>
<path d="M111.687 381.918C114.337 389.571 118.436 397.243 118.919 405.443C119.398 413.587 117.313 421.383 116.084 429.371C115.338 434.218 114.984 439.035 114.829 443.885" stroke="#020144" stroke-width="2.55372" stroke-miterlimit="10" stroke-linecap="round" stroke-linejoin="round"/>
<path d="M111.546 351.323C111.627 351.67 111.685 351.934 111.703 352.051C112.217 355.308 112.456 358.618 112.609 361.91C112.932 368.851 112.417 375.268 111.686 381.917" stroke="#020144" stroke-width="2.55372" stroke-miterlimit="10" stroke-linecap="round" stroke-linejoin="round"/>
<path d="M35.1445 350.828C38.8174 358.958 45.853 377.546 44.0997 385.753C42.23 394.506 39.6738 394.966 39.6738 396.014C39.6738 400.672 38.0509 426.748 37.5172 443.884" stroke="#020144" stroke-width="2.55372" stroke-miterlimit="10" stroke-linecap="round" stroke-linejoin="round"/>
<path d="M195.69 248.014C197.434 251.337 198.46 254.952 199.046 258.447C199.952 263.855 199.803 268.972 199.624 272.267C199.592 272.847 199.526 273.664 199.425 274.673C199.041 278.499 198.155 285.096 196.764 292.102C194.6 302.996 191.212 314.88 186.581 318.875C183.075 321.9 176.21 323.012 169.258 321.787C166.818 321.356 164.368 320.638 162.048 319.613C153.557 315.862 149.587 309.322 146.2 303.078" stroke="#020144" stroke-width="2.55372" stroke-miterlimit="10" stroke-linecap="round" stroke-linejoin="round"/>
<path d="M195.69 248.014C192.924 249.219 188.877 246.486 186.212 246.634C184.028 246.756 182.777 249.166 180.621 249.645C176.426 250.578 172.225 248.187 168.026 248.355C166.149 248.43 164.782 250.384 162.926 250.075C161.546 249.845 154.361 245.624 153.833 246.02C153.785 246.055 157.986 253.014 157.274 256.219C156.934 257.748 153.496 259.916 152.912 262.548C152.396 264.867 154.018 266.159 154.018 268.139C154.018 268.749 152.237 270.819 151.928 271.641C151.32 273.262 151.096 276.451 150.639 279.231C150.324 281.143 149.9 282.862 149.164 283.745C147.585 285.64 146.077 279.656 145.477 278.584C142.615 273.474 137.358 271.269 133.864 276.987C130.423 282.618 135.367 299.488 143.572 295.973" stroke="#020144" stroke-width="2.55372" stroke-miterlimit="10" stroke-linecap="round" stroke-linejoin="round"/>
<path d="M139.407 280.326C137.502 284.528 138.9 287.325 141.686 289.188" stroke="#020144" stroke-width="2.55372" stroke-miterlimit="10" stroke-linecap="round" stroke-linejoin="round"/>
<path d="M183.585 279.64C184.141 287.171 191.126 289.202 185.268 296.879" stroke="#020144" stroke-width="2.55372" stroke-miterlimit="10" stroke-linecap="round" stroke-linejoin="round"/>
<path d="M159.364 282.824C159.364 277.58 163.338 273.329 168.24 273.329C173.143 273.329 177.117 277.58 177.117 282.824C177.117 288.068 173.143 292.319 168.24 292.319C163.338 292.319 159.364 288.068 159.364 282.824Z" stroke="#020144" stroke-width="2.55372" stroke-miterlimit="10" stroke-linecap="round" stroke-linejoin="round"/>
<path d="M185.994 282.824C185.994 277.58 189.968 273.329 194.87 273.329C199.772 273.329 203.746 277.58 203.746 282.824C203.746 288.068 199.772 292.319 194.87 292.319C189.968 292.319 185.994 288.068 185.994 282.824Z" stroke="#020144" stroke-width="2.55372" stroke-miterlimit="10" stroke-linecap="round" stroke-linejoin="round"/>
<path d="M186.151 281.035L176.881 280.637" stroke="#020144" stroke-width="2.55372" stroke-miterlimit="10" stroke-linejoin="round"/>
<path d="M159.56 280.833L150.639 279.231" stroke="#020144" stroke-width="2.55372" stroke-miterlimit="10" stroke-linejoin="round"/>
<path d="M167.431 280.797C167.622 278.823 168.719 277.313 169.883 277.425C171.045 277.538 171.832 279.23 171.64 281.206C171.45 283.18 170.352 284.69 169.19 284.577C168.027 284.464 167.239 282.772 167.431 280.797Z" fill="#020144" stroke="#020144" stroke-width="2.55372" stroke-miterlimit="10" stroke-linecap="round" stroke-linejoin="round"/>
<path d="M96.226 286.081C96.4168 284.106 97.5143 282.597 98.6776 282.709C99.84 282.822 100.627 284.514 100.435 286.489C100.245 288.464 99.147 289.973 97.985 289.861C96.8217 289.748 96.0344 288.056 96.226 286.081Z" fill="#020144" stroke="#020144" stroke-width="2.55372" stroke-miterlimit="10" stroke-linecap="round" stroke-linejoin="round"/>
<path d="M189.451 280.797C189.642 278.823 190.74 277.313 191.902 277.425C193.064 277.538 193.852 279.23 193.661 281.206C193.469 283.18 192.372 284.69 191.209 284.577C190.046 284.464 189.259 282.772 189.451 280.797Z" fill="#020144" stroke="#020144" stroke-width="2.55372" stroke-miterlimit="10" stroke-linecap="round" stroke-linejoin="round"/>
<path d="M320.253 287.523C320.257 285.54 321.207 283.933 322.374 283.934C323.542 283.937 324.486 285.547 324.483 287.532C324.479 289.515 323.529 291.122 322.361 291.12C321.193 291.118 320.249 289.508 320.253 287.523Z" fill="#020144" stroke="#020144" stroke-width="2.55372" stroke-miterlimit="10" stroke-linecap="round" stroke-linejoin="round"/>
<path d="M301.674 288.129C301.678 286.145 302.628 284.539 303.795 284.54C304.963 284.543 305.907 286.153 305.904 288.137C305.9 290.121 304.95 291.728 303.782 291.726C302.614 291.724 301.67 290.114 301.674 288.129Z" fill="#020144" stroke="#020144" stroke-width="2.55372" stroke-miterlimit="10" stroke-linecap="round" stroke-linejoin="round"/>
<path d="M185.112 304.682C182.045 307.75 172.843 305.696 170.083 303.688" stroke="#020144" stroke-width="2.55372" stroke-miterlimit="10" stroke-linecap="round" stroke-linejoin="round"/>
<path d="M199.046 258.446C200.954 256.626 202.976 253.559 202.307 251.549C201.918 250.386 199.864 249.402 199.687 248.338C199.658 248.168 202.713 242.553 202.897 241.493C203.395 238.632 202.79 235.79 201.887 233.054" stroke="#020144" stroke-width="2.55372" stroke-miterlimit="10" stroke-linecap="round" stroke-linejoin="round"/>
<path d="M201.887 233.054C197.895 232.358 193.306 231.954 189.856 231.149C185.534 230.14 181.187 229.221 176.897 228.083C173.77 227.253 170.678 226.306 167.565 225.426C158.314 222.811 149.515 220.068 142.103 227.511C140.921 228.698 140.151 230.032 139.716 231.468C139.23 233.077 139.166 234.815 139.415 236.619" stroke="#020144" stroke-width="2.55372" stroke-miterlimit="10" stroke-linecap="round" stroke-linejoin="round"/>
<path d="M139.716 231.468C129.358 235.779 127.127 246.19 125.569 250.136C121.929 259.352 121.656 271.976 127.252 280.069C137.249 294.529 136.568 308.719 136.439 312.435C136.31 316.196 135.542 319.28 134.286 321.85C128.308 334.08 111.272 334.707 99.2711 341.564C97.7965 342.407 96.3693 343.403 94.998 344.486" stroke="#020144" stroke-width="2.55372" stroke-miterlimit="10" stroke-linecap="round" stroke-linejoin="round"/>
<path d="M169.258 321.787C168.961 323.755 168.595 325.746 169.335 327.625C169.355 327.675 169.376 327.726 169.398 327.776C172.036 333.949 180.988 337.59 186.686 339.676C198.147 343.874 211.042 346.523 219.144 356.504C231.061 371.182 231.523 391.865 232.577 409.834C233.249 421.297 233.476 432.529 233.481 443.886" stroke="#020144" stroke-width="2.55372" stroke-miterlimit="10" stroke-linecap="round" stroke-linejoin="round"/>
<path d="M169.335 327.625C160.555 330.432 144.783 327.933 134.286 321.85" stroke="#020144" stroke-width="2.55372" stroke-miterlimit="10" stroke-linecap="round" stroke-linejoin="round"/>
<path d="M405.351 248.475L422.18 307.534C422.18 307.534 426.212 347.247 405.929 344.176L383.465 355.709C383.465 355.709 391.356 386.667 450.528 375.817C450.528 375.817 467.649 368.887 472.509 363.751C472.509 363.751 462.237 347.54 449.841 341.176C449.841 341.176 458.429 334.348 454.005 333.289C449.582 332.231 450.776 334.691 453.778 329.157C456.779 323.623 472.127 297.213 467.604 281.671C463.082 266.129 458.932 242.538 436.795 241.652C414.658 240.766 405.351 248.475 405.351 248.475Z" stroke="#020144" stroke-width="2.55372" stroke-miterlimit="10" stroke-linejoin="round"/>
<path d="M361.922 285.737C361.922 285.737 332.596 257.195 298.379 259.258C264.162 261.321 295.31 268.978 295.31 268.978C295.31 268.978 317.267 274.345 342.724 271.572" stroke="#020144" stroke-width="2.55372" stroke-miterlimit="10" stroke-linejoin="round"/>
<path d="M402.34 134.163C402.34 124.855 409.886 117.309 419.193 117.309C428.502 117.309 436.048 124.855 436.048 134.163C436.048 143.471 428.502 151.018 419.193 151.018C409.886 151.018 402.34 143.471 402.34 134.163Z" stroke="#5CBA9E" stroke-width="5.10744" stroke-miterlimit="10" stroke-linecap="round" stroke-linejoin="round"/>
<path d="M364.684 115.336C364.684 110.484 368.617 106.551 373.469 106.551C378.322 106.551 382.255 110.484 382.255 115.336C382.255 120.189 378.322 124.122 373.469 124.122C368.617 124.122 364.684 120.189 364.684 115.336Z" stroke="#5CBA9E" stroke-width="5.10744" stroke-miterlimit="10" stroke-linecap="round" stroke-linejoin="round"/>
<path d="M358.588 205.166C358.588 199.027 363.565 194.05 369.705 194.05C375.844 194.05 380.822 199.027 380.822 205.166C380.822 211.306 375.844 216.283 369.705 216.283C363.565 216.283 358.588 211.306 358.588 205.166Z" stroke="#5CBA9E" stroke-width="5.10744" stroke-miterlimit="10" stroke-linecap="round" stroke-linejoin="round"/>
<path d="M166.736 57.9597C166.736 50.9286 172.436 45.2295 179.467 45.2295C186.498 45.2295 192.197 50.9286 192.197 57.9597C192.197 64.99 186.498 70.6903 179.467 70.6903C172.436 70.6903 166.736 64.99 166.736 57.9597Z" stroke="#5CBA9E" stroke-width="5.10744" stroke-miterlimit="10" stroke-linecap="round" stroke-linejoin="round"/>
<path d="M48.0576 112.385C48.0576 93.5964 63.2876 78.3652 82.0776 78.3652C100.866 78.3652 116.097 93.5964 116.097 112.385C116.097 131.174 100.866 146.405 82.0776 146.405C63.2876 146.405 48.0576 131.174 48.0576 112.385Z" fill="#5CBA9E"/>
<path d="M82.078 120.327C85.8921 120.327 88.984 117.235 88.984 113.421C88.984 109.607 85.8921 106.515 82.078 106.515C78.2638 106.515 75.1719 109.607 75.1719 113.421C75.1719 117.235 78.2638 120.327 82.078 120.327Z" stroke="#020144" stroke-width="3.36682" stroke-linecap="round" stroke-linejoin="round"/>
<path d="M93.8184 109.278C97.0777 109.272 100.154 110.81 102.106 113.421" stroke="#020144" stroke-width="3.36682" stroke-linecap="round" stroke-linejoin="round"/>
<path d="M62.0508 113.421C64.0018 110.81 67.0785 109.272 70.3379 109.278" stroke="#020144" stroke-width="3.36682" stroke-linecap="round" stroke-linejoin="round"/>
<path d="M72.1338 126.543C73.9864 122.748 77.8557 120.332 82.0786 120.332C86.301 120.332 90.1704 122.748 92.023 126.543" stroke="#020144" stroke-width="3.36682" stroke-linecap="round" stroke-linejoin="round"/>
<path d="M70.338 109.278C70.3363 109.278 70.3343 109.278 70.3327 109.278C67.3017 109.278 64.8076 106.784 64.8076 103.753C64.8076 100.722 67.3017 98.2275 70.3327 98.2275C72.9738 98.2275 75.264 100.122 75.7592 102.717" stroke="#020144" stroke-width="3.36682" stroke-linecap="round" stroke-linejoin="round"/>
<path d="M88.3965 102.717C88.8917 100.122 91.1819 98.2275 93.8235 98.2275C96.854 98.2275 99.3481 100.722 99.3481 103.753C99.3481 106.784 96.854 109.278 93.8235 109.278C93.8214 109.278 93.8198 109.278 93.8177 109.278" stroke="#020144" stroke-width="3.36682" stroke-linecap="round" stroke-linejoin="round"/>
<path d="M120.476 81.2684C120.476 78.0013 123.125 75.3516 126.393 75.3516C129.661 75.3516 132.31 78.0013 132.31 81.2684C132.31 84.5368 129.661 87.1853 126.393 87.1853C123.125 87.1853 120.476 84.5368 120.476 81.2684Z" fill="#5CBA9E"/>
<path d="M8.61133 181.468C8.61133 170.575 17.4419 161.744 28.3338 161.744C39.2269 161.744 48.0575 170.575 48.0575 181.468C48.0575 192.36 39.2269 201.19 28.3338 201.19C17.4419 201.19 8.61133 192.36 8.61133 181.468Z" fill="#5CBA9E"/>
<path d="M330.379 60.8192C330.379 46.2058 342.226 34.3594 356.838 34.3594C371.451 34.3594 383.298 46.2058 383.298 60.8192C383.298 75.4313 371.451 87.2777 356.838 87.2777C342.226 87.2777 330.379 75.4313 330.379 60.8192Z" fill="#5CBA9E"/>
<path d="M346.91 49.7818V57.3833C346.91 62.8605 351.297 67.3996 356.774 67.4408C356.797 67.4408 356.821 67.4412 356.843 67.4412C362.293 67.4412 366.777 62.9569 366.777 57.5079V49.7818C366.777 49.1762 366.279 48.6777 365.673 48.6777H348.014C347.408 48.6777 346.91 49.1762 346.91 49.7818Z" stroke="#020144" stroke-width="2.55372" stroke-linecap="round" stroke-linejoin="round"/>
<path d="M352.43 72.9592H361.259" stroke="#020144" stroke-width="2.55372" stroke-linecap="round" stroke-linejoin="round"/>
<path d="M356.843 67.4407V72.9592" stroke="#020144" stroke-width="2.55372" stroke-linecap="round" stroke-linejoin="round"/>
<path d="M366.526 59.7147H367.878C370.301 59.7147 372.293 57.722 372.293 55.3003V53.0926C372.293 52.4871 371.795 51.989 371.19 51.989H366.775" stroke="#020144" stroke-width="2.55372" stroke-linecap="round" stroke-linejoin="round"/>
<path d="M347.184 59.7147H345.791C343.369 59.7147 341.376 57.722 341.376 55.3003V53.0926C341.376 52.4871 341.874 51.989 342.48 51.989H346.894" stroke="#020144" stroke-width="2.55372" stroke-linecap="round" stroke-linejoin="round"/>
<path d="M447.164 215.027C447.164 208.987 452.061 204.091 458.102 204.091C464.142 204.091 469.039 208.987 469.039 215.027C469.039 221.068 464.142 225.965 458.102 225.965C452.061 225.965 447.164 221.068 447.164 215.027Z" fill="#5CBA9E"/>
<path d="M265.775 15.4106C265.775 6.99395 272.599 0.17041 281.017 0.17041C289.433 0.17041 296.257 6.99395 296.257 15.4106C296.257 23.8281 289.433 30.652 281.017 30.652C272.599 30.652 265.775 23.8281 265.775 15.4106Z" fill="#5CBA9E"/>
<path d="M195.809 154.897C195.809 124.055 220.811 99.052 251.651 99.052C282.494 99.052 307.496 124.055 307.496 154.897C307.496 185.737 282.494 210.74 251.651 210.74C220.811 210.74 195.809 185.737 195.809 154.897Z" fill="#5CBA9E"/>
<path d="M-0.0166016 443.885H499.184" stroke="#020144" stroke-width="2.55372" stroke-miterlimit="10" stroke-linejoin="round"/>
<path d="M246.143 162.281L243.477 165.285C240.726 168.031 236.993 169.575 233.107 169.575C225.054 169.575 218.428 162.949 218.428 154.896C218.428 146.843 225.054 140.217 233.107 140.217C236.993 140.217 240.726 141.761 243.477 144.508L261.925 165.285C264.676 168.031 268.408 169.575 272.295 169.575C280.348 169.575 286.974 162.949 286.974 154.896C286.974 146.843 280.348 140.217 272.295 140.217C268.408 140.217 264.676 141.761 261.925 144.508L259.259 147.511" stroke="#020144" stroke-width="5.10744" stroke-linecap="round" stroke-linejoin="round"/>
</g>
<defs>
<clipPath id="clip0_221_3116">
<rect width="499.303" height="443.734" fill="white"/>
</clipPath>
</defs>
</svg>
