<svg width="188" height="197" viewBox="0 0 188 197" fill="none" xmlns="http://www.w3.org/2000/svg">
<path d="M122.553 62.1525C122.553 66.4263 122.079 70.5873 121.184 74.5865C120.047 70.0004 118.606 65.5385 116.88 61.2195C116.391 70.8168 114.585 80.0679 111.646 88.7962C110.687 81.6782 109.336 74.6843 107.61 67.8372C106.071 61.7086 104.235 55.7004 102.117 49.8277C97.6286 62.2691 94.3969 75.3126 92.5798 88.7999C89.6416 80.0717 87.8395 70.8168 87.3466 61.2195C82.6214 73.0478 80.018 85.952 80.018 99.4694C80.018 100.226 80.0255 100.978 80.0443 101.73C73.4643 94.635 65.8948 88.4689 57.5578 83.4464C65.8948 93.4838 72.362 105.128 76.4251 117.844C73.009 118.491 69.4839 118.826 65.8798 118.826C34.5786 118.826 9.20654 93.4537 9.20654 62.1525C9.20654 30.8513 34.5786 5.47931 65.8798 5.47931C97.1809 5.47931 122.553 30.8551 122.553 62.1525Z" fill="#FCF9DB"/>
<path d="M111.646 88.7962C109.216 96.027 106.003 102.893 102.113 109.3C99.2124 104.522 96.6917 99.492 94.5849 94.2438H94.5887C101.387 87.1483 106.067 78.01 107.61 67.8372C109.336 74.6843 110.687 81.6782 111.646 88.7962Z" fill="#5CBA9E"/>
<path d="M124.186 101.734C125.593 100.21 127.052 98.7282 128.554 97.2986C124.727 104.266 122.553 112.264 122.553 120.774C122.553 122.031 122.598 123.273 122.692 124.503H108.163C112.467 116.188 117.869 108.536 124.186 101.734Z" fill="#5CBA9E"/>
<path d="M84.9726 113.653C84.9726 117.381 84.555 121.015 83.765 124.503H78.3098C74.5326 109.183 67.3281 95.2107 57.5577 83.4464C65.8947 88.4689 73.4642 94.6388 80.0404 101.734C81.5904 103.397 83.0802 105.113 84.5061 106.873C84.8146 109.086 84.9726 111.354 84.9726 113.653Z" fill="#BEE3D8"/>
<path d="M146.672 83.4464C136.898 95.2107 129.697 109.183 125.916 124.503H122.692C122.598 123.273 122.553 122.031 122.553 120.775C122.553 112.265 124.727 104.266 128.554 97.2987C134.046 92.0392 140.122 87.3892 146.672 83.4464Z" fill="#BEE3D8"/>
<path d="M107.61 67.8334C106.067 78.0101 101.387 87.1484 94.5888 94.2438H94.585C93.8664 92.453 93.1968 90.6396 92.5798 88.7999C94.3969 75.3126 97.6286 62.2692 102.117 49.8277C104.235 55.7004 106.071 61.7086 107.61 67.8334Z" fill="#BEE3D8"/>
<path d="M133.192 137.542L126.522 168.855C126.522 170.522 125.739 172.004 124.528 172.956C123.636 173.659 122.519 174.073 121.304 174.073H82.6777C79.7959 174.073 77.4596 171.737 77.4596 168.855L70.7892 137.542H133.192Z" fill="#BEE3D8"/>
<path d="M125.916 124.503H129.637C132.523 124.503 134.859 126.843 134.859 129.721L133.192 137.542L126.522 168.855C126.522 170.522 125.739 172.004 124.528 172.956C123.636 173.659 122.519 174.073 121.304 174.073H82.6777C79.7959 174.073 77.4596 171.737 77.4596 168.855L70.7893 137.542L69.1227 129.721C69.1227 126.843 71.4627 124.503 74.3408 124.503H125.916Z" stroke="#020144" stroke-width="2.2573" stroke-linecap="round" stroke-linejoin="round"/>
<path d="M128.553 97.2949C134.046 92.0392 140.122 87.3892 146.672 83.4464C136.898 95.2107 129.697 109.183 125.916 124.503" stroke="#020144" stroke-width="2.2573" stroke-linecap="round" stroke-linejoin="round"/>
<path d="M108.163 124.503C112.467 116.188 117.869 108.536 124.186 101.734C125.593 100.21 127.052 98.7282 128.554 97.2986" stroke="#020144" stroke-width="2.2573" stroke-linecap="round" stroke-linejoin="round"/>
<path d="M78.3098 124.503C74.5326 109.183 67.3281 95.2107 57.5577 83.4464C65.8947 88.4689 73.4642 94.6388 80.0404 101.734C81.5904 103.397 83.0803 105.113 84.5061 106.873C88.0463 111.226 91.2366 115.876 94.0319 120.775C94.7354 122.001 95.4126 123.246 96.0635 124.503" stroke="#020144" stroke-width="2.2573" stroke-linecap="round" stroke-linejoin="round"/>
<path d="M116.88 61.2195C121.605 73.0478 124.208 85.952 124.208 99.4694C124.208 100.226 124.201 100.978 124.182 101.731" stroke="#020144" stroke-width="2.2573" stroke-linecap="round" stroke-linejoin="round"/>
<path d="M80.0442 101.731C80.0254 100.978 80.0179 100.226 80.0179 99.4694C80.0179 85.952 82.6213 73.0478 87.3465 61.2195" stroke="#020144" stroke-width="2.2573" stroke-linecap="round" stroke-linejoin="round"/>
<path d="M102.113 109.3C99.2124 104.522 96.6917 99.492 94.5849 94.2438C93.8663 92.453 93.1967 90.6397 92.5797 88.8C89.6414 80.0717 87.8393 70.8168 87.3465 61.2195" stroke="#020144" stroke-width="2.2573" stroke-linecap="round" stroke-linejoin="round"/>
<path d="M111.646 88.7962C114.585 80.068 116.39 70.8168 116.88 61.2195" stroke="#020144" stroke-width="2.2573" stroke-linecap="round" stroke-linejoin="round"/>
<path d="M94.0319 120.775C96.9739 117.148 99.6789 113.314 102.113 109.3C106.003 102.893 109.216 96.027 111.646 88.7999" stroke="#020144" stroke-width="2.2573" stroke-linecap="round" stroke-linejoin="round"/>
<path d="M107.61 67.8372C109.336 74.6843 110.687 81.6782 111.646 88.7962" stroke="#020144" stroke-width="2.2573" stroke-linecap="round" stroke-linejoin="round"/>
<path d="M92.5798 88.7999C94.3969 75.3126 97.6286 62.2692 102.117 49.8277C104.235 55.7004 106.071 61.7086 107.61 67.8334" stroke="#020144" stroke-width="2.2573" stroke-linecap="round" stroke-linejoin="round"/>
<path d="M133.192 137.542H70.7892" stroke="#020144" stroke-width="2.2573" stroke-linecap="round" stroke-linejoin="round"/>
<path d="M107.61 67.8334C106.067 78.0101 101.387 87.1484 94.5887 94.2438" stroke="#020144" stroke-width="2.2573" stroke-linecap="round" stroke-linejoin="round"/>
<path d="M84.5061 106.873C84.8146 109.085 84.9726 111.354 84.9726 113.653C84.9726 117.381 84.555 121.015 83.765 124.503" stroke="#020144" stroke-width="2.2573" stroke-linecap="round" stroke-linejoin="round"/>
<path d="M122.692 124.503C122.598 123.273 122.553 122.031 122.553 120.774C122.553 112.264 124.727 104.266 128.554 97.2986" stroke="#020144" stroke-width="2.2573" stroke-linecap="round" stroke-linejoin="round"/>
</svg>
