<svg width="177" height="188" viewBox="0 0 177 188" fill="none" xmlns="http://www.w3.org/2000/svg">
<path d="M93.1644 4.49823C50.846 4.49823 16.5388 38.8055 16.5388 81.1238C16.5388 88.6515 17.6247 95.9235 19.6459 102.796C20.97 102.484 22.3536 102.253 23.7828 102.113C34.2704 101.08 43.4024 105.329 44.0154 111.525L24.8967 113.41L26.3924 113.855L41.2481 118.289C38.642 121.001 34.4841 123.078 29.7272 124.118C32.7537 128.577 36.239 132.7 40.1132 136.417C41.5739 132.991 43.5355 129.824 45.9 127.015H54.7938C55.7326 125.817 56.8535 124.556 58.1215 123.281C59.3616 122.027 60.7452 120.762 62.2409 119.519C63.565 118.419 64.8891 117.41 66.1887 116.506C72.2206 112.306 77.6361 110.369 79.3035 112.033C79.3455 112.072 79.377 112.107 79.4086 112.145C80.0216 112.884 79.9305 114.131 79.2614 115.701C78.0985 118.426 75.1806 122.111 71.1803 125.772C70.7249 126.188 70.259 126.602 69.7756 127.015H103.176C108.647 133.516 111.943 141.913 111.943 151.073C111.943 152.569 111.856 154.047 111.684 155.497C145.056 147.216 169.79 117.06 169.79 81.1238C169.79 38.8055 135.486 4.49823 93.1644 4.49823ZM97.4589 35.779C105.071 29.4563 112.756 26.153 114.627 28.4019C116.494 30.6507 111.835 37.6005 104.223 43.9232C96.6112 50.2459 88.9259 53.5456 87.0553 51.2967C85.1883 49.0479 89.8471 42.0982 97.4589 35.779ZM82.3159 63.4587C84.246 57.9382 93.3816 56.1062 102.724 59.3709C103.102 59.504 103.473 59.6406 103.838 59.7842C112.539 63.203 118 69.9776 116.15 75.274C114.448 80.157 107.102 82.1501 98.9687 80.2901C97.9038 80.0484 96.8249 79.7401 95.7425 79.3618C94.8528 79.0501 93.9911 78.7033 93.1644 78.3285C85.3249 74.759 80.5715 68.4539 82.3159 63.4587ZM38.6035 67.7077C38.6035 67.7077 38.579 67.6692 38.5649 67.6482C34.386 61.2729 39.826 50.2003 50.6184 43.1245C57.8903 38.3606 66.1536 36.3499 72.049 37.9087L58.2406 54.7541L77.9163 41.8565C81.9096 47.9445 77.1247 58.32 67.2816 65.4064C66.8192 65.7391 66.3463 66.0614 65.8629 66.3802C64.3286 67.3855 62.7629 68.2612 61.1971 69.0003C51.7638 73.463 42.2255 73.1232 38.6035 67.7077ZM62.5071 109.665C60.8748 110.236 59.0813 110.551 57.1933 110.551C49.7426 110.551 43.7037 105.626 43.7037 99.549C43.7037 93.4714 49.7426 88.5464 57.1933 88.5464C59.0113 88.5464 60.7417 88.8406 62.325 89.3696C67.2325 91.0159 70.6864 94.9532 70.6864 99.549C70.6864 104.145 67.3166 107.984 62.5071 109.665ZM135.879 121.442L119.667 106.541L126.33 124.101C121.282 123.414 115.621 120.493 110.864 116.121C108.808 114.23 107.05 112.187 105.621 110.096C103.592 111.662 100.619 112.394 97.1997 112.268C94.6776 112.177 91.9138 111.62 89.1115 110.583C87.8505 110.121 86.579 109.557 85.3179 108.895C84.838 108.642 84.3686 108.383 83.9098 108.113C82.1093 107.052 80.4804 105.858 79.0618 104.59C73.7899 99.8677 71.4045 94.0704 73.5798 89.9195C74.2173 88.704 75.1911 87.7337 76.4241 87.0016C80.8272 84.406 88.5231 84.9384 95.8616 88.7916C96.0227 88.8757 96.1839 88.9632 96.345 89.0508C98.6009 90.2803 100.608 91.72 102.307 93.2683C102.619 92.6798 103 92.1333 103.456 91.6394C108.286 86.3851 119.58 88.7881 128.473 96.9603C137.367 105.136 140.709 116.188 135.879 121.442ZM130.729 88.9913C120.897 87.8703 113.078 85.6285 113.264 83.9786C113.453 82.3323 121.576 81.9049 131.409 83.0258C141.241 84.1433 149.06 86.3886 148.871 88.035C148.682 89.6848 140.562 90.1122 130.729 88.9913Z" fill="#DEF1EC"/>
<path d="M102.307 93.2685C102.619 92.68 103 92.1336 103.456 91.6397C108.286 86.3854 119.58 88.7883 128.473 96.9606C137.367 105.136 140.709 116.188 135.878 121.442L119.667 106.541L126.33 124.101C121.282 123.414 115.621 120.493 110.864 116.121C108.808 114.23 107.05 112.188 105.621 110.096C104.752 108.832 104.006 107.55 103.389 106.271C101.028 101.399 100.534 96.6208 102.307 93.2685Z" fill="#BEE3D8"/>
<path d="M103.389 106.271C104.006 107.55 104.752 108.832 105.621 110.096C103.592 111.662 100.619 112.394 97.1997 112.268C99.0737 109.687 101.218 107.739 103.389 106.271Z" fill="#01BD9C"/>
<path d="M102.307 93.2683C100.534 96.6206 101.028 101.399 103.389 106.271C101.217 107.739 99.0737 109.686 97.1997 112.268C94.6776 112.177 91.9138 111.62 89.1115 110.583C87.8505 110.121 86.5789 109.557 85.3179 108.895C84.838 108.642 84.3686 108.383 83.9097 108.114C82.1092 107.052 80.4804 105.858 79.0617 104.59C73.7899 99.8677 71.4044 94.0705 73.5797 89.9196C74.2172 88.7041 75.191 87.7338 76.4241 87.0017C79.7553 85.0365 84.9711 84.8649 90.4951 86.5708C92.2676 87.1137 94.0751 87.8529 95.8615 88.7916C96.0227 88.8757 96.1838 88.9633 96.3449 89.0508C98.6008 90.2804 100.608 91.72 102.307 93.2683Z" fill="#01BD9C"/>
<path d="M66.1887 116.507C72.2206 112.307 77.6361 110.369 79.3035 112.033C79.3455 112.072 79.377 112.107 79.4085 112.145C80.0215 112.885 79.9305 114.132 79.2614 115.701C78.0949 118.426 75.1806 122.115 71.1768 125.768C70.7249 126.185 70.2555 126.602 69.7756 127.015C69.5234 127.232 69.2677 127.45 69.0085 127.663C61.3967 133.986 53.7114 137.289 51.8408 135.04C50.7164 133.681 51.9599 130.62 54.7938 127.015C55.7326 125.817 56.8535 124.556 58.1215 123.281C59.3615 122.027 60.7452 120.763 62.2409 119.519C63.565 118.419 64.8891 117.41 66.1887 116.507Z" fill="#BEE3D8"/>
<path d="M67.2816 65.4065C66.8192 65.7393 66.3463 66.0616 65.8629 66.3803C64.3287 67.3857 62.7629 68.2614 61.1971 69.0005C51.7638 73.4632 42.2255 73.1234 38.6035 67.7079C38.593 67.6904 38.579 67.6694 38.565 67.6484C34.386 61.2731 39.826 50.2005 50.6184 43.1247C57.8904 38.3608 66.1537 36.3501 72.049 37.9089L58.2407 54.7543L77.9163 41.8567C81.9096 47.9447 77.1247 58.3202 67.2816 65.4065Z" fill="#BEE3D8"/>
<path d="M69.2397 78.206C69.6461 82.3429 66.9418 86.3537 62.325 89.3697C60.7417 88.8408 59.0113 88.5465 57.1933 88.5465C51.974 88.5465 47.4483 90.9635 45.2064 94.4979H45.2029C33.139 95.0864 23.1278 90.0668 22.4132 82.8228C21.7792 76.3845 28.6869 70.2405 38.6035 67.7079C42.2255 73.1233 51.7638 73.4631 61.1971 69.0005C65.8069 71.0812 68.8544 74.3248 69.2397 78.206Z" fill="#01BD9C"/>
<path d="M62.5071 109.665C60.8748 110.236 59.0813 110.552 57.1933 110.552C49.7426 110.552 43.7037 105.627 43.7037 99.5491C43.7037 97.7276 44.2466 96.0111 45.2064 94.4979C47.4482 90.9635 51.974 88.5465 57.1933 88.5465C59.0113 88.5465 60.7417 88.8408 62.325 89.3697C67.2325 91.016 70.6864 94.9533 70.6864 99.5491C70.6864 104.145 67.3166 107.984 62.5071 109.665Z" fill="#BEE3D8"/>
<path d="M44.0154 111.525L24.8967 113.41L26.3924 113.855L41.2481 118.29C37.98 121.687 32.2773 124.09 26.0106 124.707C15.523 125.74 6.39096 121.491 5.77796 115.295C5.16846 109.098 13.2951 103.147 23.7828 102.113C34.2704 101.08 43.4024 105.329 44.0154 111.525Z" fill="#01BD9C"/>
<path d="M69.7756 127.015H103.176C108.647 133.517 111.943 141.913 111.943 151.073C111.943 164.86 104.482 176.903 93.3781 183.391H55.701C44.5934 176.907 37.1323 164.86 37.1323 151.073C37.1323 141.913 40.4285 133.517 45.9 127.015H54.7903" stroke="#020144" stroke-width="2.10173" stroke-linecap="round" stroke-linejoin="round"/>
<path d="M38.6035 67.7078C38.593 67.6903 38.579 67.6693 38.565 67.6483C34.386 61.273 39.826 50.2004 50.6184 43.1246C57.8904 38.3607 66.1537 36.35 72.049 37.9088L58.2407 54.7541L77.9163 41.8565C81.9096 47.9445 77.1247 58.3201 67.2816 65.4064C66.8192 65.7392 66.3463 66.0614 65.8629 66.3802C64.3287 67.3855 62.7629 68.2613 61.1971 69.0004C51.7638 73.463 42.2255 73.1233 38.6035 67.7078Z" stroke="#020144" stroke-width="2.10173" stroke-linecap="round" stroke-linejoin="round"/>
<path d="M61.1971 69.0005C65.8069 71.0813 68.8544 74.3249 69.2397 78.2061C69.646 82.343 66.9418 86.3538 62.325 89.3698" stroke="#020144" stroke-width="2.10173" stroke-linecap="round" stroke-linejoin="round"/>
<path d="M38.6035 67.7078C28.6869 70.2404 21.7792 76.3845 22.4132 82.8228C23.1278 90.0667 33.139 95.0864 45.2029 94.4979" stroke="#020144" stroke-width="2.10173" stroke-linecap="round" stroke-linejoin="round"/>
<path d="M24.8967 113.41L26.3924 113.855L41.2481 118.29C37.98 121.687 32.2773 124.09 26.0106 124.707C15.523 125.74 6.39096 121.491 5.77796 115.295C5.16846 109.098 13.2951 103.147 23.7828 102.113C34.2704 101.08 43.4024 105.329 44.0154 111.525L24.8967 113.41Z" stroke="#020144" stroke-width="2.10173" stroke-linecap="round" stroke-linejoin="round"/>
<path d="M79.0618 104.59C80.4804 105.858 82.1093 107.052 83.9098 108.114C84.3686 108.383 84.838 108.642 85.3179 108.895C86.5789 109.557 87.8505 110.121 89.1115 110.583C91.9138 111.62 94.6776 112.177 97.1997 112.268C100.619 112.394 103.592 111.662 105.621 110.096" stroke="#020144" stroke-width="2.10173" stroke-linecap="round" stroke-linejoin="round"/>
<path d="M102.31 93.2719H102.307C100.608 91.7202 98.6008 90.2805 96.345 89.051C96.1838 88.9634 96.0227 88.8758 95.8616 88.7917C94.0751 87.853 92.2676 87.1139 90.4951 86.5709C84.9711 84.865 79.7553 85.0367 76.4241 87.0018C75.191 87.7339 74.2172 88.7042 73.5797 89.9197C71.4044 94.0706 73.7899 99.8679 79.0617 104.586" stroke="#020144" stroke-width="2.10173" stroke-linecap="round" stroke-linejoin="round"/>
<path d="M103.838 59.7843C112.539 63.2031 118 69.9777 116.15 75.274C114.448 80.1571 107.102 82.1502 98.9686 80.2902C97.9037 80.0485 96.8248 79.7402 95.7424 79.3619C94.8527 79.0502 93.991 78.7034 93.1643 78.3286C85.3249 74.7591 80.5715 68.4539 82.3159 63.4588C84.246 57.9383 93.3815 56.1063 102.724 59.371C103.102 59.5041 103.473 59.6407 103.838 59.7843Z" stroke="#020144" stroke-width="2.10173" stroke-linecap="round" stroke-linejoin="round"/>
<path d="M114.627 28.402C116.494 30.6509 111.835 37.6006 104.223 43.9233C96.6112 50.246 88.9259 53.5457 87.0554 51.2969C85.1883 49.048 89.8472 42.0983 97.4589 35.7791C105.071 29.4564 112.756 26.1532 114.627 28.402Z" stroke="#020144" stroke-width="2.10173" stroke-linecap="round" stroke-linejoin="round"/>
<path d="M148.871 88.0352C148.682 89.685 140.562 90.1124 130.729 88.9915C120.897 87.8705 113.078 85.6287 113.264 83.9788C113.453 82.3325 121.576 81.9051 131.409 83.0261C141.242 84.1435 149.06 86.3888 148.871 88.0352Z" stroke="#020144" stroke-width="2.10173" stroke-linecap="round" stroke-linejoin="round"/>
<path d="M79.3035 112.037C79.3455 112.072 79.377 112.107 79.4085 112.145C80.0215 112.885 79.9305 114.132 79.2614 115.701C78.0949 118.426 75.1806 122.115 71.1768 125.768C70.7249 126.185 70.2555 126.602 69.7756 127.015C69.5234 127.232 69.2677 127.45 69.0085 127.663C61.3967 133.986 53.7114 137.289 51.8408 135.04C50.7164 133.681 51.9599 130.62 54.7938 127.015C55.7326 125.817 56.8535 124.556 58.1215 123.281C59.3615 122.027 60.7452 120.763 62.2409 119.519C63.565 118.419 64.8891 117.41 66.1887 116.507C72.2206 112.307 77.6361 110.369 79.3035 112.033" stroke="#020144" stroke-width="2.10173" stroke-linecap="round" stroke-linejoin="round"/>
<path d="M102.307 93.2685C102.619 92.68 103 92.1336 103.456 91.6397C108.286 86.3854 119.58 88.7883 128.473 96.9606C137.367 105.136 140.709 116.188 135.878 121.442L119.667 106.541L126.33 124.101C121.282 123.414 115.621 120.493 110.864 116.121C108.808 114.23 107.05 112.188 105.621 110.096C104.752 108.832 104.006 107.55 103.389 106.271C101.028 101.399 100.534 96.6208 102.307 93.2685Z" stroke="#020144" stroke-width="2.10173" stroke-linecap="round" stroke-linejoin="round"/>
<path d="M62.325 89.3697C67.2325 91.016 70.6864 94.9533 70.6864 99.5491C70.6864 104.145 67.3166 107.984 62.5071 109.665C60.8748 110.236 59.0813 110.552 57.1933 110.552C49.7426 110.552 43.7037 105.627 43.7037 99.5491C43.7037 97.7276 44.2466 96.0111 45.2064 94.4979C47.4482 90.9635 51.974 88.5465 57.1933 88.5465C59.0113 88.5465 60.7417 88.8408 62.325 89.3697Z" stroke="#020144" stroke-width="2.10173" stroke-linecap="round" stroke-linejoin="round"/>
<path d="M104.461 43.7272C105.151 46.561 105.27 51.4335 103.838 59.7844" stroke="#020144" stroke-width="2.10173" stroke-linecap="round" stroke-linejoin="round"/>
<path d="M83.0586 127.015C85.2829 121.155 87.2936 115.687 89.1116 110.587" stroke="#020144" stroke-width="2.10173" stroke-linecap="round" stroke-linejoin="round"/>
<path d="M98.9686 80.2902C98.191 83.0225 97.3188 85.9404 96.345 89.0509" stroke="#020144" stroke-width="2.10173" stroke-linecap="round" stroke-linejoin="round"/>
<path d="M91.7002 127.015C92.5549 120.619 94.6076 115.841 97.1962 112.272C97.1962 112.272 97.1962 112.268 97.1997 112.268C99.0738 109.686 101.218 107.739 103.389 106.271" stroke="#020144" stroke-width="2.10173" stroke-linecap="round" stroke-linejoin="round"/>
<path d="M90.4952 86.5674C91.511 83.3798 92.4113 80.6195 93.1644 78.3286" stroke="#020144" stroke-width="2.10173" stroke-linecap="round" stroke-linejoin="round"/>
<path d="M78.5258 127.015C80.3929 120.237 82.2003 113.904 83.9097 108.114" stroke="#020144" stroke-width="2.10173" stroke-linecap="round" stroke-linejoin="round"/>
<path d="M79.0618 104.586C79.2159 106.968 79.2965 109.445 79.3035 112.033" stroke="#020144" stroke-width="2.10173" stroke-linecap="round" stroke-linejoin="round"/>
<path d="M79.2614 115.69V115.701C79.1703 119.277 78.9357 123.046 78.5258 127.015" stroke="#020144" stroke-width="2.10173" stroke-linecap="round" stroke-linejoin="round"/>
<path d="M67.278 65.4031C67.278 65.4031 67.278 65.4066 67.2815 65.4066C70.3711 70.0514 73.972 77.0957 76.424 87.0019" stroke="#020144" stroke-width="2.10173" stroke-linecap="round" stroke-linejoin="round"/>
<path d="M66.1922 116.51L66.1887 116.507L62.5071 109.665V109.662" stroke="#020144" stroke-width="2.10173" stroke-linecap="round" stroke-linejoin="round"/>
<path d="M71.8493 127.015L71.1803 125.772" stroke="#020144" stroke-width="2.10173" stroke-linecap="round" stroke-linejoin="round"/>
<path d="M26.3925 113.855C34.0778 113.112 50.734 112.864 58.1216 123.281" stroke="#020144" stroke-width="2.10173" stroke-linecap="round" stroke-linejoin="round"/>
</svg>
