<svg width="191" height="212" viewBox="0 0 191 212" fill="none" xmlns="http://www.w3.org/2000/svg">
<path d="M84.4687 70.1589C84.4687 70.1589 88.6102 71.9205 90.639 75.5338C90.6809 76.0233 90.7195 76.5095 90.7582 76.999C90.9127 76.9314 91.0705 76.8638 91.2283 76.7994C93.7724 75.727 96.4615 74.7802 99.1441 73.9525C96.6644 67.6502 91.7082 52.0699 99.7527 44.502C96.7674 44.1156 93.7241 43.9159 90.6358 43.9159C89.5086 43.9159 88.3912 43.9417 87.2769 43.9932C81.1195 44.283 75.1714 45.3618 69.5293 47.1331C73.616 51.4613 76.8847 57.1421 78.862 64.5329C81.1743 66.0078 82.9294 67.8918 84.4719 70.1589H84.4687Z" fill="#DFF1FD"/>
<path d="M106.828 117.605C125.158 105.081 150.86 121.035 159.865 127.469C160.663 123.225 161.082 118.842 161.082 114.362C161.082 102.862 158.325 92.0062 153.44 82.4158C125.825 83.3948 101.372 110.311 92.3425 120.784C90.0431 123.45 88.7421 125.051 88.6423 124.89C81.8537 114.05 86.3075 104.704 92.0462 98.2827C97.2021 92.5118 103.398 89.1046 103.398 89.1046C116.483 68.7871 143.08 73.2281 143.08 73.2281C144.278 72.5711 145.473 72.0462 146.658 71.6468C138.629 61.1355 127.709 52.946 115.085 48.2732C108.47 54.5981 103.06 62.8197 100.867 73.4342C111.665 70.2846 121.883 69.0029 121.883 69.0029C105.147 74.3906 77.6253 109.206 77.6253 109.206C64.9144 97.4712 76.102 90.1609 76.102 90.1609C76.3564 88.7665 76.9265 87.4525 77.7541 86.2159C73.3293 78.2712 65.1366 65.702 53.0472 55.4064C53.0472 55.4064 53.0451 55.4053 53.0408 55.4032C52.8991 55.284 52.7574 55.1616 52.6157 55.0457C46.8061 58.7781 41.5794 63.3382 37.1062 68.5617C43.3184 67.5054 50.0265 67.7566 56.2579 70.8224C75.3968 80.2389 63.5135 99.5322 63.5135 99.5322C62.3026 98.9848 40.1785 90.8501 26.0635 86.1515C22.2828 94.7886 20.1863 104.331 20.1863 114.362C20.1863 114.971 20.1927 115.579 20.2088 116.188C28.6624 114.794 41.1704 113.412 50.4129 115.341C48.6385 112.337 47.74 110.401 47.74 110.401L42.655 107.86C42.655 107.86 65.7807 105.355 75.561 114.816C75.8605 115.109 76.1503 115.409 76.4241 115.724C85.541 126.162 77.7734 143.02 77.6349 143.32C74.0989 141.381 70.8657 139.069 67.9415 136.58C67.5809 137.62 67.1107 138.728 66.5214 139.913C66.5214 139.913 62.0353 137.227 55.4303 133.736C53.4852 142.988 38.4008 160.816 38.0852 161.187C38.1464 160.926 39.7566 154.147 37.6537 147.912C35.5089 141.558 27.4612 123.164 44.4133 129.034C44.4133 129.034 44.671 128.831 45.1122 128.548C37.0869 124.729 28.0505 120.977 20.3473 119.148C22.0606 144.714 37.4186 166.545 59.1982 177.421C59.166 176.87 59.1531 176.316 59.1531 175.759V146.891H122.115V175.759C122.115 176.316 122.102 176.87 122.07 177.421C140.999 167.969 155.076 150.244 159.562 128.983C143.463 126.377 108.39 137.939 108.39 137.939C108.39 137.939 84.2593 133.021 106.828 117.605Z" fill="#DFF1FD"/>
<path d="M122.115 146.891V175.759C122.115 193.146 108.019 207.242 90.6357 207.242C73.252 207.242 59.1531 193.146 59.1531 175.759V146.891H122.115Z" fill="#BEE3FB"/>
<path d="M143.08 73.2282C165.172 61.097 185.544 94.5827 185.811 95.0271C146.774 60.4142 104.825 106.308 92.3425 120.784C90.0431 123.45 88.7421 125.051 88.6423 124.89C81.8537 114.05 86.3075 104.704 92.0462 98.2829C97.2021 92.5119 103.398 89.1048 103.398 89.1048C116.483 68.7873 143.08 73.2282 143.08 73.2282Z" fill="#5CBA9E"/>
<path d="M163.133 129.93C149.498 124.391 108.39 137.939 108.39 137.939C108.39 137.939 84.2593 133.021 106.828 117.605C129.258 102.279 162.724 129.595 163.133 129.93Z" fill="#5CBA9E"/>
<path d="M110.753 40.3221C110.753 40.3221 114.492 21.9691 155.958 28.426C155.958 28.426 108.573 36.1388 100.867 73.4343C100.294 73.6017 99.7204 73.7724 99.1439 73.9528C95.9267 65.7794 88.5488 42.0064 110.753 40.3221Z" fill="#5CBA9E"/>
<path d="M78.8586 64.533C81.1708 66.008 82.926 67.8919 84.4685 70.1591C84.4685 70.1591 88.61 71.9206 90.6388 75.5339C90.6807 76.0202 90.7193 76.5097 90.758 76.9992C85.1352 79.4145 80.2595 82.4545 77.754 86.2127C73.3292 78.2712 65.1365 65.702 53.0471 55.4064C53.2597 55.5449 60.1739 59.9826 68.505 61.1194C72.9782 61.7281 76.2694 62.8745 78.8586 64.533Z" fill="#5CBA9E"/>
<path d="M61.1883 121.569C61.1883 121.569 72.3245 124.014 67.9415 136.58C67.5808 137.62 67.1106 138.728 66.5213 139.913C66.5213 139.913 62.0353 137.227 55.4302 133.736C55.7394 132.264 55.7169 131.012 55.2499 130.078C52.4578 124.49 47.0347 127.305 45.1121 128.548C33.4317 122.993 19.6162 117.573 10.8793 118.021C10.8793 118.021 35.1224 112.15 50.4129 115.341C55.2531 116.352 59.1949 118.269 61.1883 121.569Z" fill="#5CBA9E"/>
<path d="M56.2579 70.8224C75.3967 80.2389 63.5135 99.5323 63.5135 99.5323C61.8131 98.7626 18.8272 83.0181 14.776 82.8635C10.7247 82.7089 10.7183 87.8036 10.7183 87.8036C10.7183 87.8036 6.39973 76.9992 13.5007 78.5417C13.5007 78.5417 37.1191 61.4092 56.2579 70.8224Z" fill="#5CBA9E"/>
<path d="M93.6178 146.891H122.115V175.759C122.115 193.146 108.019 207.242 90.6357 207.242C73.252 207.242 59.1531 193.146 59.1531 175.759V146.891H93.6178Z" stroke="#020144" stroke-width="1.93224" stroke-linecap="round" stroke-linejoin="round"/>
<path d="M100.867 73.4342C108.573 36.1388 155.958 28.4259 155.958 28.4259C114.492 21.969 110.753 40.3221 110.753 40.3221C88.5488 42.0063 95.9267 65.7793 99.1439 73.9527" stroke="#020144" stroke-width="1.93224" stroke-linecap="round" stroke-linejoin="round"/>
<path d="M77.7541 86.216C76.9265 87.4526 76.3565 88.7666 76.102 90.161C76.102 90.161 64.9144 97.4713 77.6253 109.206C77.6253 109.206 83.6603 101.571 91.7983 92.8983C101.038 83.0536 112.985 71.8691 121.883 69.003C121.883 69.003 111.665 70.2847 100.867 73.4343C100.294 73.6017 99.7204 73.7724 99.144 73.9527C96.4614 74.7804 93.7724 75.7272 91.2283 76.7996C91.0705 76.864 90.9127 76.9316 90.7581 76.9992C85.1353 79.4145 80.2596 82.4546 77.7541 86.2128" stroke="#020144" stroke-width="1.93224" stroke-linecap="round" stroke-linejoin="round"/>
<path d="M55.4302 133.736C62.0353 137.227 66.5213 139.913 66.5213 139.913C67.1106 138.728 67.5808 137.62 67.9415 136.58C72.3245 124.014 61.1883 121.569 61.1883 121.569C59.1949 118.269 55.2531 116.352 50.4129 115.341C35.1224 112.15 10.8793 118.021 10.8793 118.021C19.6162 117.573 33.4317 122.993 45.1121 128.548H45.1153" stroke="#020144" stroke-width="1.93224" stroke-linecap="round" stroke-linejoin="round"/>
<path d="M79.8537 69.0062C79.5736 67.4507 79.2386 65.9597 78.8586 64.533C66.7435 19.2446 6.13562 38.2288 6.13562 38.2288C25.5997 37.4237 41.1929 45.3169 53.0407 55.4032" stroke="#020144" stroke-width="1.93224" stroke-linecap="round" stroke-linejoin="round"/>
<path d="M53.0408 55.4032C53.0408 55.4032 53.044 55.4064 53.0472 55.4064C53.2598 55.5449 60.1739 59.9826 68.5051 61.1194C72.9782 61.7281 76.2695 62.8745 78.8587 64.533C81.1709 66.008 82.9261 67.8919 84.4686 70.1591C84.4686 70.1591 88.6101 71.9206 90.6389 75.5339C90.8643 75.9332 91.064 76.3551 91.2282 76.7995" stroke="#020144" stroke-width="1.93224" stroke-linecap="round" stroke-linejoin="round"/>
<path d="M77.7541 86.216C73.3293 78.2713 65.1366 65.7021 53.0472 55.4065" stroke="#020144" stroke-width="1.93224" stroke-linecap="round" stroke-linejoin="round"/>
<path d="M185.815 95.0302H185.811C185.544 94.5826 165.172 61.0969 143.08 73.2281C143.08 73.2281 116.483 68.7872 103.398 89.1047C103.398 89.1047 97.2021 92.5119 92.0462 98.2828C86.3075 104.704 81.8537 114.05 88.6423 124.89C88.7421 125.051 90.0431 123.45 92.3425 120.784C104.825 106.308 146.774 60.4142 185.811 95.027" stroke="#020144" stroke-width="1.93224" stroke-linecap="round" stroke-linejoin="round"/>
<path d="M163.136 129.933H163.133C162.724 129.595 129.258 102.279 106.828 117.605C84.2592 133.021 108.39 137.939 108.39 137.939C108.39 137.939 149.498 124.39 163.133 129.93" stroke="#020144" stroke-width="1.93224" stroke-linecap="round" stroke-linejoin="round"/>
<path d="M75.5609 114.816C65.7806 105.355 42.6549 107.86 42.6549 107.86L47.7399 110.401C47.7399 110.401 48.6384 112.337 50.4128 115.341" stroke="#020144" stroke-width="1.93224" stroke-linecap="round" stroke-linejoin="round"/>
<path d="M67.9415 136.58C70.8656 139.069 74.0989 141.381 77.6349 143.323C77.7734 143.021 85.541 126.162 76.4241 115.725C76.1503 115.409 75.8605 115.109 75.561 114.82" stroke="#020144" stroke-width="1.93224" stroke-linecap="round" stroke-linejoin="round"/>
<path d="M63.5135 99.5323C61.8131 98.7626 18.8272 83.0181 14.776 82.8635C10.7247 82.7089 10.7183 87.8036 10.7183 87.8036C10.7183 87.8036 6.39973 76.9992 13.5007 78.5417C13.5007 78.5417 37.1191 61.4092 56.2579 70.8224C75.3967 80.2389 63.5135 99.5323 63.5135 99.5323Z" stroke="#020144" stroke-width="1.93224" stroke-linecap="round" stroke-linejoin="round"/>
<path d="M38.082 161.193H38.0852C38.0852 161.193 38.082 161.187 38.0852 161.187M38.0852 161.187C38.1464 160.926 39.7566 154.147 37.6537 147.912C35.5089 141.558 27.4611 123.164 44.4133 129.034C44.4133 129.034 44.6709 128.831 45.1121 128.548C47.0347 127.305 52.4579 124.49 55.2499 130.078C55.7169 131.012 55.7394 132.264 55.4303 133.736C53.4852 142.988 38.4008 160.816 38.0852 161.187Z" stroke="#020144" stroke-width="1.93224" stroke-linecap="round" stroke-linejoin="round"/>
<path d="M90.6356 7.9635C90.6356 7.9635 77.9279 15.3253 85.2157 29.698C85.2157 29.698 99.701 22.2943 90.6356 7.9635Z" stroke="#020144" stroke-width="1.93224" stroke-linecap="round" stroke-linejoin="round"/>
<path d="M85.2158 29.6979C85.2158 29.6979 90.333 24.1041 88.8387 20.7452C87.3477 17.3831 83.4607 22.5937 85.2158 29.6979Z" stroke="#020144" stroke-width="1.93224" stroke-linecap="round" stroke-linejoin="round"/>
<path d="M88.6423 124.89C88.6423 124.89 87.4024 126.297 85.8212 128.97C83.8342 132.326 81.3094 137.672 80.0213 144.727C79.8925 145.433 79.7765 146.154 79.6735 146.892" stroke="#020144" stroke-width="1.93224" stroke-linecap="round" stroke-linejoin="round"/>
<path d="M108.39 137.939L93.6177 146.892" stroke="#020144" stroke-width="1.93224" stroke-linecap="round" stroke-linejoin="round"/>
<path d="M77.6349 143.32L80.0212 144.727L83.6957 146.891" stroke="#020144" stroke-width="1.93224" stroke-linecap="round" stroke-linejoin="round"/>
<path d="M66.5214 139.913C66.5214 139.913 74.45 144.418 76.6721 146.891" stroke="#020144" stroke-width="1.93224" stroke-linecap="round" stroke-linejoin="round"/>
<path d="M63.5135 99.5323C63.5135 99.5323 70.0188 104.038 76.3533 112.015C79.9859 116.591 83.5637 122.307 85.8212 128.97C87.6536 134.358 88.6198 140.367 88.0594 146.891" stroke="#020144" stroke-width="1.93224" stroke-linecap="round" stroke-linejoin="round"/>
<path d="M77.6252 109.206C77.6252 109.206 77.0616 109.924 76.3531 112.014C76.1019 112.762 75.8314 113.686 75.5609 114.816" stroke="#020144" stroke-width="1.93224" stroke-linecap="round" stroke-linejoin="round"/>
<path d="M92.3425 120.784C92.1912 129.807 91.6727 138.663 90.6357 146.891" stroke="#020144" stroke-width="1.93224" stroke-linecap="round" stroke-linejoin="round"/>
<path d="M92.0461 98.2827C91.9753 96.4793 91.8916 94.6855 91.8014 92.9014" stroke="#020144" stroke-width="1.93224" stroke-linecap="round" stroke-linejoin="round"/>
<path d="M85.2158 29.698C85.2158 29.698 88.5135 49.6387 90.639 75.5339C90.6808 76.0202 90.7195 76.5097 90.7581 76.9992" stroke="#020144" stroke-width="1.93224" stroke-linecap="round" stroke-linejoin="round"/>
</svg>
