<svg width="151" height="204" viewBox="0 0 151 204" fill="none" xmlns="http://www.w3.org/2000/svg">
<path fill-rule="evenodd" clip-rule="evenodd" d="M95.4297 142.023C79.9639 163.499 60.0303 183.416 35.4828 193.262C26.5525 196.845 17.3459 198.218 7.93326 199.711C7.27359 199.816 6.65043 199.364 6.54314 198.7C6.43887 198.036 6.89132 197.413 7.55534 197.309C16.7856 195.845 25.8191 194.519 34.5776 191.005C58.7773 181.299 78.378 161.599 93.5935 140.415L93.2857 140.155C89.9455 137.337 88.4054 131.612 88.3682 124.842C88.3142 115.137 91.2139 103.279 95.247 95.5543C97.0602 92.0839 99.1266 89.436 101.227 88.0763C102.865 87.0148 104.55 86.6847 106.209 87.1695C109.745 88.205 111.492 92.0411 111.666 97.3841C112.036 108.557 105.917 126.463 101.301 133.488C99.8577 135.682 98.3709 137.872 96.8375 140.045C97.4118 140.556 97.9757 141.055 98.5468 141.515C100.177 142.821 101.888 143.825 104.295 143.916C108.048 144.055 111.761 142.598 115.229 140.418C120.638 137.011 125.436 131.824 128.831 127.721C147.737 104.868 150.44 79.7662 147.53 57.2833C144.589 34.5788 135.947 14.5152 132.274 1.99155C132.084 1.34785 132.454 0.674227 133.098 0.484023C133.742 0.293818 134.418 0.663488 134.606 1.30887C138.304 13.9131 146.981 34.116 149.94 56.973C152.931 80.0517 150.111 105.81 130.707 129.271C127.17 133.546 122.158 138.928 116.525 142.474C112.624 144.928 108.427 146.501 104.204 146.345C100.414 146.204 98.0099 144.288 95.4297 142.023ZM95.0063 138.424L94.8514 138.297C91.9311 135.833 90.8311 130.749 90.8005 124.828C90.7482 115.503 93.5258 104.106 97.4049 96.6804C98.7334 94.1332 100.183 92.0645 101.703 90.754C102.959 89.6738 104.235 89.1246 105.524 89.5046C106.744 89.8572 107.589 90.7458 108.166 91.9777C108.847 93.4228 109.166 95.305 109.239 97.4626C109.592 108.199 103.706 125.402 99.2689 132.152C97.8891 134.248 96.4695 136.342 95.0063 138.424Z" fill="url(#paint0_linear_2879_11894)"/>
<path fill-rule="evenodd" clip-rule="evenodd" d="M3.51861 197.664C3.84027 198.089 4.44648 198.524 5.10249 198.986C6.66485 200.087 8.62901 201.113 9.53493 201.635C10.1176 201.972 10.3138 202.716 9.97949 203.297C9.64218 203.879 8.90022 204.078 8.31665 203.741C7.20816 203.1 4.59297 201.727 2.88709 200.365C1.97246 199.634 1.31137 198.87 1.05805 198.214C0.62507 197.097 1.15048 196.015 2.85601 195.241C4.87382 194.326 9.05965 193.538 11.5795 190.837C12.035 190.348 12.8089 190.322 13.296 190.779C13.7885 191.239 13.815 192.008 13.3559 192.499C10.9523 195.072 7.24007 196.187 4.80919 197.077C4.34817 197.246 3.82585 197.506 3.51861 197.664Z" fill="url(#paint1_linear_2879_11894)"/>
<defs>
<linearGradient id="paint0_linear_2879_11894" x1="134" y1="-6.45821e-07" x2="140" y2="94" gradientUnits="userSpaceOnUse">
<stop stop-color="#E63277" stop-opacity="0"/>
<stop offset="1" stop-color="#E63277"/>
</linearGradient>
<linearGradient id="paint1_linear_2879_11894" x1="134" y1="-6.45821e-07" x2="140" y2="94" gradientUnits="userSpaceOnUse">
<stop stop-color="#E63277" stop-opacity="0"/>
<stop offset="1" stop-color="#E63277"/>
</linearGradient>
</defs>
</svg>
