<svg width="1284" height="1062" viewBox="0 0 1284 1062" fill="none" xmlns="http://www.w3.org/2000/svg">
<path d="M135.096 52.3217C237.096 115.655 399.496 275.922 233.096 410.322C25.0959 578.322 -70.9041 374.322 61.0959 322.322C193.096 270.322 236.516 387.732 385.096 554.322C451.096 628.322 650.38 804.725 817.096 668.322C905.096 596.322 817.096 490.322 739.096 540.322C584.951 639.132 777.096 986.322 905.096 1040.32C1023.95 1090.46 1229.1 1062.32 1257.1 818.322C1285.1 574.322 861.096 1206.32 1185.1 1026.32C1444.3 882.322 1493.1 555.655 1485.1 410.322" stroke="url(#paint0_linear_887_342)" stroke-width="1.2" stroke-dasharray="6 6"/>
<path fill-rule="evenodd" clip-rule="evenodd" d="M85.3811 38.6966L82.7985 54.9246L137.794 56.9723L85.3811 38.6966Z" fill="#60BB9E"/>
<path d="M85.3811 38.6966L82.7985 54.9246L137.794 56.9723L85.3811 38.6966Z" stroke="#020144" stroke-width="6.64247" stroke-linecap="round" stroke-linejoin="round"/>
<path fill-rule="evenodd" clip-rule="evenodd" d="M89.522 9.9007L88.3524 17.7393L137.794 56.9723L89.522 9.9007Z" fill="#60BB9E"/>
<path d="M89.4654 9.91207L118.099 3.32172L137.794 56.9724L37.0959 21.9671L80.9554 11.8713" stroke="#020144" stroke-width="6.64247" stroke-linecap="round" stroke-linejoin="round"/>
<path d="M89.4655 9.91199L137.794 56.9723L80.9554 11.8712" stroke="#020144" stroke-width="6.64247" stroke-linecap="round" stroke-linejoin="round"/>
<defs>
<linearGradient id="paint0_linear_887_342" x1="743.247" y1="52.3217" x2="743.247" y2="1061.14" gradientUnits="userSpaceOnUse">
<stop stop-color="#5CBA9E"/>
<stop offset="1" stop-color="#9492FD"/>
</linearGradient>
</defs>
</svg>
