<svg width="461" height="461" viewBox="0 0 461 461" fill="none" xmlns="http://www.w3.org/2000/svg">
<g opacity="0.89">
<g opacity="0.89">
<path opacity="0.89" d="M230.763 460.526C357.658 460.526 460.526 357.658 460.526 230.763C460.526 103.869 357.658 1 230.763 1C103.869 1 1 103.869 1 230.763C1 357.658 103.869 460.526 230.763 460.526Z" stroke="#DEF1EC" stroke-width="0.70766" stroke-linecap="round" stroke-linejoin="round"/>
</g>
<g opacity="0.89">
<path opacity="0.89" d="M230.764 443.769C348.404 443.769 443.771 348.403 443.771 230.763C443.771 113.123 348.404 17.7565 230.764 17.7565C113.124 17.7565 17.7578 113.123 17.7578 230.763C17.7578 348.403 113.124 443.769 230.764 443.769Z" stroke="#DEF1EC" stroke-width="0.826604" stroke-linecap="round" stroke-linejoin="round"/>
</g>
<g opacity="0.89">
<path opacity="0.89" d="M230.762 427.014C339.148 427.014 427.012 339.149 427.012 230.763C427.012 122.377 339.148 34.5131 230.762 34.5131C122.376 34.5131 34.5117 122.377 34.5117 230.763C34.5117 339.149 122.376 427.014 230.762 427.014Z" stroke="#DEF1EC" stroke-width="0.945549" stroke-linecap="round" stroke-linejoin="round"/>
</g>
<g opacity="0.89">
<path opacity="0.89" d="M230.763 410.257C329.895 410.257 410.257 329.895 410.257 230.763C410.257 131.632 329.895 51.2695 230.763 51.2695C131.631 51.2695 51.2695 131.632 51.2695 230.763C51.2695 329.895 131.631 410.257 230.763 410.257Z" stroke="#DEF1EC" stroke-width="1.06449" stroke-linecap="round" stroke-linejoin="round"/>
</g>
<g opacity="0.89">
<path opacity="0.89" d="M230.764 393.5C320.641 393.5 393.501 320.64 393.501 230.763C393.501 140.886 320.641 68.026 230.764 68.026C140.887 68.026 68.0273 140.886 68.0273 230.763C68.0273 320.64 140.887 393.5 230.764 393.5Z" stroke="#DEF1EC" stroke-width="1.18344" stroke-linecap="round" stroke-linejoin="round"/>
</g>
<g opacity="0.89">
<path opacity="0.89" d="M230.762 376.743C311.385 376.743 376.743 311.386 376.743 230.763C376.743 150.14 311.385 84.7826 230.762 84.7826C150.139 84.7826 84.7812 150.14 84.7812 230.763C84.7812 311.386 150.139 376.743 230.762 376.743Z" stroke="#DEF1EC" stroke-width="1.3023" stroke-linecap="round" stroke-linejoin="round"/>
</g>
<g opacity="0.89">
<path opacity="0.89" d="M230.764 359.988C302.131 359.988 359.987 302.132 359.987 230.763C359.987 159.395 302.131 101.539 230.764 101.539C159.395 101.539 101.539 159.395 101.539 230.763C101.539 302.132 159.395 359.988 230.764 359.988Z" stroke="#DEF1EC" stroke-width="1.42124" stroke-linecap="round" stroke-linejoin="round"/>
</g>
<g opacity="0.89">
<path opacity="0.89" d="M230.765 343.231C292.879 343.231 343.233 292.877 343.233 230.763C343.233 168.649 292.879 118.296 230.765 118.296C168.651 118.296 118.297 168.649 118.297 230.763C118.297 292.877 168.651 343.231 230.765 343.231Z" stroke="#DEF1EC" stroke-width="1.54019" stroke-linecap="round" stroke-linejoin="round"/>
</g>
<g opacity="0.89">
<path opacity="0.89" d="M230.763 326.503C283.638 326.503 326.503 283.638 326.503 230.763C326.503 177.888 283.638 135.023 230.763 135.023C177.888 135.023 135.023 177.888 135.023 230.763C135.023 283.638 177.888 326.503 230.763 326.503Z" stroke="#DEF1EC" stroke-width="1.65913" stroke-linecap="round" stroke-linejoin="round"/>
</g>
<g opacity="0.89">
<path opacity="0.89" d="M230.764 309.746C274.385 309.746 309.747 274.384 309.747 230.763C309.747 187.142 274.385 151.78 230.764 151.78C187.143 151.78 151.781 187.142 151.781 230.763C151.781 274.384 187.143 309.746 230.764 309.746Z" stroke="#DEF1EC" stroke-width="1.77807" stroke-linecap="round" stroke-linejoin="round"/>
</g>
<g opacity="0.89">
<path opacity="0.89" d="M230.766 292.989C265.133 292.989 292.993 265.13 292.993 230.763C292.993 196.396 265.133 168.537 230.766 168.537C196.399 168.537 168.539 196.396 168.539 230.763C168.539 265.13 196.399 292.989 230.766 292.989Z" stroke="#DEF1EC" stroke-width="1.89702" stroke-linecap="round" stroke-linejoin="round"/>
</g>
<g opacity="0.89">
<path opacity="0.89" d="M230.763 276.233C255.875 276.233 276.232 255.875 276.232 230.763C276.232 205.651 255.875 185.293 230.763 185.293C205.65 185.293 185.293 205.651 185.293 230.763C185.293 255.875 205.65 276.233 230.763 276.233Z" stroke="#DEF1EC" stroke-width="2.01596" stroke-linecap="round" stroke-linejoin="round"/>
</g>
</g>
<circle cx="75.2487" cy="156.249" r="28" transform="rotate(30 75.2487 156.249)" fill="#BEE3D8"/>
<path d="M60.4524 146.237L64.6451 161.885L95.9395 153.499" stroke="#F8F8F8" stroke-width="2" stroke-linecap="round"/>
<circle cx="134.249" cy="217.249" r="14.7487" transform="rotate(-30 134.249 217.249)" fill="#D4D4FE"/>
<path d="M125.786 221.361L134.028 223.569L138.445 207.085" stroke="#F8F8F8" stroke-width="2" stroke-linecap="round"/>
<circle cx="231.147" cy="155.147" r="21.2404" fill="#FAD6E4"/>
<path d="M217.629 154.182L226.318 162.871L243.697 145.492" stroke="#F8F8F8" stroke-width="2" stroke-linecap="round"/>
</svg>
