<?xml version="1.0" encoding="UTF-8"?>
<!-- width="34mm" height="14mm"  -->
<svg version="1.1" viewBox="0 0 34 14" xmlns="http://www.w3.org/2000/svg"><path d="m13 1h-10a2 2 0 0 0 0 4h6a2 2 0 0 1 0 4h-8m10-2v4a2 2 0 0 0 2 2h4" fill="none" stroke="#3fb549" stroke-linecap="round" stroke-width="2"/><g fill="#414141"><g transform="matrix(.15335 0 0 -.15335 14.718 6.5792)"><path d="m0 0c-2.903 0-5.411 1.392-6.552 3.265-0.383 0.628-0.18 1.01 0.616 1.328l0.249 0.099c0.6 0.239 0.87 0.065 1.547-0.653 1.049-1.112 2.446-1.766 4.119-1.766 2.203 0 3.488 0.906 3.488 2.455 0 3.828-9.609 1.171-9.609 7.454 0 2.697 2.319 4.593 5.619 4.593 2.454 0 4.907-1.185 5.9-2.848 0.383-0.644 0.196-1.088-0.548-1.306l-0.383-0.112c-0.58-0.169-0.845 0.027-1.511 0.63-0.961 0.871-1.921 1.317-3.327 1.317-1.983 0-3.193-0.862-3.193-2.274 0-4.031 9.655-1.081 9.655-7.454 0-2.834-2.431-4.728-6.069-4.728z" fill="#414141"/></g><g transform="matrix(.15335 0 0 -.15335 17.219 6.4332)"><path d="m0 0-4.816 14.503c-0.274 0.789 0.114 1.323 0.936 1.323h0.502c0.662 0 1.072-0.302 1.278-0.951l3.788-12.021 3.493 11.998c0.182 0.672 0.616 0.974 1.277 0.974h0.229c0.662 0 1.096-0.325 1.278-0.974l3.515-11.998 3.812 12.021c0.205 0.649 0.616 0.951 1.277 0.951h0.503c0.821 0 1.209-0.534 0.936-1.323l-4.839-14.503c-0.206-0.649-0.639-0.951-1.301-0.951h-0.525c-0.662 0-1.095 0.325-1.278 0.974l-3.492 11.951-3.469-11.951c-0.183-0.672-0.617-0.974-1.278-0.974h-0.526c-0.661 0-1.095 0.325-1.3 0.951" fill="#414141"/></g><g transform="matrix(.15335 0 0 -.15335 20.989 6.4016)"><path d="m0 0v14.45c0 0.74 0.411 1.157 1.142 1.157h0.364c0.731 0 1.142-0.417 1.142-1.157v-14.45c0-0.741-0.411-1.158-1.142-1.158h-0.364c-0.731 0-1.142 0.417-1.142 1.158" fill="#414141"/></g><g transform="matrix(.15335 0 0 -.15335 24.125 4.8759)"><path d="m0 0c0 2.684-1.574 3.333-4.702 3.333h-2.396v-6.596h2.396c3.128 0 4.702 0.578 4.702 3.263m2.009-9.696c0.616-0.926 0.411-1.412-0.731-1.412h-0.502c-0.616 0-1.027 0.254-1.37 0.764l-3.149 4.858c-0.301-0.014-0.613-0.022-0.935-0.022h-2.397v-4.443c0-0.74-0.41-1.157-1.14-1.157h-0.389c-0.731 0-1.141 0.417-1.141 1.157v14.44c0 0.741 0.41 1.157 1.141 1.157h3.971c5.135 0 7.304-1.504 7.304-5.53 0-2.804-1.22-4.477-3.742-5.2z" fill="#414141"/></g><g transform="matrix(.15335 0 0 -.15335 25.682 6.4041)"><path d="m0 0v14.242c0 0.73 0.412 1.141 1.142 1.141h0.364c0.731 0 1.142-0.411 1.142-1.141v-12.987h5.843c0.731 0 1.142-0.411 1.142-1.141v-0.114c0-0.73-0.411-1.141-1.142-1.141h-7.349c-0.73 0-1.142 0.411-1.142 1.141" fill="#414141"/></g><g transform="matrix(.15335 0 0 -.15335 28.898 6.2116)"><path d="m0 0c4.815 0 6.642 1.803 6.642 5.889 0 4.062-1.827 5.865-6.665 5.865h-1.78v-11.754zm-4.451-1.255v14.241c0 0.731 0.411 1.141 1.141 1.141h3.219c6.71 0 9.404-2.692 9.404-8.261 0-5.524-2.694-8.262-9.404-8.262h-3.219c-0.73 0-1.141 0.41-1.141 1.141" fill="#414141"/></g><g transform="matrix(.15335 0 0 -.15335 32.324 6.6141)"><path d="m0 0c-2.903 0-5.411 1.411-6.552 3.309-0.383 0.636-0.18 1.024 0.616 1.347l0.249 0.1c0.6 0.242 0.871 0.066 1.547-0.662 1.05-1.128 2.446-1.79 4.12-1.79 2.202 0 3.486 0.918 3.486 2.488 0 3.88-9.608 1.187-9.608 7.555 0 2.734 2.319 4.656 5.62 4.656 2.453 0 4.906-1.201 5.899-2.887 0.384-0.653 0.197-1.102-0.547-1.324l-0.384-0.114c-0.579-0.171-0.846 0.028-1.51 0.639-0.961 0.883-1.922 1.335-3.328 1.335-1.983 0-3.193-0.874-3.193-2.305 0-4.085 9.655-1.096 9.655-7.555 0-2.873-2.431-4.792-6.069-4.792z" fill="#414141"/></g><g transform="matrix(.15335 0 0 -.15335 14.001 9.8201)"><path d="m0 0v14.592c0 0.748 0.411 1.17 1.141 1.17h0.365c0.731 0 1.141-0.422 1.141-1.17v-13.306h5.843c0.731 0 1.141-0.421 1.141-1.17v-0.116c0-0.748-0.41-1.169-1.141-1.169h-7.349c-0.73 0-1.141 0.421-1.141 1.169" fill="#414141"/></g><g transform="matrix(.15335 0 0 -.15335 17.997 9.1614)"><path d="m0 0-3.284 8.438-3.269-8.438zm4.408-4.137c0.319-0.795-0.023-1.356-0.845-1.356h-0.456c-0.639 0-1.073 0.304-1.324 0.912l-0.937 2.407h-8.242l-0.932-2.407c-0.228-0.608-0.685-0.912-1.324-0.912h-0.411c-0.844 0-1.209 0.561-0.89 1.356l5.98 14.656c0.251 0.63 0.685 0.912 1.324 0.912h0.731c0.639 0 1.072-0.282 1.324-0.912z" fill="#414141"/></g><g transform="matrix(.15335 0 0 -.15335 20.527 9.6472)"><path d="m0 0c3.31 0 4.61 0.773 4.61 2.577 0 1.991-1.118 2.623-4.564 2.623h-2.9v-5.2zm-0.206 7.355c2.991 0 4.268 0.703 4.268 2.576 0 1.781-1.004 2.319-4.336 2.319h-2.58v-4.895zm-5.272-8.525v14.615c0 0.75 0.411 1.172 1.142 1.172h4.108c5.478 0 7.075-1.593 7.075-4.381 0-2.249-0.982-3.513-3.058-3.911 2.419-0.328 3.606-1.523 3.606-4.006 0-2.858-1.827-4.661-7.373-4.661h-4.358c-0.731 0-1.142 0.422-1.142 1.172" fill="#414141"/></g><g transform="matrix(.15335 0 0 -.15335 23.67 9.9995)"><path d="m0 0c-2.903 0-5.411 1.405-6.552 3.298-0.383 0.635-0.18 1.021 0.616 1.342l0.249 0.1c0.6 0.241 0.871 0.066 1.547-0.66 1.05-1.123 2.447-1.783 4.12-1.783 2.202 0 3.487 0.914 3.487 2.479 0 3.868-9.609 1.183-9.609 7.531 0 2.724 2.319 4.64 5.62 4.64 2.453 0 4.906-1.197 5.899-2.878 0.384-0.651 0.197-1.098-0.547-1.319l-0.384-0.113c-0.579-0.171-0.846 0.027-1.51 0.635-0.961 0.881-1.922 1.332-3.328 1.332-1.983 0-3.193-0.872-3.193-2.297 0-4.073 9.655-1.093 9.655-7.531 0-2.864-2.431-4.776-6.069-4.776z" fill="#414141"/></g></g></svg>