<?xml version="1.0" encoding="UTF-8" standalone="no"?>
<!-- Created with Inkscape (http://www.inkscape.org/) -->

<svg
   width="171.61168mm"
   height="36.544884mm"
   viewBox="0 0 171.61168 36.544884"
   version="1.1"
   id="svg1"
   xml:space="preserve"
   inkscape:version="1.4.3 (238bec89f6, 2026-04-17)"
   xmlns:inkscape="http://www.inkscape.org/namespaces/inkscape"
   xmlns:sodipodi="http://sodipodi.sourceforge.net/DTD/sodipodi-0.dtd"
   xmlns="http://www.w3.org/2000/svg"
   xmlns:svg="http://www.w3.org/2000/svg"><sodipodi:namedview
     id="namedview1"
     pagecolor="#ffffff"
     bordercolor="#000000"
     borderopacity="0.25"
     inkscape:showpageshadow="2"
     inkscape:pageopacity="0.0"
     inkscape:pagecheckerboard="0"
     inkscape:deskcolor="#d1d1d1"
     inkscape:document-units="mm"
     inkscape:zoom="1.036062"
     inkscape:cx="541.47338"
     inkscape:cy="130.78368"
     inkscape:window-width="2494"
     inkscape:window-height="1371"
     inkscape:window-x="0"
     inkscape:window-y="0"
     inkscape:window-maximized="1"
     inkscape:current-layer="layer1" /><defs
     id="defs1" /><g
     inkscape:label="Layer 1"
     inkscape:groupmode="layer"
     id="layer1"
     transform="translate(-17.145929,-45.333144)"><g
       id="g10"
       transform="matrix(0.07045483,0,0,0.07045483,101.40812,44.897644)"><path
         class="cls-3"
         d="m 141.10772,209.8881 c 13.18698,-32.60813 27.90053,-65.1523 43.68789,-93.99705 -23.56659,-17.504102 -46.19569,-55.249012 -55.49307,-71.972166 -3.33924,3.793679 -5.50706,8.162973 -6.48998,11.717653 -8.75878,31.625206 22.4204,69.814453 -2.69294,55.861663 C 99.195483,99.871431 52.079144,74.40969 34.10714,99.716587 54.235178,125.5789 106.88046,190.64705 141.10772,209.8881 Z"
         id="path4"
         style="fill:#dd552c" /><path
         class="cls-2"
         d="m 184.79561,115.89105 c 15.29758,-27.94934 31.59996,-52.428158 48.50152,-70.063545 0,0 -16.8578,24.401397 -40.93604,73.180625 14.58226,4.01585 56.11244,12.25624 113.96014,-2.68621 1.42221,-10.51256 -5.64508,-22.075366 -40.86367,-25.946466 -22.99266,-2.524631 27.59758,-54.9023 -9.05165,-79.673976 C 255.2227,9.9003286 254.05969,9.193432 252.92024,8.5605912 251.69159,8.1196224 250.39393,7.7156815 249.00875,7.3555009 206.20616,-3.8134649 200.27328,68.764616 183.19331,53.162399 155.59237,27.949754 138.17073,33.840559 129.30254,43.918885 c 9.29738,16.723153 31.92648,54.468063 55.49307,71.972165 z"
         id="path5"
         style="fill:#f79a23" /><path
         class="cls-4"
         d="m 106.68185,303.83802 c 9.66261,-28.94573 21.28601,-61.46634 34.42587,-93.94992 C 106.88046,190.64705 54.235178,125.5789 34.10714,99.716587 c -3.593391,5.055993 -6.049015,12.108133 -6.866995,21.752213 -4.389491,51.80206 49.051889,90.15288 38.397948,97.15789 -14.092488,9.26708 -42.141134,-22.26051 -53.19565,-2.22841 16.022989,20.58416 48.661414,57.77701 94.239407,87.43974 z"
         id="path6"
         style="fill:#d22128" /><path
         class="cls-3"
         d="m 254.75649,192.11807 c -27.05899,-9.65082 28.27586,-35.53334 46.2445,-62.99122 2.2991,-3.51092 4.67562,-8.04852 5.32024,-12.80493 -57.8477,14.94245 -99.37788,6.70206 -113.96014,2.68621 -12.46495,25.25641 -26.85871,57.08358 -41.87016,95.45797 15.63419,6.68522 79.47032,31.37947 169.63666,31.50739 15.15957,-39.48523 -39.69056,-44.69943 -65.3711,-53.85542 z"
         id="path7"
         style="fill:#dd552c" /><path
         class="cls-4"
         d="m 117.13719,309.04886 c 15.90013,4.95501 68.58412,19.75607 124.53666,17.52767 7.51667,-20.35189 -20.58583,-22.33793 -22.87483,-38.66051 -1.77229,-12.62989 73.95653,10.61354 98.32258,-35.31117 1.23202,-2.32266 2.19306,-4.51404 3.00599,-6.63136 -90.16634,-0.12792 -154.00247,-24.82217 -169.63666,-31.50739 -10.97036,28.04359 -22.25546,59.51732 -33.35374,94.58276 z"
         id="path8"
         style="fill:#d22128" /><path
         class="cls-1"
         d="m 117.13719,309.04886 c -7.1447,22.5702 -14.19347,46.6821 -21.035221,72.16404 -2.427011,9.03481 -4.82541,18.23793 -7.190148,27.64302 53.106449,17.53104 102.008539,0.0404 103.666379,-21.63776 0.0135,-0.17168 -0.0185,-0.29959 -0.008,-0.46454 1.264,-22.96067 -33.15008,-10.23317 -32.33547,-24.03785 0.81798,-13.90566 60.08116,-0.0808 78.40829,-29.89499 1.40538,-2.28563 2.32098,-4.31543 3.03124,-6.24425 -55.95254,2.22841 -108.63653,-12.57266 -124.53666,-17.52767 z"
         id="path9"
         style="fill:#7c297d" /><path
         class="cls-1"
         d="m 12.442443,216.39828 c -0.77422,1.4037 -1.472701,3.02619 -2.068514,4.96511 -10.2920772,33.44967 62.484608,78.38473 52.583007,88.1803 -8.925411,8.82611 -20.557226,-11.34401 -34.900494,-3.01273 -1.572003,0.9156 -3.16757,2.0702 -4.805213,3.74992 -16.2215937,16.6188 -0.254147,64.4959 45.769869,90.05189 -10.739778,36.06182 -21.43243,76.35156 -31.899549,118.48596 3.797044,-1.32964 8.34138,-2.66264 9.472414,-6.24425 1.698235,-6.98144 12.193966,-49.46256 29.235223,-107.09483 0,0 3.110345,-11.80517 8.804228,-31.25493 5.264697,-17.98547 12.746019,-42.51478 22.048436,-70.3867 C 61.103857,274.17529 28.465432,236.98244 12.442443,216.39828 Z"
         id="path10"
         style="fill:#7c297d" /></g><path
       style="fill:#000000"
       d="m 67.146488,81.754798 c -2.937171,-0.2634 -4.966909,-1.61013 -5.631385,-3.73644 -0.604742,-1.93515 -0.348637,-4.095 0.752593,-6.34695 0.642913,-1.31472 2.303744,-2.94584 3.650327,-3.58501 1.237136,-0.58723 2.915308,-1.14165 4.026634,-1.33029 1.162254,-0.19728 3.52871,-0.51969 4.572618,-0.62298 1.272162,-0.12588 3.849225,-0.68879 4.358117,-0.95195 1.275457,-0.65956 2.094795,-2.24053 1.789502,-3.45295 -0.210269,-0.83506 -0.488963,-1.21318 -1.202287,-1.63121 -0.526771,-0.30871 -0.811992,-0.3677 -2.042348,-0.42242 -1.596687,-0.071 -2.624253,0.0999 -3.585464,0.5963 -0.891707,0.46052 -1.283391,0.83048 -2.014027,1.90233 -0.872758,1.28033 -1.020354,1.32454 -4.241926,1.27046 -2.292342,-0.0385 -2.518547,-0.0642 -2.695797,-0.30696 -0.294829,-0.40373 -0.237146,-0.77221 0.281508,-1.79827 1.398058,-2.76579 3.454997,-4.42845 6.801996,-5.49816 2.221436,-0.70997 3.678862,-0.87602 6.977599,-0.79494 2.290761,0.0563 3.104442,0.12853 4.000439,0.35511 2.894453,0.73195 4.647497,2.30991 4.9371,4.44401 0.152054,1.12049 -0.0055,2.11542 -1.564215,9.87552 -1.024632,5.10127 -1.471163,7.62965 -1.565323,8.86328 -0.07246,0.9493 -0.167352,1.83819 -0.210876,1.97532 -0.175153,0.55186 -0.722495,0.65599 -3.431285,0.65279 -2.871248,-0.003 -2.97722,-0.0341 -3.361079,-0.97341 -0.313473,-0.76708 -0.57921,-0.76612 -2.168195,0.008 -1.738456,0.84675 -3.521778,1.33059 -5.567809,1.51063 -0.863337,0.076 -1.600416,0.13009 -1.637953,0.12027 -0.03754,-0.01 -0.590345,-0.0647 -1.228464,-0.12191 z m 6.579216,-4.65179 c 1.729954,-0.36599 3.073482,-1.25945 4.005617,-2.66377 0.967773,-1.45801 1.727198,-4.36883 1.280304,-4.9073 -0.208313,-0.251 -0.120066,-0.2578 -3.538878,0.2725 -3.410202,0.52896 -4.557282,0.90909 -5.652535,1.87317 -0.801678,0.70566 -1.112959,1.23697 -1.322396,2.25713 -0.203575,0.9916 -0.0529,1.69411 0.505748,2.35802 0.678861,0.80678 2.920485,1.19141 4.72214,0.81025 z m 58.597646,4.56807 c -1.61692,-0.34151 -2.3707,-0.57987 -3.4424,-1.08852 -0.99821,-0.47377 -1.46524,-0.80187 -2.2583,-1.58654 -2.14599,-2.12328 -2.93475,-4.5927 -2.68259,-8.39863 0.13261,-2.00154 0.32233,-2.87764 1.04093,-4.80702 0.9654,-2.59201 1.9488,-4.11941 3.91725,-6.08424 2.3027,-2.29844 4.93983,-3.80272 7.79299,-4.4453 1.79805,-0.40495 4.70689,-0.43275 6.14232,-0.0587 1.98244,0.51658 3.94426,1.67275 4.93958,2.91106 0.28614,0.356 0.59209,0.72357 0.67988,0.81682 0.0878,0.0933 0.23438,0.40046 0.32575,0.68267 0.0914,0.28221 0.30424,0.78951 0.47304,1.12734 0.39331,0.78714 0.74811,2.85784 0.74667,4.3578 -0.001,1.53324 -0.22709,3.46056 -0.4744,4.05247 -0.38469,0.92068 -0.25741,0.9086 -9.29042,0.88143 -5.05151,-0.0152 -8.19243,0.0262 -8.41526,0.11093 -0.19554,0.0743 -0.5151,0.30726 -0.71013,0.5176 -0.3006,0.32418 -0.35461,0.50821 -0.35461,1.20825 0,2.51553 1.08642,4.02399 3.24383,4.50397 2.61309,0.58136 5.28328,-0.16549 7.38201,-2.06473 0.44498,-0.40268 0.97353,-0.79469 1.17456,-0.87112 0.20104,-0.0764 1.30677,-0.13897 2.4572,-0.13897 1.83949,0 2.12967,0.0308 2.40675,0.25513 0.29069,0.23538 0.30268,0.2965 0.15493,0.78964 -0.19776,0.66005 -2.22612,3.21886 -3.20291,4.04052 -1.97389,1.6604 -4.25278,2.72956 -6.74845,3.16611 -1.10781,0.19378 -4.5799,0.27375 -5.29822,0.12203 z m 10.5383,-16.4872 c 0.31841,-0.37032 0.33866,-0.47175 0.25883,-1.29671 -0.22773,-2.35354 -1.82932,-3.70191 -4.40488,-3.70845 -2.39724,-0.006 -4.4654,1.08531 -5.81071,3.06637 -0.4511,0.66427 -0.56988,0.96295 -0.57504,1.44588 -0.0104,0.97707 -0.0535,0.9697 5.43117,0.9295 l 4.75519,-0.0348 z m -125.220183,15.8931 c -0.619597,-0.24965 -0.635962,-0.53133 -0.172768,-2.97394 0.794212,-4.18821 6.136357,-30.64242 6.294499,-31.17025 0.310471,-1.03626 0.105399,-0.99794 5.574767,-1.0416 l 4.88641,-0.039 0.35666,0.312 c 0.311512,0.2725 0.383015,0.50206 0.564848,1.81345 0.114503,0.8258 0.359641,2.48422 0.54475,3.68539 0.185109,1.20116 0.522784,3.62738 0.75039,5.39159 0.227605,1.76422 0.59023,4.31328 0.805833,5.66459 0.215602,1.35131 0.462019,3.00974 0.547591,3.68539 0.394044,3.11125 0.861728,3.26865 2.181352,0.73412 7.966398,-15.30063 10.710524,-20.43466 11.136196,-20.83486 l 0.47365,-0.44532 4.942937,0.0358 4.942937,0.0358 0.209935,0.37467 c 0.198795,0.3548 0.03315,1.25662 -3.121418,16.99376 -1.832245,9.1405 -3.411682,16.82092 -3.509861,17.06761 -0.290821,0.73073 -0.774798,0.84818 -3.494878,0.84818 -3.061554,0 -3.51127,-0.12514 -3.516166,-0.97847 -0.0011,-0.20033 0.707531,-3.88572 1.574845,-8.18976 0.867315,-4.30404 1.665051,-8.35664 1.772747,-9.00578 0.107696,-0.64914 0.287804,-1.57049 0.40024,-2.04744 0.246787,-1.04687 0.27207,-2.38147 0.04774,-2.52011 -0.326786,-0.20196 -1.234542,1.24755 -4.069686,6.49853 -1.314586,2.43475 -3.172891,5.8233 -3.892482,7.0978 -0.317901,0.56305 -0.964951,1.7608 -1.437889,2.66167 -0.876862,1.67029 -2.785347,5.07839 -3.18761,5.69232 -0.390318,0.5957 -0.822913,0.70129 -3.124457,0.76264 -3.134349,0.0835 -3.195793,0.0389 -3.573535,-2.59314 -0.110892,-0.77269 -0.323806,-2.20339 -0.473143,-3.17934 -0.149337,-0.97594 -0.426515,-2.78793 -0.615953,-4.02663 -0.189437,-1.2387 -0.622962,-4.15631 -0.963389,-6.48356 -0.667355,-4.56223 -0.901208,-5.73781 -1.201046,-6.03765 -0.165572,-0.16557 -0.221125,-0.16372 -0.398062,0.0132 -0.236139,0.23614 -0.628729,1.36733 -0.787453,2.26894 -0.599339,3.40443 -3.877187,19.10501 -4.040701,19.35456 -0.399492,0.6097 -0.932698,0.71293 -3.634201,0.70356 -1.372491,-0.005 -2.629624,-0.0627 -2.793631,-0.12879 z m 78.208072,-0.0641 c -0.266315,-0.1158 -0.463902,-0.31494 -0.502562,-0.50652 -0.183351,-0.90861 -0.39916,-2.32153 -0.903004,-5.91204 -0.305507,-2.17712 -0.673215,-4.72618 -0.817129,-5.66459 -0.143915,-0.93841 -0.356642,-2.41257 -0.472726,-3.27591 -0.116085,-0.86333 -0.329956,-2.3682 -0.47527,-3.34415 -0.411798,-2.7657 -0.693576,-5.00728 -0.691748,-5.50294 0.004,-1.09724 0.426762,-1.25553 3.332067,-1.24767 2.366317,0.006 3.266257,0.1169 3.590167,0.44081 0.225822,0.22582 0.256256,0.44076 0.854779,6.03681 0.569137,5.32129 1.058457,9.31385 1.162027,9.48143 0.0481,0.0778 0.23877,0.14154 0.42367,0.14154 0.24936,0 0.43603,-0.15743 0.72274,-0.60952 l 0.38655,-0.60952 0.4331,0.6684 c 0.23821,0.36762 0.85411,1.05818 1.36867,1.53458 l 0.93556,0.86619 -0.6613,2.45321 c -0.36371,1.34927 -0.80203,2.97531 -0.97403,3.61343 -0.44471,1.64987 -0.41623,1.63898 -4.269791,1.6324 -2.262236,-0.004 -3.111159,-0.0522 -3.44177,-0.19594 z m 56.235701,0.0623 c -0.16667,-0.0671 -0.34534,-0.29052 -0.39706,-0.49656 -0.0629,-0.25072 0.50742,-3.4014 1.72452,-9.52651 2.32273,-11.68929 2.91761,-14.46229 3.19257,-14.88193 0.32051,-0.48917 0.69023,-0.54877 3.40371,-0.54877 2.81215,0 2.82124,0.004 2.82124,1.2448 0,0.63317 0.22165,1.14388 0.49646,1.14388 0.14104,0 0.65272,-0.31856 1.26096,-0.78502 0.93084,-0.71386 3.22277,-1.78228 4.31665,-2.01227 1.13412,-0.23845 4.23791,-0.27177 5.28251,-0.0567 1.11051,0.22862 2.6149,1.02222 3.25577,1.71748 0.30913,0.33536 0.75642,1.02003 0.99399,1.52149 0.43064,0.90898 0.43195,0.91855 0.43195,3.16392 0,2.1082 -0.0376,2.43981 -0.58726,5.18685 -1.5968,7.97955 -2.64674,13.07951 -2.77712,13.48955 -0.27766,0.8732 -0.66309,0.97795 -3.60068,0.97852 -3.03831,6e-4 -3.2039,-0.0511 -3.2039,-1.00112 0,-0.31717 0.55077,-3.32666 1.22393,-6.68775 1.71188,-8.54744 1.84845,-9.58498 1.44188,-10.95406 -0.24498,-0.82495 -0.99206,-1.59795 -1.82987,-1.89336 -1.88685,-0.6653 -4.80599,0.14808 -6.23478,1.73724 -1.31577,1.46345 -1.68381,2.72217 -3.62107,12.38425 -0.73741,3.67786 -1.16097,5.50006 -1.33256,5.73283 -0.13835,0.18769 -0.46077,0.41456 -0.7165,0.50416 -0.55036,0.19285 -5.08381,0.2248 -5.54534,0.0391 z"
       id="path1"
       sodipodi:nodetypes="csssssssssssccssssscsscscccccsssssssssssssssssssscsscssssssssssssscscccscssscsssssssscccsssscsssssssscssssscsscccssssssccssssscsscsscsscssssssssssscssssssssssss" /><path
       style="font-style:italic;font-weight:bold;font-size:6.02947px;line-height:1;font-family:Montserrat;-inkscape-font-specification:'Montserrat Bold Italic';letter-spacing:-0.00807521px;stroke-width:0;stroke-linejoin:round;paint-order:markers fill stroke"
       d="m 184.06764,57.959866 0.68133,-3.424739 h -1.3506 l 0.16279,-0.79589 h 3.67798 l -0.1628,0.79589 h -1.34457 l -0.68736,3.424739 z m 2.84385,0 0.84413,-4.220629 h 0.79589 l 1.19986,2.990617 -0.42206,-0.006 2.33943,-2.984587 h 0.8381 l -0.8381,4.220629 h -0.91648 l 0.56074,-2.827822 h 0.18692 l -1.86311,2.381641 h -0.43412 l -0.99486,-2.38767 0.18088,0.01809 -0.56074,2.815763 z"
       id="text1"
       transform="scale(0.98225835,1.0180621)"
       aria-label="TM" /></g></svg>
