<?xml version="1.0" encoding="UTF-8" standalone="no"?>
<!DOCTYPE svg PUBLIC "-//W3C//DTD SVG 1.1//EN" "http://www.w3.org/Graphics/SVG/1.1/DTD/svg11.dtd">
<svg width="100%" height="100%" viewBox="0 0 1081 1081" version="1.1" xmlns="http://www.w3.org/2000/svg" xmlns:xlink="http://www.w3.org/1999/xlink" xml:space="preserve" xmlns:serif="http://www.serif.com/" style="fill-rule:evenodd;clip-rule:evenodd;stroke-linecap:round;stroke-linejoin:round;">
    <rect id="_08_Hedera_Blue" serif:id="08_Hedera_Blue" x="0.361" y="0.378" width="1080" height="1080" style="fill:none;"/>
    <g>
        <clipPath id="_clip1">
            <rect x="0.361" y="0.378" width="1080" height="1080"/>
        </clipPath>
        <g clip-path="url(#_clip1)">
            <g id="Background">
                <rect x="0.361" y="0.378" width="1080" height="1080" style="fill:rgb(223,241,253);"/>
            </g>
            <g transform="matrix(0.462304,0,0,0.462304,554.41,563.638)">
                <g transform="matrix(1,0,0,1,-1250.5,-1250.5)">
                    <rect id="_20-checklist" serif:id="20-checklist" x="0.158" y="0.316" width="2500" height="2500" style="fill:none;"/>
                    <path d="M444.49,1859.64L444.49,1685.55L1489.05,1685.55L1489.05,1772.59L1489.05,1859.64C1489.05,1955.14 1567.64,2033.73 1663.14,2033.73L618.583,2033.73C523.078,2033.73 444.49,1955.14 444.49,1859.64" style="fill:rgb(157,214,197);fill-rule:nonzero;stroke:black;stroke-width:16.67px;"/>
                    <path d="M2011.48,466.896C2057.61,466.896 2101.86,485.223 2134.48,517.843C2167.1,550.464 2185.42,594.707 2185.42,640.839L2185.42,902.494L1837.54,902.494L1837.54,640.839C1837.54,594.707 1855.86,550.464 1888.48,517.843C1921.11,485.223 1965.35,466.896 2011.48,466.896Z" style="fill:rgb(157,214,197);stroke:black;stroke-width:16.67px;stroke-miterlimit:1.5;"/>
                    <path d="M705.63,1685.55L705.63,640.99C705.63,545.485 784.218,466.896 879.723,466.896L2011.33,466.896" style="fill:none;fill-rule:nonzero;stroke:black;stroke-width:16.67px;"/>
                    <path d="M1489.05,1772.6L1489.05,1859.65C1489.05,1955.15 1567.64,2033.74 1663.14,2033.74M531.534,1685.55L1402,1685.55M2185.38,642.303L2185.42,640.997C2185.42,545.492 2106.83,466.903 2011.33,466.903C1915.82,466.903 1837.23,545.492 1837.23,640.997L1837.23,1859.65C1837.23,1955.15 1758.64,2033.74 1663.14,2033.74L618.581,2033.74C523.076,2033.74 444.488,1955.15 444.488,1859.65L444.488,1772.6M1837.54,902.129L1837.24,902.134" style="fill:none;fill-rule:nonzero;stroke:black;stroke-width:16.67px;"/>
                    <path d="M2185.38,642.296L2185.42,642.296L2185.42,902.494L1837.54,902.494L1837.54,902.125" style="fill:none;stroke:black;stroke-width:16.67px;stroke-miterlimit:1.5;"/>
                    <path d="M444.49,1859.64L444.49,1685.55L1489.05,1685.55L1489.05,1772.59L1489.05,1859.64" style="fill:none;stroke:black;stroke-width:16.67px;stroke-miterlimit:1.5;"/>
                    <g>
                        <path d="M301.71,546.694C343.976,522.292 398.02,536.773 422.421,579.038C543.591,788.909 872.178,1358.04 872.178,1358.04L694.1,1460.85C694.1,1460.85 365.513,891.722 244.344,681.851C219.942,639.586 234.423,585.542 276.688,561.14C284.98,556.353 293.419,551.481 301.71,546.694Z" style="fill:white;stroke:black;stroke-width:16.67px;stroke-miterlimit:1.5;"/>
                        <path d="M837.285,1557.51C846.855,1563.97 859.272,1564.41 869.271,1558.63C879.271,1552.86 885.102,1541.89 884.292,1530.37C879.416,1461 872.178,1358.04 872.178,1358.04L694.1,1460.85C694.1,1460.85 779.649,1518.6 837.285,1557.51Z" style="fill:rgb(93,185,245);stroke:black;stroke-width:16.67px;stroke-miterlimit:1.5;"/>
                        <path d="M456.083,637.341L484.925,687.297L306.847,790.11L278.005,740.154L456.083,637.341Z" style="fill:rgb(93,185,245);stroke:black;stroke-width:16.67px;stroke-miterlimit:1.5;"/>
                        <path d="M458.845,925.223L749.593,1428.81" style="fill:none;stroke:black;stroke-width:16.67px;stroke-miterlimit:1.5;"/>
                        <path d="M525.937,886.487L816.685,1390.08" style="fill:none;stroke:black;stroke-width:16.67px;stroke-miterlimit:1.5;"/>
                    </g>
                    <g>
                        <path d="M1030.57,707.336C1034.95,702.951 1042.07,702.951 1046.46,707.336C1050.84,711.721 1050.84,718.841 1046.46,723.226L948.207,821.478C943.819,825.866 936.705,825.866 932.317,821.478L887.657,776.818C883.272,772.433 883.272,765.313 887.657,760.928C892.042,756.544 899.162,756.544 903.547,760.928L940.262,797.644L1030.57,707.336Z" style="fill:rgb(92,186,158);"/>
                        <path d="M1066.3,743.064C1070.68,738.679 1077.81,738.679 1082.19,743.064C1086.57,747.449 1086.57,754.569 1082.19,758.954L1015.2,825.944C1010.81,830.332 1003.7,830.332 999.31,825.944L985.912,812.546C981.527,808.161 981.527,801.041 985.912,796.657C990.296,792.272 997.416,792.272 1001.8,796.657L1007.25,802.11L1066.3,743.064Z" style="fill:rgb(190,227,216);"/>
                    </g>
                    <g>
                        <path d="M1030.57,953.066C1034.95,948.682 1042.07,948.682 1046.46,953.066C1050.84,957.451 1050.84,964.571 1046.46,968.956L948.207,1067.21C943.819,1071.6 936.705,1071.6 932.317,1067.21L887.657,1022.55C883.272,1018.16 883.272,1011.04 887.657,1006.66C892.042,1002.27 899.162,1002.27 903.547,1006.66L940.262,1043.37L1030.57,953.066Z" style="fill:rgb(92,186,158);"/>
                        <path d="M1066.3,988.794C1070.68,984.41 1077.81,984.41 1082.19,988.794C1086.57,993.179 1086.57,1000.3 1082.19,1004.68L1015.2,1071.67C1010.81,1076.06 1003.7,1076.06 999.31,1071.67L985.912,1058.28C981.527,1053.89 981.527,1046.77 985.912,1042.39C990.296,1038 997.416,1038 1001.8,1042.39L1007.25,1047.84L1066.3,988.794Z" style="fill:rgb(190,227,216);"/>
                    </g>
                    <g>
                        <path d="M1030.57,1191.01C1034.95,1186.62 1042.07,1186.62 1046.46,1191.01C1050.84,1195.39 1050.84,1202.52 1046.46,1206.9L948.207,1305.15C943.819,1309.54 936.705,1309.54 932.317,1305.15L887.657,1260.49C883.272,1256.11 883.272,1248.99 887.657,1244.6C892.042,1240.22 899.162,1240.22 903.547,1244.6L940.262,1281.32L1030.57,1191.01Z" style="fill:rgb(92,186,158);"/>
                        <path d="M1066.3,1226.74C1070.68,1222.36 1077.81,1222.36 1082.19,1226.74C1086.57,1231.12 1086.57,1238.25 1082.19,1242.63L1015.2,1309.62C1010.81,1314.01 1003.7,1314.01 999.31,1309.62L985.912,1296.22C981.527,1291.84 981.527,1284.72 985.912,1280.33C990.296,1275.95 997.416,1275.95 1001.8,1280.33L1007.25,1285.79L1066.3,1226.74Z" style="fill:rgb(190,227,216);"/>
                    </g>
                    <path d="M1149.51,735.808L1567.45,735.808" style="fill:none;stroke:black;stroke-width:16.67px;stroke-miterlimit:1.5;"/>
                    <path d="M1149.51,981.538L1567.45,981.538" style="fill:none;stroke:black;stroke-width:16.67px;stroke-miterlimit:1.5;"/>
                    <path d="M1149.51,1219.48L1567.45,1219.48" style="fill:none;stroke:black;stroke-width:16.67px;stroke-miterlimit:1.5;"/>
                    <path d="M1149.51,1442.66L1567.45,1442.66" style="fill:none;stroke:black;stroke-width:16.67px;stroke-miterlimit:1.5;"/>
                    <path d="M1149.51,797.475L1411.42,797.475" style="fill:none;stroke:black;stroke-width:16.67px;stroke-miterlimit:1.5;"/>
                    <path d="M1149.51,1043.2L1411.42,1043.2" style="fill:none;stroke:black;stroke-width:16.67px;stroke-miterlimit:1.5;"/>
                    <path d="M1149.51,1281.15L1411.42,1281.15" style="fill:none;stroke:black;stroke-width:16.67px;stroke-miterlimit:1.5;"/>
                    <path d="M1149.51,1504.33L1411.42,1504.33" style="fill:none;stroke:black;stroke-width:16.67px;stroke-miterlimit:1.5;"/>
                </g>
            </g>
        </g>
    </g>
</svg>
