<?xml version="1.0" encoding="UTF-8" standalone="no"?><!DOCTYPE svg PUBLIC "-//W3C//DTD SVG 1.1//EN" "http://www.w3.org/Graphics/SVG/1.1/DTD/svg11.dtd"><svg width="100%" height="100%" viewBox="0 0 1080 1080" version="1.1" xmlns="http://www.w3.org/2000/svg" xmlns:xlink="http://www.w3.org/1999/xlink" xml:space="preserve" xmlns:serif="http://www.serif.com/" style="fill-rule:evenodd;clip-rule:evenodd;stroke-linecap:round;stroke-linejoin:round;stroke-miterlimit:1.5;"><rect id="_01_Java-Variant-1_Green" serif:id="01_Java Variant 1_Green" x="0" y="0" width="1080" height="1080" style="fill:none;"/><clipPath id="_clip1"><rect id="_01_Java-Variant-1_Green1" serif:id="01_Java Variant 1_Green" x="0" y="0" width="1080" height="1080"/></clipPath><g clip-path="url(#_clip1)"><g id="Background"><rect x="0" y="-0" width="1080" height="1080" style="fill:#def1ec;"/></g><g id="Fill"><path d="M766.93,631.831l35.581,-3.192c0,-0 -6.75,-31.013 13.644,-28.267c20.395,2.745 60.424,51.443 49.226,72.805c-11.199,21.362 -22.222,10.003 -22.222,10.003c-0,0 5.598,28.402 -10.666,37.384c-0,-0 28.865,-7.373 21.013,23.809c-7.852,31.182 -38.11,25.15 -63.609,13.785l-22.967,-126.327Z" style="fill:#020144;"/><path d="M312.459,631.831l-35.581,-3.192c0,-0 6.751,-31.013 -13.644,-28.267c-20.394,2.745 -60.424,51.443 -49.225,72.805c11.199,21.362 22.222,10.003 22.222,10.003c-0,0 -5.598,28.402 10.666,37.384c-0,-0 -28.866,-7.373 -21.013,23.809c7.852,31.182 38.11,25.15 63.608,13.785l22.967,-126.327Z" style="fill:#020144;"/><path d="M351.859,495.681l115.496,-17.496l72.645,-13.153l73.559,13.153l120.785,17.496l-77.209,-202.528l-117.135,-171.497l-118.862,181.247l-69.279,192.778Z" style="fill:#020144;"/></g><g id="Outline"><path d="M540,786.582c-135.244,-1.66 -191.786,115.779 -226.93,159.749c-21.604,27.03 -35.581,0 -35.581,0c17.839,-575.761 262.511,-824.675 262.511,-824.675c0,-0 244.672,248.914 262.511,824.675c0,0 -13.977,27.03 -35.581,0c-35.144,-43.97 -91.686,-161.409 -226.93,-159.749" style="fill:none;stroke:#020144;stroke-width:16.67px;"/><path d="M787.416,755.42c-0,-0 54.352,28.858 65.342,-8.798c10.286,-35.243 -17.276,-25.962 -20.852,-24.628c-0.241,0.101 -0.377,0.146 -0.377,0.146c0,-0 0.133,-0.054 0.377,-0.146c2.664,-1.105 18.251,-8.903 8.277,-36.784c-0,0 36.255,-0.729 21.789,-37.616c-2.012,-5.131 -5.006,-10.96 -9.214,-17.585c-6.147,-9.676 -11.755,-16.585 -16.824,-21.284c-23.354,-21.651 -35.257,3.603 -35.591,21.284c0,0 -18.444,-5.308 -33.413,2.402" style="fill:none;stroke:#020144;stroke-width:16.67px;"/><path d="M292.584,755.42c0,-0 -54.352,28.858 -65.342,-8.798c-10.286,-35.243 17.276,-25.962 20.852,-24.628c0.241,0.101 0.377,0.146 0.377,0.146c-0,-0 -0.133,-0.054 -0.377,-0.146c-2.664,-1.105 -18.251,-8.903 -8.277,-36.784c0,0 -36.255,-0.729 -21.789,-37.616c2.012,-5.131 5.006,-10.96 9.214,-17.585c6.147,-9.676 11.755,-16.585 16.824,-21.284c23.354,-21.651 35.257,3.603 35.591,21.284c-0,0 18.444,-5.308 33.413,2.402" style="fill:none;stroke:#020144;stroke-width:16.67px;"/><path d="M740.473,523.172c-0,0 109.298,20.711 119.496,60.75c2.44,9.58 -13.958,19.628 -24.035,24.803" style="fill:none;stroke:#020144;stroke-width:16.67px;"/><path d="M339.527,523.172c0,0 -109.298,20.711 -119.496,60.75c-2.44,9.58 13.958,19.628 24.035,24.803" style="fill:none;stroke:#020144;stroke-width:16.67px;"/><path d="M722.776,465.032c0,0 172.639,27.488 189.812,111.586c7.479,36.625 -36.777,63.54 -50.616,70.976" style="fill:none;stroke:#020144;stroke-width:16.67px;"/><path d="M357.224,465.032c-0,0 -172.639,27.488 -189.812,111.586c-7.479,36.625 36.777,63.54 50.616,70.976" style="fill:none;stroke:#020144;stroke-width:16.67px;"/><ellipse cx="540" cy="522.365" rx="99.92" ry="57.332" style="fill:#e63277;stroke:#020144;stroke-width:16.67px;"/><path d="M348.109,493.871c42.467,-7.422 84.743,-12.415 126.831,-15.007m129.292,-0.404c42.658,2.374 85.122,7.23 127.394,14.541" style="fill:none;stroke:#020144;stroke-width:16.67px;"/></g></g></svg>