<?xml version="1.0" encoding="UTF-8" standalone="no"?><!DOCTYPE svg PUBLIC "-//W3C//DTD SVG 1.1//EN" "http://www.w3.org/Graphics/SVG/1.1/DTD/svg11.dtd"><svg width="100%" height="100%" viewBox="0 0 1081 1081" version="1.1" xmlns="http://www.w3.org/2000/svg" xmlns:xlink="http://www.w3.org/1999/xlink" xml:space="preserve" xmlns:serif="http://www.serif.com/" style="fill-rule:evenodd;clip-rule:evenodd;stroke-linejoin:round;stroke-miterlimit:2;"><rect id="_07_GitHub_Blue" serif:id="07_GitHub_Blue" x="0.624" y="0.378" width="1080" height="1080" style="fill:none;"/><clipPath id="_clip1"><rect x="0.624" y="0.378" width="1080" height="1080"/></clipPath><g clip-path="url(#_clip1)"><g id="Background"><rect x="0.624" y="0.378" width="1080" height="1080" style="fill:#dff1fd;"/></g><path d="M540.963,136.682c-227.204,-0 -410.877,185.026 -410.877,413.93c0,182.975 117.686,337.859 280.946,392.677c20.412,4.121 27.889,-8.906 27.889,-19.865c0,-9.596 -0.673,-42.489 -0.673,-76.761c-114.296,24.676 -138.097,-49.343 -138.097,-49.343c-18.368,-47.973 -45.584,-60.302 -45.584,-60.302c-37.409,-25.357 2.725,-25.357 2.725,-25.357c41.496,2.742 63.271,42.489 63.271,42.489c36.728,63.043 95.911,45.23 119.721,34.263c3.397,-26.728 14.289,-45.23 25.853,-55.508c-91.16,-9.596 -187.071,-45.23 -187.071,-204.227c0,-45.231 16.316,-82.236 42.17,-111.016c-4.079,-10.278 -18.369,-52.775 4.087,-109.654c0,0 34.693,-10.967 112.917,42.489c33.49,-9.061 68.029,-13.67 102.723,-13.709c34.693,0 70.058,4.802 102.715,13.709c78.233,-53.456 112.926,-42.489 112.926,-42.489c22.455,56.879 8.158,99.376 4.079,109.654c26.534,28.78 42.177,65.785 42.177,111.016c0,158.997 -95.911,193.941 -187.751,204.227c14.97,13.019 27.888,37.687 27.888,76.753c0,55.508 -0.673,100.057 -0.673,113.758c0,10.967 7.486,23.994 27.889,19.882c163.261,-54.836 280.946,-209.711 280.946,-392.686c0.673,-228.904 -183.672,-413.93 -410.196,-413.93Z" style="fill:#5db9f5;stroke:#020144;stroke-width:16.67px;"/></g></svg>