<?xml version="1.0" encoding="UTF-8" standalone="no"?><!DOCTYPE svg PUBLIC "-//W3C//DTD SVG 1.1//EN" "http://www.w3.org/Graphics/SVG/1.1/DTD/svg11.dtd"><svg width="100%" height="100%" viewBox="0 0 1081 1081" version="1.1" xmlns="http://www.w3.org/2000/svg" xmlns:xlink="http://www.w3.org/1999/xlink" xml:space="preserve" xmlns:serif="http://www.serif.com/" style="fill-rule:evenodd;clip-rule:evenodd;stroke-linejoin:round;stroke-miterlimit:2;"><rect id="_08_Hedera_Purple" serif:id="08_Hedera_Purple" x="0.361" y="0.902" width="1080" height="1080" style="fill:none;"/><clipPath id="_clip1"><rect x="0.361" y="0.902" width="1080" height="1080"/></clipPath><g clip-path="url(#_clip1)"><g id="Background"><rect x="0.361" y="0.902" width="1080" height="1080" style="fill:#d4d4fe;"/></g><g id="Fill"></g><g id="Outline"></g><rect x="456.642" y="407.957" width="171.768" height="43.303" style="fill:#9492fd;stroke:#020144;stroke-width:16.67px;"/><path d="M665.578,566.373l-39.333,0l-0,-83.719l-171.407,0l-0,83.719l-38.973,0l0,-271.725l38.973,0l-0,81.915l171.767,-0l0,-81.915l38.973,0l-0,271.725Zm-125.217,-473.443c-185.119,-0 -335.596,151.92 -335.596,339.205c-0,187.284 150.116,339.204 335.596,339.204c185.48,0 335.596,-151.92 335.596,-339.204c0,-187.285 -150.116,-339.205 -335.596,-339.205" style="fill:#9492fd;fill-rule:nonzero;stroke:#020144;stroke-width:16.67px;"/><path d="M261.825,839.855l21.672,-0l0,146.337l-21.672,-0l0,-63.571l-85.449,-0l0,63.571l-21.465,-0l-0,-146.337l21.672,-0l-0,62.332l85.449,0l-0,-62.332l-0.207,-0Zm96.595,41.486c30.547,0 51.806,22.91 51.806,55.934l0,1.032l-82.559,0c1.444,18.37 14.654,31.166 32.611,31.166c21.672,0 28.276,-12.796 28.483,-13.415l0.206,-0.62l20.021,0l-0.207,1.239c-1.444,8.256 -13.828,31.992 -48.71,31.992c-30.34,-0 -53.251,-23.117 -53.251,-53.664c0,-30.547 22.291,-53.664 51.6,-53.664m0,17.957c-14.654,-0 -25.181,7.843 -29.309,21.465l58.205,0c-4.747,-14.035 -14.654,-21.465 -28.896,-21.465m152.735,-64.603l20.434,-0l-0,151.703l-20.434,0l0,-14.654c-4.128,5.779 -15.067,17.131 -35.087,17.131c-29.515,-0 -50.155,-22.085 -50.155,-53.664c-0,-31.579 20.64,-53.664 50.155,-53.664c18.575,0 30.134,9.288 35.087,16.306l0,-63.158Zm-31.579,134.778c18.783,0 31.992,-14.241 31.992,-34.468c0,-20.227 -13.209,-34.469 -31.992,-34.469c-19.195,0 -32.404,14.242 -32.404,34.469c-0.207,20.227 13.209,34.468 32.404,34.468m127.761,-88.132c30.547,0 51.806,22.91 51.806,55.934l0,1.032l-82.559,0c1.445,18.37 14.654,31.166 32.611,31.166c21.672,0 28.277,-12.796 28.483,-13.415l0.206,-0.62l20.021,0l-0.206,1.239c-1.445,8.256 -13.829,31.992 -48.71,31.992c-30.341,-0 -53.251,-23.117 -53.251,-53.664c-0,-30.547 22.084,-53.664 51.599,-53.664m0,17.957c-14.654,-0 -25.18,7.843 -29.308,21.465l58.204,0c-4.953,-14.035 -14.861,-21.465 -28.896,-21.465m95.15,-0.619l0,-14.861l-20.433,-0l-0,102.58l20.433,0l0,-57.792c0,-17.956 9.288,-24.974 33.024,-24.974l26.419,0l0,-20.64l-26.006,0c-20.227,0 -29.309,9.082 -33.437,15.687m150.052,-14.861l20.434,-0l-0,102.58l-20.434,0l0,-14.654c-4.747,6.811 -15.067,16.925 -34.056,16.925c-29.102,-0 -49.535,-22.085 -49.535,-53.664c-0,-35.294 24.974,-53.664 49.535,-53.664c19.815,0 30.135,10.733 34.056,16.306l0,-13.829Zm0.413,51.187c0,-20.021 -13.003,-34.469 -30.96,-34.469c-18.782,0 -31.785,14.242 -31.785,34.469c-0,20.227 13.003,34.468 31.785,34.468c17.957,0 30.96,-14.447 30.96,-34.468m39.835,-50.155l0,1.857l5.573,0l-0,12.797l2.064,0l-0,-12.797l5.573,0l-0,-1.857l-13.21,-0Zm29.515,-0l-4.747,11.765l-4.747,-11.765l-3.303,-0l0,14.861l2.064,-0l0,-12.797l5.367,13.003l1.445,-0l5.366,-12.797l-0,12.797l2.064,-0l-0,-14.861l-3.509,0l0,-0.206Z" style="fill:#020144;fill-rule:nonzero;"/></g></svg>