<?xml version="1.0" encoding="UTF-8" standalone="no"?><!DOCTYPE svg PUBLIC "-//W3C//DTD SVG 1.1//EN" "http://www.w3.org/Graphics/SVG/1.1/DTD/svg11.dtd"><svg width="100%" height="100%" viewBox="0 0 1081 1081" version="1.1" xmlns="http://www.w3.org/2000/svg" xmlns:xlink="http://www.w3.org/1999/xlink" xml:space="preserve" xmlns:serif="http://www.serif.com/" style="fill-rule:evenodd;clip-rule:evenodd;stroke-linejoin:round;stroke-miterlimit:2;"><rect id="_08_Hedera_Pink" serif:id="08_Hedera_Pink" x="0.361" y="0.513" width="1080" height="1080" style="fill:none;"/><clipPath id="_clip1"><rect x="0.361" y="0.513" width="1080" height="1080"/></clipPath><g clip-path="url(#_clip1)"><g id="Background"><rect x="0.361" y="0.513" width="1080" height="1080" style="fill:#fad6e4;"/></g><g id="Fill"></g><g id="Outline"></g><rect x="456.642" y="407.568" width="171.768" height="43.303" style="fill:#f084ad;stroke:#020144;stroke-width:16.67px;"/><path d="M665.578,565.984l-39.333,-0l-0,-83.719l-171.407,-0l-0,83.719l-38.973,-0l0,-271.725l38.973,-0l-0,81.914l171.767,0l0,-81.914l38.973,-0l-0,271.725Zm-125.217,-473.444c-185.119,0 -335.596,151.921 -335.596,339.205c-0,187.284 150.116,339.205 335.596,339.205c185.48,-0 335.596,-151.921 335.596,-339.205c0,-187.284 -150.116,-339.205 -335.596,-339.205" style="fill:#f084ad;fill-rule:nonzero;stroke:#020144;stroke-width:16.67px;"/><path d="M261.825,839.465l21.672,0l0,146.337l-21.672,0l0,-63.571l-85.449,0l0,63.571l-21.465,0l-0,-146.337l21.672,0l-0,62.333l85.449,-0l-0,-62.333l-0.207,0Zm96.595,41.487c30.547,-0 51.806,22.91 51.806,55.934l0,1.032l-82.559,-0c1.444,18.369 14.654,31.166 32.611,31.166c21.672,-0 28.276,-12.797 28.483,-13.416l0.206,-0.619l20.021,-0l-0.207,1.238c-1.444,8.256 -13.828,31.992 -48.71,31.992c-30.34,-0 -53.251,-23.117 -53.251,-53.664c0,-30.547 22.291,-53.663 51.6,-53.663m0,17.956c-14.654,0 -25.181,7.843 -29.309,21.466l58.205,-0c-4.747,-14.035 -14.654,-21.466 -28.896,-21.466m152.735,-64.603l20.434,0l-0,151.704l-20.434,-0l0,-14.655c-4.128,5.779 -15.067,17.131 -35.087,17.131c-29.515,0 -50.155,-22.084 -50.155,-53.663c-0,-31.579 20.64,-53.664 50.155,-53.664c18.575,-0 30.134,9.288 35.087,16.305l0,-63.158Zm-31.579,134.779c18.783,-0 31.992,-14.242 31.992,-34.469c0,-20.227 -13.209,-34.468 -31.992,-34.468c-19.195,-0 -32.404,14.241 -32.404,34.468c-0.207,20.227 13.209,34.469 32.404,34.469m127.761,-88.132c30.547,-0 51.806,22.91 51.806,55.934l0,1.032l-82.559,-0c1.445,18.369 14.654,31.166 32.611,31.166c21.672,-0 28.277,-12.797 28.483,-13.416l0.206,-0.619l20.021,-0l-0.206,1.238c-1.445,8.256 -13.829,31.992 -48.71,31.992c-30.341,-0 -53.251,-23.117 -53.251,-53.664c-0,-30.547 22.084,-53.663 51.599,-53.663m0,17.956c-14.654,0 -25.18,7.843 -29.308,21.466l58.204,-0c-4.953,-14.035 -14.861,-21.466 -28.896,-21.466m95.15,-0.619l0,-14.861l-20.433,0l-0,102.581l20.433,-0l0,-57.792c0,-17.957 9.288,-24.974 33.024,-24.974l26.419,-0l0,-20.64l-26.006,-0c-20.227,-0 -29.309,9.081 -33.437,15.686m150.052,-14.861l20.434,0l-0,102.581l-20.434,-0l0,-14.655c-4.747,6.811 -15.067,16.925 -34.056,16.925c-29.102,-0 -49.535,-22.085 -49.535,-53.664c-0,-35.294 24.974,-53.663 49.535,-53.663c19.815,-0 30.135,10.732 34.056,16.305l0,-13.829Zm0.413,51.187c0,-20.02 -13.003,-34.468 -30.96,-34.468c-18.782,-0 -31.785,14.241 -31.785,34.468c-0,20.227 13.003,34.469 31.785,34.469c17.957,-0 30.96,-14.448 30.96,-34.469m39.835,-50.155l0,1.858l5.573,-0l-0,12.797l2.064,-0l-0,-12.797l5.573,-0l-0,-1.858l-13.21,0Zm29.515,0l-4.747,11.765l-4.747,-11.765l-3.303,0l0,14.861l2.064,0l0,-12.797l5.367,13.003l1.445,0l5.366,-12.796l-0,12.796l2.064,0l-0,-14.86l-3.509,-0l0,-0.207Z" style="fill:#020144;fill-rule:nonzero;"/></g></svg>