<?xml version="1.0" encoding="UTF-8" standalone="no"?><!DOCTYPE svg PUBLIC "-//W3C//DTD SVG 1.1//EN" "http://www.w3.org/Graphics/SVG/1.1/DTD/svg11.dtd"><svg width="100%" height="100%" viewBox="0 0 1081 1080" version="1.1" xmlns="http://www.w3.org/2000/svg" xmlns:xlink="http://www.w3.org/1999/xlink" xml:space="preserve" xmlns:serif="http://www.serif.com/" style="fill-rule:evenodd;clip-rule:evenodd;stroke-linecap:round;stroke-linejoin:round;stroke-miterlimit:1.5;"><rect id="_02_Java-Variant-2_Green" serif:id="02_Java Variant 2_Green" x="0.262" y="0" width="1080" height="1080" style="fill:none;"/><clipPath id="_clip1"><rect x="0.262" y="0" width="1080" height="1080"/></clipPath><g clip-path="url(#_clip1)"><g id="Background"><rect x="0.262" y="-0" width="1080" height="1080" style="fill:#def1ec;"/></g><g id="Fill"><path d="M560.67,301.476c-24.569,17.28 -52.415,36.865 -67.335,69.268c-25.915,56.531 53.029,118.196 56.403,120.793c0.784,0.603 1.723,0.904 2.659,0.904c0.993,0 1.988,-0.339 2.796,-1.016c1.567,-1.311 2.012,-3.537 1.071,-5.351c-0.286,-0.55 -28.623,-55.592 -27.57,-95.078c0.373,-13.753 19.62,-29.355 39.996,-45.872c18.662,-15.13 39.817,-32.277 52.194,-52.336c27.171,-44.153 -3.029,-87.569 -3.337,-88.004c-1.2,-1.684 -3.414,-2.294 -5.307,-1.464c-1.891,0.835 -2.939,2.88 -2.507,4.902c0.061,0.288 5.934,28.998 -10.408,58.579c-6.732,12.223 -21.524,22.627 -38.655,34.675Z" style="fill:#f1e34b;fill-rule:nonzero;"/><path d="M664.183,320.946c1.733,-1.306 2.242,-3.687 1.194,-5.587c-1.05,-1.901 -3.335,-2.739 -5.364,-1.968c-4.174,1.586 -102.207,39.375 -102.207,85.033c0,31.475 13.445,48.101 23.262,60.244c3.851,4.762 7.175,8.875 8.271,12.386c3.084,10.118 -4.223,28.407 -7.296,34.6c-0.886,1.78 -0.452,3.939 1.055,5.239c0.814,0.703 1.831,1.06 2.849,1.06c0.866,0 1.736,-0.257 2.488,-0.781c1.686,-1.171 41.195,-29.105 34.109,-62.761c-2.64,-12.792 -8.926,-22.139 -14.473,-30.387c-8.592,-12.779 -14.798,-22.009 -5.383,-39.057c11.031,-19.886 60.989,-57.643 61.495,-58.021Z" style="fill:#f1e34b;fill-rule:nonzero;"/><path d="M408.999,512.676c-1.68,5.032 -0.887,10.023 2.292,14.438c10.627,14.755 48.27,22.878 105.999,22.878l0.008,-0c7.822,-0 16.08,-0.154 24.539,-0.457c92.298,-3.304 126.532,-32.058 127.944,-33.28c1.539,-1.333 1.951,-3.551 0.994,-5.346c-0.957,-1.793 -3.021,-2.695 -4.993,-2.151c-32.507,8.875 -93.205,12.026 -135.306,12.026c-47.111,-0 -71.103,-3.394 -76.976,-5.9c3.013,-4.139 21.603,-11.529 44.638,-16.06c2.202,-0.432 3.715,-2.465 3.497,-4.698c-0.218,-2.233 -2.094,-3.936 -4.338,-3.936c-13.503,-0 -81.219,1.084 -88.298,22.486Z" style="fill:#5cba9e;fill-rule:nonzero;"/><path d="M717.848,483.059c-19.037,0 -37.09,9.542 -37.85,9.946c-1.76,0.943 -2.653,2.962 -2.17,4.902c0.485,1.937 2.226,3.298 4.223,3.301c0.404,-0 40.608,0.329 44.25,23.3c3.225,19.817 -38.04,51.926 -54.213,62.627c-1.747,1.155 -2.425,3.388 -1.614,5.32c0.691,1.644 2.291,2.672 4.017,2.672c0.301,-0 0.606,-0.031 0.91,-0.096c3.838,-0.821 93.888,-20.665 84.367,-73.095c-5.809,-32.131 -26.004,-38.877 -41.92,-38.877Z" style="fill:#5cba9e;fill-rule:nonzero;"/><path d="M656.093,580.719c0.313,-1.68 -0.386,-3.388 -1.784,-4.369l-21.591,-15.124c-1.053,-0.738 -2.384,-0.969 -3.62,-0.642c-0.225,0.057 -22.804,5.993 -55.586,9.633c-13.011,1.459 -27.583,2.23 -42.145,2.23c-32.774,-0 -54.203,-3.851 -57.324,-6.676c-0.413,-0.793 -0.282,-1.154 -0.208,-1.354c0.567,-1.577 3.605,-3.45 5.564,-4.192c2.163,-0.8 3.33,-3.149 2.657,-5.355c-0.671,-2.209 -2.947,-3.508 -5.192,-2.969c-21.659,5.227 -32.25,12.536 -31.479,21.723c1.368,16.291 39.1,24.652 70.998,26.862c4.587,0.313 9.548,0.472 14.742,0.472l0.008,0c53.041,0 121.039,-16.642 121.718,-16.811c1.661,-0.405 2.927,-1.746 3.242,-3.428Z" style="fill:#5cba9e;fill-rule:nonzero;"/><path d="M493.31,615.679c1.636,-1.063 2.361,-3.085 1.78,-4.947c-0.578,-1.862 -2.32,-3.086 -4.277,-3.06c-2.902,0.077 -28.402,1.228 -30.187,17.463c-0.54,4.852 0.849,9.285 4.132,13.175c9.156,10.85 33.87,17.299 75.543,19.715c4.93,0.296 9.938,0.444 14.886,0.444c52.98,0 88.661,-16.588 90.156,-17.294c1.449,-0.686 2.404,-2.109 2.489,-3.709c0.085,-1.599 -0.713,-3.116 -2.08,-3.952l-27.287,-16.658c-0.947,-0.578 -2.08,-0.769 -3.16,-0.547c-0.173,0.036 -17.498,3.629 -43.645,7.179c-4.947,0.673 -11.143,1.014 -18.413,1.014c-26.119,0 -55.17,-4.267 -60.742,-7.061c-0.081,-0.522 0.022,-1.184 0.805,-1.762Z" style="fill:#5cba9e;fill-rule:nonzero;"/><path d="M530.495,708.555c121.355,-0.103 186.488,-21.684 199.035,-35.265c4.442,-4.804 4.922,-9.353 4.545,-12.324c-0.933,-7.311 -7.593,-11.787 -8.348,-12.273c-1.821,-1.172 -4.266,-0.865 -5.687,0.773c-1.417,1.639 -1.45,4.034 -0.028,5.672c0.766,0.984 1.208,2.632 -1.03,4.872c-5.016,4.685 -55.607,18.906 -139.843,23.178c-11.539,0.599 -23.641,0.905 -35.97,0.907c-75.42,-0 -130.616,-10.331 -137.862,-16.351c2.793,-4.013 22.317,-10.423 43.08,-14.05c2.34,-0.408 3.92,-2.613 3.558,-4.96c-0.363,-2.346 -2.526,-3.961 -4.891,-3.654c-0.585,0.08 -2.573,0.198 -4.874,0.339c-34.259,2.092 -73.848,6.754 -75.914,24.405c-0.627,5.379 0.971,10.262 4.752,14.512c9.253,10.395 35.846,24.217 159.473,24.217c0.002,0.002 0.002,0.002 0.004,0.002Z" style="fill:#5cba9e;fill-rule:nonzero;"/><path d="M753.366,677.117c-1.715,-0.794 -3.742,-0.393 -5.022,0.989c-0.177,0.192 -18.423,19.27 -73.282,30.474c-21.002,4.208 -60.424,6.342 -117.172,6.342c-56.853,0 -110.953,-2.237 -111.492,-2.26c-2.26,-0.11 -4.192,1.533 -4.5,3.758c-0.308,2.222 1.125,4.318 3.307,4.837c0.563,0.133 57.259,13.416 134.778,13.416c37.18,-0 73.36,-3.019 107.536,-8.978c63.725,-11.172 68.186,-42.77 68.345,-44.109c0.222,-1.873 -0.785,-3.676 -2.498,-4.469Z" style="fill:#5cba9e;fill-rule:nonzero;"/><rect x="278.339" y="441.862" width="54.836" height="369.879" style="fill:#5cba9e;"/><rect x="202.537" y="507.169" width="49.927" height="369.879" style="fill:#5cba9e;"/></g><g id="Outline"><path d="M367.437,441.862l-89.098,0l-0,369.879l599.648,0l0,-369.879l-96.455,0" style="fill:none;stroke:#020144;stroke-width:16.67px;"/><path d="M248.871,507.169l-46.334,0l0,369.879l599.648,-0l0,-37.711" style="fill:none;stroke:#020144;stroke-width:16.67px;"/></g></g></svg>