<?xml version="1.0" encoding="UTF-8" standalone="no"?>
<!DOCTYPE svg PUBLIC "-//W3C//DTD SVG 1.1//EN" "http://www.w3.org/Graphics/SVG/1.1/DTD/svg11.dtd">
<svg width="100%" height="100%" viewBox="0 0 1081 1081" version="1.1" xmlns="http://www.w3.org/2000/svg" xmlns:xlink="http://www.w3.org/1999/xlink" xml:space="preserve" xmlns:serif="http://www.serif.com/" style="fill-rule:evenodd;clip-rule:evenodd;stroke-linecap:round;stroke-linejoin:round;stroke-miterlimit:1.5;">
    <rect id="_08_Hedera_Blue" serif:id="08_Hedera_Blue" x="0.361" y="0.378" width="1080" height="1080" style="fill:none;"/>
    <g>
        <g id="Background">
            <rect x="0.361" y="0.378" width="1080" height="1080" style="fill:rgb(223,241,253);"/>
        </g>
        <g transform="matrix(0.499509,0,0,0.499509,546.807,610.179)">
            <g transform="matrix(1,0,0,1,-1250.5,-1250.5)">
                <rect id="_34-share-love" serif:id="34-share-love" x="0.604" y="0.773" width="2500" height="2500" style="fill:none;"/>
                <path d="M1640.03,480.678C1689.21,388.927 1787.57,388.927 1836.76,434.803C1885.94,480.678 1885.94,572.429 1836.76,664.18C1802.33,732.993 1713.8,801.807 1640.03,847.682C1566.26,801.807 1477.73,732.993 1443.3,664.18C1394.12,572.429 1394.12,480.678 1443.3,434.803C1492.49,388.927 1590.85,388.927 1640.03,480.678Z" style="fill:rgb(240,132,173);"/>
                <path d="M1160.69,347.372C1198.05,277.671 1272.78,277.671 1310.14,312.521C1347.5,347.372 1347.5,417.073 1310.14,486.774C1283.98,539.05 1216.73,591.325 1160.69,626.176C1104.65,591.325 1037.4,539.05 1011.24,486.774C973.881,417.073 973.881,347.372 1011.24,312.521C1048.61,277.671 1123.33,277.671 1160.69,347.372Z" style="fill:rgb(230,50,119);"/>
                <path d="M791.194,636.707C828.555,567.006 903.279,567.006 940.641,601.856C978.004,636.707 978.004,706.408 940.641,776.109C914.488,828.384 847.237,880.66 791.194,915.511C735.151,880.66 667.9,828.384 641.746,776.109C604.384,706.408 604.384,636.707 641.746,601.856C679.108,567.006 753.832,567.006 791.194,636.707Z" style="fill:rgb(240,132,173);"/>
                <g>
                    <path d="M1375.34,1512.39L1374.13,1582.49M1160.81,1582.49L1159.8,1492.3" style="fill:none;stroke:black;stroke-width:16.67px;"/>
                    <path d="M1190.34,1292.32C1190.34,1292.32 1272.24,1321.88 1262.3,1434.48" style="fill:none;stroke:black;stroke-width:16.67px;"/>
                    <path d="M1098.62,2210.56L1118.15,1582.49L1419.14,1582.49L1438.68,2210.56" style="fill:none;stroke:black;stroke-width:16.67px;"/>
                    <path d="M1395.16,2211.91L1376.94,1626.03L1160.36,1626.03L1142.14,2211.91" style="fill:rgb(222,241,236);"/>
                    <path d="M1159.79,1492.31C1099,1453.02 1054.96,1402.71 1054.96,1402.71L951.918,1223.72C942.789,1205.73 937.125,1188.38 950.127,1174.11L952.603,1171.39C962.598,1160.42 979.031,1158.23 991.554,1166.19L1070.8,1273.66C1076.72,1277.42 1084.49,1284.99 1091.07,1286.64C1108.2,1290.93 1117.67,1292.29 1132.96,1282.3L1135.39,1280.71C1138.66,1278.58 1140.67,1274.98 1140.78,1271.08L1149.62,940.232C1150.05,924.174 1163.19,911.38 1179.26,911.38L1181.55,911.38C1182.75,911.38 1183.93,911.461 1185.1,911.618C1197.05,913.234 1206.58,922.89 1207.76,935.202L1230.78,1174.87L1277.64,878.394C1279.42,867.125 1287.1,858.158 1297.12,854.281C1301.35,852.644 1306,851.915 1310.81,852.304L1311.29,852.343C1328.08,853.704 1340.71,868.228 1339.73,885.048L1322,1189L1392.42,947.276C1394,941.853 1397.13,937.281 1401.2,933.921C1407.5,928.712 1416.06,926.413 1424.6,928.363L1425.3,928.524C1439.38,931.739 1448.38,945.522 1445.66,959.7L1399.32,1201.54L1495.52,1046.84C1502.78,1035.17 1517.8,1031.04 1530.01,1037.38L1530.65,1037.71C1543.28,1044.26 1548.42,1059.65 1542.27,1072.48L1481.76,1198.68C1468.39,1226.57 1461.13,1257 1460.48,1287.92C1459.61,1325.65 1454.48,1381.98 1434.61,1431.65C1423.65,1459.06 1408.2,1484.43 1386.51,1503.53C1382.96,1506.66 1379.23,1509.62 1375.33,1512.4" style="fill:none;stroke:black;stroke-width:16.67px;"/>
                </g>
                <g>
                    <path d="M1991.54,1653.42L1990.33,1723.52M1777.01,1723.52L1776,1633.33" style="fill:none;stroke:black;stroke-width:16.67px;"/>
                    <path d="M1806.55,1433.35C1806.55,1433.35 1888.45,1462.91 1878.51,1575.51" style="fill:none;stroke:black;stroke-width:16.67px;"/>
                    <path d="M1719.17,2211.91L1734.36,1723.51L2035.35,1723.51L2050.54,2211.91" style="fill:none;stroke:black;stroke-width:16.67px;"/>
                    <path d="M2006.98,2211.91L1762.73,2211.91L1776.56,1767.05L1993.15,1767.05L2006.98,2211.91Z" style="fill:rgb(222,241,236);"/>
                    <path d="M1776,1633.33C1715.21,1594.04 1671.17,1543.73 1671.17,1543.73L1568.13,1364.74C1559,1346.75 1553.33,1329.4 1566.34,1315.13L1568.81,1312.41C1578.81,1301.45 1595.24,1299.25 1607.76,1307.21L1687.01,1414.68C1692.93,1418.44 1700.7,1426.01 1707.28,1427.66C1724.41,1431.96 1733.88,1433.31 1749.17,1423.32L1751.6,1421.73C1754.87,1419.6 1756.88,1416 1756.99,1412.1L1765.83,1081.25C1766.26,1065.19 1779.4,1052.4 1795.47,1052.4L1797.76,1052.4C1798.96,1052.4 1800.14,1052.48 1801.31,1052.64C1813.26,1054.26 1822.79,1063.91 1823.97,1076.22L1846.99,1315.89L1893.85,1019.42C1895.63,1008.14 1903.31,999.178 1913.33,995.302C1917.56,993.664 1922.21,992.935 1927.02,993.324L1927.5,993.363C1944.29,994.724 1956.92,1009.25 1955.94,1026.07L1938.21,1330.02L2008.63,1088.3C2010.21,1082.87 2013.34,1078.3 2017.4,1074.94C2023.71,1069.73 2032.27,1067.43 2040.81,1069.38L2041.51,1069.55C2055.59,1072.76 2064.58,1086.54 2061.87,1100.72L2015.53,1342.56L2111.73,1187.86C2118.99,1176.19 2134.01,1172.06 2146.22,1178.39L2146.86,1178.73C2159.49,1185.28 2164.63,1200.67 2158.48,1213.5L2097.97,1339.7C2084.6,1367.59 2077.34,1398.02 2076.69,1428.94C2075.82,1466.67 2070.68,1523 2050.82,1572.67C2039.86,1600.08 2024.41,1625.45 2002.72,1644.55C1999.16,1647.68 1995.44,1650.64 1991.54,1653.42" style="fill:none;stroke:black;stroke-width:16.67px;"/>
                </g>
                <g>
                    <path d="M509.666,1653.42L510.879,1723.52M724.193,1723.52L725.206,1633.33" style="fill:none;stroke:black;stroke-width:16.67px;"/>
                    <path d="M694.66,1433.35C694.66,1433.35 612.758,1462.91 622.703,1575.51" style="fill:none;stroke:black;stroke-width:16.67px;"/>
                    <path d="M782.039,2211.91L766.85,1723.51L465.858,1723.51L450.669,2211.91" style="fill:none;stroke:black;stroke-width:16.67px;"/>
                    <path d="M494.228,2211.91L508.063,1767.05L724.645,1767.05L738.48,2211.91L494.228,2211.91Z" style="fill:rgb(222,241,236);"/>
                    <path d="M725.206,1633.33C785.992,1594.04 830.035,1543.73 830.035,1543.73L933.078,1364.74C942.207,1346.75 947.872,1329.4 934.87,1315.13L932.394,1312.41C922.399,1301.45 905.965,1299.25 893.443,1307.21L814.197,1414.68C808.277,1418.44 800.504,1426.01 793.925,1427.66C776.794,1431.96 767.329,1433.31 752.037,1423.32L749.604,1421.73C746.337,1419.6 744.325,1416 744.221,1412.1L735.374,1081.25C734.945,1065.19 721.804,1052.4 705.74,1052.4L703.451,1052.4C702.247,1052.4 701.061,1052.48 699.898,1052.64C687.945,1054.26 678.415,1063.91 677.233,1076.22L654.22,1315.89L607.353,1019.42C605.572,1008.14 597.898,999.178 587.877,995.302C583.644,993.664 578.993,992.935 574.189,993.324L573.709,993.363C556.915,994.724 544.283,1009.25 545.264,1026.07L562.999,1330.02L492.579,1088.3C490.999,1082.87 487.869,1078.3 483.8,1074.94C477.495,1069.73 468.935,1067.43 460.4,1069.38L459.694,1069.55C445.621,1072.76 436.621,1086.54 439.338,1100.72L485.673,1342.56L389.473,1187.86C382.213,1176.19 367.193,1172.06 354.989,1178.39L354.346,1178.73C341.72,1185.28 336.575,1200.67 342.725,1213.5L403.235,1339.7C416.608,1367.59 423.864,1398.02 424.516,1428.94C425.388,1466.67 430.521,1523 450.383,1572.67C461.344,1600.08 476.791,1625.45 498.484,1644.55C502.041,1647.68 505.765,1650.64 509.666,1653.42" style="fill:none;stroke:black;stroke-width:16.67px;"/>
                </g>
            </g>
        </g>
    </g>
</svg>
