<?xml version="1.0" encoding="UTF-8" standalone="no"?><!DOCTYPE svg PUBLIC "-//W3C//DTD SVG 1.1//EN" "http://www.w3.org/Graphics/SVG/1.1/DTD/svg11.dtd"><svg width="100%" height="100%" viewBox="0 0 1081 1081" version="1.1" xmlns="http://www.w3.org/2000/svg" xmlns:xlink="http://www.w3.org/1999/xlink" xml:space="preserve" xmlns:serif="http://www.serif.com/" style="fill-rule:evenodd;clip-rule:evenodd;stroke-linecap:round;stroke-linejoin:round;stroke-miterlimit:1.5;"><rect id="_03_Fully_Open_Sourced_Pink" serif:id="03_Fully_Open_Sourced_Pink" x="0.524" y="0.513" width="1080" height="1080" style="fill:none;"/><clipPath id="_clip1"><rect x="0.524" y="0.513" width="1080" height="1080"/></clipPath><g clip-path="url(#_clip1)"><g id="Background"><rect x="0.524" y="0.513" width="1080" height="1080" style="fill:#fad6e4;"/></g><g id="Outline"></g><path d="M468.767,667.763l-90.482,224.794c-127.344,-59.407 -215.685,-188.621 -215.685,-338.306c0,-205.912 167.175,-373.086 373.087,-373.086c205.912,-0 373.086,167.174 373.086,373.086c-0,149.685 -88.341,278.899 -215.685,338.306c0,0 -90.482,-224.794 -90.482,-224.794c38.802,-22.941 64.849,-65.209 64.849,-113.512c0,-72.725 -59.043,-131.768 -131.768,-131.768c-72.725,-0 -131.769,59.043 -131.769,131.768c0,48.303 26.047,90.571 64.849,113.512" style="fill:#f084ad;"/><path d="M421.355,785.036l-46.13,114.825c-128.058,-60.341 -216.777,-190.62 -216.777,-341.458c-0,-208.203 169.035,-377.238 377.239,-377.238c208.203,-0 377.238,169.035 377.238,377.238c0,150.464 -88.28,280.472 -215.827,341.008" style="fill:none;stroke:#020144;stroke-width:16.67px;"/><path d="M437.726,642.821c-21.027,-23.355 -33.831,-54.258 -33.831,-88.128c-0,-72.738 59.054,-131.791 131.792,-131.791c72.737,-0 131.791,59.053 131.791,131.791c0,34.615 -13.373,66.131 -35.231,89.658" style="fill:none;stroke:#020144;stroke-width:16.67px;"/><path d="M265.854,540.513c0,-148.925 120.908,-269.833 269.833,-269.833" style="fill:none;stroke:#020144;stroke-width:16.67px;"/><circle cx="871.583" cy="322.515" r="77.255" style="fill:none;stroke:#5db9f5;stroke-width:16.67px;"/><circle cx="168.508" cy="824.382" r="36.298" style="fill:#5db9f5;"/></g></svg>