<?xml version="1.0" encoding="UTF-8" standalone="no"?><!DOCTYPE svg PUBLIC "-//W3C//DTD SVG 1.1//EN" "http://www.w3.org/Graphics/SVG/1.1/DTD/svg11.dtd"><svg width="100%" height="100%" viewBox="0 0 1081 1081" version="1.1" xmlns="http://www.w3.org/2000/svg" xmlns:xlink="http://www.w3.org/1999/xlink" xml:space="preserve" xmlns:serif="http://www.serif.com/" style="fill-rule:evenodd;clip-rule:evenodd;stroke-linejoin:round;stroke-miterlimit:2;"><rect id="_10_OpenElements_Blue" serif:id="10_OpenElements_Blue" x="0.824" y="0.378" width="1080" height="1080" style="fill:none;"/><clipPath id="_clip1"><rect x="0.824" y="0.378" width="1080" height="1080"/></clipPath><g clip-path="url(#_clip1)"><g id="Background"><rect x="0.824" y="0.378" width="1080" height="1080" style="fill:#dff1fd;"/></g><g id="Fill"></g><g id="Outline"></g><path d="M704.856,369.769l225.591,0l0,-132.614l-476.024,-0c103.936,-0 195.817,52.607 250.433,132.614Z" style="fill:#020144;fill-rule:nonzero;stroke:#010044;stroke-width:16.67px;"/><path d="M750.157,606.685l180.29,0l0,-132.614l-180.29,-0c4.75,21.372 7.307,43.474 7.307,66.307c-0,22.833 -2.557,44.936 -7.307,66.307Z" style="fill:#020144;fill-rule:nonzero;stroke:#010044;stroke-width:16.67px;"/><path d="M454.423,843.601l476.024,0l0,-132.614l-225.591,-0c-54.616,80.007 -146.497,132.614 -250.433,132.614Z" style="fill:#020144;fill-rule:nonzero;stroke:#010044;stroke-width:16.67px;"/><path d="M750.157,474.071c-8.402,-37.994 -24.111,-73.249 -45.301,-104.302c-54.616,-80.007 -146.497,-132.614 -250.433,-132.614c-4.749,-0 -9.316,0.183 -14.065,0.365c-160.745,7.307 -289.158,140.287 -289.158,302.858c-0,162.389 128.413,295.369 289.158,302.858c4.567,0.183 9.316,0.365 14.065,0.365c103.936,0 195.817,-52.607 250.433,-132.614c21.19,-31.053 36.899,-66.307 45.301,-104.302c4.75,-21.371 7.307,-43.474 7.307,-66.307c-0,-22.833 -2.557,-44.935 -7.307,-66.307Zm-295.734,236.916c-94.072,-0 -170.609,-76.537 -170.609,-170.609c0,-94.072 76.537,-170.609 170.609,-170.609c70.509,0 131.336,43.109 157.092,104.302c8.585,20.458 13.334,42.743 13.334,66.307c0,23.564 -4.749,45.849 -13.334,66.307c-25.939,61.193 -86.583,104.302 -157.092,104.302Z" style="fill:#5db9f5;fill-rule:nonzero;stroke:#010044;stroke-width:16.67px;"/></g></svg>