<?xml version="1.0" encoding="UTF-8"?>
<svg id="Layer_1" xmlns="http://www.w3.org/2000/svg" version="1.1" viewBox="0 0 688.45 153.13">
  <!-- Generator: Adobe Illustrator 29.0.0, SVG Export Plug-In . SVG Version: 2.1.0 Build 186)  -->
  <defs>
    <style>
      .st0 {
        fill: #5dba9f;
      }

      .st1 {
        fill: #9cd5fd;
      }

      .st2 {
        fill: #020144;
      }
    </style>
  </defs>
  <g>
    <g>
      <g>
        <path class="st1" d="M8.1,79.54h25.3c-.62-2.75-.96-5.61-.96-8.55,0-2.62.26-5.18.76-7.65h-16.41c3.93-26.63,26.93-47.14,54.64-47.14,21.27,0,39.76,12.09,48.99,29.75.38.73,1.12,1.19,1.95,1.19h13.04c1.55,0,2.63-1.58,2.03-3.02C126.7,18.25,101.16,0,71.44,0,32.05,0,0,32.05,0,71.44c0,.95.02,1.89.06,2.82.12,2.94,2.52,5.28,5.47,5.28h2.58Z"/>
        <path class="st1" d="M142.82,68.61c-.12-2.94-2.52-5.27-5.47-5.27h-2.68s-21.81,0-21.81,0h0s-.7,0-.7,0h-1.34c-.19,0-.38.05-.55.15l-12.12,7c-.74.43-.74,1.49,0,1.91l12.11,6.99c.17.1.36.15.55.15h5.15s10.11,0,10.11,0c-3.93,26.63-26.93,47.14-54.64,47.14-21.27,0-39.76-12.09-48.99-29.75-.38-.73-1.12-1.19-1.95-1.19H7.46c-1.55,0-2.63,1.58-2.03,3.02,10.75,25.88,36.29,44.12,66.01,44.12,39.39,0,71.44-32.05,71.44-71.44,0-.95-.02-1.89-.06-2.82Z"/>
      </g>
      <path class="st0" d="M71.44,88.95c-10.04,0-18.11-8.45-17.47-18.63.53-8.44,7.2-15.43,15.62-16.29s15.05,3.75,17.95,10.53c.8,1.86,3.06,2.59,4.81,1.58l17.38-10.03c1.57-.91,2.14-2.88,1.33-4.5-7.46-14.88-23.05-24.99-40.96-24.46-23.54.69-42.6,20.05-42.97,43.59-.39,24.8,19.6,45.02,44.31,45.02,17.34,0,32.34-9.96,39.62-24.47.81-1.62.24-3.6-1.33-4.5l-17.38-10.04c-1.76-1.02-4.02-.27-4.82,1.6-2.68,6.23-8.86,10.6-16.08,10.6Z"/>
    </g>
    <g>
      <path class="st2" d="M193.32,55.74c-1.87-3.11-7-6.07-12.92-6.07-7.63,0-11.28,3.19-11.28,7.24,0,4.75,5.6,6.07,12.14,6.85,11.36,1.4,21.94,4.36,21.94,17.35,0,12.14-10.74,17.35-22.88,17.35-11.13,0-19.69-3.42-23.73-13.38l8.56-4.43c2.41,5.99,8.71,8.64,15.33,8.64s12.53-2.26,12.53-8.17c0-5.14-5.37-7.24-12.61-8.01-11.13-1.32-21.4-4.28-21.4-16.5,0-11.2,11.05-15.8,21.09-15.87,8.48,0,17.27,2.41,21.4,10.82l-8.17,4.2Z"/>
      <path class="st2" d="M218.59,58.69v20.07c0,5.84,3.19,10.27,9.26,10.27s9.8-4.9,9.8-10.74v-19.61h9.41v38.44h-8.48l-.62-5.21c-3.97,3.89-7.63,5.76-12.99,5.76-9.18,0-15.87-6.92-15.87-18.83v-20.15h9.49Z"/>
      <path class="st2" d="M254.19,113.08v-54.39h8.87l.62,5.29c2.96-4.28,8.09-6.15,12.45-6.15,11.83,0,19.69,8.79,19.69,20.08s-7.08,20.07-19.37,20.07c-4.05,0-10.04-1.24-12.76-5.45v20.54h-9.49ZM286.32,77.91c0-5.99-4.05-10.89-10.89-10.89s-10.89,4.9-10.89,10.89,4.43,10.89,10.89,10.89,10.89-4.9,10.89-10.89Z"/>
      <path class="st2" d="M301.53,113.08v-54.39h8.87l.62,5.29c2.96-4.28,8.09-6.15,12.45-6.15,11.83,0,19.69,8.79,19.69,20.08s-7.08,20.07-19.37,20.07c-4.05,0-10.04-1.24-12.76-5.45v20.54h-9.49ZM333.67,77.91c0-5.99-4.05-10.89-10.89-10.89s-10.89,4.9-10.89,10.89,4.43,10.89,10.89,10.89,10.89-4.9,10.89-10.89Z"/>
      <path class="st2" d="M388.29,77.91c0,11.05-7.55,20-20,20s-19.92-8.95-19.92-20,7.63-20,19.84-20,20.07,9.03,20.07,20ZM357.87,77.91c0,5.84,3.5,11.28,10.43,11.28s10.43-5.45,10.43-11.28-4.05-11.36-10.43-11.36c-6.85,0-10.43,5.6-10.43,11.36Z"/>
      <path class="st2" d="M402.33,58.69l.7,4.44c2.96-4.75,6.93-5.45,10.82-5.45s7.78,1.56,9.88,3.66l-4.28,8.25c-1.95-1.63-3.73-2.49-6.85-2.49-4.98,0-9.57,2.65-9.57,9.73v20.23h-9.49v-38.36h8.79Z"/>
      <path class="st2" d="M444.39,47.88v10.89h10.58v8.17h-10.66v16.57c0,3.66,2.02,5.45,4.98,5.45,1.48,0,3.19-.47,4.59-1.17l2.65,8.09c-2.72,1.09-4.98,1.56-7.86,1.63-8.33.31-13.77-4.43-13.77-14.01v-16.57h-7.16v-8.17h7.16v-4.89l9.49-6.01Z"/>
      <path class="st2" d="M566.78,90.21c-5.6,5.52-12.84,8.09-20.7,8.09-20.23,0-28.79-13.93-28.87-28.09-.08-14.24,9.18-28.71,28.87-28.71,7.39,0,14.39,2.8,20,8.33l-6.85,6.61c-3.58-3.5-8.4-5.14-13.15-5.14-13.15,0-18.83,9.8-18.75,18.91.08,9.03,5.29,18.44,18.75,18.44,4.75,0,10.12-1.95,13.69-5.52l7,7.08Z"/>
      <path class="st2" d="M601.27,58.69h9.1v38.36h-8.95l-.47-5.6c-2.18,4.51-8.17,6.69-12.45,6.77-11.36.08-19.76-6.93-19.76-20.39s8.79-20.15,20-20.08c5.14,0,10.04,2.41,12.22,6.22l.31-5.29ZM578.24,77.84c0,7.31,5.06,11.67,11.36,11.67,14.94,0,14.94-23.27,0-23.27-6.3,0-11.36,4.28-11.36,11.59Z"/>
      <path class="st2" d="M625.25,58.69l.7,4.44c2.96-4.75,6.93-5.45,10.82-5.45s7.78,1.56,9.88,3.66l-4.28,8.25c-1.95-1.63-3.73-2.49-6.85-2.49-4.98,0-9.57,2.65-9.57,9.73v20.23h-9.49v-38.36h8.79Z"/>
      <path class="st2" d="M658.32,81.26c.62,4.75,4.75,8.17,11.44,8.17,3.5,0,8.09-1.32,10.27-3.58l6.07,5.99c-4.05,4.2-10.66,6.22-16.5,6.22-13.23,0-21.09-8.17-21.09-20.46s7.94-20.07,20.39-20.07,20.85,7.94,19.37,23.73h-29.96ZM679.17,73.4c-.62-4.98-4.51-7.47-9.96-7.47-5.14,0-9.34,2.49-10.74,7.47h20.7Z"/>
    </g>
  </g>
  <g>
    <path class="st2" d="M338.53,145.45v-19.43l-3.05-.2c-.41-.04-.61-.23-.61-.54v-.85h3.66v-2.75c0-1.24.16-2.32.48-3.26.32-.94.77-1.72,1.35-2.34.58-.62,1.28-1.09,2.09-1.41.81-.31,1.71-.47,2.7-.47.45,0,.91.04,1.36.12.46.08.87.19,1.23.34l-.07,1c-.03.13-.09.21-.19.25-.09.04-.23.05-.4.04-.17,0-.4-.03-.68-.07-.28-.04-.6-.05-.96-.05-.71,0-1.37.11-1.97.32-.6.21-1.12.55-1.56,1.01-.44.47-.77,1.07-1.01,1.82s-.36,1.67-.36,2.76v2.68h7.04v1.55h-6.98v19.47h-2.09Z"/>
    <path class="st2" d="M359.81,123.41c1.56,0,2.95.27,4.18.8s2.26,1.28,3.11,2.26c.84.97,1.49,2.15,1.93,3.52s.66,2.91.66,4.61-.22,3.23-.66,4.6-1.09,2.54-1.93,3.51c-.84.97-1.88,1.72-3.11,2.25s-2.62.78-4.18.78-2.95-.26-4.17-.78-2.27-1.27-3.12-2.25c-.85-.97-1.5-2.14-1.94-3.51-.44-1.37-.67-2.9-.67-4.6s.22-3.24.67-4.61c.44-1.37,1.09-2.55,1.94-3.52.85-.97,1.89-1.73,3.12-2.26s2.62-.8,4.17-.8ZM359.81,144.1c1.29,0,2.42-.22,3.39-.67s1.77-1.08,2.42-1.91c.65-.83,1.13-1.83,1.45-3,.32-1.17.48-2.48.48-3.94s-.16-2.75-.48-3.92c-.32-1.18-.8-2.18-1.45-3.02-.65-.84-1.45-1.48-2.42-1.93-.97-.45-2.1-.68-3.39-.68s-2.42.23-3.39.68c-.97.45-1.77,1.09-2.42,1.93-.65.84-1.13,1.84-1.46,3.02-.33,1.18-.49,2.49-.49,3.92s.16,2.77.49,3.94.81,2.17,1.46,3c.65.83,1.45,1.46,2.42,1.91.97.44,2.1.67,3.39.67Z"/>
    <path class="st2" d="M377.54,128.99c.33-.89.71-1.68,1.14-2.37.43-.69.92-1.28,1.48-1.75.56-.48,1.18-.85,1.88-1.1s1.46-.38,2.3-.38c.45,0,.89.04,1.33.12.44.08.82.22,1.16.42l-.17,1.44c-.07.23-.21.35-.41.35-.17,0-.44-.05-.8-.15-.36-.1-.83-.15-1.41-.15-.84,0-1.59.13-2.24.38-.65.25-1.23.64-1.74,1.15s-.97,1.14-1.35,1.89c-.38.75-.74,1.61-1.06,2.58v14.04h-2.09v-21.69h1.11c.25,0,.42.05.52.15s.17.28.2.52l.15,4.56Z"/>
    <path class="st2" d="M424.87,145.45h-1.72c-.2,0-.37-.05-.5-.16-.13-.11-.23-.25-.31-.43l-3.62-8.96h-15.15l-3.62,8.96c-.06.16-.16.3-.31.41s-.32.17-.52.17h-1.7l12.62-30.85h2.2l12.62,30.85ZM418.05,134.25l-6.28-15.59c-.22-.51-.43-1.12-.63-1.83-.09.35-.18.68-.28.99-.1.31-.21.6-.33.86l-6.28,15.57h13.8Z"/>
    <path class="st2" d="M430.87,127.66c.96-1.31,2.08-2.35,3.37-3.12,1.29-.77,2.73-1.16,4.33-1.16,2.66,0,4.73.92,6.22,2.77,1.49,1.85,2.23,4.62,2.23,8.31,0,1.58-.21,3.06-.62,4.44s-1.03,2.57-1.83,3.58-1.79,1.81-2.96,2.39c-1.17.58-2.52.87-4.04.87s-2.74-.27-3.82-.81-2.01-1.33-2.79-2.38v10.57h-2.09v-29.37h1.16c.36,0,.57.18.63.55l.22,3.36ZM430.95,140.72c.42.63.86,1.15,1.32,1.58.46.43.94.78,1.45,1.05s1.05.46,1.62.58c.57.12,1.18.17,1.82.17,1.28,0,2.4-.23,3.36-.7.96-.47,1.76-1.12,2.41-1.97.65-.85,1.13-1.87,1.46-3.05.33-1.18.49-2.49.49-3.91,0-3.23-.6-5.6-1.79-7.12s-2.9-2.28-5.12-2.28c-1.44,0-2.74.37-3.9,1.11-1.16.74-2.2,1.77-3.12,3.1v11.45Z"/>
    <path class="st2" d="M452.3,126.83c1.13-1.13,2.33-1.99,3.58-2.57,1.25-.58,2.67-.87,4.25-.87,1.16,0,2.18.19,3.05.56s1.59.9,2.17,1.59c.57.69,1.01,1.53,1.3,2.51.29.98.44,2.07.44,3.28v14.13h-.83c-.44,0-.71-.2-.81-.61l-.31-2.79c-.6.58-1.19,1.1-1.78,1.57-.59.47-1.2.86-1.84,1.18-.64.32-1.33.57-2.07.74-.74.17-1.56.26-2.44.26-.74,0-1.46-.11-2.16-.33-.7-.22-1.32-.55-1.86-1s-.98-1.03-1.31-1.73c-.33-.71-.49-1.55-.49-2.54,0-.92.26-1.77.79-2.55.52-.78,1.34-1.47,2.46-2.05,1.12-.58,2.55-1.05,4.31-1.4,1.75-.35,3.86-.55,6.31-.61v-2.27c0-2.01-.43-3.55-1.3-4.63-.87-1.08-2.15-1.62-3.85-1.62-1.05,0-1.94.15-2.67.44-.73.29-1.36.61-1.86.96-.51.35-.92.67-1.24.96-.32.29-.59.44-.81.44-.16,0-.29-.04-.39-.11s-.19-.17-.26-.28l-.37-.63ZM465.05,134.97c-2.06.07-3.84.24-5.33.49-1.49.25-2.72.6-3.68,1.04s-1.68.96-2.15,1.56c-.46.6-.7,1.29-.7,2.06,0,.73.12,1.36.36,1.89.24.53.56.97.96,1.31s.86.59,1.38.75c.52.16,1.07.24,1.64.24.84,0,1.62-.09,2.32-.27.71-.18,1.36-.44,1.96-.76.6-.33,1.17-.72,1.69-1.17.52-.45,1.04-.94,1.55-1.46v-5.67Z"/>
    <path class="st2" d="M488.6,126.66c-.07.07-.14.13-.21.19s-.16.08-.27.08c-.15,0-.34-.1-.59-.29-.25-.2-.58-.41-1-.64-.42-.23-.95-.45-1.58-.64-.63-.2-1.4-.29-2.3-.29-1.25,0-2.36.22-3.33.67s-1.78,1.08-2.45,1.91c-.67.83-1.17,1.83-1.52,3.01s-.51,2.5-.51,3.97.18,2.88.53,4.06c.36,1.18.86,2.17,1.51,2.98.65.81,1.45,1.42,2.38,1.84s1.96.63,3.1.63c1.05,0,1.92-.12,2.63-.37.7-.25,1.29-.52,1.74-.81.46-.29.82-.56,1.08-.81.26-.25.48-.37.65-.37s.32.07.44.22l.54.7c-.33.44-.76.84-1.26,1.22-.51.38-1.08.71-1.72.98-.64.28-1.33.49-2.08.64-.75.15-1.53.23-2.34.23-1.38,0-2.64-.25-3.78-.75s-2.12-1.23-2.94-2.18c-.82-.95-1.46-2.12-1.92-3.5s-.69-2.95-.69-4.71c0-1.66.22-3.17.65-4.54.44-1.37,1.08-2.54,1.92-3.53.84-.99,1.87-1.75,3.09-2.3,1.21-.54,2.61-.82,4.17-.82,1.41,0,2.66.23,3.75.68,1.09.45,2.04,1.06,2.86,1.83l-.54.74Z"/>
    <path class="st2" d="M496.67,127.42c1-1.22,2.15-2.19,3.43-2.92,1.29-.73,2.73-1.09,4.33-1.09,1.19,0,2.24.19,3.15.57.91.38,1.66.92,2.26,1.64.6.71,1.05,1.57,1.35,2.57.31,1,.46,2.14.46,3.4v13.87h-2.09v-13.87c0-2.04-.46-3.63-1.4-4.79-.93-1.16-2.35-1.73-4.25-1.73-1.41,0-2.73.36-3.96,1.08-1.23.72-2.32,1.72-3.28,3v16.31h-2.09v-31.72h2.09v13.69Z"/>
    <path class="st2" d="M519.3,133.75v.41c0,1.63.19,3.06.57,4.29.38,1.24.92,2.27,1.61,3.11.7.84,1.54,1.46,2.53,1.89.99.42,2.09.63,3.31.63,1.09,0,2.03-.12,2.83-.36.8-.24,1.47-.51,2.02-.81s.98-.57,1.3-.81c.32-.24.55-.36.7-.36.19,0,.33.07.44.22l.57.7c-.35.44-.81.84-1.38,1.22s-1.21.7-1.92.97c-.71.27-1.46.48-2.27.64-.81.16-1.62.24-2.43.24-1.48,0-2.83-.26-4.06-.77-1.22-.52-2.27-1.27-3.14-2.26-.87-.99-1.54-2.2-2.02-3.63s-.71-3.07-.71-4.92c0-1.56.22-2.99.67-4.31.44-1.32,1.08-2.45,1.92-3.4.84-.95,1.86-1.7,3.07-2.23,1.21-.54,2.59-.81,4.13-.81,1.22,0,2.35.21,3.4.63,1.05.42,1.96,1.04,2.73,1.84s1.38,1.8,1.82,2.98.67,2.53.67,4.06c0,.32-.04.54-.13.65-.09.12-.23.17-.44.17h-15.79ZM533.78,132.42c0-1.16-.16-2.21-.49-3.13-.33-.92-.79-1.7-1.38-2.34s-1.3-1.13-2.13-1.47c-.82-.34-1.73-.51-2.71-.51-1.12,0-2.12.17-3.01.52-.89.35-1.65.85-2.3,1.5-.65.65-1.17,1.44-1.56,2.35-.39.92-.65,1.94-.78,3.07h14.37Z"/>
    <path class="st2" d="M584.6,114.6v30.85h-1.94v-26.29c0-.38.02-.78.07-1.2l-12.14,21.56c-.2.38-.49.57-.87.57h-.35c-.38,0-.67-.19-.87-.57l-12.47-21.61c.04.44.07.85.07,1.24v26.29h-1.96v-30.85h1.55c.2,0,.36.02.48.07s.23.16.35.35l12.45,21.45c.22.41.41.84.57,1.31.09-.23.18-.46.28-.69.1-.23.21-.44.33-.64l12.1-21.43c.12-.19.24-.31.36-.35s.29-.07.49-.07h1.53Z"/>
    <path class="st2" d="M591.36,126.83c1.13-1.13,2.33-1.99,3.58-2.57,1.25-.58,2.67-.87,4.25-.87,1.16,0,2.18.19,3.05.56.87.37,1.59.9,2.17,1.59.57.69,1.01,1.53,1.3,2.51.29.98.44,2.07.44,3.28v14.13h-.83c-.44,0-.71-.2-.81-.61l-.31-2.79c-.6.58-1.19,1.1-1.78,1.57-.59.47-1.2.86-1.84,1.18-.64.32-1.33.57-2.07.74-.74.17-1.56.26-2.44.26-.74,0-1.46-.11-2.16-.33-.7-.22-1.32-.55-1.86-1s-.98-1.03-1.31-1.73-.49-1.55-.49-2.54c0-.92.26-1.77.79-2.55.52-.78,1.34-1.47,2.46-2.05,1.12-.58,2.55-1.05,4.31-1.4,1.75-.35,3.86-.55,6.31-.61v-2.27c0-2.01-.43-3.55-1.3-4.63-.87-1.08-2.15-1.62-3.85-1.62-1.05,0-1.94.15-2.67.44-.73.29-1.36.61-1.87.96-.51.35-.92.67-1.24.96-.32.29-.59.44-.81.44-.16,0-.29-.04-.39-.11s-.19-.17-.26-.28l-.37-.63ZM604.11,134.97c-2.06.07-3.84.24-5.33.49s-2.72.6-3.68,1.04c-.97.44-1.68.96-2.15,1.56-.46.6-.7,1.29-.7,2.06,0,.73.12,1.36.36,1.89.24.53.56.97.96,1.31.4.34.86.59,1.38.75.52.16,1.07.24,1.64.24.84,0,1.62-.09,2.32-.27.71-.18,1.36-.44,1.96-.76.6-.33,1.17-.72,1.69-1.17.52-.45,1.04-.94,1.55-1.46v-5.67Z"/>
    <path class="st2" d="M630.15,123.76l-9.16,21.69h-1.83l-9.16-21.69h1.64c.2,0,.37.05.5.16.13.11.22.23.26.36l7.17,17.12c.22.64.39,1.27.52,1.9.13-.62.31-1.26.54-1.9l7.2-17.12c.07-.16.17-.29.29-.38.12-.09.27-.14.45-.14h1.57Z"/>
    <path class="st2" d="M634.81,133.75v.41c0,1.63.19,3.06.57,4.29.38,1.24.92,2.27,1.61,3.11.7.84,1.54,1.46,2.53,1.89.99.42,2.09.63,3.31.63,1.09,0,2.03-.12,2.83-.36.8-.24,1.47-.51,2.02-.81s.98-.57,1.3-.81c.32-.24.55-.36.7-.36.19,0,.33.07.44.22l.57.7c-.35.44-.81.84-1.38,1.22s-1.21.7-1.92.97c-.71.27-1.46.48-2.27.64-.81.16-1.62.24-2.43.24-1.48,0-2.83-.26-4.06-.77-1.22-.52-2.27-1.27-3.14-2.26-.87-.99-1.54-2.2-2.02-3.63s-.71-3.07-.71-4.92c0-1.56.22-2.99.67-4.31.44-1.32,1.08-2.45,1.92-3.4.84-.95,1.86-1.7,3.07-2.23,1.21-.54,2.59-.81,4.13-.81,1.22,0,2.35.21,3.4.63,1.05.42,1.96,1.04,2.73,1.84s1.38,1.8,1.82,2.98.67,2.53.67,4.06c0,.32-.04.54-.13.65-.09.12-.23.17-.44.17h-15.79ZM649.29,132.42c0-1.16-.16-2.21-.49-3.13-.33-.92-.79-1.7-1.38-2.34s-1.3-1.13-2.13-1.47c-.82-.34-1.73-.51-2.71-.51-1.12,0-2.12.17-3.01.52-.89.35-1.65.85-2.3,1.5-.65.65-1.17,1.44-1.56,2.35-.39.92-.65,1.94-.78,3.07h14.37Z"/>
    <path class="st2" d="M658.8,127.55c1-1.25,2.16-2.25,3.48-3.01,1.31-.76,2.78-1.13,4.39-1.13,1.19,0,2.24.19,3.15.57s1.66.92,2.26,1.64c.6.71,1.05,1.57,1.35,2.57.3,1,.46,2.14.46,3.4v13.87h-2.09v-13.87c0-2.04-.47-3.63-1.4-4.79-.93-1.16-2.35-1.73-4.25-1.73-1.41,0-2.73.36-3.96,1.08-1.23.72-2.32,1.72-3.28,3v16.31h-2.09v-21.69h1.16c.36,0,.57.18.63.55l.2,3.25Z"/>
  </g>
  <g>
    <path class="st2" d="M678.44,111.68h-2.27v6.39h-1.4v-6.39h-2.27v-1.15h5.95v1.15Z"/>
    <path class="st2" d="M687.61,110.52v7.54h-1.24v-4.87c0-.19.01-.41.03-.63l-2.28,4.28c-.11.21-.27.31-.5.31h-.2c-.22,0-.39-.1-.5-.31l-2.31-4.3c.01.11.02.23.03.34,0,.11.01.21.01.31v4.87h-1.24v-7.54h1.06c.06,0,.12,0,.16,0,.04,0,.09.01.12.03.04.01.07.04.1.07.03.03.06.07.09.12l2.26,4.19c.06.11.11.23.17.34.05.12.1.24.15.37.05-.13.1-.25.15-.37.05-.12.11-.24.17-.35l2.23-4.18c.03-.05.06-.09.09-.12s.07-.05.1-.07c.04-.01.08-.02.12-.03.04,0,.1,0,.16,0h1.06Z"/>
  </g>
  <path class="st2" d="M513.39,97.66h-3.57c-.48,0-.88-.05-1.18-.16-.31-.11-.66-.35-1.06-.72l-8.23-8.07c-1.18,1.39-2.49,2.67-3.93,3.83-1.44,1.16-3.01,2.17-4.69,3.03-1.69.86-3.49,1.52-5.42,2.01s-3.95.72-6.06.72-3.99-.33-5.94-1c-1.95-.67-3.7-1.65-5.24-2.95-1.54-1.3-2.78-2.89-3.73-4.77-.95-1.89-1.42-4.03-1.42-6.44,0-1.93.35-3.77,1.04-5.52.7-1.75,1.64-3.36,2.85-4.81,1.2-1.46,2.63-2.76,4.29-3.91,1.66-1.15,3.45-2.09,5.38-2.81-1.93-2.17-3.36-4.25-4.29-6.26-.94-2.01-1.4-4.16-1.4-6.46,0-1.87.34-3.6,1.02-5.2.68-1.59,1.65-2.98,2.91-4.15,1.26-1.18,2.76-2.1,4.51-2.77,1.75-.67,3.71-1,5.88-1,1.79,0,3.49.31,5.1.92,1.6.62,3,1.44,4.19,2.49,1.19,1.04,2.14,2.25,2.85,3.63.71,1.38,1.09,2.82,1.14,4.31l-2.17.44c-.27.05-.52,0-.74-.14-.23-.15-.41-.41-.54-.78-.13-.72-.42-1.54-.86-2.45-.44-.91-1.06-1.77-1.87-2.57-.8-.8-1.79-1.48-2.97-2.03-1.18-.55-2.55-.82-4.13-.82s-3.06.25-4.37.74c-1.31.5-2.43,1.19-3.37,2.09-.94.9-1.67,1.96-2.19,3.19-.52,1.23-.78,2.58-.78,4.05,0,2.19.56,4.29,1.69,6.3,1.12,2.01,2.86,4.16,5.22,6.46l17.94,17.62c1.2-1.93,2.15-3.93,2.85-6,.7-2.07,1.15-4.09,1.36-6.04.05-.35.16-.62.32-.82.16-.2.4-.3.72-.3h2.21c-.05,2.51-.52,5.1-1.4,7.76-.88,2.66-2.15,5.21-3.81,7.64l11.92,11.72ZM478.32,68.04c-1.77.72-3.36,1.6-4.8,2.65-1.43,1.04-2.64,2.21-3.63,3.49-.99,1.28-1.75,2.66-2.29,4.13-.54,1.47-.8,3-.8,4.57,0,2.06.39,3.85,1.18,5.38.79,1.52,1.81,2.8,3.07,3.83,1.26,1.03,2.65,1.8,4.19,2.31,1.54.51,3.06.76,4.55.76,1.9,0,3.68-.21,5.36-.64,1.67-.43,3.23-1.02,4.67-1.79,1.44-.76,2.78-1.67,4.01-2.73,1.23-1.06,2.34-2.2,3.33-3.43l-18.42-18.1-.44-.44Z"/>
</svg>