<?xml version="1.0" encoding="UTF-8"?>
<svg id="Layer_1" xmlns="http://www.w3.org/2000/svg" version="1.1" viewBox="0 0 689.94 149.31">
  <!-- Generator: Adobe Illustrator 29.0.0, SVG Export Plug-In . SVG Version: 2.1.0 Build 186)  -->
  <defs>
    <style>
      .st0 {
        fill: #5dba9f;
      }

      .st1 {
        fill: #9cd5fd;
      }

      .st2 {
        fill: #020144;
      }
    </style>
  </defs>
  <g>
    <g>
      <g>
        <path class="st1" d="M8.1,79.54h25.3c-.62-2.75-.96-5.61-.96-8.55,0-2.62.26-5.18.76-7.65h-16.41c3.93-26.63,26.93-47.14,54.64-47.14,21.27,0,39.76,12.09,48.99,29.75.38.73,1.12,1.19,1.95,1.19h13.04c1.55,0,2.63-1.58,2.03-3.02C126.7,18.25,101.16,0,71.44,0,32.05,0,0,32.05,0,71.44c0,.95.02,1.89.06,2.82.12,2.94,2.52,5.28,5.47,5.28h2.58Z"/>
        <path class="st1" d="M142.82,68.61c-.12-2.94-2.52-5.27-5.47-5.27h-2.68s-21.81,0-21.81,0h0s-.7,0-.7,0h-1.34c-.19,0-.38.05-.55.15l-12.12,7c-.74.43-.74,1.49,0,1.91l12.11,6.99c.17.1.36.15.55.15h5.15s10.11,0,10.11,0c-3.93,26.63-26.93,47.14-54.64,47.14-21.27,0-39.76-12.09-48.99-29.75-.38-.73-1.12-1.19-1.95-1.19H7.46c-1.55,0-2.63,1.58-2.03,3.02,10.75,25.88,36.29,44.12,66.01,44.12,39.39,0,71.44-32.05,71.44-71.44,0-.95-.02-1.89-.06-2.82Z"/>
      </g>
      <path class="st0" d="M71.44,88.95c-10.04,0-18.11-8.45-17.47-18.63.53-8.44,7.2-15.43,15.62-16.29s15.05,3.75,17.95,10.53c.8,1.86,3.06,2.59,4.81,1.58l17.38-10.03c1.57-.91,2.14-2.88,1.33-4.5-7.46-14.88-23.05-24.99-40.96-24.46-23.54.69-42.6,20.05-42.97,43.59-.39,24.8,19.6,45.02,44.31,45.02,17.34,0,32.34-9.96,39.62-24.47.81-1.62.24-3.6-1.33-4.5l-17.38-10.04c-1.76-1.02-4.02-.27-4.82,1.6-2.68,6.23-8.86,10.6-16.08,10.6Z"/>
    </g>
    <g>
      <path class="st2" d="M193.32,55.74c-1.87-3.11-7-6.07-12.92-6.07-7.63,0-11.28,3.19-11.28,7.24,0,4.75,5.6,6.07,12.14,6.85,11.36,1.4,21.94,4.36,21.94,17.35,0,12.14-10.74,17.35-22.88,17.35-11.13,0-19.69-3.42-23.73-13.38l8.56-4.43c2.41,5.99,8.71,8.64,15.33,8.64s12.53-2.26,12.53-8.17c0-5.14-5.37-7.24-12.61-8.01-11.13-1.32-21.4-4.28-21.4-16.5,0-11.2,11.05-15.8,21.09-15.87,8.48,0,17.27,2.41,21.4,10.82l-8.17,4.2Z"/>
      <path class="st2" d="M218.59,58.69v20.07c0,5.84,3.19,10.27,9.26,10.27s9.8-4.9,9.8-10.74v-19.61h9.41v38.44h-8.48l-.62-5.21c-3.97,3.89-7.63,5.76-12.99,5.76-9.18,0-15.87-6.92-15.87-18.83v-20.15h9.49Z"/>
      <path class="st2" d="M254.19,113.08v-54.39h8.87l.62,5.29c2.96-4.28,8.09-6.15,12.45-6.15,11.83,0,19.69,8.79,19.69,20.08s-7.08,20.07-19.37,20.07c-4.05,0-10.04-1.24-12.76-5.45v20.54h-9.49ZM286.32,77.91c0-5.99-4.05-10.89-10.89-10.89s-10.89,4.9-10.89,10.89,4.43,10.89,10.89,10.89,10.89-4.9,10.89-10.89Z"/>
      <path class="st2" d="M301.53,113.08v-54.39h8.87l.62,5.29c2.96-4.28,8.09-6.15,12.45-6.15,11.83,0,19.69,8.79,19.69,20.08s-7.08,20.07-19.37,20.07c-4.05,0-10.04-1.24-12.76-5.45v20.54h-9.49ZM333.67,77.91c0-5.99-4.05-10.89-10.89-10.89s-10.89,4.9-10.89,10.89,4.43,10.89,10.89,10.89,10.89-4.9,10.89-10.89Z"/>
      <path class="st2" d="M388.29,77.91c0,11.05-7.55,20-20,20s-19.92-8.95-19.92-20,7.63-20,19.84-20,20.07,9.03,20.07,20ZM357.87,77.91c0,5.84,3.5,11.28,10.43,11.28s10.43-5.45,10.43-11.28-4.05-11.36-10.43-11.36c-6.85,0-10.43,5.6-10.43,11.36Z"/>
      <path class="st2" d="M402.33,58.69l.7,4.44c2.96-4.75,6.93-5.45,10.82-5.45s7.78,1.56,9.88,3.66l-4.28,8.25c-1.95-1.63-3.73-2.49-6.85-2.49-4.98,0-9.57,2.65-9.57,9.73v20.23h-9.49v-38.36h8.79Z"/>
      <path class="st2" d="M444.39,47.88v10.89h10.58v8.17h-10.66v16.57c0,3.66,2.02,5.45,4.98,5.45,1.48,0,3.19-.47,4.59-1.17l2.65,8.09c-2.72,1.09-4.98,1.56-7.86,1.63-8.33.31-13.77-4.43-13.77-14.01v-16.57h-7.16v-8.17h7.16v-4.89l9.49-6.01Z"/>
      <path class="st2" d="M566.78,90.21c-5.6,5.52-12.84,8.09-20.7,8.09-20.23,0-28.79-13.93-28.87-28.09-.08-14.24,9.18-28.71,28.87-28.71,7.39,0,14.39,2.8,20,8.33l-6.85,6.61c-3.58-3.5-8.4-5.14-13.15-5.14-13.15,0-18.83,9.8-18.75,18.91.08,9.03,5.29,18.44,18.75,18.44,4.75,0,10.12-1.95,13.69-5.52l7,7.08Z"/>
      <path class="st2" d="M601.27,58.69h9.1v38.36h-8.95l-.47-5.6c-2.18,4.51-8.17,6.69-12.45,6.77-11.36.08-19.76-6.93-19.76-20.39s8.79-20.15,20-20.08c5.14,0,10.04,2.41,12.22,6.22l.31-5.29ZM578.24,77.84c0,7.31,5.06,11.67,11.36,11.67,14.94,0,14.94-23.27,0-23.27-6.3,0-11.36,4.28-11.36,11.59Z"/>
      <path class="st2" d="M625.25,58.69l.7,4.44c2.96-4.75,6.93-5.45,10.82-5.45s7.78,1.56,9.88,3.66l-4.28,8.25c-1.95-1.63-3.73-2.49-6.85-2.49-4.98,0-9.57,2.65-9.57,9.73v20.23h-9.49v-38.36h8.79Z"/>
      <path class="st2" d="M658.32,81.26c.62,4.75,4.75,8.17,11.44,8.17,3.5,0,8.09-1.32,10.27-3.58l6.07,5.99c-4.05,4.2-10.66,6.22-16.5,6.22-13.23,0-21.09-8.17-21.09-20.46s7.94-20.07,20.39-20.07,20.85,7.94,19.37,23.73h-29.96ZM679.17,73.4c-.62-4.98-4.51-7.47-9.96-7.47-5.14,0-9.34,2.49-10.74,7.47h20.7Z"/>
    </g>
  </g>
  <g>
    <path class="st2" d="M398.34,126.27c.79-1.06,1.71-1.9,2.76-2.51,1.05-.61,2.27-.92,3.67-.92,1.09,0,2.06.2,2.92.6.86.4,1.59.97,2.19,1.72s1.06,1.67,1.37,2.77c.31,1.1.47,2.34.47,3.73,0,1.46-.18,2.8-.53,4-.35,1.2-.86,2.23-1.53,3.09-.67.85-1.49,1.51-2.46,1.98-.97.47-2.08.7-3.32.7s-2.38-.25-3.28-.74-1.68-1.22-2.33-2.19l-.13,2.23c-.04.3-.2.45-.49.45h-1.05v-26.41h1.74v11.49ZM398.34,137.25c.7,1.04,1.47,1.77,2.31,2.19.84.42,1.79.63,2.84.63s2.02-.19,2.82-.58c.8-.39,1.48-.94,2.02-1.66.54-.72.94-1.59,1.21-2.62.27-1.03.4-2.18.4-3.47,0-2.49-.5-4.37-1.49-5.63-.99-1.26-2.38-1.89-4.18-1.89-1.28,0-2.4.31-3.36.93-.96.62-1.82,1.48-2.58,2.58v9.53Z"/>
    <path class="st2" d="M430.78,123.13l-10.38,23.87c-.07.17-.17.31-.28.42-.12.11-.28.16-.5.16h-1.23l3.18-7.06-7.64-17.39h1.43c.18,0,.33.05.44.14.11.09.18.19.22.3l6.08,14.05c.07.18.14.37.19.55.05.19.11.38.15.57.06-.19.12-.38.19-.57.07-.19.14-.37.21-.55l6.01-14.05c.06-.13.15-.24.25-.32.11-.08.23-.12.36-.12h1.33Z"/>
    <g>
      <path class="st2" d="M465.12,129.08c-.07,6.63-4.14,13.26-13.15,13.26s-13.19-6.49-13.19-13.23,4.32-13.52,13.19-13.52,13.23,6.78,13.15,13.48ZM443.54,129.19c.11,4.21,2.38,8.72,8.43,8.72s8.32-4.54,8.39-8.76c.07-4.32-2.35-9.16-8.39-9.16s-8.54,4.87-8.43,9.2Z"/>
      <path class="st2" d="M468.34,149.31v-25.61h4.18l.29,2.49c1.39-2.02,3.81-2.89,5.86-2.89,5.57,0,9.27,4.14,9.27,9.45s-3.33,9.45-9.12,9.45c-1.91,0-4.73-.59-6.01-2.57v9.67h-4.47ZM483.47,132.75c0-2.82-1.91-5.13-5.13-5.13s-5.13,2.31-5.13,5.13,2.09,5.13,5.13,5.13,5.13-2.31,5.13-5.13Z"/>
      <path class="st2" d="M495.05,134.32c.29,2.24,2.24,3.85,5.39,3.85,1.65,0,3.81-.62,4.84-1.69l2.86,2.82c-1.91,1.98-5.02,2.93-7.77,2.93-6.23,0-9.93-3.85-9.93-9.64s3.74-9.45,9.6-9.45,9.82,3.74,9.12,11.18h-14.11ZM504.87,130.62c-.29-2.35-2.13-3.52-4.69-3.52-2.42,0-4.4,1.17-5.06,3.52h9.75Z"/>
      <path class="st2" d="M525.9,141.76v-9.45c0-2.75-1.5-4.84-4.36-4.84s-4.62,2.31-4.62,5.06v9.23h-4.43v-18.1h3.99l.29,2.46c1.83-1.8,3.66-2.71,5.94-2.71,4.25,0,7.66,3.19,7.66,8.87v9.49h-4.47Z"/>
      <rect class="st2" x="535.1" y="116.11" width="17.7" height="1.87"/>
      <polygon class="st2" points="535.1 139.83 535.1 141.76 553.23 141.76 553.23 139.85 535.1 139.83"/>
      <polygon class="st2" points="552.06 129.74 552.06 127.95 535.1 127.93 535.1 129.74 552.06 129.74"/>
      <path class="st2" d="M559.06,116.11v25.65h-1.8v-25.65h1.8Z"/>
      <path class="st2" d="M563.05,132.71c0-5.42,4.1-9.34,9.2-9.34s9.64,3.11,8.94,10.19h-16.31c.37,4.25,3.63,6.71,7.37,6.71,2.38,0,5.17-.95,6.52-2.75l1.28,1.03c-1.76,2.31-4.91,3.48-7.8,3.48-5.09,0-9.2-3.55-9.2-9.31ZM579.58,131.98c-.04-4.47-2.97-6.96-7.33-6.96-3.74,0-6.96,2.53-7.37,6.96h14.69Z"/>
      <path class="st2" d="M612.3,141.76v-10.85c0-3.48-2.35-5.94-5.79-5.94s-5.83,2.57-5.83,6.05v10.74h-1.8v-10.74c0-3.48-2.38-6.01-5.83-6.01s-5.79,2.53-5.79,6.01v10.74h-1.8v-18.1h1.69l.04,3c1.25-2.38,3.55-3.37,5.9-3.37,2.75,0,5.64,1.25,6.71,4.47,1.1-2.97,3.92-4.47,6.71-4.47,4.43,0,7.58,3.11,7.58,7.62v10.85h-1.8Z"/>
      <path class="st2" d="M618.12,132.71c0-5.42,4.1-9.34,9.2-9.34s9.64,3.11,8.94,10.19h-16.31c.37,4.25,3.63,6.71,7.37,6.71,2.38,0,5.17-.95,6.52-2.75l1.28,1.03c-1.76,2.31-4.91,3.48-7.8,3.48-5.09,0-9.2-3.55-9.2-9.31ZM634.64,131.98c-.04-4.47-2.97-6.96-7.33-6.96-3.74,0-6.96,2.53-7.37,6.96h14.69Z"/>
      <path class="st2" d="M642.66,123.66v3.22c1.39-2.49,3.92-3.52,6.45-3.55,4.84,0,8.17,2.97,8.17,7.99v10.44h-1.8v-10.41c0-4.1-2.53-6.3-6.45-6.27-3.74.04-6.34,2.86-6.34,6.6v10.08h-1.8v-18.1h1.76Z"/>
      <path class="st2" d="M665.34,118.2v5.46h6.16v1.5h-6.16v11.03c0,2.45.51,4.18,3.33,4.18.88,0,1.87-.29,2.78-.73l.62,1.47c-1.14.55-2.27.92-3.41.92-3.85,0-5.09-2.27-5.09-5.83v-11.03h-3.85v-1.5h3.85v-5.28l1.76-.18Z"/>
      <path class="st2" d="M688.06,126.96c-1.83-1.61-3.63-1.91-5.64-1.91-2.82-.04-5.53,1.03-5.46,3.33.07,2.42,3.22,2.89,5.5,3.3,3.22.55,7.66,1.1,7.48,5.31-.11,3.99-4.25,5.06-7.44,5.06s-6.34-1.21-7.92-3.63l1.32-1.17c1.5,2.16,4.21,3.08,6.63,3.08,2.2,0,5.53-.59,5.64-3.44.07-2.6-2.93-3.11-5.9-3.59-3.52-.59-7-1.25-7.04-4.87-.04-3.55,3.52-5.09,7.18-5.06,2.64,0,4.95.73,6.74,2.42l-1.1,1.17Z"/>
    </g>
  </g>
  <path class="st2" d="M517.26,97.66h-3.57c-.48,0-.88-.05-1.18-.16-.31-.11-.66-.35-1.06-.72l-8.23-8.07c-1.18,1.39-2.49,2.67-3.93,3.83-1.44,1.16-3.01,2.17-4.69,3.03-1.69.86-3.49,1.52-5.42,2.01s-3.95.72-6.06.72-3.99-.33-5.94-1c-1.95-.67-3.7-1.65-5.24-2.95-1.54-1.3-2.78-2.89-3.73-4.77-.95-1.89-1.42-4.03-1.42-6.44,0-1.93.35-3.77,1.04-5.52.7-1.75,1.64-3.36,2.85-4.81,1.2-1.46,2.63-2.76,4.29-3.91,1.66-1.15,3.45-2.09,5.38-2.81-1.93-2.17-3.36-4.25-4.29-6.26-.94-2.01-1.4-4.16-1.4-6.46,0-1.87.34-3.6,1.02-5.2.68-1.59,1.65-2.98,2.91-4.15,1.26-1.18,2.76-2.1,4.51-2.77,1.75-.67,3.71-1,5.88-1,1.79,0,3.49.31,5.1.92,1.6.62,3,1.44,4.19,2.49,1.19,1.04,2.14,2.25,2.85,3.63.71,1.38,1.09,2.82,1.14,4.31l-2.17.44c-.27.05-.52,0-.74-.14-.23-.15-.41-.41-.54-.78-.13-.72-.42-1.54-.86-2.45-.44-.91-1.06-1.77-1.87-2.57-.8-.8-1.79-1.48-2.97-2.03-1.18-.55-2.55-.82-4.13-.82s-3.06.25-4.37.74c-1.31.5-2.43,1.19-3.37,2.09-.94.9-1.67,1.96-2.19,3.19-.52,1.23-.78,2.58-.78,4.05,0,2.19.56,4.29,1.69,6.3,1.12,2.01,2.86,4.16,5.22,6.46l17.94,17.62c1.2-1.93,2.15-3.93,2.85-6,.7-2.07,1.15-4.09,1.36-6.04.05-.35.16-.62.32-.82.16-.2.4-.3.72-.3h2.21c-.05,2.51-.52,5.1-1.4,7.76-.88,2.66-2.15,5.21-3.81,7.64l11.92,11.72ZM482.19,68.04c-1.77.72-3.36,1.6-4.8,2.65-1.43,1.04-2.64,2.21-3.63,3.49-.99,1.28-1.75,2.66-2.29,4.13-.54,1.47-.8,3-.8,4.57,0,2.06.39,3.85,1.18,5.38.79,1.52,1.81,2.8,3.07,3.83,1.26,1.03,2.65,1.8,4.19,2.31,1.54.51,3.06.76,4.55.76,1.9,0,3.68-.21,5.36-.64,1.67-.43,3.23-1.02,4.67-1.79,1.44-.76,2.78-1.67,4.01-2.73,1.23-1.06,2.34-2.2,3.33-3.43l-18.42-18.1-.44-.44Z"/>
</svg>