<?xml version="1.0" encoding="UTF-8" standalone="no"?><!DOCTYPE svg PUBLIC "-//W3C//DTD SVG 1.1//EN" "http://www.w3.org/Graphics/SVG/1.1/DTD/svg11.dtd"><svg width="100%" height="100%" viewBox="0 0 1081 1080" version="1.1" xmlns="http://www.w3.org/2000/svg" xmlns:xlink="http://www.w3.org/1999/xlink" xml:space="preserve" xmlns:serif="http://www.serif.com/" style="fill-rule:evenodd;clip-rule:evenodd;stroke-linecap:round;stroke-linejoin:round;"><rect id="_03_Longterm_cost_savings" serif:id="03_Longterm_cost_savings" x="0.524" y="0" width="1080" height="1080" style="fill:none;"/><g id="_03_Longterm_cost_savings1" serif:id="03_Longterm_cost_savings"><path d="M200.906,531.29l-0,-63.416" style="fill:none;fill-rule:nonzero;stroke:#5cba9e;stroke-width:8.33px;"/><path d="M226.035,507.249l-25.339,24.041l-23.078,-24.041" style="fill:none;fill-rule:nonzero;stroke:#5cba9e;stroke-width:8.33px;"/><path d="M350.767,417.374c-34.191,0 -62.327,28.136 -62.327,62.327c0,34.192 28.136,62.328 62.327,62.328c34.192,-0 62.328,-28.136 62.328,-62.328c-0.036,-34.178 -28.15,-62.291 -62.328,-62.327Zm11.986,100.683l-7.191,-0l-0,4.794c-0,2.63 -2.164,4.794 -4.795,4.794c-2.63,0 -4.794,-2.164 -4.794,-4.794l0,-4.794l-4.794,-0c-11.836,-0 -21.575,-9.74 -21.575,-21.575c-0,-2.63 2.164,-4.795 4.794,-4.795c2.63,0 4.795,2.165 4.795,4.795c-0,6.575 5.41,11.986 11.986,11.986l21.574,-0c6.576,-0 11.986,-5.411 11.986,-11.986c0,-6.576 -5.41,-11.986 -11.986,-11.986l-19.177,-0c-11.836,-0 -21.575,-9.74 -21.575,-21.575c0,-11.836 9.739,-21.575 21.575,-21.575l2.397,0l0,-4.794c0,-2.63 2.164,-4.795 4.794,-4.795c2.631,0 4.795,2.165 4.795,4.795l-0,4.794l2.397,0c11.836,0 21.575,9.739 21.575,21.575c-0,2.63 -2.164,4.794 -4.795,4.794c-2.63,0 -4.794,-2.164 -4.794,-4.794c0,-6.575 -5.411,-11.986 -11.986,-11.986l-14.383,-0c-6.575,-0 -11.986,5.411 -11.986,11.986c-0,6.575 5.411,11.986 11.986,11.986l19.177,-0c11.836,-0 21.575,9.739 21.575,21.575c0,11.835 -9.739,21.575 -21.575,21.575Z" style="fill:#b6e2da;fill-rule:nonzero;"/><g id="Layer3"></g><path d="M400.132,621.273c-28.729,17.556 -62.489,27.677 -98.593,27.677c-104.571,-0 -189.47,-84.899 -189.47,-189.47c0,-104.571 84.899,-189.469 189.47,-189.469c92.413,-0 169.462,66.304 186.129,153.896" style="fill:none;stroke:#020144;stroke-width:16.67px;stroke-miterlimit:1.5;"/><circle cx="684.501" cy="629.218" r="284.478" style="fill:none;stroke:#020144;stroke-width:16.67px;stroke-miterlimit:1.5;"/><circle cx="640.342" cy="655.089" r="187.215" style="fill:#5cba9e;fill-opacity:0.5;"/><path d="M266.977,341.428c-34.192,0 -62.328,28.136 -62.328,62.328c0,34.191 28.136,62.327 62.328,62.327c34.191,-0 62.327,-28.136 62.327,-62.327c-0.036,-34.178 -28.149,-62.292 -62.327,-62.328Zm-0,47.944c2.63,0 4.794,2.165 4.794,4.795c0,2.63 -2.164,4.794 -4.794,4.794l-23.972,0l-0,9.589l19.177,0c2.63,0 4.795,2.164 4.795,4.794c-0,2.631 -2.165,4.795 -4.795,4.795l-18.045,-0c3.488,10.983 13.753,18.494 25.276,18.494c6.781,-0 13.31,-2.601 18.234,-7.263c0.902,-0.93 2.144,-1.456 3.44,-1.456c2.63,0 4.794,2.165 4.794,4.795c0,1.384 -0.599,2.703 -1.642,3.613c-6.701,6.348 -15.589,9.889 -24.82,9.889c-16.784,0 -31.46,-11.708 -35.188,-28.072l-5.61,-0c-2.63,-0 -4.794,-2.164 -4.794,-4.795c0,-2.63 2.164,-4.794 4.794,-4.794l4.795,0l-0,-9.589l-4.795,0c-2.63,0 -4.794,-2.164 -4.794,-4.794c0,-2.63 2.164,-4.795 4.794,-4.795l5.466,0c3.456,-16.69 18.29,-28.767 35.334,-28.767c9.236,0 18.128,3.546 24.83,9.901c1.043,0.91 1.642,2.229 1.642,3.613c0,2.63 -2.164,4.795 -4.794,4.795c-1.296,-0 -2.538,-0.526 -3.44,-1.456c-4.924,-4.666 -11.456,-7.27 -18.239,-7.27c-11.786,0 -22.223,7.858 -25.48,19.184l23.037,0Z" style="fill:#5cba9e;fill-rule:nonzero;"/><circle cx="675.647" cy="488.822" r="30.448" style="fill:none;stroke:#020144;stroke-width:16.67px;stroke-miterlimit:1.5;"/><circle cx="799.292" cy="680.024" r="19.96" style="fill:none;stroke:#020144;stroke-width:16.67px;stroke-miterlimit:1.5;"/><circle cx="675.348" cy="756.413" r="19.96" style="fill:none;stroke:#020144;stroke-width:16.67px;stroke-miterlimit:1.5;"/><circle cx="547.492" cy="783.795" r="19.96" style="fill:none;stroke:#020144;stroke-width:16.67px;stroke-miterlimit:1.5;"/><path d="M505.775,803.755l339.743,-0" style="fill:none;stroke:#020144;stroke-width:16.67px;stroke-miterlimit:1.5;"/><path d="M799.292,699.984l-73.653,0l-30.33,63.851" style="fill:none;stroke:#020144;stroke-width:16.67px;stroke-miterlimit:1.5;"/><path d="M675.647,776.373l-128.155,27.382" style="fill:none;stroke:#020144;stroke-width:16.67px;stroke-miterlimit:1.5;"/><path d="M695.309,540.294l-47.379,0" style="fill:none;stroke:#020144;stroke-width:16.67px;stroke-miterlimit:1.5;"/><path d="M647.93,540.294c-16.878,0 -30.56,13.682 -30.56,30.56l-0,59.439c-0,4.052 1.609,7.939 4.475,10.804c2.866,2.866 6.752,4.476 10.805,4.476c4.052,-0 7.939,-1.61 10.804,-4.476c2.866,-2.865 4.476,-6.752 4.476,-10.804l-0,-30.902" style="fill:none;stroke:#020144;stroke-width:16.67px;stroke-miterlimit:1.5;"/><path d="M712.432,565.784l35.192,-11.494c7.401,-2.417 14.136,-6.53 19.667,-12.01l17.836,-17.672c6.359,-6.3 7.529,-16.154 2.824,-23.769c-1.942,-3.143 -5.214,-5.226 -8.884,-5.655c-3.669,-0.429 -7.334,0.843 -9.948,3.453l-17.199,17.168c-5.508,5.498 -12.224,9.635 -19.612,12.081l-36.999,12.246l0.1,0.162" style="fill:none;stroke:#020144;stroke-width:16.67px;stroke-miterlimit:1.5;"/><path d="M647.93,600.136l-0,117.864" style="fill:none;stroke:#020144;stroke-width:16.67px;stroke-miterlimit:1.5;"/><path d="M711.944,566.13l-0,117.864" style="fill:none;stroke:#020144;stroke-width:16.67px;stroke-miterlimit:1.5;"/><path d="M679.937,659.068l-0,45.786" style="fill:none;stroke:#020144;stroke-width:16.67px;stroke-miterlimit:1.5;"/><path d="M830.066,443.833l-0,42.864" style="fill:none;fill-rule:nonzero;stroke:#5cba9e;stroke-width:8.33px;"/><path d="M789.049,422.718l0,42.863" style="fill:none;fill-rule:nonzero;stroke:#5cba9e;stroke-width:8.33px;"/><path d="M751.144,443.833l-0,42.864" style="fill:none;fill-rule:nonzero;stroke:#5cba9e;stroke-width:8.33px;"/><path d="M813.081,460.083l17.126,-16.25l15.599,16.25" style="fill:none;fill-rule:nonzero;stroke:#5cba9e;stroke-width:8.33px;"/><path d="M772.064,438.967l17.127,-16.249l15.598,16.249" style="fill:none;fill-rule:nonzero;stroke:#5cba9e;stroke-width:8.33px;"/><path d="M734.159,460.083l17.126,-16.25l15.599,16.25" style="fill:none;fill-rule:nonzero;stroke:#5cba9e;stroke-width:8.33px;"/><circle cx="635.558" cy="219.335" r="53.032" style="fill:none;stroke:#5cba9e;stroke-opacity:0.5;stroke-width:16.67px;stroke-miterlimit:1.5;"/><circle cx="557.419" cy="297.473" r="25.106" style="fill:#5cba9e;fill-opacity:0.5;"/><circle cx="240.164" cy="842.807" r="34.215" style="fill:#5cba9e;"/></g></svg>