<?xml version="1.0" encoding="UTF-8" standalone="no"?><!DOCTYPE svg PUBLIC "-//W3C//DTD SVG 1.1//EN" "http://www.w3.org/Graphics/SVG/1.1/DTD/svg11.dtd"><svg width="100%" height="100%" viewBox="0 0 1081 1080" version="1.1" xmlns="http://www.w3.org/2000/svg" xmlns:xlink="http://www.w3.org/1999/xlink" xml:space="preserve" xmlns:serif="http://www.serif.com/" style="fill-rule:evenodd;clip-rule:evenodd;stroke-linecap:round;stroke-linejoin:round;stroke-miterlimit:1.5;"><rect id="_02_Stability_Reliability" serif:id="02_Stability_Reliability" x="0.262" y="0" width="1080" height="1080" style="fill:none;"/><g id="_02_Stability_Reliability1" serif:id="02_Stability_Reliability"><g id="Layer6"></g><g id="Layer5"></g><g id="Layer2"></g><g id="java-duke" serif:id="java duke"></g><circle cx="240.228" cy="775.983" r="158.685" style="fill:#b6e2da;"/><circle cx="384.949" cy="673.739" r="66.494" style="fill:#5cba9e;"/><circle cx="824.079" cy="327.832" r="174.902" style="fill:none;stroke:#020144;stroke-width:16.67px;"/><circle cx="824.079" cy="327.832" r="145.609" style="fill:#5cba9e;fill-opacity:0.5;"/><path d="M207.479,377.101l420.166,0" style="fill:none;stroke:#020144;stroke-width:16.67px;"/><path d="M629.695,299.37l-422.216,0l-0,297.476m214.338,165.676l454.761,-0l-0,-245.362" style="fill:none;stroke:#020144;stroke-width:16.67px;"/><path d="M898.791,318.489l-12.452,-0l-0,-12.452l12.452,-0c3.415,-0 6.226,2.81 6.226,6.226c-0,3.415 -2.811,6.226 -6.226,6.226Zm-149.424,-12.452c-3.416,-0 -6.226,2.81 -6.226,6.226c-0,3.415 2.81,6.226 6.226,6.226l12.452,-0l-0,-12.452l-12.452,-0Zm136.972,43.582c-0,2.101 -0.109,4.179 -0.312,6.226l12.764,-0c3.415,-0 6.226,2.81 6.226,6.226c-0,3.415 -2.811,6.226 -6.226,6.226l-15.316,-0c-8.131,25.873 -32.276,43.594 -59.396,43.594c-27.121,-0 -51.265,-17.721 -59.396,-43.594l-15.316,-0c-3.416,-0 -6.226,-2.811 -6.226,-6.226c-0,-3.416 2.81,-6.226 6.226,-6.226l12.763,-0c-0.202,-2.047 -0.311,-4.125 -0.311,-6.226l-0,-6.226l-12.452,-0c-3.416,-0 -6.226,-2.811 -6.226,-6.226c-0,-3.416 2.81,-6.226 6.226,-6.226l12.452,-0l-0,-12.452l124.52,-0l-0,12.452l12.452,-0c3.415,-0 6.226,2.81 6.226,6.226c-0,3.415 -2.811,6.226 -6.226,6.226l-12.452,-0l-0,6.226Zm-56.034,-12.452c-0,-3.416 -2.811,-6.226 -6.226,-6.226c-3.416,-0 -6.226,2.81 -6.226,6.226l-0,49.808c-0,3.415 2.81,6.226 6.226,6.226c3.415,-0 6.226,-2.811 6.226,-6.226l-0,-49.808Zm-51.489,-67.591c-9.441,9.971 -15.311,22.799 -16.686,36.461l123.897,-0c-1.374,-13.662 -7.245,-26.49 -16.685,-36.461l15.176,-15.168c1.167,-1.168 1.824,-2.754 1.824,-4.405c0,-3.417 -2.812,-6.23 -6.229,-6.23c-1.652,0 -3.237,0.657 -4.405,1.825l-15.791,15.798c-21.425,-15.155 -50.252,-15.155 -71.677,0l-15.79,-15.798c-1.168,-1.168 -2.754,-1.825 -4.405,-1.825c-3.418,0 -6.23,2.813 -6.23,6.23c0,1.651 0.657,3.237 1.825,4.405l15.176,15.168Z" style="fill:#020144;fill-rule:nonzero;"/><g><path d="M284.035,713.871l-9.927,7.193c-1.039,0.768 -2.415,0.919 -3.596,0.395l-12.912,-5.322c-1.154,-0.469 -1.986,-1.505 -2.194,-2.734l-2.373,-13.559c-0.284,-1.751 -1.823,-3.044 -3.597,-3.021l-17.479,-0c-1.698,-0.045 -3.207,1.117 -3.597,2.769l-3.345,13.38c-0.262,1.02 -0.959,1.875 -1.906,2.337l-11.869,5.971c-1.162,0.555 -2.537,0.445 -3.596,-0.288l-10.79,-7.661c-1.45,-1.05 -3.475,-0.864 -4.711,0.432l-13.128,13.451c-1.21,1.202 -1.406,3.108 -0.467,4.532l6.725,10.358c0.618,0.95 0.751,2.137 0.36,3.201l-4.676,12.911c-0.394,1.11 -1.309,1.957 -2.445,2.266l-13.847,3.813c-1.61,0.432 -2.719,1.93 -2.661,3.596l-0,17.048c-0.035,1.729 1.182,3.251 2.877,3.596l14.026,2.878c1.144,0.223 2.11,0.988 2.59,2.05l5.107,11.329c0.482,1.065 0.414,2.302 -0.18,3.309l-7.66,13.055c-0.864,1.441 -0.609,3.305 0.611,4.46l12.3,11.725c1.254,1.222 3.228,1.36 4.64,0.323l10.358,-7.516c1.046,-0.757 2.421,-0.894 3.596,-0.36l13.452,6.006c1.117,0.482 1.917,1.498 2.122,2.698l2.373,13.631c0.284,1.751 1.823,3.044 3.597,3.021l17.587,-0c1.797,0.017 3.345,-1.314 3.597,-3.093l2.086,-14.387c0.175,-1.218 0.963,-2.265 2.086,-2.769l12.875,-5.826c1.169,-0.545 2.544,-0.421 3.597,0.323l11.293,7.625c1.47,1.002 3.473,0.771 4.676,-0.539l12.408,-13.308c1.184,-1.243 1.32,-3.169 0.323,-4.567l-7.48,-10.79c-0.745,-1.053 -0.869,-2.428 -0.324,-3.597l5.323,-12.336c0.454,-1.08 1.408,-1.873 2.553,-2.122l13.164,-2.769c1.695,-0.346 2.912,-1.867 2.877,-3.597l0,-16.472c0.035,-1.729 -1.182,-3.251 -2.877,-3.597l-13.379,-2.805c-1.197,-0.248 -2.187,-1.09 -2.626,-2.23l-5.215,-13.127c-0.443,-1.121 -0.294,-2.393 0.396,-3.381l7.732,-11.293c1,-1.446 0.8,-3.423 -0.467,-4.64l-13.344,-11.689c-1.263,-1.211 -3.236,-1.334 -4.639,-0.287Z" style="fill:none;fill-rule:nonzero;stroke:#020144;stroke-width:16.67px;stroke-linecap:butt;stroke-linejoin:miter;stroke-miterlimit:4;"/><circle cx="240.229" cy="775.983" r="35.75" style="fill:none;stroke:#020144;stroke-width:16.67px;stroke-linecap:butt;stroke-linejoin:miter;stroke-miterlimit:4;"/></g><path d="M409.717,694.482c0.534,0.534 0.834,1.258 0.834,2.013c-0,0.754 -0.3,1.479 -0.834,2.012c-0.384,0.381 -9.543,9.366 -24.768,9.366c-8.306,-0 -16.402,-3.236 -23.566,-9.391l-5.71,5.714c-0.534,0.534 -1.258,0.834 -2.013,0.834c-1.56,0 -2.844,-1.284 -2.844,-2.844c-0,-0.001 -0,-17.069 -0,-17.069c-0,-1.56 1.284,-2.844 2.844,-2.844c0,-0 17.068,-0 17.069,-0c1.56,-0 2.844,1.284 2.844,2.844c0,0.755 -0.3,1.479 -0.834,2.013l-7.317,7.317c4.622,3.879 11.289,7.737 19.527,7.737c12.896,-0 20.668,-7.623 20.743,-7.702c0.533,-0.533 1.258,-0.834 2.012,-0.834c0.755,0 1.479,0.301 2.013,0.834Zm7.609,-51.814c-1.061,-0.44 -2.289,-0.197 -3.101,0.615l-5.71,5.713c-7.164,-6.154 -15.26,-9.39 -23.566,-9.39c-15.225,0 -24.384,8.985 -24.768,9.366c-0.534,0.533 -0.834,1.258 -0.834,2.012c0,1.561 1.285,2.846 2.846,2.846c0.755,0 1.479,-0.3 2.013,-0.834c0.075,-0.078 7.847,-7.701 20.743,-7.701c8.238,0 14.905,3.858 19.527,7.737l-7.317,7.317c-0.534,0.534 -0.835,1.258 -0.835,2.013c0,1.56 1.284,2.844 2.845,2.844c0,0 17.069,0 17.069,0c1.56,0 2.844,-1.284 2.844,-2.844l-0,-17.067c-0,-1.148 -0.696,-2.188 -1.756,-2.627Z" style="fill:#020144;fill-rule:nonzero;"/><rect x="274.802" y="432.993" width="255.26" height="97.954" style="fill:#5cba9e;"/><path d="M530.062,567.539l285.742,-0" style="fill:none;stroke:#020144;stroke-width:16.67px;"/><path d="M530.062,608.97l230.598,0" style="fill:none;stroke:#020144;stroke-width:16.67px;"/><path d="M530.062,650.402l200.119,-0" style="fill:none;stroke:#020144;stroke-width:16.67px;"/><path d="M530.062,691.833l115.299,0" style="fill:none;stroke:#020144;stroke-width:16.67px;"/><circle cx="884.396" cy="684.617" r="34.215" style="fill:#5cba9e;"/><circle cx="495.756" cy="862.162" r="53.032" style="fill:none;stroke:#5cba9e;stroke-opacity:0.5;stroke-width:16.67px;"/><circle cx="685.536" cy="211.826" r="66.494" style="fill:#5cba9e;"/><path d="M719.669,201.322c0,0.008 0,0.016 0,0.024c0,12.962 -10.666,23.628 -23.628,23.628c-3.269,0 -6.503,-0.679 -9.497,-1.993l-17.084,19.762c-0.04,0.046 -0.085,0.096 -0.128,0.138c-1.969,1.969 -4.642,3.076 -7.427,3.076c-5.761,0 -10.502,-4.741 -10.502,-10.502c-0,-2.784 1.107,-5.458 3.076,-7.426c0.046,-0.043 0.092,-0.089 0.141,-0.128l19.762,-17.081c-1.306,-2.988 -1.98,-6.213 -1.98,-9.474c0,-12.974 10.677,-23.651 23.651,-23.651c1.937,0 3.866,0.238 5.744,0.708c1.164,0.292 1.987,1.347 1.987,2.547c0,0.66 -0.249,1.297 -0.697,1.782l-12.296,13.34l1.857,8.647l8.644,1.854l13.34,-12.313c0.485,-0.448 1.121,-0.697 1.782,-0.697c1.2,-0 2.255,0.823 2.546,1.987c0.471,1.888 0.71,3.827 0.709,5.772Z" style="fill:#020144;fill-rule:nonzero;"/></g></svg>