<?xml version="1.0" encoding="UTF-8"?>
<svg xmlns="http://www.w3.org/2000/svg" viewBox="0 0 1200 800">
  <defs>
    <style>
      .cls-1 {
        fill: #3e9279;
      }

      .cls-1, .cls-2, .cls-3, .cls-4, .cls-5, .cls-6, .cls-7, .cls-8, .cls-9, .cls-10, .cls-11, .cls-12, .cls-13, .cls-14, .cls-15, .cls-16, .cls-17, .cls-18 {
        stroke-width: 0px;
      }

      .cls-19, .cls-20, .cls-21, .cls-22, .cls-23, .cls-24, .cls-25, .cls-26, .cls-27, .cls-28, .cls-29, .cls-30 {
        stroke-linecap: round;
        stroke-linejoin: round;
        stroke-width: 1.5px;
      }

      .cls-19, .cls-20, .cls-21, .cls-22, .cls-23, .cls-24, .cls-27, .cls-29, .cls-30 {
        stroke: #020144;
      }

      .cls-19, .cls-3 {
        fill: #dcca13;
      }

      .cls-2 {
        fill: #9dd5fa;
      }

      .cls-20, .cls-13 {
        fill: #2cbcfb;
      }

      .cls-4 {
        fill: #f4e200;
      }

      .cls-5 {
        fill: #d4d4fd;
      }

      .cls-21, .cls-6 {
        fill: #006450;
      }

      .cls-22, .cls-9 {
        fill: #ddf1ec;
      }

      .cls-23, .cls-14 {
        fill: #f6ef93;
      }

      .cls-24, .cls-15 {
        fill: #9492fd;
      }

      .cls-7 {
        fill: #bee3d9;
      }

      .cls-8 {
        fill: #27bd9c;
      }

      .cls-10 {
        fill: #020147;
      }

      .cls-25 {
        stroke: #000;
      }

      .cls-25, .cls-26, .cls-28, .cls-29 {
        fill: none;
      }

      .cls-11 {
        fill: #bcbcbc;
      }

      .cls-26 {
        stroke: #f4e200;
      }

      .cls-12 {
        fill: #bee3fa;
      }

      .cls-27 {
        fill: #2496ef;
      }

      .cls-28 {
        stroke: #f6ef93;
      }

      .cls-16 {
        fill: #14659f;
      }

      .cls-17 {
        fill: #fff;
      }

      .cls-30 {
        fill: #9dd7c5;
      }

      .cls-18 {
        fill: #dff1fd;
      }
    </style>
  </defs>
  <g id="Bottom_layer" data-name="Bottom layer">
    <circle class="cls-28" cx="922.54" cy="110.68" r="41.93"/>
    <circle class="cls-26" cx="935.72" cy="107.51" r="22.63"/>
    <circle class="cls-28" cx="143.64" cy="403.34" r="41.93"/>
    <circle class="cls-26" cx="156.81" cy="400.16" r="22.63"/>
    <circle class="cls-20" cx="454.89" cy="123.53" r="51.35"/>
    <path class="cls-19" d="M594.45,374.94c216.73-125.13,413.9-197.21,465.6-172.89.43-5.15-.41-9.67-2.61-13.49-26.52-45.94-239.62,27.44-475.97,163.89-236.35,136.46-406.44,284.32-379.92,330.26,2.2,3.81,5.7,6.8,10.38,9,4.78-56.93,165.8-191.64,382.53-316.77Z"/>
    <path class="cls-30" d="M654.92,495.71c33.11-19.04,55.41-54.77,55.41-95.71,0-60.93-49.39-110.33-110.33-110.33s-110.33,49.4-110.33,110.33c0,40.94,22.3,76.67,55.41,95.7l-69.27,196.41c-113.54-48.33-193.15-160.92-193.15-292.11,0-175.26,142.08-317.34,317.34-317.34s317.34,142.08,317.34,317.34c0,131.19-79.61,243.78-193.15,292.11l-69.27-196.4Z"/>
    <circle class="cls-24" cx="876.77" cy="226.23" r="51.35"/>
    <path class="cls-23" d="M1070.42,211.04c-2.2-3.81-5.7-6.8-10.38-9-4.78,56.93-165.8,191.64-382.53,316.77-216.73,125.13-413.9,197.21-465.6,172.89-.43,5.15.41,9.67,2.61,13.49,26.52,45.94,239.62-27.44,475.97-163.89,236.35-136.46,406.44-284.32,379.92-330.26Z"/>
    <path class="cls-14" d="M1004.4,509.56l8.98,27.61h29.03l-23.48,17.06,8.97,27.61-23.48-17.06-23.48,17.06,8.98-27.61-23.49-17.06h29.03l8.97-27.61Z"/>
    <path class="cls-14" d="M297.7,72.18l8.98,27.61h29.03l-23.48,17.06,8.97,27.61-23.48-17.06-23.48,17.06,8.98-27.61-23.49-17.06h29.03l8.97-27.61Z"/>
    <path class="cls-4" d="M161.38,317l7.91,21.37,21.36,7.91-21.36,7.91-7.91,21.37-7.9-21.37-21.37-7.91,21.37-7.91,7.9-21.37Z"/>
    <path class="cls-3" d="M152.21,563.72l7.91,21.37,21.36,7.91-21.36,7.91-7.91,21.37-7.9-21.37-21.37-7.91,21.37-7.91,7.9-21.37Z"/>
    <path class="cls-4" d="M975.13,72.18l7.91,21.37,21.36,7.91-21.36,7.91-7.91,21.37-7.9-21.37-21.37-7.91,21.37-7.91,7.9-21.37Z"/>
    <circle class="cls-27" cx="651.35" cy="597.05" r="51.35"/>
    <circle class="cls-5" cx="181.95" cy="438.88" r="16.09"/>
    <circle class="cls-8" cx="524.89" cy="565.6" r="16.09"/>
    <circle class="cls-8" cx="1044.83" cy="292.05" r="16.09"/>
  </g>
  <g id="Top_male" data-name="Top male">
    <g>
      <g>
        <path class="cls-13" d="M702.84,151.07c.03,2.07-.01,4.27-.1,6.57-2.89,5.34-6.16,8.87-6.16,8.87l-.35-.21-15.72-9.52c7.11.65,17.2-3.38,22.33-5.71Z"/>
        <path class="cls-17" d="M669.67,186.3c-5.81,1.15-27.17,4.33-48.62-5.33h0c11.26-30.7,28.04-59.34,32.5-66.72,4.95,2.65,10.6,4.15,16.6,4.15,6.45,0,12.5-1.73,17.7-4.76,5.94,8.35,12.42,18.63,13.99,25.7.62,2.79.96,6.88,1,11.73-5.13,2.33-15.22,6.36-22.33,5.71l15.72,9.52c.06,8.67.04,26.11-10,39.31-3.84,5.04-11.44,8.83-18.6,11.47-.97.35-1.93.69-2.87,1.01-1,.33-1.98.64-2.93.93-1.03.31-2.02.59-2.95.85.33,1.3.49,2.77.2,4.21-4.86.91-9.44,1.51-13.04,1.9-.02-.03-.03-.05-.05-.08-.41-.64-.81-1.34-1.18-2.09-1.17-2.34-2.07-5.14-2.27-8.14-.09-1.41-.03-2.86.24-4.33.05-.27.1-.52.16-.79h0s.01-.01.01-.01l24.95-17.41h.01l.54-.38c.57-.65.96-3.11,1.22-6.45Z"/>
        <path class="cls-9" d="M705.43,83.12c0,13.04-7.07,24.42-17.58,30.52-3.87-5.43-7.51-10.04-9.43-12.41.27-.3.54-.6.8-.91.06.07.12.14.19.2,1.48,1.4,4.65.44,7.06-2.13s3.16-5.78,1.68-7.18c-.71-.67-1.8-.8-3.01-.47,5.41-12.55,3.2-25.64-5.32-29.87-8.58-4.25-20.44,2.02-27.12,14.08-.44-1.03-1.13-1.73-2-1.91-2-.42-4.2,2.05-4.91,5.5-.72,3.45.32,6.59,2.32,7,.2.04.4.05.6.04-.14.69-.26,1.38-.36,2.07-1.74.16-6.91.64-12.98,1.41-.33-1.93-.5-3.91-.5-5.94,0-19.48,15.8-35.27,35.28-35.27s35.28,15.79,35.28,35.27Z"/>
        <path class="cls-17" d="M702.74,157.64c-.73,19.03-5.16,44.75-13.83,54.07-4.42,4.76-12.3,8.03-20.54,10.26.19-1.75-.23-3.51-.74-4.89,7.16-2.64,14.76-6.43,18.6-11.47,10.04-13.2,10.06-30.64,10-39.31l.35.21s3.27-3.53,6.16-8.87Z"/>
        <path class="cls-18" d="M677.7,288.13c-.36-3.63-1.26-8.22-3.19-13.19-1.69-4.33-4.16-7.96-6.39-10.54,5.48-4.27,12.24-8.4,16.21-6.58,7.47,3.43,13.68,27.91,6.29,38.92-5.12,7.63-11.37,7.46-15.17,4.71-.86-.62-1.6-1.37-2.16-2.2.92-1.9,1.73-3.71,2.44-5.46.01-.01,0-.03,0-.04.8-2.03,1.47-3.92,1.97-5.61h0Z"/>
        <path class="cls-11" d="M688.15,91.21c1.48,1.4.73,4.61-1.68,7.18s-5.58,3.53-7.06,2.13c-.07-.06-.13-.13-.19-.2,1.49-1.74,2.86-3.7,4.08-5.84.33-.6.66-1.22.97-1.85s.6-1.26.87-1.89c1.21-.33,2.3-.2,3.01.47Z"/>
        <path class="cls-10" d="M679.82,60.87c8.52,4.23,10.73,17.32,5.32,29.87-.27.63-.56,1.26-.87,1.89s-.64,1.25-.97,1.85c-.48-.48-1.03-1.08-1.58-1.77-1.9-2.37-3.8-5.78-2.79-9.18,0,0-9.41.25-17.53-8.22,0,0-3.76,3.6-8.32,4.41-.87.16-1.77.22-2.67.12.42-1.1.9-2.19,1.44-3.28.27-.55.55-1.09.85-1.61,6.68-12.06,18.54-18.33,27.12-14.08Z"/>
        <path class="cls-13" d="M678.42,101.23c1.92,2.37,5.56,6.98,9.43,12.41-5.2,3.03-11.25,4.76-17.7,4.76-6,0-11.65-1.5-16.6-4.15-9.44-5.03-16.33-14.25-18.18-25.19,6.07-.77,11.24-1.25,12.98-1.41-1.33,9.25,1.51,17.49,7.94,20.68,6.72,3.32,15.45.2,22.13-7.1Z"/>
        <path class="cls-11" d="M681.72,92.71c.55.69,1.1,1.29,1.58,1.77-1.22,2.14-2.59,4.1-4.08,5.84-.26.31-.53.61-.8.91-6.68,7.3-15.41,10.42-22.13,7.1-6.43-3.19-9.27-11.43-7.94-20.68.1-.69.22-1.38.36-2.07.39-1.9.96-3.82,1.7-5.74.9.1,1.8.04,2.67-.12,4.56-.81,8.32-4.41,8.32-4.41,8.12,8.47,17.53,8.22,17.53,8.22-1.01,3.4.89,6.81,2.79,9.18ZM671.19,94.96c.74-1.32.87-2.65.29-2.97-.57-.32-1.64.49-2.38,1.8-.73,1.32-.86,2.65-.29,2.98.58.32,1.65-.49,2.38-1.81ZM659.96,89.7c.5-1.43.39-2.76-.23-2.98-.63-.21-1.53.77-2.03,2.19-.5,1.43-.4,2.76.23,2.98.62.22,1.53-.76,2.03-2.19Z"/>
        <path class="cls-13" d="M677.7,288.13h0c-.5,1.7-1.17,3.59-1.97,5.62-.12-2.82-.54-5.82-1.46-8.66-2.92-9.04-7.43-14.39-10.59-16.98,1.29-1.15,2.81-2.43,4.44-3.71,2.23,2.58,4.7,6.21,6.39,10.54,1.93,4.97,2.83,9.56,3.19,13.19Z"/>
        <path class="cls-17" d="M629.77,326.25c-.15-.09-.31-.18-.47-.27-24.34-14.25-27.24-83.65-27.24-83.65l-49.33,29.47-3.27,47.53c-5.93,5.98-19.55,13.31-30.35,9.09-.69-4.32-1.52-9.93-2.29-16.32l8.41-2.83c-.1-1.49-.18-2.95-.26-4.38-.08-1.5-.16-2.96-.22-4.39-.07-1.5-.12-2.97-.17-4.4-1.7-50.72,8.61-62.47,33.8-78.09,3.8-2.36,6.28-3.96,7.94-5.06l48.52,28.32,3.81-6.54c.56.06,1.25.05,2.11-.04,1.02-.11,1.99-.32,2.9-.61-.55.73-.96,1.41-.96,2.18.01.64.7,3.13,7.79-1.56,6.84-4.54,14.83-8.09,15.25-8.64l.25-.16s.03.05.05.08c3.6-.39,8.18-.99,13.04-1.9,1.02-.2,2.05-.4,3.09-.62.8-.17,1.61-.35,2.41-.54l-2.06,44.32-.09,1.99c.39-.35.8-.73,1.25-1.12,3.16,2.59,7.67,7.94,10.59,16.98.92,2.84,1.34,5.84,1.46,8.66,0,.01.01.03,0,.04-.71,1.75-1.52,3.56-2.44,5.46-8.18,16.95-24.56,37.61-43.52,27Z"/>
        <path class="cls-10" d="M671.48,91.99c.58.32.45,1.65-.29,2.97-.73,1.32-1.8,2.13-2.38,1.81-.57-.33-.44-1.66.29-2.98.74-1.31,1.81-2.12,2.38-1.8Z"/>
        <path class="cls-13" d="M669.67,186.3c-.26,3.34-.65,5.8-1.22,6.45l-.54.38h-.01c-4.87.97-21.08,3.45-39.06-1.79l-9.51-5.55c.56-1.61,1.13-3.22,1.72-4.82,21.45,9.66,42.81,6.48,48.62,5.33Z"/>
        <path class="cls-16" d="M667.63,217.08c.51,1.38.93,3.14.74,4.89-1.03.28-2.06.54-3.1.79.24-1.64-.07-3.3-.51-4.67.94-.32,1.9-.66,2.87-1.01Z"/>
        <path class="cls-17" d="M667.9,193.13l-24.95,17.41h-.01s-.86.61-.86.61c-2.06-.6-4.8-1.76-5.05-1.86-.81-.32-1.78-.77-2.82-1.22l5.92-10.14-11.29-6.59c17.98,5.24,34.19,2.76,39.06,1.79Z"/>
        <path class="cls-16" d="M664.76,218.09c.44,1.37.75,3.03.51,4.67-.23.05-.46.11-.69.16-.8.19-1.61.37-2.41.54.28-1.54.05-3.1-.34-4.44.95-.29,1.93-.6,2.93-.93Z"/>
        <path class="cls-16" d="M661.83,219.02c.39,1.34.62,2.9.34,4.44-1.04.22-2.07.42-3.09.62.29-1.44.13-2.91-.2-4.21.93-.26,1.92-.54,2.95-.85Z"/>
        <path class="cls-10" d="M659.73,86.72c.62.22.73,1.55.23,2.98s-1.41,2.41-2.03,2.19c-.63-.22-.73-1.55-.23-2.98.5-1.42,1.4-2.4,2.03-2.19Z"/>
        <path class="cls-11" d="M652.7,74.95c-.3.52-.58,1.06-.85,1.61-.54,1.09-1.02,2.18-1.44,3.28-.74,1.92-1.31,3.84-1.7,5.74-.2.01-.4,0-.6-.04-2-.41-3.04-3.55-2.32-7,.71-3.45,2.91-5.92,4.91-5.5.87.18,1.56.88,2,1.91Z"/>
        <path class="cls-18" d="M623.66,234.08c-.91.29-1.88.5-2.9.61-.86.09-1.55.1-2.11.04-1.89-.2-2.23-1.11-2.16-1.79-1.62.16-2.9-.16-2.42-1.59.79-2.33,4.22-1.77,10.77-7.22.03-.01.05-.03.08-.07h.01s.01,0,.01-.01c1.86-.88,3.83-2.1,5.79-3.71l2.72.7c.18,1.18,2.44,7.07,2.9,7.65,1.08-.77,2.2-1.49,3.3-2.15h.01c1.95-1.18,3.82-2.15,5.15-2.73.37.75.77,1.45,1.18,2.09l-.25.16c-.42.55-8.41,4.1-15.25,8.64-7.09,4.69-7.78,2.2-7.79,1.56,0-.77.41-1.45.96-2.18Z"/>
        <path class="cls-13" d="M642.54,215.67c.2,3,1.1,5.8,2.27,8.14-1.33.58-3.2,1.55-5.15,2.73h-.01c-1.1.66-2.22,1.38-3.3,2.15-.46-.58-2.72-6.47-2.9-7.65,2.26-1.68,2.5-1.72,5.45-3.35,1.6-.89,2.77-1.54,3.64-2.02Z"/>
        <path class="cls-18" d="M642.78,211.34c-.27,1.47-.33,2.92-.24,4.33-.87.48-2.04,1.13-3.64,2.02-2.95,1.63-3.19,1.67-5.45,3.35l-2.72-.7c-1.96,1.61-3.93,2.83-5.79,3.71h-.01s-.01.01-.01.01c-.02.01-.04.01-.05.02-5.93,2.79-10.74,2.24-10.75.72-.01-2.5,5.39-3.48,8.26-4.27,2.55-.7,4.46-1.49,5.87-2.24,2.8-1.5,3.66-2.87,3.81-3.1.37-.59-.12-1.27-.91-1.86h0c-.54-.4-1.22-.75-1.88-1-5.47-2.03-5.75-4.52-4.58-5.42,2.34-1.81,6.3-.27,9.52,1.16,1.04.45,2.01.9,2.82,1.22.25.1,2.99,1.26,5.05,1.86.25.07.48.14.7.19Z"/>
        <path class="cls-17" d="M605.3,119.63c-4.16-5.09-6.09-12.81-6.96-17.97,5.38-3.55,9.85-6.21,12.25-7.35,4.89-2.33,15.82-4.11,24.78-5.25,1.85,10.94,8.74,20.16,18.18,25.19-4.46,7.38-21.24,36.02-32.5,66.71-9.03-4.06-18.07-10.39-25.97-20.11l4.11-22.65c-7.82,3.86-17.26,8.56-17.57,8.83-.39.35-6.87,21.27-10.23,32.19h-.01c-.95-.04-2.05-.04-3.36,0l-.39.03-8.85.62-1.48.1c-.11.08-.3.41-.53.94-.35-2.73-.74-6.09-1.05-9.76,1.6-.86,3.44-1.14,4.92-1.2-.11-1.03-.2-2.04-.27-3.02-.09-1.03-.15-2.02-.19-2.99-.06-1.02-.09-2.01-.1-2.97-.28-15.47,3.44-22.91,4.55-25.13,3.08-6.15,15.26-17.13,22.6-22.01-.1.17-.14.27-.13.29.15.24,17.65,5.36,18.2,5.51Z"/>
        <path class="cls-15" d="M640.13,197.93l-5.92,10.14c-3.22-1.43-7.18-2.97-9.52-1.16-1.17.9-.89,3.39,4.58,5.42.66.25,1.34.6,1.88.99h0s-2.9,4.97-2.9,4.97c-1.41.75-3.32,1.54-5.87,2.24-2.87.79-8.27,1.77-8.26,4.27.01,1.52,4.82,2.07,10.75-.72l-.03.05c-6.55,5.45-9.98,4.89-10.77,7.22-.48,1.43.8,1.75,2.42,1.59-.07.68.27,1.59,2.16,1.79l-3.81,6.54-48.52-28.32-5.32-3.1.95-1.64c.75.07,1.37-.03,1.79-.21,3.3,3.39,4.96,1.73,5.4.71,2.39,1.66,4.16.5,4-1.46.51.05,1.01-.18,1.46-.77,2.12-2.76-3.54-9.23-3.16-14.52l2.48-4.25c2.25-.95,4.74,2.17,6.44,2.53,7.12,1.53,1.67-6.02-2.51-9.27h0s8.44-14.46,8.44-14.46l7.02,4.1,5.54,3.23,20.48,11.95,9.51,5.55,11.29,6.59Z"/>
        <path class="cls-13" d="M621.05,180.96h0c-.59,1.61-1.16,3.22-1.72,4.83l-20.48-11.95c-1.75-1.71-3.45-3.57-5.11-5.56l1.34-7.43c7.9,9.72,16.94,16.05,25.97,20.11Z"/>
        <path class="cls-13" d="M598.34,101.66c.87,5.16,2.8,12.88,6.96,17.97-.55-.15-18.05-5.27-18.2-5.51-.01-.02.03-.12.13-.29.54-.99,2.71-4.4,4.94-7.96,2.14-1.5,4.22-2.91,6.17-4.21Z"/>
        <path class="cls-17" d="M592.17,105.87c-2.23,3.56-4.4,6.97-4.94,7.96-7.34,4.88-19.52,15.86-22.6,22.01-1.11,2.22-4.83,9.66-4.55,25.13-1.14-.07-3.06-.08-4.94.48-.27-8.6.2-17.37,2.5-22.97,3.73-9.1,20.51-22.77,34.53-32.61Z"/>
        <path class="cls-18" d="M573.14,207.25c.16,1.96-1.61,3.12-4,1.46-.44,1.02-2.1,2.68-5.4-.71-.42.18-1.04.28-1.79.21-2.29-.19-5.67-2.05-7.17-8.66-.19-.82-.35-1.72-.47-2.7-.77-6.07,1.35-13.36,2.46-15.94.23-.53.42-.86.53-.94l1.48-.1c-.63,1.74-1.13,3.75-1.41,5.35-.29,1.65-.35,2.85-.07,2.86.75.03,8.12-.24,8.12-.24.13-2.21,1.35-6.1,2.21-8.59l.39-.03c1.31-.04,2.41-.04,3.36,0h.01c3.64.12,4.85.66,5.25.9.38.23.79.51,1.21.84h0c4.18,3.26,9.63,10.81,2.51,9.28-1.7-.36-4.19-3.48-6.44-2.53-.61.25-1.2.79-1.75,1.77-.44.78-.67,1.62-.73,2.48-.38,5.29,5.28,11.76,3.16,14.52-.45.59-.95.82-1.46.77Z"/>
        <path class="cls-13" d="M558.78,179.87l8.85-.62c-.86,2.49-2.08,6.38-2.21,8.59,0,0-7.37.27-8.12.24-.28,0-.22-1.21.07-2.86.28-1.6.78-3.61,1.41-5.35Z"/>
        <path class="cls-17" d="M561,209.85l5.32,3.1c-1.66,1.1-4.14,2.7-7.94,5.06-25.19,15.62-35.5,27.37-33.8,78.09l-9.1,3.07c-1.7-19.89-2-43.27,3.27-59.11,4.93-14.82,20.5-29.21,36.03-40.51,1.5,6.61,4.88,8.47,7.17,8.66l-.95,1.64Z"/>
        <path class="cls-16" d="M560.37,166.93c.07.98.16,1.99.27,3.02-1.48.06-3.32.34-4.92,1.2-.09-1.06-.18-2.15-.25-3.26,1.66-.75,3.5-.94,4.9-.96Z"/>
        <path class="cls-16" d="M560.18,163.94c.04.97.1,1.96.19,2.99-1.4.02-3.24.21-4.9.96-.08-1.07-.14-2.15-.2-3.24,1.75-.64,3.61-.74,4.91-.71Z"/>
        <path class="cls-16" d="M560.18,163.94c-1.3-.03-3.16.07-4.91.71-.05-1.06-.1-2.13-.13-3.2,1.88-.56,3.8-.55,4.94-.48.01.96.04,1.95.1,2.97Z"/>
        <path class="cls-13" d="M549.46,319.33l-.44,6.42h0c-3.57,4.27-10.59,10.34-19.78,12.12-2.39.46-5.56.4-8.55-.36-.1-.55-.74-3.88-1.58-9.09,10.8,4.22,24.42-3.11,30.35-9.09Z"/>
        <path class="cls-18" d="M549.02,325.76l-.86,12.48c-15.17,37.74-31.72,34.5-31.72,34.5-17.66-7.32,4.27-35.15,4.27-35.15,0,0-.01-.03-.02-.08,2.99.76,6.16.82,8.55.36,9.19-1.78,16.21-7.85,19.78-12.11Z"/>
        <path class="cls-16" d="M525.23,309.27l-8.41,2.83c-.17-1.4-.33-2.83-.5-4.29l8.65-2.92c.08,1.43.16,2.89.26,4.38Z"/>
        <path class="cls-16" d="M524.97,304.89l-8.65,2.92c-.15-1.41-.3-2.85-.44-4.32l8.87-2.99c.06,1.43.14,2.89.22,4.39Z"/>
        <path class="cls-16" d="M524.75,300.5l-8.87,2.99c-.14-1.42-.27-2.86-.4-4.32l9.1-3.07c.05,1.43.1,2.9.17,4.4Z"/>
      </g>
      <g>
        <path class="cls-29" d="M679.22,100.32c1.49-1.74,2.86-3.7,4.08-5.84.33-.6.66-1.22.97-1.85s.6-1.26.87-1.89c5.41-12.55,3.2-25.64-5.32-29.87-8.58-4.25-20.44,2.02-27.12,14.08-.3.52-.58,1.06-.85,1.61-.54,1.09-1.02,2.18-1.44,3.28"/>
        <path class="cls-29" d="M683.3,94.48c-.48-.48-1.03-1.08-1.58-1.77"/>
        <path class="cls-29" d="M648.71,85.58c-.2.01-.4,0-.6-.04-2-.41-3.04-3.55-2.32-7,.71-3.45,2.91-5.92,4.91-5.5.87.18,1.56.88,2,1.91"/>
        <path class="cls-29" d="M685.14,90.74c1.21-.33,2.3-.2,3.01.47,1.48,1.4.73,4.61-1.68,7.18s-5.58,3.53-7.06,2.13c-.07-.06-.13-.13-.19-.2"/>
        <path class="cls-29" d="M664.27,103.56s-4.77.88-8.51-4.05"/>
        <path class="cls-29" d="M687.85,113.64c10.51-6.1,17.58-17.48,17.58-30.52,0-19.48-15.8-35.27-35.28-35.27s-35.28,15.79-35.28,35.27c0,2.03.17,4.01.5,5.94,1.85,10.94,8.74,20.16,18.18,25.19,4.95,2.65,10.6,4.15,16.6,4.15,6.45,0,12.5-1.73,17.7-4.76Z"/>
        <path class="cls-29" d="M671.19,94.96c.74-1.32.87-2.65.29-2.97-.57-.32-1.64.49-2.38,1.8-.73,1.32-.86,2.65-.29,2.98.58.32,1.65-.49,2.38-1.81Z"/>
        <path class="cls-29" d="M659.96,89.7c.5-1.43.39-2.76-.23-2.98-.63-.21-1.53.77-2.03,2.19-.5,1.43-.4,2.76.23,2.98.62.22,1.53-.76,2.03-2.19Z"/>
        <path class="cls-29" d="M648.71,85.58c.39-1.9.96-3.82,1.7-5.74.9.1,1.8.04,2.67-.12"/>
        <path class="cls-29" d="M653.08,79.72c4.56-.81,8.32-4.41,8.32-4.41,8.12,8.47,17.53,8.22,17.53,8.22-1.01,3.4.89,6.81,2.79,9.18"/>
        <path class="cls-29" d="M648.71,85.58c-.14.69-.26,1.38-.36,2.07-1.33,9.25,1.51,17.49,7.94,20.68,6.72,3.32,15.45.2,22.13-7.1.27-.3.54-.6.8-.91"/>
        <path class="cls-29" d="M678.42,101.23c1.92,2.37,5.56,6.98,9.43,12.41,5.94,8.35,12.42,18.63,13.99,25.7.62,2.79.96,6.88,1,11.73.03,2.07-.01,4.27-.1,6.57-.73,19.03-5.16,44.75-13.83,54.07-4.42,4.76-12.3,8.03-20.54,10.26-1.03.28-2.06.54-3.1.79-.23.05-.46.11-.69.16-.8.19-1.61.37-2.41.54-1.04.22-2.07.42-3.09.62-4.86.91-9.44,1.51-13.04,1.9"/>
        <path class="cls-29" d="M667.91,193.13l.54-.38c.57-.65.96-3.11,1.22-6.45.81-10.12.48-28.27.48-28.27"/>
        <line class="cls-29" x1="642.95" y1="210.54" x2="667.9" y2="193.13"/>
        <line class="cls-29" x1="642.08" y1="211.15" x2="642.94" y2="210.55"/>
        <path class="cls-29" d="M624.94,224.05c1.86-.88,3.83-2.1,5.79-3.71"/>
        <path class="cls-29" d="M631.15,213.33c.79.59,1.28,1.27.91,1.86-.15.23-1.01,1.6-3.81,3.1-1.41.75-3.32,1.54-5.87,2.24-2.87.79-8.27,1.77-8.26,4.27.01,1.52,4.82,2.07,10.75-.72.01,0,.03,0,.05-.02"/>
        <path class="cls-29" d="M642.78,211.34c-.22-.05-.45-.12-.7-.19-2.06-.6-4.8-1.76-5.05-1.86-.81-.32-1.78-.77-2.82-1.22-3.22-1.43-7.18-2.97-9.52-1.16-1.17.9-.89,3.39,4.58,5.42.66.25,1.34.6,1.88.99"/>
        <path class="cls-29" d="M624.93,224.06h-.01s-.05.06-.08.07c-6.55,5.45-9.98,4.89-10.77,7.22-.48,1.43.8,1.75,2.42,1.59,1.29-.13,2.79-.57,3.81-1.03.02,0,.03,0,.05-.02,3.28-1.48,5.51-2.65,10.07-7.23"/>
        <path class="cls-29" d="M624.93,224.06s.01,0,.01-.01h-.01"/>
        <path class="cls-29" d="M632.81,228.21c-.55.24-3.95,4.24-9.15,5.87-.91.29-1.88.5-2.9.61-.86.09-1.55.1-2.11.04-1.89-.2-2.23-1.11-2.16-1.79"/>
        <path class="cls-29" d="M623.66,234.08c-.55.73-.96,1.41-.96,2.18.01.64.7,3.13,7.79-1.56,6.84-4.54,14.83-8.09,15.25-8.64"/>
        <path class="cls-29" d="M646.04,225.98s-.03-.05-.05-.08c-.41-.64-.81-1.34-1.18-2.09-1.17-2.34-2.07-5.14-2.27-8.14-.09-1.41-.03-2.86.24-4.33.05-.27.1-.52.16-.79h0s.01-.01.01-.01"/>
        <path class="cls-29" d="M642.54,215.67c-.87.48-2.04,1.13-3.64,2.02-2.95,1.63-3.19,1.67-5.45,3.35.18,1.18,2.44,7.07,2.9,7.65,1.08-.77,2.2-1.49,3.3-2.15h.01c1.95-1.18,3.82-2.15,5.15-2.73"/>
        <line class="cls-29" x1="637.9" y1="220.71" x2="639.43" y2="224.36"/>
        <line class="cls-29" x1="639.43" y1="219.59" x2="640.96" y2="223.23"/>
        <path class="cls-29" d="M556.77,180.91c-.35-2.73-.74-6.09-1.05-9.76-.09-1.06-.18-2.15-.25-3.26-.08-1.07-.14-2.15-.2-3.24-.05-1.06-.1-2.13-.13-3.2-.27-8.6.2-17.37,2.5-22.97,3.73-9.1,20.51-22.77,34.53-32.61,2.14-1.5,4.22-2.91,6.17-4.21,5.38-3.55,9.85-6.21,12.25-7.35,4.89-2.33,15.82-4.11,24.78-5.25,6.07-.77,11.24-1.25,12.98-1.41"/>
        <path class="cls-29" d="M599.19,138.19c5.58-2.76,10.34-5.1,10.34-5.1"/>
        <path class="cls-29" d="M571.39,179.22c3.36-10.92,9.84-31.84,10.23-32.19.31-.27,9.75-4.97,17.57-8.83"/>
        <path class="cls-29" d="M577.85,180.96c-.42-.33-.83-.61-1.21-.84-.4-.24-1.61-.78-5.25-.9h-.01c-.95-.04-2.05-.04-3.36,0l-.39.03-8.85.62-1.48.1"/>
        <path class="cls-29" d="M566.16,193.59c.09,1.28.57,3.21,1.28,5.22,1.4,3.98,3.71,8.28,5.7,8.44.51.05,1.01-.18,1.46-.77,2.12-2.76-3.54-9.23-3.16-14.52.06-.86.29-1.7.73-2.48.55-.98,1.14-1.52,1.75-1.77,2.25-.95,4.74,2.17,6.44,2.53,7.12,1.53,1.67-6.02-2.51-9.27"/>
        <path class="cls-29" d="M564.75,203.42c.72,1.29,1.7,2.7,3.1,4.17.45.47.88.84,1.29,1.12,2.39,1.66,4.16.5,4-1.46"/>
        <path class="cls-29" d="M561.57,194.1c.04.29.07.85,1.1,3.96.41,1.24.84,3.12,2.08,5.35"/>
        <path class="cls-29" d="M557.94,194.61c.96,6.41,2.46,9.17,3.88,11.1.69.94,1.32,1.69,1.92,2.29,3.3,3.39,4.96,1.73,5.4.71"/>
        <path class="cls-29" d="M563.74,208c-.42.18-1.04.28-1.79.21-2.29-.19-5.67-2.05-7.17-8.66-.19-.82-.35-1.72-.47-2.7-.77-6.07,1.35-13.36,2.46-15.94.23-.53.42-.86.53-.94"/>
        <path class="cls-29" d="M558.78,179.87c-.63,1.74-1.13,3.75-1.41,5.35-.29,1.65-.35,2.85-.07,2.86.75.03,8.12-.24,8.12-.24.13-2.21,1.35-6.1,2.21-8.59"/>
        <line class="cls-29" x1="562.79" y1="184.34" x2="559.2" y2="184.48"/>
        <line class="cls-29" x1="563.37" y1="182.45" x2="559.78" y2="182.59"/>
        <polyline class="cls-29" points="599.19 138.19 599.19 138.2 595.08 160.85 593.74 168.28 593.31 170.61"/>
        <path class="cls-29" d="M677.7,288.13c.12-.42.24-.81.34-1.2"/>
        <path class="cls-29" d="M675.73,293.75c.8-2.03,1.47-3.92,1.97-5.61"/>
        <path class="cls-29" d="M549.02,325.75l.44-6.42,3.27-47.53,49.33-29.47s2.9,69.4,27.24,83.65c.16.09.32.18.47.27,18.96,10.61,35.34-10.05,43.52-27,.92-1.9,1.73-3.71,2.44-5.46"/>
        <path class="cls-29" d="M554.78,199.55c-15.53,11.3-31.1,25.69-36.03,40.51-5.27,15.84-4.97,39.22-3.27,59.11.13,1.46.26,2.9.4,4.32.14,1.47.29,2.91.44,4.32.17,1.46.33,2.89.5,4.29.77,6.39,1.6,12,2.29,16.32.84,5.21,1.48,8.54,1.58,9.09,0,.05.02.08.02.08,0,0-21.93,27.83-4.27,35.15,0,0,16.55,3.24,31.72-34.5l.86-12.48"/>
        <polyline class="cls-29" points="664.58 222.92 662.52 267.24 662.43 269.23 661.15 296.74"/>
        <path class="cls-29" d="M673.29,299.25c.56.83,1.3,1.58,2.16,2.2,3.8,2.75,10.05,2.92,15.17-4.71,7.39-11.01,1.18-35.49-6.29-38.92-3.97-1.82-10.73,2.31-16.21,6.58-1.63,1.28-3.15,2.56-4.44,3.71-.45.39-.86.77-1.25,1.12"/>
        <line class="cls-29" x1="573.92" y1="187.71" x2="571.44" y2="191.96"/>
        <line class="cls-29" x1="564.75" y1="203.42" x2="564.75" y2="203.41"/>
        <polyline class="cls-29" points="631.15 213.32 631.15 213.33 628.25 218.29"/>
        <polyline class="cls-29" points="634.21 208.07 640.13 197.93 628.84 191.34 619.33 185.79 598.85 173.84 593.31 170.61 586.29 166.51 577.85 180.96 577.85 180.97"/>
        <line class="cls-29" x1="624.87" y1="224.08" x2="624.84" y2="224.13"/>
        <polyline class="cls-29" points="618.65 234.73 614.84 241.27 566.32 212.95 561 209.85 561.95 208.21"/>
        <path class="cls-29" d="M702.84,151.07c-5.13,2.33-15.22,6.36-22.33,5.71l15.72,9.52.35.21s3.27-3.53,6.16-8.87"/>
        <path class="cls-29" d="M605.3,119.63c-.55-.15-18.05-5.27-18.2-5.51-.01-.02.03-.12.13-.29.54-.99,2.71-4.4,4.94-7.96"/>
        <path class="cls-29" d="M605.31,119.64h-.01c-4.16-5.1-6.09-12.82-6.96-17.98"/>
        <path class="cls-29" d="M651.2,221.67c.41-.06,3.47-.65,7.68-1.8.93-.26,1.92-.54,2.95-.85.95-.29,1.93-.6,2.93-.93.94-.32,1.9-.66,2.87-1.01,7.16-2.64,14.76-6.43,18.6-11.47,10.04-13.2,10.06-30.64,10-39.31"/>
        <path class="cls-29" d="M561.25,174.95c-.25-1.73-.45-3.4-.61-5-.11-1.03-.2-2.04-.27-3.02-.09-1.03-.15-2.02-.19-2.99-.06-1.02-.09-2.01-.1-2.97-.28-15.47,3.44-22.91,4.55-25.13,3.08-6.15,15.26-17.13,22.6-22.01"/>
        <path class="cls-29" d="M658.88,219.87c.33,1.3.49,2.77.2,4.21"/>
        <path class="cls-29" d="M560.64,169.95c-1.48.06-3.32.34-4.92,1.2"/>
        <path class="cls-29" d="M661.83,219.02c.39,1.34.62,2.9.34,4.44"/>
        <path class="cls-29" d="M560.37,166.93c-1.4.02-3.24.21-4.9.96"/>
        <path class="cls-29" d="M664.76,218.09c.44,1.37.75,3.03.51,4.67"/>
        <path class="cls-29" d="M555.27,164.65c1.75-.64,3.61-.74,4.91-.71"/>
        <path class="cls-29" d="M667.63,217.08c.51,1.38.93,3.14.74,4.89"/>
        <path class="cls-29" d="M555.14,161.45c1.88-.56,3.8-.55,4.94-.48"/>
        <path class="cls-29" d="M621.05,180.96c11.26-30.69,28.04-59.33,32.5-66.71"/>
        <path class="cls-29" d="M619.33,185.79c.56-1.61,1.13-3.22,1.72-4.82"/>
        <path class="cls-29" d="M629.77,326.25c-14.21-24.45-6.74-72.27-6.74-72.27"/>
        <path class="cls-29" d="M663.68,268.11c3.16,2.59,7.67,7.94,10.59,16.98.92,2.84,1.34,5.84,1.46,8.66,0,.01.01.03,0,.04"/>
        <path class="cls-29" d="M677.7,288.14h0c-.36-3.64-1.26-8.23-3.19-13.2-1.69-4.33-4.16-7.96-6.39-10.54"/>
        <path class="cls-29" d="M549.02,325.75h0c-3.57,4.27-10.59,10.34-19.78,12.12-2.39.46-5.56.4-8.55-.36"/>
        <path class="cls-29" d="M519.11,328.42c10.8,4.22,24.42-3.11,30.35-9.09"/>
        <path class="cls-29" d="M566.32,212.95c-1.66,1.1-4.14,2.7-7.94,5.06-25.19,15.62-35.5,27.37-33.8,78.09.05,1.43.1,2.9.17,4.4.06,1.43.14,2.89.22,4.39.08,1.43.16,2.89.26,4.38.29,4.69.67,9.67,1.12,14.96"/>
        <line class="cls-29" x1="525.23" y1="309.27" x2="516.82" y2="312.1"/>
        <line class="cls-29" x1="524.97" y1="304.89" x2="516.32" y2="307.81"/>
        <line class="cls-29" x1="524.75" y1="300.5" x2="515.88" y2="303.49"/>
        <line class="cls-29" x1="524.58" y1="296.1" x2="515.48" y2="299.17"/>
        <path class="cls-29" d="M669.67,186.3c-5.81,1.15-27.17,4.33-48.62-5.33h0c-9.03-4.07-18.07-10.4-25.97-20.12"/>
        <path class="cls-29" d="M667.91,193.13h-.01c-4.87.97-21.08,3.45-39.06-1.79"/>
        <path class="cls-29" d="M598.85,173.84c-1.75-1.71-3.45-3.57-5.11-5.56"/>
      </g>
    </g>
  </g>
  <g id="Top_layer" data-name="Top layer">
    <circle class="cls-21" cx="591.95" cy="385.22" r="110.33"/>
    <circle class="cls-22" cx="582.44" cy="376.56" r="110.33"/>
  </g>
  <g id="Left_female" data-name="Left female">
    <g>
      <g>
        <path class="cls-12" d="M492.66,392.29c1.14.8,2.87,3.28-1.78,5.75,3.57,3.16-3.09,7.29-7.18,8.12-5.04,1.02-8.45,1.58-11.14,2.06-.21-3.35-.93-7.57-3.05-10.85-.99.3-2.56.79-5.09,1.61-2.31.75-4.29,1.52-6.36,2.34.65.95,1.41,2.29,1.97,3.75.95,2.5,1.24,4.21,1.12,6.31-1.09.46-2.3,1-3.68,1.63-.1.04-.21.09-.31.13-.09-1.86-.51-4.21-1.73-7.72l-.12-.34c-.68-1.89-1.78-3.55-2.91-4.87.03-.04.07-.07.1-.12,6.61-8.14,7.27-18.35,13.03-21.06,1.41-.67,7.39-1.17,3.52,6.02-.77,1.43-1.32,2.65-1.72,3.65,4.87.21,12.17-1.06,14.62-1.81,9.64-2.93,10.02-1.67,10.22-.87.15.62-.02,1.24-.5,1.86,1.53.17,3.52.77,2.45,2.92-.21.42-.7.94-1.45,1.5Z"/>
        <path class="cls-13" d="M469.5,397.36c2.12,3.28,2.84,7.5,3.05,10.85-4.42.76-6.9,1.28-11.41,3.16.12-2.1-.17-3.81-1.12-6.31-.56-1.46-1.32-2.8-1.97-3.75,2.07-.82,4.04-1.59,6.36-2.34,2.53-.82,4.1-1.31,5.09-1.61Z"/>
        <path class="cls-17" d="M455.42,405.41c1.23,3.52,1.64,5.86,1.73,7.72-3.52,1.48-8.7,3.91-14.6,6.3.58-4.82.1-9.57-.49-13,5.94-.36,10.92-.8,13.36-1.03Z"/>
        <path class="cls-17" d="M410.92,396.97h0c2.43.28,7.68.86,21.94,1.79,11.03.73,16.59,1.1,19.42,1.29.04.04.08.09.11.13,1.13,1.32,2.24,2.98,2.91,4.87l.12.34c-2.44.23-7.42.66-13.36,1.03-1.37.08-2.79.16-4.24.24-1.39.07-2.82.13-4.25.19-1.41.05-2.84.11-4.25.14-11.09.28-21.83-.13-24.25-2.48-3.93-3.83-10.13-18.38-13.19-25.93l.87.07,2.89-11.82c6.52,10.83,11.19,21.69,15.28,30.14Z"/>
        <path class="cls-16" d="M442.06,406.43c.59,3.43,1.07,8.18.49,13-1.39.58-2.81,1.14-4.27,1.69.79-5.39.21-10.77-.46-14.45,1.45-.08,2.87-.15,4.24-.24Z"/>
        <path class="cls-16" d="M437.82,406.67c.67,3.68,1.25,9.06.46,14.45-1.4.53-2.82,1.04-4.27,1.53,1.02-5.93.3-11.95-.45-15.79,1.43-.06,2.86-.12,4.25-.19Z"/>
        <path class="cls-16" d="M433.57,406.86c.75,3.84,1.47,9.87.45,15.79-1.41.48-2.83.94-4.26,1.36,1.24-6.43.34-13.09-.45-17.01,1.42-.03,2.84-.09,4.25-.14Z"/>
        <path class="cls-9" d="M371.47,263.22c24.07-4.35,47.11,11.63,51.47,35.7s-11.63,47.1-35.7,51.46c-.6.11-1.2.21-1.8.28.09-.69.17-1.12.44-2.39,1.18-5.41,1.36-11.14,5.6-11.71,5.85-.78,10.84,1.85,12.32-10.76.09-.7.16-1.43.22-2.22.29-3.8,2.52-4.35,4.02-6.91-4.15-2.74-5.81-5.25-6.63-8.04,7.16-3.31,17.72-19.15-1.08-25.33-2.97-.98-29.38-4.09-35.34.38-.92.69-1.56,1.2-2.04,1.64-1.14-1.55-3.22-2.98-6.96-3-8.38-.06-13.51,4.72-15.54,10.56l-2.84-.92c5.15-14.45,17.67-25.81,33.84-28.73Z"/>
        <path class="cls-17" d="M387.97,414.8l-4.1,12.45c-.79-.17-1.59-.35-2.37-.52h0c-5.82-6.22-19.33-18.44-39.5-23.7h0c-1.62-.44-3.29-.82-5.01-1.13h0c-1.67-.33-3.39-.59-5.16-.81-4.8-.57-9.91-.74-15.31-.34,2.2-5.34,4.89-10.55,7.81-15.53l13.31,4.84c3.32-8.63,19.61-27.61,25.55-34.37h0c3.21.67,6.45.78,9.52.06,5.95-1.38,10.94-1.7,13.96-1.72,1.23,1.38,2.66,3.21,4.33,5.61,1.07,1.54,2.09,3.1,3.07,4.66l-24.44,12.55,22.23,1.74h0c3.05,7.55,9.26,22.09,13.19,25.92,2.42,2.36,13.16,2.76,24.25,2.48.79,3.92,1.69,10.58.45,17.01-6.42,1.9-12.9,3.12-18.46,2.65-6.25-.52-14.99-4.21-23.32-11.86Z"/>
        <path class="cls-17" d="M436.02,446.17c7.45,8.56,6.41,34.08-.01,57.68l-12.36-5.49c3.61-14.38,6.38-30.61,2.59-36.64-6.27-9.97-56.37-23.89-78.62-27.7,5.65-4.83,11.75-8.27,15.99-10.36.26-.12.52-.25.77-.37,4.8.89,10.73,2.05,17.12,3.43h0c.78.17,1.58.35,2.37.53,20.85,4.61,45.65,11.44,52.15,18.92Z"/>
        <path class="cls-10" d="M391.38,304.27c-.39,2.1-1.47,5.87-5.12,8.45-2.69,1.91-4.05,1.85-5.5,2.98-1.41-1.45-7.01-3.17-8.68,2.89-.44,1.6-.06,4.67,1.23,6.82,1.37,2.27,3.03,3.39,4.47,3.99-1.76,1.79-5.86,5.29-11.13,4.82-2.14-.2-4.48-1.06-6.93-2.96-5.6-4.34-6.78-12.91-6.39-16.79-2.17.14-5.4-.51-9.27-4.12-4.45-4.12-5.7-11.38-3.59-17.47,2.03-5.84,7.15-10.61,15.54-10.56,3.73.02,5.81,1.45,6.96,3,.48-.44,1.12-.95,2.04-1.64,5.96-4.46,32.37-1.35,35.34-.38,18.8,6.18,8.23,22.03,1.08,25.33-1.21-4.09-.58-8.78-3.33-15.75-.65-1.65-2-3.32-3.17-4.54-3.18,3.95-3.21,13.81-3.37,14.86-.04.27-.1.64-.18,1.07Z"/>
        <path class="cls-17" d="M403.81,325.8c-1.48,12.6-6.47,9.97-12.32,10.76-4.25.58-4.43,6.31-5.6,11.71-.27,1.27-.35,1.7-.44,2.39-.68.1-1.37.18-2.05.24-8.42.78-16.57-.87-23.73-4.44,2.75-3.51,5.13-6.75,6.99-12.25,5.27.47,9.37-3.03,11.13-4.82-1.44-.59-3.1-1.71-4.47-3.99-1.29-2.15-1.68-5.22-1.23-6.82,1.68-6.07,7.27-4.34,8.68-2.89,1.45-1.13,2.8-1.07,5.5-2.98,3.65-2.58,4.73-6.34,5.12-8.45.08-.43.14-.8.18-1.07.16-1.04.19-10.91,3.37-14.86,1.17,1.22,2.51,2.89,3.17,4.54,2.75,6.97,2.12,11.66,3.33,15.75.82,2.79,2.47,5.29,6.63,8.04-1.51,2.56-3.74,3.1-4.02,6.91-.06.79-.13,1.53-.22,2.22ZM396.98,311.66c-.35-1.92-1.35-3.33-2.25-3.17s-1.35,1.84-1.01,3.76,1.35,3.33,2.26,3.17,1.34-1.85,1-3.76Z"/>
        <path class="cls-12" d="M420.06,539.25s26.3,1.89,27.39,14.55l-50.75,6.13s-.59-7.93-1.05-19.25c5.52.76,15.93,1.55,24.51-1.55-.03.04-.06.08-.09.12Z"/>
        <path class="cls-16" d="M423.65,498.37l12.36,5.49c-.52,1.94-1.09,3.87-1.69,5.77l-12.21-5.42c.52-1.89,1.03-3.85,1.54-5.84Z"/>
        <path class="cls-17" d="M418.74,515.76l11.52,5.11c-1.04,2.51-2.14,4.92-3.31,7.2-5.82,1.87-23.13,6.91-31.61,3.81-.45-16.01-.41-35.66,1.54-49.82h0c-3.54-.21-8-.57-13.01-1.17-3.23-.39-6.69-.88-10.29-1.51-13.58-2.35-29.06-6.56-41.29-14.09-9.81-6.05-17.54-14.25-20.46-25.35-2.01-7.6-1.85-15.56-.24-23.51,2.83-.27,6.98-.55,11.97-.54,1.89,0,3.9.05,6.01.16,1.71.08,3.48.2,5.3.38,8.38.8,17.74,2.63,26.69,6.35t.01,0c.88.16,1.83.33,2.82.52-.24.13-.5.25-.77.37-4.24,2.09-10.34,5.53-15.99,10.36,22.24,3.81,72.35,17.72,78.62,27.7,3.79,6.03,1.02,22.25-2.59,36.64-.5,1.99-1.01,3.94-1.54,5.84-.55,2.03-1.1,3.97-1.64,5.81-.61,2.09-1.2,4.03-1.73,5.75Z"/>
        <path class="cls-16" d="M422.11,504.2l12.21,5.42c-.6,1.92-1.24,3.82-1.91,5.68l-11.94-5.3c.54-1.84,1.1-3.78,1.64-5.81Z"/>
        <path class="cls-10" d="M394.73,308.49c.9-.16,1.9,1.25,2.25,3.17s-.1,3.6-1,3.76-1.91-1.26-2.26-3.17.1-3.6,1.01-3.76Z"/>
        <path class="cls-16" d="M420.47,510.01l11.94,5.3c-.68,1.89-1.4,3.75-2.15,5.56l-11.52-5.11c.53-1.72,1.13-3.66,1.73-5.75Z"/>
        <path class="cls-16" d="M395.63,366.82h0s-2.89,11.83-2.89,11.83l-.87-.07h0s-22.23-1.74-22.23-1.74l24.44-12.55c.54.84,1.06,1.68,1.56,2.52Z"/>
        <path class="cls-13" d="M426.95,528.07c-2.09,4.14-4.37,7.88-6.8,11.06-8.58,3.1-18.98,2.31-24.51,1.55-.11-2.75-.21-5.7-.3-8.8,8.48,3.1,25.79-1.94,31.61-3.81Z"/>
        <path class="cls-13" d="M383.39,350.9c.87.67,1.95,1.65,3.28,3.14-3.01.03-8.01.34-13.96,1.72-3.07.72-6.31.6-9.52-.07h0c-1.24-.24-2.48-.59-3.71-.99-3.2-1.06-6.27-2.58-8.97-4.27,2.45-2.66,4.42-4.67,5.66-5.91,1.13.71,2.31,1.35,3.5,1.95,7.16,3.56,15.31,5.22,23.73,4.44Z"/>
        <path class="cls-9" d="M359.73,331.25c2.45,1.9,4.79,2.76,6.93,2.96-1.86,5.5-4.24,8.74-6.99,12.25-1.2-.6-2.37-1.24-3.5-1.95-10.35-6.36-18.04-16.93-20.38-29.83-1.43-7.9-.66-15.68,1.85-22.73l2.84.92c-2.11,6.09-.86,13.35,3.59,17.47,3.87,3.61,7.1,4.25,9.27,4.12-.39,3.88.79,12.45,6.39,16.79Z"/>
        <path class="cls-13" d="M381.5,426.73c-6.4-1.37-12.33-2.54-17.12-3.43-.99-.19-1.94-.36-2.82-.52t-.01,0c-8.94-3.72-18.31-5.55-26.69-6.35,1.91-5.02,5.03-10.18,7.13-13.38h0c20.17,5.25,33.68,17.47,39.5,23.68Z"/>
        <path class="cls-16" d="M359.48,354.7c1.22.41,2.46.75,3.71,1-5.94,6.76-22.23,25.74-25.55,34.37l-13.31-4.84c1.46-2.49,2.98-4.93,4.54-7.28l9.71,3.85s11.73-18.1,20.91-27.1Z"/>
        <path class="cls-17" d="M373.58,479.38c3.6.63,7.06,1.12,10.29,1.51-.58,16.35-3.26,60.93-15.47,69.6-6.67,4.74-25.55,7.49-44.37,9.08l-.61-11.73c16.16-1.97,33.45-5.73,38.75-9.75,6.25-4.74,10.28-45.88,11.4-58.72Z"/>
        <path class="cls-17" d="M350.5,350.43c2.71,1.7,5.77,3.21,8.97,4.27-9.18,9-20.91,27.1-20.91,27.1l-9.71-3.85c7.59-11.54,15.92-21.3,21.65-27.51Z"/>
        <path class="cls-17" d="M373.58,479.38c-1.12,12.83-5.15,53.98-11.4,58.72-5.3,4.02-22.6,7.78-38.75,9.75-1.76.22-3.5.41-5.21.58-1.78.18-3.52.33-5.2.45-1.81.13-3.55.24-5.22.3l.59,11.48c-7.5.43-14.43.7-19.88.86.28-7.22-.09-20.05-4.98-30.64l46.62-10.71s2.96-34.47,2.14-54.88c12.23,7.53,27.71,11.74,41.29,14.09Z"/>
        <path class="cls-16" d="M336.98,401.91c1.72.32,3.39.7,5.01,1.14-2.1,3.21-5.22,8.36-7.13,13.38-1.82-.18-3.59-.31-5.3-.38,1.86-5.26,5.2-10.77,7.41-14.14h0Z"/>
        <path class="cls-16" d="M331.81,401.09c1.77.22,3.48.49,5.16.81-2.22,3.37-5.55,8.88-7.41,14.14-2.1-.12-4.11-.16-6.01-.16,2.42-6.08,6.47-12.22,8.26-14.79Z"/>
        <path class="cls-13" d="M331.81,401.09c-1.79,2.57-5.84,8.71-8.26,14.79-4.98-.01-9.14.27-11.97.54.93-4.58,2.35-9.15,4.11-13.65.26-.68.53-1.35.81-2.02,5.4-.4,10.51-.23,15.31.34Z"/>
        <path class="cls-16" d="M323.43,547.84l.61,11.73c-1.74.14-3.49.28-5.22.41l-.6-11.56c1.71-.17,3.45-.36,5.21-.58Z"/>
        <path class="cls-16" d="M318.22,548.42l.6,11.56c-1.74.13-3.49.26-5.21.36l-.59-11.47c1.69-.12,3.43-.27,5.2-.45Z"/>
        <path class="cls-16" d="M313.01,548.87l.59,11.47c-1.77.12-3.51.22-5.22.31l-.59-11.48c1.66-.07,3.41-.17,5.22-.3Z"/>
        <path class="cls-6" d="M251.56,269l1.92,10.63c.13.73.06,1.49-.23,2.22-.51,1.27-1.65,2.19-2.99,2.43-3.88.7-9.29,1.68-15.49,2.8l-19.29,3.49-22.77,4.12-18.99,3.44c-1.52.27-3.05-.34-3.96-1.6-5-6.94-21.41-29.74-28.83-40.05-.35-.49-.59-1.05-.69-1.63l-1.92-10.62c.1.57.34,1.13.69,1.62.99,1.38,2.13,2.97,3.39,4.71,3.44,4.78,7.72,10.72,11.84,16.45.48.67.96,1.33,1.44,2,5.15,7.16,9.87,13.7,12.16,16.9.91,1.25,2.44,1.88,3.96,1.6l37.16-6.72,19.29-3.49,20.09-3.64c.37-.07.74-.18,1.06-.36.87-.42,1.56-1.16,1.93-2.08.29-.71.36-1.48.23-2.22Z"/>
        <path class="cls-8" d="M207.19,245.72l-4.16-6.23-.04-.06-6.53-9.78,21.6-3.91c1.52-.27,3.06.35,3.96,1.6,2.3,3.19,7.03,9.74,12.17,16.9.47.66.95,1.32,1.44,2,5.62,7.82,11.55,16.03,15.23,21.16.35.49.58,1.04.69,1.61.13.74.06,1.5-.23,2.22-.37.92-1.06,1.66-1.93,2.08-.32.18-.69.3-1.06.36l-20.09,3.64-12.74-19.12-4.16-6.23-2.13-3.19-2.02-3.04Z"/>
        <path class="cls-13" d="M283.53,530.87c4.88,10.59,5.25,23.42,4.98,30.64-3.79.12-6.88.19-8.95.23.92-10.72-3.66-23.23-5.91-28.6l9.88-2.28Z"/>
        <path class="cls-12" d="M273.65,533.15c2.24,5.37,6.82,17.87,5.91,28.6-1.86.04-2.92.06-2.97.07-.08.08-1.64,30.69-15.39,25.68l-3.94-50.58,16.39-3.77Z"/>
        <polygon class="cls-7" points="215.5 258.18 228.24 277.29 208.95 280.78 196.22 261.67 200.66 260.86 213.42 258.55 215.5 258.18"/>
        <polygon class="cls-1" points="211.35 251.95 215.5 258.18 213.42 258.55 200.66 260.86 196.22 261.67 192.06 255.44 199.65 254.06 211.35 251.95"/>
        <polygon class="cls-6" points="209.21 248.76 211.35 251.95 199.65 254.06 192.06 255.44 189.93 252.25 187.9 249.21 189.99 248.83 202.73 246.52 207.19 245.72 209.21 248.76"/>
        <polygon class="cls-1" points="203.04 239.49 207.19 245.72 202.73 246.52 189.99 248.83 187.9 249.21 183.75 242.98 189.37 241.96 202.11 239.66 203.04 239.49"/>
        <polygon class="cls-8" points="202.99 239.42 203.04 239.49 202.11 239.66 189.37 241.96 183.75 242.98 183.71 242.91 177.18 233.13 196.47 229.64 202.99 239.42"/>
        <path class="cls-7" d="M183.75,242.98l4.16,6.23,2.02,3.04,2.13,3.19,4.16,6.23,12.74,19.12-37.16,6.72c-1.52.27-3.05-.35-3.96-1.6-2.3-3.2-7.02-9.75-12.16-16.9-.48-.67-.96-1.33-1.44-2-4.12-5.73-8.4-11.66-11.84-16.45-1.26-1.74-2.4-3.34-3.39-4.71-.35-.49-.59-1.05-.69-1.62-.13-.74-.06-1.5.23-2.22.51-1.27,1.65-2.19,2.99-2.43l35.64-6.45,6.53,9.78.04.06Z"/>
      </g>
      <g>
        <path class="cls-29" d="M394.93,288.34c1.17,1.22,2.51,2.89,3.17,4.54,2.75,6.97,2.12,11.66,3.33,15.75.82,2.79,2.47,5.29,6.63,8.04"/>
        <path class="cls-29" d="M385.27,352.13c.07-.67.12-1.11.17-1.47.09-.69.17-1.12.44-2.39,1.18-5.41,1.36-11.14,5.6-11.71,5.85-.78,10.84,1.85,12.32-10.76.09-.7.16-1.43.22-2.22.29-3.8,2.52-4.35,4.02-6.91"/>
        <path class="cls-29" d="M359.66,346.46c2.75-3.51,5.13-6.75,6.99-12.25"/>
        <path class="cls-29" d="M353.33,314.46c-.39,3.88.79,12.45,6.39,16.79,2.45,1.9,4.79,2.76,6.93,2.96,5.27.47,9.37-3.03,11.13-4.82"/>
        <path class="cls-29" d="M380.7,330.2c-.61-.14-1.69-.27-2.92-.8-1.44-.59-3.1-1.71-4.47-3.99-1.29-2.15-1.68-5.22-1.23-6.82,1.68-6.07,7.27-4.34,8.68-2.89"/>
        <path class="cls-29" d="M394.93,288.34c-3.18,3.95-3.21,13.81-3.37,14.86-.04.27-.1.64-.18,1.07-.39,2.1-1.47,5.87-5.12,8.45-2.69,1.91-4.05,1.85-5.5,2.98"/>
        <path class="cls-29" d="M362.97,285.32c.48-.44,1.12-.95,2.04-1.64,5.96-4.46,32.37-1.35,35.34-.38,18.8,6.18,8.23,22.03,1.08,25.33"/>
        <path class="cls-29" d="M353.33,314.46c-2.17.14-5.4-.51-9.27-4.12-4.45-4.12-5.7-11.38-3.59-17.47,2.03-5.84,7.15-10.61,15.54-10.56,3.73.02,5.81,1.45,6.96,3"/>
        <path class="cls-29" d="M395.69,324.7c1.32.62,4.64,2.68,8.12,1.1"/>
        <path class="cls-29" d="M337.64,291.95c5.15-14.45,17.67-25.81,33.84-28.73,24.07-4.35,47.11,11.63,51.47,35.7s-11.63,47.1-35.7,51.46c-.6.11-1.2.21-1.8.28-.68.1-1.37.18-2.05.24-8.42.78-16.57-.87-23.73-4.44-1.2-.6-2.37-1.24-3.5-1.95-10.35-6.36-18.04-16.93-20.38-29.83-1.43-7.9-.66-15.68,1.85-22.73Z"/>
        <path class="cls-29" d="M395.63,366.82c-.51-.84-1.03-1.68-1.56-2.52-.97-1.56-2-3.11-3.07-4.66-1.66-2.4-3.1-4.23-4.33-5.61-1.33-1.49-2.41-2.47-3.28-3.14"/>
        <path class="cls-29" d="M410.92,396.97c-4.09-8.45-8.76-19.31-15.28-30.14"/>
        <path class="cls-29" d="M408.31,396.78c.74-.03,1.19.04,2.61.2h0c2.43.28,7.68.86,21.94,1.79,11.03.73,16.59,1.1,19.42,1.29.07,0,.13,0,.21.01"/>
        <path class="cls-29" d="M452.38,400.19s.07-.07.1-.12c6.61-8.14,7.27-18.35,13.03-21.06,1.41-.67,7.39-1.17,3.52,6.02-.77,1.43-1.32,2.65-1.72,3.65"/>
        <path class="cls-29" d="M465.13,388.47c.64.12,1.38.2,2.18.22,4.87.21,12.17-1.06,14.62-1.81,9.64-2.93,10.02-1.67,10.22-.87.15.62-.02,1.24-.5,1.86-1.84,2.35-8.25,4.53-18.47,6"/>
        <path class="cls-29" d="M474.6,398.05c8.21-.54,15.1-3.51,18.05-5.77.74-.56,1.24-1.08,1.45-1.5,1.07-2.16-.91-2.75-2.45-2.92"/>
        <path class="cls-29" d="M476.58,402.15c7.13-.54,10.42-2.09,14.24-4.08.02-.01.04-.02.06-.03,4.65-2.47,2.93-4.95,1.78-5.75"/>
        <path class="cls-29" d="M457.46,413c1.38-.64,2.59-1.17,3.68-1.63,4.51-1.88,6.99-2.4,11.41-3.16,2.69-.48,6.1-1.03,11.14-2.06,4.09-.83,10.75-4.96,7.18-8.12"/>
        <path class="cls-29" d="M457.46,413c-.1.04-.21.09-.31.13-3.52,1.48-8.7,3.91-14.6,6.3-1.39.58-2.81,1.14-4.27,1.69-1.4.53-2.82,1.04-4.27,1.53-1.41.48-2.83.94-4.26,1.36-6.42,1.9-12.9,3.12-18.46,2.65-6.25-.52-14.99-4.21-23.32-11.86-6.67-6.1-13.1-14.75-17.77-26.32"/>
        <path class="cls-29" d="M457.15,413.13c-.09-1.86-.51-4.21-1.73-7.72l-.12-.34c-.68-1.89-1.78-3.55-2.91-4.87-.03-.05-.07-.09-.11-.13"/>
        <path class="cls-29" d="M469.5,397.36c2.12,3.28,2.84,7.5,3.05,10.85"/>
        <path class="cls-29" d="M458.05,401.31c2.07-.82,4.04-1.59,6.36-2.34,2.53-.82,4.1-1.31,5.09-1.61"/>
        <path class="cls-29" d="M458.05,401.31c.65.95,1.41,2.29,1.97,3.75.95,2.5,1.24,4.21,1.12,6.31"/>
        <path class="cls-29" d="M464.73,401.02c1.46,2.24,1.52,5.47,1.53,5.96"/>
        <path class="cls-29" d="M466.59,400.68c1.46,2.24,1.52,5.47,1.53,5.96"/>
        <path class="cls-29" d="M396.89,482.06c5.27.31,8.5.29,8.5.29"/>
        <path class="cls-29" d="M356.16,344.51c-1.24,1.24-3.21,3.25-5.66,5.91-5.72,6.22-14.06,15.97-21.65,27.51-1.56,2.35-3.08,4.79-4.54,7.28-2.92,4.98-5.61,10.19-7.81,15.53-.29.67-.55,1.34-.81,2.02-1.76,4.49-3.18,9.07-4.11,13.65-1.61,7.95-1.77,15.91.24,23.51,2.92,11.11,10.65,19.3,20.46,25.35,12.23,7.53,27.71,11.74,41.29,14.09,3.6.63,7.06,1.12,10.29,1.51,5.02.6,9.47.96,13.01,1.16"/>
        <path class="cls-29" d="M361.55,422.78c-8.94-3.72-18.31-5.55-26.69-6.35-1.82-.18-3.59-.31-5.3-.38-2.1-.12-4.11-.16-6.01-.16-4.98-.01-9.14.27-11.97.54"/>
        <path class="cls-29" d="M381.5,426.73c-6.4-1.37-12.33-2.54-17.12-3.43-.99-.19-1.94-.36-2.82-.52t-.01,0c-5.39-.97-8.75-1.51-8.75-1.51"/>
        <path class="cls-29" d="M396.89,482.05h0c-1.96,14.17-1.99,33.82-1.54,49.83.09,3.09.19,6.04.3,8.8.46,11.32,1.05,19.25,1.05,19.25l50.75-6.13c-1.09-12.66-27.39-14.55-27.39-14.55.03-.04.06-.08.09-.12,2.43-3.17,4.71-6.92,6.8-11.06,1.17-2.29,2.27-4.7,3.31-7.2.75-1.81,1.47-3.67,2.15-5.56.67-1.86,1.31-3.76,1.91-5.68.6-1.91,1.17-3.83,1.69-5.77,6.42-23.6,7.46-49.12.01-57.68-6.51-7.48-31.3-14.31-52.15-18.92-.79-.17-1.59-.35-2.37-.52"/>
        <path class="cls-29" d="M383.87,480.89c-.58,16.35-3.26,60.93-15.47,69.6-6.67,4.74-25.55,7.49-44.37,9.08-1.74.14-3.49.28-5.22.41-1.74.13-3.49.26-5.21.36-1.77.12-3.51.22-5.22.31-7.5.43-14.43.7-19.88.86-3.79.12-6.88.19-8.95.23-1.86.04-2.92.06-2.97.07-.08.08-1.64,30.69-15.39,25.68l-3.94-50.58,16.39-3.77,9.88-2.28,46.62-10.71s2.96-34.47,2.14-54.88"/>
        <path class="cls-29" d="M342,403.04c20.17,5.25,33.68,17.47,39.5,23.69h0"/>
        <path class="cls-29" d="M336.98,401.91c1.72.32,3.39.7,5.01,1.14"/>
        <path class="cls-29" d="M316.51,400.75c5.4-.4,10.51-.23,15.31.34,1.77.22,3.48.49,5.16.81"/>
        <path class="cls-29" d="M342,403.04h0c-2.1,3.21-5.22,8.37-7.13,13.39"/>
        <path class="cls-29" d="M336.98,401.91h0c-2.22,3.37-5.55,8.88-7.41,14.14"/>
        <path class="cls-29" d="M323.56,415.88c2.42-6.08,6.47-12.22,8.26-14.79"/>
        <path class="cls-29" d="M395.65,540.68c5.52.76,15.93,1.55,24.51-1.55"/>
        <path class="cls-29" d="M395.34,531.88c8.48,3.1,25.79-1.94,31.61-3.81"/>
        <path class="cls-29" d="M347.62,434.03c22.24,3.81,72.35,17.72,78.62,27.7,3.79,6.03,1.02,22.25-2.59,36.64-.5,1.99-1.01,3.94-1.54,5.84-.55,2.03-1.1,3.97-1.64,5.81-.61,2.09-1.2,4.03-1.73,5.75-1.57,5.03-2.69,8.26-2.69,8.26"/>
        <path class="cls-29" d="M336.85,446.79c2.76-4.99,6.64-9.24,10.77-12.75,5.65-4.83,11.75-8.27,15.99-10.36.26-.12.52-.25.77-.37"/>
        <line class="cls-29" x1="436.01" y1="503.85" x2="423.65" y2="498.37"/>
        <line class="cls-29" x1="434.33" y1="509.63" x2="422.11" y2="504.2"/>
        <line class="cls-29" x1="432.42" y1="515.31" x2="420.47" y2="510.01"/>
        <line class="cls-29" x1="430.26" y1="520.87" x2="418.74" y2="515.76"/>
        <path class="cls-29" d="M307.79,549.17c1.66-.07,3.41-.17,5.22-.3,1.69-.12,3.43-.27,5.2-.45,1.71-.17,3.45-.36,5.21-.58,16.16-1.97,33.45-5.73,38.75-9.75,6.25-4.74,10.28-45.88,11.4-58.72"/>
        <line class="cls-29" x1="324.03" y1="559.57" x2="323.43" y2="547.84"/>
        <line class="cls-29" x1="318.81" y1="559.98" x2="318.22" y2="548.42"/>
        <line class="cls-29" x1="313.61" y1="560.34" x2="313.01" y2="548.87"/>
        <line class="cls-29" x1="308.39" y1="560.65" x2="307.79" y2="549.17"/>
        <path class="cls-29" d="M252.7,364.44c-14.97-16.17-51.47-31.87-59.13-65.18-.35-1.48-.64-3-.86-4.57"/>
        <path class="cls-29" d="M252.7,364.44c5.97,6.45,8.53,12.97,4.47,20.72-10.24,19.58-35.57,2-28.11-9.83,4.67-7.39,13.38-10.79,23.64-10.88Z"/>
        <path class="cls-29" d="M315.7,402.77c-.3-.63-.61-1.25-.95-1.87-11.94-22.29-40.44-36.68-62.05-36.46"/>
        <path class="cls-29" d="M251.56,269c.13.74.06,1.5-.23,2.22-.37.92-1.06,1.66-1.93,2.08-.32.18-.69.3-1.06.36l-20.09,3.64-19.29,3.49-37.16,6.72c-1.52.27-3.05-.35-3.96-1.6-2.3-3.2-7.02-9.75-12.16-16.9-.48-.67-.96-1.33-1.44-2-4.12-5.73-8.4-11.66-11.84-16.45-1.26-1.74-2.4-3.34-3.39-4.71-.35-.49-.59-1.05-.69-1.62-.13-.74-.06-1.5.23-2.22.51-1.27,1.65-2.19,2.99-2.43l35.64-6.45,19.29-3.49,21.6-3.91c1.52-.27,3.06.35,3.96,1.6,2.3,3.19,7.03,9.74,12.17,16.9.47.66.95,1.32,1.44,2,5.62,7.82,11.55,16.03,15.23,21.16.35.49.58,1.04.69,1.61Z"/>
        <path class="cls-29" d="M140.24,254.84c.11.58.34,1.14.69,1.63,7.42,10.3,23.83,33.11,28.83,40.05.91,1.26,2.44,1.88,3.96,1.6l18.99-3.44,22.77-4.12,19.29-3.49c6.2-1.12,11.61-2.1,15.49-2.8,1.35-.24,2.48-1.16,2.99-2.43.29-.72.36-1.49.23-2.22"/>
        <path class="cls-29" d="M273.65,533.15c2.24,5.37,6.82,17.87,5.91,28.6"/>
        <path class="cls-29" d="M283.53,530.87c4.88,10.59,5.25,23.42,4.98,30.64"/>
        <path class="cls-29" d="M394.73,308.49c.9-.16,1.9,1.25,2.25,3.17s-.1,3.6-1,3.76-1.91-1.26-2.26-3.17.1-3.6,1.01-3.76Z"/>
        <path class="cls-29" d="M396.75,304.29s-1.58-1.11-5.37-.01c-1.17.34-2.53.89-4.14,1.74"/>
        <line class="cls-29" x1="387.97" y1="414.8" x2="383.87" y2="427.25"/>
        <path class="cls-29" d="M363.18,355.69c-1.24-.24-2.48-.59-3.71-1-3.2-1.06-6.27-2.58-8.97-4.27"/>
        <path class="cls-29" d="M386.67,354.03c-3.01.03-8.01.34-13.96,1.72-3.07.72-6.31.6-9.52-.07"/>
        <polyline class="cls-29" points="391.87 378.59 369.63 376.85 394.07 364.3"/>
        <polyline class="cls-29" points="395.63 366.82 395.64 366.83 392.74 378.66 391.88 378.59"/>
        <path class="cls-29" d="M455.42,405.41c-2.44.23-7.42.66-13.36,1.03-1.37.08-2.79.16-4.24.24-1.39.07-2.82.13-4.25.19-1.41.05-2.84.11-4.25.14-11.09.28-21.83-.13-24.25-2.48-3.93-3.83-10.13-18.38-13.19-25.93h0"/>
        <path class="cls-29" d="M429.31,407c.79,3.92,1.69,10.58.45,17.01"/>
        <path class="cls-29" d="M433.57,406.86c.75,3.84,1.47,9.87.45,15.79"/>
        <path class="cls-29" d="M438.28,421.12c.79-5.39.21-10.77-.46-14.45"/>
        <path class="cls-29" d="M442.55,419.43c.58-4.82.1-9.57-.49-13"/>
        <path class="cls-29" d="M363.19,355.69h0c-5.94,6.76-22.23,25.74-25.55,34.37l-13.31-4.84"/>
        <path class="cls-29" d="M328.86,377.94l9.71,3.85s11.73-18.1,20.91-27.1"/>
        <path class="cls-29" d="M376.88,319.2s-2.35,3.3,1.65,5.93"/>
        <line class="cls-29" x1="253.48" y1="279.63" x2="251.56" y2="269"/>
        <line class="cls-29" x1="140.24" y1="254.84" x2="138.32" y2="244.23"/>
        <polyline class="cls-29" points="227.68 255.97 226.87 256.12 215.5 258.18 213.42 258.55 200.66 260.86 196.22 261.67 173.87 265.71"/>
        <polyline class="cls-29" points="226.67 249.18 225.85 249.32 212.39 251.76 211.35 251.95 199.65 254.06 192.06 255.44 172.85 258.91"/>
        <polyline class="cls-29" points="217 243.94 216.2 244.09 207.19 245.72 202.73 246.52 189.99 248.83 187.9 249.21 163.2 253.68"/>
        <polyline class="cls-29" points="216.39 237.07 215.57 237.22 203.04 239.49 202.11 239.66 189.37 241.96 183.75 242.98 162.57 246.81"/>
        <polyline class="cls-29" points="208.95 280.78 196.22 261.67 192.06 255.44 189.93 252.25 187.9 249.21 183.75 242.98 183.71 242.91 177.18 233.13"/>
        <polyline class="cls-29" points="228.24 277.29 215.5 258.18 211.35 251.95 209.21 248.76 207.19 245.72 203.04 239.49 202.99 239.42 196.47 229.64"/>
      </g>
    </g>
  </g>
  <g id="Right_male" data-name="Right male">
    <g>
      <g>
        <path class="cls-9" d="M822.56,395.93c-2.14,9.91-7.44,18.34-14.61,24.45-.93.8-1.89,1.56-2.9,2.27-.8.58-1.62,1.13-2.46,1.66-1.22.76-2.47,1.46-3.76,2.1l-6.55-10.57s15.71-19.93,13.79-34.69c0,0-2.57-3.75-5.51-5.44,0,0,4.86-.95,1.72-5.42-3.14-4.48-8.06-8.95-8.06-8.95l-1.48,1.91s-27.52-13.45-34.46-.18c0,0-16.77,4.71-10.55,16.66,1.57,3.03,3.35,5.46,5.13,7.41-.39,8.07-.69,26.15,4.21,30.03,0,0,3.51,3.08,10.8,1.49l1.43,11.31c-2.94-.66-5.75-1.59-8.4-2.77-18.87-8.4-29.93-29.13-25.39-50.11,5.2-24.03,28.91-39.31,52.95-34.1,24.03,5.2,39.31,28.91,34.1,52.94Z"/>
        <path class="cls-2" d="M919.78,632.71s.06.06.08.09c-3,10.9-12.43,43.61-19.12,49.29-3.99-2.11-4.67-8.78,1.15-29.2,7.29-25.56,17.73-20.05,17.73-20.05l.15-.13Z"/>
        <path class="cls-18" d="M919.78,632.71l-.15.13s-10.44-5.5-17.73,20.05c-5.82,20.42-5.14,27.08-1.15,29.2-.03.03-.06.06-.1.09,0,0-23.43-6.22-11.3-34.59l-3.11-1.84c6.1-15.99,16.49-23.03,21.57-25.64,3.7,3.64,7.69,7.79,11.98,12.6Z"/>
        <path class="cls-13" d="M903.6,616.08c1.36,1.27,2.76,2.61,4.2,4.04-5.08,2.61-15.47,9.65-21.57,25.64l-4.7-2.78c1.67-5.89,7.29-21.01,22.07-26.9Z"/>
        <path class="cls-17" d="M781.13,537.5c-4.06.74-8.56,1.92-13.17,3.8.24-2.66.5-5.39.78-8.2.45-4.45.57-8.17.49-11.32l37.28-9.3,4.56-1.14,4.57-1.14,13.81-3.45c1.33,2.16,3.22,4.65,5.92,7.56,2.21,2.39,4.25,4.92,6.1,7.53.84,1.16,1.64,2.35,2.39,3.55,12.28,19.15,16.27,41.49,20.12,50.75,6.99,16.88,18.23,19.87,39.61,39.93-14.78,5.89-20.4,21.01-22.07,26.9l-4.61-2.72-8.96-5.3c-1.32-1.31-2.59-2.51-3.8-3.64-1.48-1.36-2.87-2.62-4.21-3.77-1.07-.93-2.1-1.79-3.1-2.62l6.95-13.55c-1.73-1.13-3.51-2.32-5.29-3.56-1.76-1.2-3.51-2.44-5.23-3.69-1.77-1.28-3.48-2.58-5.13-3.86-4.56-3.6-8.49-7.15-10.84-10.21-5.51-7.24-9.22-17.32-11.31-24.31-1.82,6.82-4.33,13.31-6.84,18.88-1.67,3.71-3.34,7.01-4.79,9.73,5.92,3.65,14.14,9.16,20.45,13.55h0c1.88,2.39,3.82,4.73,5.82,6.95,5.15,5.71,10.69,10.72,16.42,14.13-9.6,6.18-13.01,22.9-13.93,28.75-12.87-4.27-23.79-8.3-33.01-12.55l6.75-13.15c-1.79-1.01-3.62-2.07-5.49-3.17-1.8-1.06-3.61-2.17-5.42-3.31-1.8-1.12-3.59-2.27-5.34-3.45-7.29-4.88-13.95-10.1-17.93-14.97-10.69-13.07-4.1-55.72-1.59-69.66Z"/>
        <path class="cls-2" d="M878.2,645.68c-1.31,11.01-6.01,44.79-13.96,43.35-.29-.14-.9-.36-1.74-.7-4.49-2.98-4.46-13.95-2.02-24.67,2.49-11,7.53-21.73,12.81-23.27,1.11-.32,2.24-.23,3.35.34.65.35,1.3.85,1.95,1.55,0,0-.12,1.28-.39,3.41Z"/>
        <path class="cls-18" d="M852.29,660.76c-.45-.16-.65-.23-.93-.32-.82-.26-1.65-.53-2.45-.79,2.48-16.86,9.4-24.36,14.13-27.6l4.92,2.92,8.96,5.3-.27.46c-1.11-.57-2.24-.66-3.35-.34-5.28,1.54-10.32,12.27-12.81,23.27-2.44,10.73-2.48,21.7,2.02,24.67-3.32-1.41-9.92-5.01-10.89-15.04-.55-5.61,0-9.39.69-12.53Z"/>
        <path class="cls-17" d="M867.96,634.97l-4.92-2.92-5.56-3.28c-.13.07-.26.15-.38.24-5.73-3.41-11.27-8.42-16.42-14.13-2-2.22-3.95-4.56-5.82-6.94,2.78,1.94,5.19,3.66,6.87,4.9.83.62,1.47,1.12,1.89,1.47,1.07.9,2.12,1.76,3.14,2.58,1.7,1.37,3.37,2.67,5.07,4,1.63,1.29,3.29,2.62,5.04,4.05,1,.83,2.03,1.7,3.1,2.62,1.34,1.15,2.73,2.4,4.21,3.77,1.21,1.12,2.47,2.33,3.8,3.64Z"/>
        <path class="cls-13" d="M857.47,628.77l5.56,3.28c-4.73,3.23-11.64,10.74-14.13,27.6-1.96-.64-3.87-1.27-5.74-1.89.92-5.86,4.32-22.58,13.93-28.75.12-.09.25-.16.38-.24Z"/>
        <path class="cls-16" d="M863.81,611.39l-6.95,13.55c-1.75-1.43-3.4-2.75-5.04-4.05l6.7-13.06c1.78,1.23,3.56,2.43,5.29,3.56Z"/>
        <path class="cls-16" d="M858.52,607.84l-6.7,13.06c-1.7-1.33-3.37-2.63-5.07-4l6.54-12.74c1.71,1.25,3.47,2.49,5.23,3.69Z"/>
        <path class="cls-16" d="M853.3,604.15l-6.54,12.74c-1.03-.83-2.07-1.69-3.14-2.58-.42-.36-1.06-.85-1.89-1.47l6.45-12.55c1.65,1.29,3.36,2.58,5.13,3.86Z"/>
        <path class="cls-17" d="M848.17,600.28l-6.45,12.55c-1.68-1.24-4.09-2.96-6.87-4.9h0c-6.17-7.85-11.54-16.26-15.66-23.29,2.5-5.57,5.01-12.06,6.84-18.88,2.1,6.99,5.8,17.07,11.31,24.31,2.34,3.07,6.27,6.62,10.84,10.21Z"/>
        <path class="cls-17" d="M850.58,458.58c12.33,21.09-1.29,49.83-9.11,63.27-1.85-2.61-3.88-5.14-6.1-7.53-2.7-2.92-4.59-5.4-5.92-7.56-3.19-5.17-3.15-8.46-3.31-11.14h0c.12-.38.25-.76.36-1.16,3.72-11.78,7.95-29.72.7-54.43-1.11-3.78-2.33-7.04-3.53-9.78,9.48,6.97,20.13,16.74,26.9,28.34Z"/>
        <path class="cls-16" d="M816.91,632.06l-6.75,13.15c-1.98-.91-3.88-1.83-5.71-2.76l6.97-13.56c1.87,1.1,3.71,2.16,5.49,3.17Z"/>
        <path class="cls-16" d="M811.42,628.89l-6.97,13.56c-1.94-.99-3.79-2.01-5.55-3.03l7.1-13.84c1.81,1.14,3.63,2.25,5.42,3.31Z"/>
        <path class="cls-16" d="M805.99,625.58l-7.1,13.84c-1.89-1.09-3.68-2.22-5.39-3.38l7.14-13.91c1.75,1.18,3.54,2.33,5.34,3.45Z"/>
        <path class="cls-13" d="M829.46,506.75l-13.81,3.45c-1.76-5.34-1.96-10.77-1.92-13.57l12.34-2.1.45-.08c-.12.39-.24.78-.36,1.15h0c.16,2.69.12,5.98,3.31,11.15Z"/>
        <path class="cls-17" d="M800.65,622.13l-7.14,13.91c-25.71-17.41-30.33-41.67-25.55-94.74h0c4.61-1.89,9.11-3.07,13.17-3.81-2.51,13.95-9.1,56.6,1.59,69.66,3.98,4.87,10.64,10.09,17.93,14.97Z"/>
        <path class="cls-17" d="M749.5,464.41c-14.92,1.23-32.63,1.05-39.46-2.71-10.93-6.04-16.83-13.56-20.26-24.56,2.16-.67,5.17-1.81,9-3.74,3.09-1.55,5.22-3.08,6.28-3.91,3.79,8.66,7.79,11.19,13.98,11.2,5.38.02,12.39-1.85,22.38-3.26-.1.17-.21.35-.31.55,6.15,2.98,12.25,6.68,15.66,8.87-.26-3.89-1.2-11.98-4.86-18.56,3.97-.58,6.86-.92,8.99-1.09,2.65,1.18,5.47,2.11,8.4,2.77l.32.07c3.22.7,6.43,1.02,9.59,1.01,3.11,6.83,10.44,24.85,8.87,39.48l34.64-6.51s1.98-21.5-17.67-41.37c1-.71,1.96-1.47,2.9-2.27,3.79,1.91,9.51,5.28,15.73,9.86,1.2,2.74,2.43,6,3.53,9.78,7.25,24.71,3.02,42.65-.7,54.43l-.45.08-12.34,2.1-4.57.78-4.56.77-38.87,6.63-1.46.25c-10.04-20.46-13.46-33.59-14.77-40.64Z"/>
        <path class="cls-16" d="M815.64,510.2l-4.57,1.14c-1.83-5.57-1.98-11.24-1.92-13.93l4.57-.78c-.03,2.81.16,8.23,1.92,13.57Z"/>
        <path class="cls-13" d="M822.72,464.02l-34.64,6.51c1.57-14.63-5.77-32.65-8.87-39.48,1.57,0,3.13-.09,4.66-.26,8.43,15.03,10.55,32.78,10.55,32.78l23.3-4c.08-12.93-11.18-29.78-15.12-35.27.84-.52,1.65-1.07,2.46-1.66,19.65,19.88,17.67,41.37,17.67,41.37Z"/>
        <path class="cls-16" d="M811.07,511.34l-4.56,1.14c-1.92-5.83-1.99-11.78-1.91-14.3l4.56-.77c-.06,2.69.08,8.36,1.92,13.93Z"/>
        <path class="cls-13" d="M768.22,512.82s0,0,0-.01c-1.41-2.69-2.73-5.28-3.94-7.75l1.46-.25,38.87-6.63c-.08,2.52-.01,8.47,1.91,14.3l-37.28,9.3c-.11-3.74-.52-6.65-1.01-8.96Z"/>
        <path class="cls-17" d="M817.72,459.57l-23.3,4s-2.11-17.75-10.55-32.78c5.27-.57,10.32-2.07,14.97-4.38,1.29-.64,2.54-1.34,3.76-2.1,3.94,5.49,15.2,22.34,15.12,35.27Z"/>
        <path class="cls-17" d="M792.28,415.84l6.55,10.57c-4.64,2.31-9.7,3.82-14.97,4.38-1.53.17-3.1.26-4.66.26-3.16.01-6.38-.32-9.59-1.01l-.32-.07-1.43-11.31c-7.29,1.59-10.8-1.49-10.8-1.49-4.9-3.88-4.6-21.96-4.21-30.03,5.24,5.74,10.45,7.24,10.45,7.24l2.88,5.93s3.65-10.41,8.13-6.25-2.33,14.76-2.25,14.76c.07-.01,7.37,8.21,20.22,7.02Z"/>
        <path class="cls-16" d="M806.07,381.15c1.92,14.76-13.79,34.69-13.79,34.69-12.85,1.2-20.15-7.03-20.22-7.02-.08,0,6.72-10.6,2.25-14.76s-8.13,6.25-8.13,6.25l-2.88-5.93s-5.22-1.51-10.45-7.24c-1.78-1.95-3.55-4.38-5.13-7.41-6.21-11.94,10.55-16.66,10.55-16.66,6.94-13.27,34.46.18,34.46.18l1.48-1.91s4.92,4.47,8.06,8.95c3.15,4.47-1.72,5.42-1.72,5.42,2.95,1.69,5.51,5.44,5.51,5.44Z"/>
        <path class="cls-13" d="M751.9,428.29c3.66,6.58,4.6,14.67,4.86,18.56-3.4-2.19-9.51-5.89-15.66-8.87.1-.19.21-.37.31-.55,2.89-4.86,2.85-4.97,3.19-5.5.78-1.23,1.35-2.12,1.77-2.77h0c2.05-.33,3.88-.62,5.52-.87Z"/>
        <path class="cls-17" d="M746.37,429.16c-.42.65-.99,1.54-1.77,2.77-.34.53-.29.64-3.19,5.5-9.98,1.41-17,3.28-22.38,3.26l.29-1.43c-.12-.21-.98-1.93-2.32-4.56,7.9-1.55,21.87-4.27,22.64-4.4,2.47-.43,4.69-.81,6.71-1.14Z"/>
        <path class="cls-17" d="M719.33,439.26l-.29,1.43c-6.19,0-10.18-2.54-13.98-11.2-.15-.35-.3-.72-.46-1.09-.38-.91-.75-1.83-1.12-2.76-.53-1.28-1.05-2.58-1.58-3.87-.51-1.31-1.03-2.61-1.55-3.87-2.14-5.34-4.1-10.2-5.39-12.85.58-.39,1.21-.82,1.88-1.3.55-.4,1.07-.81,1.54-1.21.51-.41.96-.81,1.38-1.21l.08-.08c4.51,8.34,13.06,25.28,17.17,33.45,1.33,2.63,2.2,4.35,2.32,4.56Z"/>
        <path class="cls-16" d="M704.6,428.4c.16.37.31.74.46,1.09-1.06.83-3.19,2.36-6.28,3.91-3.84,1.93-6.84,3.07-9,3.74-.43-1.33-.8-2.72-1.15-4.16,2.15-.67,5.15-1.8,8.95-3.71,2.77-1.4,4.76-2.77,5.9-3.63.37.93.75,1.85,1.12,2.76Z"/>
        <path class="cls-16" d="M701.9,421.77c.53,1.29,1.05,2.59,1.58,3.87-1.14.87-3.13,2.24-5.9,3.63-3.8,1.91-6.8,3.04-8.95,3.71-.34-1.36-.64-2.77-.92-4.23,2.12-.69,5.01-1.79,8.65-3.62,2.49-1.25,4.36-2.5,5.54-3.37Z"/>
        <path class="cls-16" d="M700.36,417.9c.51,1.27,1.03,2.57,1.55,3.87-1.18.87-3.05,2.11-5.54,3.37-3.64,1.83-6.53,2.94-8.65,3.62-.26-1.38-.51-2.81-.73-4.29,2.07-.69,4.8-1.77,8.17-3.47,2.26-1.15,4.01-2.25,5.2-3.1Z"/>
        <path class="cls-17" d="M700.36,417.9c-1.2.85-2.94,1.95-5.2,3.1-3.36,1.7-6.1,2.78-8.17,3.47-.72-4.73-1.24-9.96-1.68-15.77,1.24-.2,2.35-.42,3.43-.73,2.02-.55,3.91-1.41,6.23-2.92,1.3,2.65,3.26,7.51,5.39,12.85Z"/>
        <path class="cls-18" d="M702.46,386.28c.51.86.42.96-2.07,12.28-.05.18-.34,1.53-.6,2.61l-.03.16c-.41.39-.87.79-1.38,1.21-2.19-3.11-3.01-4.38-4.48-7.98-.52-1.27-.9-2.64-1.16-3.62-2.23,1.09-7.15,3.6-10.1,5.11.25.91.59,2.03,1.03,3.1,1.6,3.92,2.43,5.06,5.07,8.82-1.08.31-2.19.53-3.43.73-.05-.58-.09-1.16-.13-1.76-15-14.09-5.95-20.47-5.91-20.52,1.07-1.32-1.03-3.52,2.49-5.44,3.57-1.94,1.38-4.21,4.14-5.77,6.09-3.46,9.6,6.83,10.43,8.07,2.23,3.37,4.55.34,6.15,3Z"/>
        <path class="cls-13" d="M698.38,402.53c-.48.4-.99.81-1.54,1.21-.67.48-1.29.92-1.88,1.3-2.32,1.51-4.21,2.36-6.23,2.92-2.64-3.76-3.47-4.91-5.07-8.82-.43-1.07-.78-2.18-1.03-3.1,2.95-1.51,7.87-4.02,10.1-5.11.26.98.64,2.35,1.16,3.62,1.47,3.6,2.29,4.87,4.48,7.98Z"/>
      </g>
      <g>
        <path class="cls-25" d="M760.89,427.2c-18.87-8.4-29.93-29.13-25.39-50.11,5.2-24.03,28.91-39.31,52.95-34.1,24.03,5.2,39.31,28.91,34.1,52.94-2.14,9.91-7.44,18.34-14.61,24.45-.93.8-1.89,1.56-2.9,2.27-.8.58-1.62,1.13-2.46,1.66-1.22.76-2.47,1.46-3.76,2.1-4.64,2.31-9.7,3.82-14.97,4.38-1.53.17-3.1.26-4.66.26-3.16.01-6.38-.32-9.59-1.01l-.32-.07c-2.94-.66-5.75-1.59-8.4-2.77Z"/>
        <path class="cls-25" d="M792.28,415.84c-12.85,1.2-20.15-7.03-20.22-7.02-.08,0,6.72-10.6,2.25-14.76s-8.13,6.25-8.13,6.25l-2.88-5.93s-5.22-1.51-10.45-7.24c-1.78-1.95-3.55-4.38-5.13-7.41-6.21-11.94,10.55-16.66,10.55-16.66,6.94-13.27,34.46.18,34.46.18l1.48-1.91s4.92,4.47,8.06,8.95c3.15,4.47-1.72,5.42-1.72,5.42,2.95,1.69,5.51,5.44,5.51,5.44,1.92,14.76-13.79,34.69-13.79,34.69l6.55,10.57"/>
        <path class="cls-25" d="M771.49,398.13s2.49,5.44-1.47,6.85"/>
        <path class="cls-25" d="M752.85,387.14c-.39,8.07-.69,26.15,4.21,30.03,0,0,3.51,3.08,10.8,1.49l1.43,11.31"/>
        <path class="cls-25" d="M746.37,429.16c-2.03.33-4.25.71-6.71,1.14-.77.13-14.75,2.86-22.64,4.4"/>
        <path class="cls-25" d="M760.89,427.2c-2.13.17-5.02.51-8.99,1.09-1.64.25-3.47.54-5.52.87"/>
        <path class="cls-25" d="M719.33,439.26c-.12-.21-.98-1.93-2.32-4.56-4.12-8.17-12.67-25.11-17.17-33.45-.01-.03-.03-.06-.04-.08"/>
        <path class="cls-25" d="M685.17,406.94c-15-14.09-5.95-20.47-5.91-20.52,1.07-1.32-1.03-3.52,2.49-5.44,3.57-1.94,1.38-4.21,4.14-5.77,6.09-3.46,9.6,6.83,10.43,8.07,2.23,3.37,4.55.34,6.15,3,.51.86.42.96-2.07,12.28-.05.18-.34,1.53-.6,2.61l-.03.16"/>
        <path class="cls-25" d="M763.89,462.64c-4,.71-9.02,1.33-14.39,1.78-14.92,1.23-32.63,1.05-39.46-2.71-10.93-6.04-16.83-13.56-20.26-24.56-.43-1.33-.8-2.72-1.15-4.16-.34-1.36-.64-2.77-.92-4.23-.26-1.38-.51-2.81-.73-4.29-.72-4.73-1.24-9.96-1.68-15.77-.05-.58-.09-1.16-.13-1.76"/>
        <path class="cls-25" d="M685.3,408.69c1.24-.2,2.35-.42,3.43-.73,2.02-.55,3.91-1.41,6.23-2.92.58-.39,1.21-.82,1.88-1.3.55-.4,1.07-.81,1.54-1.21.51-.41.96-.81,1.38-1.21l.08-.08"/>
        <path class="cls-25" d="M751.9,428.29c3.66,6.58,4.6,14.67,4.86,18.56"/>
        <path class="cls-25" d="M741.1,437.98c6.15,2.98,12.25,6.68,15.66,8.87"/>
        <path class="cls-25" d="M746.38,429.16h0c-.42.64-.99,1.53-1.77,2.77-.34.53-.29.64-3.19,5.5-.1.17-.21.35-.31.55"/>
        <path class="cls-25" d="M741.42,437.43c-9.98,1.41-17,3.28-22.38,3.26-6.19,0-10.18-2.54-13.98-11.2-.15-.35-.3-.72-.46-1.09-.38-.91-.75-1.83-1.12-2.76-.53-1.28-1.05-2.58-1.58-3.87-.51-1.31-1.03-2.61-1.55-3.87-2.14-5.34-4.1-10.2-5.39-12.85"/>
        <path class="cls-25" d="M686.99,424.47c2.07-.69,4.8-1.77,8.17-3.47,2.26-1.15,4.01-2.25,5.2-3.1"/>
        <path class="cls-25" d="M687.71,428.76c2.12-.69,5.01-1.79,8.65-3.62,2.49-1.25,4.36-2.5,5.54-3.37"/>
        <path class="cls-25" d="M688.63,432.99c2.15-.67,5.15-1.8,8.95-3.71,2.77-1.4,4.76-2.77,5.9-3.63"/>
        <path class="cls-25" d="M689.78,437.14c2.16-.67,5.17-1.81,9-3.74,3.09-1.55,5.22-3.08,6.28-3.91"/>
        <path class="cls-25" d="M692.74,390.94c.26.98.64,2.35,1.16,3.62,1.47,3.6,2.29,4.87,4.48,7.98"/>
        <path class="cls-25" d="M682.64,396.04c.25.91.59,2.03,1.03,3.1,1.6,3.92,2.43,5.06,5.07,8.82"/>
        <path class="cls-25" d="M682.64,396.04c2.95-1.51,7.87-4.02,10.1-5.11"/>
        <line class="cls-25" x1="692.37" y1="397.34" x2="686.99" y2="399.97"/>
        <line class="cls-25" x1="693.71" y1="399.78" x2="688.32" y2="402.41"/>
        <path class="cls-25" d="M807.95,420.38c3.79,1.91,9.51,5.28,15.73,9.86,9.48,6.97,20.13,16.74,26.9,28.34,12.33,21.09-1.29,49.83-9.11,63.27"/>
        <path class="cls-25" d="M823.68,430.24c1.2,2.74,2.43,6,3.53,9.78,7.25,24.71,3.02,42.65-.7,54.43-.12.39-.24.78-.36,1.15"/>
        <path class="cls-25" d="M768.21,512.8c-1.41-2.69-2.73-5.28-3.94-7.75-10.04-20.46-13.46-33.59-14.77-40.64"/>
        <path class="cls-25" d="M768.38,513.12c-.06-.1-.1-.2-.16-.3"/>
        <path class="cls-25" d="M919.86,632.8s-.06-.06-.08-.09c-4.29-4.81-8.27-8.96-11.98-12.6-1.44-1.43-2.84-2.77-4.2-4.04-21.38-20.07-32.62-23.05-39.61-39.93-3.85-9.26-7.84-31.6-20.12-50.75-.75-1.2-1.55-2.38-2.39-3.55-1.85-2.61-3.88-5.14-6.1-7.53-2.7-2.92-4.59-5.4-5.92-7.56-3.19-5.17-3.15-8.46-3.31-11.14h0"/>
        <path class="cls-25" d="M767.96,541.31c-4.78,53.07-.16,77.33,25.55,94.74,1.7,1.16,3.5,2.28,5.39,3.38,1.76,1.03,3.61,2.04,5.55,3.03,1.83.93,3.72,1.85,5.71,2.76,9.22,4.25,20.14,8.28,33.01,12.55,1.87.62,3.78,1.25,5.74,1.89.8.26,1.63.53,2.45.79.29.09.49.17.93.32"/>
        <path class="cls-25" d="M768.21,512.8s0,0,0,.01c.49,2.31.9,5.22,1.01,8.96.09,3.15-.04,6.88-.49,11.32-.28,2.81-.54,5.54-.78,8.2"/>
        <path class="cls-25" d="M826.1,531.67c4.07,10.44,2.96,22.73-.08,34.09-1.82,6.82-4.33,13.31-6.84,18.88-1.67,3.71-3.34,7.01-4.79,9.73-1.97,3.7-3.54,6.29-4.18,7.34"/>
        <path class="cls-25" d="M834.85,607.93c2.78,1.94,5.19,3.66,6.87,4.9.83.62,1.47,1.12,1.89,1.47,1.07.9,2.12,1.76,3.14,2.58,1.7,1.37,3.37,2.67,5.07,4,1.63,1.29,3.29,2.62,5.04,4.05,1,.83,2.03,1.7,3.1,2.62,1.34,1.15,2.73,2.4,4.21,3.77,1.21,1.12,2.47,2.33,3.8,3.64"/>
        <path class="cls-25" d="M814.39,594.37c5.92,3.65,14.14,9.16,20.45,13.55"/>
        <path class="cls-25" d="M853.28,656.44c-.28,1.37-.65,2.77-.99,4.32-.68,3.14-1.23,6.92-.69,12.53.97,10.03,7.58,13.63,10.89,15.04.84.34,1.45.56,1.74.7"/>
        <path class="cls-25" d="M864.24,689.03c-.64-.12-1.22-.36-1.74-.7-4.49-2.98-4.46-13.95-2.02-24.67,2.49-11,7.53-21.73,12.81-23.27,1.11-.32,2.24-.23,3.35.34.65.35,1.3.85,1.95,1.55,0,0-.12,1.28-.39,3.41-1.31,11.01-6.01,44.79-13.96,43.35Z"/>
        <path class="cls-25" d="M805.05,422.65c19.65,19.88,17.67,41.37,17.67,41.37l-34.64,6.51c1.57-14.63-5.77-32.65-8.87-39.48"/>
        <path class="cls-25" d="M802.6,424.31c3.94,5.49,15.2,22.34,15.12,35.27l-23.3,4s-2.11-17.75-10.55-32.78"/>
        <polyline class="cls-25" points="769.23 521.77 806.51 512.48 811.07 511.34 815.64 510.2 829.46 506.75"/>
        <polyline class="cls-25" points="826.51 494.45 826.06 494.53 813.72 496.62 809.15 497.41 804.6 498.18 765.73 504.81 764.27 505.06"/>
        <path class="cls-25" d="M813.72,496.62c-.03,2.81.16,8.23,1.92,13.57"/>
        <path class="cls-25" d="M809.15,497.41c-.06,2.69.08,8.36,1.92,13.93"/>
        <path class="cls-25" d="M804.6,498.18c-.08,2.52-.01,8.47,1.91,14.3"/>
        <path class="cls-25" d="M857.47,628.77l5.56,3.28,4.92,2.92,8.96,5.3,4.61,2.72,4.7,2.78,3.11,1.84c-12.13,28.38,11.3,34.59,11.3,34.59.04-.03.07-.06.1-.09,6.68-5.69,16.11-38.39,19.12-49.29"/>
        <path class="cls-25" d="M798.01,536.5s-7.17-.78-16.88.99c-4.06.74-8.56,1.92-13.17,3.8h0"/>
        <path class="cls-25" d="M781.13,537.5c-2.51,13.95-9.1,56.6,1.59,69.66,3.98,4.87,10.64,10.09,17.93,14.97,1.75,1.18,3.54,2.33,5.34,3.45,1.81,1.14,3.63,2.25,5.42,3.31,1.87,1.1,3.71,2.16,5.49,3.17,10.64,6.01,19.34,10.15,19.34,10.15"/>
        <line class="cls-25" x1="800.65" y1="622.13" x2="793.51" y2="636.04"/>
        <line class="cls-25" x1="848.17" y1="600.28" x2="841.72" y2="612.83"/>
        <line class="cls-25" x1="805.99" y1="625.58" x2="798.89" y2="639.42"/>
        <line class="cls-25" x1="853.3" y1="604.15" x2="846.75" y2="616.89"/>
        <line class="cls-25" x1="811.42" y1="628.89" x2="804.45" y2="642.45"/>
        <line class="cls-25" x1="858.52" y1="607.84" x2="851.82" y2="620.89"/>
        <line class="cls-25" x1="816.91" y1="632.06" x2="810.15" y2="645.21"/>
        <line class="cls-25" x1="863.81" y1="611.39" x2="856.86" y2="624.94"/>
        <path class="cls-25" d="M857.09,629c-5.73-3.41-11.27-8.42-16.42-14.13-2-2.22-3.95-4.56-5.82-6.94h0c-6.17-7.85-11.54-16.26-15.66-23.29"/>
        <path class="cls-25" d="M880.94,622s-7.89-4.54-17.13-10.6c-1.73-1.13-3.51-2.32-5.29-3.56-1.76-1.2-3.51-2.44-5.23-3.69-1.77-1.28-3.48-2.58-5.13-3.86-4.56-3.6-8.49-7.15-10.84-10.21-5.51-7.24-9.22-17.32-11.31-24.31"/>
        <path class="cls-25" d="M886.23,645.75c6.1-15.99,16.49-23.03,21.57-25.64"/>
        <path class="cls-25" d="M881.53,642.98c1.67-5.89,7.29-21.01,22.07-26.9"/>
        <path class="cls-25" d="M857.47,628.77c-.13.07-.26.15-.38.24-9.6,6.18-13.01,22.9-13.93,28.75"/>
        <path class="cls-25" d="M848.91,659.64c2.48-16.86,9.4-24.36,14.13-27.6"/>
        <path class="cls-25" d="M900.74,682.1c-3.99-2.11-4.67-8.78,1.15-29.2,7.29-25.56,17.73-20.05,17.73-20.05"/>
        <polyline class="cls-25" points="832.42 528.97 838.19 527.17 838.2 527.16 843.87 525.39"/>
      </g>
    </g>
  </g>
</svg>