<?xml version="1.0" encoding="UTF-8"?>
<svg xmlns="http://www.w3.org/2000/svg" xmlns:xlink="http://www.w3.org/1999/xlink" viewBox="0 0 1200 800">
  <defs>
    <style>
      .cls-1 {
        fill: #9dd5fa;
      }

      .cls-1, .cls-2, .cls-3, .cls-4, .cls-5, .cls-6, .cls-7, .cls-8, .cls-9, .cls-10, .cls-11, .cls-12, .cls-13, .cls-14, .cls-15, .cls-16, .cls-17, .cls-18, .cls-19, .cls-20, .cls-21 {
        stroke-width: 0px;
      }

      .cls-2 {
        fill: #0052b4;
      }

      .cls-3 {
        fill: #9dd7c5;
      }

      .cls-22 {
        clip-path: url(#clippath);
      }

      .cls-4, .cls-23, .cls-24, .cls-25, .cls-26, .cls-27, .cls-28, .cls-29 {
        fill: none;
      }

      .cls-5 {
        fill: #01bd9c;
      }

      .cls-23, .cls-24, .cls-26 {
        stroke: #020147;
      }

      .cls-23, .cls-24, .cls-26, .cls-29 {
        stroke-width: 1.5px;
      }

      .cls-23, .cls-24, .cls-27, .cls-28, .cls-29, .cls-30 {
        stroke-linecap: round;
      }

      .cls-23, .cls-29, .cls-30 {
        stroke-linejoin: round;
      }

      .cls-6 {
        fill: #d80027;
      }

      .cls-7 {
        fill: #fd0177;
      }

      .cls-31 {
        clip-path: url(#clippath-1);
      }

      .cls-8 {
        fill: #f4e301;
      }

      .cls-9 {
        fill: #000;
      }

      .cls-10 {
        fill: #ddf1ed;
      }

      .cls-11 {
        fill: #bee3d9;
      }

      .cls-24, .cls-25, .cls-26, .cls-27, .cls-28 {
        stroke-miterlimit: 10;
      }

      .cls-12 {
        fill: #0fbbfb;
      }

      .cls-13 {
        fill: #27bd9c;
      }

      .cls-14 {
        fill: #ddf1ec;
      }

      .cls-15 {
        fill: #ba1856;
      }

      .cls-16 {
        fill: #020147;
      }

      .cls-17 {
        fill: #ffda44;
      }

      .cls-25, .cls-27, .cls-28 {
        stroke-width: 4px;
      }

      .cls-25, .cls-28 {
        stroke: #9dd5fa;
      }

      .cls-18 {
        fill: #0e04b1;
      }

      .cls-27 {
        stroke: #9ad7c5;
      }

      .cls-19 {
        fill: #14659f;
      }

      .cls-29 {
        stroke: #020144;
      }

      .cls-20 {
        fill: #fff;
      }

      .cls-21 {
        fill: #29bcfc;
      }

      .cls-30 {
        fill: #3da638;
        stroke: #1c511c;
        stroke-width: 2px;
      }
    </style>
    <clipPath id="clippath">
      <rect class="cls-4" x="978.57" y="461.8" width="100" height="100"/>
    </clipPath>
    <clipPath id="clippath-1">
      <rect class="cls-4" x="567.29" y="536.77" width="100" height="100"/>
    </clipPath>
  </defs>
  <g id="Bottom_layer" data-name="Bottom layer">
    <g class="cls-22">
      <g>
        <path class="cls-17" d="M981.68,529.19c7.06,19.04,25.39,32.61,46.89,32.61s39.83-13.57,46.89-32.61l-46.89-4.35-46.89,4.35Z"/>
        <path class="cls-9" d="M1028.57,461.8c-21.5,0-39.83,13.57-46.89,32.61l46.89,4.35,46.89-4.35c-7.06-19.04-25.39-32.61-46.89-32.61Z"/>
        <path class="cls-6" d="M981.68,494.41c-2.01,5.42-3.11,11.28-3.11,17.39s1.1,11.97,3.11,17.39h93.78c2.01-5.42,3.11-11.28,3.11-17.39s-1.1-11.97-3.11-17.39h-93.78Z"/>
      </g>
    </g>
    <line class="cls-26" x1="404.7" y1="384.15" x2="960" y2="384.15"/>
    <line class="cls-26" x1="893.42" y1="198.49" x2="765.63" y2="384.15"/>
    <line class="cls-26" x1="837.87" y1="576.29" x2="788.56" y2="384.15"/>
    <line class="cls-26" x1="735.63" y1="384.15" x2="620" y2="582.03"/>
    <path class="cls-28" d="M970.03,248.27c-16.97,22.3-43.79,36.7-73.97,36.7"/>
    <path class="cls-28" d="M940.32,110.42c28.95,15.73,48.61,46.4,48.61,81.67,0,5.06-.41,10.03-1.19,14.88"/>
    <path class="cls-28" d="M829.45,256.83c-16.27-16.73-26.28-39.57-26.28-64.74,0-51.3,41.58-92.88,92.88-92.88,7.86,0,15.49.98,22.78,2.81"/>
    <circle class="cls-21" cx="836.62" cy="563.9" r="104.67"/>
    <circle class="cls-21" cx="896.05" cy="192.09" r="81.89"/>
    <circle class="cls-10" cx="282.8" cy="384.15" r="142.44"/>
    <circle class="cls-14" cx="611.49" cy="384.15" r="76.12"/>
    <circle class="cls-1" cx="979.35" cy="384.15" r="52.69"/>
    <circle class="cls-19" cx="734.32" cy="229.77" r="41.4"/>
    <circle class="cls-13" cx="749.57" cy="308.87" r="16.09"/>
    <circle class="cls-1" cx="1021.95" cy="655.33" r="16.09"/>
    <circle class="cls-3" cx="527.15" cy="544.62" r="21.85"/>
    <circle class="cls-3" cx="1043.03" cy="303.11" r="21.85"/>
    <circle class="cls-11" cx="1063.02" cy="285.82" r="21.85"/>
    <g>
      <path class="cls-7" d="M599.12,346.83v.04c.56-.02,1.15-.04,1.73-.04h-1.73Z"/>
      <path class="cls-7" d="M631.68,363.15h27.77v-16.33h-58.6c12.8,0,24.11,6.48,30.83,16.33Z"/>
      <path class="cls-12" d="M637.26,392.32h22.2v-16.33h-22.2c.58,2.63.9,5.35.9,8.16s-.31,5.53-.9,8.16Z"/>
      <path class="cls-8" d="M599.12,421.48h1.73c-.58,0-1.15-.02-1.73-.04v.04Z"/>
      <path class="cls-8" d="M600.85,421.48h58.6v-16.33h-27.77c-6.72,9.85-18.04,16.33-30.83,16.33Z"/>
      <path class="cls-5" d="M637.26,375.99c-1.03-4.68-2.97-9.02-5.58-12.84-6.72-9.85-18.04-16.33-30.83-16.33-.58,0-1.15.02-1.73.04-19.79.9-35.6,17.27-35.6,37.28s15.81,36.36,35.6,37.28c.56.02,1.15.04,1.73.04,12.8,0,24.11-6.48,30.83-16.33,2.61-3.82,4.54-8.16,5.58-12.84.58-2.63.9-5.35.9-8.16s-.31-5.53-.9-8.16ZM600.85,405.16c-11.58,0-21-9.42-21-21s9.42-21,21-21c8.68,0,16.17,5.31,19.34,12.84,1.06,2.52,1.64,5.26,1.64,8.16s-.58,5.64-1.64,8.16c-3.19,7.53-10.66,12.84-19.34,12.84Z"/>
    </g>
    <path class="cls-27" d="M352.89,552.68c-21.58,8.99-45.26,13.95-70.09,13.95-41.38,0-79.54-13.77-110.15-36.98"/>
    <path class="cls-27" d="M444.49,299.5c13.27,25.3,20.78,54.1,20.78,84.66,0,21.3-3.65,41.75-10.36,60.76"/>
    <path class="cls-27" d="M140.96,269.35c33.45-41.28,84.57-67.67,141.84-67.67,44.09,0,84.53,15.64,116.07,41.67"/>
    <path class="cls-27" d="M425.47,453.96c-25.84,52.71-80.02,88.99-142.67,88.99"/>
    <path class="cls-27" d="M336.99,234.84c61.02,22.15,104.61,80.64,104.61,149.31,0,1.57-.02,3.13-.07,4.69"/>
    <path class="cls-27" d="M125.75,407.81c-1.15-7.72-1.75-15.62-1.75-23.66,0-54.81,27.77-103.14,70.01-131.68"/>
    <circle class="cls-13" cx="254.27" cy="603.55" r="16.09"/>
    <circle class="cls-10" cx="137.82" cy="507.72" r="20.91"/>
    <circle class="cls-10" cx="346.36" cy="203.71" r="20.91"/>
    <path class="cls-28" d="M802.79,141.63c14.14-26.08,38.9-45.56,68.48-52.65"/>
    <path class="cls-28" d="M922.71,294.72c-8.52,2.21-17.45,3.38-26.65,3.38-40.25,0-75.27-22.43-93.22-55.48"/>
    <path class="cls-28" d="M996.43,157.88c3.66,10.73,5.64,22.24,5.64,34.21,0,36.59-18.54,68.86-46.74,87.91"/>
    <path class="cls-28" d="M871.26,88.99c7.95-1.9,16.25-2.91,24.79-2.91,31.24,0,59.32,13.51,78.72,35.01"/>
    <path class="cls-25" d="M728.56,603.58c-4.54-12.37-7.02-25.73-7.02-39.68,0-63.56,51.52-115.08,115.08-115.08,10.43,0,20.54,1.39,30.15,3.99"/>
    <path class="cls-25" d="M897.8,661.39c-17.72,11.15-38.7,17.59-61.18,17.59-36.93,0-69.79-17.39-90.85-44.43"/>
    <path class="cls-25" d="M944.49,523.72c4.66,12.51,7.21,26.05,7.21,40.18,0,29.89-11.39,57.12-30.08,77.58"/>
    <path class="cls-25" d="M866.77,452.81c28.53,7.72,52.67,26.15,67.83,50.7"/>
    <path class="cls-25" d="M738.08,479.38c15.69-18.27,36.37-32.14,59.94-39.46"/>
    <path class="cls-25" d="M782.13,681.77c-44.48-20.6-75.33-65.63-75.33-117.87,0-6.31.45-12.51,1.32-18.58"/>
    <path class="cls-25" d="M951.14,625.11c-21.87,40.84-64.95,68.62-114.52,68.62-3.74,0-7.44-.16-11.1-.47"/>
    <path class="cls-25" d="M882.9,442.57c48.85,18.64,83.55,65.94,83.55,121.33,0,5.61-.36,11.14-1.05,16.56"/>
    <g class="cls-31">
      <g>
        <path class="cls-2" d="M617.29,636.77c27.61,0,50-22.39,50-50s-22.39-50-50-50-50,22.39-50,50,22.39,50,50,50Z"/>
        <path class="cls-17" d="M617.29,556.33l1.62,4.98h5.24l-4.24,3.08,1.62,4.98-4.24-3.08-4.24,3.08,1.62-4.98-4.24-3.08h5.24l1.62-4.98Z"/>
        <path class="cls-17" d="M595.77,565.25l4.67,2.38,3.7-3.7-.82,5.17,4.67,2.38-5.17.82-.82,5.17-2.38-4.67-5.17.82,3.7-3.7-2.38-4.67Z"/>
        <path class="cls-17" d="M586.86,586.77l4.98-1.62v-5.24l3.08,4.24,4.98-1.62-3.08,4.24,3.08,4.24-4.98-1.62-3.08,4.24v-5.24l-4.98-1.62Z"/>
        <path class="cls-17" d="M595.77,608.29l2.38-4.67-3.7-3.7,5.17.82,2.38-4.67.82,5.17,5.17.82-4.67,2.38.82,5.17-3.7-3.7-4.67,2.38Z"/>
        <path class="cls-17" d="M617.29,617.2l-1.62-4.98h-5.24l4.24-3.08-1.62-4.98,4.24,3.08,4.24-3.08-1.62,4.98,4.24,3.08h-5.24l-1.62,4.98Z"/>
        <path class="cls-17" d="M638.81,608.29l-4.67-2.38-3.7,3.7.82-5.17-4.67-2.38,5.17-.82.82-5.17,2.38,4.67,5.17-.82-3.7,3.7,2.38,4.67Z"/>
        <path class="cls-17" d="M647.73,586.77l-4.98,1.62v5.24l-3.08-4.24-4.98,1.62,3.08-4.24-3.08-4.24,4.98,1.62,3.08-4.24v5.24l4.98,1.62Z"/>
        <path class="cls-17" d="M638.81,565.25l-2.38,4.67,3.7,3.7-5.17-.82-2.38,4.67-.82-5.17-5.17-.82,4.67-2.38-.82-5.17,3.7,3.7,4.67-2.38Z"/>
      </g>
    </g>
  </g>
  <g id="Top_layer" data-name="Top layer">
    <g>
      <g>
        <path class="cls-16" d="M929.95,227.19l29.79,15.11c-11.03,13.98-26.56,24.23-44.41,28.58,7-11.03,14.56-17.71,14.56-17.71l-7.54-10.79,4.76-.47,2.84-14.72Z"/>
        <path class="cls-16" d="M944.27,153.7c0,5.21-2.62,9.8-6.62,12.53.13-7.46-2.55-15.32-11.41-21.47-1.98-1.38-3.96-2.51-5.93-3.42,2.48-1.77,5.51-2.81,8.79-2.81,8.38,0,15.17,6.79,15.17,15.17Z"/>
        <path class="cls-16" d="M898.22,177.43c-.06-.15-.11-.31-.16-.47-3.57-11.51-.28-18.09-9.05-19.46s-16.44,8.77-16.72,14.8c-.03.69-.13,1.86-.26,3.38-18.74-3.7.71-24.62,3.74-26.59,2.84-1.84,22.86-17.87,44.54-7.75,1.97.91,3.95,2.04,5.93,3.42,8.86,6.15,11.54,14.01,11.41,21.47-.15,9.09-4.49,17.57-6.89,21.59-2.71-1.91-6.95-.43-9.13,3.94,0,0-19.46-3.2-23.41-14.33Z"/>
        <path class="cls-20" d="M898.22,177.43c3.95,11.13,23.41,14.33,23.41,14.33,2.18-4.37,6.42-5.85,9.13-3.94,1.71,1.19,2.81,3.74,2.38,7.78-1.1,10.41-13.7,10.96-13.7,10.96,0,0-.78,1.95-3.03,4.37-3.71,4.01-11.44,9.34-26.3,9.34-.26,0-.52-.01-.77-.01-20.29-.8-18.24-32.99-17.31-44.58.13-1.52.23-2.69.26-3.38.28-6.03,7.95-16.17,16.72-14.8s5.48,7.95,9.05,19.46c.05.16.1.32.16.47ZM898.5,187.54c0-2.07-.83-3.75-1.84-3.75s-1.83,1.68-1.83,3.75.82,3.74,1.83,3.74,1.84-1.67,1.84-3.74ZM896.43,204.71l-14.03-.32s5.42,2.55,14.03.32ZM882.47,187.54c0-2.07-.82-3.75-1.83-3.75s-1.83,1.68-1.83,3.75.82,3.74,1.83,3.74,1.83-1.67,1.83-3.74Z"/>
        <path class="cls-19" d="M929.95,227.19l-2.84,14.72-4.76.47,7.54,10.79s-7.56,6.68-14.56,17.71c-4.82,1.18-9.8,1.92-14.92,2.19,11.22-31.42,21.56-44.09,25.38-47.99l4.16,2.11Z"/>
        <path class="cls-20" d="M917.94,221.1l7.85,3.98c-3.82,3.9-14.16,16.57-25.38,47.99-1.44.08-2.9.12-4.36.12-4.19,0-8.3-.32-12.31-.92-.49-17.6.08-38.1.35-46.13.08-2.21.13-3.47.13-3.47l.11-.16,4.83.84,6.22,1.08,3.25,8.82,1.75-8.62,17.56-3.53ZM896.68,241.67c0-.95-.76-1.71-1.71-1.71s-1.72.76-1.72,1.71.77,1.72,1.72,1.72,1.71-.77,1.71-1.72ZM894.91,252.67c0-.95-.77-1.72-1.71-1.72s-1.72.77-1.72,1.72.77,1.72,1.72,1.72,1.71-.77,1.71-1.72ZM893.79,263.78c0-.95-.77-1.72-1.71-1.72s-1.72.77-1.72,1.72.77,1.71,1.72,1.71,1.71-.77,1.71-1.71Z"/>
        <path class="cls-20" d="M917.94,221.1l-17.56,3.53-1.75,8.62-3.25-8.82-6.22-1.08.18-3.09c.25,0,.51.01.77.01,14.86,0,22.59-5.33,26.3-9.34l.64,9.72.89.45Z"/>
        <path class="cls-16" d="M896.66,183.79c1.01,0,1.84,1.68,1.84,3.75s-.83,3.74-1.84,3.74-1.83-1.67-1.83-3.74.82-3.75,1.83-3.75Z"/>
        <path class="cls-16" d="M882.4,204.39l14.03.32c-8.61,2.23-14.03-.32-14.03-.32Z"/>
        <path class="cls-16" d="M894.97,239.96c.95,0,1.71.76,1.71,1.71s-.76,1.72-1.71,1.72-1.72-.77-1.72-1.72.77-1.71,1.72-1.71Z"/>
        <path class="cls-16" d="M893.2,250.95c.94,0,1.71.77,1.71,1.72s-.77,1.72-1.71,1.72-1.72-.77-1.72-1.72.77-1.72,1.72-1.72Z"/>
        <path class="cls-16" d="M892.08,262.06c.94,0,1.71.77,1.71,1.72s-.77,1.71-1.71,1.71-1.72-.77-1.72-1.71.77-1.72,1.72-1.72Z"/>
        <path class="cls-19" d="M884.09,226.14c-.27,8.03-.84,28.53-.35,46.13-4.45-.69-8.77-1.72-12.95-3.1-3.16-7.52-5.45-16.69-5.45-16.69l9.87-9.18-4.3-2.43,7.2-12.71c2.24-.76,4.28-1.45,5.98-2.02Z"/>
        <path class="cls-16" d="M880.64,183.79c1.01,0,1.83,1.68,1.83,3.75s-.82,3.74-1.83,3.74-1.83-1.67-1.83-3.74.82-3.75,1.83-3.75Z"/>
        <path class="cls-16" d="M878.11,228.16l-7.2,12.71,4.3,2.43-9.87,9.18s2.29,9.17,5.45,16.69c-11.29-3.69-21.49-9.79-29.98-17.7.3-1.84,2.17-11.8,8.82-13.87,4.52-1.4,18.45-6.07,28.48-9.44Z"/>
      </g>
      <g>
        <path class="cls-24" d="M930.76,187.82c-2.71-1.91-6.95-.43-9.13,3.94,0,0-19.46-3.2-23.41-14.33-.06-.15-.11-.31-.16-.47-3.57-11.51-.28-18.09-9.05-19.46s-16.44,8.77-16.72,14.8c-.03.69-.13,1.86-.26,3.38-.93,11.59-2.98,43.78,17.31,44.58.25,0,.51.01.77.01,14.86,0,22.59-5.33,26.3-9.34,2.25-2.42,3.03-4.37,3.03-4.37,0,0,12.6-.55,13.7-10.96.43-4.04-.67-6.59-2.38-7.78Z"/>
        <path class="cls-24" d="M930.76,187.82c2.4-4.02,6.74-12.5,6.89-21.59.13-7.46-2.55-15.32-11.41-21.47-1.98-1.38-3.96-2.51-5.93-3.42-21.68-10.12-41.7,5.91-44.54,7.75-3.03,1.97-22.48,22.89-3.74,26.59"/>
        <path class="cls-24" d="M937.65,166.23c4-2.73,6.62-7.32,6.62-12.53,0-8.38-6.79-15.17-15.17-15.17-3.28,0-6.31,1.04-8.79,2.81"/>
        <path class="cls-24" d="M926.6,193.42s2.51,4.91-2.77,7.93"/>
        <path class="cls-29" d="M882.47,187.54c0,2.07-.82,3.74-1.83,3.74s-1.83-1.67-1.83-3.74.82-3.75,1.83-3.75,1.83,1.68,1.83,3.75Z"/>
        <path class="cls-29" d="M898.5,187.54c0,2.07-.83,3.74-1.84,3.74s-1.83-1.67-1.83-3.74.82-3.75,1.83-3.75,1.84,1.68,1.84,3.75Z"/>
        <path class="cls-29" d="M882.4,204.39s5.42,2.55,14.03.32"/>
        <path class="cls-29" d="M885.43,199.92s-2.07-.95-2.71-3.19c-.39-1.36,1.14-4.35,2.38-6.45,1.36-2.32,1.71-5.16.67-7.65-1.08-2.6-3.58-5.09-9.19-4.63"/>
        <path class="cls-29" d="M840.81,251.47c.3-1.84,2.17-11.8,8.82-13.87,4.52-1.4,18.45-6.07,28.48-9.44,2.24-.76,4.28-1.45,5.98-2.02"/>
        <line class="cls-29" x1="889.34" y1="220.26" x2="889.16" y2="223.35"/>
        <polyline class="cls-29" points="959.74 242.3 929.95 227.19 925.79 225.08 917.94 221.1 917.05 220.65 916.41 210.93"/>
        <path class="cls-29" d="M900.41,273.07c11.22-31.42,21.56-44.09,25.38-47.99"/>
        <path class="cls-29" d="M883.74,272.27c-.49-17.6.08-38.1.35-46.13.08-2.21.13-3.47.13-3.47"/>
        <polyline class="cls-29" points="884.33 222.51 889.16 223.35 895.38 224.43 898.63 233.25 900.38 224.63 917.94 221.1"/>
        <path class="cls-29" d="M892.24,179.38s2.42-1.6,5.98-1.95c1.79-.19,3.87-.06,6.07.75"/>
        <path class="cls-29" d="M896.68,241.67c0,.95-.76,1.72-1.71,1.72s-1.72-.77-1.72-1.72.77-1.71,1.72-1.71,1.71.76,1.71,1.71Z"/>
        <path class="cls-29" d="M894.91,252.67c0,.95-.77,1.72-1.71,1.72s-1.72-.77-1.72-1.72.77-1.72,1.72-1.72,1.71.77,1.71,1.72Z"/>
        <path class="cls-29" d="M893.79,263.78c0,.94-.77,1.71-1.71,1.71s-1.72-.77-1.72-1.71.77-1.72,1.72-1.72,1.71.77,1.71,1.72Z"/>
        <path class="cls-29" d="M915.33,270.88c7-11.03,14.56-17.71,14.56-17.71l-7.54-10.79,4.76-.47,2.84-14.72"/>
        <path class="cls-29" d="M870.79,269.17c-3.16-7.52-5.45-16.69-5.45-16.69l9.87-9.18-4.3-2.43,7.2-12.71"/>
        <path class="cls-29" d="M840.81,251.47c8.49,7.91,18.69,14.01,29.98,17.7,4.18,1.38,8.5,2.41,12.95,3.1,4.01.6,8.12.92,12.31.92,1.46,0,2.92-.04,4.36-.12,5.12-.27,10.1-1.01,14.92-2.19,17.85-4.35,33.38-14.6,44.41-28.58"/>
      </g>
    </g>
    <g>
      <g>
        <path class="cls-18" d="M894.8,611.79l26.71,12.05c-13.02,18.43-31.89,32.45-53.9,39.33,8.16-20.97,20.25-40.8,27.19-51.38Z"/>
        <path class="cls-20" d="M863.88,635.51c1.15-.95,2.08-2.23,2.08-2.23l-3.33.56s.56.68,1.25,1.67ZM855.81,653.32c-1.42-1.82-2.93-3.19-2.93-3.19,0,0-2.88,4.32-2.55,4.1.27-.17,2.35.84,5.48-.91ZM846.07,667.47c-2.95.27-5.93.42-8.95.43,8.97-28.62,27.88-57.56,34.16-66.72l19.85,8.95c-6.95,10.49-20.25,31.99-28.74,54.53-3.62.93-7.31,1.67-11.07,2.19-1.74.26-3.49.46-5.25.62ZM875.99,619.09c-.48-.79-.95-1.34-.95-1.43,0-.33-4.54.11-4.54.11,0,0,.99,3.06,5.49,1.32Z"/>
        <path class="cls-20" d="M875.04,617.66c0,.09.47.64.95,1.43-4.5,1.74-5.49-1.32-5.49-1.32,0,0,4.54-.44,4.54-.11Z"/>
        <path class="cls-15" d="M834.73,661.53h0c9.71-27.46,27.3-54.06,32.8-62.04l3.74,1.69c-6.28,9.16-25.19,38.1-34.16,66.72-.2.01-.41.01-.62.01-1.29,0-2.57-.02-3.85-.08.62-2.03,1.29-4.06,2-6.08h0c.03-.08.06-.16.08-.22Z"/>
        <path class="cls-20" d="M864.76,598.24l2.78,1.25c-5.5,7.98-23.09,34.58-32.8,62.03l3.38-47.29,4.34-10.52.56-.26c2.64,2.27,4.37,6.39,5.37,9.54.55,1.73,2.82,2.14,3.96.72l12.41-15.47Z"/>
        <path class="cls-16" d="M797.86,535.49c-.09.63-.22,1.59-.37,2.81-2.55-1.59-9.52-6.4-10.73-12.47-1.49-7.46,10.18-6.78,10.18-6.78,0,0-6.38-6.11-2.85-8.55,3.52-2.44,14.38-.95,18.04-1.9s16.69-11.8,32.42-7.32c15.74,4.47,23.2,16.55,21.17,23.47,0,0,8.41,3.66,1.08,27.67-10.37-4.08-13.03,11.09-13.03,11.09-2.6.1-2.5-4.11-2.8-7.01s-7.6-3.4-7.6-3.4c0,0,.9-3.7,0-13.1s-15.51-7.1-19.31-7.1-9.3,1.3-9.3,1.3c0,0-6.6-1.4-9.8-.2-2.27.85-5.45,1.3-7.1,1.49Z"/>
        <path class="cls-20" d="M823.01,596.96c-4.62.32-7.49-.65-7.49-.65-12.64-3.96-17.22-18.1-18.55-31.84,1.65,1.97,4.32,3.34,8.63,3.34,10.27,0,10.36-10.78,10.07-14.58,2.44-2.37,5.27-.13,5.48.04-.1,5.17-.03,14.94,11.7,14.94,10.63,0,10.76-11.13,10.47-15.11h.05s7.3.5,7.6,3.4.2,7.11,2.8,7.01c0,0,2.66-15.17,13.03-11.09,0,0,11.26,14.25-7.46,23.74l.66,19.33-16.98,7.96-.56.26-4.34,10.52-2.05-10.84-1.17-.38-12.25-3.98c.13-.05.2-.08.2-.08l.16-1.99Z"/>
        <path class="cls-20" d="M864.76,598.24l-12.41,15.47c-1.14,1.42-3.41,1.01-3.96-.72-1-3.15-2.73-7.27-5.37-9.54l16.98-7.96.02.61,4.74,2.14Z"/>
        <path class="cls-20" d="M852.88,650.13s1.51,1.37,2.93,3.19c-3.13,1.75-5.21.74-5.48.91-.33.22,2.55-4.1,2.55-4.1Z"/>
        <path class="cls-20" d="M843.37,540c.9,9.4,0,13.1,0,13.1h-.05c-.07-.87-.15-1.4-.15-1.4-11.12-5.38-22.01.12-22.01.12v.1h-5.63c-7.73-3.75-15.35-2.02-18.98-.78.14-5.3.58-9.86.94-12.84.15-1.22.28-2.18.37-2.81,1.65-.19,4.83-.64,7.1-1.49,3.2-1.2,9.8.2,9.8.2,0,0,5.5-1.3,9.3-1.3s18.41-2.3,19.31,7.1Z"/>
        <path class="cls-20" d="M843.32,553.1c.29,3.98.16,15.11-10.47,15.11-11.73,0-11.8-9.77-11.7-14.94h0s0-1.35,0-1.35v-.1s10.89-5.5,22.01-.12c0,0,.08.53.15,1.4ZM832.04,557.49c0-1.72-.66-3.12-1.49-3.12s-1.48,1.4-1.48,3.12.66,3.13,1.48,3.13,1.49-1.4,1.49-3.13Z"/>
        <path class="cls-20" d="M836.07,603.39l2.05,10.84-3.38,47.29h0c-.02.07-.05.15-.08.22l-21.18-59.11c1.24-.49,2.39-.94,3.43-1.35l-.02.05,8.93,12.81c1.06,1.52,3.41,1.14,3.94-.65,1.03-3.46,2.74-8.01,5.15-10.48l1.17.38Z"/>
        <path class="cls-20" d="M822.65,599.03l12.25,3.98c-2.41,2.47-4.12,7.02-5.15,10.48-.53,1.79-2.88,2.17-3.94.65l-8.93-12.81.02-.05h0l1.81-3.53,3.93,1.28Z"/>
        <path class="cls-18" d="M834.65,661.74h0c-.71,2.03-1.38,4.06-2,6.09-2.28-.07-4.54-.23-6.77-.46h-.01l-20.25-28.68,5.03-17.68-5.55-.52,1.18-15.03c2.6-1.03,5.03-1.98,7.19-2.83l21.18,59.11Z"/>
        <path class="cls-16" d="M830.55,554.37c.83,0,1.49,1.4,1.49,3.12s-.66,3.13-1.49,3.13-1.48-1.4-1.48-3.13.66-3.12,1.48-3.12Z"/>
        <path class="cls-18" d="M805.62,638.69l20.25,28.68c-27.39-2.78-51.63-16.18-68.54-36.03,1.19-2.95,3.71-7.84,7.86-9.6,3.82-1.61,25.44-10.13,41.09-16.28l-1.18,15.03,5.55.52-5.03,17.68Z"/>
        <path class="cls-20" d="M815.67,553.23c.29,3.8.2,14.58-10.07,14.58-4.31,0-6.98-1.37-8.63-3.34-3.14-3.73-2.62-9.63-2.62-12.44,0,0,.81-.41,2.2-.89,3.63-1.24,11.25-2.97,18.98.78,0,0,.08.49.14,1.31ZM810.65,557.49c0-1.72-.66-3.12-1.48-3.12s-1.49,1.4-1.49,3.12.66,3.13,1.49,3.13,1.48-1.4,1.48-3.13Z"/>
        <path class="cls-16" d="M809.17,554.37c.82,0,1.48,1.4,1.48,3.12s-.66,3.13-1.48,3.13-1.49-1.4-1.49-3.13.66-3.12,1.49-3.12Z"/>
      </g>
      <g>
        <path class="cls-23" d="M798,534.63s-.05.3-.14.86c-.09.63-.22,1.59-.37,2.81-.36,2.98-.8,7.54-.94,12.84"/>
        <path class="cls-23" d="M796.97,564.47c1.33,13.74,5.91,27.88,18.55,31.84,0,0,2.87.97,7.49.65,5.41-.37,13.21-2.5,21.65-10.01"/>
        <path class="cls-23" d="M822.65,599.03c.13-.05.2-.08.2-.08l.16-1.99"/>
        <path class="cls-23" d="M825.87,667.37c-27.39-2.78-51.63-16.18-68.54-36.03,1.19-2.95,3.71-7.84,7.86-9.6,3.82-1.61,25.44-10.13,41.09-16.28,2.6-1.03,5.03-1.98,7.19-2.83,1.24-.49,2.39-.94,3.43-1.35"/>
        <path class="cls-23" d="M797.49,538.3c-2.55-1.59-9.52-6.4-10.73-12.47-1.49-7.46,10.18-6.78,10.18-6.78,0,0-6.38-6.11-2.85-8.55,3.52-2.44,14.38-.95,18.04-1.9s16.69-11.8,32.42-7.32c15.74,4.47,23.2,16.55,21.17,23.47,0,0,8.41,3.66,1.08,27.67,0,0,11.26,14.25-7.46,23.74l.66,19.33.02.61,4.74,2.14,2.78,1.25,3.74,1.69,19.85,8.95,3.67,1.66,26.71,12.05c-13.02,18.43-31.89,32.45-53.9,39.33-1.72.55-3.46,1.04-5.22,1.49-3.62.93-7.31,1.67-11.07,2.19-1.74.26-3.49.46-5.25.62-2.95.27-5.93.42-8.95.43-.2.01-.41.01-.62.01-1.29,0-2.57-.02-3.85-.08-2.28-.07-4.54-.23-6.77-.46"/>
        <path class="cls-23" d="M797.86,535.49c1.65-.19,4.83-.64,7.1-1.49,3.2-1.2,9.8.2,9.8.2,0,0,5.5-1.3,9.3-1.3s18.41-2.3,19.31,7.1,0,13.1,0,13.1c0,0,7.3.5,7.6,3.4s.2,7.11,2.8,7.01c0,0,2.66-15.17,13.03-11.09"/>
        <path class="cls-23" d="M861.27,557s6.81,5.21,1,11.61"/>
        <path class="cls-23" d="M843.32,553.1c.29,3.98.16,15.11-10.47,15.11-11.73,0-11.8-9.77-11.7-14.94,0-.5,0-.95,0-1.35v-.1s10.89-5.5,22.01-.12c0,0,.08.53.15,1.4Z"/>
        <path class="cls-23" d="M815.67,553.23c.29,3.8.2,14.58-10.07,14.58-4.31,0-6.98-1.37-8.63-3.34-3.14-3.73-2.62-9.63-2.62-12.44,0,0,.81-.41,2.2-.89,3.63-1.24,11.25-2.97,18.98.78,0,0,.08.49.14,1.31Z"/>
        <path class="cls-23" d="M815.61,553.28s.04-.04.06-.05c2.44-2.37,5.27-.13,5.48.04h0s0-1.35,0-1.35h-5.63"/>
        <path class="cls-23" d="M832.04,557.49c0,1.73-.66,3.13-1.49,3.13s-1.48-1.4-1.48-3.13.66-3.12,1.48-3.12,1.49,1.4,1.49,3.12Z"/>
        <path class="cls-23" d="M810.65,557.49c0,1.73-.66,3.13-1.48,3.13s-1.49-1.4-1.49-3.13.66-3.12,1.49-3.12,1.48,1.4,1.48,3.12Z"/>
        <path class="cls-23" d="M817.3,554.53s-.17,8.08-3.79,13.63c-3.62,5.56,2.94,6.74,2.94,6.74"/>
        <path class="cls-23" d="M817.87,584.61s8.66.67,14.4-1.83"/>
        <path class="cls-23" d="M834.65,661.75c-.71,2.02-1.38,4.05-2,6.08"/>
        <path class="cls-23" d="M834.73,661.53c-.02.06-.05.14-.08.21"/>
        <path class="cls-23" d="M867.54,599.49c-5.5,7.98-23.09,34.58-32.8,62.03"/>
        <path class="cls-23" d="M867.61,663.17c8.16-20.97,20.25-40.8,27.19-51.38"/>
        <path class="cls-23" d="M862.39,664.66c8.49-22.54,21.79-44.04,28.74-54.53"/>
        <path class="cls-23" d="M837.12,667.9c8.97-28.62,27.88-57.56,34.16-66.72"/>
        <path class="cls-23" d="M863.88,635.51c1.74,2.49,4.29,6.89.64,6.97-5.1.11-6.21-2.99-6.21-2.99,0,0-5.76,6.65-5.76,6.98"/>
        <path class="cls-23" d="M863.88,635.51c1.15-.95,2.08-2.23,2.08-2.23l-3.33.56s.56.68,1.25,1.67Z"/>
        <path class="cls-23" d="M875.99,619.09c1.2,2,2.41,5.63-3.94,7.77-8.86,2.99-13.52,1.88-12.19,7.42.74,3.09,2.56,2.42,4.02,1.23"/>
        <path class="cls-23" d="M875.99,619.09c-4.5,1.74-5.49-1.32-5.49-1.32,0,0,4.54-.44,4.54-.11,0,.09.47.64.95,1.43Z"/>
        <path class="cls-23" d="M872.72,608.13s12.19,5.76,5.65,9.75c-.89.54-1.68.94-2.38,1.21"/>
        <path class="cls-23" d="M855.81,653.32c2.05,2.65,3.9,6.27.62,8.11-5.54,3.1-9.98-4.32-9.09,1.33.85,5.4,5.95,1.19,3.98,4.09"/>
        <path class="cls-23" d="M855.81,653.32c-3.13,1.75-5.21.74-5.48.91-.33.22,2.55-4.1,2.55-4.1,0,0,1.51,1.37,2.93,3.19Z"/>
        <path class="cls-23" d="M856.98,647.36s5.99-.33,1.44,3.99c-.93.89-1.81,1.52-2.61,1.97"/>
        <path class="cls-23" d="M846.07,667.47c-.24-.11-.39-.17-.39-.17"/>
        <polyline class="cls-23" points="813.47 602.63 834.65 661.74 834.65 661.75"/>
        <polyline class="cls-23" points="806.28 605.46 805.1 620.49 810.65 621.01 805.62 638.69 825.87 667.37 825.88 667.37"/>
        <path class="cls-23" d="M834.9,603.01c-2.41,2.47-4.12,7.02-5.15,10.48-.53,1.79-2.88,2.17-3.94.65l-8.93-12.81.02-.05h0l1.81-3.53,3.93,1.28,12.25,3.98,1.17.38,2.05,10.84,4.34-10.52.56-.26,16.98-7.96"/>
        <path class="cls-23" d="M843.02,603.45c2.64,2.27,4.37,6.39,5.37,9.54.55,1.73,2.82,2.14,3.96.72l12.41-15.47"/>
        <polyline class="cls-23" points="838.12 614.23 834.74 661.52 834.73 661.53 834.73 661.6"/>
      </g>
    </g>
    <path id="shape" class="cls-30" d="M292.64,414.31c11.77-4.37,17.91-12.79,17.91-27.27s-12.21-27.25-27.46-27.27c-16.1-.03-28.24,12.74-28.04,27.27.19,14.54,7.13,24.21,18.22,27.71l-19.66,48.36c-26.31-6.81-53.07-37.85-53.07-76.07,0-45.27,36.37-81.96,81.96-81.96s82.54,36.7,82.54,81.96c0,38.81-26.5,69.42-53.38,76.2l-19.04-48.93Z"/>
  </g>
</svg>