<?xml version="1.0" encoding="UTF-8" standalone="no"?><!DOCTYPE svg PUBLIC "-//W3C//DTD SVG 1.1//EN" "http://www.w3.org/Graphics/SVG/1.1/DTD/svg11.dtd"><svg width="100%" height="100%" viewBox="0 0 1280 960" version="1.1" xmlns="http://www.w3.org/2000/svg" xmlns:xlink="http://www.w3.org/1999/xlink" xml:space="preserve" xmlns:serif="http://www.serif.com/" style="fill-rule:evenodd;clip-rule:evenodd;stroke-linecap:round;stroke-linejoin:round;stroke-miterlimit:1.5;"><rect id="_01-networking" serif:id="01 networking" x="0" y="0" width="1280" height="960" style="fill:none;"/><g id="_01-networking1" serif:id="01 networking"><g id="Woman---computer" serif:id="Woman &amp; computer"><ellipse cx="259.129" cy="420.062" rx="178.968" ry="183.197" style="fill:#dff1fd;"/><circle cx="259.129" cy="420.062" r="207.333" style="fill:none;stroke:#020144;stroke-width:3.33px;"/><g id="colors"><path d="M264.48,296.128c-0.047,-0.031 -0.094,-0.062 -0.141,-0.093c-0.309,-0.205 -0.612,-0.414 -0.909,-0.626c-0.909,-0.65 -1.757,-1.332 -2.55,-2.04c-1.987,-1.773 -3.626,-3.71 -5.003,-5.723c-4.577,-6.69 -6.261,-14.219 -8.22,-19.378c-0.738,-1.944 -1.516,-3.552 -2.502,-4.652c-0.788,-0.879 -1.71,-1.434 -2.851,-1.577c-1.432,-0.178 -2.576,-0.106 -3.529,0.208c-1.217,0.401 -2.122,1.196 -2.915,2.365c-0.58,0.856 -1.1,1.913 -1.639,3.162c-1.453,3.369 -3.04,8.141 -6.302,14.167c-0.205,0.379 -0.418,0.75 -0.639,1.113c-2.608,4.294 -6.257,7.464 -10.346,9.794c-0.813,0.463 -1.643,0.892 -2.486,1.291c-1.506,0.713 -3.053,1.327 -4.613,1.854c-6.538,2.21 -13.315,2.905 -18.352,3.02c-0.395,0.009 -0.778,0.015 -1.15,0.017c-0.152,0.001 -0.302,0.001 -0.45,0.001c-0.679,-3.796 -4.432,-5.937 -8.145,-5.775c-3.579,0.157 -7.12,2.456 -7.827,7.48c-0.06,0.425 -0.111,0.842 -0.153,1.249c-0.126,1.217 -0.174,2.356 -0.149,3.424c0.089,3.897 1.138,6.838 2.867,9.075c0.245,0.316 0.503,0.618 0.774,0.907c4.078,30.809 -5.161,42.132 -12.138,48.707c-1.53,1.442 -3.396,2.524 -5.542,3.333c-5.556,2.094 -12.987,2.352 -21.313,2.281c-0.867,-0.007 -1.744,-0.018 -2.63,-0.031c-1.545,-0.022 -3.117,-0.05 -4.709,-0.075c3.335,-2.693 5.849,-5.678 7.722,-8.898c2.316,-3.982 3.651,-8.324 4.343,-12.915c1.753,-11.621 -0.613,-24.845 -1.601,-37.907c-0.759,-10.035 -0.706,-19.975 2.652,-29.02c0.135,-0.362 0.271,-0.718 0.409,-1.067c1.971,-4.996 4.29,-8.726 6.783,-11.481c3.248,-3.59 6.792,-5.527 10.245,-6.456c7.626,-2.052 14.807,0.81 17.378,1.621c14.984,-48.115 92.478,-30.213 87.381,23.312c-0.121,1.271 -0.749,4.702 -1.75,9.333" style="fill:#020144;stroke:#000;stroke-width:3.33px;"/><path d="M282.929,529.759c-13.137,-42.836 -6.806,-50.321 -1.92,-69.153c0.575,-2.218 0.685,-4.92 0.43,-7.917l4.53,4.963c2.247,-15.402 3.99,-22.816 8.413,-35.112c2.161,-6.01 5.912,-11.474 9.26,-13.606c-15.792,-22.891 -25.287,-36.069 -33.814,-40.367c-10.139,-5.11 -22.857,-5.801 -35.823,-6.624c3.155,11.326 8.537,47.236 -3.832,55.714c-19.66,13.474 -56.033,-23.169 -68.682,-38.137c-13.74,9.613 -29.778,15.573 -37.113,36.912c-3.257,9.475 -4.409,24.412 -4.342,41.144c5.147,-0.198 13.235,2.084 25.968,10.546c4.696,3.121 8.678,6.634 12.059,10.371c15.268,16.877 18.257,38.311 19.372,48.781c1.517,0.667 3.123,1.369 4.828,2.108c19.936,8.638 30.166,14.444 50.891,16.934c0.648,-3.72 2.151,-9.045 7.027,-9.71c0.412,-2.258 1.447,-5.207 4.228,-5.791c0.299,-1.195 0.93,-2.94 2.546,-4.826c1.088,-1.269 1.764,-1.302 3.865,-0.616c0.658,-1.152 1.659,-2.856 4.758,-2.422c12.583,1.762 15.962,1.728 20.374,3.575c1.374,0.575 2.679,2.1 4.582,4.36" style="fill:#2496ef;stroke:#000;stroke-width:3.33px;"/><path d="M419.343,444.05l-11.667,93.61l-111.234,52.334l11.667,-93.61l111.234,-52.334Z" style="fill:#2496ef;stroke:#000;stroke-width:3.33px;"/><path d="M368.339,505.464c3.927,1.156 5.86,6.357 4.314,11.606c-1.545,5.25 -5.987,8.574 -9.914,7.418c-3.926,-1.156 -5.86,-6.357 -4.314,-11.606c1.545,-5.25 5.988,-8.573 9.914,-7.418Z" style="fill:none;stroke:#020144;stroke-width:3.33px;"/></g><g id="outline"><path d="M178.849,263.483c14.984,-48.115 92.478,-30.213 87.381,23.312c-0.5,5.247 -9.637,47.288 -17.931,58.664c-12.265,16.824 -41.111,14.044 -58.997,-23.219" style="fill:none;stroke:#020144;stroke-width:3.33px;"/><path d="M178.849,263.483c-2.571,-0.811 -9.752,-3.673 -17.378,-1.621c-3.453,0.929 -6.997,2.866 -10.245,6.456c-2.493,2.755 -4.812,6.485 -6.783,11.481c-0.138,0.349 -0.274,0.705 -0.409,1.067c-3.358,9.045 -3.411,18.985 -2.652,29.02c0.988,13.062 3.354,26.286 1.601,37.907c-0.692,4.591 -2.027,8.933 -4.343,12.915c-1.873,3.22 -4.387,6.205 -7.722,8.898c1.592,0.025 3.164,0.053 4.709,0.075c0.886,0.013 1.763,0.024 2.63,0.031c8.326,0.071 15.757,-0.187 21.313,-2.281c2.146,-0.809 4.012,-1.891 5.542,-3.333c6.977,-6.575 16.216,-17.898 12.138,-48.707" style="fill:none;stroke:#020144;stroke-width:3.33px;"/><path d="M264.48,296.128c-0.047,-0.031 -0.094,-0.062 -0.141,-0.093c-0.309,-0.205 -0.612,-0.414 -0.909,-0.626c-0.909,-0.65 -1.757,-1.332 -2.55,-2.04c-1.987,-1.773 -3.626,-3.71 -5.003,-5.723c-4.577,-6.69 -6.261,-14.219 -8.22,-19.378c-0.738,-1.944 -1.516,-3.552 -2.502,-4.652c-0.788,-0.879 -1.71,-1.434 -2.851,-1.577c-1.432,-0.178 -2.576,-0.106 -3.529,0.208c-1.217,0.401 -2.122,1.196 -2.915,2.365c-0.58,0.856 -1.1,1.913 -1.639,3.162c-1.453,3.369 -3.04,8.141 -6.302,14.167c-0.205,0.379 -0.418,0.75 -0.639,1.113c-2.608,4.294 -6.257,7.464 -10.346,9.794c-0.813,0.463 -1.643,0.892 -2.486,1.291c-1.506,0.713 -3.053,1.327 -4.613,1.854c-6.538,2.21 -13.315,2.905 -18.352,3.02c-0.395,0.009 -0.778,0.015 -1.15,0.017c-0.152,0.001 -0.302,0.001 -0.45,0.001" style="fill:none;stroke:#020144;stroke-width:3.33px;"/><path d="M189.883,299.031c-0.679,-3.796 -4.432,-5.937 -8.145,-5.775c-3.579,0.157 -7.12,2.456 -7.827,7.48c-0.06,0.425 -0.111,0.842 -0.153,1.249c-0.126,1.217 -0.174,2.356 -0.149,3.424c0.089,3.897 1.138,6.838 2.867,9.075c0.245,0.316 0.503,0.618 0.774,0.907c1.944,2.074 4.548,3.459 7.518,4.417" style="fill:none;stroke:#020144;stroke-width:3.33px;"/><path d="M181.786,300.74c-0,-0 -4.36,3.967 -0,10.564" style="fill:none;stroke:#020144;stroke-width:3.33px;"/><path d="M259.829,295.409c0,0 -13.946,-0.784 -15.204,8.499c-0,-0 1.182,18.069 0.316,20.851c-0.867,2.781 -3.318,2.497 -3.318,2.497" style="fill:none;stroke:#020144;stroke-width:3.33px;"/><path d="M233.951,299.031c0,0 -7.472,-8.055 -21.438,-5.784" style="fill:none;stroke:#020144;stroke-width:3.33px;"/><path d="M241.623,336.545c-0,0 -7.044,3.393 -20.952,-1.225" style="fill:none;stroke:#020144;stroke-width:3.33px;"/><path d="M221.447,303.227c1.67,0.203 2.677,3.237 2.249,6.772c-0.428,3.535 -2.132,6.24 -3.801,6.038c-1.67,-0.203 -2.678,-3.237 -2.249,-6.772c0.428,-3.535 2.131,-6.24 3.801,-6.038Z" style="fill:#020144;stroke:#020144;stroke-width:3.33px;"/><path d="M251.502,304.899c1.67,0.203 2.678,3.237 2.249,6.772c-0.428,3.535 -2.131,6.24 -3.801,6.038c-1.67,-0.202 -2.677,-3.237 -2.249,-6.772c0.428,-3.534 2.132,-6.24 3.801,-6.038Z" style="fill:#020144;stroke:#020144;stroke-width:3.33px;"/><path d="M184.768,319.808c2.091,36.617 -9.426,50.021 -23.277,59.712c-13.74,9.613 -29.778,15.573 -37.113,36.912c-3.257,9.475 -4.409,24.412 -4.342,41.144c0.132,32.903 4.978,72.746 7.802,91.641" style="fill:none;stroke:#020144;stroke-width:3.33px;"/><path d="M127.838,549.217c19.979,9.224 63.279,14.634 74.196,14.993c13.704,0.451 24.323,2.1 32.505,2.116c2.75,0.005 5.225,-0.175 7.45,-0.646c5.381,-1.141 9.296,-3.991 12.095,-10.071" style="fill:none;stroke:#020144;stroke-width:3.33px;"/><path d="M141.473,515.104c5.935,-0.162 8.666,0.233 14.374,2.568c4.434,1.814 10.665,4.798 21.588,9.602c1.517,0.667 3.123,1.369 4.828,2.108c19.936,8.638 30.166,14.444 50.891,16.934" style="fill:none;stroke:#020144;stroke-width:3.33px;"/><path d="M232.577,549.771c0.619,-1.726 0.566,-14.741 10.281,-13.09c5.761,0.979 16.321,9.177 27.581,13.105c2.126,0.741 5.778,1.501 5.518,4.335c-0.291,3.167 -8.615,5.295 -15.87,1.705c-6.048,-2.993 -10.123,-5.357 -11.357,-6.216" style="fill:none;stroke:#020144;stroke-width:3.33px;"/><path d="M240.181,536.606c0.412,-2.258 1.447,-5.207 4.228,-5.791c1.09,-0.228 2.447,-0.094 4.141,0.587c13.068,5.256 16.779,2.737 22.71,9.039c5.011,5.325 12.008,9.58 12.441,12.629c0.132,0.93 -0.347,1.747 -1.68,2.449c-2.058,1.083 -5.225,0.033 -6.419,-0.429" style="fill:none;stroke:#020144;stroke-width:3.33px;"/><path d="M244.409,530.815c0.299,-1.195 0.93,-2.94 2.546,-4.826c1.088,-1.269 1.764,-1.302 3.865,-0.616c1.964,0.641 5.173,1.912 11.127,3.389c12.063,2.993 11.731,3.962 15.222,7.166c5.208,4.781 10.255,8.953 12.374,11.822c0.729,0.986 1.111,1.818 1.036,2.467c-0.418,3.593 -4.374,3.367 -6.878,2.853" style="fill:none;stroke:#020144;stroke-width:3.33px;"/><path d="M250.82,525.373c0.658,-1.152 1.659,-2.856 4.758,-2.422c12.583,1.762 15.962,1.728 20.374,3.575c1.374,0.575 2.679,2.1 4.582,4.36c0.712,0.845 1.508,1.793 2.422,2.832c1.584,1.8 3.523,3.874 6.001,6.165c1.334,1.234 4.618,4.186 4.337,5.842c-0.184,1.082 -2.244,1.708 -3.751,2.025" style="fill:none;stroke:#020144;stroke-width:3.33px;"/><path d="M161.645,458.461c-1.62,4.703 -2.824,13.263 -3.582,20.032c-0.537,4.791 -0.851,8.685 -0.931,9.678c-0.814,10.122 -1.147,21.549 -1.285,29.501" style="fill:none;stroke:#020144;stroke-width:3.33px;"/><path d="M120.036,457.576c5.147,-0.198 13.235,2.084 25.968,10.546c4.696,3.121 8.678,6.634 12.059,10.371c15.268,16.877 18.257,38.311 19.372,48.781" style="fill:none;stroke:#020144;stroke-width:3.33px;"/><path d="M268.979,416.941c5.67,9.714 11.524,24.729 12.46,35.748c0.255,2.997 0.145,5.699 -0.43,7.917c-4.886,18.832 -11.217,26.317 1.92,69.153" style="fill:none;stroke:#020144;stroke-width:3.33px;"/><path d="M216.849,352.631c0.368,3.043 1.106,5.704 2.029,8.021c2.468,6.2 6.259,9.94 7.836,11.981" style="fill:none;stroke:#020144;stroke-width:3.33px;"/><path d="M218.878,360.652c4.988,0.63 10.076,0.97 15.127,1.291c12.966,0.823 25.684,1.514 35.823,6.624c8.527,4.298 18.022,17.476 33.814,40.367c11.692,16.949 26.837,39.222 47.598,67.157" style="fill:none;stroke:#020144;stroke-width:3.33px;"/><path d="M281.439,452.689l35.912,39.346" style="fill:none;stroke:#020144;stroke-width:3.33px;"/><path d="M303.642,408.934c-3.348,2.132 -7.099,7.596 -9.26,13.606c-4.423,12.296 -6.166,19.71 -8.413,35.112" style="fill:none;stroke:#020144;stroke-width:3.33px;"/><path d="M234.005,361.943c3.155,11.326 8.537,47.236 -3.832,55.714c-19.66,13.474 -56.033,-23.169 -68.682,-38.137" style="fill:none;stroke:#020144;stroke-width:3.33px;"/><path d="M419.343,444.05l-11.667,93.61l-111.234,52.334l11.667,-93.61l111.234,-52.334Z" style="fill:none;stroke:#020144;stroke-width:3.33px;"/><path d="M280.534,530.886l24.725,-11.632m102.417,18.406l-111.234,52.334l-54.453,-24.314" style="fill:none;stroke:#020144;stroke-width:3.33px;"/><path d="M403.344,539.698l4.332,1.934l-111.234,52.334l-61.903,-27.64" style="fill:none;stroke:#020144;stroke-width:3.33px;"/><path d="M368.339,505.464c3.927,1.156 5.86,6.357 4.314,11.606c-1.545,5.25 -5.987,8.574 -9.914,7.418c-3.926,-1.156 -5.86,-6.357 -4.314,-11.606c1.545,-5.25 5.988,-8.573 9.914,-7.418Z" style="fill:none;stroke:#020144;stroke-width:3.33px;"/></g></g><g id="woman---speaker" serif:id="woman &amp; speaker"><ellipse cx="590.743" cy="722.61" rx="187.012" ry="186.33" style="fill:#fad6e4;"/><g id="color"><path d="M584.079,623.721c6.767,-7.888 11.508,-24.975 -5.289,-35.894c-18.342,-11.922 -73.861,-8.523 -87.523,20.043c-2.605,5.448 -0.999,19.098 -0.805,20.747c2.541,21.599 -19.515,21.659 -20.546,42.805c-0.626,12.828 11.586,22.277 21.956,23.467c16.609,1.906 19.48,-2.675 26.443,-1.974c1.334,0.134 2.818,0.463 4.577,1.068c1.798,0.618 4.563,1.383 7.693,1.48c5.329,0.165 11.713,-1.606 16.177,-9.336c3.46,-5.992 2.152,-13.996 0.852,-19.612c-8.317,-1.068 -12.245,-12.153 -7.858,-20.926c5.387,-10.775 15.04,-1.031 18.978,14.293c1.879,-4.381 1.368,-18.733 3.005,-29.185c2.368,3.744 1.81,7.078 4.485,4.626c3.367,-3.087 5.815,-7.698 7.534,-12.732c2.853,-8.356 3.7,-17.879 3.415,-23.546c3.961,2.656 6.02,5.983 6.452,19.803c0.059,1.913 0.214,3.513 0.454,4.873" style="fill:#020144;"/><path d="M544.341,834.139c2.773,-0.513 5.766,-0.732 11.284,-0.57c1.134,0.033 11.996,0.35 14.196,0.047c1.374,-0.19 2.534,-0.433 3.514,-0.716l-6.804,27.03l-72.723,-6.426l1.492,-5.927c19.302,-4.079 29.029,-7.591 49.041,-13.438" style="fill:#f084ad;"/><path d="M541.747,817.989c-13.094,4.299 -26.588,3.555 -39.472,1.882l15.097,-59.971l72.722,6.426l-8.885,35.298c-4.627,-0.206 -11.388,0.076 -15.889,-0.456c5.879,-2.684 13.374,-6.466 12.102,-10.283c-1.259,-3.777 -17.353,4.827 -21.673,5.307c-7.819,0.869 -7.631,10.619 -14.002,21.797" style="fill:#f084ad;"/><path d="M689.906,609.434c6.227,-1.01 13.859,14.051 17.031,33.611c3.173,19.56 0.693,36.261 -5.535,37.271c-6.227,1.01 -13.858,-14.051 -17.031,-33.611c-3.172,-19.56 -0.692,-36.261 5.535,-37.271Z" style="fill:#7d0f39;"/></g><g id="outline1" serif:id="outline"><path d="M577.173,599.045c3.961,2.656 6.02,5.983 6.452,19.803c0.059,1.913 0.214,3.513 0.454,4.873c1.493,8.457 6.311,7.629 12.437,15.17c4.892,6.02 -5.824,5.144 -5.539,15.397l-0,0.012c0.056,1.965 0.128,3.737 0.169,5.347c0.265,10.582 -0.84,14.181 -16.888,19.53c-5.558,1.853 -8.947,5.537 -11.127,10.392c-3.001,6.683 -3.711,15.584 -4.633,24.984" style="fill:none;stroke:#020144;stroke-width:3.33px;"/><path d="M584.079,623.721c6.767,-7.888 11.508,-24.975 -5.289,-35.894c-18.342,-11.922 -73.861,-8.523 -87.523,20.043c-2.605,5.448 -0.999,19.098 -0.805,20.747c2.541,21.599 -19.515,21.659 -20.546,42.805c-0.626,12.828 11.586,22.277 21.956,23.467c16.609,1.906 19.48,-2.675 26.443,-1.974c1.334,0.134 2.818,0.463 4.577,1.068c1.798,0.618 4.563,1.383 7.693,1.48c5.329,0.165 11.713,-1.606 16.177,-9.336c3.46,-5.992 2.152,-13.996 0.852,-19.612" style="fill:none;stroke:#020144;stroke-width:3.33px;"/><path d="M577.173,599.045c0.285,5.667 -0.562,15.19 -3.415,23.546c-1.719,5.034 -4.167,9.645 -7.534,12.732c-2.675,2.452 -2.117,-0.882 -4.485,-4.626c-1.637,10.452 -1.126,24.804 -3.005,29.185c-3.938,-15.324 -13.591,-25.068 -18.978,-14.293c-4.387,8.773 -0.459,19.858 7.858,20.926" style="fill:none;stroke:#020144;stroke-width:3.33px;"/><path d="M546.334,647.912c-0.403,0.825 -3.698,7.578 2.383,11.227" style="fill:none;stroke:#020144;stroke-width:3.33px;"/><path d="M579.721,622.321c-0.679,-0.079 -2.975,-0.347 -5.963,0.27" style="fill:none;stroke:#020144;stroke-width:3.33px;"/><ellipse cx="575.043" cy="636.259" rx="2.182" ry="5.613" style="fill:#020144;stroke:#020144;stroke-width:3.33px;"/><path d="M590.977,654.288l-13.108,4.851c0,-0 3.659,4.26 13.277,0.508" style="fill:none;stroke:#020144;stroke-width:3.33px;"/><path d="M565.303,708.211c0.658,5.122 -2.273,6.9 -6.805,6.342c-7.956,-0.98 -20.845,-9.159 -27.913,-19.09" style="fill:none;stroke:#020144;stroke-width:3.33px;"/><path d="M518.315,692.915c-8.642,6.434 -39.045,21.817 -47,35.89c-1.687,2.985 -3.212,5.777 -4.636,8.528c-8.313,16.053 -13.178,30.692 -26.586,73.895c-2.305,7.427 -6.742,26.783 -1.884,30.212c0.055,0.039 6.058,13.717 43.785,8.51c3.636,-0.502 7.566,-1.179 11.814,-2.061c0.504,-0.104 1.001,-0.208 1.492,-0.312c19.302,-4.079 29.029,-7.591 49.041,-13.438" style="fill:none;stroke:#020144;stroke-width:3.33px;"/><path d="M541.747,817.989c-13.094,4.299 -26.588,3.555 -39.472,1.882c-3.463,-0.449 -6.881,-0.966 -10.236,-1.469c-7.182,-1.079 -14.072,-2.099 -20.479,-2.277c-8.793,-0.244 -16.675,1.097 -23.15,6.049" style="fill:none;stroke:#020144;stroke-width:3.33px;"/><path d="M495.118,768.917l-23.558,47.208" style="fill:none;stroke:#020144;stroke-width:3.33px;"/><path d="M495.998,778.016c0.125,-3.063 -0.185,-6.114 -0.88,-9.099c-3.147,-13.509 -14.18,-25.681 -28.439,-31.584" style="fill:none;stroke:#020144;stroke-width:3.33px;"/><path d="M487.664,783.853c2.056,5.668 4.819,14.497 5.499,18.849c1.102,7.055 0.833,10.527 -1.124,15.7" style="fill:none;stroke:#020144;stroke-width:3.33px;"/><path d="M541.747,817.989c6.371,-11.178 6.183,-20.928 14.002,-21.797c4.32,-0.48 20.414,-9.084 21.673,-5.307c1.272,3.817 -6.223,7.599 -12.102,10.283" style="fill:none;stroke:#020144;stroke-width:3.33px;"/><path d="M561.604,800.25c0.833,0.444 2.135,0.731 3.716,0.918c4.501,0.532 11.262,0.25 15.889,0.456c1.977,0.088 3.565,0.265 4.419,0.633c0.395,0.17 3.437,1.48 2.423,4.347c-0.799,2.261 -3.937,2.514 -2.661,4.959c1.741,3.336 -2.684,5.298 -2.55,7.221c0.122,1.741 1.414,2.656 -1.842,4.996c-0.429,0.308 -0.994,0.45 -2.098,1.334c-1.214,0.973 2.039,5.59 -5.565,7.786c-0.98,0.283 -2.14,0.526 -3.514,0.716c-2.2,0.303 -13.062,-0.014 -14.196,-0.047c-5.518,-0.162 -8.511,0.057 -11.284,0.57" style="fill:none;stroke:#020144;stroke-width:3.33px;"/><path d="M502.275,819.871l15.097,-59.971l72.722,6.426l-8.885,35.298m-7.874,31.276l-6.804,27.03l-72.723,-6.426l1.492,-5.927" style="fill:none;stroke:#020144;stroke-width:3.33px;"/><path d="M689.906,609.434c6.227,-1.01 13.859,14.051 17.031,33.611c3.173,19.56 0.693,36.261 -5.535,37.271c-6.227,1.01 -13.858,-14.051 -17.031,-33.611c-3.172,-19.56 -0.692,-36.261 5.535,-37.271Z" style="fill:none;stroke:#020144;stroke-width:3.33px;"/><path d="M607.982,673.503c-3.405,0.553 -7.03,-4.298 -8.088,-10.825c-1.059,-6.527 0.846,-12.274 4.252,-12.826c0.022,-0.004 0.045,-0.008 0.067,-0.011m7.994,10.67c0.009,0.055 0.018,0.11 0.027,0.166" style="fill:none;stroke:#020144;stroke-width:3.33px;"/><path d="M619.55,674.347c-3.012,-0.895 -6.095,-6.504 -7.315,-13.67c-0.01,-0.056 -0.019,-0.111 -0.028,-0.166c-0.007,-0.043 -0.014,-0.086 -0.021,-0.129c-1.152,-7.098 -0.101,-13.383 2.352,-15.41c0.419,-0.346 0.879,-0.568 1.375,-0.648" style="fill:none;stroke:#020144;stroke-width:3.33px;"/><path d="M622.757,674.581c-0.295,-0.144 -0.591,-0.335 -0.886,-0.568c-2.614,-2.074 -5.102,-7.54 -6.182,-14.2c-1.08,-6.66 -0.448,-12.632 1.377,-15.425c0.273,-0.417 0.571,-0.763 0.895,-1.03m1.292,-0.609c3.405,-0.552 7.338,6.197 8.776,15.063c1.366,8.423 -0.008,15.746 -3.069,16.929" style="fill:none;stroke:#020144;stroke-width:3.33px;"/><path d="M615.913,644.324l73.993,-34.89m11.496,70.882l-93.42,-6.813m-3.769,-23.662l10.325,-4.869" style="fill:none;stroke:#020144;stroke-width:3.33px;"/><path d="M611.847,673.785c0.843,0.645 1.633,1.52 2.485,2.913m6.054,19.809c0.814,3.522 1.886,6.894 3.416,8.711c1.335,1.585 3.018,1.986 5.181,0.269c0.608,-0.483 0.867,-1.378 0.888,-2.576c0.021,-1.183 -0.19,-2.663 -0.524,-4.335m-3.394,-20.853c0.107,-1.026 0.309,-1.988 0.628,-2.863" style="fill:none;stroke:#020144;stroke-width:3.33px;"/><path d="M637.611,716.527c1.289,1.628 38.442,43.659 44.215,51.942c7.781,11.164 17.816,23.098 3.269,45.05" style="fill:none;stroke:#020144;stroke-width:3.33px;"/><path d="M685.095,813.519c-6.525,-1.59 -20.041,-6.722 -32.038,-20.368c-16.475,-18.739 -15.119,-20.705 -50.323,-44.598" style="fill:none;stroke:#020144;stroke-width:3.33px;"/><path d="M615.824,717.36c0.872,0.9 20.904,33.072 23.339,36.673c12.648,18.706 16.715,33.904 21.032,42.964" style="fill:none;stroke:#020144;stroke-width:3.33px;"/><path d="M615.824,717.36c-0,0 -4.307,-5.537 -7.214,-12.022c-1.124,-2.507 -1.538,-5.051 -1.738,-7.518c-0.316,-3.915 -0.09,-7.637 -1.292,-10.714c-1.753,-4.487 1.02,-7.955 3.9,-4.886" style="fill:none;stroke:#020144;stroke-width:3.33px;"/><path d="M600.141,735.281c0.106,0.351 0.666,3.171 1.365,6.807c0.385,2 0.812,4.246 1.228,6.465c1.036,5.525 2.007,10.874 2.099,11.797c1.847,18.381 -5.141,25.106 -8.84,32.299c-0.038,0.074 -6.629,1.212 -3.375,57.232" style="fill:none;stroke:#020144;stroke-width:3.33px;"/><path d="M592.618,849.881c-8.147,6.964 -24.17,16.745 -47.193,17.38c-19.553,0.539 -49.721,-7.033 -63.431,-17.311" style="fill:none;stroke:#020144;stroke-width:3.33px;"/><path d="M563.131,689.569c3.691,0.312 10.825,0.792 26.207,1.488c5.821,0.263 10.318,2.209 15.742,5.61c0.586,0.368 1.182,0.752 1.792,1.153" style="fill:none;stroke:#020144;stroke-width:3.33px;"/><path d="M605.08,696.667c1.854,6.004 4.573,16.413 3.684,23.664c-1.302,10.624 -4.513,17.546 -7.258,21.757" style="fill:none;stroke:#020144;stroke-width:3.33px;"/><path d="M636.64,719.748c2.987,-12.042 10.121,-20.625 3.788,-23.234c-0.253,-0.104 -0.527,-0.198 -0.824,-0.283c-0.55,-0.158 -11.924,-4.025 -20.287,-5.054c-3.691,-0.454 -6.795,-0.355 -8.126,0.859c-0.708,0.646 -0.913,1.608 -0.436,2.972c0.476,1.357 4.434,0.953 9.631,1.499c2.751,0.289 5.849,0.845 8.961,2.069c1.93,0.759 3.866,1.775 5.729,3.144c-0.481,0.121 -2.627,0.475 -5.205,1.191m-6.069,2.307c-1.032,0.548 -1.98,1.172 -2.758,1.882c-0.09,0.083 -0.176,0.166 -0.257,0.248c-4.385,4.459 5.613,7.885 5.671,7.906" style="fill:none;stroke:#020144;stroke-width:3.33px;"/><path d="M640.428,696.514c-0.228,-1.731 -0.95,-4.416 -2.619,-5.586c-1.976,-1.385 -6.389,-3.002 -11.145,-4.14c-2.853,-0.682 -5.829,-1.193 -8.477,-1.378c-3.967,-0.277 -7.196,0.177 -8.169,1.877c-0.606,1.058 -0.337,2.6 1.173,4.749" style="fill:none;stroke:#020144;stroke-width:3.33px;"/><path d="M637.975,690.928c0.158,-0.148 -0.319,-3.276 -1.727,-5.352c-0.395,-0.582 -0.863,-1.082 -1.411,-1.41c-4.518,-2.702 -21.11,-5.423 -25.274,-2.016c-0.028,0.023 -0.056,0.046 -0.083,0.07c-1.214,1.061 -1.264,2.693 0.538,5.067" style="fill:none;stroke:#020144;stroke-width:3.33px;"/><path d="M636.248,685.576c-0.364,-1.673 -1.247,-4.245 -2.804,-5.248c-1.465,-0.944 -4.278,-1.899 -7.491,-2.605c-3.84,-0.845 -8.252,-1.334 -11.621,-1.025c-4.09,0.376 -6.642,1.928 -4.769,5.452" style="fill:none;stroke:#020144;stroke-width:3.33px;"/></g><ellipse cx="570.414" cy="729.559" rx="187.012" ry="186.33" style="fill:none;stroke:#020144;stroke-width:3.33px;"/></g><g id="man---book" serif:id="man &amp; book"><circle cx="1030.2" cy="693.809" r="171.894" style="fill:#def1ec;"/><g id="color1" serif:id="color"><path d="M1034.86,588.721c3.431,-9.887 11.387,-9.956 15.518,-4.982c1.404,-16.942 7.158,-19.257 -0.37,-37.137c-5.041,-11.971 -13.072,-14.886 -14.676,-15.467c-0.29,-0.545 -1.632,-5.381 -8.59,-8.443c-1.805,-0.794 -6.817,-2.999 -24.645,0.184c-8.968,1.602 -33.693,4.747 -36.599,6.345c-5.767,3.172 0.209,9.732 -8.976,9.261c-5.585,-0.287 9.289,10.044 -0.036,6.188c-6.109,-2.525 -1.557,12.107 -7.878,16.321c-1.304,0.869 6.795,7.657 15.492,8.709c3.265,0.394 6.614,-0.019 9.582,-1.856c4.305,-2.665 18.17,10.068 21.334,-8.92c1.241,-7.444 5.213,0.889 13.794,-0.828c13.152,-2.63 14.783,7.033 19.955,18.116c0.288,0.618 2.809,7.359 6.095,12.509" style="fill:#020144;"/><path d="M1054.41,640.078c0.109,0.054 0.218,0.109 0.328,0.164c1.754,0.883 3.655,1.884 5.65,2.968c14.994,8.141 35.285,20.915 38.247,22.78c2.752,1.732 8.543,5.378 15.028,14.507c8.343,11.747 17.834,32.572 23.478,70.081c7.704,51.197 7.763,75.45 5.34,90.055c-29.068,7.1 -56.694,3.093 -78.566,-2.45c3.768,-11.435 1.842,-22.205 -0.079,-28.568c-2.248,0.203 -4.558,0.379 -6.939,0.516c-9.443,0.545 -20.013,0.485 -32.336,-0.869c-3.586,-12.054 -2.094,-15.18 -8.043,-16.46c-1.271,-0.273 -3.104,-0.56 -5.132,-0.829l0.45,-62.195l-6.812,0.456l0,-3.227l-79.49,4.349l-2.216,-1.672l-0.029,0.094c0.01,-0.031 0.019,-0.062 0.029,-0.094c6.559,-21.714 12.041,-35.317 17.139,-44.3c6.941,-12.232 13.171,-15.899 20.439,-19.812c8.267,-4.452 33.479,-14.131 41.588,-17.145c0.035,0.32 0.066,0.641 0.092,0.962c0.715,8.571 -2.306,15.052 -3.926,17.902c1.992,3.989 6.13,8.176 15.154,10.616c16.747,4.526 34.43,-16.803 40.815,-37.28c0.04,-0.128 0.08,-0.256 0.119,-0.385" style="fill:#5cba9e;"/></g><g id="outline2" serif:id="outline"><path d="M964.103,569.7c0.905,6.368 1.717,12.426 2.522,18.13m4.752,27.084c2.904,11.885 6.917,20.513 13.836,25.011c6.052,3.933 11.712,5.706 16.919,5.987c22.365,1.206 36.348,-25.111 36.889,-25.923" style="fill:none;stroke:#020144;stroke-width:3.33px;"/><path d="M1034.86,588.721c3.431,-9.887 11.387,-9.956 15.518,-4.982c0.935,1.127 1.675,2.512 2.121,4.101c5.767,20.529 -9.001,23.871 -9.001,23.871c0,0 2.783,7.034 10.909,28.367l0.209,0.549" style="fill:none;stroke:#020144;stroke-width:3.33px;"/><path d="M1002.13,645.912c0.138,0.815 0.258,1.661 0.352,2.515c0.035,0.32 0.066,0.641 0.092,0.962c0.715,8.571 -2.306,15.052 -3.926,17.902" style="fill:none;stroke:#020144;stroke-width:3.33px;"/><path d="M1034.86,588.721c-3.286,-5.15 -5.807,-11.891 -6.095,-12.509c-5.172,-11.083 -6.803,-20.746 -19.955,-18.116c-8.581,1.717 -12.553,-6.616 -13.794,0.828c-3.164,18.988 -17.029,6.255 -21.334,8.92c-2.968,1.837 -6.317,2.25 -9.582,1.856c-8.697,-1.052 -16.796,-7.84 -15.492,-8.709c6.321,-4.214 1.769,-18.846 7.878,-16.321c9.325,3.856 -5.549,-6.475 0.036,-6.188c9.185,0.471 3.209,-6.089 8.976,-9.261c2.906,-1.598 27.631,-4.743 36.599,-6.345c17.828,-3.183 22.84,-0.978 24.645,-0.184c6.958,3.062 8.3,7.898 8.59,8.443c1.604,0.581 9.635,3.496 14.676,15.467c7.528,17.88 1.774,20.195 0.37,37.137" style="fill:none;stroke:#020144;stroke-width:3.33px;"/><path d="M1043.3,588.045c0,-0 7.204,2.025 4.311,12.752" style="fill:none;stroke:#020144;stroke-width:3.33px;"/><circle cx="1008.82" cy="597.551" r="14.146" style="fill:none;stroke:#020144;stroke-width:3.33px;"/><circle cx="972.285" cy="600.797" r="14.146" style="fill:none;stroke:#020144;stroke-width:3.33px;"/><path d="M994.681,598.043c-1.651,-0.228 -3.988,-0.448 -6.311,-0.324c-0.751,0.04 -1.5,0.116 -2.225,0.24" style="fill:none;stroke:#020144;stroke-width:3.33px;"/><path d="M974.385,583.174c8.911,0.331 21.603,8.982 13.869,27.537c-0.071,0.172 -1.52,2.767 -1.428,3.899c0.148,1.824 2.574,3.748 2.669,3.839" style="fill:none;stroke:#020144;stroke-width:3.33px;"/><path d="M1005.39,592.106c1.4,-0.204 2.925,2.296 3.404,5.58c0.479,3.285 -0.268,6.117 -1.668,6.321c-1.401,0.204 -2.926,-2.296 -3.405,-5.581c-0.479,-3.284 0.268,-6.116 1.669,-6.32Z" style="fill:#020144;stroke:#020144;stroke-width:3.33px;"/><path d="M976.904,594.846c1.401,-0.204 2.926,2.296 3.405,5.581c0.479,3.284 -0.268,6.116 -1.669,6.32c-1.4,0.204 -2.925,-2.296 -3.404,-5.58c-0.479,-3.285 0.268,-6.117 1.668,-6.321Z" style="fill:#020144;stroke:#020144;stroke-width:3.33px;"/><path d="M1006.25,623.912c-0,-0 -5.672,5.387 -15.421,2.63" style="fill:none;stroke:#020144;stroke-width:3.33px;"/><path d="M1054.41,640.078c0.109,0.054 0.218,0.109 0.328,0.164c1.754,0.883 3.655,1.884 5.65,2.968c14.994,8.141 35.285,20.915 38.247,22.78c2.752,1.732 8.543,5.378 15.028,14.507c8.343,11.747 17.834,32.572 23.478,70.081c7.704,51.197 7.763,75.45 5.34,90.055" style="fill:none;stroke:#020144;stroke-width:3.33px;"/><path d="M1142.48,840.633c-29.068,7.1 -56.694,3.093 -78.566,-2.45c-1.954,-0.495 -3.862,-1.003 -5.721,-1.516c-15.329,-4.229 -27.328,-8.828 -34.275,-9.973c-3.967,-0.653 -5.631,0.738 -12.757,0.644c-4.515,-0.06 -11.224,-0.717 -22.102,-2.869" style="fill:none;stroke:#020144;stroke-width:3.33px;"/><path d="M1024.56,809.262c-3.586,-12.054 -2.094,-15.18 -8.043,-16.46c-1.271,-0.273 -3.104,-0.56 -5.132,-0.829c-5.639,-0.749 -12.786,-1.363 -13.554,-1.181c-1.27,0.303 -1.186,0.511 -14.531,7.434c-0.465,0.242 -6.681,2.787 -1.065,4.862c6.61,2.442 10.433,-6.353 20.487,-5.103c14.857,1.848 1.544,2.579 -1.464,3.203c-15.558,3.225 -26.951,5.82 -24.601,8.613c2.939,3.493 31.277,-8.02 32.626,-2.053c0.557,2.462 -31.924,1.304 -31.411,6.64c0.48,4.993 33.628,-2.827 34.545,2.971c0.562,3.555 -29.483,-1.25 -30.119,5.132c-0.121,1.209 3.417,1.712 6.761,1.978" style="fill:none;stroke:#020144;stroke-width:3.33px;"/><path d="M1129.47,807.678c-10.591,-2.682 -19.937,-3.003 -29.297,-2.341c-11.344,0.801 -22.708,3.045 -36.334,4.278c-2.248,0.203 -4.558,0.379 -6.939,0.516c-9.443,0.545 -20.013,0.485 -32.336,-0.869" style="fill:none;stroke:#020144;stroke-width:3.33px;"/><path d="M1113.66,680.497c-8.112,3.435 -19.56,14.13 -25.283,34.159" style="fill:none;stroke:#020144;stroke-width:3.33px;"/><path d="M1086.37,735.038c0.44,1.484 0.078,1.891 2.607,12.401c0.731,3.036 1.702,6.913 3.004,11.903c3.186,12.212 6.616,34.976 8.19,45.995" style="fill:none;stroke:#020144;stroke-width:3.33px;"/><path d="M1081.1,735.216c2.955,6.66 5.026,9.623 7.878,12.223" style="fill:none;stroke:#020144;stroke-width:3.33px;"/><path d="M1002.48,648.427c-8.109,3.014 -33.321,12.693 -41.588,17.145c-7.268,3.913 -13.498,7.58 -20.439,19.812c-5.098,8.983 -10.58,22.586 -17.139,44.3c-0.01,0.032 -0.019,0.063 -0.029,0.094" style="fill:none;stroke:#020144;stroke-width:3.33px;"/><path d="M940.457,685.384c0.01,0.008 0.02,0.015 0.03,0.023c10.512,7.989 15.397,28.139 16.052,30.842" style="fill:none;stroke:#020144;stroke-width:3.33px;"/><path d="M1054.74,640.242c-0.039,0.129 -0.079,0.257 -0.119,0.385c-6.385,20.477 -24.068,41.806 -40.815,37.28c-9.024,-2.44 -13.162,-6.627 -15.154,-10.616c-1.795,-3.596 -1.846,-7.032 -2.161,-8.879" style="fill:none;stroke:#020144;stroke-width:3.33px;"/><path d="M1060.39,643.21c-0.574,1.66 -1.367,3.799 -2.418,6.229c-4.545,10.501 -13.921,26.438 -31.33,32.706c-22.226,8.001 -36.144,-12.66 -34.994,-23.007" style="fill:none;stroke:#020144;stroke-width:3.33px;"/><path d="M1011.39,791.973l0.45,-62.195l-81.352,5.438c0,0 -6.877,3.592 -11.333,-2.731l-49.914,-38.676l6.934,88.809l44.631,35.211c-0,0 2.115,7.219 11.811,3.731l78.462,12.414l0.087,-6.636" style="fill:none;stroke:#020144;stroke-width:3.33px;"/><path d="M1005.02,730.234l0,-3.227l-79.49,4.349l-49.781,-37.547l-2.44,3.158" style="fill:none;stroke:#020144;stroke-width:3.33px;"/><path d="M930.484,741.625l0,73.19" style="fill:none;stroke:#020144;stroke-width:3.33px;"/><path d="M1056.9,810.131c2.373,6.005 4.653,15.664 1.297,26.536" style="fill:none;stroke:#020144;stroke-width:3.33px;"/><path d="M1063.84,809.615c1.921,6.363 3.847,17.133 0.079,28.568" style="fill:none;stroke:#020144;stroke-width:3.33px;"/></g><circle cx="1030.2" cy="693.809" r="190.664" style="fill:none;stroke:#020144;stroke-width:3.33px;"/></g><g id="man---payment" serif:id="man &amp; payment"><path d="M663.063,334.544l-199.836,48.87" style="fill:none;stroke:#5cba9e;stroke-width:3.33px;stroke-miterlimit:2.99419;"/><path d="M388.043,582.406l33.664,34.206" style="fill:none;stroke:#5cba9e;stroke-width:3.33px;stroke-miterlimit:2.99419;"/><path d="M383.47,734.596l-124.224,0" style="fill:none;stroke:#5cba9e;stroke-width:3.33px;stroke-miterlimit:2.99419;"/><path d="M757.415,731.621l83.239,-17.038" style="fill:none;stroke:#5cba9e;stroke-width:3.33px;stroke-miterlimit:2.99419;"/><path d="M970.86,491.06l9.766,18.603" style="fill:none;stroke:#5cba9e;stroke-width:3.33px;stroke-miterlimit:2.99419;"/><path d="M690.709,166.574l-214.705,-36.37" style="fill:none;stroke:#5cba9e;stroke-width:3.33px;stroke-miterlimit:2.99419;"/><circle cx="900.827" cy="277.446" r="224.884" style="fill:#def1ec;"/><g id="color2" serif:id="color"><path d="M915.383,177.252c-1.409,-3.213 -4.351,-7.636 -10.599,-11.945c0.208,-3.761 -1.376,-23.679 -5.266,-31.458c-3.713,-7.426 -21.602,-9.228 -34.217,4.439c-5.242,5.678 -14.568,22.225 -14.612,22.287c-4.508,6.352 -8.465,4.113 -12.578,3.884c3.042,6.693 1.511,10.334 -1.067,13.674c-0.506,0.656 -1.054,1.301 -1.614,1.956c-0.774,-0.847 -4.406,-4.986 -6.611,-7.296c-3.347,-3.509 -7.471,-8.146 -9.714,-12.213c-3.047,-5.522 3.473,-3.287 6.82,-8.962c-6.394,-1.299 -7.875,-2.725 -11.534,-9.75c8.035,-0.759 6.081,-3.768 8.657,-10.208c5.356,-13.39 17.616,-12.048 24.112,-15.857c-7.785,-2.926 -7.37,-3.721 -9.247,-6.693c-1.393,-2.205 0.595,-1.522 3.135,-1.618c20.603,-0.777 33.219,-7.625 49.043,-5.764c10.228,1.204 10.683,5.148 13.146,8.596c1.686,2.361 2.426,1.131 4.034,-1.329c9.92,13.341 21.638,11.801 19.425,40.563c-0.493,6.413 -3.12,15.89 -5.075,23.813c-2.54,0.565 -5.135,2.392 -6.238,3.881" style="fill:#020144;"/><path d="M887.576,177.792c1.575,-0.126 3.091,2.768 3.386,6.458c0.294,3.69 -0.745,6.787 -2.32,6.913c-1.574,0.125 -3.091,-2.769 -3.385,-6.458c-0.294,-3.69 0.745,-6.788 2.319,-6.913Z" style="fill:#020144;"/><path d="M854.36,176.465c1.574,-0.126 3.091,2.768 3.385,6.458c0.294,3.69 -0.745,6.787 -2.319,6.913c-1.574,0.125 -3.091,-2.769 -3.385,-6.458c-0.294,-3.69 0.745,-6.788 2.319,-6.913Z" style="fill:#020144;"/><path d="M841.028,254.295c0.032,-0.108 0.065,-0.215 0.097,-0.321c3.804,-1.942 7.439,-4.092 10.813,-6.561c2.773,2.515 4.356,3.786 6.618,5.682c1.07,0.896 2.291,1.931 3.861,3.304c0.595,0.52 1.241,1.089 1.947,1.717c1.542,1.371 3.929,17.107 3.95,17.295c0.118,1.106 0.328,1.476 0.598,1.296c1.342,-0.893 4.155,-15.377 4.44,-20.225c0.028,-0.466 0.977,-0.859 2.213,-1.18c2,-0.519 4.75,-0.85 5.55,-0.999c3.706,-0.689 7.24,-1.704 10.503,-2.875c6.946,-2.492 12.663,-5.69 16.186,-7.957c1.756,2.347 4.136,4.632 7.376,6.769c-0.855,2.348 -1.786,5.387 -2.75,9.04c-3.824,14.498 -8.16,38.672 -10.329,67.727c-0.074,0.992 -0.145,1.981 -0.212,2.966c-0.098,1.431 -0.19,2.854 -0.275,4.27c-1.022,-1.335 -2.046,-2.699 -3.082,-4.083c-3.786,-5.059 -7.73,-10.392 -12.27,-15.631c0,0 -2.735,-3.883 -3.914,-0.633c-1.101,3.035 5.161,6.668 4.706,13.949c-2.877,-0.835 -5.672,-1.784 -8.337,-2.768c-5.108,-1.885 -9.737,-3.894 -13.54,-5.452c-6.187,-2.533 -10.19,-3.874 -10.521,-1.549c-0.546,3.835 3.992,6.832 9.833,9.283c0.969,0.406 1.974,0.797 2.997,1.175c6.174,2.28 13.025,4.061 16.766,5.637c-5.106,1.182 -12.41,-1.772 -19.064,-4.942c-0.266,-0.127 -0.532,-0.254 -0.796,-0.382c-8.921,-4.302 -16.446,-8.713 -15.537,-3.545c0.411,2.342 3.172,4.635 6.972,6.759c2.433,1.361 5.293,2.651 8.233,3.841c11.402,4.613 24.025,7.701 17.778,7.411c-4.595,-0.214 -11.511,-3.099 -17.829,-5.736c-4.853,-2.026 -9.353,-3.907 -12.176,-4.318c-0.936,-0.137 -1.688,-0.112 -2.207,0.123c-0.412,0.186 -0.677,0.505 -0.771,0.979c-0.263,1.317 5.702,6.374 15,10.15c3.576,1.452 7.645,2.716 12.042,3.504c0.451,0.081 8.802,0.872 5.296,2.631c-2.336,1.173 -10.474,-1.957 -17.38,-4.276c-4.918,-1.651 -9.211,-2.89 -10.339,-1.871c-2.957,2.673 1.657,4.245 10.221,6.758c9.232,2.709 23.052,6.512 36.923,13.968c-0.054,8.26 0.044,16.202 0.209,23.816c0.464,21.413 1.452,40.231 1.05,56.213c-8.418,-0.628 -21.08,-1.458 -33.779,-2.26c-0.343,-0.984 -0.774,-2.08 -1.276,-3.227c3.07,2.046 6.61,3.86 8.478,2.81c0.458,-0.258 2.214,-2.383 0.539,-5.494c-0.107,-0.199 -0.841,-1.16 -1.949,-2.555c2.242,1.048 6.043,2.495 7.923,0.615c1.423,-1.423 0.651,-2.108 -14.635,-20.451c-1.835,-2.202 -3.606,-3.774 -5.556,-4.923c-5.398,-3.182 -12.161,-3.111 -25.409,-4.134c-0.659,-0.051 -1.272,0.098 -1.851,0.418c-0.179,-9.299 -0.581,-19.881 -0.899,-33.719c-0.344,-14.982 -0.589,-33.78 -0.348,-58.898c0.255,-26.528 4.409,-47.492 7.913,-59.141l-0.12,-0.21c0.072,-0.037 0.145,-0.074 0.217,-0.111" style="fill:#dff1fd;"/><path d="M792.107,354.066c-9.319,16.954 -11.066,21.601 -20.162,39.639c0.305,0.129 0.611,0.262 0.917,0.399c9.084,4.047 18.425,7.735 28.425,11.15c-0.784,-7.21 -2.742,-21.646 -9.18,-51.188m48.801,-99.981l0.12,0.21c0.032,-0.108 0.065,-0.215 0.097,-0.321c-0.072,0.037 -0.145,0.074 -0.217,0.111c-3.293,1.671 -6.71,3.188 -10.194,4.624c-19.593,8.075 -41.276,13.563 -54.548,29.237c-1.951,2.303 -3.72,4.827 -5.274,7.611c-19.07,34.167 -38.743,87.061 -39.382,88.898c-4.63,13.31 -26.35,50.1 41.685,54.352c1.696,0.106 7.474,0.353 16.03,0.633c-0.429,-5.517 8.793,-11.704 13.573,-16.015c4.168,-3.759 9.003,-11.037 10.722,-14.232c2.166,0.657 4.367,1.305 6.605,1.943c3.016,0.86 6.101,1.703 9.262,2.531c1.543,-3.672 3.072,-6.564 4.975,-7.614c-0.179,-9.299 -0.581,-19.881 -0.899,-33.719c-0.344,-14.982 -0.589,-33.78 -0.348,-58.898c0.255,-26.528 4.409,-47.492 7.913,-59.141" style="fill:#2496ef;"/><path d="M901.877,445.254c0.402,-15.982 -0.586,-34.8 -1.05,-56.213c-0.165,-7.614 -0.263,-15.556 -0.209,-23.816c2.781,1.495 5.565,3.137 8.314,4.947c2.132,1.404 4.244,2.909 6.318,4.524c8.169,6.362 8.981,7.197 15.192,12.53c7.895,-6.56 8.252,-19.017 7.566,-25.805c-5.778,-2.611 -11.039,-5.07 -15.395,-7.31c-0.889,-0.457 -1.755,-0.948 -2.601,-1.47c-7.089,-4.38 -12.701,-10.951 -18.398,-18.398c0.085,-1.416 0.177,-2.839 0.275,-4.27c0.067,-0.985 0.138,-1.974 0.212,-2.966c2.169,-29.055 6.505,-53.229 10.329,-67.727c0.964,-3.653 1.895,-6.692 2.75,-9.04c2.507,1.653 5.529,3.218 9.175,4.655c1.873,0.738 3.91,1.442 6.126,2.107c28.16,8.448 36.407,12.121 39.714,14.63c1.097,0.832 1.65,1.537 2.207,2.245c11.954,15.214 57.652,126.413 55.064,154.359c-0.891,9.622 -12.513,14.961 -28.236,17.743c-33.772,5.976 -86.464,0.157 -92.373,-0.336c-1.414,-0.118 -3.09,-0.248 -4.98,-0.389" style="fill:#2496ef;"/></g><g id="outline3" serif:id="outline"><path d="M837.044,178.133c0.952,5.651 1.696,13.219 3.037,21.032c2.455,14.293 6.911,29.408 18.296,35.123c2.09,1.049 4.415,1.781 7.003,2.134c19.243,2.618 30.514,-3.881 37.192,-12.046c6.868,-8.398 8.878,-18.559 9.703,-22.378c0,0 12.828,3.827 15.415,-18.956c0.994,-8.747 -2.483,-10.468 -6.069,-9.671c-2.54,0.565 -5.135,2.392 -6.238,3.881" style="fill:none;stroke:#020144;stroke-width:3.33px;"/><path d="M828.819,172.793c-0.809,0.895 -1.424,2.427 -1.695,4.862c-0.17,1.533 -0.198,19.411 12.957,21.51" style="fill:none;stroke:#020144;stroke-width:3.33px;"/><path d="M920.227,181.375c-0,0 3.981,6.82 -2.729,13.175" style="fill:none;stroke:#020144;stroke-width:3.33px;"/><path d="M915.383,177.252c-1.409,-3.213 -4.351,-7.636 -10.599,-11.945c0.208,-3.761 -1.376,-23.679 -5.266,-31.458c-3.713,-7.426 -21.602,-9.228 -34.217,4.439c-5.242,5.678 -14.568,22.225 -14.612,22.287c-4.508,6.352 -8.465,4.113 -12.578,3.884c3.042,6.693 1.511,10.334 -1.067,13.674c-0.506,0.656 -1.054,1.301 -1.614,1.956" style="fill:none;stroke:#020144;stroke-width:3.33px;"/><path d="M921.621,173.371c1.955,-7.923 4.582,-17.4 5.075,-23.813c2.213,-28.762 -9.505,-27.222 -19.425,-40.563c-1.608,2.46 -2.348,3.69 -4.034,1.329c-2.463,-3.448 -2.918,-7.392 -13.146,-8.596c-15.824,-1.861 -28.44,4.987 -49.043,5.764c-2.54,0.096 -4.528,-0.587 -3.135,1.618c1.877,2.972 1.462,3.767 9.247,6.693c-6.496,3.809 -18.756,2.467 -24.112,15.857c-2.576,6.44 -0.622,9.449 -8.657,10.208c3.659,7.025 5.14,8.451 11.534,9.75c-3.347,5.675 -9.867,3.44 -6.82,8.962c2.243,4.067 6.367,8.704 9.714,12.213c2.205,2.31 5.837,6.449 6.611,7.296" style="fill:none;stroke:#020144;stroke-width:3.33px;"/><path d="M847.217,164.178c1.808,-0.159 9.633,-1.935 15.256,6.498c4.371,6.557 3.116,17.155 0.767,29.057" style="fill:none;stroke:#020144;stroke-width:3.33px;"/><path d="M876.664,170.353c5.471,-2.614 9.998,-2.184 12.471,-2.049c8.446,0.461 15.119,7.134 16.142,8.157" style="fill:none;stroke:#020144;stroke-width:3.33px;"/><path d="M883.495,214.95c0.226,0.39 -12.596,4.876 -24.735,-2.746" style="fill:none;stroke:#020144;stroke-width:3.33px;"/><path d="M887.576,177.792c1.575,-0.126 3.091,2.768 3.386,6.458c0.294,3.69 -0.745,6.787 -2.32,6.913c-1.574,0.125 -3.091,-2.769 -3.385,-6.458c-0.294,-3.69 0.745,-6.788 2.319,-6.913Z" style="fill:none;stroke:#020144;stroke-width:3.33px;"/><path d="M854.36,176.465c1.574,-0.126 3.091,2.768 3.385,6.458c0.294,3.69 -0.745,6.787 -2.319,6.913c-1.574,0.125 -3.091,-2.769 -3.385,-6.458c-0.294,-3.69 0.745,-6.788 2.319,-6.913Z" style="fill:none;stroke:#020144;stroke-width:3.33px;"/><path d="M902.572,224.376c0.293,5.635 0.374,12.603 5.232,19.095c1.756,2.347 4.136,4.632 7.376,6.769c2.507,1.653 5.529,3.218 9.175,4.655c1.873,0.738 3.91,1.442 6.126,2.107c28.16,8.448 36.407,12.121 39.714,14.63c1.097,0.832 1.65,1.537 2.207,2.245c11.954,15.214 57.652,126.413 55.064,154.359c-0.891,9.622 -12.513,14.961 -28.236,17.743c-33.772,5.976 -86.464,0.157 -92.373,-0.336c-1.414,-0.118 -3.09,-0.248 -4.98,-0.389c-8.418,-0.628 -21.08,-1.458 -33.779,-2.26c-1.641,-0.104 -3.283,-0.207 -4.916,-0.309c-0.659,-0.041 -1.317,-0.082 -1.972,-0.123c-10.747,-0.671 -20.963,-1.29 -28.02,-1.714c-4.458,-0.268 -7.656,-0.458 -8.93,-0.534" style="fill:none;stroke:#020144;stroke-width:3.33px;"/><path d="M858.377,234.288c-0.802,4.487 -2.539,10.079 -4.345,11.524c-0.686,0.548 -1.384,1.082 -2.094,1.601c-3.374,2.469 -7.009,4.619 -10.813,6.561c-0.072,0.037 -0.145,0.074 -0.217,0.111c-3.293,1.671 -6.71,3.188 -10.194,4.624c-19.593,8.075 -41.276,13.563 -54.548,29.237c-1.951,2.303 -3.72,4.827 -5.274,7.611c-19.07,34.167 -38.743,87.061 -39.382,88.898c-4.63,13.31 -26.35,50.1 41.685,54.352c1.696,0.106 7.474,0.353 16.03,0.633c2.728,0.089 5.738,0.182 8.988,0.275c7.561,0.215 16.421,0.429 26.047,0.599" style="fill:none;stroke:#020144;stroke-width:3.33px;"/><path d="M915.18,250.24c-0.855,2.348 -1.786,5.387 -2.75,9.04c-3.824,14.498 -8.16,38.672 -10.329,67.727c-0.074,0.992 -0.145,1.981 -0.212,2.966c-0.098,1.431 -0.19,2.854 -0.275,4.27m-0.996,30.982c-0.054,8.26 0.044,16.202 0.209,23.816c0.464,21.413 1.452,40.231 1.05,56.213m13.303,-195.014c-0.855,2.348 -1.786,5.387 -2.75,9.04c-3.824,14.498 -8.16,38.672 -10.329,67.727c-0.074,0.992 -0.145,1.981 -0.212,2.966c-0.098,1.431 -0.19,2.854 -0.275,4.27" style="fill:none;stroke:#020144;stroke-width:3.33px;"/><path d="M841.125,253.974c-0.032,0.106 -0.065,0.213 -0.097,0.321c-3.504,11.649 -7.658,32.613 -7.913,59.141c-0.241,25.118 0.004,43.916 0.348,58.898c0.318,13.838 0.72,24.42 0.899,33.719" style="fill:none;stroke:#020144;stroke-width:3.33px;"/><path d="M908.932,370.172c-2.724,4.713 -5.389,10.379 -8.105,18.869m23.528,-134.146c0.511,22.993 14.451,30.876 -5.555,43.607c-16.93,10.774 11.106,33.154 6.132,44.346c-1.703,3.831 -3.338,7.009 -4.92,9.793" style="fill:none;stroke:#020144;stroke-width:3.33px;"/><path d="M830.714,258.709c-4.293,6.916 -10.298,17.083 -10.445,17.691c-4.04,16.737 9.888,20.472 8.983,26.808c-0.167,1.169 -20.266,21.366 -16.968,32.083c5.294,17.206 13.342,19.887 21.179,37.043" style="fill:none;stroke:#020144;stroke-width:3.33px;"/><path d="M907.804,243.471c-5.178,3.331 -15.094,8.675 -26.689,10.832c-0.8,0.149 -3.55,0.48 -5.55,0.999c-1.236,0.321 -2.185,0.714 -2.213,1.18c-0.285,4.848 -3.098,19.332 -4.44,20.225c-0.27,0.18 -0.48,-0.19 -0.598,-1.296c-0.021,-0.188 -2.408,-15.924 -3.95,-17.295c-0.706,-0.628 -1.352,-1.197 -1.947,-1.717c-4.892,-4.276 -6.396,-5.282 -10.479,-8.986" style="fill:none;stroke:#020144;stroke-width:3.33px;"/><path d="M875.565,255.302c3.532,5.118 6.534,16.919 6.562,16.979c2.691,-0.336 18.463,-4.525 30.303,-13.001" style="fill:none;stroke:#020144;stroke-width:3.33px;"/><path d="M862.417,256.399c-6.689,4.667 -6.706,21.508 -12.222,13.364c-1.63,-2.406 -6.005,-9.95 -9.167,-15.468l-0.12,-0.21" style="fill:none;stroke:#020144;stroke-width:3.33px;"/><path d="M863.695,351.257c-0.717,28.486 -1.574,39.73 -2.073,58.512m2.233,-65.258c-0.014,0.627 -0.028,1.247 -0.042,1.859m0.247,-10.468c-0.018,0.548 -0.035,1.106 -0.051,1.675m4.903,-60.87c-0.081,12.052 -0.715,19.669 -1.507,26.108" style="fill:none;stroke:#020144;stroke-width:3.33px;"/><path d="M788.268,337.001c1.431,6.186 2.705,11.86 3.839,17.065c6.438,29.542 8.396,43.978 9.18,51.188" style="fill:none;stroke:#020144;stroke-width:3.33px;"/><path d="M792.107,354.066c-9.319,16.954 -11.066,21.601 -20.162,39.639" style="fill:none;stroke:#020144;stroke-width:3.33px;"/><path d="M745.901,389.718c8.298,-0.485 17.02,0.174 26.044,3.987c0.305,0.129 0.611,0.262 0.917,0.399c9.084,4.047 18.425,7.735 28.425,11.15c3.965,1.354 8.035,2.665 12.233,3.939c2.166,0.657 4.367,1.305 6.605,1.943c3.016,0.86 6.101,1.703 9.262,2.531" style="fill:none;stroke:#020144;stroke-width:3.33px;"/><path d="M776.166,287.946c3.933,11.06 8.641,28.988 9.273,31.395" style="fill:none;stroke:#020144;stroke-width:3.33px;"/><path d="M970.195,271.632c-7.571,8.279 -13.372,22.34 -21.003,42.264" style="fill:none;stroke:#020144;stroke-width:3.33px;"/><path d="M1010.74,398.87c-10.908,-10.27 -39.055,-22.492 -62.809,-33.018c-3.421,-1.516 -6.75,-2.996 -9.924,-4.431c-5.778,-2.611 -11.039,-5.07 -15.395,-7.31c-0.889,-0.457 -1.755,-0.948 -2.601,-1.47c-7.089,-4.38 -12.701,-10.951 -18.398,-18.398c-1.022,-1.335 -2.046,-2.699 -3.082,-4.083c-3.786,-5.059 -7.73,-10.392 -12.27,-15.631c0,0 -2.735,-3.883 -3.914,-0.633c-1.101,3.035 5.161,6.668 4.706,13.949" style="fill:none;stroke:#020144;stroke-width:3.33px;"/><path d="M887.054,327.845c-2.877,-0.835 -5.672,-1.784 -8.337,-2.768c-5.108,-1.885 -9.737,-3.894 -13.54,-5.452c-6.187,-2.533 -10.19,-3.874 -10.521,-1.549c-0.546,3.835 3.992,6.832 9.833,9.283c0.969,0.406 1.974,0.797 2.997,1.175c6.174,2.28 13.025,4.061 16.766,5.637c-5.106,1.182 -12.41,-1.772 -19.064,-4.942c-0.266,-0.127 -0.532,-0.254 -0.796,-0.382c-8.921,-4.302 -16.446,-8.713 -15.537,-3.545c0.411,2.342 3.172,4.635 6.972,6.759c2.433,1.361 5.293,2.651 8.233,3.841c11.402,4.613 24.025,7.701 17.778,7.411c-4.595,-0.214 -11.511,-3.099 -17.829,-5.736c-4.853,-2.026 -9.353,-3.907 -12.176,-4.318c-0.936,-0.137 -1.688,-0.112 -2.207,0.123c-0.412,0.186 -0.677,0.505 -0.771,0.979c-0.263,1.317 5.702,6.374 15,10.15c3.576,1.452 7.645,2.716 12.042,3.504c0.451,0.081 8.802,0.872 5.296,2.631c-2.336,1.173 -10.474,-1.957 -17.38,-4.276c-4.918,-1.651 -9.211,-2.89 -10.339,-1.871c-2.957,2.673 1.657,4.245 10.221,6.758c9.232,2.709 23.052,6.512 36.923,13.968c2.781,1.495 5.565,3.137 8.314,4.947c2.132,1.404 4.244,2.909 6.318,4.524c8.169,6.362 8.981,7.197 15.192,12.53c0.814,0.7 1.721,1.476 2.75,2.353" style="fill:none;stroke:#020144;stroke-width:3.33px;"/><path d="M933.192,389.579c0,0 2.799,3.174 7.463,8.078c12.274,12.904 37.466,37.785 58.575,48.322" style="fill:none;stroke:#020144;stroke-width:3.33px;"/><path d="M947.932,365.852c1.296,8.508 -0.122,25.286 -7.277,31.805" style="fill:none;stroke:#020144;stroke-width:3.33px;"/><path d="M938.008,361.421c0.686,6.788 0.329,19.245 -7.566,25.805" style="fill:none;stroke:#020144;stroke-width:3.33px;"/><path d="M956.254,388.955c-0.494,3.727 -1.86,6.904 -5.467,11.542" style="fill:none;stroke:#020144;stroke-width:3.33px;"/><path d="M821.032,431.866c3.693,-5.43 6.04,-12.692 8.355,-18.199c1.543,-3.672 3.072,-6.564 4.975,-7.614c0.579,-0.32 1.192,-0.469 1.851,-0.418c13.248,1.023 20.011,0.952 25.409,4.134c1.95,1.149 3.721,2.721 5.556,4.923c15.286,18.343 16.058,19.028 14.635,20.451c-1.88,1.88 -5.681,0.433 -7.923,-0.615" style="fill:none;stroke:#020144;stroke-width:3.33px;"/><path d="M843.727,414.011c2.808,0.259 13.085,2.076 15.899,4.219c2.499,1.905 10.519,11.58 14.264,16.298c1.108,1.395 1.842,2.356 1.949,2.555c1.675,3.111 -0.081,5.236 -0.539,5.494c-1.868,1.05 -5.408,-0.764 -8.478,-2.81" style="fill:none;stroke:#020144;stroke-width:3.33px;"/><path d="M841.436,421.843c10.555,1.849 12.357,2.629 16.615,5.329c3.337,2.116 6.673,7.802 8.771,12.595c0.502,1.147 0.933,2.243 1.276,3.227" style="fill:none;stroke:#020144;stroke-width:3.33px;"/><path d="M840.014,429.323c1.109,0.197 10.588,3.476 12.892,4.233c3.632,1.194 6.309,3.671 8.312,6.26c0.743,0.961 1.392,1.937 1.964,2.869" style="fill:none;stroke:#020144;stroke-width:3.33px;"/><path d="M820.125,411.136c-2.042,4.292 -6.344,12.99 -13.299,18.863c-1.496,1.264 -9.459,5.557 -8.613,9.716" style="fill:none;stroke:#020144;stroke-width:3.33px;"/><path d="M813.52,409.193c-1.719,3.195 -6.554,10.473 -10.722,14.232c-4.78,4.311 -14.002,10.498 -13.573,16.015" style="fill:none;stroke:#020144;stroke-width:3.33px;"/><path d="M789.197,427.071c-5.092,4.411 -4.339,7.978 -4.315,8.854" style="fill:none;stroke:#020144;stroke-width:3.33px;"/><path d="M855.827,332.061l-3.65,1.104c-0.115,0.035 -0.229,0.066 -0.344,0.094m-2.207,0.123c-2.339,-0.296 -4.403,-1.929 -5.129,-4.33l-3.567,-11.792c-0.985,-3.255 0.858,-6.696 4.112,-7.681l25.751,-7.789c3.254,-0.985 6.696,0.858 7.68,4.113l3.567,11.792c0.902,2.981 -0.568,6.119 -3.323,7.382m-11.231,3.457l-2.298,0.695" style="fill:none;stroke:#020144;stroke-width:3.33px;"/></g><circle cx="882.305" cy="284.31" r="224.884" style="fill:none;stroke:#020144;stroke-width:3.33px;"/><circle cx="427.947" cy="124.198" r="48.426" style="fill:#fad6e4;stroke:#020144;stroke-width:3.33px;stroke-miterlimit:2.99419;"/><circle cx="210.82" cy="734.596" r="48.426" style="fill:#def1ec;stroke:#020144;stroke-width:3.33px;stroke-miterlimit:2.99419;"/><circle cx="469.001" cy="85.844" r="21.221" style="fill:#f084ad;"/><circle cx="720.044" cy="853.253" r="21.221" style="fill:#f084ad;"/><circle cx="489.555" cy="544.661" r="25.887" style="fill:none;stroke:#f084ad;stroke-width:8.33px;stroke-miterlimit:2.99419;"/><circle cx="1176.74" cy="561.796" r="25.887" style="fill:none;stroke:#5cba9e;stroke-width:8.33px;stroke-miterlimit:2.99419;"/></g></g></svg>