<?xml version="1.0" encoding="UTF-8"?>
<svg id="Layer_1" data-name="Layer 1" xmlns="http://www.w3.org/2000/svg" xmlns:serif="http://www.serif.com/" version="1.1" viewBox="0 0 1366 768">
  <defs>
    <style>
      .cls-1, .cls-2 {
        fill: #5cba9e;
      }

      .cls-1, .cls-2, .cls-3, .cls-4, .cls-5, .cls-6 {
        stroke-width: 0px;
      }

      .cls-1, .cls-7, .cls-4, .cls-5 {
        fill-rule: evenodd;
      }

      .cls-8, .cls-9 {
        stroke: #5cba9e;
      }

      .cls-8, .cls-9, .cls-3, .cls-10 {
        fill: none;
      }

      .cls-8, .cls-9, .cls-7, .cls-10 {
        stroke-linecap: round;
        stroke-linejoin: round;
        stroke-width: 11.9px;
      }

      .cls-9 {
        stroke-opacity: .5;
      }

      .cls-2 {
        fill-opacity: .5;
      }

      .cls-7, .cls-5, .cls-6 {
        fill: #020144;
      }

      .cls-7, .cls-10 {
        stroke: #020144;
      }

      .cls-4 {
        fill: #b6e2da;
      }
    </style>
  </defs>
  <rect id="_03_High-quality-support-and-improved-documentation" data-name=" 03 High-quality-support-and-improved-documentation" class="cls-3" x="299" width="768" height="768" serif:id="03_High-quality support and improved documentation"/>
  <g id="_03_High-quality-support-and-improved-documentation1" data-name=" 03 High-quality-support-and-improved-documentation1" serif:id="03_High-quality support and improved documentation">
    <g id="Layer3">
      <g>
        <rect class="cls-10" x="478.1" y="157.3" width="345.6" height="453.3" transform="translate(-77.2 181.5) rotate(-15)"/>
        <path class="cls-7" d="M549.7,157.4c6.2-12.1,18.1-22.1,33.4-26.2,15.3-4.1,30.6-1.5,42.1,6l46.8-12.6,13.9,51.7-169.2,45.3-13.9-51.7,46.8-12.6h0Z"/>
        <path class="cls-10" d="M500.1,270.6l146.7-39.3"/>
        <path class="cls-10" d="M507.3,297.4l73.4-19.7"/>
        <path class="cls-10" d="M536.1,404.8l86.4-23.1"/>
        <path class="cls-10" d="M514.5,324.3l125.4-33.6"/>
        <path class="cls-10" d="M543.3,431.6l58.1-15.6"/>
        <path class="cls-10" d="M619.6,411.2l58.1-15.6"/>
        <path class="cls-10" d="M521.7,351.1l43.2-11.6"/>
        <path class="cls-10" d="M583.2,334.6l135-36.2"/>
        <path class="cls-10" d="M550.7,460.3l133-35.6"/>
        <path class="cls-10" d="M528.9,378l160.2-42.9"/>
        <path class="cls-10" d="M557.2,486.5l25.6-6.9"/>
      </g>
      <path class="cls-4" d="M952.8,306.4c.4-1.5.2-3-.6-4.3-.8-1.3-2-2.3-3.5-2.7-19.5-5.2-85.6-22.9-105.1-28.2-1.5-.4-3-.2-4.3.6-1.3.8-2.3,2-2.7,3.5-5.2,19.5-22.9,85.6-28.2,105.1-.4,1.5-.2,3,.6,4.3.8,1.3,2,2.3,3.5,2.7,19.5,5.2,85.6,22.9,105.1,28.2,1.5.4,3,.2,4.3-.6,1.3-.8,2.3-2,2.7-3.5,5.2-19.5,22.9-85.6,28.2-105.1Z"/>
      <g>
        <path class="cls-5" d="M847.7,310.9l-11.9,44.3,33.6,9,2.2-8.2-23.9-6.4,2.9-10.9,21.5,5.8,2-7.6-21.5-5.8,2.5-9.5,23.4,6.3,2.2-8.2-33.1-8.9h0Z"/>
        <path class="cls-5" d="M887.9,321.6l-11.9,44.3,9.1,2.4,7.9-29.7h.1s10.5,34.6,10.5,34.6l9.7,2.6,11.9-44.3-9.1-2.4-8,29.7h-.1s-10.5-34.7-10.5-34.7l-9.7-2.6h0Z"/>
      </g>
      <path class="cls-1" d="M868.4,182.4c0-1.5-.6-3-1.7-4-1.1-1.1-2.5-1.7-4-1.7h-108.9c-1.5,0-3,.6-4,1.7-1.1,1.1-1.7,2.5-1.7,4v108.9c0,1.5.6,3,1.7,4,1.1,1.1,2.5,1.7,4,1.7h108.9c1.5,0,3-.6,4-1.7,1.1-1.1,1.7-2.5,1.7-4v-108.9h0Z"/>
      <g>
        <path class="cls-6" d="M777.1,251.3v-28.9h7.2c2.5,0,4.6.4,6.3,1.1,1.7.7,3.1,1.7,4.1,3.1,1,1.3,1.8,2.9,2.2,4.8.4,1.9.7,3.9.7,6.3s-.3,4.7-1,6.4c-.6,1.8-1.5,3.2-2.6,4.3-1.1,1.1-2.3,1.9-3.7,2.3s-2.8.7-4.2.7h-9ZM767.1,213.9v45.9h19.8c3.5,0,6.6-.6,9.2-1.8,2.6-1.2,4.8-2.8,6.5-4.8,1.7-2.1,3-4.5,3.9-7.3s1.3-5.9,1.3-9.2-.5-7.1-1.6-10-2.5-5.2-4.4-7.1c-1.9-1.9-4.1-3.3-6.6-4.2-2.5-.9-5.3-1.4-8.3-1.4h-19.8Z"/>
        <path class="cls-6" d="M814.6,213.9v45.9h34.8v-8.5h-24.7v-11.2h22.2v-7.8h-22.2v-9.8h24.2v-8.5h-34.3Z"/>
      </g>
    </g>
    <circle class="cls-8" cx="867.4" cy="494.1" r="24.3"/>
    <circle class="cls-8" cx="453.9" cy="332.8" r="24.3"/>
    <ellipse class="cls-9" cx="918.8" cy="201.3" rx="18.2" ry="18.4"/>
    <ellipse class="cls-2" cx="438.4" cy="394.2" rx="12.9" ry="13.1"/>
    <ellipse class="cls-2" cx="857.6" cy="611.9" rx="19.8" ry="20"/>
  </g>
</svg>