<?xml version="1.0" encoding="UTF-8"?>
<svg xmlns="http://www.w3.org/2000/svg" viewBox="0 0 800 800">
  <defs>
    <style>
      .cls-1 {
        fill: #bee3d8;
      }

      .cls-1, .cls-2, .cls-3 {
        stroke-width: 0px;
      }

      .cls-2 {
        fill: #5cba9e;
      }

      .cls-4 {
        fill: none;
        stroke: #020144;
        stroke-linecap: round;
        stroke-linejoin: round;
        stroke-width: 6px;
      }

      .cls-3 {
        fill: #fcf9db;
      }
    </style>
  </defs>
  <g id="BK">
    <path class="cls-3" d="M454.83,364.87c0,11.36-1.26,22.42-3.64,33.05-3.02-12.19-6.85-24.05-11.44-35.53-1.3,25.51-6.1,50.1-13.91,73.3-2.55-18.92-6.14-37.51-10.73-55.71h0c-4.09-16.29-8.97-32.26-14.6-47.87-11.93,33.07-20.52,67.74-25.35,103.59-7.81-23.2-12.6-47.8-13.91-73.31-12.56,31.44-19.48,65.74-19.48,101.67,0,2.01.02,4.01.07,6.01-17.49-18.86-37.61-35.25-59.77-48.6,22.16,26.68,39.35,57.63,50.15,91.43-9.08,1.72-18.45,2.61-28.03,2.61-83.2,0-150.64-67.44-150.64-150.64s67.44-150.64,150.64-150.64,150.64,67.45,150.64,150.64Z"/>
  </g>
  <g id="Fill">
    <g>
      <g>
        <path class="cls-2" d="M425.84,435.69h0c-6.46,19.22-15,37.47-25.34,54.5-7.71-12.7-14.41-26.07-20.01-40.02h.01c18.07-18.86,30.51-43.15,34.61-70.19,4.59,18.2,8.18,36.79,10.73,55.71Z"/>
        <path class="cls-2" d="M459.17,470.08c3.74-4.05,7.62-7.99,11.61-11.79-10.17,18.52-15.95,39.78-15.95,62.4,0,3.34.12,6.64.37,9.91h-38.62c11.44-22.1,25.8-42.44,42.59-60.52Z"/>
        <path class="cls-1" d="M354.94,501.76c0,9.91-1.11,19.57-3.21,28.84h-14.5c-10.04-40.72-29.19-77.86-55.16-109.13,22.16,13.35,42.28,29.75,59.76,48.61,4.12,4.42,8.08,8.98,11.87,13.66.82,5.88,1.24,11.91,1.24,18.02Z"/>
        <path class="cls-1" d="M518.94,421.47c-25.98,31.27-45.12,68.41-55.17,109.13h-8.57c-.25-3.27-.37-6.57-.37-9.91,0-22.62,5.78-43.88,15.95-62.4h0c14.6-13.98,30.75-26.34,48.16-36.82Z"/>
        <path class="cls-1" d="M415.11,379.97h0c-4.1,27.05-16.54,51.34-34.61,70.2h-.01c-1.91-4.76-3.69-9.58-5.33-14.47,4.83-35.85,13.42-70.52,25.35-103.59,5.63,15.61,10.51,31.58,14.6,47.86Z"/>
        <path class="cls-1" d="M483.11,565.26l-17.73,83.23c0,4.43-2.08,8.37-5.3,10.9-2.37,1.87-5.34,2.97-8.57,2.97h-102.67c-7.66,0-13.87-6.21-13.87-13.87l-17.73-83.23h165.87Z"/>
      </g>
      <g>
        <path class="cls-4" d="M463.77,530.6h9.89c7.67,0,13.88,6.22,13.88,13.87l-4.43,20.79-17.73,83.23c0,4.43-2.08,8.37-5.3,10.9-2.37,1.87-5.34,2.97-8.57,2.97h-102.67c-7.66,0-13.87-6.21-13.87-13.87l-17.73-83.23-4.43-20.79c0-7.65,6.22-13.87,13.87-13.87h137.09Z"/>
        <path class="cls-4" d="M470.78,458.28c14.6-13.97,30.75-26.33,48.16-36.81-25.98,31.27-45.12,68.41-55.17,109.13"/>
        <path class="cls-4" d="M416.58,530.6c11.44-22.1,25.8-42.44,42.59-60.52,3.74-4.05,7.62-7.99,11.61-11.79"/>
        <path class="cls-4" d="M337.23,530.6c-10.04-40.72-29.19-77.86-55.16-109.13,22.16,13.35,42.28,29.75,59.76,48.61,4.12,4.42,8.08,8.98,11.87,13.66,9.41,11.57,17.89,23.93,25.32,36.95,1.87,3.26,3.67,6.57,5.4,9.91"/>
        <path class="cls-4" d="M439.75,362.39c12.56,31.44,19.48,65.74,19.48,101.67,0,2.01-.02,4.01-.07,6.01"/>
        <path class="cls-4" d="M341.84,470.07c-.05-2-.07-4-.07-6.01,0-35.93,6.92-70.23,19.48-101.67"/>
        <path class="cls-4" d="M400.5,490.19c-7.71-12.7-14.41-26.07-20.01-40.02-1.91-4.76-3.69-9.58-5.33-14.47-7.81-23.2-12.6-47.8-13.91-73.31"/>
        <path class="cls-4" d="M425.84,435.69c7.81-23.2,12.61-47.79,13.91-73.3"/>
        <path class="cls-4" d="M379.02,520.69c7.82-9.64,15.01-19.83,21.48-30.5,10.34-17.03,18.88-35.28,25.34-54.49"/>
        <path class="cls-4" d="M415.11,379.98c4.59,18.2,8.18,36.79,10.73,55.71h0"/>
        <path class="cls-4" d="M375.16,435.7c4.83-35.85,13.42-70.52,25.35-103.59,5.63,15.61,10.51,31.58,14.6,47.86"/>
        <line class="cls-4" x1="483.11" y1="565.26" x2="317.24" y2="565.26"/>
        <path class="cls-4" d="M415.11,379.97h0c-4.1,27.05-16.54,51.34-34.61,70.2"/>
        <path class="cls-4" d="M353.7,483.74c.82,5.88,1.24,11.91,1.24,18.02,0,9.91-1.11,19.57-3.21,28.84"/>
        <path class="cls-4" d="M455.2,530.6c-.25-3.27-.37-6.57-.37-9.91,0-22.62,5.78-43.88,15.95-62.4h0"/>
      </g>
    </g>
  </g>
</svg>