<?xml version="1.0" encoding="utf-8"?>
<!-- Generator: Adobe Illustrator 27.4.0, SVG Export Plug-In . SVG Version: 6.00 Build 0)  -->
<svg version="1.1" id="Ebene_1" xmlns="http://www.w3.org/2000/svg" xmlns:xlink="http://www.w3.org/1999/xlink" x="0px" y="0px"
	 viewBox="0 0 405.1 200.6" style="enable-background:new 0 0 405.1 200.6;" xml:space="preserve">
<style type="text/css">
	.st0{fill:#00508C;}
	.st1{fill:none;stroke:#1D1D1B;stroke-width:3;}
	.st2{enable-background:new    ;}
	.st3{fill:#FFFFFF;}
	.st4{fill:#1D1D1B;}
</style>
<path class="st0" d="M91.5,199.4c-1.1,0-2.1-0.4-2.8-1.2L1.2,110.7c-1.6-1.6-1.6-4.1,0-5.7l87.5-87.5c1.6-1.6,4.1-1.6,5.7,0
	l87.5,87.5c0.8,0.8,1.2,1.8,1.2,2.8s-0.4,2.1-1.2,2.8l-87.5,87.5C93.6,198.9,92.5,199.4,91.5,199.4L91.5,199.4z"/>
<line class="st1" x1="196.8" y1="107.9" x2="399.6" y2="107.9"/>
<g class="st2">
	<path class="st3" d="M25.6,102.9c1.9,1.9,2,4.9-0.2,7.1c-2.1,2.1-5.1,2-7,0.1c-2-2-2-5,0.1-7.1C20.7,100.8,23.5,100.9,25.6,102.9z
		 M51.3,142.3l-25.5-25.5l6.5-6.5l25.5,25.5L51.3,142.3z"/>
	<path class="st3" d="M39,89.5c1.9,1.9,2,4.9-0.2,7.1c-2.1,2.1-5.1,2-7,0.1c-2-2-2-5,0.1-7.1C34.1,87.4,36.9,87.5,39,89.5z
		 M64.7,128.9l-25.5-25.5l6.5-6.5l25.5,25.5L64.7,128.9z"/>
	<path class="st3" d="M52.4,76.1c1.9,1.9,2,4.9-0.2,7.1c-2.1,2.1-5.1,2-7,0.1c-2-2-2-5,0.1-7.1C47.4,74,50.3,74.1,52.4,76.1z
		 M78.1,115.5L52.6,90.1l6.5-6.5L84.6,109L78.1,115.5z"/>
</g>
<g class="st2">
	<path class="st3" d="M85.4,92.2c1.9-1.9,4.9-2,7.1,0.2c2.1,2.1,2,5.1,0.1,7c-2,2-5,2-7.1-0.1C83.3,97.2,83.5,94.3,85.4,92.2z
		 M124.9,66.5L99.4,92l-6.5-6.5L118.4,60L124.9,66.5z"/>
	<path class="st3" d="M72,78.8c1.9-1.9,4.9-2,7.1,0.2c2.1,2.1,2,5.1,0.1,7c-2,2-5,2-7.1-0.1C70,83.8,70.1,80.9,72,78.8z M111.5,53.1
		L86,78.6l-6.5-6.5L105,46.6L111.5,53.1z"/>
	<path class="st3" d="M58.6,65.4c1.9-1.9,4.9-2,7.1,0.2c2.1,2.1,2,5.1,0.1,7c-2,2-5,2-7.1-0.1C56.6,70.4,56.7,67.5,58.6,65.4z
		 M98.1,39.7L72.6,65.2l-6.5-6.5l25.5-25.5L98.1,39.7z"/>
</g>
<g class="st2">
	<path class="st3" d="M132.9,74.3l25.5,25.5l-6.5,6.5l-25.5-25.5L132.9,74.3z M158.7,113.7c-1.9-1.9-2-4.9,0.2-7.1
		c2.1-2.1,5.1-2,7-0.1c2,2,2,5-0.1,7.1C163.6,115.8,160.7,115.7,158.7,113.7z"/>
	<path class="st3" d="M119.5,87.7l25.5,25.5l-6.5,6.5L113,94.1L119.5,87.7z M145.3,127.1c-1.9-1.9-2-4.9,0.2-7.1
		c2.1-2.1,5.1-2,7-0.1c2,2,2,5-0.1,7.1C150.2,129.2,147.3,129.1,145.3,127.1z"/>
	<path class="st3" d="M106.1,101.1l25.5,25.5l-6.5,6.5l-25.5-25.5L106.1,101.1z M131.9,140.5c-1.9-1.9-2-4.9,0.2-7.1
		c2.1-2.1,5.1-2,7-0.1c2,2,2,5-0.1,7.1C136.8,142.6,133.9,142.4,131.9,140.5z"/>
</g>
<g class="st2">
	<path class="st3" d="M57.7,150.8l25.5-25.5l6.5,6.5l-25.5,25.5L57.7,150.8z M97.2,125c-1.9,1.9-4.9,2-7.1-0.2c-2.1-2.1-2-5.1-0.1-7
		c2-2,5-2,7.1,0.1C99.3,120.1,99.1,123,97.2,125z"/>
	<path class="st3" d="M71.1,164.2l25.5-25.5l6.5,6.5l-25.5,25.5L71.1,164.2z M110.6,138.4c-1.9,1.9-4.9,2-7.1-0.2
		c-2.1-2.1-2-5.1-0.1-7c2-2,5-2,7.1,0.1C112.7,133.5,112.5,136.4,110.6,138.4z"/>
	<path class="st3" d="M84.5,177.6l25.5-25.5l6.5,6.5L91,184.1L84.5,177.6z M124,151.8c-1.9,1.9-4.9,2-7.1-0.2c-2.1-2.1-2-5.1-0.1-7
		c2-2,5-2,7.1,0.1C126.1,146.9,125.9,149.8,124,151.8z"/>
</g>
<g class="st2">
	<path class="st0" d="M212.8,23.1c0,4-2.9,7.1-7.6,7.1c-4.4,0-7.3-3.1-7.3-7.1c0-4.1,3-7.2,7.5-7.2C209.9,15.9,212.7,19,212.8,23.1z
		 M198.7,90.4V37.8h13.4v52.6H198.7z"/>
	<path class="st0" d="M240.4,17.6h13.3v47.2c0,20.1-9.7,26.8-24.2,26.8c-3.7,0-8.3-0.6-11.1-1.7l1.6-10.7c2.2,0.6,5.1,1.3,8.2,1.3
		c7.6,0,12.2-3.5,12.2-16.1V17.6z"/>
	<path class="st0" d="M280.4,17.6v42.4c0,14.3,5.9,20.8,14.9,20.8c9.6,0,15.3-6.6,15.3-20.8V17.6H324v41.6
		c0,22.5-11.6,32.4-29.1,32.4c-16.8,0-27.8-9.4-27.8-32.3V17.6H280.4z"/>
	<path class="st0" d="M396.5,87.1c-4.6,1.7-13.7,4.1-23.4,4.1c-12.3,0-21.6-3.1-28.5-9.7c-6.5-6.2-10.3-15.8-10.2-26.8
		c0-23,16.4-37.8,40.5-37.8c9,0,16,1.8,19.3,3.5L391.4,31c-4-1.7-8.9-3.1-16.5-3.1c-15.6,0-26.5,9.2-26.5,26.1
		c0,16.5,10.2,26.4,25.3,26.4c4.8,0,8.3-0.6,10-1.5V60.7h-12.9V50.2h25.7V87.1z"/>
</g>
<g class="st2">
	<path class="st4" d="M207.8,179.3l-12.8-39.1h5.5l6.1,19.3c1.7,5.3,3.1,10,4.2,14.6h0.1c1.1-4.5,2.7-9.5,4.5-14.6l6.6-19.3h5.4
		l-14,39.1H207.8z"/>
	<path class="st4" d="M232.4,166.2c0.1,6.9,4.5,9.7,9.6,9.7c3.7,0,5.9-0.6,7.8-1.4l0.9,3.7c-1.8,0.8-4.9,1.7-9.3,1.7
		c-8.6,0-13.8-5.7-13.8-14.2s5-15.1,13.2-15.1c9.2,0,11.6,8.1,11.6,13.2c0,1-0.1,1.9-0.2,2.4H232.4z M247.3,162.6
		c0.1-3.2-1.3-8.3-7.1-8.3c-5.2,0-7.4,4.8-7.8,8.3H247.3z"/>
	<path class="st4" d="M258.6,160c0-3.3-0.1-6.1-0.2-8.8h4.5l0.2,5.5h0.2c1.3-3.8,4.3-6.1,7.8-6.1c0.6,0,1,0.1,1.5,0.2v4.8
		c-0.5-0.1-1-0.2-1.7-0.2c-3.6,0-6.1,2.7-6.8,6.6c-0.1,0.7-0.2,1.5-0.2,2.4v15h-5V160z"/>
	<path class="st4" d="M277.5,179.3c0.1-1.9,0.2-4.8,0.2-7.2v-33.9h5v17.6h0.1c1.8-3.1,5-5.2,9.6-5.2c7,0,11.9,5.8,11.8,14.3
		c0,10-6.3,15-12.6,15c-4.1,0-7.3-1.6-9.4-5.3h-0.2l-0.2,4.6H277.5z M282.8,168.1c0,0.6,0.1,1.3,0.2,1.9c1,3.5,3.9,6,7.7,6
		c5.3,0,8.5-4.3,8.5-10.8c0-5.6-2.9-10.4-8.4-10.4c-3.5,0-6.7,2.4-7.8,6.3c-0.1,0.6-0.3,1.3-0.3,2.1V168.1z"/>
	<path class="st4" d="M334.3,171.7c0,2.9,0.1,5.5,0.2,7.7H330l-0.3-4.6h-0.1c-1.3,2.3-4.3,5.2-9.3,5.2c-4.4,0-9.7-2.4-9.7-12.3
		v-16.4h5.1v15.5c0,5.3,1.6,8.9,6.3,8.9c3.4,0,5.8-2.4,6.7-4.6c0.3-0.8,0.5-1.7,0.5-2.6v-17.2h5.1V171.7z"/>
	<path class="st4" d="M342.7,158.8c0-2.9-0.1-5.3-0.2-7.6h4.5l0.3,4.6h0.1c1.4-2.7,4.6-5.3,9.3-5.3c3.9,0,9.9,2.3,9.9,11.9v16.8
		h-5.1v-16.2c0-4.5-1.7-8.3-6.5-8.3c-3.4,0-6,2.4-6.8,5.2c-0.2,0.6-0.3,1.5-0.3,2.4v16.9h-5.1V158.8z"/>
	<path class="st4" d="M399.2,138.1v33.9c0,2.5,0.1,5.3,0.2,7.2h-4.6l-0.2-4.9h-0.1c-1.6,3.1-5,5.5-9.6,5.5c-6.8,0-12-5.7-12-14.3
		c-0.1-9.3,5.7-15.1,12.6-15.1c4.3,0,7.2,2,8.5,4.3h0.1v-16.8H399.2z M394.1,162.7c0-0.6-0.1-1.5-0.2-2.1c-0.8-3.2-3.5-5.9-7.4-5.9
		c-5.3,0-8.4,4.6-8.4,10.8c0,5.7,2.8,10.4,8.3,10.4c3.4,0,6.6-2.3,7.5-6.1c0.2-0.7,0.2-1.4,0.2-2.2V162.7z"/>
</g>
</svg>
