<?xml version="1.0" encoding="UTF-8"?>
<svg id="Ebene_1" data-name="Ebene 1" xmlns="http://www.w3.org/2000/svg" xmlns:xlink="http://www.w3.org/1999/xlink" viewBox="0 0 330.53 96.06">
  <defs>
    <style>
      .cls-1 {
        fill: url(#linear-gradient-2);
      }

      .cls-2 {
        fill: url(#linear-gradient-6);
      }

      .cls-3 {
        fill: url(#linear-gradient-10);
      }

      .cls-4 {
        fill: url(#linear-gradient-5);
      }

      .cls-5 {
        fill: url(#linear-gradient-7);
      }

      .cls-6 {
        fill: url(#linear-gradient-9);
      }

      .cls-7 {
        fill: url(#linear-gradient-3);
      }

      .cls-8 {
        fill: url(#linear-gradient);
      }

      .cls-9 {
        fill: url(#linear-gradient-4);
      }

      .cls-10 {
        fill: url(#linear-gradient-8);
      }
    </style>
    <linearGradient id="linear-gradient" x1="15.78" y1="-8.89" x2="24.47" y2="100.76" gradientUnits="userSpaceOnUse">
      <stop offset="0" stop-color="#1e958b"/>
      <stop offset="0" stop-color="#1e958b"/>
      <stop offset="1" stop-color="#004b79"/>
    </linearGradient>
    <linearGradient id="linear-gradient-2" x1="59.25" y1="-12.34" x2="67.94" y2="97.32" xlink:href="#linear-gradient"/>
    <linearGradient id="linear-gradient-3" x1="97.09" y1="-15.33" x2="105.78" y2="94.32" xlink:href="#linear-gradient"/>
    <linearGradient id="linear-gradient-4" x1="124.85" y1="-17.53" x2="133.54" y2="92.12" xlink:href="#linear-gradient"/>
    <linearGradient id="linear-gradient-5" x1="169.22" y1="-21.05" x2="177.91" y2="88.6" xlink:href="#linear-gradient"/>
    <linearGradient id="linear-gradient-6" x1="230.75" y1="-25.93" x2="239.44" y2="83.73" xlink:href="#linear-gradient"/>
    <linearGradient id="linear-gradient-7" x1="285.87" y1="-30.29" x2="294.56" y2="79.36" xlink:href="#linear-gradient"/>
    <linearGradient id="linear-gradient-8" x1="79.42" y1="-13.93" x2="88.11" y2="95.72" xlink:href="#linear-gradient"/>
    <linearGradient id="linear-gradient-9" x1="226.84" y1="-25.62" x2="235.53" y2="84.04" xlink:href="#linear-gradient"/>
    <linearGradient id="linear-gradient-10" x1="192.61" y1="15.27" x2="200.89" y2="53.75" xlink:href="#linear-gradient"/>
  </defs>
  <path class="cls-8" d="m11.69,96.06c-.53,0-1.04-.09-1.53-.26-1.54-.39-2.89-1.25-3.99-2.56-1-1.22-1.9-2.58-2.67-4.06-.76-1.56-1.36-3.16-1.77-4.75-.46-1.65-.83-3.17-1.08-4.52-.25-1.32-.43-2.45-.53-3.34-.06-1.01-.09-1.25-.11-1.31-.02-.08-.02-.18,0-.26,0,0,.03-.12.03-.12,0-.03.05-.18.06-.21.39-.87.91-1.38,1.55-1.53.14-.03.28-.05.42-.05.15,0,.31.02.47.06.51.14,1.31.57,1.33,1.86l.7,3.99c.24.99.53,1.92.86,2.74.3.74.7,1.43,1.18,2.07.4.53.87.9,1.46,1.11.16.05.36.08.55.08.16,0,.32-.02.48-.06.44-.1.91-.36,1.39-.74,1.14-.85,2.29-2.07,3.42-3.64l.17-.33c.05-.1.13-.19.23-.24l.12-.19s.06-.08.09-.12c.17-.16.33-.34.47-.52.19-.36.48-.79.83-1.2.03-.04.06-.07.1-.1.92-1.37,1.98-3.2,3.17-5.44.74-1.39,1.89-3.74,3.41-6.98,3.83-8.97,6.72-18.32,8.6-27.77,1.26-6.77,1.68-12.66,1.24-17.5v-.14s-.13.19-.13.19c-.6.98-1.37,1.91-2.28,2.78-1.72,1.63-3.99,2.93-6.75,3.87-.65.19-1.28.36-1.91.51-1.92.46-3.94.69-6,.69-.91,0-1.85-.04-2.79-.14-1.05-.1-2.12-.28-3.16-.52-1.5-.3-3.03-.76-4.51-1.36-.63-.32-1.24-.63-1.89-.95-.12-.04-.27-.11-.33-.19l-.36-.43c-.06-.07-.1-.15-.12-.24,0-.02-.03-.13-.03-.15-.08-.64-.19-1.67-.31-3.07-.12-1.24-.23-2.18-.31-2.81l-.07-.73c-.02-.19.06-.38.21-.5.1-.08.23-.12.36-.12.06,0,.12,0,.18.03l.73.24c1.54.59,3.27.99,5.17,1.21.85.1,1.7.16,2.53.16,1.55,0,3.1-.18,4.61-.54.41-.1.82-.21,1.23-.34,2.33-.75,4.42-1.87,6.2-3.3l.02-.04.21-.26c2.1-2.22,3.5-4.58,4.18-7.03-.03-.03-.05-.07-.07-.1,0-.02-.06-.1-.24-.28l-.22-.17c-.25-.19-.29-.54-.11-.79l.24-.32.21-.27c.6-.65,1.28-1.06,2.05-1.24.29-.07.58-.1.87-.1.45,0,.9.08,1.35.24,3.45,1.02,5.98,3.57,7.48,7.58,1.47,3.82,2.22,8.58,2.21,14.14,0,5.54-.61,11.81-1.83,18.63-1.26,6.79-2.99,13.81-5.14,20.89-1.1,3.56-2.19,6.72-3.25,9.39-1.1,2.67-2.23,5.03-3.36,7.05-1.19,2.52-2.98,5.11-5.34,7.7-.75.95-1.79,1.92-3.06,2.86,0,0-.03.02-.03.03-1.24,1.18-2.55,2.18-3.89,2.96-.68.35-1.32.6-1.92.74-.43.1-.85.15-1.26.15"/>
  <path class="cls-1" d="m68.07,67.3c-.55,0-1.09-.04-1.6-.12-1.57-.28-2.67-1.09-3.29-2.41-1-2.03-1.53-4.55-1.57-7.48-.02-2.75.52-5.5,1.6-8.17.62-1.97,1.53-4.27,2.71-6.81,1.11-2.35,2.53-4.99,4.23-7.88-.48-.14-.96-.21-1.45-.21s-1.01.07-1.52.21c-.09.03-.2.08-.28.12-.83.4-1.29.62-1.39.66-.61.23-1.18.55-1.75.98-1,.89-2,1.85-2.94,2.83-5.57,6.06-8.34,12.93-8.22,20.39.04.72.13,1.44.26,2.11.27,1.26.72,2.07,1.33,2.38.21.12.43.17.68.17.74,0,1.7-.49,2.84-1.47.11-.09.24-.14.37-.14s.26.05.37.14c.21.18.26.49.12.73-.73,1.19-1.66,2.15-2.75,2.86-.91.61-1.82.92-2.7.92-1.29,0-2.5-.66-3.6-1.96-.03-.01-.05-.03-.08-.05-.08-.06-.15-.15-.19-.24-.02-.02-.06-.07-.11-.14-.04-.05-.07-.11-.09-.17-.51-.74-.96-1.52-1.35-2.34-1.59-4.18-2.11-8.58-1.56-13.13.27-1.99.76-4.03,1.46-6.1.74-2.09,1.78-4.12,3.09-6.05,1.38-2.01,3.06-3.8,4.98-5.33.46-.38.98-.75,1.52-1.11,1.58-1,3.26-1.76,5-2.26.96-.27,1.85-.4,2.68-.4.55,0,1.08.06,1.57.18,4.3.78,7.49,3.27,9.43,7.38.92,2.02,1.44,3.98,1.54,5.85,0,.03,0,.05.01.08.09.42.15.83.17,1.2,0,.08,0,.17-.04.25-.51,1.27-.88,2.24-1.1,2.89-.77,2.32-1.3,4.25-1.59,5.73-.03.41-.09.86-.18,1.26-.08.32-.11.61-.09.89,0,.05,0,.11-.02.16l-.03.11c.01.1,0,.2-.04.3-.28,1.74-.27,3.19.02,4.33.23,1.01.78,1.55,1.74,1.71.24.04.5.06.76.06.59,0,1.21-.1,1.85-.3l1.51-.47,1.32-.73.91-.49c.08-.05.18-.07.27-.07s.19.02.27.07c.17.09.28.26.3.46l.06.76c0,.1-.01.2-.05.29l-.94,1.98s-.05.09-.08.13c0,.01-.02.02-.02.03-.04.06-.14.16-.2.2-1.67,1.03-3.42,1.97-5.19,2.77-1.8.85-3.63,1.51-5.43,1.98-1.23.32-2.42.48-3.53.48"/>
  <path class="cls-7" d="m97.47,64.19c-.98,0-1.94-.15-2.85-.46-2.58-.65-4.9-1.8-6.84-3.43-2.01-1.71-3.66-3.76-4.92-6.08-1.28-2.3-2.22-4.88-2.78-7.65-.63-2.74-.94-5.56-.92-8.37.06-1.43.19-2.68.38-3.73.2-1.12.54-2.11,1.01-2.94.39-1.06,1.24-2.14,2.49-3.14.52-.41,1.18-.79,1.97-1.14.7-.39,1.55-.74,2.47-1.03.46-.11.89-.19,1.32-.22.16-.01.33-.02.5-.02.62,0,1.27.09,1.94.26,1.22.25,2.4.67,3.47,1.26l1.97,1.12c.11.06.2.16.25.27l.06.15c.18.47.21.89.08,1.26l-.28.63c-.02.05-.05.1-.09.14l-.09.11c-.71.65-1.65,1.01-2.85,1.1l-.44.12c-.14.02-.2.04-.27.07-.3.11-.85.47-1.69,1.5l-.33.39c-.37.43-.73,1.03-1.08,1.79-.16.31-.43.99-.88,2.53-.61,2.52-.67,6.01-.15,10.34.33,3.02,2.27,6.07,5.78,9.09-.07-1.42.01-2.92.26-4.5.23-1.79.59-3.58,1.07-5.32,1.3-4.67,3.39-9.39,6.21-14.03,2.03-3.05,4.36-5.7,6.96-7.89,1.14-.92,2.35-1.75,3.6-2.47,1.21-.79,2.55-1.37,3.97-1.73l1.9-.6c.06-.02.11-.03.17-.03.02,0,2,.2,2,.2-.01,0,.08-.01.17-.01.28,0,.58.03.89.09.19.03.34.16.42.33.08.17.06.37-.04.53-.1.15-.3.39-1.65,1.43-.98.8-1.92,1.66-2.77,2.55-3.21,3.37-5.81,7.8-7.74,13.16-.59,1.74-1.11,3.49-1.55,5.2-.46,1.82-.57,2.31-.59,2.44,0,.07-.01.14-.04.21-.02.12-.08.51-.21,1.9-.21,2.01-.16,2.87-.09,3.24.35,2.18-.13,4.41-1.43,6.65-.01.06-.04.12-.06.17l-.36.57c-.05.1-.13.2-.24.26-.05.03-.11.05-.16.07-1.87,2.07-4.1,3.27-6.63,3.58-.43.06-.87.08-1.29.08"/>
  <path class="cls-9" d="m134,62.56c-1.12,0-2.19-.14-3.17-.42-1.52-.48-2.51-1.42-2.96-2.81-.73-2.14-.94-4.71-.61-7.62.33-2.73,1.21-5.39,2.62-7.9.87-1.88,2.07-4.05,3.55-6.41,1.39-2.18,3.13-4.63,5.19-7.29-.67-.29-1.38-.43-2.12-.43-.27,0-.55.02-.84.06-.1.02-.21.05-.29.08-.87.29-1.36.45-1.46.48-.64.15-1.25.4-1.86.75-1.11.76-2.22,1.58-3.27,2.44-6.29,5.31-9.91,11.77-10.73,19.19-.05.71-.05,1.43-.01,2.13.11,1.28.45,2.14,1.02,2.53.25.18.54.27.88.27.71,0,1.65-.37,2.77-1.11.1-.06.2-.09.31-.09.16,0,.31.06.42.19.19.21.2.52.02.74-.88,1.09-1.92,1.93-3.09,2.48-.8.4-1.58.6-2.31.6-1.48,0-2.76-.82-3.81-2.43-.03-.02-.05-.04-.07-.06-.07-.07-.13-.16-.15-.26-.02-.02-.05-.08-.1-.16-.03-.06-.06-.12-.07-.18-.41-.79-.76-1.63-1.04-2.49-1.05-4.35-1-8.78.12-13.22.51-1.93,1.26-3.9,2.22-5.86,1-1.98,2.29-3.87,3.84-5.61,1.62-1.82,3.51-3.38,5.62-4.66.51-.32,1.06-.62,1.65-.91,1.69-.79,3.45-1.33,5.25-1.61.57-.09,1.12-.13,1.64-.13.96,0,1.84.15,2.6.44,4.17,1.32,7.01,4.19,8.42,8.51.65,2.12.92,4.13.79,6,0,.03,0,.05,0,.08.04.43.04.84.01,1.21,0,.08-.03.16-.07.24-.68,1.22-1.17,2.13-1.45,2.72-1.06,2.21-1.83,4.05-2.3,5.49-.08.4-.2.83-.33,1.23-.12.31-.18.6-.21.88,0,.05-.02.11-.04.16l-.06.15c0,.08-.02.17-.06.25-.5,1.7-.67,3.14-.53,4.3.1,1.03.58,1.64,1.51,1.92.45.13.93.2,1.44.2.38,0,.77-.04,1.18-.11l1.56-.27,1.4-.56.96-.37c.07-.03.14-.04.2-.04.12,0,.24.04.33.11.16.11.24.3.24.49l-.04.76c0,.1-.04.2-.09.28l-1.18,1.84s-.06.08-.09.11c0,0-.02.02-.03.03-.05.05-.16.14-.22.17-1.79.81-3.64,1.52-5.49,2.09-1.9.61-3.8,1.04-5.64,1.28-.68.09-1.34.13-1.98.13"/>
  <path class="cls-4" d="m149.83,80.28c-.16,0-.33,0-.52-.01-.06,0-.13-.02-.19-.04-3.01-1.21-4.16-4.61-3.41-10.11.06-2.18.36-4.11.89-5.68.45-1.88,1.19-4.1,2.19-6.57.96-2.46,2.29-5.31,3.96-8.48,3.25-6.31,6.86-12.48,10.74-18.34,3.88-5.86,7.9-11.13,11.96-15.67,4.07-4.52,8.17-8.23,12.2-11.03C191.76,1.53,195.71.08,199.39,0h.16c2.2,0,2.66,1.16,2.73,1.86,0,.03,0,.07,0,.1,0,.02-.01.21-.01.21-.01.24-.17.55-.4.62-9.42,3.05-18.65,11.47-27.44,25.03l-7.79,12.05-5,12.83c-1.04,3.02-1.73,5.2-2.05,6.47-.6,2.24-.99,4.03-1.15,5.35.02.39,0,.79-.05,1.13-.04.32-.06.62-.04.88v.26s-.01.05-.02.08c0,.02,0,.05,0,.08-.02.4-.03.76-.03,1.1l1.33.06c2.5.12,4.75.29,6.7.51l6.7.71c1.52.1,3.08.19,4.66.26,1.25.08,2.26.12,3.03.12.2,0,.39,0,.57,0,1.77-.03,2.03-.34,2.03-.34,0-.12-.21-1.52-10.6-3.22-1.65-.28-2.61-.58-2.57-1.34.1-.94,1.21-1.38,3.72-1.51h.02c1.51,0,2.65.09,3.51.27,2.17.44,3.51.72,3.99.85.05.01.09.03.13.05.35.2.83.37,1.41.52.7.21,1.15.35,1.39.43.33.13.73.3,1.21.54.58.26.85.34.95.36.04,0,.08.02.12.04,2.62,1.15,4.78,2.43,6.4,3.82,1.31,1.11,1.93,2.57,1.84,4.33-.1,1.36-1.06,2.4-2.86,3.12-1.6.69-3.79,1.1-6.52,1.22l-.66-.03c-.84.03-1.66.04-2.41.04-.79,0-1.55-.04-2.28-.1-.39-.02-1.46-.12-3.23-.3-1.43-.1-3.63-.3-6.5-.6-2.8-.2-4.93-.33-6.38-.39-1.44-.07-2.58-.1-3.42-.11,0,0-.35.07-2.3.63-.62.31-1.27.59-1.84.77-1.73.74-3.43,1.15-5.02,1.22,0,0-.04,0-.07,0-.49.12-.73.2-.85.26-.06.02-.12.04-.18.05-.15.01-.32.02-.52.02"/>
  <path class="cls-2" d="m218.83,67.66c-.17,0-.33-.07-.43-.2-.2-.23-.36-.46-.48-.68-.54-.75-.92-1.68-1.12-2.71-.22-.99-.29-2.08-.21-3.21.04-1.05.16-2.16.35-3.28.47-2.55,1.26-5.3,2.37-8.18,1.9-4.53,3.81-8.5,5.67-11.84.79-1.41,1.63-2.78,2.51-4.08.88-1.34,1.79-2.51,2.68-3.47.97-1,1.93-1.71,2.88-2.14.51-.24,1.03-.36,1.53-.36.47,0,.93.11,1.37.32.99.41,1.66,1.48,1.95,3.15.19,1.12.31,2.41.35,3.84,0,.05,0,.1-.02.15l-.17.69c-.44,2.8-1.63,4.93-3.54,6.28-.22.14-.73.56-2.06,2.06l-1.21,1.38-1.37,1.88c-.93,1.27-1.87,2.6-2.82,3.97-2.93,4.35-5.04,8.25-6.28,11.57-.36.92-.67,1.9-.95,2.91-.3,1.19-.43,1.5-.53,1.66-.09.16-.26.26-.44.27-.02,0-.03,0-.05,0m17.78,3.11c-.83,0-1.7-.11-2.59-.32-1.55-.34-2.54-1.29-2.85-2.74-.27-1.34.03-2.95.91-4.93l.24-.46c.26-.55.55-1.11.85-1.62.26-.53.56-1.06.89-1.53.19-.25.68-.95,1.49-2.11.59-.86,1.6-2.29,3.04-4.31,1.25-1.81,2.17-3.21,2.74-4.16.56-.96.98-1.74,1.24-2.3.36-.73.28-.95.28-.95-.21-.06-.34-.07-.47-.07-.8,0-1.98.46-3.5,1.35-1.86,1.12-4.03,2.73-6.43,4.79-.33.29-1.44,1.17-3.4,2.68-1.8,1.39-2.84,2.22-3.1,2.46-.11.1-.25.15-.39.15-.12,0-.25-.04-.35-.12-.22-.17-.28-.48-.15-.73,2.79-5.02,6.97-9.48,12.44-13.25,2.51-1.72,4.42-2.98,5.69-3.73,1.28-.73,2.68-1.36,4.16-1.88,1.26-.48,2.48-.81,3.6-.97.6-.09,1.14-.13,1.61-.13.44,0,.83.04,1.16.11,1.76.42,2.87,1.41,3.28,2.94.35,1.49.06,3.26-.86,5.27-.44.91-1.18,2.22-2.22,3.9-1,1.64-1.98,3.13-2.92,4.42l-3.2,4.38c-.71,1-1.41,2.02-2.1,3.06-.63,1.01-1.09,1.81-1.35,2.36-1.13,2.45-2.15,4.85-3.05,7.14-.06.15-.17.26-.32.32-.5.2-.96.36-1.38.47-.92.33-1.95.5-3,.5"/>
  <path class="cls-5" d="m257.65,75.14c-.13,0-.27-.05-.37-.14-.45-.39-.86-.8-1.2-1.21-1.4-1.73-2.39-3.81-2.95-6.19-.88-4.58-.75-9.16.39-13.63.5-2.02,1.21-4.01,2.1-5.91.99-1.97,2.23-3.81,3.71-5.48,1.54-1.74,3.32-3.16,5.31-4.23.51-.26,1-.53,1.47-.79,1.69-.66,3.36-1.02,5.06-1.09.24-.02.5-.03.75-.03,1.78,0,3.22.57,4.28,1.69.7.7,1.31,1.52,1.79,2.44.06.12.08.26.05.39h0c.02.1.01.2-.02.28-.43,1.15-1.9,2.25-4.49,3.36-1.28.64-2.87,1.84-4.67,3.55-1.6,1.49-3.08,3.24-4.41,5.2-1.35,2.03-2.54,4.18-3.53,6.4v.04s-.02.09-.03.11c-2.07,5.88-2.97,10.8-2.67,14.61.02.23-.1.45-.31.55-.08.04-.17.06-.26.06m16.28,3.04c-1.68,0-3.24-.29-4.65-.87-1.39-.59-2.31-1.58-2.74-2.94-.4-1.25-.58-2.6-.55-3.99-.17-1.17-.19-2.3-.04-3.25.43-2.77,1.24-5.19,2.41-7.19.8-1.69,1.89-3.61,3.24-5.67,1.41-2.01,3.16-4.29,5.23-6.8,4.24-5.01,8.74-9.72,13.4-14,4.63-4.33,9.27-7.99,13.78-10.86,4.56-2.88,8.98-4.92,13.11-6.06,1.91-.52,3.75-.78,5.47-.78,2.11,0,4.1.39,5.93,1.17,1.9.8,2.13,2.16,1.98,3.17-.02.15-.1.28-.21.36,0,.08,0,.16-.04.23-.21.53-.6,1.06-1.19,1.63-.77.71-1.83,1.51-3.16,2.37-1.31.82-2.81,1.7-4.48,2.63-1.63.87-3.41,1.78-5.32,2.69-2.5,1.22-4.37,2.13-5.61,2.71-1.83.89-3.64,1.75-5.42,2.59-1.55.74-3,1.47-4.32,2.15-.08.04-.17.06-.26.06-.17,0-.33-.07-.44-.21-.17-.21-.17-.51,0-.72,2.87-3.6,6.05-6.77,9.45-9.44-2.91,1.98-5.89,4.39-8.91,7.24-6.29,6.05-11.84,12.69-16.49,19.75-1.55,2.6-2.61,4.5-3.14,5.63-.98,2-1.68,3.65-2.11,4.9-.09.4-.2.77-.3,1.08-.09.28-.16.57-.2.87,0,.07-.03.13-.06.19l-.02.04c0,.06,0,.12-.01.17-.5,1.59-.68,2.94-.56,4.09.12.97.59,1.6,1.48,1.98.6.24,1.29.37,2.04.37.12,0,.24,0,.37,0,.55-.04,1.14-.09,1.78-.15.02,0,.04,0,.05,0,.16,0,.32.07.43.19.12.14.17.33.13.5-.18.76-.37,1.54-.59,2.33-.05.19-.2.34-.38.4-1.25.38-2.53.67-3.81.87-1.73.39-3.48.59-5.17.59l-.08-.57v.57Z"/>
  <path class="cls-10" d="m31.03,82.61c.78-1.55,1.56-3.24,2.3-5.03.32-.8.64-1.66.96-2.55l.11-.3.32-.06c7.4-1.48,46.98-8.86,99.93-8.86,2.35,0,4.74.01,7.15.05h.68s-.13.68-.13.68c-.17.87-.29,1.84-.35,2.88l-.03.54s-2.25,0-3.1,0c-52.55,0-89.7,8.43-107.17,13.46l-1.26.36.59-1.17Z"/>
  <path class="cls-6" d="m274.99,87.55c-25.37-6.4-50.96-11.12-76.06-14.03l-.39-.04-.1-.38c-.21-.83-.63-1.5-1.29-2.06-.16-.14-.35-.28-.53-.41l-1.87-1.42,2.09.25c27.95,3.36,54.35,9.08,78.46,17l-.32,1.1Z"/>
  <path class="cls-3" d="m204.3,66.3c-1.88,0-3.57-.31-5.02-.92-1.45-.66-2.31-1.72-2.59-3.15-.46-2.21-.34-4.78.35-7.63.67-2.67,1.88-5.2,3.58-7.51,1.09-1.76,2.55-3.76,4.32-5.92,1.66-2,3.69-4.21,6.06-6.58-.84-.5-1.77-.74-2.81-.74-.17.01-.28.03-.37.05-.9.18-1.4.27-1.51.3-.65.07-1.28.24-1.94.51-1.2.62-2.41,1.3-3.55,2.01-6.91,4.49-11.3,10.44-13.04,17.7-.14.72-.24,1.43-.27,2.11-.05,1.29.18,2.18.7,2.64.29.27.65.39,1.13.39.68,0,1.55-.26,2.6-.77.08-.04.17-.06.25-.06.18,0,.36.09.47.24.16.23.13.54-.07.74-1.01.97-2.14,1.67-3.38,2.08-.64.23-1.27.34-1.85.34-1.72,0-3.06-.98-4-2.92-.02-.02-.04-.04-.06-.07-.06-.08-.1-.17-.12-.27-.01-.02-.04-.09-.08-.17-.03-.06-.04-.12-.05-.19-.31-.84-.55-1.72-.72-2.6-.5-4.44.1-8.84,1.77-13.1.75-1.85,1.74-3.71,2.93-5.54,1.24-1.84,2.75-3.55,4.5-5.09,1.83-1.6,3.9-2.92,6.15-3.92.54-.25,1.13-.49,1.75-.7,1.78-.58,3.59-.89,5.41-.94h.29c1.53,0,2.83.28,3.88.84,3.97,1.83,6.44,5.03,7.3,9.5.39,2.18.4,4.21.04,6.05,0,.03,0,.06,0,.08-.02.43-.06.83-.14,1.2-.02.08-.05.16-.1.23-.82,1.11-1.42,1.96-1.78,2.52-1.32,2.06-2.32,3.79-2.97,5.16-.13.39-.3.8-.49,1.17-.15.29-.26.57-.31.85-.01.05-.03.1-.05.15l-.08.15c-.01.08-.04.16-.08.24-.71,1.62-1.06,3.03-1.06,4.2-.03,1.04.37,1.7,1.26,2.09.65.28,1.39.42,2.2.42h0c.13,0,.26,0,.39-.01l1.58-.07,1.46-.38c.28-.07.62-.16,1-.25.05-.01.09-.02.14-.02.14,0,.28.05.39.15.14.13.21.33.17.52l-.13.75c-.02.1-.06.19-.12.27l-1.4,1.68s-.07.07-.11.1c0,0-.02.01-.03.02-.06.04-.18.12-.24.14-1.87.58-3.8,1.05-5.71,1.39-1.96.37-3.89.56-5.75.57h-.05Z"/>
</svg>