<?xml version="1.0" encoding="utf-8"?>
<!-- Generator: Adobe Illustrator 27.5.0, SVG Export Plug-In . SVG Version: 6.00 Build 0)  -->
<svg version="1.1" id="svg3290" xmlns="http://www.w3.org/2000/svg" xmlns:xlink="http://www.w3.org/1999/xlink" x="0px" y="0px"
	 viewBox="0 0 655.6 778.1" style="enable-background:new 0 0 655.6 778.1;" xml:space="preserve">
<style type="text/css">
	.st0{fill:#3FA652;stroke:#21552A;stroke-width:23.31;stroke-linejoin:round;}
	.st1{fill:none;stroke:#000000;stroke-width:6.67;}
</style>
<g id="layer1">
	<g id="g3879">
		<path id="path3773" class="st0" d="M357.3,337.9c40.4-15.5,60.5-60.8,45-101.1c-15.5-40.4-60.8-60.5-101.1-45s-60.5,60.8-45,101.1
			c7.9,20.7,24.3,37.1,45,45l-52.7,137.4C132.3,430.6,74.2,300.2,118.8,184S293.8,9.7,410.1,54.4s174.3,175,129.7,291.2
			c-22.9,59.6-70,106.8-129.7,129.7L357.3,337.9L357.3,337.9z"/>
		<g id="text7890-3-1">
			<g>
				<path d="M92.9,543.2c0,4-0.5,7.5-1.5,10.6c-1,3.1-2.5,5.8-4.4,7.9c-1.9,2.2-4.2,3.8-6.9,4.9s-5.8,1.7-9.2,1.7
					c-3.2,0-6.1-0.6-8.7-1.7s-4.9-2.8-6.8-4.9c-1.9-2.2-3.4-4.8-4.5-7.9c-1.1-3.1-1.6-6.7-1.6-10.6c0-5.3,0.9-9.8,2.6-13.5
					c1.8-3.7,4.3-6.6,7.6-8.5c3.3-2,7.2-2.9,11.7-2.9s8.1,1,11.4,3s5.8,4.8,7.6,8.5C92,533.4,92.9,537.9,92.9,543.2L92.9,543.2z
					 M56.8,543.2c0,3.9,0.5,7.3,1.5,10.1s2.6,5.1,4.7,6.6c2.1,1.6,4.8,2.3,8.1,2.3s6-0.8,8.1-2.3c2.1-1.6,3.7-3.8,4.7-6.6
					c1-2.9,1.5-6.2,1.5-10.1c0-3.9-0.5-7.2-1.5-10c-1-2.8-2.6-5-4.7-6.5c-2.1-1.5-4.8-2.3-8.2-2.3c-4.9,0-8.6,1.7-10.8,5
					S56.8,537.3,56.8,543.2L56.8,543.2z"/>
				<path d="M127.7,518.2c5.9,0,10.6,2.1,14.2,6.2c3.5,4.2,5.3,10.4,5.3,18.7c0,5.5-0.8,10.1-2.4,13.9c-1.6,3.7-3.9,6.6-6.8,8.5
					c-2.9,1.9-6.4,2.9-10.4,2.9c-2.5,0-4.7-0.3-6.6-1c-1.9-0.7-3.5-1.6-4.9-2.7c-1.4-1.1-2.5-2.4-3.4-3.8h-0.5
					c0.1,1.1,0.2,2.5,0.3,4.2s0.2,3,0.2,4.2v19.9h-7.2v-70h5.9l1,7.2h0.3c0.9-1.5,2-2.8,3.4-4s2.9-2.2,4.9-2.9
					C122.8,518.5,125,518.2,127.7,518.2z M126.4,524.4c-3.3,0-5.9,0.6-7.9,1.9c-2,1.3-3.5,3.2-4.4,5.8c-0.9,2.6-1.4,5.8-1.5,9.7v1.4
					c0,4.1,0.4,7.6,1.3,10.4c0.9,2.8,2.3,5,4.4,6.4c2,1.5,4.8,2.2,8.2,2.2c2.9,0,5.4-0.8,7.4-2.4s3.4-3.9,4.4-6.8
					c1-2.9,1.5-6.2,1.5-10c0-5.7-1.1-10.3-3.3-13.6C134.2,526,130.9,524.3,126.4,524.4L126.4,524.4z"/>
				<path d="M177.9,518.2c4,0,7.5,0.9,10.4,2.7c2.9,1.8,5.1,4.4,6.6,7.7s2.3,7.1,2.3,11.5v4.5h-32.8c0.1,5.7,1.5,10,4.2,13
					s6.5,4.5,11.3,4.5c3,0,5.7-0.3,8-0.8s4.7-1.4,7.2-2.5v6.4c-2.4,1.1-4.8,1.9-7.1,2.4c-2.4,0.5-5.1,0.7-8.3,0.7
					c-4.6,0-8.5-1-11.9-2.8c-3.4-1.9-6-4.7-7.9-8.4s-2.8-8.2-2.8-13.5c0-5.3,0.9-9.7,2.6-13.5c1.7-3.8,4.1-6.7,7.3-8.8
					S173.7,518.2,177.9,518.2L177.9,518.2z M177.8,524.2c-3.8,0-6.9,1.3-9.2,3.8c-2.3,2.6-3.6,6.1-4.1,10.7h25.1
					c0-2.9-0.5-5.4-1.3-7.6c-0.9-2.2-2.1-3.9-3.9-5.1S180.5,524.2,177.8,524.2L177.8,524.2z"/>
				<path d="M231.9,518.2c5.6,0,9.9,1.4,12.8,4.2c2.9,2.8,4.3,7.3,4.3,13.5v31.5h-7.1v-31c0-4-0.9-7.1-2.7-9.1c-1.8-2-4.6-3-8.3-3
					c-5.3,0-9,1.5-11.1,4.5c-2.1,3-3.2,7.4-3.2,13.2v25.3h-7.2v-48.4h5.8l1.1,7h0.4c1-1.7,2.3-3.1,3.9-4.3s3.3-2,5.2-2.7
					C227.7,518.5,229.7,518.2,231.9,518.2L231.9,518.2z"/>
			</g>
		</g>
		<g id="text7890-3-1-1">
			<g>
				<path d="M342.1,552.6c0,3.1-0.8,5.7-2.3,7.8c-1.5,2.1-3.7,3.7-6.5,4.7s-6.2,1.6-10.1,1.6c-3.3,0-6.2-0.3-8.6-0.8
					c-2.4-0.5-4.5-1.3-6.4-2.2v-6.8c1.9,1,4.2,1.9,6.9,2.7s5.4,1.2,8.2,1.2c4.1,0,7.1-0.7,8.9-2s2.8-3.2,2.8-5.5
					c0-1.3-0.4-2.5-1.1-3.5c-0.7-1-2-2-3.7-3c-1.7-1-4.1-2-7.2-3.2c-3-1.2-5.6-2.3-7.9-3.5c-2.2-1.2-3.9-2.6-5.1-4.3
					c-1.2-1.7-1.8-3.9-1.8-6.5c0-4.1,1.6-7.2,4.9-9.4c3.2-2.2,7.5-3.3,12.8-3.3c2.9,0,5.5,0.3,8,0.9c2.5,0.6,4.8,1.3,7,2.3l-2.4,5.9
					c-2-0.9-4.1-1.6-6.3-2.2c-2.2-0.6-4.5-0.9-6.8-0.9c-3.3,0-5.9,0.6-7.6,1.7c-1.8,1.1-2.7,2.7-2.7,4.6c0,1.5,0.4,2.7,1.2,3.7
					c0.8,1,2.1,1.9,4,2.7c1.8,0.9,4.2,1.9,7.2,3c3,1.1,5.5,2.3,7.7,3.5c2.2,1.2,3.8,2.6,5,4.3C341.6,547.8,342.2,550,342.1,552.6
					L342.1,552.6z"/>
				<path d="M394.6,541.6c0,4-0.5,7.5-1.5,10.6s-2.5,5.8-4.4,7.9c-1.9,2.2-4.2,3.8-6.9,4.9s-5.8,1.7-9.2,1.7c-3.2,0-6.1-0.6-8.7-1.7
					c-2.6-1.1-4.9-2.8-6.8-4.9c-1.9-2.2-3.4-4.8-4.5-7.9c-1.1-3.1-1.6-6.7-1.6-10.6c0-5.3,0.9-9.8,2.6-13.5c1.8-3.7,4.3-6.6,7.6-8.5
					c3.3-2,7.2-2.9,11.7-2.9s8.1,1,11.4,3s5.8,4.8,7.6,8.5S394.6,536.3,394.6,541.6L394.6,541.6z M358.5,541.6
					c0,3.9,0.5,7.3,1.5,10.1c1,2.9,2.6,5.1,4.7,6.6s4.8,2.3,8.1,2.3c3.3,0,6-0.8,8.1-2.3c2.1-1.6,3.7-3.8,4.7-6.6
					c1-2.9,1.5-6.2,1.5-10.1s-0.5-7.2-1.5-10s-2.6-5-4.7-6.5c-2.1-1.5-4.8-2.3-8.2-2.3c-4.9,0-8.6,1.7-10.8,5
					C359.6,531.1,358.5,535.7,358.5,541.6L358.5,541.6z"/>
				<path d="M446.2,517.4v48.4h-5.9l-1-6.8h-0.4c-1,1.7-2.2,3.1-3.8,4.2c-1.6,1.1-3.3,2-5.3,2.6c-2,0.6-4,0.9-6.2,0.9
					c-3.8,0-6.9-0.6-9.4-1.9s-4.5-3.2-5.7-5.7c-1.3-2.6-1.9-5.9-1.9-10v-31.7h7.3v31.2c0,4,0.9,7,2.7,9c1.8,2,4.5,3,8.2,3
					s6.3-0.7,8.4-2c2.1-1.4,3.6-3.3,4.5-6s1.4-5.9,1.4-9.7v-25.5L446.2,517.4L446.2,517.4z"/>
				<path d="M483,516.6c1,0,2,0,3,0.2c1,0.1,2,0.2,2.8,0.4l-0.9,6.8c-0.8-0.2-1.6-0.4-2.6-0.5c-1-0.1-1.8-0.2-2.7-0.2
					c-1.9,0-3.7,0.4-5.4,1.2c-1.7,0.8-3.2,1.9-4.4,3.4c-1.3,1.5-2.3,3.2-3,5.3c-0.7,2-1.1,4.3-1.1,6.8v26h-7.2v-48.4h6l0.8,8.9h0.3
					c1-1.8,2.2-3.4,3.6-4.9c1.4-1.5,3-2.7,4.8-3.6C478.7,517,480.8,516.6,483,516.6L483,516.6z"/>
				<path d="M516.7,566.7c-4.3,0-8-0.9-11.3-2.7c-3.3-1.8-5.8-4.5-7.6-8.2c-1.8-3.7-2.7-8.3-2.7-13.9s1-10.6,2.9-14.4
					s4.6-6.5,7.9-8.3s7.2-2.7,11.5-2.7c2.4,0,4.7,0.2,6.9,0.7c2.2,0.5,4,1.1,5.4,1.8l-2.2,6.1c-1.4-0.6-3.1-1.1-5-1.6
					c-1.9-0.5-3.7-0.7-5.3-0.7c-3.3,0-6,0.7-8.2,2.2c-2.2,1.4-3.8,3.6-4.9,6.4c-1.1,2.8-1.6,6.2-1.6,10.3c0,4.1,0.5,7.3,1.6,10
					c1.1,2.8,2.6,4.9,4.7,6.3s4.7,2.2,7.9,2.2c2.5,0,4.8-0.3,6.8-0.8c2-0.5,3.9-1.2,5.5-1.9v6.5c-1.6,0.8-3.4,1.5-5.3,1.9
					C521.7,566.5,519.4,566.7,516.7,566.7L516.7,566.7z"/>
				<path d="M558.4,516.6c4,0,7.5,0.9,10.4,2.7c2.9,1.8,5.1,4.4,6.6,7.7c1.5,3.3,2.3,7.1,2.3,11.5v4.5H545c0.1,5.7,1.5,10,4.2,13
					c2.7,3,6.5,4.5,11.3,4.5c3,0,5.7-0.3,8-0.8c2.3-0.6,4.7-1.4,7.2-2.5v6.4c-2.4,1.1-4.8,1.9-7.1,2.4c-2.4,0.5-5.1,0.7-8.3,0.7
					c-4.6,0-8.5-1-11.9-2.8c-3.4-1.9-6-4.7-7.9-8.4c-1.9-3.7-2.8-8.2-2.8-13.5s0.9-9.7,2.6-13.5c1.7-3.8,4.1-6.7,7.3-8.8
					C550.5,517.6,554.2,516.6,558.4,516.6L558.4,516.6z M558.4,522.6c-3.8,0-6.9,1.3-9.2,3.8c-2.3,2.6-3.6,6.1-4.1,10.7h25.1
					c0-2.9-0.5-5.4-1.3-7.6c-0.9-2.2-2.1-3.9-3.9-5.1C563.3,523.2,561.1,522.6,558.4,522.6L558.4,522.6z"/>
			</g>
		</g>
		<g id="text7890-3-1-1-4">
			<g>
				<path d="M142.1,589.6c1.2,0,2.2,0.4,3.1,1.2c0.9,0.8,1.3,2,1.3,3.6c0,1.7-0.4,2.8-1.3,3.6c-0.9,0.8-1.9,1.2-3.1,1.2
					c-1.2,0-2.3-0.4-3.1-1.2c-0.8-0.8-1.2-2-1.2-3.6s0.4-2.9,1.2-3.6C139.9,590,140.9,589.6,142.1,589.6z M145.6,607.7v48.4h-7.2
					v-48.4H145.6z"/>
				<path d="M183.3,606.8c5.6,0,9.9,1.4,12.8,4.2c2.9,2.8,4.3,7.3,4.3,13.5v31.5h-7.1v-31c0-4-0.9-7.1-2.7-9.1c-1.8-2-4.6-3-8.3-3
					c-5.3,0-9,1.5-11.1,4.5c-2.1,3-3.2,7.4-3.2,13.2v25.3h-7.2v-48.4h5.8l1.1,7h0.4c1-1.7,2.3-3.1,3.9-4.3c1.6-1.2,3.3-2,5.2-2.7
					C179.1,607.1,181.2,606.8,183.3,606.8L183.3,606.8z"/>
				<path d="M218.9,589.6c1.2,0,2.2,0.4,3.1,1.2c0.9,0.8,1.3,2,1.3,3.6c0,1.7-0.4,2.8-1.3,3.6c-0.9,0.8-1.9,1.2-3.1,1.2
					c-1.2,0-2.3-0.4-3.1-1.2s-1.2-2-1.2-3.6s0.4-2.9,1.2-3.6S217.7,589.6,218.9,589.6z M222.4,607.7v48.4h-7.2v-48.4H222.4z"/>
				<path d="M253,651c1.2,0,2.4-0.1,3.6-0.3c1.2-0.2,2.2-0.5,3-0.7v5.7c-0.8,0.4-2,0.7-3.5,1s-2.9,0.4-4.4,0.4
					c-2.5,0-4.8-0.5-6.8-1.3s-3.7-2.4-4.9-4.6c-1.2-2.2-1.8-5.1-1.8-8.9v-28.7h-6.8v-3.6l6.8-2.9l2.9-10.5h4.3v11.2h13.9v5.7h-13.9
					v28.5c0,3,0.7,5.3,2.1,6.8C248.8,650.2,250.7,651,253,651L253,651z"/>
				<path d="M272.9,589.6c1.2,0,2.2,0.4,3.1,1.2c0.9,0.8,1.3,2,1.3,3.6c0,1.7-0.4,2.8-1.3,3.6c-0.9,0.8-1.9,1.2-3.1,1.2
					c-1.2,0-2.3-0.4-3.1-1.2c-0.8-0.8-1.2-2-1.2-3.6s0.4-2.9,1.2-3.6C270.6,590,271.7,589.6,272.9,589.6z M276.4,607.7v48.4h-7.2
					v-48.4H276.4z"/>
				<path d="M309.4,606.9c5.7,0,9.9,1.3,12.6,3.9c2.7,2.6,4.1,6.7,4.1,12.4v32.9h-5.2l-1.4-7.2h-0.3c-1.3,1.8-2.7,3.2-4.2,4.4
					c-1.4,1.2-3.1,2.1-5,2.7c-1.9,0.6-4.2,0.9-6.9,0.9c-2.9,0-5.4-0.5-7.7-1.5c-2.2-1-4-2.6-5.3-4.7c-1.3-2.1-1.9-4.7-1.9-7.9
					c0-4.8,1.9-8.5,5.6-11.1c3.8-2.6,9.5-4,17.2-4.2l8.2-0.4v-3c0-4.2-0.9-7.1-2.6-8.8s-4.2-2.5-7.4-2.5c-2.5,0-4.9,0.4-7.1,1.1
					c-2.2,0.7-4.4,1.6-6.4,2.6l-2.2-5.6c2.1-1.1,4.6-2.1,7.4-2.9C303.4,607.3,306.3,606.9,309.4,606.9L309.4,606.9z M319,632.3
					l-7.2,0.3c-5.9,0.2-10.1,1.2-12.5,3c-2.4,1.7-3.6,4.2-3.6,7.4c0,2.8,0.8,4.8,2.5,6.1c1.6,1.3,3.8,2,6.5,2
					c4.2,0,7.7-1.2,10.3-3.6c2.7-2.4,4-6,4-10.7V632.3L319,632.3z"/>
				<path d="M356.2,651c1.2,0,2.4-0.1,3.6-0.3c1.2-0.2,2.2-0.5,3-0.7v5.7c-0.8,0.4-2,0.7-3.5,1c-1.5,0.3-2.9,0.4-4.4,0.4
					c-2.5,0-4.8-0.5-6.8-1.3s-3.7-2.4-4.9-4.6c-1.2-2.2-1.8-5.1-1.8-8.9v-28.7h-6.8v-3.6l6.8-2.9l2.9-10.5h4.3v11.2h13.9v5.7h-13.9
					v28.5c0,3,0.7,5.3,2.1,6.8C352.1,650.2,354,651,356.2,651L356.2,651z"/>
				<path d="M376.2,589.6c1.2,0,2.2,0.4,3.1,1.2c0.9,0.8,1.3,2,1.3,3.6c0,1.7-0.4,2.8-1.3,3.6c-0.9,0.8-1.9,1.2-3.1,1.2
					c-1.2,0-2.3-0.4-3.1-1.2c-0.8-0.8-1.2-2-1.2-3.6s0.4-2.9,1.2-3.6C373.9,590,375,589.6,376.2,589.6z M379.7,607.7v48.4h-7.2
					v-48.4H379.7z"/>
				<path d="M405.4,656.1l-18-48.4h7.7l10.4,29.3c0.7,2,1.5,4.2,2.2,6.6s1.3,4.4,1.6,5.8h0.3c0.3-1.5,0.9-3.4,1.7-5.9
					c0.8-2.4,1.5-4.6,2.2-6.6l10.4-29.3h7.7l-18.1,48.4L405.4,656.1L405.4,656.1z"/>
				<path d="M457.5,606.8c4,0,7.5,0.9,10.4,2.7c2.9,1.8,5.1,4.4,6.6,7.7c1.5,3.3,2.3,7.1,2.3,11.5v4.5H444c0.1,5.7,1.5,10,4.2,13
					c2.7,3,6.5,4.5,11.3,4.5c3,0,5.7-0.3,8-0.8s4.7-1.4,7.2-2.5v6.4c-2.4,1.1-4.8,1.9-7.1,2.4c-2.4,0.5-5.1,0.7-8.3,0.7
					c-4.6,0-8.5-1-11.9-2.8c-3.4-1.9-6-4.7-7.9-8.4s-2.8-8.2-2.8-13.5c0-5.3,0.9-9.7,2.6-13.5c1.7-3.8,4.1-6.7,7.3-8.8
					S453.3,606.9,457.5,606.8L457.5,606.8z M457.4,612.9c-3.8,0-6.9,1.3-9.2,3.8s-3.6,6.1-4.1,10.7h25.1c0-2.9-0.5-5.4-1.3-7.6
					s-2.1-3.9-3.9-5.1C462.4,613.5,460.1,612.9,457.4,612.9L457.4,612.9z"/>
			</g>
		</g>
		<g id="g3797">
			<path id="path3015" class="st1" d="M559.2,464.7c0,11.2-9.1,20.3-20.4,20.3c-11.3,0-20.4-9.1-20.4-20.3
				c0-11.2,9.1-20.3,20.4-20.3C550.1,444.4,559.2,453.5,559.2,464.7z"/>
			<g id="text3793">
				<g>
					<path d="M536.1,452.2c1.9,0,3.4,0.2,4.7,0.7c1.2,0.5,2.2,1.2,2.8,2.1c0.6,1,0.9,2.2,0.9,3.7c0,1.2-0.2,2.2-0.7,3
						c-0.4,0.8-1,1.5-1.7,2c-0.7,0.5-1.5,0.9-2.3,1.2l6.3,10.3H543l-5.6-9.6h-4.8v9.6h-2.7v-23L536.1,452.2L536.1,452.2z M536,454.5
						h-3.4v8.8h3.7c1.9,0,3.3-0.4,4.2-1.2c0.9-0.8,1.3-1.9,1.3-3.4c0-1.6-0.5-2.7-1.4-3.3C539.4,454.8,537.9,454.5,536,454.5
						L536,454.5z"/>
				</g>
			</g>
		</g>
	</g>
</g>
</svg>
