<svg xmlns="http://www.w3.org/2000/svg" xmlns:xlink="http://www.w3.org/1999/xlink" width="151px" height="40px" viewBox="0 0 151 40"><title>Group 6</title><defs><polygon id="path-1" points="0 0 40.0166183 0 40.0166183 40 0 40"/></defs><g id="Approved" stroke="none" stroke-width="1" fill="none" fill-rule="evenodd"><g id="Hashgraph---About-Us---Desktop" transform="translate(-120.000000, -40.000000)"><g id="Group-6" transform="translate(120.000000, 40.000000)"><g id="Hashgraph" transform="translate(49.902300, 10.673232)" fill="#000" fill-rule="nonzero"><polygon id="Path" points="10.0649798 14.1370709 12.6580567 14.1370709 12.6580567 0.499407397 10.0649798 0.499407397 10.0649798 6.1273446 2.57386889 6.1273446 2.57386889 0.499407397 0 0.499407397 0 14.1370709 2.57386889 14.1370709 2.57386889 8.43230181 10.0649798 8.43230181"/><path d="M22.0127584,12.6004328 L22.0127584,14.1370709 L24.4521714,14.1370709 L24.4521714,4.41783466 L21.9935504,4.41783466 L21.9935504,5.8776409 C21.7822627,5.47427339 20.8026558,4.20654692 18.7474023,4.20654692 C16.2311574,4.20654692 14.1566959,6.1273446 14.1566959,9.27745279 C14.1566959,12.4659769 16.2311574,14.3483587 18.7281944,14.3483587 C20.8602798,14.3483587 21.8206786,13.0038003 22.0127584,12.6004328 Z M22.0319664,9.27745279 C22.0319664,10.9293388 20.9755276,12.1970653 19.3812656,12.1970653 C17.7293796,12.1970653 16.6537329,10.9293388 16.6537329,9.27745279 C16.6537329,7.62556679 17.7293796,6.35784032 19.3812656,6.35784032 C20.9755276,6.35784032 22.0319664,7.62556679 22.0319664,9.27745279 Z" id="Shape"/><path d="M30.9833005,10.3338915 C32.0781552,10.4491394 32.4238988,10.8332989 32.4238988,11.4287462 C32.4238988,12.0434015 31.7708276,12.5043929 30.4262692,12.5043929 C28.7743832,12.5043929 28.1789359,11.6400339 28.082896,11.4095382 L25.4514032,11.4095382 C25.643483,12.3123131 26.8151696,14.4059826 30.4262692,14.4059826 C33.3842976,14.4059826 34.9209358,13.1382561 34.9209358,11.3327063 C34.9209358,9.43111661 33.8452891,8.41309384 31.2137962,8.18259812 L29.5619102,8.00972632 C28.5823034,7.89447846 28.1789359,7.5295269 28.1789359,6.99170355 C28.1789359,6.41546425 28.7935912,6.01209674 29.9652777,6.01209674 C31.405876,6.01209674 32.0013233,6.68437593 32.1549871,6.89566367 L34.748064,6.89566367 C34.5175683,5.95447281 33.4611295,4.14892299 29.9844857,4.14892299 C27.3722009,4.14892299 25.7011069,5.3014016 25.7011069,7.12615939 C25.7011069,9.02774909 27.1417052,9.98814793 29.2737906,10.1610197 C29.9460698,10.2378516 30.2918134,10.2762676 30.9833005,10.3338915 Z" id="Path"/><path d="M38.5132444,8.95091719 C38.5132444,7.452695 39.4736432,6.39625627 40.9526575,6.39625627 C42.3932557,6.39625627 43.3152386,7.41427904 43.3152386,8.95091719 L43.3152386,14.1370709 L45.7930676,14.1370709 L45.7930676,8.47071777 C45.7930676,5.99288876 44.1795976,4.20654692 41.7401845,4.20654692 C39.9730506,4.20654692 38.878196,5.35902553 38.5132444,6.05051269 L38.5132444,0 L36.0738313,0 L36.0738313,14.1370709 L38.5132444,14.1370709 L38.5132444,8.95091719 Z" id="Path"/><path d="M54.8596496,12.5428088 L54.8596496,13.8873672 C54.8596496,15.5008373 53.8416269,16.4228202 52.074493,16.4228202 C50.4994389,16.4228202 49.9231996,15.6160851 49.7887438,15.4240054 L46.9651712,15.4240054 C47.118835,16.1347005 48.3289375,18.4588657 52.074493,18.4588657 C55.5895527,18.4588657 57.2990627,16.595692 57.2990627,13.9257832 L57.2990627,4.41783466 L54.8404416,4.41783466 L54.8404416,5.89684888 C54.6483619,5.51268934 53.6111311,4.20654692 51.5174617,4.20654692 C48.9820087,4.20654692 46.8883393,6.08892864 46.8883393,9.25824482 C46.8883393,12.408353 48.9820087,14.3099427 51.5174617,14.3099427 C53.6303391,14.3099427 54.6483619,12.9653843 54.8596496,12.5428088 Z M54.8788576,9.25824482 C54.8788576,10.8717149 53.8032109,12.1586493 52.1513249,12.1586493 C50.4610229,12.1586493 49.3853762,10.8717149 49.3853762,9.25824482 C49.3853762,7.60635881 50.4610229,6.35784032 52.1513249,6.35784032 C53.8032109,6.35784032 54.8788576,7.60635881 54.8788576,9.25824482 Z" id="Shape"/><path d="M61.5828585,9.02774909 C61.5828585,7.49111095 62.3319696,6.79962379 64.4064311,6.79962379 L66.9995079,6.79962379 L66.9995079,4.36021073 L64.7329667,4.36021073 C62.5816733,4.36021073 61.8325622,5.49348136 61.5828585,6.05051269 L61.5828585,4.41783466 L59.1434454,4.41783466 L59.1434454,14.1370709 L61.5828585,14.1370709 L61.5828585,9.02774909 Z" id="Path"/><path d="M74.9904433,12.6004328 L74.9904433,14.1370709 L77.4298563,14.1370709 L77.4298563,4.41783466 L74.9712353,4.41783466 L74.9712353,5.8776409 C74.7599475,5.47427339 73.7803407,4.20654692 71.7250872,4.20654692 C69.2088422,4.20654692 67.1343807,6.1273446 67.1343807,9.27745279 C67.1343807,12.4659769 69.2088422,14.3483587 71.7058792,14.3483587 C73.8379646,14.3483587 74.7983635,13.0038003 74.9904433,12.6004328 Z M75.0096512,9.27745279 C75.0096512,10.9293388 73.9532125,12.1970653 72.3589504,12.1970653 C70.7070644,12.1970653 69.6314177,10.9293388 69.6314177,9.27745279 C69.6314177,7.62556679 70.7070644,6.35784032 72.3589504,6.35784032 C73.9532125,6.35784032 75.0096512,7.62556679 75.0096512,9.27745279 Z" id="Shape"/><path d="M81.6944441,12.6580567 C81.8865239,13.0422162 82.9429626,14.3483587 85.0558401,14.3483587 C87.591293,14.3483587 89.6657545,12.4659769 89.6657545,9.27745279 C89.6657545,6.10813662 87.591293,4.20654692 85.0558401,4.20654692 C82.9429626,4.20654692 81.8865239,5.58952125 81.7136521,5.95447281 L81.7136521,4.41783466 L79.2742391,4.41783466 L79.2742391,18.209162 L81.6944441,18.209162 L81.6944441,12.6580567 Z M81.6752362,9.27745279 C81.6752362,7.60635881 82.7508829,6.35784032 84.4219768,6.35784032 C86.1122788,6.35784032 87.1879255,7.60635881 87.1879255,9.27745279 C87.1879255,10.9293388 86.1122788,12.1970653 84.4219768,12.1970653 C82.7508829,12.1970653 81.6752362,10.9293388 81.6752362,9.27745279 Z" id="Shape"/><path d="M93.334895,8.95091719 C93.334895,7.452695 94.2952939,6.39625627 95.7743081,6.39625627 C97.2149064,6.39625627 98.1368892,7.41427904 98.1368892,8.95091719 L98.1368892,14.1370709 L100.614718,14.1370709 L100.614718,8.47071777 C100.614718,5.99288876 99.0012482,4.20654692 96.5618351,4.20654692 C94.7947013,4.20654692 93.6998466,5.35902553 93.334895,6.05051269 L93.334895,0 L90.895482,0 L90.895482,14.1370709 L93.334895,14.1370709 L93.334895,8.95091719 Z" id="Path"/></g><g id="Group-3"><mask id="mask-2" fill="white"><use xlink:href="#path-1"/></mask><g id="Clip-2"/><path d="M28.5216273,17.1071569 L27.5793995,22.8912754 L29.7469938,22.8912754 C31.1322725,22.8912754 32.2554206,24.0144235 32.2554206,25.3997021 C32.2554206,26.7852943 31.1322725,27.9081289 29.7469938,27.9081289 L26.761966,27.9081289 L24.8887983,39.4055029 C33.5795563,37.2266207 40.0168065,29.3658384 40.0168065,19.9993729 C40.0168065,19.0166967 39.9424943,18.0518931 39.8057851,17.1071569 L28.5216273,17.1071569 Z M11.5527475,22.8912754 L12.4952889,17.1071569 L10.4468449,17.1071569 C9.0615662,17.1071569 7.93841812,15.9840088 7.93841812,14.5987301 C7.93841812,13.2134514 9.0615662,12.0903034 10.4468449,12.0903034 L13.3124089,12.0903034 L15.1877714,0.579133025 C6.46691228,2.73700713 -0.000125421337,10.6112722 -0.000125421337,19.9993729 C-0.000125421337,20.9817355 0.0738731677,21.9468527 0.210895979,22.8912754 L11.5527475,22.8912754 Z M21.6789527,27.9081289 L15.8186407,27.9081289 L15.6022889,29.2357137 C15.4016148,30.4664106 14.3374148,31.3412244 13.1296073,31.3412244 C12.9954064,31.3412244 12.8596378,31.3302501 12.7229286,31.3083013 C11.355836,31.0853649 10.4277181,29.7963471 10.6506545,28.428941 L10.7353139,27.9081289 L1.62690288,27.9081289 C4.65582817,34.9376813 11.5969585,39.8805362 19.7088971,40 L21.6789527,27.9081289 Z M23.4386141,17.1071569 L17.5783021,17.1071569 L16.6357608,22.8912754 L22.4960727,22.8912754 L23.4386141,17.1071569 Z M20.3651642,0 C28.4523321,0.142039664 35.3680646,5.07736929 38.3897782,12.0903034 L29.3390609,12.0903034 L29.3660265,11.9238065 C29.5889629,10.5564004 28.6611586,9.26738261 27.2937524,9.04444619 C25.9260328,8.82276397 24.6373285,9.74962766 24.4143921,11.1170338 L24.2560477,12.0903034 L18.3954221,12.0903034 L20.3651642,0 Z" id="Fill-1" fill="#000" mask="url(#mask-2)"/></g></g></g></g></svg>