<svg version="1.2" xmlns="http://www.w3.org/2000/svg" viewBox="0 0 283 92" width="283" height="92">
	<title>eclipse-svg</title>
	<style>
		.s0 { fill: #f79422 } 
		.s1 { fill: #3d3c3b } 
	</style>
	<g id="Layer_1">
		<path id="Layer" fill-rule="evenodd" class="s0" d="m266.6 73.3h3.3v17.7h-2.1l-9.3-12v12h-3.3v-17.7h2.7l8.7 11zm-23.4 9c-0.1 4.6-2.8 9.2-9.1 9.2-6.2 0-9.1-4.5-9.1-9.2 0-4.6 3-9.3 9.1-9.3 6.1 0 9.2 4.7 9.1 9.3zm-14.9 0c0.1 2.9 1.7 6 5.8 6 4.2 0 5.8-3 5.8-6 0.1-3-1.6-6.3-5.8-6.3-4.1 0-5.8 3.4-5.8 6.3zm-18.7 8.7v-17.7h3.3v17.7zm-20.2-14.7h-5.6v-3h14.5v3h-5.6v14.7h-3.3zm-17.6 11.3h-9.3l-1.5 3.4h-3.6l8-17.7h3.6l7.9 17.7h-3.6zm-4.6-10.7l-3.3 7.5h6.6zm-28.3-3.6c6.1 0 8.8 4.2 8.9 8.6 0.1 4.5-2.6 9-8.8 9h-7v-17.7h6.9zm-3.6 14.5h3.6c4.1 0 5.7-3.1 5.6-5.8-0.1-2.8-1.7-5.5-5.6-5.5h-3.6zm-18.7-14.5h3.3v17.7h-2.1l-9.3-12v12h-3.3v-17.8h2.7l8.7 11zm-24.2 0.1v10.1c0 5.3-3.2 7.9-7.6 7.9-4.3 0-7.9-2.5-7.9-7.9v-10.1h3.3v10.1c0 3.2 1.8 4.9 4.6 4.9 2.7 0 4.3-1.9 4.3-4.9v-10.1zm-36.3-0.4c6.1 0 9.1 4.7 9.1 9.3-0.1 4.6-2.9 9.2-9.1 9.2-6.2 0-9.1-4.5-9.1-9.2 0-4.6 3-9.3 9.1-9.3zm0 3c-4.2 0-5.9 3.4-5.8 6.3 0 2.9 1.6 6 5.8 6 4.1 0 5.7-3 5.8-6 0-3-1.7-6.3-5.8-6.3zm-33.1 15v-17.6h12.7v3.2h-9.4v4.8h8.9v3.1h-8.9v6.5z"/>
		<path id="Layer" fill-rule="evenodd" class="s1" d="m270.2 62.1h-29.5v-39.6h29.5v7.3h-22.1v9.1h21.3v6.9h-21.3v8.9h22.1zm-45.9-29.9c-1.4-2.3-5.1-4.4-9.4-4.4-5.5 0-8.1 2.3-8.1 5.2 0 3.5 4 4.5 8.8 5 8.2 1.1 15.9 3.2 15.9 12.6 0 8.8-7.8 12.6-16.6 12.6-8.1 0-14.3-2.5-17.2-9.7l6.2-3.2c1.7 4.3 6.4 6.2 11.1 6.2 4.7 0 9.1-1.6 9.1-5.9 0-3.7-3.9-5.2-9.2-5.8-8-1-15.5-3.1-15.5-12 0-8.1 8-11.5 15.3-11.5 6.2 0 12.5 1.8 15.5 7.9zm-47.4-9.6c19.3 0 19.4 27.9 0 27.9h-11.2v11.6h-7.4v-39.5c6.2 0 12.4-0.1 18.6 0zm-11.2 21.1h11.2c9.5 0 9.5-14 0-14h-11.2zm-25.4 18.4v-39.5h7.4v39.5zm-29.1-39.5v32.6h20.2v6.9h-27.7v-39.5zm-14.6 34.6q-1.5 1.4-3.2 2.5-1.8 1.1-3.7 1.9-1.9 0.8-4 1.1-2 0.4-4.1 0.3c-14.6 0-20.8-10-20.9-20.3-0.1-10.3 6.7-20.8 20.9-20.8q2.1 0 4 0.4 2 0.4 3.9 1.1 1.9 0.8 3.5 1.9 1.7 1.2 3.1 2.6l-5 4.8q-0.9-0.9-2-1.6-1.1-0.7-2.4-1.2-1.2-0.5-2.5-0.7-1.3-0.3-2.6-0.2c-9.5 0-13.7 7.1-13.6 13.7 0.1 6.5 3.8 13.3 13.6 13.3q1.4 0 2.7-0.2 1.4-0.3 2.6-0.8 1.3-0.5 2.5-1.3 1.1-0.7 2.1-1.7zm-44 5h-29.6v-39.6h29.5v7.3h-22.1v9.1h21.3v6.9h-21.3v9h22.1z"/>
		<path id="Layer" class="s0" d="m10.7 18.5c9-14.1 27.1-19 42.2-12.2l-1-0.7c-7.4-4.8-16.4-6.4-25-4.5-8.6 1.9-16.1 7.1-20.8 14.5-4.8 7.4-6.4 16.4-4.5 25 1.9 8.6 7.1 16.1 14.5 20.8l1.1 0.6c-12.5-10.9-15.6-29.4-6.5-43.5z"/>
		<path id="Layer" fill-rule="evenodd" class="s1" d="m273 26.4c0-1.2 0.5-2.4 1.3-3.2 0.9-0.9 2.1-1.4 3.3-1.4 1.2 0 2.4 0.5 3.2 1.4 0.9 0.8 1.4 2 1.4 3.2 0 1.2-0.5 2.4-1.4 3.2-0.8 0.9-2 1.4-3.2 1.4-1.2 0-2.4-0.5-3.3-1.4-0.8-0.8-1.3-2-1.3-3.2zm8.6 0c0-1.1-0.4-2.1-1.2-2.9-0.7-0.7-1.7-1.1-2.8-1.1-1.1 0-2.1 0.4-2.9 1.1-0.7 0.8-1.2 1.8-1.2 2.9q0 0.8 0.3 1.6 0.3 0.7 0.9 1.3 0.6 0.6 1.3 0.9 0.8 0.3 1.6 0.3 0.8 0 1.6-0.3 0.7-0.3 1.3-0.9 0.6-0.6 0.9-1.3 0.3-0.8 0.3-1.6zm-6-2.5h2.3c1.2 0 2 0.5 2 1.6q0 0.2-0.1 0.5-0.1 0.2-0.2 0.4-0.2 0.2-0.4 0.4-0.2 0.1-0.4 0.2l1.1 1.6h-1.3l-1-1.5h-0.8v1.5h-1.1zm2.1 2.4c0.5 0 0.8-0.3 0.8-0.7 0-0.4-0.3-0.7-0.8-0.7h-1v1.4z"/>
	</g>
</svg>