<?xml version="1.0" encoding="UTF-8"?>
<svg id="Layer_1" xmlns="http://www.w3.org/2000/svg" xmlns:xlink="http://www.w3.org/1999/xlink" viewBox="0 0 1494.95 831.07">
  <defs>
    <style>
      .cls-1 {
        fill: url(#linear-gradient-2);
      }

      .cls-2 {
        fill: url(#linear-gradient);
      }

      .cls-3 {
        fill: #006472;
      }
    </style>
    <linearGradient id="linear-gradient" x1="321.78" y1="415.53" x2="643.56" y2="415.53" gradientUnits="userSpaceOnUse">
      <stop offset="0" stop-color="#006472"/>
      <stop offset="1" stop-color="#1cb1d1"/>
    </linearGradient>
    <linearGradient id="linear-gradient-2" x1="0" y1="415.91" x2="321.78" y2="415.91" gradientUnits="userSpaceOnUse">
      <stop offset="0" stop-color="#006472"/>
      <stop offset="1" stop-color="#1cb1d1"/>
    </linearGradient>
  </defs>
  <g>
    <path class="cls-3" d="M790.42,265.47c0,10.77-2,20.3-5.99,28.59-4,8.29-9.67,14.68-17.03,19.15-7.36,4.48-15.74,6.71-25.14,6.71s-17.75-2.16-25.03-6.48c-7.28-4.32-12.96-10.5-17.03-18.54-4.07-8.04-6.21-17.27-6.41-27.68v-6.22c0-10.82,1.98-20.36,5.95-28.63,3.97-8.27,9.66-14.65,17.07-19.15,7.41-4.5,15.84-6.75,25.29-6.75s17.7,2.23,25.03,6.67c7.33,4.45,13.03,10.78,17.1,19,4.07,8.22,6.13,17.63,6.18,28.25v5.08ZM763.34,260.84c0-10.97-1.83-19.3-5.5-24.99-3.67-5.69-8.91-8.53-15.74-8.53-13.35,0-20.4,10.01-21.16,30.03l-.08,8.12c0,10.82,1.79,19.14,5.39,24.95,3.59,5.81,8.92,8.72,16,8.72s11.91-2.86,15.55-8.57c3.64-5.71,5.49-13.93,5.54-24.65v-5.08Z"/>
    <path class="cls-3" d="M877.6,277.98c0,12.74-2.87,22.92-8.61,30.53-5.74,7.61-13.49,11.41-23.25,11.41-7.54,0-13.73-2.75-18.58-8.27v38.3h-25.56v-113.61h23.89l.76,7.59c4.9-6.07,11.35-9.1,19.34-9.1,10.11,0,17.97,3.73,23.59,11.19s8.42,17.71,8.42,30.75v1.21ZM852.04,276.39c0-14.56-4.25-21.84-12.74-21.84-6.07,0-10.11,2.18-12.14,6.52v32.31c2.23,4.55,6.32,6.83,12.29,6.83,8.14,0,12.34-7.03,12.59-21.08v-2.73Z"/>
    <path class="cls-3" d="M928.57,319.92c-12.59,0-22.78-3.75-30.56-11.26-7.79-7.51-11.68-17.28-11.68-29.31v-2.12c0-8.39,1.55-15.8,4.66-22.22,3.11-6.42,7.65-11.39,13.61-14.9,5.97-3.51,13.04-5.27,21.24-5.27,11.53,0,20.63,3.58,27.3,10.73,6.68,7.16,10.01,17.13,10.01,29.92v9.93h-50.81c.91,4.6,2.91,8.22,5.99,10.85,3.08,2.63,7.08,3.94,11.98,3.94,8.09,0,14.41-2.83,18.96-8.49l11.68,13.8c-3.19,4.4-7.7,7.9-13.54,10.5-5.84,2.6-12.12,3.91-18.85,3.91ZM925.69,254.54c-7.48,0-11.93,4.95-13.35,14.87h25.79v-1.97c.1-4.1-.94-7.27-3.11-9.52s-5.28-3.38-9.33-3.38Z"/>
    <path class="cls-3" d="M996.9,236.34l.84,9.63c5.66-7.43,13.47-11.15,23.44-11.15,8.54,0,14.93,2.55,19.15,7.66s6.41,12.79,6.56,23.06v52.86h-25.64v-51.8c0-4.15-.83-7.19-2.5-9.14-1.67-1.95-4.7-2.92-9.1-2.92-5.01,0-8.72,1.97-11.15,5.92v57.94h-25.56v-82.06h23.97Z"/>
    <path class="cls-3" d="M737.94,454.49h-14.41v39.06h-26.62v-110.43h43.46c13.09,0,23.33,2.9,30.72,8.71,7.38,5.81,11.07,14.02,11.07,24.62,0,7.68-1.56,14.04-4.66,19.09-3.11,5.05-7.98,9.14-14.6,12.27l23.06,44.59v1.14h-28.52l-19.49-39.06ZM723.53,434.01h16.84c5.06,0,8.86-1.33,11.42-3.99,2.55-2.66,3.83-6.37,3.83-11.14s-1.29-8.5-3.87-11.21c-2.58-2.71-6.37-4.07-11.38-4.07h-16.84v30.41Z"/>
    <path class="cls-3" d="M830.55,495.06c-12.59,0-22.78-3.75-30.56-11.26-7.79-7.51-11.68-17.28-11.68-29.31v-2.12c0-8.39,1.55-15.8,4.66-22.22,3.11-6.42,7.65-11.39,13.61-14.9,5.97-3.51,13.04-5.27,21.24-5.27,11.53,0,20.63,3.58,27.3,10.73,6.68,7.16,10.01,17.13,10.01,29.92v9.93h-50.81c.91,4.6,2.91,8.22,5.99,10.85,3.08,2.63,7.08,3.94,11.98,3.94,8.09,0,14.41-2.83,18.96-8.49l11.68,13.8c-3.19,4.4-7.7,7.9-13.54,10.5-5.84,2.6-12.12,3.91-18.85,3.91ZM827.66,429.69c-7.48,0-11.93,4.95-13.35,14.87h25.79v-1.97c.1-4.1-.94-7.27-3.11-9.52s-5.28-3.38-9.33-3.38Z"/>
    <path class="cls-3" d="M873.96,451.91c0-8.29,1.36-15.62,4.1-21.99,2.73-6.37,6.65-11.29,11.76-14.75,5.11-3.46,11.05-5.2,17.82-5.2,8.54,0,15.22,2.88,20.02,8.65l.91-7.13h23.21v78.95c0,7.23-1.68,13.51-5.04,18.85-3.36,5.33-8.23,9.43-14.6,12.29-6.37,2.86-13.75,4.29-22.15,4.29-6.02,0-11.84-1.14-17.48-3.41s-9.95-5.23-12.93-8.87l10.69-15.02c4.75,5.61,11.02,8.42,18.81,8.42,11.33,0,16.99-5.81,16.99-17.44v-2.58c-4.9,5.41-11.1,8.12-18.58,8.12-10.01,0-18.1-3.83-24.27-11.49-6.17-7.66-9.25-17.91-9.25-30.75v-.91ZM899.6,453.5c0,6.73,1.26,12.05,3.79,15.96,2.53,3.92,6.07,5.88,10.62,5.88,5.51,0,9.53-1.85,12.06-5.54v-34.51c-2.48-3.74-6.45-5.61-11.91-5.61-4.55,0-8.12,2.04-10.69,6.1-2.58,4.07-3.87,9.97-3.87,17.71Z"/>
    <path class="cls-3" d="M1013.63,484.67c-5.41,6.93-12.72,10.39-21.92,10.39s-15.81-2.62-20.44-7.85c-4.63-5.23-6.94-12.75-6.94-22.56v-53.17h25.56v53.32c0,7.03,3.41,10.54,10.24,10.54,5.87,0,10.04-2.1,12.52-6.3v-57.56h25.71v82.06h-23.97l-.76-8.87Z"/>
    <path class="cls-3" d="M1076.98,493.54h-25.64v-116.49h25.64v116.49Z"/>
    <path class="cls-3" d="M1137.39,493.54c-.91-1.67-1.72-4.12-2.43-7.36-4.7,5.92-11.28,8.87-19.72,8.87-7.73,0-14.31-2.34-19.72-7.02-5.41-4.68-8.12-10.55-8.12-17.63,0-8.9,3.29-15.62,9.86-20.17s16.13-6.83,28.67-6.83h7.89v-4.34c0-7.57-3.26-11.36-9.78-11.36-6.07,0-9.1,3-9.1,8.99h-25.56c0-7.93,3.37-14.37,10.12-19.32,6.75-4.95,15.36-7.42,25.82-7.42s18.73,2.55,24.8,7.66,9.18,12.11,9.33,21.01v36.33c.1,7.53,1.26,13.3,3.49,17.29v1.29h-25.56ZM1121.39,476.86c3.19,0,5.83-.68,7.93-2.05s3.6-2.91,4.51-4.63v-13.12h-7.43c-8.9,0-13.35,3.99-13.35,11.98,0,2.33.78,4.21,2.35,5.65,1.57,1.44,3.56,2.16,5.99,2.16Z"/>
    <path class="cls-3" d="M1200.27,391.08v20.4h13.5v17.75h-13.5v37.54c0,3.09.55,5.23,1.67,6.45,1.11,1.21,3.31,1.82,6.6,1.82,2.53,0,4.65-.15,6.37-.45v18.28c-4.6,1.47-9.4,2.2-14.41,2.2-8.8,0-15.29-2.07-19.49-6.22-4.2-4.14-6.3-10.44-6.3-18.88v-40.73h-10.47v-17.75h10.47v-20.4h25.56Z"/>
    <path class="cls-3" d="M1218.32,451.76c0-8.19,1.59-15.48,4.78-21.88,3.19-6.4,7.76-11.31,13.73-14.75,5.97-3.44,12.97-5.16,21.01-5.16,12.29,0,21.97,3.81,29.05,11.42,7.08,7.61,10.62,17.96,10.62,31.06v.91c0,12.79-3.55,22.94-10.66,30.45-7.1,7.51-16.72,11.26-28.86,11.26s-21.06-3.5-28.14-10.5c-7.08-7-10.9-16.5-11.45-28.48l-.08-4.32ZM1243.88,453.35c0,7.58,1.19,13.15,3.56,16.68,2.38,3.54,5.89,5.31,10.54,5.31,9.1,0,13.75-7,13.96-21.01v-2.58c0-14.71-4.7-22.07-14.11-22.07-8.54,0-13.17,6.35-13.88,19.04l-.08,4.63Z"/>
    <path class="cls-3" d="M1355.29,434.62l-8.42-.61c-8.04,0-13.2,2.53-15.47,7.58v51.95h-25.56v-82.06h23.97l.83,10.54c4.3-8.04,10.29-12.06,17.98-12.06,2.73,0,5.1.3,7.13.91l-.45,23.74Z"/>
    <path class="cls-3" d="M1398.09,457.75l13.65-46.26h27.38l-33.45,95.79-1.44,3.49c-4.75,10.62-13.15,15.93-25.18,15.93-3.34,0-6.85-.5-10.54-1.51v-18.21h3.34c3.59,0,6.33-.52,8.23-1.56s3.3-2.9,4.21-5.58l2.05-5.46-28.52-82.89h27.3l12.97,46.26Z"/>
    <path class="cls-3" d="M786.25,631.3c-.35,7.69-2.43,14.47-6.22,20.36-3.79,5.89-9.11,10.45-15.96,13.69-6.85,3.24-14.68,4.85-23.47,4.85-14.51,0-25.94-4.73-34.28-14.18-8.34-9.45-12.51-22.8-12.51-40.04v-5.46c0-10.82,1.88-20.29,5.65-28.4,3.77-8.11,9.19-14.38,16.27-18.81,7.08-4.42,15.27-6.64,24.57-6.64,13.4,0,24.17,3.53,32.31,10.58,8.14,7.05,12.77,16.77,13.88,29.16h-26.55c-.2-6.72-1.9-11.55-5.08-14.49-3.19-2.93-8.04-4.4-14.56-4.4s-11.48,2.48-14.56,7.43c-3.09,4.95-4.7,12.87-4.85,23.74v7.81c0,11.78,1.48,20.2,4.44,25.25,2.96,5.06,8.05,7.59,15.28,7.59,6.12,0,10.79-1.44,14.03-4.32,3.24-2.88,4.95-7.46,5.16-13.73h26.47Z"/>
    <path class="cls-3" d="M794.44,626.9c0-8.19,1.59-15.48,4.78-21.88s7.76-11.31,13.73-14.75c5.97-3.44,12.97-5.16,21.01-5.16,12.29,0,21.97,3.81,29.05,11.42,7.08,7.61,10.62,17.96,10.62,31.06v.91c0,12.79-3.55,22.94-10.66,30.45-7.1,7.51-16.72,11.26-28.86,11.26s-21.06-3.5-28.14-10.5c-7.08-7-10.9-16.5-11.45-28.48l-.08-4.32ZM820,628.49c0,7.58,1.19,13.15,3.56,16.68,2.38,3.54,5.89,5.31,10.54,5.31,9.1,0,13.75-7,13.96-21.01v-2.58c0-14.71-4.7-22.07-14.11-22.07-8.54,0-13.17,6.35-13.88,19.04l-.08,4.63Z"/>
    <path class="cls-3" d="M906.71,586.63l.83,9.63c5.81-7.43,13.63-11.15,23.44-11.15,10.37,0,17.37,4.12,21.01,12.36,5.56-8.24,13.6-12.36,24.12-12.36,16.63,0,25.18,10.06,25.64,30.19v53.39h-25.64v-51.8c0-4.2-.71-7.25-2.12-9.18-1.42-1.92-3.99-2.88-7.74-2.88-5.06,0-8.82,2.25-11.3,6.75l.08,1.06v56.05h-25.64v-51.65c0-4.3-.68-7.41-2.05-9.33-1.36-1.92-3.97-2.88-7.81-2.88-4.9,0-8.65,2.25-11.23,6.75v57.11h-25.56v-82.06h23.97Z"/>
    <path class="cls-3" d="M1089.42,628.26c0,12.74-2.87,22.92-8.61,30.53-5.74,7.61-13.49,11.41-23.25,11.41-7.54,0-13.73-2.75-18.58-8.27v38.3h-25.56v-113.61h23.89l.76,7.59c4.9-6.07,11.35-9.1,19.34-9.1,10.11,0,17.97,3.73,23.59,11.19s8.42,17.71,8.42,30.75v1.21ZM1063.86,626.67c0-14.56-4.25-21.84-12.74-21.84-6.07,0-10.11,2.18-12.14,6.52v32.31c2.23,4.55,6.32,6.83,12.29,6.83,8.14,0,12.34-7.03,12.59-21.08v-2.73Z"/>
    <path class="cls-3" d="M1124.53,668.69h-25.64v-116.49h25.64v116.49Z"/>
    <path class="cls-3" d="M1136.35,565.47c0-3.64,1.31-6.62,3.94-8.95,2.63-2.33,6.04-3.49,10.24-3.49s7.61,1.16,10.24,3.49,3.94,5.31,3.94,8.95-1.31,6.63-3.94,8.95-6.04,3.49-10.24,3.49-7.61-1.16-10.24-3.49c-2.63-2.33-3.94-5.31-3.94-8.95ZM1163.51,668.69h-25.64v-82.06h25.64v82.06Z"/>
    <path class="cls-3" d="M1223.92,668.69c-.91-1.67-1.72-4.12-2.43-7.36-4.7,5.92-11.28,8.87-19.72,8.87-7.73,0-14.31-2.34-19.72-7.02-5.41-4.68-8.12-10.55-8.12-17.63,0-8.9,3.29-15.62,9.86-20.17s16.13-6.83,28.67-6.83h7.89v-4.34c0-7.57-3.26-11.36-9.78-11.36-6.07,0-9.1,3-9.1,8.99h-25.56c0-7.93,3.37-14.37,10.12-19.32,6.75-4.95,15.36-7.42,25.82-7.42s18.73,2.55,24.8,7.66,9.18,12.11,9.33,21.01v36.33c.1,7.53,1.26,13.3,3.49,17.29v1.29h-25.56ZM1207.91,652c3.19,0,5.83-.68,7.93-2.05s3.6-2.91,4.51-4.63v-13.12h-7.43c-8.9,0-13.35,3.99-13.35,11.98,0,2.33.78,4.21,2.35,5.65,1.57,1.44,3.56,2.16,5.99,2.16Z"/>
    <path class="cls-3" d="M1280.5,586.63l.84,9.63c5.66-7.43,13.47-11.15,23.44-11.15,8.54,0,14.93,2.55,19.15,7.66,4.22,5.11,6.41,12.79,6.56,23.06v52.86h-25.64v-51.8c0-4.15-.83-7.19-2.5-9.14-1.67-1.95-4.7-2.92-9.1-2.92-5.01,0-8.72,1.97-11.15,5.92v57.94h-25.56v-82.06h23.97Z"/>
    <path class="cls-3" d="M1376.22,650.49c3.59,0,6.37-.97,8.34-2.92,1.97-1.95,2.93-4.66,2.88-8.15h23.97c0,9-3.22,16.38-9.67,22.15-6.45,5.76-14.75,8.65-24.91,8.65-11.93,0-21.34-3.74-28.21-11.22-6.88-7.48-10.32-17.85-10.32-31.1v-1.06c0-8.29,1.53-15.61,4.59-21.96,3.06-6.34,7.47-11.22,13.23-14.64,5.76-3.41,12.59-5.12,20.48-5.12,10.67,0,19.14,2.96,25.41,8.87,6.27,5.92,9.4,13.93,9.4,24.04h-23.97c0-4.25-1.04-7.51-3.11-9.78-2.07-2.28-4.85-3.41-8.34-3.41-6.63,0-10.49,4.22-11.6,12.67-.35,2.68-.53,6.37-.53,11.07,0,8.24.99,13.95,2.96,17.14,1.97,3.19,5.11,4.78,9.4,4.78Z"/>
    <path class="cls-3" d="M1460.36,670.21c-12.59,0-22.78-3.75-30.56-11.26-7.79-7.51-11.68-17.28-11.68-29.31v-2.12c0-8.39,1.55-15.8,4.66-22.22,3.11-6.42,7.65-11.39,13.61-14.9,5.97-3.51,13.04-5.27,21.24-5.27,11.53,0,20.63,3.58,27.3,10.73,6.68,7.16,10.01,17.13,10.01,29.92v9.93h-50.81c.91,4.6,2.91,8.22,5.99,10.85,3.08,2.63,7.08,3.94,11.98,3.94,8.09,0,14.41-2.83,18.96-8.49l11.68,13.8c-3.19,4.4-7.7,7.9-13.54,10.5-5.84,2.6-12.12,3.91-18.85,3.91ZM1457.48,604.83c-7.48,0-11.93,4.95-13.35,14.87h25.79v-1.97c.1-4.1-.94-7.27-3.11-9.52s-5.28-3.38-9.33-3.38Z"/>
  </g>
  <g>
    <path class="cls-2" d="M321.78.8l.64-.8,16.25,21.04c96.34,124.69,221.17,166.23,270.37,178.3l34.51,8.47-321.78,347.16v-61.54l243.85-263.08c-60.81-19.93-160.03-65.28-243.78-163.66-.02.03-.05.05-.07.08V.8ZM321.78,649.2v61.6l.34.37,258.81-285.39c-7.89,62.79-15.69,112.45-22.91,145.55-11.94,54.78-63.17,104.59-104.04,136.73-46.44,36.52-97.99,64.78-131.69,78.24-.16-.07-.34-.15-.51-.22v44.93l.15.06,7.33-2.66c36.34-13.18,97-45.34,150.58-87.47,46.26-36.38,104.47-93.79,119.06-160.71,9.99-45.82,20.51-118.04,31.27-214.64l7.16-64.27-315.51,347.91-.03-.04Z"/>
    <path class="cls-1" d="M321.36,493.88l.42-.45v61.54l-.45.49-111.68-120.7-47.82,41.56,159.94,172.89v61.6l-219.96-237.77,111-96.46,108.54,117.31ZM321.78,786.08c-77.4-32.1-222.85-126.23-241.05-218.39-17.95-90.89-32.15-273.74-36.4-332.23,47.36-10.67,171.96-48.77,277.45-168.71V.8l-15.98,19.95C183.71,173.16,20.94,197.48,19.34,197.7l-19.34,2.63,1.29,19.48c.66,9.94,16.44,244.8,38.39,355.99,23.54,119.2,198.68,223.3,274.97,252.48l7.13,2.73v-44.93Z"/>
  </g>
</svg>