<?xml version="1.0" encoding="UTF-8"?>
<svg id="a" data-name="Logo_farbig" xmlns="http://www.w3.org/2000/svg" viewBox="0 0 820.17 378.78">
  <defs>
    <style>
      .j {
        fill: #1b3c54;
      }

      .k {
        fill: #135e59;
      }

      .l {
        fill: #050506;
      }

      .m {
        fill: #e5e6e6;
      }

      .n {
        fill: #b7aa25;
      }
    </style>
  </defs>
  <g id="b" data-name="Schriftzug">
    <path class="l" d="M357.09,226.86v-85.06c0-1.13.75-1.89,1.89-1.89h54.61c22.02,0,29.69,9.69,29.69,33.34v22.65c0,23.53-7.67,32.84-29.69,32.84h-54.61c-1.13,0-1.89-.75-1.89-1.89ZM413.08,220.95c16.99,0,22.27-5.41,22.27-25.04v-22.65c0-19.88-5.28-25.54-22.27-25.54h-48.06v73.23h48.06Z"/>
    <path class="l" d="M458.01,198.17v-56.37c0-1.13.75-1.89,1.89-1.89h4.15c1.13,0,1.89.75,1.89,1.89v56.5c0,17.11,5.66,22.65,21.89,22.65h26.17c16.23,0,21.77-5.54,21.77-22.65v-56.5c0-1.13.75-1.89,1.89-1.89h4.28c1.13,0,1.89.75,1.89,1.89v56.37c0,20.13-7.55,30.58-29.82,30.58h-26.17c-22.27,0-29.82-10.44-29.82-30.58Z"/>
    <path class="l" d="M560.18,226.86v-85.06c0-1.13.75-1.89,1.89-1.89h4.15c1.13,0,1.89.75,1.89,1.89v37.62h64.67v-37.62c0-1.13.75-1.89,1.89-1.89h4.28c1.13,0,1.89.75,1.89,1.89v85.06c0,1.13-.75,1.89-1.89,1.89h-4.28c-1.13,0-1.89-.75-1.89-1.89v-39.89h-64.67v39.89c0,1.13-.75,1.89-1.89,1.89h-4.15c-1.13,0-1.89-.75-1.89-1.89Z"/>
    <path class="l" d="M652.79,194.15v-3.27c0-1.13.75-1.89,1.89-1.89h30.2c1.13,0,1.89.75,1.89,1.89v3.27c0,1.13-.75,1.89-1.89,1.89h-30.2c-1.13,0-1.89-.75-1.89-1.89Z"/>
    <path class="l" d="M698.72,225.6v-82.54c0-2.01,1.13-3.15,3.15-3.15h11.07c2.01,0,3.15,1.13,3.15,3.15v82.54c0,2.01-1.13,3.15-3.15,3.15h-11.07c-2.01,0-3.15-1.13-3.15-3.15Z"/>
    <path class="l" d="M756.47,225.6v-68.83h-27.18c-2.01,0-3.15-1.13-3.15-3.15v-10.57c0-2.01,1.13-3.15,3.15-3.15h71.85c2.01,0,3.15,1.13,3.15,3.15v10.57c0,2.01-1.13,3.15-3.15,3.15h-27.18v68.83c0,2.01-1.13,3.15-3.15,3.15h-11.2c-2.01,0-3.15-1.13-3.15-3.15Z"/>
  </g>
  <g id="c" data-name="Schattierung">
    <g id="d" data-name="Hilfslinien">
      <polyline class="m" points="104.65 286.63 99.61 283.67 30.24 243.1 30.73 157.71 30.73 156.89 55.23 142.92 85.2 125.86 105.65 114.2 110.69 117.15 157.34 144.44 147.49 161.61 105.51 137.52 75.55 154.58 50.85 168.66 50.84 169.25 50.5 231.55 104.8 263.32 195 210.58 232.88 232.32 233.01 244.96 233.15 257.61 193.33 234.75"/>
    </g>
    <g id="e" data-name="Hilfslinien">
      <polyline class="m" points="163.07 81.72 168.06 78.68 236.64 36.79 311.63 77.65 312.35 78.04 313.05 106.24 313.89 140.71 314.48 164.25 309.49 167.28 263.37 195.46 252.91 178.65 294 153.08 293.16 118.61 292.45 90.19 291.93 89.9 237.22 60.11 183.54 92.9 187.29 197.31 150.19 220.39 139 214.51 127.79 208.65 166.78 184.4"/>
    </g>
    <g id="f" data-name="Hilfslinien">
      <polyline class="m" points="310.35 238.22 310.29 244.06 309.64 324.42 235.33 366.51 234.62 366.92 210.31 352.62 180.59 335.13 160.3 323.19 160.36 317.35 160.8 263.3 180.59 263.3 180.59 311.7 210.31 329.19 234.81 343.6 235.33 343.31 289.53 312.6 290.05 249.69 199.41 197.72 199.41 154.04 210.31 147.64 221.21 141.22 221.21 187.13"/>
    </g>
  </g>
  <g id="g" data-name="Logo_vorne">
    <polyline class="j" points="100.92 268.1 95.88 265.14 26.51 224.57 26.99 139.17 27 138.36 51.5 124.39 81.46 107.33 101.92 95.66 106.96 98.62 153.61 125.91 143.76 143.08 101.78 118.99 71.82 136.05 47.12 150.13 47.11 150.72 46.77 213.02 101.07 244.78 191.27 192.04 229.15 213.79 229.28 226.43 229.42 239.08 189.6 216.22"/>
    <polyline class="k" points="159.34 63.19 164.33 60.15 232.91 18.26 307.9 59.12 308.62 59.51 309.32 87.71 310.16 122.18 310.75 145.71 305.76 148.75 259.63 176.93 249.18 160.12 290.27 134.55 289.43 100.08 288.72 71.66 288.2 71.37 233.49 41.57 179.81 74.36 183.56 178.78 146.46 201.85 135.27 195.98 124.06 190.12 163.05 165.87"/>
    <polyline class="n" points="306.62 219.69 306.56 225.53 305.91 305.89 231.6 347.98 230.89 348.38 206.58 334.08 176.86 316.59 156.57 304.66 156.62 298.82 157.07 244.77 176.86 244.77 176.86 293.17 206.58 310.66 231.08 325.07 231.6 324.78 285.8 294.07 286.32 231.16 195.68 179.19 195.68 135.5 206.58 129.1 217.48 122.68 217.48 168.6"/>
  </g>
</svg>