<?xml version="1.0" encoding="UTF-8"?>
<svg xmlns="http://www.w3.org/2000/svg" viewBox="0 0 542.07 488.61">
  <defs>
    <style>
      .cls-1 {
        fill: #c1c1c1;
      }

      .cls-1, .cls-2, .cls-3, .cls-4, .cls-5, .cls-6, .cls-7, .cls-8, .cls-9, .cls-10, .cls-11, .cls-12, .cls-13, .cls-14, .cls-15, .cls-16, .cls-17, .cls-18, .cls-19 {
        stroke-width: 0px;
      }

      .cls-2 {
        fill: #c9c9c9;
      }

      .cls-3 {
        fill: #e51727;
      }

      .cls-4 {
        fill: #b0c0c6;
      }

      .cls-5 {
        fill: #ddcfb1;
      }

      .cls-20 {
        mix-blend-mode: overlay;
        opacity: .83;
      }

      .cls-6 {
        fill: #a59571;
      }

      .cls-7 {
        fill: #4779b8;
      }

      .cls-8 {
        fill: #e25959;
      }

      .cls-9 {
        fill: #87b3e3;
      }

      .cls-10 {
        opacity: .18;
      }

      .cls-10, .cls-11, .cls-12, .cls-17, .cls-19 {
        fill: #000;
      }

      .cls-12 {
        opacity: .1;
      }

      .cls-13 {
        fill: #ea8939;
      }

      .cls-14 {
        fill: #ef9849;
      }

      .cls-15 {
        fill: #345e9b;
      }

      .cls-21 {
        opacity: .37;
      }

      .cls-22 {
        opacity: .49;
      }

      .cls-23 {
        opacity: .7;
      }

      .cls-16 {
        fill: #c9ba99;
      }

      .cls-24 {
        isolation: isolate;
      }

      .cls-25 {
        fill: none;
        stroke: #000;
        stroke-miterlimit: 10;
        stroke-width: 3px;
      }

      .cls-17 {
        opacity: .08;
      }

      .cls-18 {
        fill: #fff;
      }

      .cls-19 {
        opacity: .14;
      }
    </style>
  </defs>
  <g class="cls-24">
    <g id="Ebene_12" data-name="Ebene 12">
      <path class="cls-11" d="M438.01,195.35c30.74,6.57,138.37,28.64,93.08,76.02-8.66,8.74-18.87,15.46-29.88,20.86-4.3,1.96-7.72,3.63-12.83,4.43,0,0-.77-12.95-.77-12.95,6.5-.06,13.5-3.26,19.48-6.04,10.85-5.37,32.05-19.26,25.96-33.32-9.41-17.98-44.09-25.7-62.98-28.91-9.34-1.54-18.79-2.57-28.24-3.03-1.86-.07-3.81-.16-5.56-.15l1.73-16.91h0Z"/>
      <path class="cls-12" d="M387.43,449.47c-71.96,1-131.39,8.54-140.45,17.36-12.69-4.4-38.23-7.17-67.69-6.76-42.1.58-76.22,7.44-76.22,15.31s34.12,13.78,76.22,13.2c38.49-.53,70.29-6.31,75.47-13.31,20.13,6.44,71.93,10.51,132.67,9.67,78.23-1.08,141.65-9.9,141.65-19.69s-63.42-16.85-141.65-15.77Z"/>
      <g>
        <path class="cls-18" d="M426.15,165.25c8.84,37.81,46.78,112.99,57.89,178.61,8.87,52.37-1.66,113.18-17.31,116.48-31.27,6.59-72.2-61.88-97.45-61.65-25.12.22-55.51,73.38-91.24,71.67-20.21-.97-42.44-66.38-40.32-129.5,2.12-63.12,27.32-135.3,49.16-186.91C318.55,79.17,368.67-2.52,401.58,1.18c14.46,1.63,2.75,70.77,24.57,164.07Z"/>
        <path class="cls-11" d="M428.46,164.71c6.73,25.02,17.49,48.79,26.76,72.98,24.82,63.33,46.52,122.84,30.61,191.65-2.49,9.94-7.47,31.1-18.91,33.54-19.25,3.6-40.4-16.92-53.91-28.57-9.77-8.16-32.11-31.85-44.23-31.14-9.77,1.09-20.57,14.58-27.31,21.77-12.8,14.17-25.87,31.24-42.26,41.54-8.64,5.21-21.35,9.88-30.12,2.59-21.85-18.89-32.49-73.65-34.42-101.93-5.84-103.12,55.24-245.16,114.7-328.33,7.92-10.42,16.43-20.5,26.72-28.71,7.35-5.72,16.73-11.39,26.52-9.81,4.17,1.48,5.21,6.14,6.17,9.84,1.4,6.46,1.84,13,2.33,19.54.86,13,1.41,26,2.33,38.98,2.5,32.35,7.23,64.63,15.03,96.08h0ZM423.85,165.79c-8.64-38.32-11.8-77.41-13.83-116.51-.56-9.74-.96-19.48-1.95-29.17-.55-4.75-1.07-9.57-2.82-13.99-.75-1.68-1.63-3.24-3.26-3.74-2.58-.42-5.34-.17-7.9.46-6.09,1.54-11.62,5.03-16.68,8.94-10.13,8.01-18.62,17.97-26.48,28.2-31.16,41.64-53.34,89.41-71.23,138.05-17.81,48.47-33.84,98.46-38.12,150.09-.86,9.3-.85,19.55-.3,28.91.9,28.77,4.99,58.04,15.65,84.9,3.59,8.44,11.41,25.34,21.47,26.03,12.94.2,23.63-9.37,32.24-18.32,13.43-14.04,23.97-30.98,38.15-44.76,8.81-8.39,18.75-14.11,30.94-8.1,9.38,4.47,16.98,11.62,24.3,18.49,9.51,9.08,18.35,18.58,28.02,26.98,9.23,7.76,21.16,17.67,33.9,15.64.7-.11,1.31-.34,1.97-.76,13.54-10.46,15.49-50.63,15.45-67.25.84-52-16.58-101.66-34.12-149.93-8.78-24.58-19.16-48.72-25.4-74.17h0Z"/>
      </g>
      <path class="cls-11" d="M268.63,205.51s36.54,16.69,97.68,13.21c61.14-3.48,72.19-13.27,72.19-13.27,0,0-16-35.37-22.46-88.07-6.46-52.69-4.04-114.57-14.91-115.83-12.92-1.49-35.29,13.92-54.19,39.77-18.89,25.85-49.71,89.98-57.66,106.88s-20.65,57.3-20.65,57.3Z"/>
      <g>
        <path class="cls-3" d="M299.64,218.24c-.21,23.58,29.38,42.17,68.87,41.03,45.33-1.31,59.01-26.57,58.08-46.14-1.03-21.88-23.23-46.3-67.73-44.39-38.12,1.64-59.04,27.88-59.23,49.5Z"/>
        <path class="cls-11" d="M301.29,218.25c.8,22.22,25.05,33.24,44.25,36.56,19.78,3.16,43.5,2.27,60.85-8.57,11.57-7.19,18.96-20.53,17.9-34.25-.88-13.95-10.49-26.16-22.35-33.19-12.29-7.33-26.99-10.06-41.22-9.76-14.31.11-28.91,4.27-40.21,13.19-11,8.64-19.22,21.81-19.21,36.01h0ZM297.99,218.22c.54-15.12,9.78-28.52,21.76-36.99,11.91-8.48,26.46-12.48,40.95-12.89,14.53-.52,29.4,1.48,42.43,8.35,13.2,6.83,24,19.65,25.56,34.92,1.7,15.37-6.22,31.08-19.13,39.42-18.36,12.16-43.97,13.1-65.04,9.14-20.92-4.07-46.65-17.66-46.54-41.95h0Z"/>
      </g>
      <path class="cls-11" d="M503.33,280.43s-20.16,4.1-28.17-.07c-8.01-4.18-20.57-18.8-33.74-17.31-13.17,1.49-18.49,13.44-15.45,16.09,5.61,4.9,9.91-3.85,18.32-3.16,8.42.69,26.11,7.82,26.11,7.82,0,0-17.24-5.16-29.77-2.56-14.97,3.11-16.83,20.62-12.9,22.3,6.94,2.97,13.22-11.16,21.63-12.19,4.99-.6,22.18.09,22.18.09,0,0-11.98.33-20.36,5.99-8.38,5.66-9.86,21.26-3.25,22.22,6.61.96,7.6-14.84,13.61-17.9,8.15-4.15,10.93,7.69,20.52,4.81,4.82-1.44,11.14-10.57,11.14-10.57l10.12-15.58Z"/>
      <path class="cls-18" d="M343.96,184.9c26.33-9.09,49.68,2.35,50.31,13.73.51,9.27-29.24,23.98-57.51,15.06-20.82-6.58-9.61-22.99,7.2-28.79Z"/>
      <path class="cls-11" d="M245.83,203.44s18.6-16.17,23.32-22.28,12.89-18.76,12.89-18.76l-25.55,69.43s3.89-16.66.83-18.88c-3.05-2.22-9.44.83-9.44.83l-2.05-10.33Z"/>
      <path class="cls-11" d="M460.45,200.65s-12.2-4.17-18.65-10.85c-5.33-5.52-15.23-26.65-15.23-26.65l26.46,71.38s-2.68-12.21.38-15.61c5.14-5.71,8.95-4.76,8.95-4.76l-1.9-13.51Z"/>
      <path class="cls-12" d="M464.01,271c-9.23-25.57-25.57-76.72-25.57-76.72l-18.47-2.13s-5.64,34.78-43.33,47.59c-35.52,12.08-73.17-7.81-73.17-7.81,0,0,9.55,45.39,74.3,45.29,28.82-.04,46.48-17.7,46.48-17.7,0,0,1.92-.09,3.83,5.36-3.5,6.5-3.96,15.49-3.68,23.74.71,20.6,15.05,25.81,25.95,38.03,1.89,7.46,2.72,21.06,2.41,25.95-1.42,22.73-.84,59.1-16.47,61.18-21.31,2.84-50.44-29.13-73.88-29.13-20.65,0-52.57,36.23-72.46,34.1-7.9-.85-12.79-14.92-19.89-38.36-5.41-17.85-30.55-58.25-30.55-58.25l-6.39,31.97s9.23,51.86,12.79,66.06c3.55,14.21,20.6,49.02,32.11,50.17,11.51,1.16,43.19-25.31,50.29-32.42,7.1-7.1,30.55-35.52,40.95-39.26,10.4-3.74,48.56,36.41,54.24,39.97,5.68,3.55,27.7,25.57,43.2,21.69,15.5-3.89,20.02-55.07,20.73-87.04.71-31.97-14.21-76.72-23.44-102.29Z"/>
    </g>
    <g id="Ebene_17_Kopie" data-name="Ebene 17 Kopie">
      <g id="Ebene_16_Kopie" data-name="Ebene 16 Kopie">
        <path class="cls-7" d="M112.98,262.76s14.13-3.97,24-1.78c9.87,2.19,13.51,5.19,16.52,7.83,3.01,2.64,8.01,10.82,8.01,10.82,0,0,5.02-13.1,14.42-17.97,9.41-4.87,15.86-5.3,20.52-5.4,4.65-.1,13.69,1.73,13.69,1.73,0,0-15.31-20.27-50.55-19.98-35.24.29-46.6,24.75-46.6,24.75Z"/>
        <path class="cls-7" d="M100.54,316.42l3.51,12.47-13.88,74.41,9.09,32.33s29.93,35.89,72.02,32.35c42.09-3.54,71.26-39.7,71.26-39.7l-16.06-92.05-2.12-32.18s-31.95-23.68-54.83-26.41c-22.88-2.73-71.63,22.41-71.63,22.41l2.62,16.37Z"/>
        <path class="cls-18" d="M155.98,311.23s1.54-5.87,5.32-6.89c3.78-1.02,9.72,7.44,9.72,7.44,0,0-1.85-10.65-3.41-16.71-1.55-6.05-2.41-16.14-6.12-15.44s-5.52,31.6-5.52,31.6Z"/>
        <path class="cls-9" d="M166.31,348.87s-9.42.39-17.34,2.94c-7.93,2.54-12.71,8.48-11.72,9.76.98,1.28,3.53,2.47,3.53,2.47,0,0-10.64,2.27-15.6,8.9-2.72,3.64,4.91,2.83,4.91,2.83,0,0-9.49,9.62-9.83,14.59-.35,4.97,5.82,2.99,5.82,2.99,0,0-7.65,10.17-5.54,14.98s5.64.3,6.43,2.05-1.35,10.21.75,14.79c2.1,4.58,4.1.85,5.27,1.45,1.16.6,2.04,7.06,4.36,11.63,2.32,4.57,4.06.18,5.92,1.18,1.86,1,2.66,10.27,7.45,10.75,5.43.54,4.23-4.1,9.08-2.17,4.85,1.93,6.86,5.17,11.37,5.32,3.17.11,9.63-7.38,13.68-7.42,4.04-.04,5.72,3.26,7.8,2.41,4.6-1.88,3.65-12.83,5.46-12.73s2.02,1.63,4.31.62c4.81-2.11,3.07-14.82,4.19-14.89s2.89,1.52,4.51.15c4.9-4.14-2-16.73-.01-17.31,1.99-.58,4.54,2.25,5.84-.16,3-5.59-7.36-16.15-7.36-16.15,0,0,3.85.72,4.85-1.44,2.36-5.1-11.33-14.99-11.33-14.99,0,0,6.01-.09,5.67-2.62-.89-6.69-17.39-8.08-17.39-8.08,0,0,4.05-1.42,2.67-3.77-3.29-5.63-18.56-8.67-27.74-8.07Z"/>
        <path class="cls-7" d="M165.61,362.18c-10.11.98-16.91,6.06-16.81,7.63s2.42,2.54,2.42,2.54c0,0-7.7,2.53-9.71,6.26-2,3.73,2.91,3.18,2.91,3.18,0,0-4.9,4.14-5.51,8.46-.62,4.31,3.37,3.38,3.37,3.38,0,0-5.02,5.73-3.59,10.35,1.43,4.63,4.64,2.17,4.64,2.17,0,0-.92,6.58-.28,9.46.64,2.88,4.22,2.65,4.22,2.65,0,0,.07,4.49,1.66,8.21s4.55.83,4.55.83c0,0,1.68,8.43,3.93,8.51,2.25.08,2.76-2.43,5.51-1.71,2.75.72,4.76,3.96,7.44,3.78s5.18-6.64,7.72-5.68c2.54.96,3.77,2.67,5.52,1.89s3.5-8.32,3.5-8.32c0,0,2.73,2,3.43.9,2.85-4.46.14-11.48,1.26-11.55s1.64,1.02,3.08-1.1c1.43-2.12-.96-11.18-.96-11.18,0,0,3.22,1.3,3.78-.7,1.27-4.58-3.9-11.44-3.9-11.44,0,0,2.55,1.18,3.27-1.56.72-2.75-7.23-10.77-7.23-10.77,0,0,4.1.14,3.06-1.33-3.96-5.59-11.04-7.14-11.04-7.14,0,0,4.28.17,1.82-3.04-2.46-3.21-10.92-5.35-18.07-4.66Z"/>
        <path class="cls-15" d="M100.79,375.46s-13.43-2.67-33.44-21.92c-20-19.25-8.27-31.3-8.39-34.5-.11-3.2-.98-16.65.44-17.26s6.7-8.64,7.55-7.89c15.41,13.55,21.72,21.29,30.04,35.81,8.32,14.52,9.32,17.7,9.55,21.05.36,5.25.58,7.79-.73,13.46-1.73,7.51-5.03,11.25-5.03,11.25Z"/>
        <path class="cls-15" d="M216.43,381.02s6.02,22.03,10.69,30.02c4.68,8,25.33,25.32,27.32,23.95s9.3-16.39,9.02-33.4c-.29-17.01-3.2-29.69-10.19-41.27-6.99-11.58-20.24-23.58-20.24-23.58l-19.36,8.75s2.1,25.61,2.75,35.53Z"/>
        <path class="cls-14" d="M164.21,329.74s3.09-6.76,4.21-8.85c1.12-2.09,4.17-5.57,4.17-5.57,0,0-3.54-12.38-11.29-10.99-7.74,1.4-7.27,12.46-7.27,12.46,0,0,4.56,4.24,5.93,5.91,1.37,1.67,4.24,7.03,4.24,7.03Z"/>
      </g>
      <g id="Ebene_13_Kopie" data-name="Ebene 13 Kopie">
        <g>
          <path class="cls-13" d="M136.44,463.36c-2.44.51-11.79,5.36-6.04,9.41,3.89,2.74,13.88-5.85,13.88-5.85"/>
          <path class="cls-11" d="M136.7,464.6c-2.01.53-8.71,4.01-6.19,6.48,1,1.1,2.18.96,3.78.42,3.29-1.23,6.31-3.48,9.01-5.72,0,0,1.96,2.28,1.96,2.28-3.64,2.79-10.54,8.38-15.3,6.06-7.07-4.58,1.05-10.75,6.22-12,0,0,.52,2.49.52,2.49h0Z"/>
        </g>
        <g>
          <path class="cls-13" d="M146.34,465.9s-12.11,7.72-4.82,10.23c8.79,3.02,12.21-7.74,12.21-7.74,0,0-.81,7.85,3.58,8.29,5.35.53,5.45-8.68,5.45-8.68"/>
          <path class="cls-11" d="M146.83,466.66c-2.26,1.94-4.75,3.83-6,6.4-.16.41-.16.72-.09.79,0,.18.91.79,2.02.95,2.11.57,4.1.08,5.8-1.26,1.73-1.29,3.18-3.32,4.47-5.38l1.43.3c.24,1.68.53,3.43,1.12,4.78.64,1.7,2.22,2.33,3.61,1.1,1.5-1.66,2.02-4.1,2.7-6.36,0,0,1.74.02,1.74.02.33,1.93.24,3.83-.35,5.81-1.5,5.68-9,6.4-10.47.32-.47-2-.33-3.89.19-5.83,0,0,1.43.3,1.43.3-1.04,7.05-7.84,12.06-14.62,8.46-6.09-4.02,2.33-10.03,6.04-11.94,0,0,.97,1.52.97,1.52h0Z"/>
        </g>
        <g>
          <path class="cls-13" d="M208.74,459.2c2.48.32,12.92,4.26,7.5,8.74-3.67,3.03-13.49-5.32-13.49-5.32"/>
          <path class="cls-11" d="M208.87,458.23c3.75.55,9.5,2.4,10.4,6.62.33,2.83-2.4,5.42-5.07,5.35-4.85-.29-8.85-3.55-12.02-6.9,0,0,1.14-1.34,1.14-1.34,3.11,1.73,6.13,3.79,9.45,4.83,1.01.3,1.97.29,2.35,0,.41-.26,1.21-1.03,1.12-1.56.02-.46-.63-1.32-1.49-1.97-1.71-1.33-4.05-2.46-6.14-3.07l.26-1.95h0Z"/>
        </g>
        <g>
          <path class="cls-13" d="M199.92,462.3s13.67,8.9,6.29,11.13c-8.77,2.66-12.96-7.35-12.96-7.35,0,0,.91,7.04-3.44,7.81-5.29.94-6.1-8.23-6.1-8.23"/>
          <path class="cls-11" d="M200.41,461.54c2.42,1.37,4.69,2.89,6.8,4.87,1.15,1.19,2.18,2.24,2.67,4.01.63,2.36-1.41,4.22-3.41,4.66-6.41,2.09-12.41-2.52-14.33-8.53,0,0,2.34-.63,2.34-.63.5,2.93.46,6.64-2.26,8.75-3.43,2.37-7.43.22-8.73-3.28-.8-1.87-1.15-3.66-1.26-5.61l2.99-.26c.45,2.09,1.02,4.55,2.47,6.06.41.37.78.59,1.23.63,2.82.2,3.04-3.72,3.13-5.98,0,0,2.34-.63,2.34-.63,2.06,3.17,4.81,6.27,8.69,6.53,1.12,0,2.9-.15,3.72-.83.1-.43-.21-.96-.54-1.53-1.79-2.6-4.32-4.68-6.82-6.74,0,0,.98-1.5.98-1.5h0Z"/>
        </g>
        <path class="cls-11" d="M101.77,329.14c-5.62-12.31-9.03-25.99-7.55-39.56,4.92-22.17,26.5-44.66,47.96-51.69,31.16-10.46,69.08,5.3,82.05,35.9,4.34,9.98,4.55,21.26,4.35,31.92-.14,5.32-.52,10.56-1.14,15.89l-4.65-.55c.95-10.16,1.42-20.68.4-30.83-.49-5.03-1.56-9.84-3.56-14.47-10.01-23.47-35.99-37.78-61.16-36.02-20.48.82-38.55,14-50.06,30.42-4.22,6.15-8.09,12.93-9.52,20.22-1.14,10.01.92,20.2,4.19,29.68.84,2.38,1.81,4.82,2.86,6.99l-4.18,2.11h0Z"/>
        <g>
          <path class="cls-18" d="M161.59,280.84s-7.84-21.87-35.28-20.4c-29.67,1.59-34.56,29.6-32.12,42.27,2.43,12.68,16.22,27.57,34.39,26.38,21.36-1.4,29.68-16.11,29.68-16.11"/>
          <path class="cls-11" d="M160.18,281.34c.36-.54.21-1.05-.02-1.44-1.46-2.94-3.41-5.65-5.75-7.95-7.3-7.44-17.92-10.14-28.07-9.65-17.29.69-28.73,12.68-30.52,29.66-2.36,14.98,7.86,29.42,21.95,33.99,13.96,4.24,31.01-1.58,39.19-13.7,0,0,2.61,1.48,2.61,1.48-2.22,3.59-5.03,6.4-8.32,8.92-6.43,4.94-14.42,7.55-22.44,8.19-16.56,1.28-32.51-11.14-36.34-27.12-3.08-15.87,3.73-34.51,18.92-41.59,7.43-3.45,15.79-4.19,23.81-3.12.38.03,1.13.15,1.5.25,2.49.49,4.94,1.25,7.29,2.2,6.47,2.9,11.97,7.73,15.72,13.7.79,1.28,1.54,2.57,2.16,3.95.2.48.43.87,1.15,1.23l-2.82,1.01h0Z"/>
        </g>
        <g>
          <path class="cls-18" d="M161.15,280.87s5.51-23.4,32.94-24.88c27.88-1.5,37.26,24.22,36.5,37.1s-12.23,30.1-30.41,31.3c-21.36,1.4-31.66-11.09-31.66-11.09"/>
          <path class="cls-11" d="M160.41,280.69c1.8-7.85,6.59-14.77,13.02-19.58,9.92-6.91,23.16-8.7,34.67-5.13,11.78,3.72,20.14,14.61,23.07,26.24,4.77,15.86-4.54,33.55-19.08,40.73-10.68,5.22-24.58,3.81-35.02-1.44-3.65-1.91-6.89-4.13-9.7-7.27,0,0,2.31-1.91,2.31-1.91,2.37,2.58,5.61,4.79,8.81,6.37,9.59,4.66,22.28,5.83,32.04,1.08,9.68-4.81,16.89-15.06,18.13-25.84.8-10.77-4.03-22.35-12.22-29.35-11.27-9.61-29.19-8.67-41.23-.94-6.09,4.15-10.88,10.41-13.33,17.37,0,0-1.47-.35-1.47-.35h0Z"/>
        </g>
        <g>
          <path class="cls-13" d="M153.69,316.58s4.72,3.64,6.15,5.85c1.43,2.21,4.34,7.62,4.34,7.62,0,0,1.5-6.35,3.88-9.14l4.76-5.58s-5.28-12.16-10.38-11.83-8.75,13.08-8.75,13.08Z"/>
          <path class="cls-11" d="M155.12,316.11c-.06-.25-.24-.52-.45-.67l.06.04c.19.15.58.44.77.6,2.13,1.75,4.02,3.26,5.66,5.67.77,1.3,1.45,2.56,2.12,3.86.67,1.29,1.3,2.59,1.92,3.9l-2.12.28c.27-3.52,1.15-6.98,3.31-9.9,1.64-1.98,3.36-3.83,5.3-5.53,0,0-.23,1.57-.23,1.57-1-2.4-2.23-4.84-3.71-6.98-1.9-2.72-4.95-6.32-7.8-2.56-2.42,2.96-3.79,6.82-4.78,10.5,0,0-.01.06-.02.07.08-.17.06-.63-.03-.84h0ZM152.27,317.05c-.22-.65.15-1.3.35-1.9,6.83-18.61,13.97-15.64,21.94.18-1.56,2.79-3.69,5.17-5.61,7.7-1.4,2.18-2.46,4.89-3.64,7.29,0,0-.51,2.89-.51,2.89-1.9-3.05-4.18-6.89-6.12-9.87-1.23-1.74-3.38-3.43-5.08-4.9-.45-.41-1.11-.77-1.32-1.38h0Z"/>
        </g>
        <g>
          <path class="cls-1" d="M154.52,263.68s-7.43-8.72-34.63-7.49c-27.2,1.22-36.49,4.3-36.49,4.3,0,0,12.84-5.81,16.57-6.91,3.73-1.1,9.72-2.14,9.72-2.14l-18.39-.48s12.49-3.78,33.95-4c18.42-.19,28.46,7.72,28.46,7.72l.8,9Z"/>
          <path class="cls-11" d="M155.1,265.06c-.5.2-1.37.03-1.76-.44,0,0-.08-.07-.08-.07l-.17-.15c-9.06-6.51-22.56-6.7-33.42-6.53-13.54.64-27.37.75-40.57,4.11,6.65-3.04,13.32-6.33,20.17-8.9,3.38-1.09,6.81-1.77,10.28-2.45,0,0,.12,1.64.12,1.64-5.03-.07-20.9-.31-25.7-.38,0,0,7.03-1.91,7.03-1.91,10.53-2.76,21.26-3.7,32.06-3.98,10.96-.33,22.33,1.68,31.44,8.22.63,3.4.75,7.39.59,10.86h0ZM153.94,262.29c-.69-2.66-1.13-4.77-1.08-7.54,0,0,.33.6.33.6-8.74-5.86-19.66-7.68-30.07-7.34-10.55.28-21.33,1.25-31.51,3.93,0,0-.27-2.02-.27-2.02l18.38.68s.12,1.64.12,1.64c-3.39.58-6.84,1.17-10.14,2.14-5.47,1.87-10.78,4.25-16.11,6.52,0,0-.33-.85-.33-.85,11.76-3.73,24.06-4.67,36.27-5.52,11.51-.52,26.33-.13,35.62,7.63,0,0,.25.25.25.25l.12.13c-.32-.39-1.17-.51-1.57-.23h0Z"/>
        </g>
        <g>
          <path class="cls-1" d="M163.4,254.34l.99,9s8.51-9.81,32.04-13.09c23.52-3.28,39.05.26,39.05.26,0,0-10.07-3.53-14.58-4.32s-14.45-1.37-14.45-1.37l17.79-2.71s-14.52-2.6-31.69-.24c-17.17,2.36-29.14,12.47-29.14,12.47Z"/>
          <path class="cls-11" d="M164.14,254.63l1.74,8.54-2.62-.82c13.14-13,36.1-15.01,53.73-14.54,6.24.28,12.48.92,18.53,2.5,0,0-.11.38-.11.38-7.06-2.24-14.16-4.39-21.62-4.54-2.46-.15-4.94-.26-7.4-.34l-.09-1.97,17.87-2.22v.98c-10.49-.95-21.14-.71-31.54.77-7.69,1.21-15.13,3.89-22,7.56-2.23,1.18-4.43,2.47-6.51,3.89,0,0-.05.03-.05.03,0,0,.03-.03.04-.05.03-.05.05-.11.05-.16h0ZM162.66,254.04c.13-.26.4-.47.61-.67,6.01-5.25,13.27-9.05,20.93-11.27,5.2-1.55,10.67-2.14,16.07-2.38,8.88-.4,17.82.35,26.48,2.42-.66.12-18.82,3.41-20.16,3.65,0,0-.09-1.97-.09-1.97,7.43.66,15,1.29,22.02,3.99,2.35.8,4.69,1.64,7.01,2.51l-.11.38c-3.06-.41-6.14-.65-9.22-.74-8.45-.36-16.92.18-25.3,1.22-11.23,1.45-22.58,4.1-32.05,10.46-1.14.78-2.4,1.75-3.34,2.68,0,0-2.62-.82-2.62-.82-.12-3.26-.17-6.43-.23-9.46h0Z"/>
        </g>
        <ellipse class="cls-11" cx="136.03" cy="296.35" rx="10.86" ry="11.19" transform="translate(-19.15 9.56) rotate(-3.76)"/>
        <ellipse class="cls-11" cx="185.75" cy="292.75" rx="10.86" ry="11.19" transform="translate(-18.8 12.81) rotate(-3.76)"/>
        <path class="cls-11" d="M102.09,375.94c-13.84-.5-33.48-16.67-41.71-27.42-8.79-12.88-8.29-37.29.25-50.23.8-1.19,1.81-1.93,2.74-3.13,2.32-3.73,5.85-2.38,8.56,0,3.02,2.56,5.49,5.31,7.98,8.11,7.38,8.39,14.17,17.44,19.19,27.47,3.35,6.64,6.12,13.76,6.87,21.21-1.4-3.45-2.94-6.77-4.54-10.06-6.23-13.22-14.55-25.29-24.36-36.11-2.89-3.12-5.8-6.79-9.46-8.89-.28-.14-.51-.17-.53-.17-.02.03.18-.08.06,0-.09.08-.31.36-.58.74-.63,1.02-1.95,2.02-2.64,3.17-6.37,10.3-6.21,29.61-1.95,40.77,1.23,3.28,3.21,5.97,5.57,8.52,2.4,2.69,4.88,5.32,7.53,7.77,5.31,4.89,11.1,9.31,17.44,12.81,3.17,1.77,6.31,3.52,9.57,5.46h0Z"/>
        <path class="cls-11" d="M234.33,335.11c3.28,2.82,6.47,5.57,9.46,8.74,0,0-1.69,1.73-1.69,1.73-1.55-1.3-3.26-2.54-4.96-3.74-1.71-1.2-3.46-2.38-5.2-3.52l2.39-3.21h0Z"/>
        <path class="cls-11" d="M251.76,353.43c13.62,22.14,17.62,49.88,8.86,74.69-1.17,2.92-2.13,5.85-4.36,8.28-.56.53-1.38.89-2.12.86-.43,0-.79-.1-1.18-.19-3.42-1.15-6.09-3.18-8.87-5.3-12.51-10.33-21.82-24.33-26.82-39.71-.94-3.2-1.65-6.27-1.94-9.66,0,0,3.21-.22,3.21-.22.16,1.37.48,2.93.85,4.39,4.07,16.56,19.44,39.19,34.78,46.01-.33,0-.79.12-1.08.37.07-.07.25-.34.35-.5,6.4-12.29,7.87-28.54,6.3-42.19-1.53-12.16-5.88-23.86-11.15-35.16l3.17-1.68h0Z"/>
        <path class="cls-11" d="M242.99,428.92c-10.74,16.58-26.88,29.56-45.66,35.87-38.56,13.28-84.5,4.89-102.97-34.95-7.3-17.31-7.62-36.74-3.04-54.69.37-1.22.74-2.4,1.37-3.72l3.61,1.72c-1.54,4.2-2.11,8.94-2.59,13.42-1.28,14.91.23,30.76,7.34,43.99,8.26,15.16,22.84,26.54,39.47,31.12,8.85,2.56,18.21,3.35,27.52,2.81,23.29-1.12,46.54-9.83,62.66-27.05,3.24-3.39,6.17-7.03,9.04-10.86l3.24,2.34h0Z"/>
        <path class="cls-11" d="M218.93,342.01c3.6,2.09,7.48,3.85,11.41,5.45-4.14-.97-8.24-2.09-12.28-3.65l.88-1.8h0Z"/>
        <ellipse class="cls-18" cx="133.72" cy="292.95" rx="3.12" ry="3.48" transform="translate(-18.93 9.4) rotate(-3.76)"/>
        <ellipse class="cls-18" cx="182.97" cy="289.5" rx="3.12" ry="3.48" transform="translate(-18.6 12.63) rotate(-3.76)"/>
        <path class="cls-8" d="M99.39,322.72s-3.69.27-4.23,4.37c-.54,4.1,2.72,12.56,2.79,13.64s.73,7,2.94,7.67,19.32,5.24,49.36,4.35c30.04-.89,47.89-5.59,47.89-5.59,0,0,1.9,12.35,10.51,23.71,8.61,11.36,23.08,25.32,23.08,25.32,0,0,8.03-5.68,11.08-8.86,3.04-3.18,3.96-5.68,3.96-5.68,0,0-7.82-3.55-14.15-9.1-6.33-5.55-12.49-16.8-12.49-16.8,0,0,9.82,5.05,12.93,7.01,3.11,1.96,10.78,3.09,10.78,3.09,0,0,2.22-3.4,4.31-8.69,2.09-5.29,3.64-10.54,3.64-10.54,0,0-11.86-3.02-16.5-3.52-4.64-.51-7.99-1.91-7.99-1.91,0,0,6.68-5.59,6.47-8.83-.21-3.24-1.13-4.81-.98-6.71s1.77-6.08.53-8.44-5.52-3.95-5.52-3.95c0,0-.25,6.83-1.53,7.99s-8.63,4.51-8.63,4.51c0,0-2.19-4.13-5.22-4.75-3.02-.61-12.98.58-14.71,3.14s-2,6.64-2,6.64c0,0-22.28,3.36-41.54,3.27-19.26-.09-34.89-2.86-38.13-2.64s-13.93-3.72-13.93-3.72l-2.73-4.97Z"/>
        <g id="Ebene_15_Kopie" data-name="Ebene 15 Kopie">
          <path class="cls-11" d="M98.35,327.01c8.34.14,16.32,2.43,24.58,3.23,8.16.95,16.37,1.54,24.58,1.51,3.07,0,9.23-.2,12.29-.4,10.84-.77,23.21-1.44,33.93-2.74.63-.09,2.07-.28,2.71-.43.02,0,.13-.03.06,0l1.03,2.82c-.25.09-.33.1-.54.16-8.07,1.67-16.34,2.21-24.53,2.99-5.99.5-12.65.99-18.69,1.22-10.39.28-21.02-.36-31.27-1.87-8.21-1.39-16.82-2.19-24.15-6.48h0Z"/>
          <path class="cls-11" d="M214.54,324.95c-.43-1.54-1.01-2.53-3.04-2.24-4.02.32-9.63,1.27-12.65,3.04-1.58,8.54.42,17.75,2.51,26.2,2.44,9.29,7.15,17.81,13.38,25.19,0,0,4.15,4.96,4.15,4.96,4.2,4.95,8.77,9.76,14.31,13.26,0,0-1.92,2.3-1.92,2.3-5.9-6.68-13.56-11.37-19.23-18.27-8.85-10.12-14.38-23.01-16.32-36.31-.89-5.87-1.52-12.08-.28-18.03.9-3.39,6.31-4.02,9.14-4.71,2.95-.45,5.67-1.05,8.75-.75,2.36.47,3.78,2.64,4.16,4.87,0,0-2.96.47-2.96.47h0Z"/>
          <path class="cls-11" d="M247.33,383.41c-20.07-9.06-32.98-27.44-36.02-49.08-.34-2.98-.42-6.03.27-9.01.75,2.93,1.38,5.77,2.03,8.61,3.55,17.6,12.41,32.4,27.51,42.38,2.38,1.6,4.92,3.11,7.41,4.33l-1.19,2.75h0Z"/>
          <path class="cls-25" d="M100.56,321.74s-5.65,1.65-6.36,5.54,3.24,10.35,3.39,12.58-.13,5.8,2.71,7.19c9.26,4.51,33.08,6.4,66.9,4.57,14.68-.79,30.14-4.22,30.14-4.22"/>
          <path class="cls-11" d="M230.38,318.67c-4.8,4.89-11.06,8.28-17.58,10.26,0,0-1.09-2.79-1.09-2.79,5.96-3.12,12.32-5.25,18.68-7.47h0Z"/>
          <path class="cls-25" d="M214.75,344.33c9.1-2.84,16.62-5.26,18.39-7.61,1.77-2.36-1.1-6.97-.91-8.91.19-1.93,1.69-8.44.56-10.92s-6.71-4.68-6.71-4.68"/>
          <path class="cls-25" d="M218.57,353.69c10.81,8.57,25.79,12.39,25.79,12.39"/>
          <path class="cls-25" d="M226.36,340.69c11.49,4.37,26.6,5.3,26.6,5.3"/>
          <path class="cls-11" d="M229.08,387.05c2.54,1.95,5.26,3.8,8.11,5.22,0,0-1.43,2.64-1.43,2.64-2.89-1.88-5.43-4.09-7.88-6.48,0,0,1.21-1.38,1.21-1.38h0Z"/>
          <path class="cls-11" d="M233.16,384.17c2.26,1.87,4.81,3.52,7.49,4.66,0,0-1.37,2.67-1.37,2.67-2.69-1.79-5-3.96-7.05-6.42,0,0,.93-.92.93-.92h0Z"/>
          <path class="cls-11" d="M236.26,382.57c2.59,1.45,5.31,2.73,8.02,3.94l-1.5,2.6c-2.46-1.82-4.85-3.66-7.13-5.68l.62-.86h0Z"/>
          <path class="cls-11" d="M237.92,359.38c2.94.8,6.04,1.65,9.04,1.97,0,0-.58,2.94-.58,2.94-3.12-1.13-5.87-2.7-8.72-4.29,0,0,.26-.62.26-.62h0Z"/>
          <path class="cls-11" d="M241.47,355.94c2.49.53,5.15,1.04,7.66.99,0,0-.2,2.99-.2,2.99-2.8-.61-5.28-1.74-7.82-2.95,0,0,.36-1.03.36-1.03h0Z"/>
          <path class="cls-11" d="M241.23,351.11c3.17.57,6.46,1.06,9.67,1.09,0,0-.1,3-.1,3-3.45-.39-6.72-1.25-10.02-2.22,0,0,.46-1.87.46-1.87h0Z"/>
          <polygon class="cls-11" points="241.44 347.34 251.83 348.26 251.46 351.24 241.16 349.63 241.44 347.34 241.44 347.34"/>
          <polygon class="cls-11" points="239.18 379.41 247.07 384.12 245.32 386.55 238.35 380.55 239.18 379.41 239.18 379.41"/>
          <path class="cls-11" d="M195.54,337.96c-13.65,2.3-27.64,4.02-41.48,2.97,3.47-.08,6.92-.36,10.36-.66,6.88-.6,13.73-1.5,20.56-2.57,3.41-.54,6.81-1.12,10.21-1.72l.35,1.97h0Z"/>
          <path class="cls-11" d="M211.7,332.62c3.02-.66,6.04-1.48,8.96-2.64-2.61,1.75-5.43,3.22-8.33,4.54l-.63-1.9h0Z"/>
          <path class="cls-11" d="M97.02,336.11c4.11,3.39,9.41,5.42,14.54,6.91-2.72-.4-5.41-1.03-8.06-1.84-2.64-.84-5.26-1.88-7.69-3.47l1.21-1.59h0Z"/>
          <path class="cls-11" d="M206.32,322.69c-2.91,6.61-3.06,14.07-2.34,21.18-.59-1.75-.98-3.56-1.25-5.39-.77-5.56-.46-11.38,1.76-16.6,0,0,1.83.82,1.83.82h0Z"/>
        </g>
      </g>
      <g>
        <path class="cls-16" d="M47.26,427.74L109.18,92.75l10.15,1.52-60.91,336s-5.58,2.54-11.17-2.54Z"/>
        <path class="cls-11" d="M46.31,428.06c13.79-77.3,31.42-174.79,45.69-251.66,5.27-28.29,10.67-56.59,16.39-84.79,1.31.24,10.81,1.63,12.11,1.83-1.49,12.53-5.03,30.47-7.29,43.11-16.54,90.9-36.79,202.94-53.59,293.95,0,0-.12.64-.12.64-4.5,2.06-10.02.58-13.19-3.07h0ZM48.2,427.42c.73.28,1.31.82,2.01,1.16,2.27,1.31,5.32,1.55,7.71.59,0,0-.69.89-.69.89l15.02-84.04c12.53-69.32,29.3-162.03,41.77-231.02,1.25-7,2.56-14,4.33-20.91l.84,1.17s-10.15-1.52-10.15-1.52l1.13-.81c-4.67,27.95-9.66,55.8-14.77,83.66-14.1,76.59-32.49,174.02-47.19,250.82h0Z"/>
      </g>
      <g>
        <path class="cls-6" d="M205.05,122s-61.26-14.8-96.24-20.92c-41.84-7.32-94.15-16.74-94.15-16.74l-9.41,38.7s15.45,3.6,39.38,8.44c-18-2.97-31.63-5.18-31.63-5.18l-10.95,45.39s34.14,7.87,84.03,17.12c56.9,10.55,99.71,17.81,99.71,17.81l8.87-45.93s-27.64-6.46-56.23-12.43c35.4,5.74,60.34,9.3,60.34,9.3l6.28-35.57Z"/>
        <path class="cls-11" d="M204.19,122.56c-.14.15-.03.3-.12.26l-.74-.18-1.47-.35c-5.2-1.23-15.33-3.59-20.67-4.82-23.63-5.38-47.33-10.7-71.17-14.99,0,0-95.59-16.85-95.59-16.85l1.51-.98s-9.05,38.79-9.05,38.79c0,0-1.26-2.04-1.26-2.04,13.36,1.73,26.3,5.67,39,10.08,0,0-31.86-3.72-31.86-3.72l1.68-1.11-10.75,45.43s-1.26-2.04-1.26-2.04c30.38,6.81,60.95,12.95,91.6,18.47,0,0,92.04,16.44,92.04,16.44l-1.94,1.34s8.86-45.93,8.87-45.93c0,0,1.27,1.96,1.27,1.96l-55.84-14.07c5.15-.12,10.27.21,15.34.68,15.03,1.63,30.42,3.9,45.24,6.95,0,0-1.9,1.38-1.9,1.38,2.23-11.43,4.67-22.92,7.08-34.71h0ZM205.9,121.44c-1.84,12.4-3.67,25.21-5.72,37.96l-1.66-.16c-15.05-1.56-30.44-4.03-45.28-7.01-4.98-1.08-9.94-2.29-14.83-3.96,0,0,56.61,10.79,56.61,10.79,0,0,1.58.3,1.58.3,0,0-.31,1.66-.31,1.66,0,0-8.86,45.93-8.86,45.93l-.32,1.63-1.62-.29c-54.32-9.89-130.8-22.61-183.84-34.96,0,0-1.67-.38-1.67-.38l.41-1.66s11.15-45.34,11.15-45.34c0,0,.34-1.39.34-1.39,0,0,1.34.27,1.34.27l31.39,6.64c-3.38-.21-6.73-.59-10.08-1-10.57-1.44-21.23-2.9-31.37-6.36,0,0,.43-1.48.43-1.49,0,0,9.78-38.61,9.78-38.61l.3-1.2c34.29,6.46,111.44,19.2,144.31,27.19,11.45,2.52,24.01,5.48,35.48,8.17,1.46.37,7.32,1.72,8.85,2.11,0,0,1.48.36,1.48.36l.74.18c.4.08,1,.34,1.35.61h0Z"/>
      </g>
      <g>
        <path class="cls-15" d="M66,301.51s2.5,9.75,9.16,17.74c6.66,7.99,14.92,10.39,15.18,15.45.27,5.06-16.45,13.66-28.74,11.06-7.16-1.51-10.99-12.64-10.72-20.89.58-17.34,9.17-26.73,12.37-28.86,3.2-2.13,7.38.06,7.38.06"/>
        <path class="cls-11" d="M66,301.51c4.66,7.25,7.92,15.25,14.73,20.73,2.14,1.83,4.49,3.42,6.9,5.29,1.87,1.45,4.23,3.58,4.64,6.31.75,4.76-4.52,7.84-7.98,9.87-7.05,3.68-15.21,5.77-23.16,4.26-4.93-1.04-8.44-5.79-10.12-10-4.69-11.24-2.14-25.44,3.99-35.71,2.66-3.96,6.03-9.16,11.36-9.24,1.91.03,3.46.43,5.19,1.28,0,0-1.86,3.54-1.86,3.54-1.35-.6-3.27-1.01-4.67-.4-2.71,1.55-4.63,4.44-6.29,7.07-3.52,5.91-5.22,12.92-5.52,19.82-.23,6.24,1.47,13.88,6.31,17.98,0,0,.69.49.69.49l.73.36c.23.15.5.16.75.26.2.08.64.18.86.21,6.67,1.12,13.69-.62,19.75-3.67,2.19-1.22,5.21-2.87,6-5.16-.2-1.83-1.62-2.92-3.13-4.24-2.16-1.76-4.62-3.51-6.87-5.54-6.62-6.01-12.16-14.34-12.3-23.53h0Z"/>
      </g>
      <g class="cls-22">
        <line class="cls-5" x1="12.79" y1="92.82" x2="43.6" y2="98.61"/>
        <polygon class="cls-11" points="12.88 92.33 43.6 98.61 12.7 93.31 12.88 92.33 12.88 92.33"/>
      </g>
      <g class="cls-22">
        <line class="cls-5" x1="6.73" y1="156.81" x2="67.04" y2="168.92"/>
        <polygon class="cls-11" points="6.83 156.32 67.04 168.92 6.63 157.3 6.83 156.32 6.83 156.32"/>
      </g>
      <g class="cls-22">
        <line class="cls-5" x1="146.56" y1="183.41" x2="188.17" y2="191.31"/>
        <polygon class="cls-11" points="146.56 183.41 188.26 190.82 188.08 191.8 146.56 183.41 146.56 183.41"/>
      </g>
      <g class="cls-22">
        <line class="cls-5" x1="191.86" y1="171.03" x2="178.69" y2="167.87"/>
        <polygon class="cls-11" points="191.74 171.52 178.69 167.87 191.97 170.54 191.74 171.52 191.74 171.52"/>
      </g>
      <g class="cls-22">
        <line class="cls-5" x1="202.65" y1="136.8" x2="151.04" y2="127.58"/>
        <polygon class="cls-11" points="202.57 137.29 151.04 127.58 202.74 136.3 202.57 137.29 202.57 137.29"/>
      </g>
      <g class="cls-22">
        <line class="cls-4" x1="87.83" y1="109.91" x2="131.97" y2="117.91"/>
        <path class="cls-11" d="M87.83,109.91c14.8,1.99,29.59,4.67,44.14,8-14.8-1.99-29.59-4.67-44.14-8h0Z"/>
      </g>
      <g>
        <ellipse class="cls-4" cx="110.22" cy="113.71" rx="3.09" ry="3.42"/>
        <path class="cls-11" d="M114.2,113.71c.17,5.87-7.87,5.81-7.73,0,.39-5.22,7.33-5.22,7.73,0h0ZM112.41,113.71c.17-3.85-4.78-3.82-4.65,0,.34,3.25,4.26,3.16,4.65,0h0Z"/>
      </g>
      <g>
        <ellipse class="cls-4" cx="98.58" cy="180.45" rx="3.09" ry="3.42"/>
        <path class="cls-11" d="M102.57,180.45c.17,5.87-7.87,5.81-7.73,0,.39-5.22,7.33-5.22,7.73,0h0ZM100.78,180.45c.17-3.85-4.78-3.82-4.65,0,.34,3.25,4.26,3.16,4.65,0h0Z"/>
      </g>
      <g class="cls-22">
        <path class="cls-5" d="M29.08,140.64s78.15,15.41,92.85,18.28c14.7,2.87,34.06,6.45,34.06,6.45"/>
        <path class="cls-11" d="M29.08,140.64c42.37,6.91,84.97,15.49,126.9,24.74-42.6-6.57-84.89-15.11-126.9-24.74h0Z"/>
      </g>
      <g class="cls-21">
        <line class="cls-4" x1="101.67" y1="180.45" x2="131.46" y2="185.49"/>
        <polygon class="cls-11" points="101.84 179.47 131.46 185.49 101.51 181.44 101.84 179.47 101.84 179.47"/>
      </g>
      <g class="cls-20">
        <path class="cls-18" d="M32.81,96.18c.15-.07.36-.08.64-.02.21.04.45.12.73.25.72.32,1.37.62,1.95.93.58.3,1.1.66,1.57,1.08.27.24.47.52.6.83.13.31.21.62.24.93.03.31.02.63-.02.95-.04.32-.1.61-.17.88-.14.52-.32,1.3-.53,2.32-.21,1.03-.45,2.17-.71,3.43-.26,1.26-.53,2.57-.81,3.93s-.55,2.65-.8,3.88l2.52-3.73,2.65-3.91,2.4-3.4c.73-1.03,1.31-1.77,1.74-2.24.33-.41.65-.65.96-.71.14-.02.31-.01.51.03.22.04.48.13.77.27.55.25,1,.48,1.36.7.36.22.77.5,1.26.84.28.18.48.35.6.51.12.16.21.32.25.5.04.18.04.38,0,.6-.04.23-.09.5-.15.81-.07.35-.23.94-.46,1.77l-.84,2.91-1,3.53-1.02,3.67,2.11-2.86,2.23-3.02,2.21-2.99,2.02-2.74,1.71-2.32,1.23-1.66c.43-.58.8-.87,1.12-.88.07,0,.14.01.22.03.29.06.67.25,1.14.56.41.31.82.66,1.21,1.03.39.37.76.77,1.11,1.21.36.52.49,1.02.39,1.5-.1.49-.35,1-.74,1.51l-2.24,2.95-2.6,3.43-2.74,3.61-2.71,3.56-2.46,3.23-1.99,2.62c-.28.35-.6.54-.97.57-.18.02-.39,0-.64-.05s-.53-.14-.85-.25c-.35-.14-.66-.27-.91-.39l-.7-.36c-.23-.11-.45-.22-.66-.34s-.46-.24-.73-.35c-.53-.33-.88-.69-1.05-1.1-.17-.4-.25-.83-.24-1.27l.1-1.61c.03-.63.07-1.31.14-2.05.07-.74.15-1.5.24-2.26.09-.77.2-1.51.35-2.23l-2.03,2.52-1.97,2.53-1.73,2.3-1.28,1.76c-.32.36-.63.55-.92.56-.16,0-.34,0-.55-.05-.17-.04-.36-.09-.57-.17-.61-.23-1.2-.49-1.75-.76-.55-.28-1.07-.55-1.56-.82-.45-.27-.75-.56-.91-.88-.16-.32-.21-.77-.15-1.34.01-.87.07-1.86.16-2.97.09-1.12.21-2.31.36-3.57.16-1.33.35-2.73.55-4.18.21-1.45.42-2.9.66-4.34.23-1.44.48-2.84.74-4.2.26-1.36.51-2.63.75-3.8.16-.66.37-1.05.64-1.18Z"/>
        <path class="cls-18" d="M64.19,104.37c.93-.05,1.96-.09,3.08-.12,1.13-.03,2.3,0,3.51.06,1.22.07,2.46.14,3.73.21,1.27.07,2.53.22,3.77.43.03,0,.06.01.08.02,1.13.23,1.76.84,1.9,1.82.16.56.24,1.06.27,1.48s.03.88.03,1.38c0,.19-.03.36-.06.5-.06.29-.16.48-.29.58-.21.16-.62.22-1.22.18l-3.9-.33c-1.34-.13-2.76-.25-4.25-.36-.5.86-.99,1.75-1.46,2.69s-.99,1.92-1.54,2.94c.63.04,1.26.1,1.88.19s1.29.19,1.99.32c.08.02.16.03.24.05.46.09.82.21,1.08.38.29.2.51.52.66.98.16.46.27.9.33,1.33s.09.85.1,1.28c.04.28.04.5,0,.67-.03.14-.08.24-.15.3-.18.14-.56.21-1.15.21-1.28-.03-2.57-.08-3.89-.14-1.32-.06-2.6-.09-3.85-.08l-.85,1.76c-.27.55-.54,1.09-.82,1.63,1,.04,1.94.1,2.84.17.9.08,1.87.19,2.9.34.14.02.28.04.41.07.38.09.68.2.9.34.29.18.51.48.66.9.17.46.28.88.34,1.27.06.38.13.78.22,1.18.01.43-.05.71-.18.85-.14.13-.49.19-1.06.18l-4.15-.06-4.03-.07c-.56.03-1.02,0-1.38-.07-.2-.04-.37-.1-.51-.17-.4-.21-.73-.44-1-.71-.29-.3-.57-.6-.84-.9-.27-.3-.58-.68-.94-1.14-.29-.35-.49-.74-.6-1.17-.09-.36-.09-.76,0-1.19,0-.08.03-.17.06-.27l7.17-19.91Z"/>
        <path class="cls-18" d="M91.12,108.24c.15-.07.36-.08.64-.02.21.04.46.12.73.25.72.32,1.37.62,1.95.93.58.3,1.1.66,1.57,1.08.27.24.47.52.6.83.13.31.21.62.24.93.03.31.02.63-.02.95-.04.32-.1.61-.17.88-.14.52-.32,1.3-.53,2.32s-.45,2.17-.71,3.43-.53,2.57-.81,3.93c-.28,1.36-.55,2.65-.8,3.88l2.52-3.73,2.64-3.91,2.4-3.4c.73-1.03,1.31-1.77,1.74-2.24.33-.41.65-.65.96-.71.15-.02.31-.01.51.03.22.04.48.13.77.27.55.25,1,.48,1.36.7.36.22.78.5,1.26.84.28.18.48.35.6.51.12.16.21.32.25.5.04.18.04.38,0,.6-.04.23-.09.5-.15.81-.07.35-.23.94-.46,1.77l-.84,2.91-1,3.53-1.02,3.67,2.11-2.86,2.23-3.02,2.21-3,2.02-2.74,1.71-2.32,1.23-1.66c.43-.58.8-.87,1.12-.88.07,0,.15.01.22.03.29.06.67.25,1.14.56.41.31.82.66,1.21,1.03.39.37.76.77,1.11,1.21.36.52.49,1.02.39,1.5-.1.49-.35,1-.74,1.51l-2.24,2.95-2.6,3.43-2.74,3.61-2.71,3.56-2.46,3.23-1.99,2.62c-.28.35-.6.54-.97.57-.18.01-.39,0-.64-.05-.25-.05-.53-.14-.85-.25-.35-.14-.66-.27-.91-.39l-.7-.36c-.23-.11-.45-.22-.66-.34s-.46-.24-.73-.35c-.53-.33-.88-.69-1.05-1.1-.17-.4-.25-.83-.24-1.27l.1-1.61c.03-.63.07-1.31.14-2.05.07-.74.15-1.5.24-2.26.09-.77.2-1.51.35-2.23l-2.02,2.52-1.97,2.53-1.73,2.3-1.28,1.76c-.32.36-.63.55-.92.56-.16,0-.34,0-.55-.05-.17-.04-.36-.09-.57-.17-.61-.23-1.2-.49-1.75-.76-.55-.28-1.07-.55-1.56-.81-.45-.27-.75-.56-.91-.88-.16-.32-.21-.77-.15-1.34.01-.87.07-1.86.16-2.97.09-1.12.21-2.31.36-3.57.16-1.33.35-2.73.55-4.18.21-1.45.42-2.9.66-4.34.23-1.44.48-2.84.74-4.2.26-1.36.51-2.63.75-3.8.16-.66.37-1.05.64-1.18Z"/>
        <path class="cls-18" d="M114.06,138.14c.05-.25.17-.57.37-.94.78-1.31,1.77-2.84,2.95-4.59l3.86-5.33,3.96-5.48c1.38-1.77,2.68-3.33,3.88-4.69.43-.48.94-.85,1.51-1.09.46-.21,1.06-.23,1.79-.08.17.04.35.08.53.14.86.22,1.61.45,2.27.68s1.25.47,1.79.71c.54.24,1.04.48,1.52.73.48.25.96.49,1.46.72.65.37,1.02.75,1.12,1.15.07.3.07.65-.01,1.04-.03.15-.07.3-.12.44-.42,1.42-.86,3.07-1.34,4.94-.47,1.87-.94,3.83-1.41,5.87s-.92,4.09-1.36,6.15c-.14.69-.28,1.36-.42,2.01-.27,1.31-.52,2.55-.75,3.72-.08.37-.22.61-.42.72s-.59.1-1.18-.02-1.12-.25-1.62-.39c-.49-.14-.98-.34-1.47-.61-.51-.25-.85-.51-1.02-.78-.17-.27-.24-.7-.21-1.29.02-.62.08-1.29.16-2.01.08-.72.17-1.51.28-2.36l-4.66-.3c-1.54-.1-2.92-.11-4.14-.04-.57.72-1.08,1.4-1.53,2.03l-1.37,1.81c-.23.32-.47.48-.73.49-.07,0-.15-.02-.23-.03-.23-.05-.5-.17-.83-.36l-.84-.53c-.28-.21-.57-.42-.87-.65l-.56-.54c-.17-.16-.28-.33-.35-.51-.07-.2-.08-.45-.02-.73ZM128.14,132.23c.96.09,1.91.2,2.86.33.3-1.69.61-3.37.93-5.05.12-.56.23-1.12.34-1.66.22-1.1.45-2.2.71-3.28l-3.68,4.4-4.03,5.05c.95.05,1.9.12,2.86.21Z"/>
        <path class="cls-18" d="M137.48,139.77c.3-1.01.67-2.14,1.09-3.41.42-1.27.89-2.62,1.39-4.07s1.02-2.88,1.55-4.31c.53-1.43,1.06-2.81,1.57-4.13.52-1.33,1-2.5,1.45-3.51.27-.59.6-.92,1-1,.19-.03.41-.02.65.03.25.05.53.15.85.3l2.08,1.13c.66.37,1.35.82,2.05,1.35.58.4.97.83,1.15,1.29s.25,1.08.21,1.89l-.06,2.35-.07,3.11-.04,3.45v3.41c.96-2.59,2.03-5.12,3.2-7.58,1.17-2.46,2.25-4.74,3.24-6.83.28-.57.61-.89.98-.96.17-.04.38-.03.61.01.26.05.56.16.89.33l.78.38c.23.11.45.24.66.39s.44.33.68.52c.24.2.51.45.81.75.51.49.77.94.76,1.33,0,.11-.02.24-.04.37-.06.3-.19.62-.37.97-.74,1.43-1.54,3.06-2.41,4.91l-2.72,5.55-2.7,5.5-2.31,4.72c-.21.57-.65.79-1.31.65-.21-.04-.44-.12-.7-.24-.9-.38-1.8-.84-2.71-1.39-.83-.54-1.34-1.28-1.52-2.24-.16-.69-.3-1.48-.42-2.39-.12-.9-.24-1.87-.35-2.9l-.29-3.23c-.09-1.12-.16-2.24-.21-3.36l-1.48,3.67-1.43,3.5-1.25,3.1c-.38.95-.7,1.79-.96,2.51-.15.33-.33.53-.53.58-.08.02-.18,0-.31-.02-.2-.03-.45-.12-.75-.28l-1.4-.7c-.47-.23-.92-.54-1.33-.93-.42-.32-.67-.64-.75-.97-.07-.26-.07-.59.01-.97.02-.1.05-.2.08-.31.15-.54.38-1.32.68-2.32Z"/>
        <path class="cls-18" d="M164.49,124.69c1.26,0,2.67.07,4.24.18,1.57.11,3.17.25,4.79.41,1.63.16,3.22.35,4.76.55,1.55.2,2.93.41,4.15.62.63.13,1.07.28,1.33.45.26.17.46.41.6.72.31.56.55,1.14.7,1.75.16.61.25,1.2.28,1.75,0,.26,0,.47-.04.63-.03.16-.08.27-.15.34-.15.15-.55.17-1.19.08l-2.67-.27-2.98-.32-2.44,5.08-2.47,5.2-2.25,5.07c-.75,1.63-1.43,3.17-2.04,4.6-.11.28-.25.45-.42.51-.16.05-.35.05-.58,0-.02,0-.04,0-.07-.02-.26-.06-.55-.18-.88-.35l-1.1-.59c-.41-.21-.77-.42-1.09-.64-.32-.22-.58-.45-.77-.7-.19-.25-.31-.52-.35-.82-.03-.17-.02-.35.02-.54.03-.15.08-.3.16-.47.26-.97.63-2.15,1.12-3.55.48-1.4,1.01-2.87,1.6-4.41.58-1.54,1.21-3.09,1.87-4.66.66-1.56,1.27-3.01,1.83-4.35-.61-.02-1.2-.06-1.77-.1-.57-.04-1.05-.06-1.44-.03-.3,0-.57,0-.8-.06-.18-.03-.34-.08-.47-.14-.3-.17-.61-.51-.93-1.02-.34-.52-.62-1.14-.85-1.87-.23-.73-.41-1.34-.54-1.84-.09-.35-.12-.62-.09-.79.02-.08.05-.14.1-.18.15-.12.43-.2.84-.23Z"/>
        <path class="cls-18" d="M53.5,134.33c.85.11,1.66.22,2.43.34.14.03.28.06.41.08.63.13,1.26.34,1.9.64.76.35,1.28.77,1.56,1.25.27.49.54,1.21.79,2.16.26,1.74.5,3.72.7,5.93l.82,6.97,5.73-6.19,5.71-6.51c.39-.62.85-.89,1.4-.82.05.01.11.02.18.04.49.09.98.32,1.47.71.55.44,1.08.98,1.57,1.61.5.63.92,1.19,1.27,1.69.17.35.3.66.38.94.1.32.12.63.05.93-.06.23-.17.48-.32.73-.17.29-.39.64-.66,1.03-.67.92-1.61,2.03-2.82,3.35l-4.03,4.25-4.69,4.64-4.78,4.57c-.82,1.7-1.55,3.29-2.2,4.77l-1.85,4.29c-.26.51-.51.79-.77.84-.1.03-.24.03-.41,0-.26-.07-.59-.19-.99-.37-.61-.29-1.24-.62-1.88-.99-.65-.37-1.24-.74-1.78-1.1-.52-.5-.84-.96-.95-1.36-.09-.31-.08-.7.02-1.18.03-.14.07-.29.11-.45.42-1.12.87-2.41,1.35-3.89.48-1.48,1.07-3.11,1.78-4.89l-.74-5.49-.78-5.83-.76-5.69-.7-5.19c-.1-.52-.12-.92-.06-1.2.03-.14.08-.25.15-.32.2-.22.65-.32,1.38-.31Z"/>
        <path class="cls-18" d="M75.98,155.69c.74-1.71,1.65-3.34,2.73-4.88s2.3-2.96,3.67-4.25c1.37-1.29,2.88-2.4,4.52-3.32,1.09-.53,2.33-.84,3.7-.96.93-.07,1.8-.02,2.61.15.41.08.81.2,1.19.35,1.49.55,2.88,1.23,4.18,2.03,1.29.8,2.33,1.66,3.11,2.57.86,1.05,1.44,2.09,1.72,3.11.29,1.02.42,2.14.38,3.37-.08,1.31-.26,2.67-.55,4.07-.16.77-.35,1.56-.57,2.36-.64,2.26-1.5,4.46-2.61,6.59-1.11,2.14-2.42,4.1-3.94,5.89-1.52,1.79-3.22,3.21-5.11,4.27-1.26.6-2.51.92-3.77.96-.8.01-1.66-.08-2.56-.26-.51-.11-1.04-.24-1.57-.41-1-.32-2.01-.7-3.03-1.15-1.02-.45-1.93-1-2.72-1.64-.65-.53-1.27-1.16-1.84-1.9-.57-.73-.98-1.52-1.24-2.35-.39-1.36-.58-2.86-.59-4.49,0-1.5.18-3.04.5-4.61.03-.13.05-.26.08-.39.38-1.71.94-3.42,1.69-5.13ZM81.93,170.29c.16.91.52,1.51,1.1,1.83.16.09.33.15.5.18.41.08.86.02,1.35-.19.7-.29,1.46-.82,2.26-1.58.8-.76,1.61-1.74,2.43-2.92.82-1.18,1.59-2.5,2.32-3.95.6-1.19,1.17-2.52,1.7-3.99.53-1.47.93-2.87,1.2-4.18.28-1.34.38-2.51.33-3.52-.06-1.01-.34-1.65-.85-1.92-.11-.06-.23-.11-.36-.14-.47-.1-1.03.05-1.67.45-.83.51-1.72,1.26-2.65,2.24-.94.98-1.85,2.1-2.74,3.36-.89,1.26-1.66,2.49-2.3,3.69-.64,1.19-1.18,2.45-1.62,3.76-.33.99-.58,1.94-.77,2.85-.06.3-.12.6-.16.89-.19,1.18-.21,2.22-.05,3.13Z"/>
        <path class="cls-18" d="M103.14,163.42c.58-1.7,1.22-3.41,1.94-5.13.72-1.72,1.49-3.44,2.32-5.15.83-1.71,1.65-3.39,2.45-5.04.4-.74.85-1.14,1.35-1.2.19-.01.39,0,.61.04.37.08.8.27,1.3.58.73.4,1.42.86,2.06,1.38.64.52,1.25,1.11,1.82,1.76.91,1.02,1.25,2.1,1.01,3.24-.07.35-.2.72-.39,1.09l-2.18,4.29c-.78,1.54-1.57,3.09-2.36,4.64-.79,1.56-1.45,3.11-1.97,4.65-.53,1.54-.94,2.94-1.25,4.19-.07.31-.14.61-.2.9-.19.86-.28,1.62-.25,2.29.02.88.31,1.46.87,1.74.13.05.25.09.39.12.59.12,1.25-.12,1.98-.74.88-.73,1.79-1.82,2.75-3.26.96-1.44,1.94-3.13,2.95-5.08,1-1.94,1.98-3.96,2.92-6.05.94-2.09,1.84-4.15,2.68-6.19l2.25-5.46c.22-.79.61-1.21,1.18-1.25.25-.03.52-.02.81.04.37.08.75.22,1.14.42.72.35,1.47.84,2.26,1.47.79.63,1.49,1.23,2.12,1.81.32.31.56.59.72.83.16.25.26.48.29.71.03.17.03.35,0,.53-.05.24-.18.59-.41,1.06-1.59,3.67-3.13,7.03-4.61,10.06-1.48,3.03-2.94,5.69-4.36,7.97-1.43,2.28-2.85,4.14-4.27,5.58-1.42,1.44-2.86,2.4-4.32,2.88-1.03.28-2.03.41-3.01.38-.67-.02-1.39-.1-2.16-.26-.35-.07-.72-.16-1.09-.27-2.4-.66-4.32-1.59-5.75-2.79-.61-.52-1.17-1.1-1.67-1.74-.5-.64-.9-1.38-1.19-2.21-.39-1.06-.58-2.27-.57-3.62,0-1.35.17-2.81.49-4.37.32-1.56.77-3.19,1.35-4.89Z"/>
        <path class="cls-18" d="M127.99,181.09c.37-.49.83-.87,1.39-1.14.56-.26,1.19-.37,1.89-.32.7.05,1.46.28,2.27.7.68.35,1.2.77,1.57,1.27.37.5.61,1,.73,1.51.12.51.14,1,.06,1.47-.08.47-.21.87-.39,1.21-.14.26-.36.54-.66.86s-.66.6-1.05.84c-.4.24-.86.42-1.37.54s-1.07.13-1.66,0c-1.26-.23-2.26-.82-2.99-1.77-.73-.95-.92-2.12-.58-3.51.16-.61.42-1.16.78-1.65ZM132.93,169.56c.83-2.03,1.72-4.11,2.66-6.23l2.86-6.29c.95-2.07,1.83-3.92,2.64-5.54.39-.78.82-1.22,1.27-1.33.45-.1,1.08.08,1.88.56.76.37,1.57.86,2.44,1.47s1.61,1.22,2.2,1.85c.62.65.96,1.24,1.02,1.78.07.54-.09,1.15-.48,1.82l-3.33,5.69-3.23,5.71c-1.06,1.89-2.04,3.71-2.94,5.46-.9,1.75-1.72,3.39-2.46,4.92-.25.54-.53.84-.84.91-.31.07-.76-.04-1.35-.32-.72-.29-1.37-.59-1.96-.92s-1.15-.7-1.67-1.12c-.55-.46-.88-.9-1.01-1.33-.12-.43-.04-1.02.25-1.76.53-1.52,1.21-3.29,2.04-5.32Z"/>
      </g>
      <g class="cls-23">
        <path class="cls-18" d="M32.81,96.18c.15-.07.36-.08.64-.02.21.04.45.12.73.25.72.32,1.37.62,1.95.93.58.3,1.1.66,1.57,1.08.27.24.47.52.6.83.13.31.21.62.24.93.03.31.02.63-.02.95-.04.32-.1.61-.17.88-.14.52-.32,1.3-.53,2.32-.21,1.03-.45,2.17-.71,3.43-.26,1.26-.53,2.57-.81,3.93s-.55,2.65-.8,3.88l2.52-3.73,2.65-3.91,2.4-3.4c.73-1.03,1.31-1.77,1.74-2.24.33-.41.65-.65.96-.71.14-.02.31-.01.51.03.22.04.48.13.77.27.55.25,1,.48,1.36.7.36.22.77.5,1.26.84.28.18.48.35.6.51.12.16.21.32.25.5.04.18.04.38,0,.6-.04.23-.09.5-.15.81-.07.35-.23.94-.46,1.77l-.84,2.91-1,3.53-1.02,3.67,2.11-2.86,2.23-3.02,2.21-2.99,2.02-2.74,1.71-2.32,1.23-1.66c.43-.58.8-.87,1.12-.88.07,0,.14.01.22.03.29.06.67.25,1.14.56.41.31.82.66,1.21,1.03.39.37.76.77,1.11,1.21.36.52.49,1.02.39,1.5-.1.49-.35,1-.74,1.51l-2.24,2.95-2.6,3.43-2.74,3.61-2.71,3.56-2.46,3.23-1.99,2.62c-.28.35-.6.54-.97.57-.18.02-.39,0-.64-.05s-.53-.14-.85-.25c-.35-.14-.66-.27-.91-.39l-.7-.36c-.23-.11-.45-.22-.66-.34s-.46-.24-.73-.35c-.53-.33-.88-.69-1.05-1.1-.17-.4-.25-.83-.24-1.27l.1-1.61c.03-.63.07-1.31.14-2.05.07-.74.15-1.5.24-2.26.09-.77.2-1.51.35-2.23l-2.03,2.52-1.97,2.53-1.73,2.3-1.28,1.76c-.32.36-.63.55-.92.56-.16,0-.34,0-.55-.05-.17-.04-.36-.09-.57-.17-.61-.23-1.2-.49-1.75-.76-.55-.28-1.07-.55-1.56-.82-.45-.27-.75-.56-.91-.88-.16-.32-.21-.77-.15-1.34.01-.87.07-1.86.16-2.97.09-1.12.21-2.31.36-3.57.16-1.33.35-2.73.55-4.18.21-1.45.42-2.9.66-4.34.23-1.44.48-2.84.74-4.2.26-1.36.51-2.63.75-3.8.16-.66.37-1.05.64-1.18Z"/>
        <path class="cls-18" d="M64.19,104.37c.93-.05,1.96-.09,3.08-.12,1.13-.03,2.3,0,3.51.06,1.22.07,2.46.14,3.73.21,1.27.07,2.53.22,3.77.43.03,0,.06.01.08.02,1.13.23,1.76.84,1.9,1.82.16.56.24,1.06.27,1.48s.03.88.03,1.38c0,.19-.03.36-.06.5-.06.29-.16.48-.29.58-.21.16-.62.22-1.22.18l-3.9-.33c-1.34-.13-2.76-.25-4.25-.36-.5.86-.99,1.75-1.46,2.69s-.99,1.92-1.54,2.94c.63.04,1.26.1,1.88.19s1.29.19,1.99.32c.08.02.16.03.24.05.46.09.82.21,1.08.38.29.2.51.52.66.98.16.46.27.9.33,1.33s.09.85.1,1.28c.04.28.04.5,0,.67-.03.14-.08.24-.15.3-.18.14-.56.21-1.15.21-1.28-.03-2.57-.08-3.89-.14-1.32-.06-2.6-.09-3.85-.08l-.85,1.76c-.27.55-.54,1.09-.82,1.63,1,.04,1.94.1,2.84.17.9.08,1.87.19,2.9.34.14.02.28.04.41.07.38.09.68.2.9.34.29.18.51.48.66.9.17.46.28.88.34,1.27.06.38.13.78.22,1.18.01.43-.05.71-.18.85-.14.13-.49.19-1.06.18l-4.15-.06-4.03-.07c-.56.03-1.02,0-1.38-.07-.2-.04-.37-.1-.51-.17-.4-.21-.73-.44-1-.71-.29-.3-.57-.6-.84-.9-.27-.3-.58-.68-.94-1.14-.29-.35-.49-.74-.6-1.17-.09-.36-.09-.76,0-1.19,0-.08.03-.17.06-.27l7.17-19.91Z"/>
        <path class="cls-18" d="M91.12,108.24c.15-.07.36-.08.64-.02.21.04.46.12.73.25.72.32,1.37.62,1.95.93.58.3,1.1.66,1.57,1.08.27.24.47.52.6.83.13.31.21.62.24.93.03.31.02.63-.02.95-.04.32-.1.61-.17.88-.14.52-.32,1.3-.53,2.32s-.45,2.17-.71,3.43-.53,2.57-.81,3.93c-.28,1.36-.55,2.65-.8,3.88l2.52-3.73,2.64-3.91,2.4-3.4c.73-1.03,1.31-1.77,1.74-2.24.33-.41.65-.65.96-.71.15-.02.31-.01.51.03.22.04.48.13.77.27.55.25,1,.48,1.36.7.36.22.78.5,1.26.84.28.18.48.35.6.51.12.16.21.32.25.5.04.18.04.38,0,.6-.04.23-.09.5-.15.81-.07.35-.23.94-.46,1.77l-.84,2.91-1,3.53-1.02,3.67,2.11-2.86,2.23-3.02,2.21-3,2.02-2.74,1.71-2.32,1.23-1.66c.43-.58.8-.87,1.12-.88.07,0,.15.01.22.03.29.06.67.25,1.14.56.41.31.82.66,1.21,1.03.39.37.76.77,1.11,1.21.36.52.49,1.02.39,1.5-.1.49-.35,1-.74,1.51l-2.24,2.95-2.6,3.43-2.74,3.61-2.71,3.56-2.46,3.23-1.99,2.62c-.28.35-.6.54-.97.57-.18.01-.39,0-.64-.05-.25-.05-.53-.14-.85-.25-.35-.14-.66-.27-.91-.39l-.7-.36c-.23-.11-.45-.22-.66-.34s-.46-.24-.73-.35c-.53-.33-.88-.69-1.05-1.1-.17-.4-.25-.83-.24-1.27l.1-1.61c.03-.63.07-1.31.14-2.05.07-.74.15-1.5.24-2.26.09-.77.2-1.51.35-2.23l-2.02,2.52-1.97,2.53-1.73,2.3-1.28,1.76c-.32.36-.63.55-.92.56-.16,0-.34,0-.55-.05-.17-.04-.36-.09-.57-.17-.61-.23-1.2-.49-1.75-.76-.55-.28-1.07-.55-1.56-.81-.45-.27-.75-.56-.91-.88-.16-.32-.21-.77-.15-1.34.01-.87.07-1.86.16-2.97.09-1.12.21-2.31.36-3.57.16-1.33.35-2.73.55-4.18.21-1.45.42-2.9.66-4.34.23-1.44.48-2.84.74-4.2.26-1.36.51-2.63.75-3.8.16-.66.37-1.05.64-1.18Z"/>
        <path class="cls-18" d="M114.06,138.14c.05-.25.17-.57.37-.94.78-1.31,1.77-2.84,2.95-4.59l3.86-5.33,3.96-5.48c1.38-1.77,2.68-3.33,3.88-4.69.43-.48.94-.85,1.51-1.09.46-.21,1.06-.23,1.79-.08.17.04.35.08.53.14.86.22,1.61.45,2.27.68s1.25.47,1.79.71c.54.24,1.04.48,1.52.73.48.25.96.49,1.46.72.65.37,1.02.75,1.12,1.15.07.3.07.65-.01,1.04-.03.15-.07.3-.12.44-.42,1.42-.86,3.07-1.34,4.94-.47,1.87-.94,3.83-1.41,5.87s-.92,4.09-1.36,6.15c-.14.69-.28,1.36-.42,2.01-.27,1.31-.52,2.55-.75,3.72-.08.37-.22.61-.42.72s-.59.1-1.18-.02-1.12-.25-1.62-.39c-.49-.14-.98-.34-1.47-.61-.51-.25-.85-.51-1.02-.78-.17-.27-.24-.7-.21-1.29.02-.62.08-1.29.16-2.01.08-.72.17-1.51.28-2.36l-4.66-.3c-1.54-.1-2.92-.11-4.14-.04-.57.72-1.08,1.4-1.53,2.03l-1.37,1.81c-.23.32-.47.48-.73.49-.07,0-.15-.02-.23-.03-.23-.05-.5-.17-.83-.36l-.84-.53c-.28-.21-.57-.42-.87-.65l-.56-.54c-.17-.16-.28-.33-.35-.51-.07-.2-.08-.45-.02-.73ZM128.14,132.23c.96.09,1.91.2,2.86.33.3-1.69.61-3.37.93-5.05.12-.56.23-1.12.34-1.66.22-1.1.45-2.2.71-3.28l-3.68,4.4-4.03,5.05c.95.05,1.9.12,2.86.21Z"/>
        <path class="cls-18" d="M137.48,139.77c.3-1.01.67-2.14,1.09-3.41.42-1.27.89-2.62,1.39-4.07s1.02-2.88,1.55-4.31c.53-1.43,1.06-2.81,1.57-4.13.52-1.33,1-2.5,1.45-3.51.27-.59.6-.92,1-1,.19-.03.41-.02.65.03.25.05.53.15.85.3l2.08,1.13c.66.37,1.35.82,2.05,1.35.58.4.97.83,1.15,1.29s.25,1.08.21,1.89l-.06,2.35-.07,3.11-.04,3.45v3.41c.96-2.59,2.03-5.12,3.2-7.58,1.17-2.46,2.25-4.74,3.24-6.83.28-.57.61-.89.98-.96.17-.04.38-.03.61.01.26.05.56.16.89.33l.78.38c.23.11.45.24.66.39s.44.33.68.52c.24.2.51.45.81.75.51.49.77.94.76,1.33,0,.11-.02.24-.04.37-.06.3-.19.62-.37.97-.74,1.43-1.54,3.06-2.41,4.91l-2.72,5.55-2.7,5.5-2.31,4.72c-.21.57-.65.79-1.31.65-.21-.04-.44-.12-.7-.24-.9-.38-1.8-.84-2.71-1.39-.83-.54-1.34-1.28-1.52-2.24-.16-.69-.3-1.48-.42-2.39-.12-.9-.24-1.87-.35-2.9l-.29-3.23c-.09-1.12-.16-2.24-.21-3.36l-1.48,3.67-1.43,3.5-1.25,3.1c-.38.95-.7,1.79-.96,2.51-.15.33-.33.53-.53.58-.08.02-.18,0-.31-.02-.2-.03-.45-.12-.75-.28l-1.4-.7c-.47-.23-.92-.54-1.33-.93-.42-.32-.67-.64-.75-.97-.07-.26-.07-.59.01-.97.02-.1.05-.2.08-.31.15-.54.38-1.32.68-2.32Z"/>
        <path class="cls-18" d="M164.49,124.69c1.26,0,2.67.07,4.24.18,1.57.11,3.17.25,4.79.41,1.63.16,3.22.35,4.76.55,1.55.2,2.93.41,4.15.62.63.13,1.07.28,1.33.45.26.17.46.41.6.72.31.56.55,1.14.7,1.75.16.61.25,1.2.28,1.75,0,.26,0,.47-.04.63-.03.16-.08.27-.15.34-.15.15-.55.17-1.19.08l-2.67-.27-2.98-.32-2.44,5.08-2.47,5.2-2.25,5.07c-.75,1.63-1.43,3.17-2.04,4.6-.11.28-.25.45-.42.51-.16.05-.35.05-.58,0-.02,0-.04,0-.07-.02-.26-.06-.55-.18-.88-.35l-1.1-.59c-.41-.21-.77-.42-1.09-.64-.32-.22-.58-.45-.77-.7-.19-.25-.31-.52-.35-.82-.03-.17-.02-.35.02-.54.03-.15.08-.3.16-.47.26-.97.63-2.15,1.12-3.55.48-1.4,1.01-2.87,1.6-4.41.58-1.54,1.21-3.09,1.87-4.66.66-1.56,1.27-3.01,1.83-4.35-.61-.02-1.2-.06-1.77-.1-.57-.04-1.05-.06-1.44-.03-.3,0-.57,0-.8-.06-.18-.03-.34-.08-.47-.14-.3-.17-.61-.51-.93-1.02-.34-.52-.62-1.14-.85-1.87-.23-.73-.41-1.34-.54-1.84-.09-.35-.12-.62-.09-.79.02-.08.05-.14.1-.18.15-.12.43-.2.84-.23Z"/>
        <path class="cls-18" d="M53.5,134.33c.85.11,1.66.22,2.43.34.14.03.28.06.41.08.63.13,1.26.34,1.9.64.76.35,1.28.77,1.56,1.25.27.49.54,1.21.79,2.16.26,1.74.5,3.72.7,5.93l.82,6.97,5.73-6.19,5.71-6.51c.39-.62.85-.89,1.4-.82.05.01.11.02.18.04.49.09.98.32,1.47.71.55.44,1.08.98,1.57,1.61.5.63.92,1.19,1.27,1.69.17.35.3.66.38.94.1.32.12.63.05.93-.06.23-.17.48-.32.73-.17.29-.39.64-.66,1.03-.67.92-1.61,2.03-2.82,3.35l-4.03,4.25-4.69,4.64-4.78,4.57c-.82,1.7-1.55,3.29-2.2,4.77l-1.85,4.29c-.26.51-.51.79-.77.84-.1.03-.24.03-.41,0-.26-.07-.59-.19-.99-.37-.61-.29-1.24-.62-1.88-.99-.65-.37-1.24-.74-1.78-1.1-.52-.5-.84-.96-.95-1.36-.09-.31-.08-.7.02-1.18.03-.14.07-.29.11-.45.42-1.12.87-2.41,1.35-3.89.48-1.48,1.07-3.11,1.78-4.89l-.74-5.49-.78-5.83-.76-5.69-.7-5.19c-.1-.52-.12-.92-.06-1.2.03-.14.08-.25.15-.32.2-.22.65-.32,1.38-.31Z"/>
        <path class="cls-18" d="M75.98,155.69c.74-1.71,1.65-3.34,2.73-4.88s2.3-2.96,3.67-4.25c1.37-1.29,2.88-2.4,4.52-3.32,1.09-.53,2.33-.84,3.7-.96.93-.07,1.8-.02,2.61.15.41.08.81.2,1.19.35,1.49.55,2.88,1.23,4.18,2.03,1.29.8,2.33,1.66,3.11,2.57.86,1.05,1.44,2.09,1.72,3.11.29,1.02.42,2.14.38,3.37-.08,1.31-.26,2.67-.55,4.07-.16.77-.35,1.56-.57,2.36-.64,2.26-1.5,4.46-2.61,6.59-1.11,2.14-2.42,4.1-3.94,5.89-1.52,1.79-3.22,3.21-5.11,4.27-1.26.6-2.51.92-3.77.96-.8.01-1.66-.08-2.56-.26-.51-.11-1.04-.24-1.57-.41-1-.32-2.01-.7-3.03-1.15-1.02-.45-1.93-1-2.72-1.64-.65-.53-1.27-1.16-1.84-1.9-.57-.73-.98-1.52-1.24-2.35-.39-1.36-.58-2.86-.59-4.49,0-1.5.18-3.04.5-4.61.03-.13.05-.26.08-.39.38-1.71.94-3.42,1.69-5.13ZM81.93,170.29c.16.91.52,1.51,1.1,1.83.16.09.33.15.5.18.41.08.86.02,1.35-.19.7-.29,1.46-.82,2.26-1.58.8-.76,1.61-1.74,2.43-2.92.82-1.18,1.59-2.5,2.32-3.95.6-1.19,1.17-2.52,1.7-3.99.53-1.47.93-2.87,1.2-4.18.28-1.34.38-2.51.33-3.52-.06-1.01-.34-1.65-.85-1.92-.11-.06-.23-.11-.36-.14-.47-.1-1.03.05-1.67.45-.83.51-1.72,1.26-2.65,2.24-.94.98-1.85,2.1-2.74,3.36-.89,1.26-1.66,2.49-2.3,3.69-.64,1.19-1.18,2.45-1.62,3.76-.33.99-.58,1.94-.77,2.85-.06.3-.12.6-.16.89-.19,1.18-.21,2.22-.05,3.13Z"/>
        <path class="cls-18" d="M103.14,163.42c.58-1.7,1.22-3.41,1.94-5.13.72-1.72,1.49-3.44,2.32-5.15.83-1.71,1.65-3.39,2.45-5.04.4-.74.85-1.14,1.35-1.2.19-.01.39,0,.61.04.37.08.8.27,1.3.58.73.4,1.42.86,2.06,1.38.64.52,1.25,1.11,1.82,1.76.91,1.02,1.25,2.1,1.01,3.24-.07.35-.2.72-.39,1.09l-2.18,4.29c-.78,1.54-1.57,3.09-2.36,4.64-.79,1.56-1.45,3.11-1.97,4.65-.53,1.54-.94,2.94-1.25,4.19-.07.31-.14.61-.2.9-.19.86-.28,1.62-.25,2.29.02.88.31,1.46.87,1.74.13.05.25.09.39.12.59.12,1.25-.12,1.98-.74.88-.73,1.79-1.82,2.75-3.26.96-1.44,1.94-3.13,2.95-5.08,1-1.94,1.98-3.96,2.92-6.05.94-2.09,1.84-4.15,2.68-6.19l2.25-5.46c.22-.79.61-1.21,1.18-1.25.25-.03.52-.02.81.04.37.08.75.22,1.14.42.72.35,1.47.84,2.26,1.47.79.63,1.49,1.23,2.12,1.81.32.31.56.59.72.83.16.25.26.48.29.71.03.17.03.35,0,.53-.05.24-.18.59-.41,1.06-1.59,3.67-3.13,7.03-4.61,10.06-1.48,3.03-2.94,5.69-4.36,7.97-1.43,2.28-2.85,4.14-4.27,5.58-1.42,1.44-2.86,2.4-4.32,2.88-1.03.28-2.03.41-3.01.38-.67-.02-1.39-.1-2.16-.26-.35-.07-.72-.16-1.09-.27-2.4-.66-4.32-1.59-5.75-2.79-.61-.52-1.17-1.1-1.67-1.74-.5-.64-.9-1.38-1.19-2.21-.39-1.06-.58-2.27-.57-3.62,0-1.35.17-2.81.49-4.37.32-1.56.77-3.19,1.35-4.89Z"/>
        <path class="cls-18" d="M127.99,181.09c.37-.49.83-.87,1.39-1.14.56-.26,1.19-.37,1.89-.32.7.05,1.46.28,2.27.7.68.35,1.2.77,1.57,1.27.37.5.61,1,.73,1.51.12.51.14,1,.06,1.47-.08.47-.21.87-.39,1.21-.14.26-.36.54-.66.86s-.66.6-1.05.84c-.4.24-.86.42-1.37.54s-1.07.13-1.66,0c-1.26-.23-2.26-.82-2.99-1.77-.73-.95-.92-2.12-.58-3.51.16-.61.42-1.16.78-1.65ZM132.93,169.56c.83-2.03,1.72-4.11,2.66-6.23l2.86-6.29c.95-2.07,1.83-3.92,2.64-5.54.39-.78.82-1.22,1.27-1.33.45-.1,1.08.08,1.88.56.76.37,1.57.86,2.44,1.47s1.61,1.22,2.2,1.85c.62.65.96,1.24,1.02,1.78.07.54-.09,1.15-.48,1.82l-3.33,5.69-3.23,5.71c-1.06,1.89-2.04,3.71-2.94,5.46-.9,1.75-1.72,3.39-2.46,4.92-.25.54-.53.84-.84.91-.31.07-.76-.04-1.35-.32-.72-.29-1.37-.59-1.96-.92s-1.15-.7-1.67-1.12c-.55-.46-.88-.9-1.01-1.33-.12-.43-.04-1.02.25-1.76.53-1.52,1.21-3.29,2.04-5.32Z"/>
      </g>
      <polygon class="cls-19" points="90.3 189.76 89.98 194.92 99.97 200.4 101.58 191.38 90.3 189.76"/>
      <polygon class="cls-10" points="83.21 290.33 75.16 319.24 80.95 326.11 86.43 313.86 81.27 308.38 83.21 290.33"/>
      <path class="cls-10" d="M60.97,352.86l.64-7.11s9.68.34,12.26.02,11.93-4.83,13.54-5.8,2.95-5.27,2.95-5.27c0,0,4.46,5.6,2.21,9.14-2.26,3.55-11.93,8.06-11.93,8.06l-2.9,10.31-6.77-5.8,1.61-5.8-11.6,2.26Z"/>
    </g>
    <g id="Ebene_21" data-name="Ebene 21">
      <path class="cls-11" d="M320.65,242.64c2.95-.74,4.98-3.08,7.86-3.08,3.76,0,8.24.41,21.21.41,9.23,0,20.17-2.76,26.91-2.76,16.81,0,20.38,35.66-4.61,35.9-18.4.18-23.94-6.85-32.59-12.61-5.9-3.93-11.53-7.2-12.01-5.76-.48,1.44,4.8,23.53,2.4,29.29-2.4,5.76-5.82,11.7-17.29,10.08-3.36-.47-6.52-4.72-6.52-4.72,0,0-2.32,6.96-11.73,7.6-9.59.65-12.01-6.72-12.49-10.08-.48-3.36.48-7.68.48-7.68,0,0-2.25,1.81-6.1-.11-3.84-1.92-6.87-8.54-6.87-8.54l-1.8-15.68s6.17-1.54,11.93-2.98c5.76-1.44,11.28-5.11,17.52-5.59,2.91-.22,7.25,1.77,7.25,1.77,0,0,3.96-4.99,6.84-5.47,2.88-.48,8.21.34,9.57,0Z"/>
      <path class="cls-11" d="M342.81,259.55c2.46,16.26,6.06,18.41,6.56,28.57.22,4.34-3.16,13.05-14.64,15.64-15.74,3.55-22.98-4.27-18.18-10.51,4.8-6.24,12.65-8.21,12.65-8.21,0,0-6.7-28.59-3.68-30.29,7.68-4.32,17.29,4.8,17.29,4.8Z"/>
      <path class="cls-11" d="M269.71,203.71c-15.48,5.51-30.88,14.15-42.24,26.14-4.27,4.78-9.66,12.09-4.53,17.77,4.71,5.76,12.78,6.93,19.85,7.87,10.39,1.21,21.46.12,31.73-1.94,0,0,2.91,18.9,2.91,18.9-6.3.69-12.55.8-18.82.43-12.87-.94-26.12-3.31-36.5-12.08-3.99-3.4-7.41-7.8-9.24-12.82-2.14-5.35-.32-11.87,2.27-16.25,4.77-8.19,11.89-14.52,19.02-20.3,4.72-3.75,9.6-7.25,14.64-10.51,5.03-3.3,10.21-6.34,15.56-9.3l5.35,12.09h0Z"/>
      <path class="cls-2" d="M326.81,260.92c2.06,4.46,3.48,9.21,4.41,14.04.56,3.52,1.01,7.15.05,10.73-1.72,5.41-6.58,10.87-12.72,10.22-2.08-.18-4.01-.9-5.69-1.94,1.94.37,3.85.6,5.67.36,4.68-.44,7.7-4.26,9.43-8.32,1.16-2.49,1.01-5.11.96-7.88-.31-5.77-1.29-11.43-2.12-17.21h0Z"/>
      <path class="cls-2" d="M307.69,265.21c3.69,7.21,4.72,17.14-.16,24.04-.65,1.02-1.62,1.82-2.52,2.58,3.61-8.62,3.72-17.37,2.68-26.62h0Z"/>
      <path class="cls-2" d="M281.44,280.29c.53-4.49,3.94-8.96,8.51-9.82-4.11,1.83-6.13,6.02-7.53,10.04,0,0-.97-.22-.97-.22h0Z"/>
      <path class="cls-2" d="M291.21,265.35c3.12,5.61,3.68,17.55-3.08,20.73,2.16-2.99,2.58-6.39,2.93-9.93.3-3.61.32-7.14.15-10.8h0Z"/>
      <path class="cls-2" d="M330.73,256.22c6.57,2.98,13.04,6.42,18.48,11.22-6.77-2.61-12.8-6.76-18.48-11.22h0Z"/>
    </g>
    <g id="Ebene_17" data-name="Ebene 17">
      <g id="Ebene_19" data-name="Ebene 19">
        <path class="cls-17" d="M231.09,286.96c-.45-5.31-8.35-19.83-8.35-19.83,0,0,3.35,21.2-6.1,33.64-6.37,8.39-19.82,12.69-34.04,10.23-11.67-2.02-20.97-21.08-20.97-21.08l-.62.33s-6.1,18.21-22.71,23.41c-22.79,7.13-41.93-3.35-41.93-3.35,0,0,14.66,20.61,30.98,18.65,16.31-1.97,26.8-10.67,26.8-10.67l-.1-4.07s2.35-6.63,3.57-8.23c.77-1.01,2.29-2.16,3.31-2.87,2.18.46,6.05,1.35,6.74,2,.97.92,6.58,11.73,6.58,11.73,0,0,12.19,9.72,25.96,6.56,13.77-3.16,21.8-9.3,26.33-16.61s4.99-14.52,4.55-19.83Z"/>
      </g>
    </g>
  </g>
</svg>