<?xml version="1.0" encoding="UTF-8" standalone="no"?><!DOCTYPE svg PUBLIC "-//W3C//DTD SVG 1.1//EN" "http://www.w3.org/Graphics/SVG/1.1/DTD/svg11.dtd"><svg width="100%" height="100%" viewBox="0 0 241 240" version="1.1" xmlns="http://www.w3.org/2000/svg" xmlns:xlink="http://www.w3.org/1999/xlink" xml:space="preserve" xmlns:serif="http://www.serif.com/" style="fill-rule:evenodd;clip-rule:evenodd;stroke-linecap:round;stroke-linejoin:round;stroke-miterlimit:1.5;"><rect id="Release-Build" serif:id="Release/Build" x="0.643" y="0" width="240" height="240" style="fill:none;"/><rect x="31.191" y="46.659" width="179.108" height="29.106" style="fill:#27bd9d;"/><path d="M100.858,171.19l-69.87,-0.344l-0,-124.187l179.311,0l-0,53.395" style="fill:none;stroke:#020144;stroke-width:8.33px;"/><path d="M153.445,182.873c3.664,6.76 2.64,15.395 -3.072,21.107c-5.711,5.711 -14.347,6.735 -21.107,3.071l12.089,-12.089l-9.799,-9.8l-12.09,12.089c-3.664,-6.76 -2.64,-15.395 3.072,-21.107c5.711,-5.711 14.347,-6.735 21.107,-3.071l30.527,-30.528c-3.664,-6.76 -2.64,-15.395 3.072,-21.107c5.711,-5.711 14.347,-6.735 21.107,-3.071l-12.09,12.089l9.8,9.8l12.09,-12.089c3.664,6.76 2.64,15.395 -3.072,21.107c-5.711,5.711 -14.347,6.735 -21.107,3.071l-30.527,30.528" style="fill:none;stroke:#020144;stroke-width:9.19px;"/><path d="M127.521,116.621l79.757,79.757l-9.8,9.8l-79.757,-79.757l9.8,-9.8Z" style="fill:#9dd7c5;stroke:#020144;stroke-width:9.19px;"/><path d="M150.156,107.199l6.859,6.859l-41.857,41.858l-13.466,-13.466l30.334,-30.333c5.204,1.665 12.184,-0.147 18.13,-4.918" style="fill:#27bd9d;stroke:#020144;stroke-width:9.19px;"/><path d="M31.585,75.765l178.714,-0" style="fill:none;stroke:#020144;stroke-width:8.33px;"/><path d="M142.772,60.966l50.612,-0" style="fill:none;stroke:#020144;stroke-width:8.33px;stroke-dasharray:8.33,16.67,8.33,16.67,0,0;"/><path d="M58.386,120l-12.801,-12.801l12.801,-12.801" style="fill:none;stroke:#020144;stroke-width:8.33px;"/><path d="M94.458,94.398l12.8,12.801l-12.8,12.801" style="fill:none;stroke:#020144;stroke-width:8.33px;"/><path d="M81.769,94.398l-10.694,25.602" style="fill:none;stroke:#020144;stroke-width:8.33px;"/></svg>