<?xml version="1.0" encoding="UTF-8" standalone="no"?><!DOCTYPE svg PUBLIC "-//W3C//DTD SVG 1.1//EN" "http://www.w3.org/Graphics/SVG/1.1/DTD/svg11.dtd"><svg width="100%" height="100%" viewBox="0 0 240 240" version="1.1" xmlns="http://www.w3.org/2000/svg" xmlns:xlink="http://www.w3.org/1999/xlink" xml:space="preserve" xmlns:serif="http://www.serif.com/" style="fill-rule:evenodd;clip-rule:evenodd;stroke-linecap:round;stroke-linejoin:round;stroke-miterlimit:1.5;"><rect id="Documentation" x="0" y="0" width="240" height="240" style="fill:none;"/><g id="Documentation1" serif:id="Documentation"><path d="M67.777,189.451l-27.885,0l-0,-160l120,0l-0,21.098l-61.985,-0l-30.13,30.13l-0,108.772Z" style="fill:#27bd9d;stroke:#020144;stroke-width:8.33px;"/><path d="M187.777,120l-0,90.549l-120,-0l-0,-129.87m30.13,-30.13l89.87,-0l-0,20.379" style="fill:none;stroke:#020144;stroke-width:8.33px;"/><rect x="151.037" y="70.928" width="49.072" height="49.072" style="fill:#27bd9d;stroke:#020144;stroke-width:8.33px;"/><path d="M97.907,50.549l-0,30.13l-30.13,-0l30.13,-30.13Z" style="fill:none;stroke:#020144;stroke-width:8.33px;"/><rect x="140.597" y="160.377" width="23.27" height="22.362" style="fill:none;stroke:#020144;stroke-width:8.33px;"/><path d="M109.284,70.928l18.493,0" style="fill:none;stroke:#020144;stroke-width:8.33px;"/><path d="M90.792,93.29l36.985,0" style="fill:none;stroke:#020144;stroke-width:8.33px;"/><path d="M90.792,115.653l36.985,-0" style="fill:none;stroke:#020144;stroke-width:8.33px;"/><path d="M90.792,138.015l73.076,-0" style="fill:none;stroke:#020144;stroke-width:8.33px;"/><path d="M90.792,160.377l36.985,-0" style="fill:none;stroke:#020144;stroke-width:8.33px;"/><path d="M90.792,182.739l36.985,0" style="fill:none;stroke:#020144;stroke-width:8.33px;"/></g></svg>