<?xml version="1.0" encoding="UTF-8" standalone="no"?><!DOCTYPE svg PUBLIC "-//W3C//DTD SVG 1.1//EN" "http://www.w3.org/Graphics/SVG/1.1/DTD/svg11.dtd"><svg width="100%" height="100%" viewBox="0 0 241 240" version="1.1" xmlns="http://www.w3.org/2000/svg" xmlns:xlink="http://www.w3.org/1999/xlink" xml:space="preserve" xmlns:serif="http://www.serif.com/" style="fill-rule:evenodd;clip-rule:evenodd;stroke-linecap:round;stroke-linejoin:round;stroke-miterlimit:1.5;"><rect id="Feature" x="0.322" y="0" width="240" height="240" style="fill:none;"/><circle cx="54.651" cy="49.048" r="10.306" style="fill:none;stroke:#020144;stroke-width:8.33px;"/><circle cx="54.651" cy="146.748" r="10.306" style="fill:none;stroke:#020144;stroke-width:8.33px;"/><circle cx="54.651" cy="190.952" r="10.306" style="fill:none;stroke:#020144;stroke-width:8.33px;"/><path d="M54.651,82.946l6.957,6.956l8.765,4.466l-4.466,8.766l-1.539,9.716l-9.717,-1.539l-9.716,1.539l-1.539,-9.716l-4.467,-8.766l8.766,-4.466l6.956,-6.956Z" style="fill:#27bd9d;stroke:#020144;stroke-width:8.33px;"/><path d="M93.714,41.066l108,0" style="fill:none;stroke:#020144;stroke-width:8.33px;"/><path d="M93.714,89.916l58.484,0" style="fill:none;stroke:#020144;stroke-width:8.33px;"/><path d="M93.714,137.35l108,-0" style="fill:none;stroke:#020144;stroke-width:8.33px;"/><path d="M93.714,182.978l108,-0" style="fill:none;stroke:#020144;stroke-width:8.33px;"/><path d="M93.714,57.029l58.484,0" style="fill:none;stroke:#020144;stroke-width:8.33px;"/><path d="M93.714,105.88l108,-0" style="fill:none;stroke:#020144;stroke-width:8.33px;stroke-dasharray:8.33,16.67,8.33,16.67,0,0;"/><path d="M93.714,153.313l58.484,0" style="fill:none;stroke:#020144;stroke-width:8.33px;stroke-dasharray:8.33,16.67,8.33,16.67,0,0;"/><path d="M93.714,198.941l58.484,0" style="fill:none;stroke:#020144;stroke-width:8.33px;stroke-dasharray:8.33,16.67,8.33,16.67,0,0;"/></svg>