<?xml version="1.0" encoding="UTF-8" standalone="no"?><!DOCTYPE svg PUBLIC "-//W3C//DTD SVG 1.1//EN" "http://www.w3.org/Graphics/SVG/1.1/DTD/svg11.dtd"><svg width="100%" height="100%" viewBox="0 0 241 240" version="1.1" xmlns="http://www.w3.org/2000/svg" xmlns:xlink="http://www.w3.org/1999/xlink" xml:space="preserve" xmlns:serif="http://www.serif.com/" style="fill-rule:evenodd;clip-rule:evenodd;stroke-linecap:round;stroke-linejoin:round;stroke-miterlimit:1.5;"><rect id="Discussion" x="0.161" y="0" width="240" height="240" style="fill:none;"/><path d="M120.161,97.98l-29.756,-0l-15.081,22.02l-15.081,-22.02l-20.191,-0l0,-56.723l100.706,-0l0,22.02" style="fill:none;stroke:#020144;stroke-width:8.33px;"/><path d="M135.263,178.434l5.495,24.415l-37.492,-12.833l-34.854,0c-7.521,0 -14.735,-2.988 -20.053,-8.306c-5.319,-5.319 -8.307,-12.532 -8.307,-20.054l0,-0.003c0,-7.521 2.988,-14.735 8.307,-20.053c5.318,-5.319 12.532,-8.307 20.053,-8.307l43.986,0c7.522,0 14.735,2.988 20.054,8.307c5.318,5.318 8.306,12.532 8.306,20.053l0,0.003c0,6.072 -1.947,11.943 -5.495,16.778" style="fill:#27bd9d;stroke:#020144;stroke-width:8.33px;"/><path d="M155.641,120l-35.48,0l-0,-56.723l80.108,-0l0,56.723l-14.466,-0l-15.081,22.02l-15.081,-22.02Z" style="fill:none;stroke:#020144;stroke-width:8.33px;"/><path d="M61.619,63.277l32,-0" style="fill:none;stroke:#020144;stroke-width:8.33px;"/><path d="M61.619,77.177l32,0" style="fill:none;stroke:#020144;stroke-width:8.33px;"/><path d="M144.215,90.984l32,0" style="fill:none;stroke:#020144;stroke-width:8.33px;"/></svg>