<?xml version="1.0" encoding="UTF-8" standalone="no"?><!DOCTYPE svg PUBLIC "-//W3C//DTD SVG 1.1//EN" "http://www.w3.org/Graphics/SVG/1.1/DTD/svg11.dtd"><svg width="100%" height="100%" viewBox="0 0 241 240" version="1.1" xmlns="http://www.w3.org/2000/svg" xmlns:xlink="http://www.w3.org/1999/xlink" xml:space="preserve" xmlns:serif="http://www.serif.com/" style="fill-rule:evenodd;clip-rule:evenodd;stroke-linecap:round;stroke-linejoin:round;stroke-miterlimit:1.5;"><rect id="Security" x="0.482" y="0" width="240" height="240" style="fill:none;"/><path d="M144.453,185.849c-14.748,11.041 -27.198,15.259 -27.198,15.259c-0,-0 -74.887,-25.37 -74.887,-114.542c-0,-27.608 74.887,-51.105 74.887,-51.105c-0,-0 74.887,23.497 74.887,51.105c-0,13.779 -1.789,26.035 -4.812,36.909" style="fill:none;stroke:#020144;stroke-width:8.33px;"/><path d="M117.255,182.176c-0,0 -57.77,-19.571 -57.77,-88.36c0,-21.298 57.77,-39.424 57.77,-39.424c-0,0 57.769,18.126 57.769,39.424c0,11.134 -1.513,20.978 -4.05,29.659" style="fill:none;stroke:#020144;stroke-width:8.33px;"/><path d="M142.335,167.158c-13.069,10.949 -25.08,15.018 -25.08,15.018" style="fill:none;stroke:#020144;stroke-width:8.33px;"/><rect x="156.844" y="167.158" width="41.752" height="37.381" style="fill:#27bd9d;stroke:#020144;stroke-width:8.33px;"/><path d="M177.41,136.996c8.136,-0 14.732,6.595 14.732,14.732c-0,7.655 -0,15.43 -0,15.43l-29.465,0l-0,-15.43c-0,-8.137 6.596,-14.732 14.732,-14.732c0,-0 0,-0 0.001,-0Z" style="fill:none;stroke:#020144;stroke-width:8.33px;"/><circle cx="177.409" cy="185.849" r="6.234" style="fill:none;stroke:#020144;stroke-width:8.33px;"/><path d="M117.255,93.571l6.956,6.956l8.766,4.466l-4.467,8.766l-1.539,9.716l-9.716,-1.539l-9.717,1.539l-1.539,-9.716l-4.466,-8.766l8.765,-4.466l6.957,-6.956Z" style="fill:#27bd9d;stroke:#020144;stroke-width:8.33px;"/></svg>