<?xml version="1.0" encoding="utf-8"?>
<!-- Generator: Adobe Illustrator 27.7.0, SVG Export Plug-In . SVG Version: 6.00 Build 0)  -->
<svg version="1.1" id="Layer_1" xmlns="http://www.w3.org/2000/svg"
  viewBox="0 0 726.3 162.5">
  <style type="text/css">
    .st0{fill:#9CD5FD;}
    .st1{fill:#5DBA9F;}
    .st2{fill:#020144;}
  </style>
  <g>
    <g>
      <g>
        <g>
          <path class="st0" d="M28.8,89.3L28.8,89.3h25.3c-0.6-2.8-1-5.6-1-8.5c0-2.6,0.3-5.2,0.8-7.7H37.5C41.4,46.5,64.4,26,92.1,26
					c21.3,0,39.8,12.1,49,29.7c0.4,0.7,1.1,1.2,1.9,1.2h13c1.6,0,2.6-1.6,2-3C147.3,28,121.7,9.8,92,9.8c-39.4,0-71.4,32-71.4,71.4
					c0,0.9,0,1.9,0.1,2.8c0.1,2.9,2.5,5.3,5.5,5.3L28.8,89.3L28.8,89.3z"/>
          <path class="st0" d="M163.5,78.4c-0.1-2.9-2.5-5.3-5.5-5.3h-2.7h-21.8l0,0h-0.7h-1.3c-0.2,0-0.4,0.1-0.6,0.1l-12.1,7
					c-0.7,0.4-0.7,1.5,0,1.9l12.1,7c0.2,0.1,0.4,0.1,0.6,0.1h1.3h3.8l0,0h10.1c-3.9,26.6-26.9,47.1-54.6,47.1
					c-21.3,0-39.8-12.1-49-29.7c-0.4-0.7-1.1-1.2-1.9-1.2h-13c-1.6,0-2.6,1.6-2,3c10.7,25.9,36.3,44.1,66,44.1
					c39.4,0,71.4-32,71.4-71.4C163.5,80.3,163.5,79.3,163.5,78.4z"/>
        </g>
      </g>
      <g>
        <g>
          <path class="st1" d="M92.1,98.7c-10,0-18.1-8.5-17.5-18.6c0.5-8.4,7.2-15.4,15.6-16.3c8-0.8,15.1,3.8,18,10.5
					c0.8,1.9,3.1,2.6,4.8,1.6l17.4-10c1.6-0.9,2.1-2.9,1.3-4.5c-7.5-14.9-23.1-25-41-24.5c-23.5,0.7-42.6,20-43,43.6
					c-0.4,24.8,19.6,45,44.3,45c17.3,0,32.3-10,39.6-24.5c0.8-1.6,0.2-3.6-1.3-4.5l-17.4-10c-1.8-1-4-0.3-4.8,1.6
					C105.5,94.3,99.3,98.7,92.1,98.7z"/>
        </g>
      </g>
    </g>
    <g>
      <path class="st2" d="M214,65.5c-1.9-3.1-7-6.1-12.9-6.1c-7.6,0-11.3,3.2-11.3,7.2c0,4.7,5.6,6.1,12.1,6.8
			c11.4,1.4,21.9,4.4,21.9,17.4c0,12.1-10.7,17.4-22.9,17.4c-11.1,0-19.7-3.4-23.7-13.4l8.6-4.4c2.4,6,8.7,8.6,15.3,8.6
			c6.5,0,12.5-2.3,12.5-8.2c0-5.1-5.4-7.2-12.6-8c-11.1-1.3-21.4-4.3-21.4-16.5c0-11.2,11-15.8,21.1-15.9c8.5,0,17.3,2.4,21.4,10.8
			L214,65.5z"/>
      <path class="st2" d="M239.3,68.5v20.1c0,5.8,3.2,10.3,9.3,10.3c5.8,0,9.8-4.9,9.8-10.7V68.6h9.4V107h-8.5l-0.6-5.2
			c-4,3.9-7.6,5.8-13,5.8c-9.2,0-15.9-6.9-15.9-18.8V68.6L239.3,68.5L239.3,68.5z"/>
      <path class="st2" d="M274.9,122.8V68.4h8.9l0.6,5.3c3-4.3,8.1-6.1,12.4-6.1c11.8,0,19.7,8.8,19.7,20.1c0,11.2-7.1,20.1-19.4,20.1
			c-4,0-10-1.2-12.8-5.4v20.5L274.9,122.8L274.9,122.8z M307,87.7c0-6-4-10.9-10.9-10.9c-6.8,0-10.9,4.9-10.9,10.9
			s4.4,10.9,10.9,10.9S307,93.7,307,87.7z"/>
      <path class="st2" d="M322.2,122.8V68.4h8.9l0.6,5.3c3-4.3,8.1-6.1,12.4-6.1c11.8,0,19.7,8.8,19.7,20.1c0,11.2-7.1,20.1-19.4,20.1
			c-4,0-10-1.2-12.8-5.4v20.5L322.2,122.8L322.2,122.8z M354.3,87.7c0-6-4-10.9-10.9-10.9c-6.8,0-10.9,4.9-10.9,10.9
			s4.4,10.9,10.9,10.9S354.3,93.7,354.3,87.7z"/>
      <path class="st2" d="M409,87.7c0,11-7.5,20-20,20c-12.4,0-19.9-8.9-19.9-20c0-11,7.6-20,19.8-20S409,76.7,409,87.7z M378.5,87.7
			c0,5.8,3.5,11.3,10.4,11.3s10.4-5.4,10.4-11.3c0-5.8-4-11.4-10.4-11.4C382.1,76.3,378.5,81.9,378.5,87.7z"/>
      <path class="st2" d="M423,68.5l0.7,4.4c3-4.7,6.9-5.4,10.8-5.4c4,0,7.8,1.6,9.9,3.7l-4.3,8.2c-1.9-1.6-3.7-2.5-6.8-2.5
			c-5,0-9.6,2.6-9.6,9.7v20.2h-9.5V68.4L423,68.5L423,68.5z"/>
      <path class="st2" d="M465.1,57.6v10.9h10.6v8.2H465v16.6c0,3.7,2,5.4,5,5.4c1.5,0,3.2-0.5,4.6-1.2l2.6,8.1c-2.7,1.1-5,1.6-7.9,1.6
			c-8.3,0.3-13.8-4.4-13.8-14V76.6h-7.2v-8.2h7.2v-4.9L465.1,57.6z"/>
      <path class="st2" d="M519.7,65.5c0-8.6-6.7-10-13.9-10c-10.4,0-15.4,4.8-15.3,11c0.1,8.3,8.9,10.9,15.5,10.9c8.1,0,15,0,23.1,0
			v3.3h-5v11.9c0,5.8,1.3,11,6.8,11v3.3c-4.4,0.6-7.9-2.3-9.1-6.9c-4,6.5-10.2,7.6-16,7.6c-13.2,0-20.2-5.8-20.2-15.2
			c0-6.8,5.5-11.5,11-13.3c-5.7-1.7-10-6.5-10-12.5c0-8.4,6.9-14.5,19.4-14.5c8.7,0,17.5,2.3,17.5,13.5L519.7,65.5L519.7,65.5z
			 M520.6,80.7h-14.9c-10.7,0-16.2,6.1-16.2,11.7c0,7,5.1,11.5,16.1,11.5c6.2,0,15-2.2,15-11.3L520.6,80.7L520.6,80.7z"/>
      <path class="st2" d="M587.5,100c-5.6,5.5-12.8,8.1-20.7,8.1c-20.2,0-28.8-13.9-28.9-28.1c-0.1-14.2,9.2-28.7,28.9-28.7
			c7.4,0,14.4,2.8,20,8.3l-6.9,6.6c-3.6-3.5-8.4-5.1-13.1-5.1c-13.1,0-18.8,9.8-18.8,18.9c0.1,9,5.3,18.4,18.8,18.4
			c4.7,0,10.1-1.9,13.7-5.5L587.5,100z"/>
      <path class="st2" d="M621.9,68.5h9.1v38.4h-8.9l-0.5-5.6c-2.2,4.5-8.2,6.7-12.4,6.8c-11.4,0.1-19.8-6.9-19.8-20.4
			c0-13.2,8.8-20.2,20-20.1c5.1,0,10,2.4,12.2,6.2L621.9,68.5z M598.9,87.6c0,7.3,5.1,11.7,11.4,11.7c14.9,0,14.9-23.3,0-23.3
			C604,76,598.9,80.3,598.9,87.6z"/>
      <path class="st2" d="M645.9,68.5l0.7,4.4c3-4.7,6.9-5.4,10.8-5.4c4,0,7.8,1.6,9.9,3.7l-4.3,8.2c-1.9-1.6-3.7-2.5-6.8-2.5
			c-5,0-9.6,2.6-9.6,9.7v20.2h-9.5V68.4L645.9,68.5L645.9,68.5z"/>
      <path class="st2" d="M679,91c0.6,4.7,4.7,8.2,11.4,8.2c3.5,0,8.1-1.3,10.3-3.6l6.1,6c-4,4.2-10.7,6.2-16.5,6.2
			c-13.2,0-21.1-8.2-21.1-20.5c0-11.7,7.9-20.1,20.4-20.1c12.8,0,20.9,7.9,19.4,23.7L679,91L679,91z M699.8,83.2
			c-0.6-5-4.5-7.5-10-7.5c-5.1,0-9.3,2.5-10.7,7.5H699.8z"/>
    </g>
    <g>
      <path class="st2" d="M263.2,30.9c-0.1,7.8-4.9,15.7-15.5,15.7c-10.6,0-15.6-7.7-15.6-15.6s5.1-16,15.6-16
			C258.1,15,263.3,23,263.2,30.9z M237.7,31.1c0.1,5,2.8,10.3,9.9,10.3s9.8-5.4,9.9-10.3c0.1-5.1-2.8-10.8-9.9-10.8
			S237.6,26,237.7,31.1z"/>
      <path class="st2" d="M267,54.8V24.6h4.9l0.3,2.9c1.6-2.4,4.5-3.4,6.9-3.4c6.6,0,10.9,4.9,10.9,11.2c0,6.2-3.9,11.2-10.8,11.2
			c-2.2,0-5.6-0.7-7.1-3v11.4H267V54.8z M284.9,35.3c0-3.3-2.2-6.1-6.1-6.1s-6.1,2.7-6.1,6.1s2.5,6.1,6.1,6.1S284.9,38.6,284.9,35.3
			z"/>
      <path class="st2" d="M298.6,37.1c0.3,2.6,2.6,4.5,6.4,4.5c1.9,0,4.5-0.7,5.7-2l3.4,3.3c-2.2,2.3-5.9,3.5-9.2,3.5
			c-7.4,0-11.7-4.5-11.7-11.4c0-6.5,4.4-11.2,11.3-11.2c7.1,0,11.6,4.4,10.8,13.2h-16.7V37.1z M310.1,32.8c-0.3-2.8-2.5-4.2-5.5-4.2
			c-2.9,0-5.2,1.4-6,4.2H310.1z"/>
      <path class="st2" d="M335,45.9V34.7c0-3.2-1.8-5.7-5.1-5.7c-3.2,0-5.4,2.7-5.4,6v10.9h-5.2V24.5h4.7l0.3,2.9
			c2.2-2.1,4.3-3.2,7-3.2c5,0,9,3.8,9,10.5v11.2L335,45.9L335,45.9z"/>
      <path class="st2" d="M367.8,45.9h-22.7c0-10.1,0-20.2,0-30.3h22.7v5.5h-17v7h16.4v5.3h-16.4v6.8h17V45.9z"/>
      <path class="st2" d="M377,15.7v30.2h-5.2V15.7H377z"/>
      <path class="st2" d="M386.1,37.1c0.3,2.6,2.6,4.5,6.4,4.5c1.9,0,4.5-0.7,5.7-2l3.4,3.3c-2.2,2.3-5.9,3.5-9.2,3.5
			c-7.4,0-11.7-4.5-11.7-11.4c0-6.5,4.4-11.2,11.3-11.2c7.1,0,11.6,4.4,10.8,13.2h-16.7V37.1z M397.7,32.8c-0.3-2.8-2.5-4.2-5.5-4.2
			c-2.9,0-5.2,1.4-6,4.2H397.7z"/>
      <path class="st2" d="M420.6,45.9V34.5c0-2.8-1.5-5.4-4.4-5.4s-4.5,2.6-4.5,5.4v11.4h-5.3V24.5h4.9l0.4,2.6
			c1.1-2.2,3.6-2.9,5.6-2.9c2.6,0,5.1,1,6.3,4c1.9-3,4.4-3.9,7.1-3.9c6.1,0,9,3.7,9,10.1v11.5h-5.3V34.4c0-2.8-1.2-5.2-4-5.2
			c-2.9,0-4.6,2.5-4.6,5.3v11.4H420.6z"/>
      <path class="st2" d="M449.7,37.1c0.3,2.6,2.6,4.5,6.4,4.5c1.9,0,4.5-0.7,5.7-2l3.4,3.3c-2.2,2.3-5.9,3.5-9.2,3.5
			c-7.4,0-11.7-4.5-11.7-11.4c0-6.5,4.4-11.2,11.3-11.2c7.1,0,11.6,4.4,10.8,13.2h-16.7V37.1z M461.3,32.8c-0.3-2.8-2.5-4.2-5.5-4.2
			c-2.9,0-5.2,1.4-6,4.2H461.3z"/>
      <path class="st2" d="M486.1,45.9V34.7c0-3.2-1.8-5.7-5.1-5.7c-3.2,0-5.4,2.7-5.4,6v10.9h-5.2V24.5h4.7l0.3,2.9
			c2.2-2.1,4.3-3.2,7-3.2c5,0,9,3.8,9,10.5v11.2L486.1,45.9L486.1,45.9z"/>
      <path class="st2" d="M502.5,18.6v6.1h5.9v4.5h-5.9v9.2c0,2,1.1,3,2.8,3c0.8,0,1.8-0.3,2.6-0.6l1.5,4.5c-1.5,0.6-2.8,0.9-4.4,0.9
			c-4.6,0.2-7.7-2.5-7.7-7.8v-9.2h-4v-4.5h4v-5.5L502.5,18.6z"/>
      <path class="st2" d="M526.2,30.2c-1.5-1.4-3.2-1.9-5.3-1.9c-2.5,0-3.9,0.8-3.9,2.1c0,1.4,1.3,2.2,4,2.3c4,0.3,9.1,1.2,9.1,6.8
			c0,3.8-3.1,7-9.2,7c-3.4,0-6.7-0.6-9.9-3.8l2.6-3.8c1.5,1.7,5,2.9,7.4,3c2,0,3.8-1,3.8-2.6c0-1.5-1.2-2.1-4.2-2.2
			c-4-0.3-8.8-1.8-8.8-6.6c0-4.9,5.1-6.7,9-6.7c3.3,0,5.8,0.6,8.3,2.8L526.2,30.2z"/>
    </g>
  </g>
</svg>
