<?xml version="1.0" encoding="UTF-8" standalone="no"?>
<!DOCTYPE svg PUBLIC "-//W3C//DTD SVG 1.1//EN" "http://www.w3.org/Graphics/SVG/1.1/DTD/svg11.dtd">
<svg width="100%" height="100%" viewBox="0 0 1080 1081" version="1.1" xmlns="http://www.w3.org/2000/svg" xmlns:xlink="http://www.w3.org/1999/xlink" xml:space="preserve" xmlns:serif="http://www.serif.com/" style="fill-rule:evenodd;clip-rule:evenodd;stroke-linecap:round;stroke-linejoin:round;stroke-miterlimit:1.5;">
    <rect id="_01_Java-Variant-1_Yellow" serif:id="01_Java Variant 1_Yellow" x="0" y="0.26" width="1080" height="1080" style="fill:none;"/>
    <g>
        <clipPath id="_clip1">
            <rect x="0" y="0.26" width="1080" height="1080"/>
        </clipPath>
        <g clip-path="url(#_clip1)">
            <g id="Background">
                <rect x="0" y="0.26" width="1080" height="1080" style="fill:rgb(252,249,218);"/>
            </g>
            <g transform="matrix(0.808435,0,0,0.808435,538.019,542.317)">
                <g transform="matrix(1,0,0,1,-833.5,-834)">
                    <rect id="_89-face-robot-2-crazy" serif:id="89-face-robot-2-crazy" x="0.128" y="0.398" width="1666.67" height="1666.67" style="fill:none;"/>
                    <g>
                        <path d="M558.159,1379.25C359.072,1278.49 222.458,1071.94 222.458,833.727C222.458,496.505 496.24,222.723 833.462,222.723C1170.68,222.723 1444.47,496.505 1444.47,833.727C1444.47,1063.97 1316.83,1264.65 1128.52,1368.79C1041.03,1417.18 940.437,1444.73 833.462,1444.73C734.451,1444.73 640.908,1421.13 558.159,1379.25Z" style="fill:rgb(252,249,219);stroke:black;stroke-width:16.67px;"/>
                    </g>
                    <path d="M1036.33,843.441C1072.8,843.441 1107.77,857.928 1133.56,883.714C1159.34,909.5 1173.83,944.474 1173.83,980.941L1173.83,980.942C1173.83,1017.41 1159.34,1052.38 1133.56,1078.17C1107.77,1103.95 1072.8,1118.44 1036.33,1118.44L623.829,1118.44C587.362,1118.44 552.389,1103.95 526.603,1078.17C500.816,1052.38 486.33,1017.41 486.33,980.942L486.33,980.941C486.33,944.474 500.817,909.5 526.603,883.714C552.389,857.928 587.363,843.441 623.83,843.441L1036.33,843.441Z" style="fill:rgb(220,203,18);stroke:black;stroke-width:16.67px;"/>
                    <path d="M955.078,843.441L955.078,849.452C955.078,893.962 918.996,930.044 874.487,930.044L785.669,930.044C741.16,930.044 705.078,893.962 705.078,849.452L705.078,843.441L955.078,843.441Z" style="fill:rgb(247,238,147);stroke:black;stroke-width:16.67px;"/>
                    <path d="M928.391,1160.48C985.032,1160.48 1030.95,1206.4 1030.95,1263.04L1030.95,1263.04C1030.95,1319.68 985.032,1365.6 928.391,1365.6L738.533,1365.6C681.891,1365.6 635.975,1319.68 635.975,1263.04L635.975,1263.04C635.975,1206.4 681.891,1160.48 738.533,1160.48L928.391,1160.48Z" style="stroke:black;stroke-width:16.67px;"/>
                    <ellipse cx="482.812" cy="929.036" rx="66.207" ry="76.494" style="stroke:black;stroke-width:16.67px;"/>
                    <ellipse cx="1177.34" cy="929.036" rx="66.207" ry="76.494" style="stroke:black;stroke-width:16.67px;"/>
                    <path d="M873.828,795.236L873.828,849.693C873.828,873.855 854.241,893.441 830.08,893.441L830.076,893.441C805.915,893.441 786.328,873.855 786.328,849.693L786.328,795.236L873.828,795.236Z" style="fill:white;stroke:black;stroke-width:16.67px;"/>
                    <path d="M366.503,1227.62C363.299,1119.37 386.76,1023.37 404.815,966.591C407.493,958.472 412.1,951.235 418.133,945.434C422.476,941.257 427.558,937.825 433.191,935.344C446.648,929.417 461.987,929.475 475.399,935.503C475.754,935.563 476.07,935.705 476.385,935.846C482.767,938.715 487.439,943.865 489.842,949.92C492.183,955.822 492.368,962.584 489.876,968.933C488.765,971.925 487.583,975.188 486.346,978.707C483.643,986.394 480.677,995.305 477.621,1005.3C456.759,1073.51 431.696,1192.07 457.498,1315.26C424.235,1289.24 393.732,1259.86 366.503,1227.62Z" style="fill:rgb(247,238,147);stroke:black;stroke-width:16.67px;"/>
                    <path d="M1300.42,1227.62C1273.19,1259.86 1242.69,1289.24 1209.43,1315.26C1235.35,1191.49 1209.93,1072.4 1189.01,1004.34C1184.66,990.195 1180.51,978.253 1177.05,968.933C1172,956.071 1177.94,941.511 1190.54,935.846C1190.85,935.705 1191.17,935.563 1191.53,935.503C1204.94,929.475 1220.28,929.417 1233.73,935.344C1236.95,936.762 1239.99,938.489 1242.81,940.489C1251.8,946.851 1258.6,955.966 1262.11,966.591C1280.16,1023.37 1303.62,1119.37 1300.42,1227.62Z" style="fill:rgb(247,238,147);stroke:black;stroke-width:16.67px;"/>
                    <path d="M514.733,571.381C551.077,567.593 584.136,598.609 588.513,640.6C592.889,682.591 566.936,719.758 530.593,723.546C494.249,727.334 461.19,696.318 456.813,654.327C452.437,612.336 478.39,575.169 514.733,571.381Z" style="stroke:black;stroke-width:16.67px;"/>
                    <path d="M1136.36,506.592C1172.7,502.804 1205.76,533.82 1210.14,575.811C1214.52,617.802 1188.56,654.969 1152.22,658.757C1115.88,662.545 1082.82,631.529 1078.44,589.538C1074.06,547.547 1100.02,510.38 1136.36,506.592Z" style="stroke:black;stroke-width:16.67px;"/>
                    <path d="M914.825,425.448C1013.79,415.133 1102.38,487 1112.7,585.967L1112.7,585.968C1123.01,684.935 1051.14,773.525 952.178,783.84C886.162,790.72 811.414,798.511 745.398,805.392C646.431,815.706 557.841,743.84 547.526,644.873L547.526,644.872C537.211,545.905 609.078,457.314 708.044,447C774.061,440.119 848.809,432.329 914.825,425.448Z" style="fill:white;stroke:black;stroke-width:16.67px;"/>
                    <path d="M951.615,783.899L914.332,426.184" style="fill:none;stroke:black;stroke-width:16.67px;"/>
                    <path d="M750.056,803.928L712.774,446.213" style="fill:none;stroke:black;stroke-width:16.67px;"/>
                    <path d="M906.801,507.51C976.219,500.275 1038.36,550.684 1045.59,620.103L1045.59,620.105C1052.83,689.523 1002.42,751.663 933.001,758.898C878.12,764.618 813.901,771.312 759.019,777.032C689.601,784.267 627.461,733.857 620.226,664.439L620.226,664.437C612.99,595.018 663.4,532.878 732.818,525.643C787.7,519.923 851.919,513.23 906.801,507.51Z" style="fill:white;stroke:black;stroke-width:16.67px;"/>
                    <path d="M770.318,732.577C770.318,732.577 778.576,722.397 785.036,714.434C787.04,711.964 789.943,710.391 793.107,710.061C796.27,709.732 799.435,710.672 801.905,712.676C804.754,714.987 807.886,717.528 810.735,719.839C813.205,721.842 816.37,722.783 819.534,722.453C822.697,722.124 825.6,720.551 827.604,718.08C829.915,715.232 832.456,712.1 834.767,709.251C836.771,706.781 839.674,705.208 842.837,704.878C846.001,704.548 849.166,705.489 851.636,707.493C854.484,709.804 857.617,712.345 860.465,714.655C862.936,716.659 866.101,717.6 869.264,717.27C872.428,716.94 875.331,715.367 877.335,712.897C879.645,710.049 882.186,706.916 884.497,704.068C886.501,701.598 889.404,700.025 892.568,699.695C895.731,699.365 898.896,700.306 901.367,702.31C909.329,708.769 919.51,717.028 919.51,717.028" style="fill:none;stroke:rgb(147,135,12);stroke-width:16.67px;"/>
                    <path d="M734.772,595.899C757.451,593.535 777.704,609.277 779.972,631.029C782.239,652.782 765.667,672.362 742.988,674.725C720.309,677.089 700.055,661.348 697.788,639.595C695.521,617.842 712.093,598.263 734.772,595.899Z" style="fill:none;stroke:rgb(147,135,12);stroke-width:16.67px;"/>
                    <path d="M878.814,576.741L964.802,657.847" style="fill:none;stroke:rgb(147,135,12);stroke-width:16.67px;"/>
                    <path d="M834.384,344.016L918.878,370.542" style="fill:none;stroke:rgb(147,135,12);stroke-width:16.67px;"/>
                    <path d="M443.878,475.067L505.956,538.229" style="fill:none;stroke:rgb(147,135,12);stroke-width:16.67px;"/>
                    <path d="M959.042,571.396L884.574,663.192" style="fill:none;stroke:rgb(147,135,12);stroke-width:16.67px;"/>
                    <path d="M886.707,314.16L866.555,400.398" style="fill:none;stroke:rgb(147,135,12);stroke-width:16.67px;"/>
                    <path d="M504.095,473.34L445.739,539.955" style="fill:none;stroke:rgb(147,135,12);stroke-width:16.67px;"/>
                    <path d="M1073.94,322.275L1045,370.512L1083.59,370.512L1054.64,418.75" style="fill:none;fill-rule:nonzero;stroke:rgb(147,135,12);stroke-width:19.3px;stroke-miterlimit:4;"/>
                    <path d="M546.566,350.398L582.076,394.028L543.878,399.517L579.388,443.147" style="fill:none;fill-rule:nonzero;stroke:rgb(147,135,12);stroke-width:19.3px;stroke-miterlimit:4;"/>
                    <path d="M1179.65,384.2L1132.72,415.221L1167.53,431.877L1120.61,462.898" style="fill:none;fill-rule:nonzero;stroke:rgb(147,135,12);stroke-width:19.3px;stroke-miterlimit:4;"/>
                </g>
            </g>
        </g>
    </g>
</svg>
