<?xml version="1.0" encoding="UTF-8" standalone="no"?><!DOCTYPE svg PUBLIC "-//W3C//DTD SVG 1.1//EN" "http://www.w3.org/Graphics/SVG/1.1/DTD/svg11.dtd"><svg width="100%" height="100%" viewBox="0 0 1081 1080" version="1.1" xmlns="http://www.w3.org/2000/svg" xmlns:xlink="http://www.w3.org/1999/xlink" xml:space="preserve" xmlns:serif="http://www.serif.com/" style="fill-rule:evenodd;clip-rule:evenodd;stroke-linecap:round;stroke-linejoin:round;stroke-miterlimit:1.5;"><rect id="_04_Community_Green" serif:id="04_Community_Green" x="0.786" y="0" width="1080" height="1080" style="fill:none;"/><clipPath id="_clip1"><rect x="0.786" y="0" width="1080" height="1080"/></clipPath><g clip-path="url(#_clip1)"><g id="Background"><rect x="0.786" y="-0" width="1080" height="1080" style="fill:#def1ec;"/></g><path d="M290.98,611.777l143.574,-0c0,-0 -5.251,-84.185 -67.966,-84.185c-62.715,-0 -75.608,60.105 -75.608,84.185Z" style="fill:#5cba9e;"/><g id="Fill"></g><g id="Outline"></g><path d="M194.667,668.62l0,-257.324m63.62,-107.859l219.547,-126.756m-0.448,726.379l-219.135,-126.518m565.071,0l-219.135,126.518m282.719,-491.764l-0,257.324m-283.167,-491.939l219.547,126.756" style="fill:none;stroke:#020144;stroke-width:16.67px;"/><circle cx="194.667" cy="741.31" r="72.69" style="fill:#5cba9e;stroke:#020144;stroke-width:16.67px;"/><circle cx="194.667" cy="338.606" r="72.69" style="fill:none;stroke:#020144;stroke-width:16.67px;"/><circle cx="886.906" cy="741.31" r="72.69" style="fill:#5db9f5;stroke:#020144;stroke-width:16.67px;"/><circle cx="886.906" cy="338.606" r="72.69" style="fill:#5cba9e;stroke:#020144;stroke-width:16.67px;"/><circle cx="540.786" cy="140.336" r="72.69" style="fill:#5db9f5;stroke:#020144;stroke-width:16.67px;"/><circle cx="540.786" cy="938.619" r="72.69" style="fill:none;stroke:#020144;stroke-width:16.67px;"/><circle cx="528.358" cy="458.653" r="79.953" style="fill:#5db9f5;"/><path d="M409.124,716.38l244.317,0c-0,0 -8.936,-143.255 -115.657,-143.255c-106.72,0 -128.66,102.279 -128.66,143.255Z" style="fill:#5cba9e;"/><circle cx="525.829" cy="460.047" r="79.953" style="fill:none;stroke:#020144;stroke-width:16.67px;"/><path d="M408.776,706.858c0,-0 7.414,-134.891 125.718,-134.891c110.58,0 121.308,134.891 121.308,134.891" style="fill:none;stroke:#020144;stroke-width:16.67px;"/><circle cx="702.552" cy="445.523" r="49.899" style="fill:#5cba9e;"/><circle cx="360.122" cy="445.523" r="49.899" style="fill:#5cba9e;"/><circle cx="701.165" cy="448.332" r="49.899" style="fill:none;stroke:#020144;stroke-width:16.67px;"/><circle cx="358.735" cy="448.332" r="49.899" style="fill:#5db9f5;stroke:#020144;stroke-width:16.67px;"/><path d="M628.113,611.777c0,-0 4.627,-84.185 78.46,-84.185c69.013,-0 75.708,84.185 75.708,84.185" style="fill:none;stroke:#020144;stroke-width:16.67px;"/><path d="M285.683,611.777c0,-0 4.627,-84.185 78.46,-84.185c69.012,-0 75.708,84.185 75.708,84.185" style="fill:none;stroke:#020144;stroke-width:16.67px;"/></g></svg>