<?xml version="1.0" encoding="UTF-8" standalone="no"?><!DOCTYPE svg PUBLIC "-//W3C//DTD SVG 1.1//EN" "http://www.w3.org/Graphics/SVG/1.1/DTD/svg11.dtd"><svg width="100%" height="100%" viewBox="0 0 1081 1081" version="1.1" xmlns="http://www.w3.org/2000/svg" xmlns:xlink="http://www.w3.org/1999/xlink" xml:space="preserve" xmlns:serif="http://www.serif.com/" style="fill-rule:evenodd;clip-rule:evenodd;stroke-linejoin:round;stroke-miterlimit:2;"><rect id="_09_Hiero_Pink" serif:id="09_Hiero_Pink" x="0.423" y="0.513" width="1080" height="1080" style="fill:none;"/><clipPath id="_clip1"><rect x="0.423" y="0.513" width="1080" height="1080"/></clipPath><g clip-path="url(#_clip1)"><g id="Background"><rect x="0.423" y="0.513" width="1080" height="1080" style="fill:#fad6e4;"/></g><g id="Fill"></g><g id="Outline"></g><g><path d="M365.237,913.904l-29.116,0l-0,-87.558l-91.478,0l0,87.558l-29.116,0l0,-191.564l29.116,0l0,79.509l91.478,0l-0,-79.509l29.116,0l-0,191.564Z" style="fill:#020144;fill-rule:nonzero;"/><path d="M425.079,714.221c4.269,0 8.048,1.33 11.198,3.71c3.22,2.449 4.829,6.719 4.829,12.528c0,5.809 -1.679,10.009 -4.829,12.528c-3.22,2.66 -6.929,3.92 -11.198,3.92c-4.27,-0 -8.259,-1.33 -11.619,-3.92c-3.359,-2.589 -4.829,-6.719 -4.829,-12.528c-0,-5.809 1.68,-10.079 4.829,-12.528c3.15,-2.45 7.139,-3.71 11.619,-3.71Zm14.068,55.153l-0,144.74l-28.556,0l-0,-144.74l28.556,-0Z" style="fill:#020144;fill-rule:nonzero;"/><path d="M537.903,766.504c18.898,0 33.946,5.809 44.794,17.568c10.849,11.758 16.378,27.786 16.378,48.013l-0,15.608l-97.077,0c0.35,14.838 4.27,26.247 11.618,34.155c7.349,7.909 17.778,11.759 31.286,11.759c13.508,-0 17.568,-0.77 24.707,-2.66c7.349,-1.68 14.628,-4.269 22.537,-7.699l-0,23.587c-7.349,3.36 -14.628,5.809 -21.977,7.349c-7.349,1.54 -16.168,2.31 -26.247,2.31c-10.078,-0 -26.246,-2.87 -37.095,-8.259c-10.638,-5.599 -19.107,-13.858 -25.126,-24.707c-6.019,-10.848 -9.029,-24.566 -9.029,-40.874c0,-16.308 2.87,-29.956 8.259,-41.295c5.389,-11.198 13.088,-19.877 22.887,-25.896c9.798,-6.019 21.207,-9.029 34.295,-9.029l-0.28,0l0.07,0.07Zm0,22.187c-10.078,0 -18.337,3.36 -24.566,10.009c-6.16,6.579 -9.799,15.958 -10.849,28.136l68.241,-0c-0,-11.199 -2.87,-20.437 -8.259,-27.576c-5.249,-7.139 -13.508,-10.639 -24.567,-10.639l0,0.21l-0.07,0l0.07,-0.14Z" style="fill:#020144;fill-rule:nonzero;"/><path d="M703.361,766.504c5.809,0 11.058,0.35 15.817,1.33l-3.009,26.596c-4.69,-1.329 -9.589,-1.889 -14.418,-1.889c-7.349,-0 -14.068,1.889 -20.437,5.389c-6.37,3.499 -11.199,8.679 -15.188,15.398c-3.92,6.719 -5.81,14.838 -5.81,24.356l0,76.36l-28.556,0l0,-144.74l22.537,-0l3.71,25.686l1.12,0c4.479,-7.699 10.428,-14.418 17.987,-20.087c7.489,-5.599 16.168,-8.469 26.037,-8.469l0.28,0l-0.07,0.07Z" style="fill:#020144;fill-rule:nonzero;"/><path d="M865.319,841.534c-0,23.937 -6.16,42.624 -18.548,55.502c-12.388,13.089 -29.116,19.668 -49.903,19.668c-20.787,-0 -24.707,-2.87 -34.715,-8.819c-10.079,-5.809 -17.988,-14.278 -23.797,-25.477c-5.809,-11.198 -8.819,-24.706 -8.819,-40.874c0,-23.937 6.019,-42.414 18.128,-55.502c12.178,-12.949 28.906,-19.528 49.903,-19.528c20.997,0 24.916,2.87 35.065,8.819c10.079,5.809 17.988,14.278 23.797,25.267c5.809,11.058 8.819,24.706 8.819,40.874l0.07,0.07Zm-106.526,-0c0,16.378 3.01,29.116 9.239,38.005c6.159,9.238 15.958,13.718 29.466,13.718c13.508,-0 23.307,-4.48 29.466,-13.718c6.159,-9.239 9.238,-21.977 9.238,-38.005c0,-16.028 -3.009,-29.116 -9.238,-38.005c-6.159,-8.959 -16.168,-13.298 -29.676,-13.298c-13.508,-0 -23.307,4.479 -29.256,13.298c-6.019,8.819 -9.239,21.557 -9.239,38.005Z" style="fill:#020144;fill-rule:nonzero;"/></g><g><path d="M763.013,164.322c17.652,-0 31.946,14.294 31.946,31.945l-0,429.479c-0,17.651 -14.294,31.946 -31.946,31.946l-228.059,-0c-17.651,-0 -31.945,-14.295 -31.945,-31.946l-0.542,-278.739c0,-18.517 15.161,-33.353 33.354,-33.353c18.192,-0 33.353,14.836 33.353,33.137l0.541,211.707c0,17.651 14.295,31.945 31.946,31.945l95.728,0c17.652,0 31.946,-14.51 31.946,-32.27l-2.924,-295.524c-0.325,-17.326 -14.511,-31.62 -31.945,-31.62l-309.927,-0c-17.651,-0 -31.945,14.294 -31.945,31.945l-0,361.581c-0,18.517 -15.161,33.353 -33.354,33.353c-18.193,0 -33.353,-15.16 -33.353,-33.353l-0,-428.179c-0,-17.652 14.294,-31.946 31.945,-31.946l445.073,0c-0,-0.108 0.325,-0.108 0.325,-0.108" style="fill:#f084ad;fill-rule:nonzero;stroke:#020144;stroke-width:16.67px;"/></g></g></svg>