<?xml version="1.0" encoding="UTF-8" standalone="no"?><!DOCTYPE svg PUBLIC "-//W3C//DTD SVG 1.1//EN" "http://www.w3.org/Graphics/SVG/1.1/DTD/svg11.dtd"><svg width="100%" height="100%" viewBox="0 0 1081 1081" version="1.1" xmlns="http://www.w3.org/2000/svg" xmlns:xlink="http://www.w3.org/1999/xlink" xml:space="preserve" xmlns:serif="http://www.serif.com/" style="fill-rule:evenodd;clip-rule:evenodd;stroke-linecap:round;stroke-linejoin:round;stroke-miterlimit:1.5;"><rect id="_02_Java-Variant-2_Yellow" serif:id="02_Java Variant 2_Yellow" x="0.262" y="0.26" width="1080" height="1080" style="fill:none;"/><clipPath id="_clip1"><rect x="0.262" y="0.26" width="1080" height="1080"/></clipPath><g clip-path="url(#_clip1)"><g id="Background"><rect x="0.262" y="0.26" width="1080" height="1080" style="fill:#fcf9da;"/></g><g id="Fill"><path d="M560.67,301.735c-24.569,17.28 -52.415,36.866 -67.335,69.269c-25.915,56.531 53.029,118.195 56.403,120.793c0.784,0.603 1.723,0.904 2.659,0.904c0.993,0 1.988,-0.339 2.796,-1.017c1.567,-1.31 2.012,-3.537 1.071,-5.35c-0.286,-0.55 -28.623,-55.592 -27.57,-95.078c0.373,-13.753 19.62,-29.355 39.996,-45.873c18.662,-15.129 39.817,-32.276 52.194,-52.335c27.171,-44.153 -3.029,-87.57 -3.337,-88.004c-1.2,-1.684 -3.414,-2.294 -5.307,-1.464c-1.891,0.835 -2.939,2.88 -2.507,4.902c0.061,0.287 5.934,28.998 -10.408,58.578c-6.732,12.224 -21.524,22.628 -38.655,34.675Z" style="fill:#f1e34b;fill-rule:nonzero;"/><path d="M664.183,321.206c1.733,-1.306 2.242,-3.687 1.194,-5.588c-1.05,-1.9 -3.335,-2.738 -5.364,-1.968c-4.174,1.587 -102.207,39.376 -102.207,85.034c0,31.475 13.445,48.101 23.262,60.244c3.851,4.762 7.175,8.875 8.271,12.386c3.084,10.118 -4.223,28.407 -7.296,34.6c-0.886,1.78 -0.452,3.938 1.055,5.239c0.814,0.703 1.831,1.06 2.849,1.06c0.866,-0 1.736,-0.258 2.488,-0.781c1.686,-1.172 41.195,-29.106 34.109,-62.761c-2.64,-12.792 -8.926,-22.139 -14.473,-30.387c-8.592,-12.779 -14.798,-22.009 -5.383,-39.058c11.031,-19.885 60.989,-57.642 61.495,-58.02Z" style="fill:#f1e34b;fill-rule:nonzero;"/><path d="M408.999,512.936c-1.68,5.031 -0.887,10.022 2.292,14.438c10.627,14.754 48.27,22.878 105.999,22.878l0.008,-0c7.822,-0 16.08,-0.154 24.539,-0.457c92.298,-3.304 126.532,-32.058 127.944,-33.281c1.539,-1.332 1.951,-3.55 0.994,-5.345c-0.957,-1.793 -3.021,-2.695 -4.993,-2.152c-32.507,8.876 -93.205,12.026 -135.306,12.026c-47.111,0 -71.103,-3.394 -76.976,-5.899c3.013,-4.139 21.603,-11.529 44.638,-16.06c2.202,-0.432 3.715,-2.466 3.497,-4.698c-0.218,-2.233 -2.094,-3.936 -4.338,-3.936c-13.503,-0 -81.219,1.084 -88.298,22.486Z" style="fill:#f084ad;fill-rule:nonzero;"/><path d="M717.848,483.319c-19.037,0 -37.09,9.542 -37.85,9.946c-1.76,0.943 -2.653,2.962 -2.17,4.902c0.485,1.937 2.226,3.298 4.223,3.3c0.404,0 40.608,0.33 44.25,23.3c3.225,19.817 -38.04,51.926 -54.213,62.627c-1.747,1.156 -2.425,3.389 -1.614,5.321c0.691,1.644 2.291,2.672 4.017,2.672c0.301,-0 0.606,-0.031 0.91,-0.096c3.838,-0.821 93.888,-20.665 84.367,-73.095c-5.809,-32.132 -26.004,-38.877 -41.92,-38.877Z" style="fill:#f084ad;fill-rule:nonzero;"/><path d="M656.093,580.978c0.313,-1.679 -0.386,-3.387 -1.784,-4.369l-21.591,-15.124c-1.053,-0.737 -2.384,-0.969 -3.62,-0.641c-0.225,0.057 -22.804,5.993 -55.586,9.633c-13.011,1.459 -27.583,2.23 -42.145,2.23c-32.774,-0 -54.203,-3.851 -57.324,-6.676c-0.413,-0.794 -0.282,-1.154 -0.208,-1.354c0.567,-1.577 3.605,-3.45 5.564,-4.192c2.163,-0.8 3.33,-3.15 2.657,-5.355c-0.671,-2.209 -2.947,-3.509 -5.192,-2.97c-21.659,5.227 -32.25,12.536 -31.479,21.724c1.368,16.29 39.1,24.651 70.998,26.861c4.587,0.314 9.548,0.473 14.742,0.473l0.008,-0c53.041,-0 121.039,-16.642 121.718,-16.812c1.661,-0.405 2.927,-1.745 3.242,-3.428Z" style="fill:#f084ad;fill-rule:nonzero;"/><path d="M493.31,615.939c1.636,-1.063 2.361,-3.085 1.78,-4.948c-0.578,-1.862 -2.32,-3.085 -4.277,-3.059c-2.902,0.077 -28.402,1.228 -30.187,17.463c-0.54,4.852 0.849,9.285 4.132,13.174c9.156,10.851 33.87,17.3 75.543,19.716c4.93,0.296 9.938,0.444 14.886,0.444c52.98,0 88.661,-16.588 90.156,-17.294c1.449,-0.686 2.404,-2.11 2.489,-3.709c0.085,-1.599 -0.713,-3.117 -2.08,-3.953l-27.287,-16.657c-0.947,-0.578 -2.08,-0.769 -3.16,-0.548c-0.173,0.037 -17.498,3.63 -43.645,7.18c-4.947,0.673 -11.143,1.014 -18.413,1.014c-26.119,0 -55.17,-4.267 -60.742,-7.062c-0.081,-0.521 0.022,-1.184 0.805,-1.761Z" style="fill:#f084ad;fill-rule:nonzero;"/><path d="M530.495,708.815c121.355,-0.103 186.488,-21.685 199.035,-35.265c4.442,-4.804 4.922,-9.353 4.545,-12.324c-0.933,-7.312 -7.593,-11.788 -8.348,-12.274c-1.821,-1.171 -4.266,-0.865 -5.687,0.774c-1.417,1.639 -1.45,4.034 -0.028,5.671c0.766,0.985 1.208,2.633 -1.03,4.873c-5.016,4.685 -55.607,18.905 -139.843,23.178c-11.539,0.599 -23.641,0.904 -35.97,0.906c-75.42,0 -130.616,-10.331 -137.862,-16.35c2.793,-4.013 22.317,-10.424 43.08,-14.05c2.34,-0.408 3.92,-2.613 3.558,-4.96c-0.363,-2.346 -2.526,-3.961 -4.891,-3.655c-0.585,0.08 -2.573,0.199 -4.874,0.34c-34.259,2.092 -73.848,6.753 -75.914,24.405c-0.627,5.379 0.971,10.262 4.752,14.511c9.253,10.396 35.846,24.218 159.473,24.218c0.002,0.002 0.002,0.002 0.004,0.002Z" style="fill:#f084ad;fill-rule:nonzero;"/><path d="M753.366,677.377c-1.715,-0.794 -3.742,-0.393 -5.022,0.988c-0.177,0.192 -18.423,19.271 -73.282,30.475c-21.002,4.208 -60.424,6.342 -117.172,6.342c-56.853,-0 -110.953,-2.237 -111.492,-2.26c-2.26,-0.11 -4.192,1.533 -4.5,3.757c-0.308,2.223 1.125,4.319 3.307,4.838c0.563,0.133 57.259,13.415 134.778,13.415c37.18,0 73.36,-3.019 107.536,-8.978c63.725,-11.171 68.186,-42.769 68.345,-44.109c0.222,-1.872 -0.785,-3.675 -2.498,-4.468Z" style="fill:#f084ad;fill-rule:nonzero;"/><rect x="278.339" y="442.122" width="54.836" height="369.879" style="fill:#f084ad;"/><rect x="202.537" y="507.429" width="49.927" height="369.879" style="fill:#f084ad;"/></g><g id="Outline"><path d="M367.437,442.122l-89.098,0l-0,369.879l599.648,-0l0,-369.879l-96.455,0" style="fill:none;stroke:#020144;stroke-width:16.67px;"/><path d="M248.871,507.429l-46.334,-0l0,369.879l599.648,-0l0,-37.711" style="fill:none;stroke:#020144;stroke-width:16.67px;"/></g></g></svg>