<?xml version="1.0" encoding="UTF-8" standalone="no"?><!DOCTYPE svg PUBLIC "-//W3C//DTD SVG 1.1//EN" "http://www.w3.org/Graphics/SVG/1.1/DTD/svg11.dtd"><svg width="100%" height="100%" viewBox="0 0 1081 1081" version="1.1" xmlns="http://www.w3.org/2000/svg" xmlns:xlink="http://www.w3.org/1999/xlink" xml:space="preserve" xmlns:serif="http://www.serif.com/" style="fill-rule:evenodd;clip-rule:evenodd;stroke-linecap:round;stroke-linejoin:round;stroke-miterlimit:1.5;"><rect id="_06_Java_Yellow" serif:id="06_Java_Yellow" x="0.598" y="0.564" width="1080" height="1080" style="fill:none;"/><clipPath id="_clip1"><rect x="0.598" y="0.564" width="1080" height="1080"/></clipPath><g clip-path="url(#_clip1)"><g id="Background"><rect x="0.598" y="0.564" width="1080" height="1080" style="fill:#fcf9da;"/></g><g id="Layer1"><path d="M346.094,153.283l375.224,-0l187.612,324.953l-187.612,324.953l-375.224,-0l-187.611,-324.953l187.611,-324.953Z" style="fill:#f1e34b;"/><path d="M316.243,101.578l434.926,0l217.463,376.658l-217.463,376.657l-434.926,-0l-217.463,-376.657l217.463,-376.658Z" style="fill:none;stroke:#020144;stroke-width:16.67px;"/><path d="M617.653,488.255c0,0 0,50.08 0,100.16c0,26.563 -10.552,52.039 -29.335,70.822c-18.784,18.783 -44.259,29.336 -70.823,29.336l-0.001,-0c-26.564,-0 -52.039,-10.553 -70.823,-29.336c-18.783,-18.783 -29.335,-44.259 -29.335,-70.822c-0,-50.08 -0,-100.16 -0,-100.16l200.317,0Z" style="fill:#020144;stroke:#020144;stroke-width:16.67px;"/><path d="M617.653,520.487c0,-0 5.81,-0 13.652,-0c10.956,-0 21.464,4.352 29.212,12.1c7.747,7.747 12.1,18.255 12.1,29.212l-0,0.001c-0,10.957 -4.353,21.465 -12.1,29.212c-7.748,7.748 -18.256,12.1 -29.212,12.1c-7.842,0 -13.652,0 -13.652,0l0,-82.625Z" style="fill:none;stroke:#020144;stroke-width:16.67px;"/><path d="M527.7,453.881c0,-0 11.272,-13.701 24.937,-30.31c11.615,-14.117 16.193,-32.742 12.447,-50.635c-3.746,-17.892 -15.412,-33.117 -31.714,-41.389c-0,-0 -0.001,-0.001 -0.002,-0.001c-24.288,-12.324 -39.27,-37.57 -38.452,-64.793c0.818,-27.224 17.289,-51.524 42.272,-62.368c5.805,-2.519 9.232,-4.007 9.232,-4.007" style="fill:none;stroke:#020144;stroke-width:16.67px;"/><path d="M579.996,313.391c-0,0 -1.538,-0.806 -4.194,-2.199c-14.197,-7.444 -22.783,-22.452 -22.006,-38.463c0.778,-16.012 10.777,-30.116 25.628,-36.15c0.375,-0.152 0.572,-0.232 0.572,-0.232" style="fill:none;stroke:#020144;stroke-width:16.67px;"/><path d="M484.802,453.881c-0,-0 8.757,-10.908 18.609,-23.181c7.069,-8.806 10.211,-20.128 8.692,-31.317c-1.52,-11.19 -7.568,-21.264 -16.729,-27.865c-13.937,-10.043 -26.704,-19.243 -26.704,-19.243" style="fill:none;stroke:#020144;stroke-width:16.67px;"/><rect x="223.502" y="731.645" width="634.191" height="246.496" style="fill:#f084ad;stroke:#020144;stroke-width:16.67px;"/><path d="M437.389,789.883l0,88.055c0,15.423 -3.527,26.273 -10.581,32.549c-7.054,6.277 -17.455,9.416 -31.204,9.416c-13.989,-0 -23.972,-3.468 -29.95,-10.402c-5.978,-6.934 -8.966,-17.097 -8.966,-30.487l-0,-2.69l30.128,-0l0,6.277c0,6.097 0.807,10.162 2.421,12.194c1.614,2.033 3.677,3.049 6.187,3.049c2.511,0 4.573,-1.016 6.187,-3.049c1.614,-2.032 2.421,-6.097 2.421,-12.194l0,-92.718l33.357,0Zm76.218,0l31.205,128.047l-35.509,-0l-3.407,-22.417l-26.542,-0l-3.407,22.417l-34.971,-0l30.667,-128.047l41.964,0Zm-21.161,26.183l-9.147,54.34l18.652,-0l-9.147,-54.34l-0.358,0Zm41.427,-26.183l34.97,0l13.451,96.484l0.358,-0l13.451,-96.484l35.508,0l-27.618,128.047l-43.041,-0l-27.079,-128.047Zm159.43,0l31.205,128.047l-35.509,-0l-3.407,-22.417l-26.542,-0l-3.408,22.417l-34.97,-0l30.666,-128.047l41.965,0Zm-21.162,26.183l-9.146,54.34l18.651,-0l-9.146,-54.34l-0.359,0Z" style="fill:#020144;"/></g></g></svg>