<?xml version="1.0" encoding="UTF-8" standalone="no"?><!DOCTYPE svg PUBLIC "-//W3C//DTD SVG 1.1//EN" "http://www.w3.org/Graphics/SVG/1.1/DTD/svg11.dtd"><svg width="100%" height="100%" viewBox="0 0 1081 1081" version="1.1" xmlns="http://www.w3.org/2000/svg" xmlns:xlink="http://www.w3.org/1999/xlink" xml:space="preserve" xmlns:serif="http://www.serif.com/" style="fill-rule:evenodd;clip-rule:evenodd;stroke-linecap:round;stroke-linejoin:round;stroke-miterlimit:1.5;"><rect id="_02_Java-Variant-2_Pink" serif:id="02_Java Variant 2_Pink" x="0.262" y="0.022" width="1080" height="1080" style="fill:none;"/><clipPath id="_clip1"><rect x="0.262" y="0.022" width="1080" height="1080"/></clipPath><g clip-path="url(#_clip1)"><g id="Background"><rect x="0.262" y="0.022" width="1080" height="1080" style="fill:#fad6e4;"/></g><g id="Fill"><path d="M560.67,301.498c-24.569,17.28 -52.415,36.865 -67.335,69.268c-25.915,56.532 53.029,118.196 56.403,120.793c0.784,0.604 1.723,0.905 2.659,0.905c0.993,-0 1.988,-0.34 2.796,-1.017c1.567,-1.31 2.012,-3.537 1.071,-5.35c-0.286,-0.551 -28.623,-55.592 -27.57,-95.079c0.373,-13.753 19.62,-29.354 39.996,-45.872c18.662,-15.129 39.817,-32.276 52.194,-52.335c27.171,-44.154 -3.029,-87.57 -3.337,-88.004c-1.2,-1.685 -3.414,-2.294 -5.307,-1.464c-1.891,0.835 -2.939,2.879 -2.507,4.901c0.061,0.288 5.934,28.999 -10.408,58.579c-6.732,12.223 -21.524,22.627 -38.655,34.675Z" style="fill:#5db9f5;fill-rule:nonzero;"/><path d="M664.183,320.968c1.733,-1.305 2.242,-3.687 1.194,-5.587c-1.05,-1.901 -3.335,-2.739 -5.364,-1.968c-4.174,1.587 -102.207,39.375 -102.207,85.034c0,31.474 13.445,48.101 23.262,60.243c3.851,4.763 7.175,8.875 8.271,12.387c3.084,10.118 -4.223,28.406 -7.296,34.6c-0.886,1.78 -0.452,3.938 1.055,5.238c0.814,0.703 1.831,1.06 2.849,1.06c0.866,0 1.736,-0.257 2.488,-0.78c1.686,-1.172 41.195,-29.106 34.109,-62.761c-2.64,-12.793 -8.926,-22.139 -14.473,-30.387c-8.592,-12.779 -14.798,-22.01 -5.383,-39.058c11.031,-19.885 60.989,-57.643 61.495,-58.021Z" style="fill:#5db9f5;fill-rule:nonzero;"/><path d="M408.999,512.698c-1.68,5.032 -0.887,10.023 2.292,14.439c10.627,14.754 48.27,22.877 105.999,22.877l0.008,0c7.822,0 16.08,-0.153 24.539,-0.457c92.298,-3.303 126.532,-32.058 127.944,-33.28c1.539,-1.332 1.951,-3.551 0.994,-5.345c-0.957,-1.794 -3.021,-2.695 -4.993,-2.152c-32.507,8.875 -93.205,12.026 -135.306,12.026c-47.111,0 -71.103,-3.394 -76.976,-5.9c3.013,-4.138 21.603,-11.528 44.638,-16.059c2.202,-0.432 3.715,-2.466 3.497,-4.699c-0.218,-2.233 -2.094,-3.936 -4.338,-3.936c-13.503,0 -81.219,1.085 -88.298,22.486Z" style="fill:#f084ad;fill-rule:nonzero;"/><path d="M717.848,483.082c-19.037,-0 -37.09,9.542 -37.85,9.946c-1.76,0.943 -2.653,2.962 -2.17,4.902c0.485,1.936 2.226,3.298 4.223,3.3c0.404,-0 40.608,0.329 44.25,23.3c3.225,19.817 -38.04,51.926 -54.213,62.627c-1.747,1.156 -2.425,3.389 -1.614,5.32c0.691,1.644 2.291,2.672 4.017,2.672c0.301,0 0.606,-0.031 0.91,-0.095c3.838,-0.822 93.888,-20.666 84.367,-73.095c-5.809,-32.132 -26.004,-38.877 -41.92,-38.877Z" style="fill:#f084ad;fill-rule:nonzero;"/><path d="M656.093,580.741c0.313,-1.679 -0.386,-3.388 -1.784,-4.369l-21.591,-15.124c-1.053,-0.737 -2.384,-0.969 -3.62,-0.642c-0.225,0.057 -22.804,5.993 -55.586,9.633c-13.011,1.46 -27.583,2.23 -42.145,2.23c-32.774,0 -54.203,-3.851 -57.324,-6.675c-0.413,-0.794 -0.282,-1.154 -0.208,-1.355c0.567,-1.576 3.605,-3.45 5.564,-4.191c2.163,-0.801 3.33,-3.15 2.657,-5.356c-0.671,-2.209 -2.947,-3.508 -5.192,-2.969c-21.659,5.227 -32.25,12.536 -31.479,21.724c1.368,16.29 39.1,24.651 70.998,26.861c4.587,0.314 9.548,0.473 14.742,0.473l0.008,-0c53.041,-0 121.039,-16.643 121.718,-16.812c1.661,-0.405 2.927,-1.746 3.242,-3.428Z" style="fill:#f084ad;fill-rule:nonzero;"/><path d="M493.31,615.702c1.636,-1.064 2.361,-3.086 1.78,-4.948c-0.578,-1.862 -2.32,-3.085 -4.277,-3.059c-2.902,0.077 -28.402,1.227 -30.187,17.462c-0.54,4.852 0.849,9.286 4.132,13.175c9.156,10.85 33.87,17.3 75.543,19.715c4.93,0.296 9.938,0.445 14.886,0.445c52.98,-0 88.661,-16.589 90.156,-17.295c1.449,-0.685 2.404,-2.109 2.489,-3.708c0.085,-1.6 -0.713,-3.117 -2.08,-3.953l-27.287,-16.658c-0.947,-0.577 -2.08,-0.768 -3.16,-0.547c-0.173,0.036 -17.498,3.63 -43.645,7.179c-4.947,0.673 -11.143,1.015 -18.413,1.015c-26.119,-0 -55.17,-4.267 -60.742,-7.062c-0.081,-0.521 0.022,-1.184 0.805,-1.761Z" style="fill:#f084ad;fill-rule:nonzero;"/><path d="M530.495,708.577c121.355,-0.102 186.488,-21.684 199.035,-35.265c4.442,-4.804 4.922,-9.353 4.545,-12.324c-0.933,-7.311 -7.593,-11.787 -8.348,-12.273c-1.821,-1.171 -4.266,-0.865 -5.687,0.774c-1.417,1.639 -1.45,4.033 -0.028,5.671c0.766,0.985 1.208,2.633 -1.03,4.873c-5.016,4.685 -55.607,18.905 -139.843,23.177c-11.539,0.6 -23.641,0.905 -35.97,0.907c-75.42,0 -130.616,-10.331 -137.862,-16.35c2.793,-4.013 22.317,-10.424 43.08,-14.05c2.34,-0.409 3.92,-2.613 3.558,-4.96c-0.363,-2.346 -2.526,-3.961 -4.891,-3.655c-0.585,0.08 -2.573,0.198 -4.874,0.34c-34.259,2.091 -73.848,6.753 -75.914,24.405c-0.627,5.378 0.971,10.261 4.752,14.511c9.253,10.396 35.846,24.217 159.473,24.217c0.002,0.002 0.002,0.002 0.004,0.002Z" style="fill:#f084ad;fill-rule:nonzero;"/><path d="M753.366,677.139c-1.715,-0.793 -3.742,-0.392 -5.022,0.989c-0.177,0.192 -18.423,19.271 -73.282,30.474c-21.002,4.208 -60.424,6.342 -117.172,6.342c-56.853,0 -110.953,-2.237 -111.492,-2.259c-2.26,-0.11 -4.192,1.533 -4.5,3.757c-0.308,2.222 1.125,4.318 3.307,4.837c0.563,0.133 57.259,13.416 134.778,13.416c37.18,-0 73.36,-3.019 107.536,-8.978c63.725,-11.171 68.186,-42.769 68.345,-44.109c0.222,-1.872 -0.785,-3.675 -2.498,-4.469Z" style="fill:#f084ad;fill-rule:nonzero;"/><rect x="278.339" y="441.885" width="54.836" height="369.879" style="fill:#f084ad;"/><rect x="202.537" y="507.192" width="49.927" height="369.879" style="fill:#f084ad;"/></g><g id="Outline"><path d="M367.437,441.885l-89.098,-0l-0,369.878l599.648,0l0,-369.878l-96.455,-0" style="fill:none;stroke:#020144;stroke-width:16.67px;"/><path d="M248.871,507.192l-46.334,-0l0,369.878l599.648,0l0,-37.711" style="fill:none;stroke:#020144;stroke-width:16.67px;"/></g></g></svg>