<?xml version="1.0" encoding="UTF-8" standalone="no"?><!DOCTYPE svg PUBLIC "-//W3C//DTD SVG 1.1//EN" "http://www.w3.org/Graphics/SVG/1.1/DTD/svg11.dtd"><svg width="100%" height="100%" viewBox="0 0 1081 1081" version="1.1" xmlns="http://www.w3.org/2000/svg" xmlns:xlink="http://www.w3.org/1999/xlink" xml:space="preserve" xmlns:serif="http://www.serif.com/" style="fill-rule:evenodd;clip-rule:evenodd;stroke-linejoin:round;stroke-miterlimit:2;"><rect id="_10_OpenElements_Yellow" serif:id="10_OpenElements_Yellow" x="0.824" y="0.564" width="1080" height="1080" style="fill:none;"/><clipPath id="_clip1"><rect x="0.824" y="0.564" width="1080" height="1080"/></clipPath><g clip-path="url(#_clip1)"><g id="Background"><rect x="0.824" y="0.564" width="1080" height="1080" style="fill:#fcf9da;"/></g><g id="Fill"></g><g id="Outline"></g><path d="M704.856,369.956l225.591,-0l0,-132.615l-476.024,0c103.936,0 195.817,52.607 250.433,132.615Z" style="fill:#020147;fill-rule:nonzero;stroke:#010044;stroke-width:16.67px;"/><path d="M750.157,606.872l180.29,-0l0,-132.615l-180.29,0c4.75,21.372 7.307,43.474 7.307,66.307c-0,22.833 -2.557,44.936 -7.307,66.308Z" style="fill:#020147;fill-rule:nonzero;stroke:#010044;stroke-width:16.67px;"/><path d="M454.423,843.788l476.024,-0l0,-132.615l-225.591,0c-54.616,80.007 -146.497,132.615 -250.433,132.615Z" style="fill:#020147;fill-rule:nonzero;stroke:#010044;stroke-width:16.67px;"/><path d="M750.157,474.257c-8.402,-37.994 -24.111,-73.248 -45.301,-104.301c-54.616,-80.008 -146.497,-132.615 -250.433,-132.615c-4.749,0 -9.316,0.183 -14.065,0.365c-160.745,7.307 -289.158,140.287 -289.158,302.858c-0,162.389 128.413,295.369 289.158,302.858c4.567,0.183 9.316,0.366 14.065,0.366c103.936,-0 195.817,-52.608 250.433,-132.615c21.19,-31.053 36.899,-66.307 45.301,-104.301c4.75,-21.372 7.307,-43.475 7.307,-66.308c-0,-22.833 -2.557,-44.935 -7.307,-66.307Zm-295.734,236.916c-94.072,0 -170.609,-76.536 -170.609,-170.609c0,-94.072 76.537,-170.608 170.609,-170.608c70.509,-0 131.336,43.108 157.092,104.301c8.585,20.459 13.334,42.744 13.334,66.307c0,23.564 -4.749,45.849 -13.334,66.308c-25.939,61.192 -86.583,104.301 -157.092,104.301Z" style="fill:#f1e34b;fill-rule:nonzero;stroke:#010044;stroke-width:16.67px;"/></g></svg>