<?xml version="1.0" encoding="UTF-8" standalone="no"?><!DOCTYPE svg PUBLIC "-//W3C//DTD SVG 1.1//EN" "http://www.w3.org/Graphics/SVG/1.1/DTD/svg11.dtd"><svg width="100%" height="100%" viewBox="0 0 1081 1081" version="1.1" xmlns="http://www.w3.org/2000/svg" xmlns:xlink="http://www.w3.org/1999/xlink" xml:space="preserve" xmlns:serif="http://www.serif.com/" style="fill-rule:evenodd;clip-rule:evenodd;stroke-linecap:round;stroke-linejoin:round;stroke-miterlimit:1.5;"><rect id="_03_Fully_Open_Sourced_Blue" serif:id="03_Fully_Open_Sourced_Blue" x="0.524" y="0.378" width="1080" height="1080" style="fill:none;"/><clipPath id="_clip1"><rect x="0.524" y="0.378" width="1080" height="1080"/></clipPath><g clip-path="url(#_clip1)"><g id="Background"><rect x="0.524" y="0.378" width="1080" height="1080" style="fill:#dff1fd;"/></g><g id="Outline"></g><path d="M468.767,667.628l-90.482,224.794c-127.344,-59.406 -215.685,-188.621 -215.685,-338.305c0,-205.912 167.175,-373.087 373.087,-373.087c205.912,0 373.086,167.175 373.086,373.087c-0,149.684 -88.341,278.899 -215.685,338.305c0,0 -90.482,-224.794 -90.482,-224.794c38.802,-22.941 64.849,-65.208 64.849,-113.511c0,-72.725 -59.043,-131.769 -131.768,-131.769c-72.725,0 -131.769,59.044 -131.769,131.769c0,48.303 26.047,90.57 64.849,113.511" style="fill:#5db9f5;"/><path d="M421.355,784.901l-46.13,114.825c-128.058,-60.341 -216.777,-190.62 -216.777,-341.457c-0,-208.204 169.035,-377.239 377.239,-377.239c208.203,0 377.238,169.035 377.238,377.239c0,150.464 -88.28,280.471 -215.827,341.008" style="fill:none;stroke:#020144;stroke-width:16.67px;"/><path d="M437.726,642.686c-21.027,-23.355 -33.831,-54.258 -33.831,-88.127c-0,-72.738 59.054,-131.792 131.792,-131.792c72.737,-0 131.791,59.054 131.791,131.792c0,34.615 -13.373,66.13 -35.231,89.658" style="fill:none;stroke:#020144;stroke-width:16.67px;"/><path d="M265.854,540.378c0,-148.924 120.908,-269.832 269.833,-269.832" style="fill:none;stroke:#020144;stroke-width:16.67px;"/><circle cx="871.583" cy="322.38" r="77.255" style="fill:none;stroke:#5cba9e;stroke-width:16.67px;"/><circle cx="168.508" cy="824.248" r="36.298" style="fill:#5cba9e;"/></g></svg>