<?xml version="1.0" encoding="UTF-8"?>
<svg id="Ebene_1" data-name="Ebene 1" xmlns="http://www.w3.org/2000/svg" xmlns:xlink="http://www.w3.org/1999/xlink" viewBox="0 0 274.94 274.33">
  <defs>
    <style>
      .cls-1, .cls-2 {
        fill: none;
      }

      .cls-2, .cls-3, .cls-4, .cls-5, .cls-6 {
        stroke: #000;
      }

      .cls-2, .cls-4, .cls-5, .cls-6 {
        stroke-linecap: round;
        stroke-linejoin: round;
        stroke-width: 2.55px;
      }

      .cls-3 {
        fill: #9dd7c5;
        stroke-miterlimit: 10;
        stroke-width: 3px;
      }

      .cls-4 {
        fill-rule: evenodd;
      }

      .cls-4, .cls-5 {
        fill: #5cba9e;
      }

      .cls-7 {
        fill: #d4d4fe;
      }

      .cls-6 {
        fill: #def1ec;
      }

      .cls-8 {
        clip-path: url(#clippath);
      }
    </style>
    <clipPath id="clippath">
      <rect class="cls-1" x="20.06" y="19.45" width="254.88" height="254.88"/>
    </clipPath>
  </defs>
  <rect id="_02_Java-Variant-2_Purple" data-name=" 02 Java-Variant-2 Purple" class="cls-1" x="20.06" y="19.45" width="254.88" height="254.88"/>
  <g class="cls-8">
    <g id="Background">
      <rect class="cls-7" x="20.06" y="19.45" width="254.88" height="254.88"/>
    </g>
    <rect id="_78-world" data-name=" 78-world" class="cls-1" width="254.91" height="254.91"/>
    <circle class="cls-6" cx="127.46" cy="127.46" r="91.16"/>
    <g>
      <path class="cls-4" d="M45.96,86.61c2.62-5.22,5.73-10.15,9.27-14.74l10.58,8.01-6.44,12.36-7.74,2.2s-5.68-7.84-5.68-7.84Z"/>
      <path class="cls-4" d="M65.54,60.58c5.81-5.38,12.31-10.01,19.36-13.74l12.84,12.52-13.59,13.33.19,8.81-7.12-.28-10.87-11.28,2.6-5.53s-3.4-3.83-3.4-3.83Z"/>
      <path class="cls-4" d="M196.68,68.17c13.67,15.94,21.94,36.66,21.94,59.29,0,3.05-.15,6.07-.44,9.04l-6.66,6.66-8.9-8.9h-5.71v-6.62l-7.09-7.09h-7.32l-6.1-6.1-3.99,3.99,10.5,10.5-7.16,7.16h-8.99l-5.74-5.74v-7.08h-4.85v12.01l8.8,8.8h10.86l-15.82,15.82v14.4l-4.23,4.23v6.03l-7.83,7.83h-9.16l-5.6-5.6v-4.73l-4.35-4.35,5.74-5.74v-10.7l-4.92-4.92v-5.95h-21.2l-7.43-7.43v-11.42l8.29-8.29v-4.39l19.96-5.88,11.56,11.56,8.09-8.09h9.01v-6.84h-8.38l-5.76-5.76h-10.6v-5.09h-4.54l-5.01,5.01h-6.1v7.03h-11.08v-11.79h6.07v-5.44l8.09-8.09h15.23l7.65-7.65v-4.44h-5.92l-4.39,4.39h-9.55v-5.52h3.66l10.72-10.72h8.9l10.75,10.75,7.03-7.03h12.52l7.16,7.16,4.28-4.28h8.04Z"/>
      <path class="cls-4" d="M71.23,199.19c-21.26-16.69-34.93-42.63-34.93-71.73,0-10.6,1.81-20.79,5.15-30.26l6.78,5.65,5.17-4.33h7.98l9.25,8.91-6.59,6.59h-8.3l-11.79,11.79v12.6l7.54,7.54v5.2h7.82l8.76,8.76v7.74l3.28,3.28h14.15v13.99l-14.27,14.27Z"/>
      <path class="cls-4" d="M109.61,74.05l7.38,7.38-7.27,7.27s-.11-14.64-.11-14.64Z"/>
      <circle class="cls-5" cx="97.73" cy="74.9" r="3.29"/>
      <ellipse class="cls-5" cx="169.85" cy="174.05" rx="3.29" ry="6.05"/>
    </g>
    <circle class="cls-2" cx="127.46" cy="127.46" r="91.16"/>
    <path class="cls-2" d="M41.45,97.2l6.78,5.65,5.17-4.33h7.98l9.25,8.91-6.59,6.59h-8.3l-11.79,11.79v12.6l7.54,7.54v5.2h7.82l8.76,8.76v7.74l3.28,3.28h14.15v13.99l-14.27,14.27M55.23,71.87l10.58,8.01-6.44,12.36-7.74,2.2-5.68-7.84M84.9,46.84l12.84,12.52-13.59,13.33.19,8.81-7.12-.28-10.87-11.28,2.6-5.53-3.4-3.83"/>
    <path class="cls-2" d="M196.68,68.17h-8.04l-4.28,4.28-7.16-7.16h-12.52l-7.03,7.03-10.75-10.75h-8.9l-10.72,10.72h-3.66v5.52h9.55l4.39-4.39h5.92v4.44l-7.65,7.65h-15.23l-8.09,8.09v5.44h-6.07v11.79h11.08v-7.03h6.1l5.01-5.01h4.54v5.09h10.6l5.76,5.76h8.38v6.84h-9.01l-8.09,8.09-11.56-11.56-19.96,5.88v4.39l-8.29,8.29v11.42l7.43,7.43h21.2v5.95l4.92,4.92v10.7l-5.74,5.74,4.35,4.35v4.73l5.6,5.6h9.16l7.83-7.83v-6.03l4.23-4.23v-14.4l15.82-15.82h-10.86l-8.8-8.8v-12.01h4.85v7.08l5.74,5.74h8.99l7.16-7.16-10.5-10.5,3.99-3.99,6.1,6.1h7.32l7.09,7.09v6.62h5.71l8.9,8.9,6.66-6.66"/>
    <path class="cls-2" d="M109.61,74.05l7.38,7.38-7.27,7.27s-.11-14.64-.11-14.64Z"/>
    <circle class="cls-2" cx="97.73" cy="74.9" r="3.29"/>
    <ellipse class="cls-2" cx="169.85" cy="174.05" rx="3.29" ry="6.05"/>
    <g id="Top_layer" data-name="Top layer">
      <path id="shape" class="cls-3" d="M211.98,226.38c7.94-2.95,12.07-8.62,12.07-18.38s-8.23-18.37-18.51-18.38c-10.85-.02-19.04,8.59-18.9,18.38.13,9.8,4.81,16.32,12.28,18.68l-13.25,32.6c-17.74-4.59-35.78-25.52-35.78-51.28,0-30.52,24.52-55.26,55.26-55.26s55.65,24.74,55.65,55.26c0,26.16-17.87,46.8-35.99,51.37l-12.84-32.99h.01Z"/>
    </g>
  </g>
</svg>