<?xml version="1.0" encoding="UTF-8" standalone="no"?>
<!DOCTYPE svg PUBLIC "-//W3C//DTD SVG 1.1//EN" "http://www.w3.org/Graphics/SVG/1.1/DTD/svg11.dtd">
<svg width="100%" height="100%" viewBox="0 0 1081 1081" version="1.1" xmlns="http://www.w3.org/2000/svg" xmlns:xlink="http://www.w3.org/1999/xlink" xml:space="preserve" xmlns:serif="http://www.serif.com/" style="fill-rule:evenodd;clip-rule:evenodd;stroke-linecap:round;stroke-linejoin:round;stroke-miterlimit:1.5;">
    <rect id="_08_Hedera_Blue" serif:id="08_Hedera_Blue" x="0.361" y="0.378" width="1080" height="1080" style="fill:none;"/>
    <g>
        <g id="Background">
            <rect x="0.361" y="0.378" width="1080" height="1080" style="fill:rgb(223,241,253);"/>
        </g>
        <g transform="matrix(0.695981,0,0,0.695981,347.3,692.053)">
            <g transform="matrix(1,0,0,1,-1250.5,-1250.5)">
                <rect id="_38-plugin" serif:id="38-plugin" x="0.158" y="0.031" width="2500" height="2500" style="fill:none;"/>
                <g>
                    <path d="M1754.01,1130.27C1754.01,1059.93 1806.45,1002.83 1871.05,1002.83C1935.65,1002.83 1988.1,1059.93 1988.1,1130.27L2113.66,1130.27L2113.66,601.946L1628.44,601.946L1628.44,738.668C1563.85,738.668 1511.4,795.772 1511.4,866.108C1511.4,936.444 1563.85,993.548 1628.44,993.548L1628.44,1130.27L1754.01,1130.27" style="fill:white;stroke:black;stroke-width:16.67px;"/>
                    <path d="M1725.3,1095.21L1660.64,1095.21L1660.64,993.543C1660.64,974.182 1646.22,958.487 1628.44,958.487C1581.61,958.487 1543.59,917.091 1543.59,866.103C1543.59,815.115 1581.61,773.719 1628.44,773.719C1646.22,773.719 1660.64,758.024 1660.64,738.663L1660.64,636.996L2081.46,636.996L2081.46,1095.21L2016.8,1095.21C2002.06,1022.35 1942.37,967.769 1871.05,967.769C1799.74,967.769 1740.04,1022.35 1725.3,1095.21Z" style="fill:rgb(190,227,251);"/>
                </g>
                <g>
                    <path d="M1492.02,1130.27L1628.44,1130.27L1628.44,1255.84C1558.11,1255.84 1501,1308.28 1501,1372.88C1501,1437.48 1558.11,1489.92 1628.44,1489.92L1628.44,1615.49L1100.12,1615.49L1100.12,1130.27L1236.74,1130.27C1236.73,1130.49 1236.73,1130.72 1236.73,1130.94C1236.73,1201.39 1293.93,1258.59 1364.38,1258.59C1434.83,1258.59 1492.02,1201.39 1492.02,1130.94C1492.02,1130.72 1492.02,1130.49 1492.02,1130.27Z" style="fill:none;stroke:black;stroke-width:16.67px;"/>
                    <path d="M1522.03,1163.6L1595.11,1163.6L1595.11,1225.73C1521.89,1240.17 1467.67,1301.2 1467.67,1372.88C1467.67,1444.55 1521.89,1505.58 1595.11,1520.02L1595.11,1582.15L1133.45,1582.15L1133.45,1163.6L1206.72,1163.6C1221.83,1236.81 1286.72,1291.92 1364.37,1291.92C1442.03,1291.92 1506.92,1236.81 1522.03,1163.6Z" style="fill:rgb(190,227,251);"/>
                </g>
                <path d="M1754.92,1130.27L1628.45,1130.27L1628.45,1256.83C1624.78,1256.48 1621.06,1256.3 1617.3,1256.3C1552.95,1256.3 1500.72,1308.54 1500.72,1372.88C1500.72,1437.22 1552.95,1489.46 1617.3,1489.46C1621.06,1489.46 1624.78,1489.28 1628.45,1488.93L1628.45,1615.49L2113.66,1615.49L2113.66,1130.27L1987.19,1130.27C1987.49,1126.9 1987.63,1123.49 1987.63,1120.05C1987.63,1055.7 1935.4,1003.47 1871.06,1003.47C1806.72,1003.47 1754.48,1055.7 1754.48,1120.05C1754.48,1123.49 1754.63,1126.9 1754.92,1130.27" style="fill:rgb(157,214,197);stroke:black;stroke-width:16.67px;"/>
                <g transform="matrix(1,0,0,1,317.658,-609.248)">
                    <path d="M1122.59,1317.85C1054.65,1336.06 985.918,1300.18 969.199,1237.78C952.48,1175.38 994.065,1109.95 1062,1091.74L1029.51,970.453L519.182,1107.19L644.766,1575.88L776.83,1540.49C793.549,1602.89 862.281,1638.77 930.221,1620.56C998.16,1602.36 1039.75,1536.92 1023.03,1474.53L1155.09,1439.14L1122.59,1317.85" style="fill:white;stroke:black;stroke-width:16.67px;"/>
                    <path d="M1096.16,1354.65L1112.9,1417.11L1014.69,1443.42C995.993,1448.43 984.563,1466.42 989.165,1483.6C1001.28,1528.83 971.14,1576.27 921.889,1589.46C872.638,1602.66 822.812,1576.65 810.692,1531.42C806.09,1514.24 787.199,1504.38 768.498,1509.39L670.296,1535.7L561.377,1129.22L1003.98,1010.62L1020.71,1073.08C954.153,1106.17 916.881,1177.96 935.339,1246.85C953.796,1315.74 1021.97,1359.27 1096.16,1354.65Z" style="fill:rgb(157,214,197);"/>
                </g>
            </g>
        </g>
    </g>
</svg>
