<?xml version="1.0" encoding="UTF-8" standalone="no"?>
<!DOCTYPE svg PUBLIC "-//W3C//DTD SVG 1.1//EN" "http://www.w3.org/Graphics/SVG/1.1/DTD/svg11.dtd">
<svg width="100%" height="100%" viewBox="0 0 1080 1081" version="1.1" xmlns="http://www.w3.org/2000/svg" xmlns:xlink="http://www.w3.org/1999/xlink" xml:space="preserve" xmlns:serif="http://www.serif.com/" style="fill-rule:evenodd;clip-rule:evenodd;stroke-linecap:round;stroke-linejoin:round;stroke-miterlimit:1.5;">
    <rect id="_01_Java-Variant-1_Purple" serif:id="01_Java Variant 1_Purple" x="0" y="0.934" width="1080" height="1080" style="fill:none;"/>
    <g>
        <g id="Background">
            <rect x="0" y="0.934" width="1080" height="1080" style="fill:rgb(212,212,254);"/>
        </g>
    </g>
    <g transform="matrix(0.466435,0,0,0.466435,570.768,528.514)">
        <g transform="matrix(1,0,0,1,-1250.5,-1250.5)">
            <rect id="_45-party" serif:id="45-party" x="0.712" y="0.381" width="2500" height="2500" style="fill:none;"/>
            <g>
                <path d="M806.558,2240.53L806.558,2270.7C806.558,2270.7 749.479,2283.51 735.962,2325.99L911.919,2325.99L911.919,2240.53L806.558,2240.53Z" style="fill:rgb(187,23,86);stroke:black;stroke-width:16.67px;"/>
            </g>
            <g>
                <path d="M1536.67,1897.37L1562.8,1882.28C1562.8,1882.28 1602.44,1925.31 1645.98,1915.78L1558,1763.39L1483.99,1806.12L1536.67,1897.37Z" style="fill:rgb(187,23,86);stroke:black;stroke-width:16.67px;"/>
            </g>
            <path d="M1008.97,1368.18L995.557,1471.6L1314.36,1470.43L1303.39,1360.23" style="fill:none;stroke:black;stroke-width:16.67px;"/>
            <path d="M809.82,1027.65L1097.17,1027.65L1097.17,984.057M852.12,1156.29L814.033,1148.02C774.872,1146.3 738.848,1126.11 716.944,1093.6L715.942,1092.11C715.778,1091.87 715.645,1091.61 715.545,1091.33L712.342,1082.79M1208.79,1000.94L1208.79,1027.65L1504.15,1027.65L1598.97,774.047L1576.6,720.881L1573.27,679.174C1572.73,672.384 1577.56,666.344 1584.31,665.38L1585.15,665.259C1590.52,664.492 1595.63,667.81 1597.11,673.024L1606.26,705.286C1606.62,706.557 1607.77,707.439 1609.09,707.452C1610.41,707.466 1611.59,706.607 1611.97,705.344L1633,636.555C1633.84,633.801 1635.78,631.519 1638.36,630.248C1640.95,628.977 1643.94,628.831 1646.63,629.844L1647.13,630.03C1649.62,630.966 1651.17,633.456 1650.9,636.102L1645.28,692.943L1675.89,620.676C1676.79,618.557 1678.52,616.901 1680.68,616.096C1682.83,615.291 1685.22,615.408 1687.29,616.42L1687.93,616.732C1690,617.744 1691.03,620.104 1690.37,622.311L1667.5,698.952L1704.63,643.139C1706.74,639.97 1710.7,638.604 1714.32,639.803L1714.32,639.804C1715.91,640.333 1717.23,641.488 1717.96,643.002C1718.69,644.517 1718.77,646.264 1718.19,647.842L1694.45,712.501L1724.8,681.279C1728.5,677.476 1734.38,676.86 1738.79,679.816L1738.83,679.845C1742.16,682.077 1743.09,686.56 1740.92,689.93L1667.5,804.226L1610.42,1068.26C1604.74,1083.86 1597.18,1098.71 1587.91,1112.47L1584.48,1117.56C1572.73,1135 1553.4,1145.83 1532.4,1146.75L1481.09,1155.91M1337.3,1193.19L1337.3,1393.31L968.654,1393.31L968.654,1202.4" style="fill:none;stroke:black;stroke-width:16.67px;"/>
            <path d="M712.342,1082.78C705.84,1060.54 705.631,1036.61 712.235,1013.76L712.733,1012.04C712.814,1011.76 712.93,1011.49 713.077,1011.24L870.402,733.766L910.977,604.122C912.173,600.299 916.208,598.136 920.054,599.254L920.102,599.268C925.195,600.75 928.5,605.662 927.954,610.938L923.473,654.246L957.843,594.555C958.682,593.097 960.076,592.042 961.706,591.631C963.337,591.219 965.065,591.486 966.495,592.37C969.733,594.372 971.23,598.293 970.152,601.943L951.158,666.229L995.277,599.519C996.547,597.598 999.02,596.877 1001.12,597.814L1001.77,598.102C1003.87,599.038 1005.5,600.798 1006.26,602.968C1007.03,605.138 1006.87,607.527 1005.82,609.574L970.02,679.416L1010.02,638.639C1011.88,636.742 1014.78,636.332 1017.1,637.64L1017.56,637.901C1020.06,639.318 1021.87,641.708 1022.55,644.505C1023.24,647.302 1022.73,650.256 1021.16,652.668L981.877,712.926C981.156,714.033 981.25,715.482 982.107,716.487C982.965,717.492 984.382,717.812 985.588,717.273L1016.21,703.596C1021.16,701.385 1026.98,703.173 1029.83,707.782L1030.28,708.51C1033.87,714.3 1032.33,721.882 1026.78,725.823L992.655,750.031L937.52,766.976L809.82,1027.64M937.52,766.976L937.518,766.976" style="fill:none;stroke:black;stroke-width:16.67px;"/>
            <path d="M1013.37,1027.65C1030.15,1057.19 1065.27,1098.65 1135.09,1117.36C1227.39,1142.09 1284.96,1060.34 1303.84,1027.65L1468.94,1027.65L1483.99,1186.53L1337.3,1193.19L1337.3,1393.31L968.652,1393.31L968.652,1202.4L847.871,1188.59L869.033,1027.65L1013.37,1027.65" style="fill:rgb(240,132,173);stroke:black;stroke-width:16.67px;"/>
            <path d="M1108.81,1642.73L919.882,2262.84L781.886,2238.28L995.571,1471.6L1032.22,1471.6L1314.36,1470.43L1337.3,1586.17L1284.55,1859.97C1282.64,1869.87 1286.56,1879.99 1294.65,1886.02C1302.73,1892.05 1313.55,1892.92 1322.5,1888.26L1484,1804.2L1531.61,1902.1L1301.94,2019.99C1265.21,2038.85 1221.16,2036.4 1186.74,2013.59L1184.35,2012.01C1149.67,1989.03 1130.24,1949.01 1133.62,1907.55L1151.97,1682.57C1152.76,1672.89 1149.64,1663.3 1143.32,1655.94C1136.99,1648.58 1127.98,1644.06 1118.3,1643.39L1108.81,1642.73Z" style="stroke:black;stroke-width:16.67px;"/>
            <g>
                <path d="M1039.94,848.233C1022.3,843.506 1012.75,821.831 1018.64,799.862C1024.53,777.893 1043.63,763.894 1061.27,768.622" style="fill:none;stroke:black;stroke-width:16.67px;"/>
                <path d="M1318.4,837.519C1336.04,842.247 1345.59,863.921 1339.7,885.89C1333.81,907.86 1314.71,921.858 1297.07,917.13" style="fill:none;stroke:black;stroke-width:16.67px;"/>
                <path d="M1236.86,627.612C1270.96,636.748 1300.03,659.055 1317.67,689.624C1335.33,720.194 1340.11,756.523 1330.97,790.619C1320.83,828.471 1309.73,869.879 1299.59,907.732C1280.57,978.736 1207.58,1020.87 1136.58,1001.85C1065.58,982.822 1023.44,909.839 1042.46,838.835C1052.61,800.985 1063.7,759.58 1073.84,721.73C1092.87,650.724 1165.85,608.586 1236.86,627.612L1236.86,627.612Z" style="fill:none;stroke:black;stroke-width:16.67px;"/>
                <path d="M1061.28,768.622L1073.85,721.726C1092.87,650.722 1165.85,608.586 1236.86,627.611C1307.86,646.636 1350,719.619 1330.97,790.623L1318.41,837.519L1294.91,768.591L1279.25,827.027L1098.03,778.468L1112.8,723.332L1061.28,768.622Z" style="stroke:black;stroke-width:16.67px;"/>
                <path d="M1228.52,851.262C1232.29,852.274 1233.56,859.805 1231.35,868.069C1229.13,876.334 1224.27,882.222 1220.5,881.211C1216.72,880.199 1215.45,872.669 1217.67,864.404C1219.88,856.139 1224.75,850.251 1228.52,851.262Z" style="stroke:black;stroke-width:16.67px;"/>
                <path d="M1132.25,825.466C1128.48,824.455 1123.61,830.344 1121.4,838.608C1119.18,846.873 1120.45,854.403 1124.23,855.415C1128,856.426 1132.86,850.538 1135.08,842.273C1137.29,834.009 1136.03,826.478 1132.25,825.466Z" style="stroke:black;stroke-width:16.67px;"/>
                <path d="M1114.96,917.32C1114.96,917.32 1147.3,964.717 1197.55,939.451" style="fill:none;stroke:black;stroke-width:16.67px;"/>
                <path d="M1061.28,768.622L1112.8,723.332L1098.03,778.468L1279.25,827.027L1294.91,768.591L1318.41,837.519" style="fill:none;stroke:black;stroke-width:16.67px;"/>
                <path d="M1317.14,560.617C1356,571.029 1379.09,611.031 1368.68,649.89C1358.27,688.749 1318.27,711.844 1279.41,701.432C1240.55,691.02 1217.45,651.018 1227.87,612.159C1238.28,573.3 1278.28,550.205 1317.14,560.617Z" style="stroke:black;stroke-width:16.67px;"/>
                <path d="M1373.99,683.79C1396.12,689.721 1409.28,712.508 1403.35,734.643C1397.42,756.779 1374.63,769.935 1352.5,764.004C1330.36,758.072 1317.2,735.286 1323.14,713.15C1329.07,691.015 1351.85,677.859 1373.99,683.79Z" style="stroke:black;stroke-width:16.67px;"/>
                <path d="M1427.17,755.557C1449.31,761.488 1462.46,784.275 1456.53,806.41C1450.6,828.546 1427.81,841.702 1405.68,835.771C1383.54,829.839 1370.38,807.053 1376.32,784.917C1382.25,762.782 1405.03,749.626 1427.17,755.557Z" style="stroke:black;stroke-width:16.67px;"/>
                <path d="M1465.54,826.416C1481.69,830.744 1491.29,847.368 1486.96,863.518C1482.63,879.668 1466.01,889.266 1449.86,884.939C1433.71,880.611 1424.11,863.987 1428.44,847.837C1432.77,831.687 1449.39,822.089 1465.54,826.416Z" style="stroke:black;stroke-width:16.67px;"/>
                <path d="M1514.15,889.968C1526.71,893.333 1534.17,906.259 1530.81,918.816C1527.44,931.373 1514.51,938.836 1501.96,935.471C1489.4,932.107 1481.94,919.18 1485.3,906.624C1488.67,894.067 1501.59,886.604 1514.15,889.968Z" style="stroke:black;stroke-width:16.67px;"/>
            </g>
            <path d="M1468.94,1027.65L1483.99,1186.53L1337.3,1193.19" style="fill:none;stroke:black;stroke-width:16.67px;"/>
            <path d="M869.035,1027.65L847.873,1188.59L968.654,1202.4" style="fill:none;stroke:black;stroke-width:16.67px;"/>
            <path d="M1303.84,1027.65C1284.96,1060.34 1227.39,1142.09 1135.09,1117.36C1065.27,1098.65 1030.15,1057.19 1013.37,1027.65" style="fill:none;stroke:black;stroke-width:16.67px;"/>
            <path d="M1954.43,361.766L1990.89,482.363L1917.57,504.526L1881.11,383.929L1954.43,361.766Z" style="fill:rgb(240,132,173);"/>
            <path d="M2167.87,1163.85L2060.78,1230.22L2020.43,1165.12L2127.52,1098.75L2167.87,1163.85Z" style="fill:rgb(240,132,173);"/>
            <path d="M1584.26,362.312L1540.73,433.146L1475.48,393.044L1519,322.211L1584.26,362.312Z" style="fill:rgb(157,214,197);"/>
            <path d="M1529.86,596.482L1486.33,667.316L1421.07,627.214L1464.6,556.381L1529.86,596.482Z" style="fill:rgb(92,186,158);"/>
            <path d="M1286.27,214.871L1220.31,322.211L1155.05,282.109L1221.01,174.77L1286.27,214.871Z" style="fill:rgb(240,132,173);"/>
            <path d="M896.133,304.619L900.432,430.532L823.883,433.146L819.584,307.232L896.133,304.619Z" style="fill:rgb(157,214,197);"/>
            <path d="M463.33,669.627L503.422,748.358L435.169,783.115L395.077,704.383L463.33,669.627Z" style="fill:rgb(93,185,245);"/>
            <path d="M468.016,1440.58L400.544,1497.62L351.096,1439.13L418.568,1382.09L468.016,1440.58Z" style="fill:rgb(93,185,245);"/>
            <path d="M1819.32,1126.32L1859.41,1205.05L1791.16,1239.81L1751.07,1161.08L1819.32,1126.32Z" style="fill:rgb(62,146,121);"/>
            <path d="M2080.78,726.371L2120.87,805.102L2052.62,839.858L2012.53,761.127L2080.78,726.371Z" style="fill:rgb(157,214,197);"/>
            <path d="M1994.43,1437.39L1933.9,1501.75L1878.11,1449.27L1938.64,1384.91L1994.43,1437.39Z" style="fill:rgb(157,214,197);"/>
            <path d="M717.619,501.39L691.049,544.628L625.792,504.526L652.363,461.289L717.619,501.39Z" style="fill:rgb(92,186,158);"/>
            <path d="M750.725,1193.38L759.099,1243.43L683.556,1256.07L675.181,1206.02L750.725,1193.38Z" style="fill:rgb(62,146,121);"/>
            <path d="M426.416,321.689L448.782,367.243L380.029,401L357.662,355.445L426.416,321.689Z" style="fill:rgb(157,214,197);"/>
            <path d="M402.308,1063.58L424.674,1109.13L355.92,1142.89L333.554,1097.34L402.308,1063.58Z" style="fill:rgb(92,186,158);"/>
            <path d="M686.947,1661.45L709.313,1707L640.56,1740.76L618.193,1695.21L686.947,1661.45Z" style="fill:rgb(92,186,158);"/>
        </g>
    </g>
</svg>
