<?xml version="1.0" encoding="UTF-8" standalone="no"?><!DOCTYPE svg PUBLIC "-//W3C//DTD SVG 1.1//EN" "http://www.w3.org/Graphics/SVG/1.1/DTD/svg11.dtd"><svg width="100%" height="100%" viewBox="0 0 1080 1081" version="1.1" xmlns="http://www.w3.org/2000/svg" xmlns:xlink="http://www.w3.org/1999/xlink" xml:space="preserve" xmlns:serif="http://www.serif.com/" style="fill-rule:evenodd;clip-rule:evenodd;stroke-linecap:round;stroke-linejoin:round;stroke-miterlimit:1.5;"><rect id="_01_Downloads_Yellow" serif:id="01_Downloads_Yellow" x="0" y="0.564" width="1080" height="1080" style="fill:none;"/><clipPath id="_clip1"><rect x="0" y="0.564" width="1080" height="1080"/></clipPath><g clip-path="url(#_clip1)"><g id="Background"><rect x="0" y="0.564" width="1080" height="1080" style="fill:#fcf9da;"/></g><path d="M406.549,618.723c3.395,-25.763 9.075,-51.28 17.04,-76.223c14.067,-44.054 35.26,-86.318 63.579,-124.978c13.131,-17.926 27.794,-35.077 43.989,-51.272c85.204,-85.204 196.86,-128.001 308.636,-128.391c-0.352,101.053 -35.365,202.006 -105.037,283.405c-7.394,8.639 -15.179,17.057 -23.353,25.231c-41.746,41.746 -89.84,73.311 -141.188,94.697c-35.86,14.936 -73.307,24.906 -111.285,29.912" style="fill:#f1e34b;stroke:#020147;stroke-width:16.67px;"/><path d="M804.407,409.315c-24.349,-13.741 -47.253,-30.974 -67.979,-51.7c-26.066,-26.067 -46.608,-55.579 -61.627,-87.076" style="fill:none;stroke:#020147;stroke-width:16.67px;"/><path d="M652.572,595.899c-5.851,71.894 -36.252,142.157 -91.203,197.108c-8.661,8.661 -17.703,16.713 -27.071,24.154" style="fill:none;stroke:#020147;stroke-width:16.67px;"/><path d="M253.69,536.553c7.441,-9.368 15.493,-18.41 24.154,-27.071c58.06,-58.06 133.214,-88.713 209.324,-91.96m-233.478,119.031c7.441,-9.368 15.493,-18.41 24.154,-27.071c58.06,-58.06 133.214,-88.713 209.324,-91.96" style="fill:none;stroke:#020147;stroke-width:16.67px;"/><path d="M530.818,655.423c15.147,52.688 16.307,108.562 3.48,161.738" style="fill:none;stroke:#020147;stroke-width:16.67px;"/><path d="M253.69,536.553c55.93,-13.491 114.846,-11.509 169.899,5.947m-169.899,-5.947c55.93,-13.491 114.846,-11.509 169.899,5.947" style="fill:none;stroke:#020147;stroke-width:16.67px;"/><path d="M652.968,417.883c19.366,19.366 19.366,50.812 0,70.178c-19.366,19.366 -50.812,19.366 -70.178,-0c-19.366,-19.366 -19.366,-50.812 0,-70.178c19.366,-19.366 50.812,-19.366 70.178,-0Z" style="fill:#f084ad;stroke:#020147;stroke-width:16.67px;"/><path d="M348.345,676.926l63.847,-63.847l52.381,52.381l-63.846,63.847" style="fill:none;stroke:#020147;stroke-width:16.67px;"/><path d="M247.773,654.66l10.689,-10.689c7.549,-7.549 17.788,-11.79 28.464,-11.79c10.676,-0 20.915,4.241 28.465,11.79l32.954,32.955m52.382,52.381l32.954,32.955c7.55,7.549 11.791,17.788 11.791,28.464c-0,10.677 -4.241,20.916 -11.791,28.465l-10.688,10.689" style="fill:none;stroke:#020147;stroke-width:16.67px;"/><path d="M422.993,829.88l19.895,19.895c7.549,7.549 11.79,17.788 11.79,28.464c0,10.676 -4.241,20.915 -11.79,28.465" style="fill:none;stroke:#020147;stroke-width:16.67px;"/><path d="M170.949,634.765c7.549,-7.549 17.788,-11.79 28.465,-11.79c10.676,-0 20.915,4.241 28.464,11.79l19.895,19.895" style="fill:none;stroke:#020147;stroke-width:16.67px;"/><path d="M219.308,683.124c11.022,11.022 11.022,28.919 0,39.941c-11.021,11.021 -28.918,11.021 -39.94,-0c-11.021,-11.022 -11.021,-28.919 0,-39.941c11.022,-11.021 28.919,-11.021 39.94,0Z" style="fill:#f084ad;stroke:#020147;stroke-width:16.67px;"/><path d="M243.533,771.201c7.722,7.722 7.722,20.262 -0,27.984c-7.722,7.723 -20.262,7.723 -27.984,0c-7.723,-7.722 -7.723,-20.262 -0,-27.984c7.722,-7.723 20.262,-7.723 27.984,-0Z" style="fill:#020147;"/><path d="M374.558,878.314c11.022,11.022 11.022,28.919 0,39.94c-11.022,11.022 -28.918,11.022 -39.94,0c-11.022,-11.021 -11.022,-28.918 -0,-39.94c11.022,-11.022 28.918,-11.022 39.94,0Z" style="fill:#f084ad;stroke:#020147;stroke-width:16.67px;"/><path d="M381.15,748.884c16.198,16.198 16.198,42.5 0,58.699c-16.198,16.198 -42.5,16.198 -58.699,-0c-16.198,-16.199 -16.198,-42.501 0,-58.699c16.199,-16.199 42.501,-16.199 58.699,-0Z" style="fill:#f084ad;stroke:#020147;stroke-width:16.67px;"/></g></svg>