<?xml version="1.0" encoding="UTF-8" standalone="no"?><!DOCTYPE svg PUBLIC "-//W3C//DTD SVG 1.1//EN" "http://www.w3.org/Graphics/SVG/1.1/DTD/svg11.dtd"><svg width="100%" height="100%" viewBox="0 0 1081 1081" version="1.1" xmlns="http://www.w3.org/2000/svg" xmlns:xlink="http://www.w3.org/1999/xlink" xml:space="preserve" xmlns:serif="http://www.serif.com/" style="fill-rule:evenodd;clip-rule:evenodd;stroke-linecap:round;stroke-linejoin:round;stroke-miterlimit:1.5;"><rect id="_05_Security_Pink" serif:id="05_Security_Pink" x="0.291" y="0.513" width="1080" height="1080" style="fill:none;"/><clipPath id="_clip1"><rect x="0.291" y="0.513" width="1080" height="1080"/></clipPath><g clip-path="url(#_clip1)"><g id="Background"><rect x="0.291" y="0.513" width="1080" height="1080" style="fill:#fad6e4;"/></g><g id="Layer2"><rect x="166.847" y="198.23" width="727.435" height="110.258" style="fill:#f084ad;"/><path d="M815.469,625.852c-0,-0 -0,-51.834 -0,-94.955c-0,-15.118 6.005,-29.617 16.695,-40.307c10.69,-10.69 25.189,-16.695 40.307,-16.695l0.001,-0c31.481,-0 57.002,25.521 57.002,57.002c-0,16.747 -0,30.668 -0,30.668" style="fill:none;stroke:#020144;stroke-width:16.67px;"/><path d="M744.571,765.593l-577.724,0l0,-567.363l727.435,0l0,427.622" style="fill:none;stroke:#020144;stroke-width:16.67px;"/><path d="M166.847,303.871l727.435,-0" style="fill:none;stroke:#020144;stroke-width:16.67px;"/><path d="M214.194,250.914l61.377,-0" style="fill:none;stroke:#020144;stroke-width:16.67px;"/><path d="M313.563,250.914l61.377,-0" style="fill:none;stroke:#020144;stroke-width:16.67px;"/><path d="M657.598,250.914l173.945,-0" style="fill:none;stroke:#020144;stroke-width:16.67px;"/></g><path d="M518.554,409.097l-58.91,234.036" style="fill:none;fill-rule:nonzero;stroke:#5db9f5;stroke-width:16.67px;stroke-linejoin:miter;stroke-miterlimit:4;"/><path d="M428.954,464.241l-58.355,61.936l58.355,61.813m120.29,-123.749l58.355,61.936l-58.355,61.813" style="fill:none;fill-rule:nonzero;stroke:#5db9f5;stroke-width:16.67px;stroke-miterlimit:4;"/><path d="M915.42,625.852c18.98,-0 34.366,15.386 34.366,34.366c0,42.113 0,113.046 0,155.159c0,18.98 -15.386,34.366 -34.366,34.366c-37.914,0 -98.569,0 -136.483,0c-18.98,0 -34.366,-15.386 -34.366,-34.366c-0,-42.113 -0,-113.046 -0,-155.159c-0,-18.98 15.386,-34.366 34.366,-34.366c37.914,-0 98.569,-0 136.483,-0Z" style="fill:#f084ad;stroke:#020144;stroke-width:16.67px;"/><path d="M862.034,741.304l-0,32.835c-0,8.204 -6.651,14.854 -14.854,14.854l-0.003,0c-8.203,0 -14.854,-6.65 -14.854,-14.854l0,-32.835c-10.023,-5.33 -16.854,-15.882 -16.854,-28.017c-0,-17.501 14.208,-31.71 31.71,-31.71c17.501,0 31.709,14.209 31.709,31.71c0,12.135 -6.831,22.687 -16.854,28.017" style="fill:#fcf9da;stroke:#020144;stroke-width:16.67px;"/><circle cx="208.051" cy="769.242" r="77.255" style="fill:none;stroke:#5db9f5;stroke-width:16.67px;"/><circle cx="370.599" cy="846.497" r="36.298" style="fill:none;stroke:#5db9f5;stroke-width:16.67px;"/></g></svg>