<?xml version="1.0" encoding="UTF-8" standalone="no"?><!DOCTYPE svg PUBLIC "-//W3C//DTD SVG 1.1//EN" "http://www.w3.org/Graphics/SVG/1.1/DTD/svg11.dtd"><svg width="100%" height="100%" viewBox="0 0 1081 1081" version="1.1" xmlns="http://www.w3.org/2000/svg" xmlns:xlink="http://www.w3.org/1999/xlink" xml:space="preserve" xmlns:serif="http://www.serif.com/" style="fill-rule:evenodd;clip-rule:evenodd;stroke-linecap:round;stroke-linejoin:round;stroke-miterlimit:1.5;"><rect id="_05_Seminar_Yellow" serif:id="05_Seminar_Yellow" x="0.291" y="0.26" width="1080" height="1080" style="fill:none;"/><clipPath id="_clip1"><rect x="0.291" y="0.26" width="1080" height="1080"/></clipPath><g clip-path="url(#_clip1)"><g id="Background"><rect x="0.291" y="0.26" width="1080" height="1080" style="fill:#fcf9da;"/></g><g id="Fill"><path d="M312.393,388.485l1.17,151.775l431.348,-0l-0,-171.866c-0,-0 -18.771,-9.331 -69.812,20.091c-51.04,29.423 -100.937,86.153 -148.396,81.425c-47.459,-4.728 -91.52,-16.683 -108.583,-56.496c0,0 -17.508,1.163 -58.692,-11.421c-41.184,-12.584 -47.035,-13.508 -47.035,-13.508Z" style="fill:#f1e34b;"/><circle cx="427.796" cy="642.692" r="43.899" style="fill:#f084ad;"/><circle cx="738.477" cy="721.256" r="43.899" style="fill:#f084ad;"/><circle cx="597.623" cy="640.612" r="43.899" style="fill:#f1e34b;"/><circle cx="285.962" cy="721.698" r="43.899" style="fill:#f1e34b;"/><path d="M363.132,791.404l134.144,0c0,0 -4.906,-78.655 -63.502,-78.655c-58.596,-0 -70.642,56.157 -70.642,78.655Z" style="fill:#f1e34b;"/><path d="M673.01,871.043l134.145,-0c-0,-0 -4.907,-78.656 -63.502,-78.656c-58.596,0 -70.643,56.158 -70.643,78.656Z" style="fill:#f1e34b;"/></g><g id="Outline"><rect x="313.151" y="283.704" width="431.76" height="256.556" style="fill:none;stroke:#020144;stroke-width:16.67px;"/><path d="M744.911,540.26l225.66,225.66" style="fill:none;stroke:#020144;stroke-width:16.67px;"/><path d="M744.911,283.704l82.952,-82.952" style="fill:none;stroke:#020144;stroke-width:16.67px;"/><path d="M313.151,540.26l-225.66,225.66" style="fill:none;stroke:#020144;stroke-width:16.67px;"/><path d="M313.151,283.704l-82.953,-82.952" style="fill:none;stroke:#020144;stroke-width:16.67px;"/><path d="M213.885,370.328c37.828,-5.606 103.296,17.895 136.793,33.392c33.497,15.497 103.692,18.384 119.226,-23.285c18.371,-49.281 -53.618,-63.546 -60.755,-21.821c-5.488,32.08 7.274,115.249 114.033,111.15c94.752,-3.638 107.832,-93.509 199.168,-99.436c73.807,-4.79 117.171,38.299 117.171,38.299" style="fill:none;stroke:#020144;stroke-width:16.67px;"/><circle cx="286.355" cy="722.021" r="43.899" style="fill:none;stroke:#020144;stroke-width:16.67px;"/><circle cx="737.088" cy="722.021" r="43.899" style="fill:none;stroke:#020144;stroke-width:16.67px;"/><circle cx="427.051" cy="643.083" r="43.899" style="fill:none;stroke:#020144;stroke-width:16.67px;"/><circle cx="596.403" cy="643.083" r="43.899" style="fill:none;stroke:#020144;stroke-width:16.67px;"/><path d="M222.086,865.814c0,0 4.071,-74.063 69.027,-74.063c60.714,0 66.604,74.063 66.604,74.063" style="fill:none;stroke:#020144;stroke-width:16.67px;"/><path d="M672.82,865.814c-0,0 4.07,-74.063 69.026,-74.063c60.715,0 66.605,74.063 66.605,74.063" style="fill:none;stroke:#020144;stroke-width:16.67px;"/><path d="M362.783,786.876c-0,0 4.07,-74.063 69.026,-74.063c60.715,0 66.605,74.063 66.605,74.063" style="fill:none;stroke:#020144;stroke-width:16.67px;"/><path d="M532.134,786.876c-0,0 4.07,-74.063 69.026,-74.063c60.715,0 66.605,74.063 66.605,74.063" style="fill:none;stroke:#020144;stroke-width:16.67px;"/></g></g></svg>