<?xml version="1.0" encoding="UTF-8" standalone="no"?><!DOCTYPE svg PUBLIC "-//W3C//DTD SVG 1.1//EN" "http://www.w3.org/Graphics/SVG/1.1/DTD/svg11.dtd"><svg width="100%" height="100%" viewBox="0 0 1081 1081" version="1.1" xmlns="http://www.w3.org/2000/svg" xmlns:xlink="http://www.w3.org/1999/xlink" xml:space="preserve" xmlns:serif="http://www.serif.com/" style="fill-rule:evenodd;clip-rule:evenodd;stroke-linecap:round;stroke-linejoin:round;stroke-miterlimit:1.5;"><rect id="_05_Seminar_Pink" serif:id="05_Seminar_Pink" x="0.291" y="0.022" width="1080" height="1080" style="fill:none;"/><clipPath id="_clip1"><rect x="0.291" y="0.022" width="1080" height="1080"/></clipPath><g clip-path="url(#_clip1)"><g id="Background"><rect x="0.291" y="0.022" width="1080" height="1080" style="fill:#fad6e4;"/></g><g id="Fill"><path d="M312.393,388.248l1.17,151.774l431.348,0l-0,-171.866c-0,0 -18.771,-9.331 -69.812,20.092c-51.04,29.423 -100.937,86.153 -148.396,81.425c-47.459,-4.728 -91.52,-16.683 -108.583,-56.496c0,0 -17.508,1.162 -58.692,-11.422c-41.184,-12.583 -47.035,-13.507 -47.035,-13.507Z" style="fill:#5db9f5;"/><circle cx="427.796" cy="642.455" r="43.899" style="fill:#5db9f5;"/><circle cx="738.477" cy="721.018" r="43.899" style="fill:#5db9f5;"/><circle cx="597.623" cy="640.375" r="43.899" style="fill:#f084ad;"/><circle cx="285.962" cy="721.46" r="43.899" style="fill:#f084ad;"/><path d="M363.132,791.167l134.144,-0c0,-0 -4.906,-78.656 -63.502,-78.656c-58.596,0 -70.642,56.158 -70.642,78.656Z" style="fill:#f084ad;"/><path d="M673.01,870.805l134.145,0c-0,0 -4.907,-78.655 -63.502,-78.655c-58.596,0 -70.643,56.157 -70.643,78.655Z" style="fill:#f084ad;"/></g><g id="Outline"><rect x="313.151" y="283.467" width="431.76" height="256.556" style="fill:none;stroke:#020144;stroke-width:16.67px;"/><path d="M744.911,540.022l225.66,225.661" style="fill:none;stroke:#020144;stroke-width:16.67px;"/><path d="M744.911,283.467l82.952,-82.953" style="fill:none;stroke:#020144;stroke-width:16.67px;"/><path d="M313.151,540.022l-225.66,225.661" style="fill:none;stroke:#020144;stroke-width:16.67px;"/><path d="M313.151,283.467l-82.953,-82.953" style="fill:none;stroke:#020144;stroke-width:16.67px;"/><path d="M213.885,370.09c37.828,-5.605 103.296,17.895 136.793,33.392c33.497,15.498 103.692,18.384 119.226,-23.284c18.371,-49.282 -53.618,-63.547 -60.755,-21.821c-5.488,32.079 7.274,115.248 114.033,111.149c94.752,-3.638 107.832,-93.509 199.168,-99.436c73.807,-4.789 117.171,38.3 117.171,38.3" style="fill:none;stroke:#020144;stroke-width:16.67px;"/><circle cx="286.355" cy="721.784" r="43.899" style="fill:none;stroke:#020144;stroke-width:16.67px;"/><circle cx="737.088" cy="721.784" r="43.899" style="fill:none;stroke:#020144;stroke-width:16.67px;"/><circle cx="427.051" cy="642.845" r="43.899" style="fill:none;stroke:#020144;stroke-width:16.67px;"/><circle cx="596.403" cy="642.845" r="43.899" style="fill:none;stroke:#020144;stroke-width:16.67px;"/><path d="M222.086,865.577c0,-0 4.071,-74.063 69.027,-74.063c60.714,0 66.604,74.063 66.604,74.063" style="fill:none;stroke:#020144;stroke-width:16.67px;"/><path d="M672.82,865.577c-0,-0 4.07,-74.063 69.026,-74.063c60.715,0 66.605,74.063 66.605,74.063" style="fill:none;stroke:#020144;stroke-width:16.67px;"/><path d="M362.783,786.639c-0,-0 4.07,-74.063 69.026,-74.063c60.715,0 66.605,74.063 66.605,74.063" style="fill:none;stroke:#020144;stroke-width:16.67px;"/><path d="M532.134,786.639c-0,-0 4.07,-74.063 69.026,-74.063c60.715,0 66.605,74.063 66.605,74.063" style="fill:none;stroke:#020144;stroke-width:16.67px;"/></g></g></svg>