<svg width="29" height="32" viewBox="0 0 29 32" fill="none" xmlns="http://www.w3.org/2000/svg">
<path d="M28.2025 28.7383C28.3824 26.7916 28.8834 20.0362 28.3876 17.6907L26.6661 9.54552C26.4341 8.44798 25.3637 7.74131 24.28 7.97036C23.1967 8.19933 22.5037 9.2787 22.7357 10.3762L23.4698 13.8494C23.5129 14.0535 23.3821 14.2544 23.1781 14.2975C22.974 14.3407 22.7732 14.2098 22.73 14.0057L21.5829 8.57805C21.3509 7.48082 20.2803 6.77431 19.1966 7.00338C18.113 7.2324 17.4201 8.31164 17.6521 9.40886L18.4699 13.2784C18.5131 13.4825 18.3821 13.6834 18.1782 13.7265C17.9742 13.7696 17.7734 13.6388 17.7303 13.4348L16.5832 8.00764C16.3513 6.91052 15.281 6.20439 14.1973 6.43343C13.1139 6.66243 12.4209 7.74124 12.6528 8.83836L13.4709 12.7089C13.514 12.9127 13.383 13.1139 13.1791 13.157C12.975 13.2001 12.7741 13.0691 12.7311 12.8653L10.3757 1.72152C10.1439 0.624058 9.07332 -0.0821343 7.98955 0.146932C6.90588 0.375975 6.21275 1.45494 6.4447 2.55238L10.0918 19.808C10.1243 19.9615 10.0574 20.1209 9.92506 20.2052C9.79388 20.2887 9.61829 20.2815 9.49494 20.1884L3.77856 15.8955L3.7127 15.8509C3.26999 15.5798 2.74501 15.4884 2.23493 15.5933L2.2218 15.596C1.69318 15.7142 1.24582 16.0194 0.962321 16.456C0.604867 17.0055 0.43285 17.9475 1.64642 19.3163C3.48863 21.3919 5.43002 23.3195 7.14993 25.027C8.42872 26.297 9.63669 27.4963 10.5661 28.5267C11.1604 29.1863 12.4859 30.9677 13.2091 31.9072L28.2025 28.7383Z" fill="#E63277"/>
</svg>
