<svg width="76" height="81" viewBox="0 0 76 81" fill="none" xmlns="http://www.w3.org/2000/svg">
<g clip-path="url(#clip0_150_1468)">
<path fill-rule="evenodd" clip-rule="evenodd" d="M92.1175 38.5053C91.52 37.7468 91.0091 37.0905 90.7409 36.7421C89.114 34.6189 84.4334 29.8354 82.3143 25.406C80.6964 22.0274 80.5605 18.8442 83.4732 16.8258C86.1207 14.9913 89.7494 15.6418 93.5855 17.8457C101.841 22.5889 111.227 34.3703 113.143 38.6617C113.352 39.1303 113.143 39.6782 112.674 39.8872C112.208 40.0953 111.66 39.8864 111.451 39.4177C109.611 35.3 100.587 24.0067 92.6616 19.4528C89.5634 17.6734 86.6671 16.8685 84.5287 18.3509C82.4176 19.8129 82.8136 22.1555 83.9865 24.6049C86.048 28.916 90.6281 33.5476 92.2132 35.6142C93.2062 36.9102 97.1332 41.7462 97.37 42.2417C97.6669 42.862 97.2918 43.2506 97.1591 43.3687C97.0565 43.4605 96.515 43.8851 95.8697 43.3427C86.6645 35.6141 67.1894 30.1259 49.314 31.7993C31.5956 33.4577 15.4108 42.2028 12.5978 63.0905C12.5286 63.5977 12.0608 63.954 11.5548 63.8868C11.0471 63.8176 10.6911 63.3501 10.7603 62.8429C13.7084 40.9573 30.5779 31.6903 49.1399 29.9526C64.7837 28.4877 81.6022 32.4086 92.1175 38.5053Z" fill="#E63277"/>
<path fill-rule="evenodd" clip-rule="evenodd" d="M11.971 61.9017C13.5661 60.4064 15.106 58.867 16.8185 57.4946C21.3799 53.8377 26.8934 51.0043 32.6561 49.906C33.1607 49.8111 33.6452 50.1419 33.7415 50.6436C33.8365 51.1481 33.5056 51.6326 33.004 51.7289C27.5336 52.7681 22.3066 55.4721 17.9793 58.9419C16.0208 60.5133 14.2873 62.3094 12.4362 64.0002C12.3427 64.0834 11.5613 64.8425 11.3519 64.9575C10.8668 65.2277 10.4929 65.03 10.332 64.9162C10.1962 64.8228 10.0559 64.6785 9.96059 64.4494C9.88422 64.2608 9.82166 63.8689 9.85062 63.3271C9.9365 61.5917 10.7185 57.5722 10.7773 56.8988C11.4483 49.1808 10.7778 41.8874 10.264 34.191C10.2317 33.68 10.6178 33.2372 11.1284 33.2025C11.6383 33.1681 12.0794 33.5556 12.1141 34.0657C12.6354 41.8593 13.3041 49.2461 12.6229 57.058C12.5846 57.5209 12.2292 60.0729 11.971 61.9017Z" fill="#E63277"/>
</g>
<defs>
<clipPath id="clip0_150_1468">
<rect width="109.953" height="69.2056" fill="white" transform="matrix(-0.994713 0.102697 0.102697 0.994713 109.598 0)"/>
</clipPath>
</defs>
</svg>
