<svg width="470" height="410" viewBox="0 0 470 410" fill="none" xmlns="http://www.w3.org/2000/svg">
<path fill-rule="evenodd" clip-rule="evenodd" d="M419.578 231.699C414.724 300.826 374.817 360.296 317.622 392.273C317.667 391.497 317.692 391.05 317.692 391.05L282.067 296.027C282.067 296.027 283.393 294.449 283.297 291.5C283.226 289.372 271.746 285.62 265.359 283.693L263.363 274.444C280.638 261.477 291.828 240.767 291.828 217.457C291.828 178.218 260.111 146.358 221.047 146.358C181.984 146.358 150.267 178.218 150.267 217.457C150.267 240.767 161.457 261.477 178.732 274.444L178.333 276.301C168.707 280.395 150.241 288.305 146.513 290.271C141.426 292.955 144.877 296.027 144.877 296.027L114.622 386.387C58.985 350.918 22.0269 288.486 22.0269 217.457C22.0269 213.24 22.1556 209.056 22.4132 204.904H113.759V149.579L113.347 130.247H41.9353C53.3576 106.646 69.2612 85.6329 88.5387 68.3318L88.7705 108.444L170.265 108.031V26.9968L168.34 24.6361C185.132 20.0117 202.8 17.541 221.047 17.541C235.908 17.541 250.389 19.1773 264.322 22.2883L247.665 25.354L243.576 32.3391L238.252 33.1605L247.671 98.5683L303.778 99.8036C303.778 99.8036 308.079 103.523 311.151 103.503C314.222 103.484 316.475 100.211 316.475 100.211H366.44L362.699 77.0567C381.12 95.8066 395.884 118.191 405.819 143.04L347.188 128.591L327.125 208.196L419.578 231.699Z" fill="#D4D4FE"/>
<path d="M249.114 208.073C250.653 204.651 252.687 199.024 252.166 194.057C251.354 186.257 244.336 181.924 244.336 181.924L246.126 176.523C246.126 176.523 240.879 178.89 235.702 177.687C230.525 176.491 230.854 172.643 225.213 172.578C216.231 172.474 202.053 180.456 202.053 180.456C202.053 180.456 202.246 174.117 201.19 175.786C197.54 181.587 190.824 184.388 184.27 191.651C177.708 198.921 179.003 202.439 179.003 202.439L180.934 208.254C180.934 208.254 177.264 208.597 177.522 209.864C177.773 211.132 181.952 213.318 181.952 213.318C181.952 213.318 178.249 219.811 183.278 228.517C188.307 237.223 200.186 248.166 200.186 248.166L205.363 240.857C193.367 234.668 194.829 225.587 199.394 224.015C201.493 223.291 204.706 227.295 207.314 228.562C209.979 229.862 212.387 228.821 212.387 228.821L210.346 215.187C210.346 215.187 214.049 212.613 216.115 209.023C218.182 205.434 218.607 200.835 218.607 200.835C218.607 200.835 225.529 200.965 230.673 198.048C235.818 195.137 239.185 189.187 239.185 189.187C239.185 189.187 246.738 193.74 248.245 202.135C248.521 203.688 248.824 205.712 249.114 208.073Z" fill="#020144"/>
<path d="M316.881 388.586C316.881 388.586 314.589 396.017 310.739 396.813C306.888 397.608 301.39 396.03 299.683 398.048C297.977 400.066 295.588 402.162 295.588 402.162C295.588 402.162 296.689 399.077 293.541 399.691C290.392 400.305 285.351 402.569 285.351 402.569C285.351 402.569 286.375 401.023 282.486 400.926C278.597 400.829 259.944 404.458 254.638 403.804C254.638 403.804 286.059 407.09 291.905 406.683C297.752 406.275 310.269 406.915 315.246 399.691C318.929 394.342 316.881 388.586 316.881 388.586Z" fill="#020144"/>
<path d="M154.69 356.086C154.69 356.086 155.849 365.994 152.256 370.483C148.663 374.972 149.378 376.032 149.391 378.71C149.404 381.388 150.537 381.181 150.537 381.181H161.27L155.946 355.678L154.69 356.086Z" fill="#020144"/>
<path d="M134.234 393.928C134.234 393.928 132.805 405.758 135.464 406.411L130.712 407.873C130.712 407.879 132.29 395.183 134.234 393.928Z" fill="#020144"/>
<path d="M204.262 298.905C204.262 298.905 193.67 297.378 189.111 301.783C184.553 306.187 185.834 298.491 185.834 298.491L200.984 296.02L204.262 298.905Z" fill="#020144"/>
<path d="M221.047 298.084C221.047 298.084 229.308 298.847 231.697 303.148C234.086 307.449 234.157 298.905 234.157 298.905L225.149 296.027L221.047 298.084Z" fill="#020144"/>
<path d="M113.753 130.247H1.54541V137.238H113.753V130.247Z" fill="#9492FD"/>
<path d="M100.244 168.503V180.022H13.8306V160.276C13.8306 160.276 18.9171 159.481 22.8383 165.211C26.7595 170.948 28.6525 176.051 31.4404 173.438C34.2284 170.825 31.1507 164.125 31.8525 162.333C32.5479 160.542 34.1833 157.909 42.0901 166.447C49.9968 174.984 53.5574 171.795 53.5574 171.795C53.5574 171.795 60.6464 175.061 66.2545 173.031C71.8626 171 78.3915 163.413 84.2765 163.704C90.1486 163.989 100.244 168.503 100.244 168.503Z" fill="#9492FD"/>
<path d="M118.26 149.171H114.165V205.117H13.2832V211.701H117.848L118.26 149.171Z" fill="#020144"/>
<path d="M155.527 8.95825V26.5827H170.362L155.527 8.95825Z" fill="#020144"/>
<path fill-rule="evenodd" clip-rule="evenodd" d="M98.7764 108.774H170.368V34.8096H174.779V112.972H98.7764V108.774Z" fill="#020144"/>
<path d="M315.651 90.3412C315.651 90.3412 332.604 74.78 360.697 73.8874L359.467 65.2466C359.467 65.2466 341.625 67.0899 328.754 78.0009C315.883 88.9119 315.651 90.3412 315.651 90.3412Z" fill="#020144"/>
<path d="M360.697 96.104L311.962 97.3393L252.99 93.394L256.673 90.3477C256.673 90.3477 278.706 80.4521 310.732 93.394C310.732 93.394 330.86 83.977 341.445 84.9989C352.036 86.0273 363.208 88.6984 363.208 88.6984L360.697 96.104Z" fill="#020144"/>
<path d="M465.648 163.646L470 164.739L449.931 245.242L330.068 215.097L331.349 209.961L446.859 239.014L465.648 163.646Z" fill="#020144"/>
<path d="M234.794 257.635C231.375 257.635 227.402 256.826 220.622 253.747C220.088 253.502 219.85 252.874 220.094 252.338C220.339 251.801 220.964 251.561 221.498 251.807C228.8 255.125 232.592 255.675 236.03 255.468C242.842 255.073 246.764 252.021 248.019 246.135C250.221 235.787 249.481 219.753 248.064 208.202C247.787 205.977 247.491 203.946 247.201 202.329C246.088 196.146 241.445 192.136 239.501 190.7C238.284 192.576 235.303 196.657 231.195 198.986C226.952 201.385 221.678 201.818 219.541 201.896C219.296 203.493 218.633 206.786 217.036 209.567C215.336 212.522 212.645 214.786 211.499 215.672L213.443 228.672C213.514 229.151 213.257 229.617 212.812 229.811C212.696 229.862 209.928 231.026 206.856 229.532C205.788 229.009 204.68 228.122 203.605 227.256C202.298 226.208 200.514 224.772 199.742 225.037C198.267 225.548 197.263 227.036 197.128 228.931C197.025 230.399 197.34 235.534 205.846 239.92C206.122 240.062 206.316 240.314 206.393 240.618C206.47 240.922 206.406 241.239 206.225 241.485L201.049 248.793C200.875 249.045 200.598 249.201 200.295 249.233C199.993 249.265 199.69 249.168 199.465 248.961C198.975 248.509 187.405 237.805 182.351 229.06C178.172 221.829 179.672 216.028 180.561 213.784C178.861 212.82 176.73 211.378 176.472 210.078C176.376 209.605 176.485 209.127 176.781 208.726C177.329 207.989 178.507 207.594 179.518 207.387L177.985 202.776C177.844 202.388 176.678 198.462 183.471 190.933C186.542 187.531 189.665 185.073 192.421 182.907C195.634 180.378 198.409 178.192 200.289 175.21C200.881 174.272 201.641 174.421 201.86 174.486C202.382 174.648 203.077 174.861 203.128 178.658C207.14 176.562 217.751 171.427 225.22 171.504C228.697 171.543 230.216 172.908 231.684 174.221C232.798 175.217 233.848 176.161 235.934 176.646C240.685 177.752 245.637 175.566 245.682 175.547C246.068 175.372 246.512 175.45 246.828 175.728C247.143 176.006 247.253 176.452 247.124 176.853L245.585 181.49C247.472 182.868 252.5 187.13 253.215 193.941C253.737 198.914 251.889 204.412 250.195 208.234C251.612 219.934 252.32 236.058 250.086 246.575C249.082 251.29 245.849 257.033 236.146 257.589C235.708 257.622 235.258 257.635 234.794 257.635ZM178.706 209.864C179.215 210.427 180.812 211.52 182.441 212.374C182.698 212.509 182.885 212.742 182.969 213.02C183.053 213.299 183.014 213.596 182.872 213.848C182.737 214.088 179.563 219.96 184.199 227.98C188.307 235.088 197.211 243.858 200.031 246.555L203.811 241.226C197.958 237.895 194.694 233.297 195.016 228.769C195.215 226.008 196.761 223.802 199.059 223.013C200.933 222.366 202.967 224.003 204.938 225.587C205.916 226.376 206.934 227.191 207.784 227.605C209.149 228.271 210.424 228.2 211.203 228.058L209.297 215.349C209.239 214.948 209.406 214.547 209.741 214.314C209.773 214.288 213.276 211.824 215.195 208.493C217.113 205.156 217.545 200.784 217.551 200.738C217.603 200.182 218.086 199.742 218.626 199.775C218.691 199.775 225.329 199.859 230.152 197.129C234.968 194.4 238.226 188.728 238.258 188.67C238.4 188.417 238.638 188.236 238.908 188.165C239.185 188.094 239.481 188.133 239.726 188.281C240.054 188.475 247.71 193.184 249.288 201.961C249.397 202.569 249.506 203.228 249.616 203.933C250.607 201.023 251.451 197.42 251.116 194.174C250.369 187.007 243.847 182.874 243.782 182.836C243.364 182.577 243.177 182.06 243.332 181.594L244.439 178.257C242.321 178.877 238.908 179.531 235.47 178.735C232.856 178.127 231.491 176.905 230.287 175.825C228.948 174.628 227.898 173.684 225.213 173.652C225.155 173.652 225.104 173.652 225.046 173.652C216.444 173.652 202.723 181.316 202.588 181.393C202.253 181.581 201.847 181.574 201.519 181.374C201.19 181.173 200.997 180.811 201.01 180.43C201.036 179.621 201.029 178.716 200.997 177.94C199.04 180.443 196.555 182.396 193.754 184.601C191.069 186.716 188.017 189.116 185.068 192.382C179.176 198.908 180.013 202.09 180.02 202.122L181.952 207.937C182.055 208.247 182.009 208.584 181.836 208.855C181.662 209.127 181.366 209.301 181.044 209.334C180.155 209.398 179.17 209.638 178.706 209.864Z" fill="#020144"/>
<path d="M224.943 216.739C224.75 214.695 225.291 212.975 226.147 212.891C227.003 212.807 227.853 214.404 228.04 216.442C228.233 218.485 227.692 220.206 226.836 220.29C225.979 220.374 225.13 218.783 224.943 216.739Z" fill="#020144"/>
<path d="M226.758 221.364C225.078 221.364 224.093 219.055 223.887 216.836C223.674 214.547 224.26 211.998 226.05 211.83C226.552 211.785 227.512 211.921 228.278 213.37C228.703 214.165 228.993 215.219 229.096 216.345C229.308 218.634 228.722 221.183 226.932 221.351C226.874 221.364 226.816 221.364 226.758 221.364ZM225.999 216.642C226.115 217.852 226.462 218.686 226.72 219.061C226.907 218.647 227.093 217.755 226.984 216.552C226.874 215.342 226.52 214.508 226.263 214.133C226.076 214.547 225.883 215.433 225.999 216.642Z" fill="#020144"/>
<path d="M242.971 213.027C242.785 210.983 243.319 209.263 244.175 209.179C245.032 209.101 245.882 210.692 246.068 212.736C246.261 214.78 245.721 216.5 244.864 216.584C244.008 216.662 243.158 215.071 242.971 213.027Z" fill="#020144"/>
<path d="M244.8 217.645C244.272 217.645 243.428 217.405 242.733 216.099C242.308 215.303 242.018 214.249 241.915 213.124C241.703 210.828 242.289 208.286 244.079 208.118C244.581 208.073 245.54 208.208 246.306 209.657C246.731 210.453 247.021 211.507 247.124 212.632C247.337 214.922 246.751 217.47 244.961 217.638C244.916 217.645 244.858 217.645 244.8 217.645ZM244.027 212.923C244.143 214.133 244.491 214.967 244.748 215.342C244.935 214.928 245.122 214.036 245.012 212.833C244.903 211.63 244.549 210.789 244.291 210.414C244.104 210.828 243.918 211.72 244.027 212.923Z" fill="#020144"/>
<path d="M240.441 231.227C240.003 231.227 239.591 230.949 239.436 230.509C239.243 229.953 239.539 229.345 240.093 229.157C240.106 229.151 241.786 228.543 242.314 227.243C242.585 226.57 242.508 225.807 242.07 224.908C240.692 222.088 237.035 215.84 237.003 215.776C236.706 215.271 236.874 214.618 237.376 214.314C237.878 214.016 238.528 214.184 238.831 214.689C238.986 214.948 242.566 221.066 243.976 223.964C244.69 225.425 244.787 226.803 244.272 228.058C243.37 230.244 240.891 231.13 240.782 231.162C240.673 231.207 240.557 231.227 240.441 231.227Z" fill="#020144"/>
<path d="M235.586 239.273C231.942 239.273 227.634 237.475 227.428 237.391C226.887 237.164 226.636 236.537 226.862 235.994C227.087 235.45 227.711 235.198 228.252 235.425C228.304 235.444 233.307 237.527 236.552 237.08C239.829 236.628 243.364 234.144 243.403 234.118C243.879 233.775 244.542 233.892 244.883 234.377C245.225 234.855 245.109 235.522 244.632 235.864C244.471 235.981 240.64 238.678 236.848 239.202C236.436 239.247 236.011 239.273 235.586 239.273Z" fill="#020144"/>
<path d="M212.741 347.199L210.617 347.193L210.758 310.624C209.586 309.622 208.254 307.792 209.11 305.884C209.696 304.577 210.494 302.941 211.492 301.033C217.384 289.708 228.793 271.003 230.319 268.507L229.862 256.225L231.98 256.147L232.45 268.753C232.457 268.966 232.405 269.173 232.296 269.354C232.167 269.561 219.624 289.999 213.372 302.022C212.4 303.898 211.615 305.489 211.048 306.763C210.572 307.83 212.42 309.227 212.439 309.24C212.716 309.441 212.883 309.771 212.883 310.113L212.741 347.199Z" fill="#020144"/>
<path d="M211.647 302.236C209.013 299.299 202.51 291.713 199.111 284.644C197.449 281.196 193.799 272.588 195.73 267.084C196.091 266.062 197.153 264.898 198.885 263.636L200.128 265.363C198.203 266.767 197.804 267.575 197.726 267.795C196.014 272.678 199.812 281.222 201.017 283.719C204.3 290.542 210.642 297.941 213.218 300.806L211.647 302.236Z" fill="#020144"/>
<path d="M199.413 269.406C199.407 269.406 199.394 269.406 199.388 269.406C198.802 269.393 198.338 268.901 198.351 268.313L198.866 247.901C198.879 247.312 199.362 246.879 199.954 246.859C200.54 246.872 201.004 247.364 200.991 247.952L200.476 268.364C200.456 268.947 199.986 269.406 199.413 269.406Z" fill="#020144"/>
<path d="M238.895 302.902C238.696 302.902 238.503 302.85 238.329 302.74C238.245 302.689 229.804 297.359 224.782 297.075C220.043 296.809 216.585 300.968 216.547 301.007C216.173 301.46 215.51 301.531 215.053 301.156C214.596 300.781 214.531 300.114 214.898 299.655C215.066 299.448 219.064 294.617 224.898 294.94C229.031 295.173 234.852 298.232 237.724 299.894L236.256 273.138C236.236 272.743 236.436 272.368 236.771 272.161C238.206 271.301 240.299 269.58 240.454 268.468C240.479 268.293 240.454 268.138 240.267 267.931C239.172 266.761 234.71 265.085 231.027 264.148C230.461 264.005 230.113 263.423 230.261 262.854C230.403 262.285 230.982 261.936 231.549 262.084C231.877 262.168 239.662 264.173 241.812 266.476C242.417 267.123 242.675 267.918 242.559 268.765C242.263 270.867 239.668 272.814 238.413 273.642L239.958 301.777C239.977 302.178 239.778 302.553 239.436 302.753C239.269 302.85 239.082 302.902 238.895 302.902Z" fill="#020144"/>
<path d="M207.739 301.615C207.404 301.615 207.075 301.453 206.869 301.162C206.837 301.117 203.508 296.479 198.409 296.686C192.872 296.906 183.426 300.386 183.336 300.425C182.982 300.554 182.589 300.489 182.299 300.25C182.01 300.011 181.861 299.642 181.919 299.267L185.963 271.547L184.733 267.957C184.546 267.42 184.81 266.838 185.332 266.625L198.28 261.289C198.821 261.062 199.439 261.328 199.664 261.871C199.89 262.414 199.626 263.035 199.085 263.261L187.064 268.216L188.055 271.094C188.113 271.255 188.126 271.424 188.101 271.598L184.276 297.831C187.328 296.79 193.863 294.733 198.332 294.559C204.609 294.313 208.453 299.707 208.614 299.94C208.949 300.425 208.833 301.084 208.357 301.427C208.164 301.557 207.951 301.615 207.739 301.615Z" fill="#020144"/>
<path d="M291.204 407.465C273.201 407.465 250.485 403.636 249.217 403.423C248.637 403.326 248.251 402.776 248.347 402.194C248.444 401.612 248.991 401.224 249.571 401.321C251.258 401.605 291.01 408.3 306.309 403.798C308.71 403.093 313.044 401.327 315.046 397.44C316.501 394.627 316.527 391.108 315.136 386.989C306.186 360.568 281.269 296.143 281.017 295.497C280.876 295.134 280.947 294.727 281.191 294.429C281.43 294.132 282.028 293.162 281.855 292.301C281.732 291.706 281.243 291.176 280.399 290.73C270.49 285.472 241.709 274.574 241.419 274.464C240.872 274.257 240.595 273.642 240.801 273.092C241.007 272.543 241.619 272.265 242.166 272.472C243.351 272.918 271.359 283.531 281.384 288.848C282.827 289.611 283.683 290.639 283.934 291.9C284.211 293.31 283.625 294.572 283.194 295.257C285.621 301.531 308.607 361.124 317.139 386.303C318.729 390.998 318.658 395.073 316.926 398.423C314.557 403.009 309.625 405.04 306.901 405.842C302.909 407.019 297.327 407.465 291.204 407.465Z" fill="#020144"/>
<path d="M214.654 402.459C213.772 402.459 212.117 401.967 211.782 400.066C211.434 398.087 212.761 397.084 213.746 396.897L217.938 395.985L211.325 396.67C211.164 396.683 211.003 396.664 210.849 396.612C210.63 396.528 208.672 395.758 208.357 393.857C208.086 392.221 209.4 390.972 210.217 390.494C210.327 390.429 210.443 390.39 210.559 390.364L222.387 388.211L214.956 388.586C214.834 388.592 214.705 388.579 214.589 388.541C213.746 388.275 212.194 387.273 212.387 385.352C212.574 383.405 214.512 382.765 215.51 382.7C215.632 382.687 232.817 380.702 239.507 378.335C240.892 377.843 241.767 377.216 242.115 376.459C242.405 375.825 242.366 375.036 241.993 374.046C241.149 371.828 238.239 369.234 237.189 368.426C237.138 368.387 237.086 368.335 237.041 368.284C236.745 367.947 234.157 364.933 234.079 362.392C233.996 359.565 236.912 357.825 237.041 357.754C237.537 357.463 238.174 357.625 238.477 358.11C238.496 358.149 240.711 361.706 242.205 363.485C243.377 364.888 244.574 365.457 245.965 366.117C247.646 366.913 249.545 367.818 251.374 370.347C254.683 374.92 254.091 379.887 254.065 380.094C253.988 380.676 253.46 381.09 252.88 381.012C252.301 380.935 251.889 380.404 251.96 379.822C251.966 379.777 252.455 375.463 249.655 371.595C248.148 369.506 246.648 368.795 245.057 368.044C243.583 367.339 242.05 366.615 240.582 364.856C239.494 363.556 238.104 361.46 237.312 360.225C236.777 360.723 236.185 361.473 236.211 362.327C236.256 363.782 237.917 366.02 238.58 366.796C239.205 367.294 242.842 370.263 243.989 373.277C244.568 374.81 244.594 376.181 244.059 377.345C243.454 378.658 242.199 379.635 240.228 380.333C233.313 382.784 216.431 384.731 215.716 384.815C215.665 384.822 214.577 384.919 214.519 385.552C214.467 386.057 214.866 386.322 215.104 386.439L238.625 385.261C239.185 385.216 239.668 385.643 239.733 386.206C239.797 386.762 239.417 387.279 238.87 387.376L211.177 392.428C210.9 392.635 210.398 393.087 210.469 393.508C210.552 394.012 211.112 394.368 211.409 394.523L236.777 391.884C237.331 391.826 237.846 392.221 237.936 392.777C238.026 393.333 237.666 393.863 237.112 393.986L214.19 398.986C213.83 399.076 213.836 399.4 213.888 399.697C213.978 400.215 214.39 400.318 214.654 400.331L236.127 398.022C236.706 397.964 237.234 398.384 237.292 398.966C237.357 399.555 236.932 400.079 236.352 400.137L214.815 402.453C214.744 402.459 214.699 402.459 214.654 402.459Z" fill="#020144"/>
<path d="M233.088 404.723C227.28 404.723 221.517 404.626 218.343 404.309C217.229 404.199 216.733 403.656 216.515 403.222C216.148 402.498 216.276 401.593 216.901 400.519C217.197 400.014 217.847 399.84 218.35 400.137C218.858 400.435 219.026 401.088 218.729 401.593C218.568 401.864 218.498 402.052 218.459 402.175C218.485 402.181 218.517 402.181 218.549 402.188C223.108 402.647 233.255 402.634 240.962 402.543C241.555 402.524 242.031 403.009 242.038 403.598C242.044 404.186 241.574 404.671 240.988 404.678C238.516 404.704 235.798 404.723 233.088 404.723ZM218.427 402.343H218.433H218.427Z" fill="#020144"/>
<path d="M252.99 381.42C252.468 381.42 252.018 381.038 251.94 380.501C251.857 379.919 252.262 379.376 252.842 379.298L278.152 375.657C279.453 374.441 285.331 369.273 291.564 368.989C298.486 368.691 305.414 374.396 305.71 374.642C306.161 375.017 306.219 375.689 305.845 376.142C305.472 376.595 304.802 376.653 304.351 376.278C304.287 376.226 297.765 370.851 291.661 371.117C285.557 371.395 279.44 377.364 279.382 377.423C279.221 377.584 279.015 377.688 278.79 377.72L253.144 381.413C253.093 381.42 253.041 381.42 252.99 381.42Z" fill="#020144"/>
<path d="M290.334 407.64C290.167 407.64 289.993 407.601 289.839 407.517C289.323 407.239 289.124 406.598 289.401 406.075C291.216 402.634 294.249 396.05 294.133 390.565C293.966 382.532 287.012 376.394 286.941 376.336C286.497 375.948 286.452 375.275 286.832 374.836C287.218 374.389 287.881 374.338 288.325 374.726C288.641 374.997 296.065 381.536 296.251 390.526C296.374 396.192 293.605 402.66 291.268 407.084C291.081 407.433 290.714 407.64 290.334 407.64ZM284.694 407.562C284.617 407.562 284.533 407.556 284.456 407.536C283.883 407.4 283.529 406.831 283.664 406.256C284.617 402.129 286.671 391.859 285.067 385.675C283.902 381.2 280.58 378.93 277.998 377.811L277.888 377.766L278.262 376.769L278.674 375.786L278.262 376.769L278.719 375.806L278.835 375.858C281.855 377.164 285.744 379.829 287.121 385.145C288.783 391.542 286.967 401.424 285.731 406.741C285.615 407.232 285.177 407.562 284.694 407.562Z" fill="#020144"/>
<path d="M278.41 377.901C277.998 377.901 277.611 377.662 277.438 377.261L262.609 343.202C262.377 342.665 262.622 342.031 263.156 341.799C263.697 341.566 264.322 341.812 264.554 342.348L279.382 376.407C279.614 376.944 279.369 377.578 278.835 377.811C278.693 377.869 278.551 377.901 278.41 377.901Z" fill="#020144"/>
<path d="M263.453 378.432C263.369 378.432 263.285 378.419 263.202 378.399C262.635 378.263 262.281 377.688 262.422 377.112L267.837 354.65C267.973 354.081 268.546 353.725 269.119 353.867C269.685 354.003 270.039 354.579 269.898 355.154L264.483 377.617C264.361 378.108 263.929 378.432 263.453 378.432Z" fill="#020144"/>
<path d="M124.203 410.001C124.068 410.001 123.926 409.975 123.797 409.923C123.514 409.806 116.843 406.987 114.261 400.765C111.725 394.659 113.308 385.598 113.379 385.216C113.386 385.165 113.399 385.113 113.418 385.061L143.261 296.661C142.437 294.597 141.929 290.879 145.109 289.197C155.192 283.868 186.465 271.411 186.781 271.281C187.328 271.062 187.94 271.333 188.158 271.883C188.371 272.433 188.107 273.047 187.56 273.267C187.244 273.39 156.074 285.808 146.094 291.086C143.635 292.386 145.283 296.007 145.354 296.163C145.47 296.408 145.489 296.699 145.399 296.958L115.453 385.669C115.311 386.536 114.036 394.698 116.219 399.943C118.195 404.691 123.153 407.271 124.351 407.834L166.222 401.023C166.801 400.926 167.342 401.327 167.439 401.903C167.535 402.485 167.143 403.035 166.563 403.125L124.377 409.988C124.312 410.001 124.254 410.001 124.203 410.001Z" fill="#020144"/>
<path d="M130.712 408.946C130.699 408.946 130.693 408.946 130.68 408.946C130.094 408.927 129.631 408.442 129.65 407.853C129.746 404.322 130.332 395.481 133.59 389.75C137.801 382.358 146.204 380.23 146.558 380.139C146.629 380.12 146.706 380.113 146.783 380.107L161.206 379.758C161.212 379.758 161.225 379.758 161.232 379.758C161.805 379.758 162.275 380.217 162.294 380.799C162.307 381.387 161.843 381.879 161.257 381.892L146.964 382.241C146.036 382.5 138.947 384.641 135.432 390.811C132.406 396.121 131.865 404.542 131.768 407.911C131.755 408.487 131.285 408.946 130.712 408.946Z" fill="#020144"/>
<path d="M149.797 382.17C149.404 382.17 149.024 381.95 148.837 381.569L147.601 378.988L141.034 379.208C140.441 379.208 139.958 378.768 139.939 378.179C139.92 377.591 140.377 377.099 140.963 377.08L148.219 376.834C148.638 376.841 149.03 377.054 149.211 377.436L150.743 380.644C150.994 381.174 150.775 381.808 150.247 382.067C150.112 382.131 149.951 382.17 149.797 382.17Z" fill="#020144"/>
<path d="M120.932 394.543C120.526 394.543 120.153 394.31 119.972 393.935C119.876 393.728 117.564 388.799 118.942 385.223C120.256 381.814 123.391 379.182 123.527 379.072C123.977 378.697 124.647 378.761 125.02 379.214C125.394 379.667 125.329 380.34 124.879 380.715C124.853 380.741 122.033 383.108 120.925 385.992C120.404 387.344 120.648 389.168 121.054 390.669C122.709 387.247 126.044 381.025 129.849 377.72C134.395 373.768 137.035 374.008 139.823 374.266C140.422 374.318 141.04 374.376 141.684 374.389C145.058 374.448 145.856 376.802 146.049 377.811C146.159 378.386 145.779 378.949 145.199 379.053C144.626 379.162 144.066 378.781 143.963 378.205C143.757 377.099 142.997 376.543 141.645 376.524C140.924 376.511 140.267 376.453 139.63 376.394C137.099 376.161 135.103 375.98 131.24 379.337C126.302 383.632 121.956 393.792 121.917 393.896C121.756 394.284 121.382 394.536 120.964 394.543C120.945 394.543 120.938 394.543 120.932 394.543Z" fill="#020144"/>
<path d="M169.28 404.807C167.297 404.807 165.391 403.287 164.941 401.347L153.724 353.298C153.486 352.283 153.692 351.274 154.278 350.53C154.87 349.786 155.798 349.353 156.834 349.353H227.718C229.701 349.353 231.607 350.873 232.058 352.813L238.368 379.842C238.503 380.417 238.149 380.987 237.576 381.122C237.009 381.258 236.436 380.902 236.301 380.327L229.991 353.298C229.765 352.335 228.703 351.487 227.718 351.487H156.834C156.448 351.487 156.126 351.617 155.939 351.856C155.752 352.095 155.695 352.432 155.785 352.813L167.001 400.862C167.226 401.825 168.289 402.673 169.274 402.673H240.151C245.347 402.44 249.481 401.573 251.741 400.221C251.915 400.118 252.024 400.066 252.082 400.047C252.636 399.853 253.241 400.15 253.434 400.706C253.614 401.224 253.37 401.793 252.887 402.019L252.829 402.052C249.545 404.011 244.15 404.626 240.203 404.801L169.28 404.807Z" fill="#020144"/>
<path d="M195.325 383.793C192.331 383.793 189.897 381.349 189.897 378.348C189.897 375.347 192.331 372.902 195.325 372.902C198.319 372.902 200.746 375.347 200.746 378.348C200.746 381.349 198.312 383.793 195.325 383.793ZM195.325 375.023C193.503 375.023 192.022 376.511 192.022 378.341C192.022 380.172 193.503 381.659 195.325 381.659C197.147 381.659 198.628 380.172 198.628 378.341C198.628 376.511 197.147 375.023 195.325 375.023Z" fill="#020144"/>
<path d="M244.665 386.943C244.31 386.943 243.969 386.768 243.763 386.445C243.461 385.966 243.589 385.339 244.04 385.016C244.252 384.757 244.497 383.877 244.446 383.483C244.046 383.211 243.866 382.687 244.046 382.215C244.259 381.665 244.871 381.387 245.418 381.601C246.062 381.847 246.474 382.461 246.551 383.276C246.667 384.434 246.113 386.212 245.225 386.775C245.051 386.891 244.858 386.943 244.665 386.943ZM244.658 383.593H244.665H244.658Z" fill="#020144"/>
<path d="M244.729 393.165C244.491 393.165 244.252 393.087 244.059 392.919C243.609 392.544 243.538 391.871 243.911 391.419C244.31 390.927 244.368 390.52 243.66 389.388C243.351 388.89 243.499 388.23 243.995 387.92C244.491 387.603 245.147 387.758 245.457 388.256C245.946 389.039 247.098 390.875 245.553 392.77C245.341 393.029 245.032 393.165 244.729 393.165Z" fill="#020144"/>
<path d="M244.884 400.331C244.755 400.331 244.626 400.305 244.504 400.26C243.956 400.047 243.686 399.432 243.892 398.882C243.982 398.65 244.104 398.384 244.246 398.106C244.439 397.705 244.845 396.877 244.748 396.625C244.742 396.599 244.665 396.515 244.433 396.431C243.886 396.218 243.609 395.603 243.821 395.054C244.027 394.504 244.645 394.226 245.193 394.439C245.959 394.737 246.474 395.209 246.725 395.843C247.169 396.974 246.583 398.171 246.158 399.044C246.055 399.264 245.952 399.465 245.882 399.646C245.708 400.066 245.308 400.331 244.884 400.331Z" fill="#020144"/>
<path d="M158.856 351.487C158.399 351.487 157.98 351.19 157.839 350.731C154.632 340.188 153.776 325.798 153.744 325.196C153.711 324.607 154.156 324.103 154.742 324.071C155.334 324.032 155.83 324.485 155.862 325.073C155.868 325.222 156.738 339.813 159.867 350.11C160.041 350.672 159.725 351.267 159.165 351.442C159.062 351.474 158.959 351.487 158.856 351.487Z" fill="#020144"/>
<path d="M203.85 235.386C203.734 235.386 203.611 235.366 203.495 235.321C202.085 234.817 201.087 233.963 200.54 232.792C199.613 230.826 200.366 228.698 200.398 228.608C200.598 228.051 201.21 227.767 201.757 227.967C202.304 228.168 202.594 228.776 202.394 229.325C202.221 229.823 201.499 232.339 204.21 233.31C204.764 233.51 205.054 234.118 204.854 234.674C204.693 235.114 204.287 235.386 203.85 235.386Z" fill="#020144"/>
<path fill-rule="evenodd" clip-rule="evenodd" d="M363.542 195.027L350.343 191.755L358.462 158.737L446.486 180.572L438.367 213.59L412.116 207.077L412.225 206.766C412.225 206.766 423.384 201.534 423.358 199.775C423.339 198.015 424.588 194.84 424.588 194.84L420.493 197.31L414.35 198.132L413.938 196.075L411.382 192.182C411.382 192.182 410.332 194.245 410.249 196.483C410.171 198.72 407.171 199.813 408.613 202.439L406.54 205.693L393.347 202.42L387.411 196.069C387.411 196.069 384.217 191.496 385.067 189.484C385.067 189.484 391.525 189.53 393.869 184.957C396.212 180.384 396.734 173.031 396.734 173.031L381.172 170.56L377.077 175.909C377.077 175.909 375.473 179.214 376.664 180.844C377.856 182.473 374.9 189.29 372.569 190.306C370.573 191.179 365.062 194.193 363.542 195.027Z" fill="#9492FD"/>
<path d="M155.971 68.2087H129.495V90.4382H155.971V68.2087Z" fill="#D4D4FE"/>
<path d="M124.686 225.154H12.195C11.609 225.154 11.1326 224.675 11.1326 224.087V205.136C11.1326 204.548 11.609 204.069 12.195 204.069H112.491V148.984C112.491 148.395 112.967 147.917 113.553 147.917H124.686C125.272 147.917 125.748 148.395 125.748 148.984V224.08C125.748 224.675 125.272 225.154 124.686 225.154ZM13.2573 223.02H123.623V150.058H114.609V205.143C114.609 205.731 114.133 206.21 113.547 206.21H13.2573V223.02Z" fill="#020144"/>
<path d="M113.553 206.204H1.06239C0.476464 206.204 0 205.725 0 205.136V130.04C0 129.452 0.476464 128.973 1.06239 128.973H113.553C114.139 128.973 114.615 129.452 114.615 130.04V205.136C114.609 205.731 114.139 206.204 113.553 206.204ZM2.12477 204.076H112.491V131.107H2.12477V204.076Z" fill="#020144"/>
<path d="M113.553 138.351H1.06239C0.476464 138.351 0 137.872 0 137.284C0 136.695 0.476464 136.217 1.06239 136.217H113.553C114.139 136.217 114.615 136.695 114.615 137.284C114.615 137.872 114.139 138.351 113.553 138.351Z" fill="#020144"/>
<path d="M10.3792 132.685H5.78198V134.82H10.3792V132.685Z" fill="#020144"/>
<path d="M17.2623 132.685H12.665V134.82H17.2623V132.685Z" fill="#020144"/>
<path d="M24.1387 132.685H19.5415V134.82H24.1387V132.685Z" fill="#020144"/>
<path d="M99.9867 181.717H13.2831C12.6972 181.717 12.2207 181.238 12.2207 180.65V146.746C12.2207 146.158 12.6972 145.679 13.2831 145.679H99.9803C100.566 145.679 101.043 146.158 101.043 146.746V180.65C101.043 181.238 100.573 181.717 99.9867 181.717ZM14.3455 179.583H98.9244V147.813H14.3455V179.583Z" fill="#020144"/>
<path d="M62.0627 175.333C60.7428 175.333 59.3327 175.139 57.8132 174.699C56.2937 174.26 54.7999 173.619 53.5572 172.876C49.0759 173.613 44.7104 172.022 42.0899 168.678C41.6392 168.102 41.1691 167.41 40.6798 166.679C38.8834 164.021 36.6556 160.716 33.8354 161.214C32.9791 161.363 32.7924 161.699 32.7344 161.809C32.2065 162.754 33.0886 165.037 33.7389 166.705C34.2475 168.025 34.6918 169.157 34.7562 170.107C34.8463 171.336 34.3505 172.52 33.3654 173.458C32.2708 174.492 30.7449 175.023 29.3863 174.842C26.5339 174.467 25.1432 171.647 24.0229 169.383C23.6108 168.549 23.218 167.753 22.8124 167.197C20.7649 164.37 16.6505 162.081 13.2316 161.874C12.6457 161.842 12.2014 161.331 12.2336 160.749C12.2722 160.16 12.7809 159.72 13.3539 159.746C17.4103 159.992 22.1106 162.598 24.5251 165.949C25.0337 166.647 25.4651 167.52 25.9158 168.439C26.9074 170.437 27.9312 172.5 29.6567 172.733C30.3907 172.83 31.2728 172.507 31.9038 171.912C32.2 171.627 32.6894 171.039 32.6378 170.269C32.5928 169.642 32.1678 168.549 31.7557 167.488C30.8672 165.198 29.8563 162.598 30.8801 160.774C31.3694 159.895 32.2386 159.345 33.462 159.125C37.6343 158.388 40.4094 162.495 42.4311 165.496C42.9012 166.194 43.3454 166.854 43.7511 167.371C45.4444 169.525 48.0392 170.786 50.8851 170.922C49.8807 170.01 49.1209 169.053 48.5865 168.038C47.7302 166.401 47.3052 164.72 47.331 163.051C47.3696 159.656 48.8956 157.191 51.6256 156.124C54.89 154.85 59.41 155.937 61.9082 158.608C63.8076 160.639 64.239 163.252 63.0801 165.774C62.5006 167.029 61.6507 168.264 60.6849 169.247C59.5195 170.431 58.1287 171.369 56.577 172.022C57.1693 172.268 57.7874 172.487 58.3927 172.662C64.606 174.454 68.5015 171.595 73.015 168.29C75.2235 166.673 77.5028 164.998 80.1748 163.827C87.6051 160.567 95.866 164.409 100.682 168.691C101.12 169.079 101.165 169.758 100.772 170.198C100.386 170.638 99.7099 170.676 99.272 170.288C94.9195 166.421 87.5343 162.922 81.0183 165.78C78.5587 166.861 76.376 168.465 74.2577 170.01C70.6842 172.63 67.0012 175.327 62.0627 175.333ZM54.6389 157.702C53.847 157.702 53.0807 157.832 52.3982 158.097C50.5053 158.841 49.4879 160.555 49.4558 163.064C49.4364 164.377 49.7841 165.709 50.4731 167.035C51.1363 168.303 52.2823 169.48 53.9822 170.625C55.991 170.153 57.781 169.163 59.1782 167.74C59.9766 166.925 60.6849 165.91 61.1613 164.868C62.1722 162.669 61.2901 161.04 60.3758 160.057C58.9786 158.575 56.7186 157.702 54.6389 157.702Z" fill="#020144"/>
<path d="M50.634 185.235H12.2207V187.37H50.634V185.235Z" fill="#020144"/>
<path d="M136.906 23.6465H98.4866V25.7808H136.906V23.6465Z" fill="#9492FD"/>
<path d="M157.034 48.0166H98.4866V50.1509H157.034V48.0166Z" fill="#020144"/>
<path d="M157.034 57.7634H98.4866V59.8978H157.034V57.7634Z" fill="#020144"/>
<path d="M115.414 72.3806H98.4866V74.515H115.414V72.3806Z" fill="#020144"/>
<path d="M36.4367 190.189H12.2207V192.324H36.4367V190.189Z" fill="#020144"/>
<path d="M122.703 28.5232H98.4866V30.6575H122.703V28.5232Z" fill="#9492FD"/>
<path d="M122.703 38.27H98.4866V40.4044H122.703V38.27Z" fill="#9492FD"/>
<path d="M122.703 62.6338H98.4866V64.7681H122.703V62.6338Z" fill="#020144"/>
<path d="M122.703 77.2571H98.4866V79.3914H122.703V77.2571Z" fill="#020144"/>
<path d="M50.6404 190.189H38.0527V192.324H50.6404V190.189Z" fill="#9492FD"/>
<path d="M81.8875 190.189H52.2051V192.324H81.8875V190.189Z" fill="#020144"/>
<path d="M50.634 195.144H12.2207V197.278H50.634V195.144Z" fill="#9492FD"/>
<path d="M136.906 33.3933H98.4866V35.5276H136.906V33.3933Z" fill="#9492FD"/>
<path d="M136.906 43.1401H98.4866V45.2745H136.906V43.1401Z" fill="#020144"/>
<path d="M157.034 52.887H98.4866V55.0213H157.034V52.887Z" fill="#020144"/>
<path d="M115.414 67.5103H98.4866V69.6446H115.414V67.5103Z" fill="#020144"/>
<path d="M115.414 82.1274H98.4866V84.2618H115.414V82.1274Z" fill="#020144"/>
<path d="M170.362 109.841H88.1525C87.5666 109.841 87.0901 109.363 87.0901 108.774V8.95828C87.0901 8.36972 87.5666 7.89111 88.1525 7.89111H155.559C155.875 7.89111 156.171 8.0334 156.377 8.27271L171.186 26.1688C171.347 26.3628 171.431 26.6021 171.431 26.8479V108.761C171.424 109.363 170.948 109.841 170.362 109.841ZM89.2149 107.707H169.3V27.2424L155.057 10.0255H89.2149V107.707Z" fill="#020144"/>
<path d="M170.362 28.0574H155.553C154.967 28.0574 154.49 27.5788 154.49 26.9902V8.95828C154.49 8.36972 154.967 7.89111 155.553 7.89111C156.139 7.89111 156.615 8.36972 156.615 8.95828V25.9295H170.362C170.948 25.9295 171.424 26.4081 171.424 26.9967C171.424 27.5852 170.948 28.0574 170.362 28.0574Z" fill="#020144"/>
<path d="M310.977 94.4549C310.842 94.4549 310.706 94.429 310.578 94.3773C310.449 94.3255 297.855 89.2225 284.417 88.2588C270.947 87.2951 256.248 90.4514 256.1 90.4837C255.81 90.5484 255.507 90.4837 255.269 90.3155C255.024 90.1474 254.863 89.8822 254.825 89.5912L245.888 26.0137C245.817 25.5093 246.113 25.0242 246.59 24.856C247.208 24.6426 261.882 19.5848 275.854 20.7426C289.838 21.9003 302.568 29.2282 303.102 29.5386C303.386 29.7068 303.579 29.9914 303.624 30.3212L312.026 93.2583C312.078 93.6335 311.923 94.0086 311.621 94.2414C311.44 94.3773 311.209 94.4549 310.977 94.4549ZM279.047 85.9434C280.882 85.9434 282.737 86.0016 284.565 86.1309C295.427 86.9071 305.742 90.322 309.689 91.7643L301.589 31.1297C299.207 29.8297 287.746 23.86 275.68 22.864C264 21.9003 251.412 25.5545 248.116 26.5958L256.769 88.1683C259.918 87.5603 269.254 85.9434 279.047 85.9434Z" fill="#020144"/>
<path d="M310.983 94.4546C310.88 94.4546 310.771 94.4416 310.668 94.4093C310.275 94.2864 309.985 93.9436 309.934 93.5361L301.525 30.5926C301.492 30.3403 301.55 30.0881 301.686 29.8746C302.001 29.3831 309.56 17.6766 322.592 10.3939C335.56 3.14367 353.865 0.136188 354.638 0.0133015C354.921 -0.0319723 355.211 0.0391723 355.436 0.2138C355.668 0.388428 355.816 0.640668 355.855 0.925246L364.257 64.3992C364.296 64.6967 364.212 64.9942 364.019 65.2206C363.826 65.447 363.549 65.5892 363.253 65.6022C363.117 65.6087 349.557 66.3524 336.905 73.3763C324.176 80.452 311.878 93.9695 311.756 94.1053C311.563 94.3317 311.273 94.4546 310.983 94.4546ZM303.682 30.709L311.736 91.0267C315.471 87.1396 325.393 77.341 335.895 71.5072C346.969 65.3564 358.398 63.8818 362.016 63.5519L353.91 2.30287C349.763 3.06605 334.51 6.17055 323.635 12.2502C312.239 18.6209 304.989 28.7881 303.682 30.709Z" fill="#020144"/>
<path d="M308.569 97.6369C308.466 97.6369 308.363 97.6239 308.266 97.5916C308.124 97.5528 294.243 93.4523 280.451 92.6697C266.666 91.8936 252.578 94.4095 252.436 94.4354C252.146 94.4871 251.857 94.416 251.618 94.2478C251.387 94.0732 251.232 93.8145 251.193 93.5234L243.609 33.1992C243.589 33.044 243.602 32.8888 243.647 32.74L245.926 25.5286L247.948 26.1753L245.74 33.1604L253.157 92.1523C256.782 91.5766 268.777 89.8692 280.567 90.5353C293.792 91.2856 307.088 95.0304 308.704 95.4961L312.161 95.4249C313.63 95.0433 327.627 91.4861 339.288 91.2985C349.255 91.1368 357.529 93.3617 360.536 94.2996L361.456 88.5821L358.173 65.3243L360.271 65.0268L363.581 88.4463C363.594 88.5562 363.594 88.6597 363.581 88.7697L362.435 95.8712C362.383 96.1816 362.197 96.4598 361.926 96.615C361.656 96.7767 361.327 96.809 361.031 96.6991C360.935 96.6667 351.244 93.2324 339.326 93.4264C327.325 93.6204 312.735 97.4752 312.586 97.514C312.503 97.5334 312.419 97.5463 312.335 97.5463L308.588 97.6239C308.582 97.6369 308.575 97.6369 308.569 97.6369Z" fill="#020144"/>
<path d="M311.402 94.3707L310.558 92.4174C311.247 92.1199 327.55 85.0766 340.46 83.8736C353.517 82.6577 362.647 87.4567 363.034 87.6572L362.036 89.5393C361.946 89.4941 353.047 84.8373 340.653 85.995C328.091 87.1592 311.569 94.2931 311.402 94.3707Z" fill="#020144"/>
<path d="M310.442 104.667C307.152 104.667 304.564 102.041 303.662 100.994L247.53 99.6678C247.008 99.6549 246.57 99.2603 246.5 98.7429L238.065 33.969C237.988 33.3869 238.393 32.8565 238.973 32.7725L244.523 32.0093L244.813 34.1242L240.312 34.7451L248.496 97.5658L304.203 98.8788C304.532 98.8852 304.834 99.0404 305.027 99.3056C305.053 99.338 307.59 102.662 310.61 102.539C313.578 102.417 315.007 99.9395 315.065 99.836C315.259 99.4997 315.638 99.2992 316.005 99.2927L364.785 99.8683L360.349 64.5482L362.454 64.2831L367.045 100.819C367.084 101.123 366.987 101.433 366.781 101.66C366.575 101.886 366.311 102.022 365.976 102.016L316.559 101.427C315.812 102.455 313.913 104.538 310.7 104.667C310.61 104.667 310.526 104.667 310.442 104.667Z" fill="#020144"/>
<path d="M313.687 39.8415C313.475 39.8415 313.256 39.7768 313.063 39.641C312.586 39.2982 312.483 38.6321 312.825 38.1535C313.005 37.9012 317.319 31.9639 323.281 27.734C329.237 23.5041 336.609 21.1434 336.918 21.0464C337.479 20.8718 338.071 21.1822 338.251 21.7449C338.425 22.3076 338.116 22.9026 337.556 23.0837C337.485 23.1096 330.183 25.4509 324.505 29.4803C318.838 33.5032 314.582 39.35 314.544 39.4082C314.344 39.6863 314.016 39.8415 313.687 39.8415Z" fill="#9492FD"/>
<path d="M314.351 49.0774C314.158 49.0774 313.958 49.0257 313.784 48.9093C313.288 48.5924 313.14 47.9326 313.456 47.4411C313.572 47.26 316.263 43.0301 319.991 40.0097C323.725 36.9893 328.342 35.2948 328.535 35.2236C329.089 35.0231 329.694 35.3142 329.894 35.8639C330.093 36.4137 329.81 37.0281 329.256 37.2286C329.211 37.2415 324.769 38.8714 321.324 41.6654C317.873 44.4595 315.278 48.5341 315.246 48.5794C315.046 48.9028 314.705 49.0774 314.351 49.0774Z" fill="#9492FD"/>
<path d="M315.625 58.3198C315.413 58.3198 315.194 58.2551 315.001 58.1193C314.524 57.7765 314.421 57.1103 314.763 56.6317C314.943 56.3795 319.257 50.4421 325.219 46.2123C331.175 41.9889 338.547 39.6217 338.856 39.5247C339.417 39.3501 340.009 39.6605 340.189 40.2232C340.363 40.7859 340.054 41.3809 339.494 41.562C339.423 41.5879 332.121 43.9292 326.443 47.9586C320.776 51.9815 316.52 57.8283 316.482 57.8929C316.276 58.1646 315.954 58.3198 315.625 58.3198Z" fill="#9492FD"/>
<path d="M317.229 67.562C317.016 67.562 316.797 67.4973 316.604 67.3615C316.128 67.0187 316.025 66.3525 316.366 65.8739C316.546 65.6217 320.86 59.6843 326.822 55.4545C332.778 51.2311 340.151 48.8639 340.46 48.7669C341.02 48.5922 341.612 48.9027 341.792 49.4654C341.966 50.0281 341.657 50.6231 341.097 50.8042C341.026 50.8301 333.725 53.1714 328.046 57.2007C322.38 61.2236 318.124 67.0704 318.085 67.1286C317.879 67.4068 317.557 67.562 317.229 67.562Z" fill="#9492FD"/>
<path d="M291.783 42.2928C291.68 42.2928 291.577 42.2799 291.474 42.2476C291.409 42.2282 285.273 40.3784 278.384 39.7575C270.703 39.0655 263.678 40.6889 263.607 40.7018C263.034 40.8376 262.467 40.4819 262.332 39.9063C262.197 39.3306 262.551 38.7615 263.124 38.6257C263.427 38.5545 270.554 36.9117 278.571 37.6296C285.685 38.2699 291.828 40.1262 292.086 40.2038C292.646 40.3719 292.961 40.967 292.794 41.5361C292.659 41.9953 292.24 42.2928 291.783 42.2928Z" fill="#9492FD"/>
<path d="M292.852 50.2286C292.749 50.2286 292.646 50.2157 292.543 50.1834C292.478 50.164 286.342 48.3142 279.453 47.6933C271.784 47.0077 264.747 48.6247 264.676 48.6376C264.109 48.7734 263.536 48.4177 263.401 47.8421C263.266 47.2664 263.62 46.6973 264.193 46.5615C264.489 46.4903 271.617 44.8475 279.64 45.5654C286.754 46.2057 292.897 48.062 293.154 48.1396C293.715 48.3077 294.03 48.9028 293.863 49.4719C293.727 49.9311 293.302 50.2286 292.852 50.2286Z" fill="#9492FD"/>
<path d="M293.676 58.171C293.573 58.171 293.47 58.1581 293.367 58.1257C293.309 58.1063 287.166 56.2566 280.277 55.6357C272.596 54.9436 265.571 56.567 265.5 56.58C264.927 56.7158 264.361 56.3601 264.225 55.7844C264.09 55.2088 264.444 54.6397 265.017 54.5038C265.313 54.4327 272.448 52.7899 280.464 53.5078C287.579 54.1481 293.721 55.9979 293.979 56.082C294.539 56.2501 294.854 56.8451 294.687 57.4143C294.552 57.8735 294.127 58.171 293.676 58.171Z" fill="#9492FD"/>
<path d="M294.358 65.7641C294.255 65.7641 294.152 65.7512 294.049 65.7189C293.991 65.6994 287.849 63.8497 280.96 63.2288C273.291 62.5367 266.254 64.1601 266.183 64.1731C265.616 64.3089 265.043 63.9532 264.908 63.3775C264.773 62.8019 265.127 62.2328 265.7 62.0969C266.002 62.0258 273.124 60.383 281.146 61.1074C288.261 61.7477 294.404 63.5974 294.661 63.6815C295.221 63.8497 295.537 64.4447 295.369 65.0139C295.234 65.4666 294.816 65.7641 294.358 65.7641Z" fill="#9492FD"/>
<path d="M446.66 240.14C446.576 240.14 446.486 240.127 446.402 240.107L326.539 209.961C326.269 209.89 326.031 209.716 325.889 209.476C325.747 209.237 325.702 208.946 325.767 208.668L345.836 128.164C345.907 127.893 346.081 127.653 346.319 127.511C346.564 127.369 346.847 127.324 347.124 127.388L466.987 157.534C467.257 157.605 467.495 157.78 467.637 158.019C467.779 158.259 467.824 158.55 467.759 158.828L447.69 239.331C447.568 239.816 447.136 240.14 446.66 240.14ZM328.078 208.15L445.887 237.779L465.435 159.345L347.626 129.717L328.078 208.15Z" fill="#020144"/>
<path d="M351.363 134.013L350.846 136.083L380.913 143.646L381.429 141.576L351.363 134.013Z" fill="#020144"/>
<path d="M350.343 138.157L349.827 140.228L369.309 145.127L369.825 143.057L350.343 138.157Z" fill="#020144"/>
<path d="M441.721 231.227C441.638 231.227 441.547 231.214 441.464 231.195L333.892 204.141C333.326 203.998 332.978 203.416 333.12 202.847C333.261 202.278 333.841 201.929 334.407 202.071L441.979 229.125C442.545 229.267 442.893 229.85 442.751 230.419C442.629 230.904 442.198 231.227 441.721 231.227Z" fill="#020144"/>
<path d="M355.893 211.63C355.642 211.63 355.397 211.598 355.146 211.539C354.361 211.339 353.691 210.847 353.279 210.149C352.861 209.45 352.738 208.629 352.938 207.833C353.343 206.197 354.998 205.201 356.627 205.609C358.256 206.016 359.248 207.685 358.842 209.321C358.643 210.11 358.153 210.783 357.458 211.197C356.975 211.481 356.44 211.63 355.893 211.63ZM354.998 208.344C354.94 208.584 354.972 208.829 355.101 209.043C355.23 209.256 355.43 209.405 355.668 209.463C355.906 209.521 356.157 209.489 356.363 209.36C356.576 209.23 356.724 209.03 356.782 208.791C356.904 208.293 356.608 207.795 356.112 207.665C355.623 207.549 355.121 207.853 354.998 208.344Z" fill="#020144"/>
<path d="M386.619 190.759C386.123 190.759 385.621 190.694 385.118 190.571C380.895 189.523 377.888 184.401 377.765 184.181C377.469 183.67 377.643 183.023 378.152 182.726C378.66 182.428 379.304 182.603 379.601 183.107C379.626 183.153 382.285 187.674 385.627 188.501C386.258 188.657 386.889 188.67 387.488 188.527C392.587 187.344 394.777 179.861 395.478 176.704C395.607 176.129 396.174 175.766 396.747 175.896C397.32 176.025 397.68 176.594 397.552 177.17C396.567 181.587 394.017 189.2 387.971 190.603C387.52 190.707 387.069 190.759 386.619 190.759Z" fill="#020144"/>
<path d="M377.386 182.273C377.205 182.273 377.019 182.228 376.851 182.131C376.697 182.04 373.091 179.848 372.866 172.067C372.763 168.51 374.347 165.826 375.338 164.493C374.598 163.853 373.799 162.961 373.754 162.062C373.703 161.13 373.6 159.19 376.233 157.153C378.178 155.646 380.599 155.128 382.704 155.769C383.934 156.144 384.603 157.198 384.932 158.278C386.683 157.373 389.503 157.004 393.122 159.074C397.391 161.512 398.827 165.088 400.494 169.228C402.516 174.253 400.823 177.125 398.563 178.134C396.496 179.059 393.437 176.271 391.737 174.441C390.875 174.991 389.426 175.78 387.861 176.058C386.29 176.342 384.661 176.103 383.663 175.89L382.009 179.841C381.828 180.275 381.378 180.54 380.908 180.488C380.438 180.436 380.064 180.081 379.98 179.608C379.755 178.296 379.214 176.853 378.873 176.633C378.596 176.51 378.293 176.627 378.145 176.704C377.785 176.892 377.521 177.241 377.437 177.649C377.289 178.347 377.862 179.861 378.313 180.708C378.538 181.128 378.454 181.646 378.113 181.982C377.92 182.17 377.65 182.273 377.386 182.273ZM380.856 157.625C379.729 157.625 378.551 158.045 377.534 158.834C375.782 160.192 375.834 161.201 375.879 161.945C375.956 162.184 376.735 162.935 377.469 163.446C377.733 163.627 377.901 163.911 377.926 164.228C377.952 164.545 377.843 164.856 377.617 165.082C377.592 165.108 374.875 167.895 374.99 172.002C375.042 173.82 375.299 175.275 375.634 176.42C375.963 175.734 376.51 175.152 377.18 174.803C378.004 174.376 378.937 174.331 379.736 174.674C380.36 174.945 380.837 175.573 381.191 176.291L382.067 174.201C382.279 173.691 382.846 173.432 383.367 173.6C383.386 173.606 385.569 174.292 387.488 173.943C389.407 173.594 391.235 172.19 391.255 172.171C391.699 171.828 392.336 171.886 392.703 172.313C394.783 174.699 397.133 176.375 397.7 176.168C399.451 175.385 399.76 173.083 398.524 170.01C396.882 165.929 395.704 162.986 392.072 160.91C387.288 158.181 385.061 160.768 384.97 160.878C384.681 161.227 384.204 161.357 383.779 161.201C383.354 161.04 383.077 160.639 383.084 160.186C383.09 159.753 382.942 158.058 382.086 157.799C381.693 157.683 381.281 157.625 380.856 157.625Z" fill="#020144"/>
<path d="M353.749 203.39C353.614 203.39 353.479 203.364 353.35 203.313C352.809 203.093 352.545 202.465 352.764 201.922C353.009 201.314 353.781 200.202 357.722 197.53C359.75 196.153 361.933 195.034 364.038 193.947C367.38 192.227 370.541 190.604 373.265 188.004C374.585 186.742 375.95 182.474 376.362 180.934C376.516 180.365 377.096 180.029 377.663 180.184C378.229 180.339 378.564 180.921 378.409 181.491C378.242 182.118 376.71 187.648 374.72 189.549C371.778 192.363 368.333 194.135 365.004 195.842C362.95 196.897 360.832 197.99 358.907 199.296C355.185 201.825 354.741 202.692 354.728 202.73C354.56 203.138 354.168 203.39 353.749 203.39Z" fill="#020144"/>
<path d="M397.816 214.469C397.236 214.469 396.766 214.004 396.753 213.422C396.74 212.464 396.457 209.838 394.184 206.016C392.794 203.681 390.843 201.696 389.123 199.943L388.885 199.704C386.973 197.75 384.99 195.732 384.481 193.449C384.294 192.621 384.236 191.289 384.307 189.498C384.333 188.909 384.803 188.437 385.408 188.476C385.994 188.501 386.451 188.993 386.426 189.582C386.368 191.147 386.413 192.356 386.548 192.99C386.896 194.555 388.364 196.14 390.392 198.209L390.63 198.449C392.433 200.286 394.48 202.368 396 204.923C398.447 209.03 398.846 211.992 398.872 213.389C398.878 213.978 398.415 214.463 397.829 214.469C397.829 214.469 397.822 214.469 397.816 214.469Z" fill="#020144"/>
<path d="M383.657 201.204C382.414 201.204 381.062 201.062 379.633 200.706C374.99 199.548 369.672 196.121 366.916 194.18C366.433 193.844 366.317 193.178 366.659 192.693C366.993 192.208 367.657 192.091 368.14 192.434C370.258 193.928 375.679 197.524 380.148 198.636C384.217 199.652 387.591 198.656 389.239 197.97C389.78 197.744 390.398 198.003 390.624 198.546C390.849 199.089 390.591 199.71 390.05 199.936C388.743 200.486 386.477 201.204 383.657 201.204Z" fill="#020144"/>
<path d="M407.326 216.862C407.158 216.862 406.997 216.823 406.836 216.739C406.315 216.468 406.115 215.827 406.386 215.304L411.356 205.673C411.504 205.382 411.775 205.182 412.09 205.117C412.129 205.11 416.005 204.328 418.613 202.821C420.937 201.482 421.594 200.544 422.354 199.458L422.624 199.076C423.313 198.112 423.416 197.621 423.416 197.621C423.429 197.491 423.455 197.42 423.513 197.31C423.719 196.896 423.892 196.392 423.983 196.017C422.772 196.444 419.997 197.957 417.724 199.367C417.512 199.503 417.254 199.548 417.009 199.516L413.797 199.037C413.294 198.96 412.914 198.539 412.895 198.035C412.818 196.347 412.58 194.245 412.354 193.811C412.225 193.591 411.549 193.391 411.253 193.469C411.066 194.005 410.963 195.467 410.976 196.592C410.976 196.767 410.938 196.942 410.854 197.103C410.848 197.123 409.92 198.889 409.708 200.266C409.521 201.495 409.92 202.478 409.927 202.491C410.075 202.847 410.023 203.261 409.785 203.565L401.125 214.683C400.765 215.148 400.095 215.226 399.638 214.864C399.174 214.501 399.097 213.829 399.458 213.37L407.77 202.698C407.609 202.09 407.442 201.1 407.615 199.936C407.834 198.533 408.562 196.948 408.858 196.347C408.864 195.525 408.922 193.462 409.367 192.485C409.695 191.774 410.41 191.354 411.331 191.328C412.374 191.289 413.693 191.793 414.234 192.802C414.672 193.624 414.885 195.732 414.975 197.058L416.951 197.356C418.96 196.12 423.036 193.747 424.517 193.773C425.116 193.785 425.624 194.07 425.908 194.549C426.519 195.564 425.933 197.175 425.483 198.125C425.393 198.5 425.129 199.238 424.35 200.331L424.092 200.693C423.261 201.877 422.405 203.099 419.675 204.671C417.325 206.029 414.221 206.824 413.011 207.096L408.272 216.28C408.079 216.649 407.705 216.862 407.326 216.862Z" fill="#020144"/>
<path d="M398.627 167.268C398.627 167.268 401.64 172.791 400.829 174.26C400.018 175.728 398.395 178.36 395.098 175.902C391.802 173.445 391.821 173.432 391.821 173.432C391.821 173.432 388.801 175.514 383.631 174.667L381.172 179.194C381.172 179.194 380.322 174.208 377.894 175.902L375.847 179.194C375.847 179.194 372.344 173.943 374.617 168.497C376.896 163.051 377.077 164.383 377.077 164.383C377.077 164.383 371.694 161.505 377.894 157.392C384.095 153.272 383.438 159.319 384.037 159.863C384.037 159.863 391.525 156.797 395.504 162.333C399.483 167.87 398.627 167.268 398.627 167.268Z" fill="#020144"/>
<path d="M173.935 120.571C173.884 120.571 173.832 120.565 173.787 120.558L99.4458 109.828C98.8663 109.744 98.4607 109.208 98.5444 108.619C98.6281 108.037 99.1689 107.629 99.7484 107.713L173.04 118.295L186.871 21.6026L171.978 19.4554C171.398 19.3713 170.993 18.8345 171.076 18.2459C171.16 17.6638 171.701 17.2628 172.28 17.3404L188.223 19.6429C188.802 19.727 189.208 20.2638 189.124 20.8524L174.985 119.653C174.946 119.931 174.798 120.183 174.573 120.351C174.386 120.494 174.167 120.571 173.935 120.571Z" fill="#020144"/>
<path d="M32.0583 289.443C41.2185 289.443 48.6444 281.983 48.6444 272.782C48.6444 263.58 41.2185 256.121 32.0583 256.121C22.898 256.121 15.4722 263.58 15.4722 272.782C15.4722 281.983 22.898 289.443 32.0583 289.443Z" fill="#9492FD"/>
<path d="M58.5472 253.334C62.0783 253.334 64.9408 250.458 64.9408 246.911C64.9408 243.364 62.0783 240.489 58.5472 240.489C55.0161 240.489 52.1536 243.364 52.1536 246.911C52.1536 250.458 55.0161 253.334 58.5472 253.334Z" fill="#9492FD"/>
<path d="M197.81 101.64C201.341 101.64 204.204 98.7648 204.204 95.2178C204.204 91.6708 201.341 88.7954 197.81 88.7954C194.279 88.7954 191.416 91.6708 191.416 95.2178C191.416 98.7648 194.279 101.64 197.81 101.64Z" fill="#9492FD"/>
<path d="M387.32 114.194C393.878 114.194 399.193 108.855 399.193 102.268C399.193 95.681 393.878 90.3413 387.32 90.3413C380.763 90.3413 375.448 95.681 375.448 102.268C375.448 108.855 380.763 114.194 387.32 114.194Z" fill="#9492FD"/>
<path d="M434.935 98.5747C438.11 98.5747 440.684 95.9889 440.684 92.7991C440.684 89.6093 438.11 87.0234 434.935 87.0234C431.759 87.0234 429.185 89.6093 429.185 92.7991C429.185 95.9889 431.759 98.5747 434.935 98.5747Z" fill="#9492FD"/>
<path d="M347.948 309.848C351.123 309.848 353.698 307.262 353.698 304.073C353.698 300.883 351.123 298.297 347.948 298.297C344.772 298.297 342.198 300.883 342.198 304.073C342.198 307.262 344.772 309.848 347.948 309.848Z" fill="#9492FD"/>
<path d="M127.171 342.963C116.856 342.963 108.46 334.536 108.46 324.174C108.46 313.813 116.85 305.379 127.171 305.379C137.492 305.379 145.875 313.807 145.875 324.174C145.875 334.529 137.486 342.963 127.171 342.963ZM127.171 309.641C119.193 309.641 112.71 316.161 112.71 324.168C112.71 332.181 119.2 338.694 127.171 338.694C135.142 338.694 141.632 332.175 141.632 324.168C141.632 316.161 135.142 309.641 127.171 309.641Z" fill="#9492FD"/>
<path d="M407.068 306.944C396.753 306.944 388.357 298.517 388.357 288.156C388.357 277.794 396.747 269.361 407.068 269.361C417.389 269.361 425.779 277.788 425.779 288.156C425.772 298.517 417.383 306.944 407.068 306.944ZM407.068 273.623C399.09 273.623 392.607 280.142 392.607 288.149C392.607 296.163 399.097 302.676 407.068 302.676C415.039 302.676 421.529 296.156 421.529 288.149C421.529 280.142 415.039 273.623 407.068 273.623Z" fill="#9492FD"/>
<path d="M86.4203 73.3442C79.3248 73.3442 73.5493 67.5427 73.5493 60.4153C73.5493 53.2879 79.3248 47.4863 86.4203 47.4863C93.5158 47.4863 99.2913 53.2879 99.2913 60.4153C99.2913 67.5427 93.5158 73.3442 86.4203 73.3442ZM86.4203 51.7485C81.6621 51.7485 77.7924 55.6356 77.7924 60.4153C77.7924 65.1949 81.6621 69.082 86.4203 69.082C91.1785 69.082 95.0482 65.1949 95.0482 60.4153C95.0482 55.6356 91.1721 51.7485 86.4203 51.7485Z" fill="#9492FD"/>
<path d="M148.49 89.7333C147.099 89.7333 146.049 89.0477 145.122 88.4462C144.311 87.9159 143.603 87.4567 142.753 87.4567C141.903 87.4567 141.201 87.9159 140.383 88.4462C139.456 89.0477 138.406 89.7333 137.016 89.7333H137.009C135.2 89.7268 133.899 88.6855 133.771 87.1462C133.558 84.5398 134.047 82.7611 134.885 80.1417C136.082 76.4099 137.956 72.4452 139.611 68.9461L139.945 68.2347C140.499 67.0576 141.117 65.9063 141.71 64.7874C141.896 64.4382 142.257 64.2183 142.65 64.2183C143.042 64.2183 143.403 64.4317 143.59 64.781C143.828 65.2337 144.098 65.68 144.388 66.1586C144.794 66.8247 145.206 67.5168 145.547 68.2347L145.882 68.9461C147.537 72.4452 149.417 76.4099 150.608 80.1417C151.445 82.7611 151.941 84.5398 151.722 87.1462C151.593 88.692 150.292 89.7333 148.483 89.7333C148.496 89.7333 148.496 89.7333 148.49 89.7333ZM142.753 85.3288C144.227 85.3288 145.315 86.0338 146.275 86.6547C147.054 87.1592 147.723 87.599 148.49 87.599C148.586 87.586 149.571 87.586 149.623 86.9651C149.809 84.7015 149.378 83.2203 148.599 80.7885C147.446 77.1925 145.605 73.2989 143.976 69.8581L143.641 69.1466C143.377 68.5969 143.055 68.0471 142.708 67.4715C142.418 68.0277 142.141 68.5904 141.877 69.1466L141.542 69.8581C139.913 73.2924 138.072 77.1925 136.919 80.7885C136.14 83.2203 135.709 84.7015 135.895 86.9651C135.947 87.5796 136.913 87.599 137.022 87.599C137.022 87.599 137.022 87.599 137.029 87.599C137.795 87.599 138.464 87.1592 139.244 86.6547C140.19 86.0338 141.278 85.3288 142.753 85.3288Z" fill="#020144"/>
<path d="M147.82 75.7244L150.26 76.9726L149.307 79.6567L147.82 75.7244Z" fill="#020144"/>
<path d="M137.647 75.7244L135.206 76.9726L136.159 79.6567L137.647 75.7244Z" fill="#020144"/>
<path d="M147.376 75.9507H138.052C137.466 75.9507 136.99 75.4721 136.99 74.8836C136.99 74.295 137.466 73.8164 138.052 73.8164H147.376C147.962 73.8164 148.438 74.295 148.438 74.8836C148.438 75.4721 147.962 75.9507 147.376 75.9507Z" fill="#020144"/>
<path d="M142.714 78.2337C144.243 78.2337 145.483 77.2637 145.483 76.0671C145.483 74.8704 144.243 73.9004 142.714 73.9004C141.185 73.9004 139.945 74.8704 139.945 76.0671C139.945 77.2637 141.185 78.2337 142.714 78.2337Z" fill="#9492FD"/>
<path d="M142.714 79.4044C140.544 79.4044 138.786 77.9104 138.786 76.0735C138.786 74.2367 140.551 72.7427 142.714 72.7427C144.877 72.7427 146.642 74.2367 146.642 76.0735C146.642 77.9104 144.884 79.4044 142.714 79.4044ZM142.714 75.071C141.8 75.071 141.111 75.5949 141.111 76.0671C141.111 76.5392 141.793 77.0631 142.714 77.0631C143.628 77.0631 144.317 76.5392 144.317 76.0671C144.317 75.5949 143.628 75.071 142.714 75.071Z" fill="#020144"/>
<path d="M147.376 74.8835H145.289C145.289 74.8835 144.098 73.7904 142.714 73.9004C141.323 74.0168 140.666 74.4954 140.325 74.8835C139.984 75.265 138.052 74.8835 138.052 74.8835L142.714 65.2854L147.376 74.8835Z" fill="#020144"/>
<path d="M151.026 82.8388C150.756 82.8388 150.486 82.7353 150.273 82.5284C149.861 82.1144 149.861 81.4353 150.273 81.0214C150.627 80.6657 150.988 80.1483 151.084 79.8701C150.807 79.6114 150.022 79.1975 149.32 78.9388C148.773 78.7383 148.483 78.1303 148.683 77.5741C148.882 77.0179 149.488 76.7333 150.041 76.9338C151.413 77.4318 153.074 78.2856 153.222 79.5403C153.37 80.8144 152.147 82.1468 151.773 82.5284C151.567 82.7353 151.297 82.8388 151.026 82.8388Z" fill="#020144"/>
<path d="M134.447 82.8388C134.176 82.8388 133.906 82.7353 133.7 82.5284C133.32 82.1532 132.103 80.8144 132.251 79.5403C132.393 78.2856 134.06 77.4254 135.432 76.9338C135.986 76.7333 136.591 77.0179 136.79 77.5741C136.99 78.1303 136.707 78.7383 136.153 78.9388C135.451 79.1975 134.659 79.6179 134.382 79.8701C134.479 80.1288 134.839 80.6527 135.2 81.0214C135.612 81.4353 135.612 82.1144 135.2 82.5284C134.988 82.7353 134.717 82.8388 134.447 82.8388Z" fill="#020144"/>
<path d="M151.406 81.196C151.406 81.196 152.559 82.0174 151.979 83.1169C151.4 84.2164 152.398 83.4209 152.359 84.0741C152.321 84.7274 151.026 85.2448 150.724 84.6498C150.421 84.0547 149.681 81.196 149.681 81.196C149.681 81.196 150.795 80.6204 151.406 81.196Z" fill="#020144"/>
<path d="M134.067 81.196C134.067 81.196 132.914 82.0174 133.494 83.1169C134.073 84.2164 133.075 83.4209 133.114 84.0741C133.153 84.7274 134.447 85.2448 134.749 84.6498C135.052 84.0547 135.792 81.196 135.792 81.196C135.792 81.196 134.678 80.6204 134.067 81.196Z" fill="#020144"/>
</svg>
