<svg width="32" height="67" viewBox="0 0 32 67" fill="none" xmlns="http://www.w3.org/2000/svg">
<path fill-rule="evenodd" clip-rule="evenodd" d="M1.60377 11.7099C1.17162 12.2179 1.06216 12.6694 1.30338 12.9708C1.67342 13.4382 -1.34246 34.531 0.738768 45.2197C1.39953 48.5519 3.04106 48.1759 8.87148 43.4195C12.4118 40.5273 11.8333 39.8192 13.1898 48.5839C14.1649 55.0427 15.181 60.3415 16.0052 63.4676C17.0621 67.6063 20.0101 68.4873 22.0767 60.975C22.9643 57.7488 25.0077 50.4844 29.1657 32.3071C32.6998 16.8996 32.8169 17.1895 25.437 20.8202L20.8717 23.0493C21.7709 19.6991 25.0505 7.01904 26.3848 3.74789C27.7027 0.446362 28.0196 -0.784243 24.5524 0.498795C20.5195 1.96954 7.76329 8.58103 3.87553 10.248C2.97546 10.6162 1.96116 11.2815 1.60377 11.7099ZM21.2805 5.05137L20.4057 7.21111C18.2524 12.4548 15.5301 25.6581 16.2847 27.0559C17.1049 28.5753 19.5755 27.0455 26.1696 23.4858C22.5315 40.009 19.6753 52.8921 19.493 52.9905C19.4322 53.0234 19.0485 50.6405 18.6454 47.6401C17.0687 36.2866 16.2996 34.4257 13.9718 36.0748C9.93563 38.9207 6.02337 41.7783 5.54443 42.2723C5.10985 42.7031 5.00116 41.7022 4.97746 37.0059C4.86554 28.5112 5.2299 25.8422 5.84484 12.4422C17.7014 6.70873 17.5799 6.77435 21.2805 5.05137Z" fill="#020144"/>
</svg>
