<?xml version="1.0" encoding="UTF-8"?>
<svg id="Ebene_1" data-name="Ebene 1" xmlns="http://www.w3.org/2000/svg" viewBox="0 0 290.15 62.01">
  <defs>
    <style>
      .cls-1 {
        fill: #e72867;
      }

      .cls-2 {
        fill: #a81255;
      }

      .cls-3 {
        fill: #1c1537;
      }

      .cls-4 {
        fill: #4e1948;
      }
    </style>
  </defs>
  <g>
    <path class="cls-3" d="m87.47,40.01c-.56-.54-.84-1.26-.84-2.16v-15.54h-4.65c-.97,0-1.69-.2-2.16-.61-.47-.41-.71-1.03-.71-1.86s.24-1.45.71-1.85c.47-.4,1.19-.59,2.16-.59h15.45c.97,0,1.69.2,2.16.59.47.4.71,1.01.71,1.85s-.24,1.46-.71,1.86c-.47.41-1.19.61-2.16.61h-4.65v15.54c0,.9-.28,1.62-.84,2.16-.56.54-1.3.81-2.23.81s-1.67-.27-2.23-.81Z"/>
    <path class="cls-3" d="m113.15,39.93c-.48-.48-.73-1.18-.73-2.08v-17.66c0-.9.24-1.6.73-2.08s1.18-.73,2.08-.73h11.42c.95,0,1.66.2,2.15.59.48.4.73.97.73,1.72,0,1.58-.96,2.38-2.87,2.38h-8.32v4.42h7.66c1.91,0,2.87.78,2.87,2.34,0,.75-.24,1.32-.73,1.72s-1.2.59-2.15.59h-7.66v4.82h8.32c1.91,0,2.87.79,2.87,2.38,0,.75-.24,1.32-.73,1.72-.48.4-1.2.59-2.15.59h-11.42c-.9,0-1.6-.24-2.08-.73Z"/>
    <path class="cls-3" d="m165.35,18.05c.53.55.79,1.26.79,2.15v17.95c0,.84-.24,1.5-.73,1.98-.48.48-1.12.73-1.91.73s-1.4-.24-1.9-.73c-.49-.48-.74-1.14-.74-1.98v-9.7l-3.76,6.93c-.37.7-.77,1.2-1.19,1.5-.42.3-.91.45-1.48.45s-1.07-.15-1.48-.45c-.42-.3-.81-.8-1.19-1.5l-3.73-6.73v9.51c0,.81-.25,1.47-.74,1.96-.5.49-1.14.74-1.93.74s-1.4-.24-1.9-.73c-.49-.48-.74-1.14-.74-1.98v-17.95c0-.88.27-1.6.81-2.15.54-.55,1.23-.83,2.06-.83.59,0,1.13.17,1.62.51.48.34.89.83,1.22,1.47l6.07,11.42,6.04-11.42c.68-1.32,1.61-1.98,2.77-1.98.84,0,1.52.28,2.05.83Z"/>
    <path class="cls-3" d="m183.08,38.38c-1.75-1.72-2.62-4.22-2.62-7.52v-10.66c0-.9.27-1.62.81-2.16.54-.54,1.26-.81,2.16-.81s1.62.27,2.16.81.81,1.26.81,2.16v10.89c0,1.67.37,2.96,1.12,3.86.75.9,1.83,1.35,3.23,1.35s2.49-.45,3.23-1.35c.75-.9,1.12-2.19,1.12-3.86v-10.89c0-.9.27-1.62.81-2.16.54-.54,1.26-.81,2.16-.81s1.63.27,2.18.81c.55.54.83,1.26.83,2.16v10.66c0,3.28-.89,5.78-2.66,7.51-1.77,1.73-4.33,2.59-7.67,2.59s-5.92-.86-7.67-2.57Z"/>
    <path class="cls-3" d="m235.55,38.48c0,.7-.29,1.29-.87,1.76-.58.47-1.26.71-2.03.71-.53,0-1.02-.12-1.48-.36-.46-.24-.86-.6-1.19-1.09l-4.29-6.27c-.31-.44-.63-.76-.97-.97-.34-.21-.74-.31-1.2-.31h-2.15v5.91c0,.92-.26,1.66-.79,2.19-.53.54-1.25.81-2.18.81s-1.66-.27-2.2-.81-.81-1.27-.81-2.19v-17.66c0-.9.24-1.6.73-2.08s1.18-.73,2.08-.73h8.28c2.82,0,4.93.61,6.35,1.83,1.42,1.22,2.13,2.99,2.13,5.3,0,1.76-.48,3.25-1.45,4.47-.97,1.22-2.33,2.04-4.09,2.46.73.11,1.36.35,1.9.73.54.37,1.07.94,1.6,1.68l2.05,2.94c.4.59.59,1.16.59,1.68Zm-7.15-11.72c.58-.42.87-1.1.87-2.05s-.29-1.67-.87-2.1c-.58-.43-1.55-.64-2.89-.64h-4.22v5.41h4.22c1.34,0,2.3-.21,2.89-.63Z"/>
    <path class="cls-3" d="m249.64,40.04c-.54-.54-.81-1.27-.81-2.19v-17.66c0-.9.27-1.62.81-2.16.54-.54,1.27-.81,2.2-.81s1.69.27,2.24.81c.55.54.83,1.26.83,2.16v17.66c0,.92-.28,1.66-.83,2.19-.55.54-1.3.81-2.24.81s-1.66-.27-2.2-.81Z"/>
    <path class="cls-3" d="m289.35,18.05c.54.55.81,1.26.81,2.15v17.66c0,.9-.26,1.63-.79,2.18-.53.55-1.21.83-2.05.83-.99,0-1.74-.33-2.24-.99l-10.03-12.51v10.5c0,.9-.25,1.63-.76,2.18-.51.55-1.19.83-2.05.83s-1.52-.28-2.05-.83c-.53-.55-.79-1.28-.79-2.18v-17.66c0-.88.26-1.6.79-2.15s1.21-.83,2.05-.83c.95,0,1.68.33,2.21.99l10.03,12.48v-10.5c0-.9.26-1.62.78-2.16.52-.54,1.19-.81,2.03-.81s1.52.28,2.06.83Z"/>
  </g>
  <path class="cls-3" d="m39.09,41.96H10.04C4.51,41.96.02,46.99.02,52.33s4.49,9.67,10.02,9.67h29.05c5.54,0,10.02-4.33,10.02-9.67s-4.49-10.37-10.02-10.37Z"/>
  <path class="cls-4" d="m1.92,46.42c.11-.19,26.71-40.84,27.06-41.41,1.78-2.91,4.9-5,8.46-5,5.54,0,10.02,5.03,10.02,10.37,0,2.04-.66,3.94-1.78,5.5-.11.18-26.93,41.24-27.06,41.41-1.75,2.82-4.94,4.72-8.6,4.72-5.54,0-10.02-4.33-10.02-9.67,0-2.12.72-4.19,1.92-5.92Z"/>
  <path class="cls-2" d="m37.44,0H11.7S11.68,0,11.68,0C6.14,0,1.65,5.03,1.65,10.37s4.49,9.67,10.02,9.67c0,0,.01,0,.02,0h0s25.74,0,25.74,0c5.54,0,10.02-4.33,10.02-9.67S42.98,0,37.44,0Z"/>
  <path class="cls-1" d="m47.2,46.42c-.11-.19-26.71-40.84-27.06-41.41C18.36,2.09,15.24,0,11.68,0,6.14,0,1.65,5.03,1.65,10.37c0,2.04.66,3.94,1.78,5.5.11.18,26.93,41.24,27.06,41.41,1.75,2.82,4.94,4.72,8.6,4.72,5.54,0,10.02-4.33,10.02-9.67,0-2.12-.72-4.19-1.92-5.92Z"/>
</svg>