<svg width="44" height="136" viewBox="0 0 44 136" fill="none" xmlns="http://www.w3.org/2000/svg">
<path fill-rule="evenodd" clip-rule="evenodd" d="M13.8727 80.607C15.0561 95.5094 18.8545 110.967 27.8308 122.91C31.0959 127.255 35.1415 130.614 39.2519 134.091C39.5396 134.335 39.9732 134.299 40.2192 134.01C40.464 133.719 40.4279 133.286 40.1376 133.041C36.107 129.632 32.1311 126.346 28.9289 122.084C20.0797 110.311 16.3785 95.056 15.2305 80.3679L15.4554 80.3324C17.894 79.9493 20.3145 77.6343 22.3145 74.375C25.1823 69.7026 27.2534 63.1255 27.5667 58.2132C27.7068 56.0059 27.4838 54.1219 26.8672 52.8501C26.3869 51.8579 25.6694 51.205 24.7257 50.9534C22.7144 50.4184 20.7474 51.7601 19.0986 54.29C15.6485 59.5791 13.3619 70.0202 13.5351 74.7655C13.5899 76.2479 13.6671 77.7408 13.7718 79.2393C13.3445 79.3184 12.9259 79.3944 12.5154 79.4492C11.3456 79.603 10.2251 79.5868 9.03539 78.926C7.1817 77.8946 5.81448 76.1034 4.77738 74.035C3.16163 70.8056 2.36247 66.8955 1.92397 63.9196C-0.518343 47.3447 5.52546 34.4277 13.5139 24.4187C21.5827 14.3121 31.6322 7.15021 37.0737 2.17593C37.354 1.92063 37.372 1.48664 37.1166 1.20624C36.8613 0.925846 36.4265 0.906539 36.1468 1.16333C30.6698 6.16931 20.5624 13.3881 12.4407 23.5634C4.23859 33.8363 -1.94099 47.1048 0.563607 64.1189C1.0208 67.2193 1.86605 71.287 3.54907 74.649C4.7151 76.9766 6.28226 78.9653 8.36828 80.1262C10.2407 81.1676 11.9629 80.9459 13.8727 80.607ZM15.1309 78.9927L15.243 78.9765C17.3751 78.6414 19.3951 76.5076 21.1435 73.6563C23.8991 69.1669 25.8942 62.8483 26.1945 58.1254C26.2985 56.5061 26.2038 55.0823 25.8531 54.0042C25.5629 53.1148 25.1069 52.4757 24.3732 52.282C23.6805 52.0952 23.0122 52.2771 22.3725 52.7031C21.6207 53.202 20.9156 54.0179 20.2485 55.0387C16.9341 60.1216 14.741 70.1553 14.9079 74.7151C14.9608 76.1314 15.0337 77.5583 15.1309 78.9927Z" fill="#5DB9F5"/>
<path fill-rule="evenodd" clip-rule="evenodd" d="M41.9838 134.394C41.7041 134.505 41.2837 134.538 40.8315 134.569C39.7545 134.644 38.505 134.565 37.9145 134.551C37.5346 134.543 37.2219 134.845 37.2132 135.224C37.2057 135.604 37.5059 135.917 37.8865 135.925C38.6097 135.94 40.2752 136.042 41.498 135.884C42.1539 135.799 42.697 135.623 43.0116 135.38C43.5479 134.967 43.6108 134.291 43.0134 133.418C42.3065 132.385 40.5151 130.779 40.0884 128.737C40.0118 128.367 39.6455 128.128 39.2761 128.206C38.9037 128.284 38.6657 128.648 38.7436 129.019C39.1516 130.966 40.6184 132.591 41.5322 133.733C41.7054 133.95 41.8817 134.228 41.9838 134.394Z" fill="#5DB9F5"/>
</svg>
