<svg width="30" height="34" viewBox="0 0 30 34" fill="none" xmlns="http://www.w3.org/2000/svg">
<g clip-path="url(#clip0_231_49658)">
<path d="M14.8863 0C17.0334 0 18.9122 2.00049 20.2154 5.23503C20.3704 5.6224 20.5198 6.0319 20.6609 6.45524C21.0944 6.34456 21.5177 6.25233 21.9309 6.17855C25.3536 5.53385 28.0514 6.04297 29.2079 7.85254C30.3645 9.66211 29.6921 12.3211 27.6695 15.1572C27.1983 15.8129 26.6921 16.4429 26.1532 17.0443C26.6925 17.6472 27.1987 18.279 27.6695 18.9368C29.6728 21.7868 30.3258 24.4513 29.1581 26.2554C27.9905 28.0594 25.2844 28.5436 21.87 27.8768C21.4744 27.7993 21.0704 27.7052 20.6554 27.6001C20.5198 28.0041 20.3787 28.3942 20.2292 28.765C18.926 31.9995 17.0473 34 14.9001 34C12.753 34 10.8604 31.9995 9.55721 28.776C9.40226 28.3887 9.25285 27.9792 9.11174 27.5558C8.67641 27.6665 8.25307 27.7587 7.84172 27.8325C4.41903 28.4772 1.72127 27.9681 0.564699 26.1724C-0.591877 24.3766 0.0804867 21.6844 2.10311 18.8483C2.57351 18.1919 3.0797 17.562 3.61939 16.9613C3.08468 16.3561 2.58313 15.7225 2.11695 15.0632C0.11369 12.2132 -0.55314 9.54867 0.628338 7.7474C1.80982 5.94613 4.50204 5.45915 7.91642 6.12598C8.3121 6.20345 8.71607 6.29753 9.13111 6.40267C9.26669 5.9987 9.4078 5.60856 9.55721 5.23779C10.8604 2.00049 12.7281 0 14.8863 0ZM14.8476 15.4395C15.3456 14.922 15.6943 14.4738 16.4607 14.3853C17.9023 14.2192 19.2276 15.694 18.4972 17.1522C18.0268 18.0929 16.6987 19.2191 15.9294 19.9827L14.8476 21.0535L13.9566 20.1986C12.8803 19.1499 11.1288 17.8467 11.068 16.2336C11.0292 15.1019 11.9229 14.388 12.9495 14.388C13.8653 14.4019 14.2499 14.8556 14.8476 15.4367V15.4395ZM25.1046 18.1483C24.1261 19.1242 23.0894 20.0399 22.0001 20.8903C21.8344 22.6646 21.5263 24.4226 21.0787 26.1475C21.4412 26.2388 21.7981 26.3218 22.1467 26.3882C24.9441 26.9416 27.0746 26.6649 27.8715 25.4336C28.6684 24.2023 28.0514 22.1493 26.4133 19.8167C26.0064 19.2408 25.5696 18.6867 25.1046 18.1566V18.1483ZM4.66805 15.8517C5.64653 14.8758 6.68326 13.9601 7.77254 13.1097C7.93823 11.3354 8.24636 9.57739 8.69393 7.85254C8.33146 7.76123 7.97453 7.67822 7.6259 7.61182C4.82853 7.05843 2.698 7.33512 1.90112 8.56641C1.10425 9.79769 1.72127 11.8507 3.3593 14.1833C3.7662 14.7592 4.20305 15.3133 4.66805 15.8434V15.8517ZM19.1834 27.1712C17.6993 26.6794 16.2529 26.0801 14.8559 25.3783C13.4715 26.059 12.0401 26.6397 10.5727 27.1159C10.6972 27.4922 10.83 27.8519 10.9683 28.195C12.0308 30.8374 13.4226 32.4727 14.8863 32.4727C16.35 32.4727 17.7418 30.8429 18.8153 28.2005C18.9482 27.8713 19.0754 27.5282 19.1944 27.1712H19.1834ZM13.1791 24.4901C12.4265 24.0667 11.6684 23.6102 10.913 23.1066C10.4122 22.7829 9.92245 22.4508 9.4493 22.1133C9.60864 23.3078 9.84057 24.4914 10.1438 25.6577C11.1794 25.3215 12.1955 24.928 13.1874 24.479L13.1791 24.4901ZM7.76978 20.8626C6.67793 19.9973 5.63936 19.0669 4.65975 18.0763C4.19114 18.6063 3.7506 19.1605 3.33993 19.7365C1.67977 22.0607 1.05445 24.1138 1.84302 25.3478C2.63159 26.5819 4.75936 26.8696 7.56226 26.3411C7.92473 26.2747 8.29826 26.1917 8.66903 26.0949C8.22932 24.3778 7.9286 22.628 7.76978 20.8626ZM10.5893 6.82878C12.0732 7.32115 13.5194 7.92038 14.9167 8.62175C16.301 7.9391 17.7324 7.35655 19.2 6.87858C19.0754 6.50228 18.9426 6.14258 18.8153 5.81055C17.7418 3.15706 16.35 1.52181 14.8863 1.52181C13.4226 1.52181 12.0308 3.15706 10.9683 5.81055C10.8355 6.13981 10.7083 6.48291 10.5893 6.83984V6.82878ZM16.6018 9.50993C17.3544 9.93327 18.1126 10.3898 18.8679 10.8934C19.3697 11.2199 19.8585 11.5519 20.3344 11.8895C20.1761 10.6907 19.946 9.50247 19.6454 8.33122C18.6098 8.66745 17.5937 9.06096 16.6018 9.50993ZM22.0028 13.1374C23.0947 14.0027 24.1333 14.9331 25.1129 15.9237C25.5815 15.3937 26.022 14.8395 26.4327 14.2635C28.0929 11.9393 28.7182 9.88623 27.9296 8.65218C27.141 7.41813 25.0133 7.13867 22.2104 7.66715C21.8479 7.73356 21.4744 7.81657 21.1036 7.91341C21.5466 9.62751 21.851 11.3745 22.0139 13.1374H22.0028ZM24.0725 17.0332C23.4832 16.43 22.8385 15.8241 22.1357 15.2264C22.1633 15.8102 22.1744 16.4023 22.1744 17C22.1744 17.5977 22.1716 18.2174 22.1357 18.8151C22.8274 18.2257 23.4721 17.6281 24.0725 17.0332ZM20.5447 13.9232C19.7607 13.3108 18.9233 12.7205 18.0323 12.1523C16.9892 11.4744 15.9405 10.863 14.9085 10.3234C13.8819 10.8519 12.8416 11.4495 11.8012 12.1108L11.7542 12.1413C10.8687 12.6947 10.0248 13.2979 9.23071 13.8983C9.15047 14.8999 9.10897 15.9375 9.10897 17C9.10897 18.0625 9.15047 19.0807 9.22795 20.0768C10.0027 20.6717 10.8272 21.2528 11.6905 21.8172C11.7244 21.8349 11.7568 21.8552 11.7874 21.8781C12.8167 22.5449 13.846 23.1453 14.8642 23.6766C15.9018 23.1453 16.9504 22.5394 17.9991 21.8698C18.8928 21.2998 19.7423 20.7077 20.5419 20.1017C20.6222 19.1001 20.6637 18.0625 20.6637 17C20.6637 15.9375 20.6222 14.9193 20.5447 13.9232ZM13.2317 9.49609C12.2289 9.03337 11.2007 8.62783 10.1521 8.28141C9.84608 9.45873 9.61138 10.6535 9.4493 11.859C9.93628 11.516 10.4389 11.1802 10.9573 10.8519L10.9877 10.8325C11.7256 10.3566 12.4736 9.91206 13.2317 9.49886V9.49609ZM5.69735 16.9668C6.2867 17.57 6.9314 18.1759 7.6342 18.7736C7.60837 18.1907 7.59638 17.5995 7.59823 17C7.59823 16.3857 7.59823 15.7826 7.63697 15.1849C6.94523 15.7743 6.30054 16.3719 5.70012 16.9668H5.69735ZM16.5409 24.5011C17.5437 24.9639 18.5719 25.3694 19.6205 25.7158C19.9267 24.5376 20.1614 23.3419 20.3233 22.1354C19.8363 22.4804 19.3337 22.8179 18.8153 23.1481C18.0572 23.6323 17.2963 24.0833 16.5409 24.5011Z" fill="#E63277"/>
</g>
<defs>
<clipPath id="clip0_231_49658">
<rect width="29.7721" height="34" fill="white"/>
</clipPath>
</defs>
</svg>
