<svg width="29" height="33" viewBox="0 0 29 33" fill="none" xmlns="http://www.w3.org/2000/svg">
<path d="M28.2025 29.4952C28.3824 27.5484 28.8834 20.793 28.3876 18.4475L26.6661 10.3024C26.4341 9.20481 25.3637 8.49815 24.28 8.72719C23.1967 8.95617 22.5037 10.0355 22.7357 11.1331L23.4698 14.6062C23.5129 14.8103 23.3821 15.0112 23.1781 15.0544C22.974 15.0975 22.7732 14.9667 22.73 14.7626L21.5829 9.33489C21.3509 8.23766 20.2803 7.53115 19.1966 7.76022C18.113 7.98924 17.4201 9.06847 17.6521 10.1657L18.4699 14.0353C18.5131 14.2394 18.3821 14.4402 18.1782 14.4833C17.9742 14.5264 17.7734 14.3956 17.7303 14.1916L16.5832 8.76447C16.3513 7.66735 15.281 6.96122 14.1973 7.19026C13.1139 7.41926 12.4209 8.49808 12.6528 9.5952L13.4709 13.4657C13.514 13.6695 13.383 13.8707 13.1791 13.9138C12.975 13.9569 12.7741 13.8259 12.7311 13.6221L10.3757 2.47835C10.1439 1.38089 9.07332 0.674702 7.98955 0.903768C6.90588 1.13281 6.21275 2.21177 6.4447 3.30921L10.0918 20.5649C10.1243 20.7183 10.0574 20.8778 9.92506 20.9621C9.79388 21.0456 9.61829 21.0383 9.49494 20.9452L3.77856 16.6523L3.7127 16.6077C3.26999 16.3366 2.74501 16.2453 2.23493 16.3501L2.2218 16.3529C1.69318 16.471 1.24582 16.7763 0.962321 17.2128C0.604867 17.7623 0.43285 18.7044 1.64642 20.0731C3.48863 22.1487 5.43002 24.0764 7.14993 25.7838C8.42872 27.0538 9.63669 28.2531 10.5661 29.2836C11.1604 29.9432 12.4859 31.7246 13.2091 32.664L28.2024 29.4951L28.2025 29.4952Z" fill="#9492FD"/>
</svg>
