<svg width="360" height="94" viewBox="0 0 360 94" fill="none" xmlns="http://www.w3.org/2000/svg">
<g clip-path="url(#clip0_314_2633)">
<path d="M353.12 -29.6531C356.092 -24.0357 358.149 -18.2103 359.196 -12.2266L358.211 -12.0541C358.733 -9.07343 359 -6.05342 359 -3C359 0.0534286 358.733 3.07344 358.211 6.05415L359.196 6.22663C358.149 12.2103 356.092 18.0357 353.12 23.6531L352.236 23.1854C349.503 28.3497 345.979 33.3461 341.731 38.133L342.479 38.7968C338.559 43.214 334.037 47.4464 328.97 51.4631L328.349 50.6795C323.739 54.3343 318.67 57.8127 313.184 61.0899L313.697 61.9484C308.579 65.0059 303.105 67.8869 297.31 70.5725L296.89 69.6652C291.47 72.1771 285.766 74.5181 279.807 76.6723L280.147 77.6127C274.484 79.66 268.592 81.5385 262.499 83.2349L262.23 82.2715C256.424 83.8879 250.432 85.3387 244.275 86.612L244.477 87.5913C238.533 88.8207 232.437 89.8852 226.208 90.7741L226.066 89.7842C220.062 90.6412 213.933 91.3347 207.698 91.8552L207.781 92.8518C201.705 93.359 195.529 93.7025 189.269 93.8736L189.242 92.874C186.181 92.9577 183.1 93 180 93C176.9 93 173.819 92.9577 170.758 92.874L170.731 93.8736C164.471 93.7025 158.295 93.359 152.219 92.8518L152.302 91.8552C146.067 91.3347 139.938 90.6412 133.934 89.7842L133.792 90.7741C127.563 89.8852 121.467 88.8207 115.523 87.5913L115.725 86.612C109.568 85.3387 103.576 83.8879 97.7696 82.2715L97.5014 83.2349C91.4075 81.5385 85.5165 79.66 79.8532 77.6127L80.1931 76.6723C74.2339 74.5181 68.53 72.1771 63.1103 69.6653L62.6898 70.5725C56.8951 67.8869 51.4212 65.0059 46.3034 61.9484L46.8162 61.0899C41.3305 57.8127 36.2612 54.3343 31.651 50.6795L31.0298 51.4631C25.9631 47.4464 21.4412 43.214 17.5213 38.7968L18.2692 38.133C14.0212 33.3461 10.4968 28.3497 7.76413 23.1854L6.88025 23.6531C3.90781 18.0357 1.85143 12.2103 0.803703 6.22662L1.78872 6.05415C1.2668 3.07343 1 0.053421 1 -3C1 -6.05343 1.2668 -9.07344 1.78872 -12.0542L0.803704 -12.2266C1.85143 -18.2103 3.90782 -24.0357 6.88025 -29.6531L7.76413 -29.1854C10.4968 -34.3497 14.0212 -39.3461 18.2692 -44.133L17.5212 -44.7968C21.4412 -49.214 25.9631 -53.4464 31.0298 -57.4631L31.651 -56.6795C36.2612 -60.3343 41.3305 -63.8127 46.8162 -67.0899L46.3034 -67.9484C51.4212 -71.0059 56.8951 -73.8869 62.6898 -76.5725L63.1103 -75.6652C68.5299 -78.1771 74.2339 -80.5181 80.1931 -82.6723L79.8532 -83.6127C85.5165 -85.6599 91.4075 -87.5384 97.5014 -89.2349L97.7696 -88.2715C103.576 -89.8879 109.568 -91.3387 115.725 -92.612L115.523 -93.5913C121.467 -94.8207 127.563 -95.8851 133.792 -96.7741L133.934 -95.7842C139.938 -96.6412 146.067 -97.3347 152.302 -97.8552L152.219 -98.8518C158.295 -99.359 164.471 -99.7025 170.731 -99.8736L170.758 -98.874C173.819 -98.9577 176.9 -99 180 -99C183.1 -99 186.181 -98.9577 189.242 -98.874L189.269 -99.8736C195.529 -99.7025 201.705 -99.359 207.781 -98.8518L207.698 -97.8552C213.933 -97.3347 220.062 -96.6412 226.066 -95.7842L226.208 -96.7741C232.437 -95.8852 238.533 -94.8207 244.477 -93.5913L244.275 -92.612C250.432 -91.3387 256.424 -89.8879 262.23 -88.2715L262.499 -89.2349C268.592 -87.5385 274.483 -85.66 280.147 -83.6127L279.807 -82.6723C285.766 -80.5181 291.47 -78.1771 296.89 -75.6653L297.31 -76.5726C303.105 -73.8869 308.579 -71.0059 313.697 -67.9484L313.184 -67.0899C318.67 -63.8127 323.739 -60.3343 328.349 -56.6795L328.97 -57.4631C334.037 -53.4464 338.559 -49.214 342.479 -44.7968L341.731 -44.133C345.979 -39.3461 349.503 -34.3497 352.236 -29.1854L353.12 -29.6531Z" stroke="#5DB9F5" stroke-width="2" stroke-dasharray="20 20"/>
</g>
<defs>
<clipPath id="clip0_314_2633">
<rect width="360" height="94" fill="white"/>
</clipPath>
</defs>
</svg>
