<?xml version="1.0" encoding="utf-8"?>
<!-- Generator: Adobe Illustrator 27.4.0, SVG Export Plug-In . SVG Version: 6.00 Build 0)  -->
<svg version="1.1"
	 id="svg3290" xmlns:dc="http://purl.org/dc/elements/1.1/" xmlns:rdf="http://www.w3.org/1999/02/22-rdf-syntax-ns#" xmlns:cc="http://creativecommons.org/ns#" xmlns:sodipodi="http://sodipodi.sourceforge.net/DTD/sodipodi-0.dtd" xmlns:inkscape="http://www.inkscape.org/namespaces/inkscape" xmlns:svg="http://www.w3.org/2000/svg" inkscape:export-filename="/home/rafael/workspace/logo-osi/5/png/logo396x412.png" inkscape:export-xdpi="52.737835" inkscape:export-ydpi="52.737835" inkscape:version="0.48.3.1 r9886" sodipodi:docname="OSI_logo_by_USP.svg"
	 xmlns="http://www.w3.org/2000/svg" xmlns:xlink="http://www.w3.org/1999/xlink" x="0px" y="0px" viewBox="0 0 744.1 1052.4"
	 style="enable-background:new 0 0 744.1 1052.4;" xml:space="preserve">
<style type="text/css">
	.st0{fill:#3FA652;stroke:#21552A;stroke-width:23.3073;stroke-linejoin:round;stroke-miterlimit:12.643;}
	.st1{enable-background:new    ;}
	.st2{fill:none;stroke:#000000;stroke-width:6.6651;}
</style>
<sodipodi:namedview  bordercolor="#666666" borderopacity="1.0" id="base" inkscape:current-layer="g3879" inkscape:cx="557.86446" inkscape:cy="404.85445" inkscape:document-units="px" inkscape:guide-bbox="true" inkscape:pageopacity="0.0" inkscape:pageshadow="2" inkscape:window-height="744" inkscape:window-maximized="1" inkscape:window-width="1366" inkscape:window-x="0" inkscape:window-y="24" inkscape:zoom="0.49497475" pagecolor="#ffffff" showgrid="false" showguides="true">
	<sodipodi:guide  id="guide3004" orientation="1,0" position="389.91888,215.16249"></sodipodi:guide>
</sodipodi:namedview>
<g id="layer1" inkscape:groupmode="layer" inkscape:label="Layer 1">
	
		<g id="g3879" transform="matrix(3.1607572,0,0,3.1607572,1289.8039,2829.9529)" inkscape:export-filename="/home/paulormm/usp/softwarelivre/OSI/OSI_member_card_model_final-300dpi.png" inkscape:export-xdpi="300.05554" inkscape:export-ydpi="300.05554">
		
			<path id="path3773" inkscape:connector-curvature="0" inkscape:export-filename="/home/rafael/workspace/logo-osi/3/png/logo396x412.png" inkscape:export-xdpi="48.18" inkscape:export-ydpi="48.18" class="st0" d="
			M-276-740.3c15.8-6.1,23.8-23.9,17.7-39.7c-6.1-15.8-23.9-23.8-39.7-17.7c-15.8,6.1-23.8,23.9-17.7,39.7
			c3.1,8.1,9.5,14.6,17.7,17.7l-20.7,53.9c-45.6-17.5-68.4-68.7-50.9-114.3s68.7-68.4,114.3-50.9c45.6,17.5,68.4,68.7,50.9,114.3
			c-9,23.4-27.5,41.9-50.9,50.9L-276-740.3z"/>
		<g class="st1">
			<path d="M-379.8-659.7c0,1.6-0.2,3-0.6,4.2c-0.4,1.2-1,2.3-1.7,3.1c-0.7,0.8-1.7,1.5-2.7,1.9c-1.1,0.4-2.3,0.7-3.6,0.7
				c-1.2,0-2.4-0.2-3.4-0.7c-1-0.4-1.9-1.1-2.7-1.9c-0.8-0.8-1.3-1.9-1.8-3.1c-0.4-1.2-0.6-2.6-0.6-4.2c0-2.1,0.3-3.9,1-5.3
				c0.7-1.5,1.7-2.6,3-3.3c1.3-0.8,2.8-1.2,4.6-1.2c1.7,0,3.2,0.4,4.5,1.2c1.3,0.8,2.3,1.9,3,3.4
				C-380.2-663.5-379.8-661.7-379.8-659.7z M-394-659.7c0,1.5,0.2,2.8,0.6,4c0.4,1.1,1,2,1.8,2.6c0.8,0.6,1.9,0.9,3.2,0.9
				c1.3,0,2.4-0.3,3.2-0.9c0.8-0.6,1.4-1.5,1.8-2.6c0.4-1.1,0.6-2.4,0.6-4c0-1.5-0.2-2.8-0.6-3.9c-0.4-1.1-1-2-1.8-2.6
				c-0.8-0.6-1.9-0.9-3.2-0.9c-1.9,0-3.4,0.7-4.3,2C-393.6-663.8-394-662-394-659.7z"/>
			<path d="M-366.2-669.5c2.3,0,4.2,0.8,5.6,2.4c1.4,1.6,2.1,4.1,2.1,7.3c0,2.2-0.3,4-1,5.4c-0.6,1.5-1.5,2.6-2.7,3.3
				c-1.2,0.8-2.5,1.1-4.1,1.1c-1,0-1.9-0.1-2.6-0.4c-0.7-0.3-1.4-0.6-1.9-1.1c-0.5-0.5-1-0.9-1.3-1.5h-0.2c0,0.5,0.1,1,0.1,1.6
				c0.1,0.6,0.1,1.2,0.1,1.7v7.8h-2.8v-27.5h2.3l0.4,2.8h0.1c0.4-0.6,0.8-1.1,1.3-1.6c0.5-0.5,1.2-0.9,1.9-1.1
				C-368.1-669.3-367.2-669.5-366.2-669.5z M-366.7-667.1c-1.3,0-2.3,0.3-3.1,0.8c-0.8,0.5-1.4,1.3-1.7,2.3c-0.4,1-0.6,2.3-0.6,3.8
				v0.6c0,1.6,0.2,3,0.5,4.1c0.3,1.1,0.9,2,1.7,2.5c0.8,0.6,1.9,0.9,3.2,0.9c1.2,0,2.1-0.3,2.9-1c0.8-0.6,1.3-1.5,1.7-2.7
				c0.4-1.1,0.6-2.4,0.6-3.9c0-2.2-0.4-4-1.3-5.3C-363.6-666.4-364.9-667.1-366.7-667.1z"/>
			<path d="M-346.5-669.5c1.6,0,2.9,0.4,4.1,1.1c1.1,0.7,2,1.7,2.6,3c0.6,1.3,0.9,2.8,0.9,4.5v1.8h-12.9c0,2.2,0.6,3.9,1.6,5.1
				c1.1,1.2,2.5,1.8,4.5,1.8c1.2,0,2.2-0.1,3.1-0.3c0.9-0.2,1.8-0.5,2.8-1v2.5c-0.9,0.4-1.9,0.7-2.8,0.9c-0.9,0.2-2,0.3-3.3,0.3
				c-1.8,0-3.4-0.4-4.7-1.1c-1.3-0.7-2.4-1.8-3.1-3.3c-0.7-1.4-1.1-3.2-1.1-5.3c0-2,0.3-3.8,1-5.3c0.7-1.5,1.6-2.6,2.9-3.5
				C-349.6-669.1-348.2-669.5-346.5-669.5z M-346.5-667.1c-1.5,0-2.7,0.5-3.6,1.5c-0.9,1-1.4,2.4-1.6,4.2h9.9c0-1.1-0.2-2.1-0.5-3
				c-0.3-0.9-0.8-1.5-1.5-2S-345.5-667.1-346.5-667.1z"/>
			<path d="M-325.3-669.5c2.2,0,3.9,0.6,5,1.7c1.1,1.1,1.7,2.9,1.7,5.3v12.4h-2.8v-12.2c0-1.6-0.4-2.8-1.1-3.6
				c-0.7-0.8-1.8-1.2-3.3-1.2c-2.1,0-3.5,0.6-4.4,1.8c-0.8,1.2-1.3,2.9-1.3,5.2v9.9h-2.8v-19h2.3l0.4,2.7h0.2
				c0.4-0.7,0.9-1.2,1.5-1.7c0.6-0.5,1.3-0.8,2.1-1C-326.9-669.4-326.1-669.5-325.3-669.5z"/>
		</g>
		<g class="st1">
			<path d="M-282-656c0,1.2-0.3,2.2-0.9,3.1c-0.6,0.8-1.4,1.4-2.6,1.9c-1.1,0.4-2.4,0.6-4,0.6c-1.3,0-2.4-0.1-3.4-0.3
				c-1-0.2-1.8-0.5-2.5-0.9v-2.7c0.8,0.4,1.7,0.7,2.7,1c1.1,0.3,2.1,0.5,3.2,0.5c1.6,0,2.8-0.3,3.5-0.8c0.7-0.5,1.1-1.3,1.1-2.2
				c0-0.5-0.1-1-0.4-1.4c-0.3-0.4-0.8-0.8-1.5-1.2c-0.7-0.4-1.6-0.8-2.8-1.2c-1.2-0.5-2.2-0.9-3.1-1.4c-0.9-0.5-1.5-1-2-1.7
				c-0.5-0.7-0.7-1.5-0.7-2.6c0-1.6,0.6-2.8,1.9-3.7c1.3-0.9,2.9-1.3,5-1.3c1.1,0,2.2,0.1,3.2,0.3c1,0.2,1.9,0.5,2.7,0.9l-1,2.3
				c-0.8-0.3-1.6-0.6-2.5-0.8c-0.9-0.2-1.8-0.3-2.7-0.3c-1.3,0-2.3,0.2-3,0.7c-0.7,0.4-1,1-1,1.8c0,0.6,0.2,1.1,0.5,1.5
				s0.8,0.7,1.6,1.1c0.7,0.3,1.7,0.7,2.8,1.2c1.2,0.4,2.2,0.9,3,1.4c0.8,0.5,1.5,1,2,1.7C-282.2-657.9-282-657-282-656z"/>
			<path d="M-261.4-660.3c0,1.6-0.2,3-0.6,4.2c-0.4,1.2-1,2.3-1.7,3.1c-0.7,0.8-1.7,1.5-2.7,1.9c-1.1,0.4-2.3,0.7-3.6,0.7
				c-1.2,0-2.4-0.2-3.4-0.7c-1-0.4-1.9-1.1-2.7-1.9c-0.8-0.8-1.3-1.9-1.8-3.1c-0.4-1.2-0.6-2.6-0.6-4.2c0-2.1,0.3-3.9,1-5.3
				c0.7-1.5,1.7-2.6,3-3.3s2.8-1.2,4.6-1.2c1.7,0,3.2,0.4,4.5,1.2c1.3,0.8,2.3,1.9,3,3.4C-261.8-664.1-261.4-662.4-261.4-660.3z
				 M-275.6-660.3c0,1.5,0.2,2.8,0.6,4c0.4,1.1,1,2,1.8,2.6c0.8,0.6,1.9,0.9,3.2,0.9c1.3,0,2.4-0.3,3.2-0.9c0.8-0.6,1.4-1.5,1.8-2.6
				c0.4-1.1,0.6-2.4,0.6-4c0-1.5-0.2-2.8-0.6-3.9c-0.4-1.1-1-2-1.8-2.6c-0.8-0.6-1.9-0.9-3.2-0.9c-1.9,0-3.4,0.7-4.3,2
				C-275.1-664.4-275.6-662.6-275.6-660.3z"/>
			<path d="M-241.1-669.8v19h-2.3l-0.4-2.7h-0.2c-0.4,0.7-0.9,1.2-1.5,1.7c-0.6,0.5-1.3,0.8-2.1,1c-0.8,0.2-1.6,0.3-2.4,0.3
				c-1.5,0-2.7-0.2-3.7-0.7c-1-0.5-1.7-1.2-2.3-2.3c-0.5-1-0.8-2.3-0.8-3.9v-12.4h2.9v12.2c0,1.6,0.4,2.8,1.1,3.5
				c0.7,0.8,1.8,1.2,3.2,1.2c1.4,0,2.5-0.3,3.3-0.8c0.8-0.5,1.4-1.3,1.8-2.3c0.4-1,0.5-2.3,0.5-3.8v-10H-241.1z"/>
			<path d="M-226.7-670.1c0.4,0,0.8,0,1.2,0.1c0.4,0,0.8,0.1,1.1,0.2l-0.4,2.7c-0.3-0.1-0.6-0.1-1-0.2c-0.4,0-0.7-0.1-1.1-0.1
				c-0.7,0-1.5,0.2-2.1,0.5c-0.7,0.3-1.2,0.7-1.7,1.3c-0.5,0.6-0.9,1.3-1.2,2.1c-0.3,0.8-0.4,1.7-0.4,2.7v10.2h-2.8v-19h2.3l0.3,3.5
				h0.1c0.4-0.7,0.9-1.3,1.4-1.9c0.5-0.6,1.2-1,1.9-1.4C-228.4-669.9-227.6-670.1-226.7-670.1z"/>
			<path d="M-213.5-650.4c-1.7,0-3.2-0.4-4.4-1.1c-1.3-0.7-2.3-1.8-3-3.2c-0.7-1.4-1.1-3.3-1.1-5.5c0-2.3,0.4-4.2,1.1-5.6
				c0.8-1.5,1.8-2.5,3.1-3.2c1.3-0.7,2.8-1.1,4.5-1.1c0.9,0,1.8,0.1,2.7,0.3c0.9,0.2,1.6,0.4,2.1,0.7l-0.9,2.4
				c-0.6-0.2-1.2-0.4-2-0.6c-0.7-0.2-1.4-0.3-2.1-0.3c-1.3,0-2.4,0.3-3.2,0.8c-0.9,0.6-1.5,1.4-1.9,2.5c-0.4,1.1-0.6,2.4-0.6,4.1
				c0,1.5,0.2,2.8,0.6,3.9c0.4,1.1,1,1.9,1.9,2.5c0.8,0.6,1.9,0.9,3.1,0.9c1,0,1.9-0.1,2.7-0.3c0.8-0.2,1.5-0.5,2.2-0.8v2.6
				c-0.6,0.3-1.3,0.6-2.1,0.7C-211.5-650.5-212.4-650.4-213.5-650.4z"/>
			<path d="M-197.1-670.1c1.6,0,2.9,0.4,4.1,1.1c1.1,0.7,2,1.7,2.6,3c0.6,1.3,0.9,2.8,0.9,4.5v1.8h-12.9c0,2.2,0.6,3.9,1.6,5.1
				c1.1,1.2,2.5,1.8,4.5,1.8c1.2,0,2.2-0.1,3.1-0.3c0.9-0.2,1.8-0.5,2.8-1v2.5c-0.9,0.4-1.9,0.7-2.8,0.9c-0.9,0.2-2,0.3-3.3,0.3
				c-1.8,0-3.4-0.4-4.7-1.1s-2.4-1.8-3.1-3.3c-0.7-1.4-1.1-3.2-1.1-5.3c0-2,0.3-3.8,1-5.3c0.7-1.5,1.6-2.6,2.9-3.5
				C-200.2-669.7-198.8-670.1-197.1-670.1z M-197.1-667.8c-1.5,0-2.7,0.5-3.6,1.5c-0.9,1-1.4,2.4-1.6,4.2h9.9c0-1.1-0.2-2.1-0.5-3
				c-0.3-0.9-0.8-1.5-1.5-2C-195.2-667.5-196.1-667.8-197.1-667.8z"/>
		</g>
		<g class="st1">
			<path d="M-360.5-641.4c0.5,0,0.9,0.2,1.2,0.5c0.3,0.3,0.5,0.8,0.5,1.4c0,0.6-0.2,1.1-0.5,1.4c-0.3,0.3-0.7,0.5-1.2,0.5
				c-0.5,0-0.9-0.2-1.2-0.5s-0.5-0.8-0.5-1.4c0-0.6,0.2-1.1,0.5-1.4C-361.4-641.3-361-641.4-360.5-641.4z M-359.1-634.3v19h-2.8v-19
				H-359.1z"/>
			<path d="M-344.4-634.7c2.2,0,3.9,0.6,5,1.7c1.1,1.1,1.7,2.9,1.7,5.3v12.4h-2.8v-12.2c0-1.6-0.4-2.8-1.1-3.6
				c-0.7-0.8-1.8-1.2-3.3-1.2c-2.1,0-3.5,0.6-4.4,1.8c-0.8,1.2-1.3,2.9-1.3,5.2v9.9h-2.8v-19h2.3l0.4,2.7h0.2
				c0.4-0.7,0.9-1.2,1.5-1.7c0.6-0.5,1.3-0.8,2.1-1C-346-634.6-345.2-634.7-344.4-634.7z"/>
			<path d="M-330.4-641.4c0.5,0,0.9,0.2,1.2,0.5c0.3,0.3,0.5,0.8,0.5,1.4c0,0.6-0.2,1.1-0.5,1.4c-0.3,0.3-0.7,0.5-1.2,0.5
				c-0.5,0-0.9-0.2-1.2-0.5s-0.5-0.8-0.5-1.4c0-0.6,0.2-1.1,0.5-1.4C-331.3-641.3-330.9-641.4-330.4-641.4z M-329-634.3v19h-2.8v-19
				H-329z"/>
			<path d="M-317-617.3c0.5,0,0.9,0,1.4-0.1c0.5-0.1,0.9-0.2,1.2-0.3v2.2c-0.3,0.2-0.8,0.3-1.4,0.4c-0.6,0.1-1.2,0.2-1.7,0.2
				c-1,0-1.9-0.2-2.7-0.5c-0.8-0.4-1.4-1-1.9-1.8c-0.5-0.8-0.7-2-0.7-3.5v-11.3h-2.7v-1.4l2.7-1.1l1.1-4.1h1.7v4.4h5.5v2.3h-5.5
				v11.2c0,1.2,0.3,2.1,0.8,2.7C-318.6-617.6-317.9-617.3-317-617.3z"/>
			<path d="M-309.2-641.4c0.5,0,0.9,0.2,1.2,0.5c0.3,0.3,0.5,0.8,0.5,1.4c0,0.6-0.2,1.1-0.5,1.4c-0.3,0.3-0.7,0.5-1.2,0.5
				c-0.5,0-0.9-0.2-1.2-0.5c-0.3-0.3-0.5-0.8-0.5-1.4c0-0.6,0.2-1.1,0.5-1.4C-310.1-641.3-309.7-641.4-309.2-641.4z M-307.8-634.3
				v19h-2.8v-19H-307.8z"/>
			<path d="M-294.9-634.6c2.2,0,3.9,0.5,4.9,1.5c1.1,1,1.6,2.6,1.6,4.9v12.9h-2.1l-0.5-2.8h-0.1c-0.5,0.7-1.1,1.3-1.6,1.7
				c-0.6,0.5-1.2,0.8-2,1.1c-0.7,0.2-1.7,0.4-2.7,0.4c-1.1,0-2.1-0.2-3-0.6c-0.9-0.4-1.6-1-2.1-1.8c-0.5-0.8-0.8-1.9-0.8-3.1
				c0-1.9,0.7-3.4,2.2-4.4c1.5-1,3.7-1.6,6.7-1.7l3.2-0.1v-1.2c0-1.6-0.3-2.8-1-3.4c-0.7-0.7-1.7-1-2.9-1c-1,0-1.9,0.1-2.8,0.4
				c-0.9,0.3-1.7,0.6-2.5,1l-0.9-2.2c0.8-0.4,1.8-0.8,2.9-1.1C-297.2-634.5-296.1-634.6-294.9-634.6z M-291.1-624.7l-2.8,0.1
				c-2.3,0.1-4,0.5-4.9,1.2c-1,0.7-1.4,1.6-1.4,2.9c0,1.1,0.3,1.9,1,2.4c0.6,0.5,1.5,0.8,2.6,0.8c1.7,0,3-0.5,4.1-1.4
				c1.1-0.9,1.6-2.3,1.6-4.2V-624.7z"/>
			<path d="M-276.5-617.3c0.5,0,0.9,0,1.4-0.1c0.5-0.1,0.9-0.2,1.2-0.3v2.2c-0.3,0.2-0.8,0.3-1.4,0.4c-0.6,0.1-1.2,0.2-1.7,0.2
				c-1,0-1.9-0.2-2.7-0.5c-0.8-0.4-1.4-1-1.9-1.8c-0.5-0.8-0.7-2-0.7-3.5v-11.3h-2.7v-1.4l2.7-1.1l1.1-4.1h1.7v4.4h5.5v2.3h-5.5
				v11.2c0,1.2,0.3,2.1,0.8,2.7C-278.1-617.6-277.4-617.3-276.5-617.3z"/>
			<path d="M-268.6-641.4c0.5,0,0.9,0.2,1.2,0.5c0.3,0.3,0.5,0.8,0.5,1.4c0,0.6-0.2,1.1-0.5,1.4c-0.3,0.3-0.7,0.5-1.2,0.5
				c-0.5,0-0.9-0.2-1.2-0.5c-0.3-0.3-0.5-0.8-0.5-1.4c0-0.6,0.2-1.1,0.5-1.4C-269.5-641.3-269.1-641.4-268.6-641.4z M-267.3-634.3
				v19h-2.8v-19H-267.3z"/>
			<path d="M-257.2-615.3l-7.1-19h3l4.1,11.5c0.3,0.8,0.6,1.7,0.9,2.6c0.3,0.9,0.5,1.7,0.6,2.3h0.1c0.1-0.6,0.4-1.3,0.7-2.3
				c0.3-1,0.6-1.8,0.9-2.6l4.1-11.5h3l-7.1,19H-257.2z"/>
			<path d="M-236.7-634.7c1.6,0,2.9,0.4,4.1,1.1c1.1,0.7,2,1.7,2.6,3c0.6,1.3,0.9,2.8,0.9,4.5v1.8H-242c0,2.2,0.6,3.9,1.6,5.1
				c1.1,1.2,2.5,1.8,4.5,1.8c1.2,0,2.2-0.1,3.1-0.3c0.9-0.2,1.8-0.5,2.8-1v2.5c-0.9,0.4-1.9,0.7-2.8,0.9c-0.9,0.2-2,0.3-3.3,0.3
				c-1.8,0-3.4-0.4-4.7-1.1c-1.3-0.7-2.4-1.8-3.1-3.3c-0.7-1.4-1.1-3.2-1.1-5.3c0-2,0.3-3.8,1-5.3c0.7-1.5,1.6-2.6,2.9-3.5
				C-239.8-634.3-238.4-634.7-236.7-634.7z M-236.8-632.3c-1.5,0-2.7,0.5-3.6,1.5c-0.9,1-1.4,2.4-1.6,4.2h9.9c0-1.1-0.2-2.1-0.5-3
				c-0.3-0.9-0.8-1.5-1.5-2C-234.8-632.1-235.7-632.3-236.8-632.3z"/>
		</g>
		
			<g id="g3797" transform="translate(-21.225811,-1.0146812)" inkscape:export-filename="/home/rafael/workspace/logo-osi/3/png/logo396x412.png" inkscape:export-xdpi="48.18" inkscape:export-ydpi="48.18">
			
				<path id="path3015" sodipodi:cx="645.71429" sodipodi:cy="646.64789" sodipodi:rx="23.571428" sodipodi:ry="23.571411" sodipodi:type="arc" class="st2" d="
				M-175.6-689.5c0,4.4-3.6,8-8,8c-4.4,0-8-3.6-8-8s3.6-8,8-8C-179.1-697.4-175.6-693.9-175.6-689.5z"/>
			<g class="st1">
				<path d="M-184.6-694.4c0.7,0,1.4,0.1,1.8,0.3c0.5,0.2,0.8,0.5,1.1,0.8s0.4,0.9,0.4,1.4c0,0.5-0.1,0.9-0.3,1.2
					c-0.2,0.3-0.4,0.6-0.7,0.8s-0.6,0.4-0.9,0.5l2.5,4.1h-1.2l-2.2-3.8h-1.9v3.8h-1.1v-9H-184.6z M-184.7-693.5h-1.3v3.5h1.4
					c0.7,0,1.3-0.2,1.6-0.5c0.3-0.3,0.5-0.7,0.5-1.3c0-0.6-0.2-1-0.6-1.3C-183.3-693.3-183.9-693.5-184.7-693.5z"/>
			</g>
		</g>
	</g>
</g>
</svg>
