<svg width="360" height="640" viewBox="0 0 360 640" fill="none" xmlns="http://www.w3.org/2000/svg">
<g clip-path="url(#clip0_107_376)">
<rect width="360" height="640" fill="#020144"/>
<path opacity="0.05" d="M80.2973 370.168C51.1143 251.878 185.82 194.102 256.821 180H374.224C411.401 277.07 465.714 536.924 385.545 799.791C285.333 1128.37 -145.703 566.086 -104.193 580.051C-62.6827 594.016 116.776 518.031 80.2973 370.168Z" fill="white"/>
<path opacity="0.07" d="M140.955 431.067C83.4175 306.247 220.269 214.855 295.887 184.761L425.897 160.78C487.763 260.506 603.312 536.706 570.581 843.707C529.667 1227.46 -67.5405 693.836 -18.5954 700.797C30.3497 707.757 212.877 587.092 140.955 431.067Z" fill="white"/>
<path opacity="0.1" d="M225.541 474.815C173.392 339.595 323.752 252.195 405.45 225.398L544.031 208.567C602.441 317.632 705.437 616.082 650.142 937.361C581.023 1338.96 -11.9097 738.102 39.1783 748.608C90.2663 759.115 290.727 643.84 225.541 474.815Z" fill="white"/>
</g>
<defs>
<clipPath id="clip0_107_376">
<rect width="360" height="640" fill="white"/>
</clipPath>
</defs>
</svg>
