<svg width="471" height="473" viewBox="0 0 471 473" fill="none" xmlns="http://www.w3.org/2000/svg">
<g clip-path="url(#clip0_221_2785)">
<path d="M273.165 111.372H170.132V134.463H273.165V111.372Z" fill="#9395F6"/>
<path fill-rule="evenodd" clip-rule="evenodd" d="M170.132 168.535C157.208 179.589 148.044 194.942 144.845 212.381L119.3 216.224L106.557 271.289L135.087 303.016L132.62 313.096H127.143L115.079 333.811C115.079 333.811 93.4211 349.636 89.4787 361.597C84.8278 375.707 86.1816 394.486 87.3162 403.962C37.0806 364.03 4.83008 302.282 4.83008 233.033C4.83008 112.751 102.129 15.0977 221.973 15.0977C304.403 15.0977 376.167 61.2952 412.941 129.279L337.161 141.36V252.182L436.252 268.488C435.848 270.96 435.403 273.419 434.917 275.863H394.643L390.946 297.327L353.106 289.58L337.161 336.999L394.204 365.708C369.181 398.368 335.149 423.722 295.853 438.009L277.265 368.666C279.821 354.377 281.208 342.968 281.964 342.753L305.959 329.33C305.959 329.33 318.005 315.416 323.961 308.87C326.957 305.578 326.543 297.001 326.543 297.001L325.635 291.554C325.635 291.554 318.458 288.944 315.29 289.848C298.561 294.622 292.487 312.779 278.136 310.208C273.178 309.32 282.249 297.077 273.25 288.498C272.126 287.428 273.229 300.226 268.849 313.096C267.18 318.002 266.436 323.319 266.105 327.036L256.635 291.71C279.193 278.626 294.386 254.153 294.386 226.146C294.386 206.052 286.565 187.776 273.814 174.221V139.445H170.132V168.535ZM273.814 110.94H170.132V133.718H273.814V110.94ZM179.87 290.83C182.034 292.152 184.271 293.368 186.571 294.471L183.585 305.611C178.796 306.121 175.249 306.688 175.249 306.688L173.404 297.502L179.87 290.83Z" fill="#D4D5FB"/>
<path fill-rule="evenodd" clip-rule="evenodd" d="M413.202 223.016L358.725 216.784V170.045L426.712 162.267V214.465" fill="#9395F6"/>
<path fill-rule="evenodd" clip-rule="evenodd" d="M337.161 141.296L456.352 122.751V271.289L337.161 252.744V141.296Z" stroke="#020144" stroke-width="2.3182" stroke-miterlimit="10" stroke-linecap="round" stroke-linejoin="round"/>
<path d="M420.987 235.272L345.963 226.69V162.322L439.593 151.611V223.496" stroke="#020144" stroke-width="2.3182" stroke-miterlimit="10" stroke-linecap="round" stroke-linejoin="round"/>
<path fill-rule="evenodd" clip-rule="evenodd" d="M420.988 223.016L449.283 223.746V262.506L420.988 258.288V223.016Z" stroke="#020144" stroke-width="2.3182" stroke-miterlimit="10" stroke-linecap="round" stroke-linejoin="round"/>
<path fill-rule="evenodd" clip-rule="evenodd" d="M381.648 238.946L345.962 234.722V246.075L381.648 251.411V238.946Z" fill="#9395F6" stroke="#020144" stroke-width="2.3182" stroke-miterlimit="10" stroke-linecap="round" stroke-linejoin="round"/>
<path d="M345.963 149.082C353.426 147.837 360.888 146.592 368.351 145.347" stroke="#020144" stroke-width="2.3182" stroke-miterlimit="10" stroke-linecap="round" stroke-linejoin="round"/>
<path d="M345.963 155.061C355.764 153.58 365.565 152.099 375.366 150.619" stroke="#020144" stroke-width="2.3182" stroke-miterlimit="10" stroke-linecap="round" stroke-linejoin="round"/>
<path d="M387.178 199.52C392.518 199.52 396.848 193.76 396.848 186.655C396.848 179.55 392.518 173.79 387.178 173.79C381.837 173.79 377.508 179.55 377.508 186.655C377.508 193.76 381.837 199.52 387.178 199.52Z" stroke="#020144" stroke-width="2.3182" stroke-miterlimit="10" stroke-linecap="round" stroke-linejoin="round"/>
<path d="M396.225 191.207C389.966 185.924 385.569 180.708 385.569 180.708L377.611 188.534" stroke="#020144" stroke-width="2.3182" stroke-miterlimit="10" stroke-linecap="round" stroke-linejoin="round"/>
<path d="M388.545 173.918C388.52 173.715 388.508 173.51 388.508 173.301C388.508 170.502 390.781 168.229 393.581 168.229C396.38 168.229 398.654 170.502 398.654 173.301C398.654 175.78 396.873 177.845 394.522 178.287" stroke="#020144" stroke-width="2.3182" stroke-miterlimit="10" stroke-linecap="round" stroke-linejoin="round"/>
<path d="M391.521 198.152C391.83 199.821 391.934 203.198 393.58 204.707C395.052 206.058 397.987 207.516 401.169 209.15C405.639 211.445 410.597 214.085 412.673 217.253C415.504 221.57 419.312 230.453 417.509 234.874M360.278 228.327C359.611 223.075 363.803 214.917 366.165 211.53C368.093 208.765 372.417 208 376.138 207.224C378.497 206.732 380.615 206.235 381.724 205.222C383.354 203.733 383.605 200.939 383.523 198.568" stroke="#020144" stroke-width="2.3182" stroke-miterlimit="10" stroke-linecap="round" stroke-linejoin="round"/>
<path d="M376.137 207.224C379.022 210.272 383.132 213.885 387.297 213.929C390.932 213.968 396.364 211.627 401.168 209.15" stroke="#020144" stroke-width="2.3182" stroke-miterlimit="10" stroke-linecap="round" stroke-linejoin="round"/>
<path d="M435.665 247.556C439.306 247.556 442.256 243.978 442.256 239.566C442.256 235.153 439.306 231.576 435.665 231.576C432.025 231.576 429.074 235.153 429.074 239.566C429.074 243.978 432.025 247.556 435.665 247.556Z" stroke="#020144" stroke-width="2.3182" stroke-miterlimit="10" stroke-linecap="round" stroke-linejoin="round"/>
<path d="M439.592 245.979C439.209 247.352 438.443 250.101 439.592 251.566C439.697 251.7 439.82 251.836 439.958 251.974C441.911 253.931 446.989 256.338 449.281 258.443M420.986 253.039C421.035 253.009 421.083 252.98 421.13 252.952C423.088 251.776 426.362 251.83 428.614 251.333C429.277 251.187 429.852 250.993 430.278 250.705C431.538 249.856 432.015 247.884 432.244 246.397" stroke="#020144" stroke-width="2.3182" stroke-miterlimit="10" stroke-linecap="round" stroke-linejoin="round"/>
<path d="M429.701 236.163C433.802 237.113 438.067 236.438 438.067 236.438C438.067 236.438 439.284 239.386 441.95 241.98" stroke="#020144" stroke-width="2.3182" stroke-miterlimit="10" stroke-linecap="round" stroke-linejoin="round"/>
<path d="M439.96 251.974C438.338 253.482 435.922 255.951 433.887 255.499C432.35 255.157 430.374 253.301 428.617 251.333" stroke="#020144" stroke-width="2.3182" stroke-miterlimit="10" stroke-linecap="round" stroke-linejoin="round"/>
<path fill-rule="evenodd" clip-rule="evenodd" d="M174.647 139.303L217.368 157.849V269.297L189.592 281.354C190.508 277.749 191.006 273.868 191.006 269.825C191.006 254.855 184.174 242.104 174.647 237.373V139.303Z" fill="#9395F6" stroke="#020144" stroke-width="2.3182" stroke-miterlimit="10" stroke-linecap="round" stroke-linejoin="round"/>
<path d="M211.481 203.946V228.861" stroke="#020144" stroke-width="2.3182" stroke-miterlimit="10" stroke-linecap="round" stroke-linejoin="round"/>
<path d="M279.191 139.303V287.842" stroke="#020144" stroke-width="2.3182" stroke-miterlimit="10" stroke-linecap="round" stroke-linejoin="round"/>
<path d="M190.887 126.969L188.198 117.689H191.115L193.288 125.524H191.824L194.129 117.689H196.734L198.883 125.524H197.478L199.747 117.689H202.436L199.747 126.969H196.71L194.957 120.553H195.773L193.924 126.969H190.887Z" fill="#020144"/>
<path d="M205.635 121.136H209.381V123.389H205.635V121.136ZM205.827 124.609H210.029V126.969H203.042V117.689H209.873V120.049H205.827V124.609Z" fill="#020144"/>
<path d="M211.121 126.969V117.689H213.954V124.543H217.748V126.969H211.121Z" fill="#020144"/>
<path d="M222.743 127.181C222.07 127.181 221.448 127.064 220.876 126.83C220.303 126.596 219.807 126.262 219.387 125.829C218.967 125.396 218.641 124.883 218.409 124.291C218.177 123.699 218.061 123.045 218.061 122.329C218.061 121.613 218.177 120.959 218.409 120.367C218.641 119.775 218.967 119.262 219.387 118.829C219.807 118.396 220.303 118.062 220.876 117.828C221.448 117.594 222.07 117.477 222.743 117.477C223.567 117.477 224.297 117.636 224.934 117.954C225.57 118.272 226.096 118.732 226.512 119.333L224.723 121.096C224.475 120.751 224.201 120.484 223.901 120.294C223.601 120.104 223.263 120.009 222.886 120.009C222.59 120.009 222.322 120.062 222.082 120.168C221.842 120.274 221.636 120.429 221.464 120.632C221.292 120.835 221.158 121.08 221.062 121.368C220.966 121.655 220.918 121.975 220.918 122.329C220.918 122.682 220.966 123.003 221.062 123.29C221.158 123.577 221.292 123.823 221.464 124.026C221.636 124.229 221.842 124.384 222.082 124.49C222.322 124.596 222.59 124.649 222.886 124.649C223.263 124.649 223.601 124.554 223.901 124.364C224.201 124.174 224.475 123.906 224.723 123.562L226.512 125.325C226.096 125.917 225.57 126.374 224.934 126.697C224.297 127.019 223.567 127.181 222.743 127.181Z" fill="#020144"/>
<path d="M231.548 127.181C230.86 127.181 230.225 127.062 229.645 126.823C229.065 126.584 228.562 126.246 228.139 125.809C227.714 125.371 227.384 124.857 227.148 124.264C226.912 123.672 226.794 123.027 226.794 122.329C226.794 121.622 226.912 120.975 227.148 120.387C227.384 119.799 227.714 119.287 228.139 118.849C228.562 118.412 229.065 118.073 229.645 117.835C230.225 117.596 230.855 117.477 231.536 117.477C232.224 117.477 232.857 117.596 233.433 117.835C234.009 118.073 234.509 118.412 234.933 118.849C235.358 119.287 235.688 119.799 235.924 120.387C236.16 120.975 236.278 121.622 236.278 122.329C236.278 123.027 236.16 123.672 235.924 124.264C235.688 124.857 235.358 125.371 234.933 125.809C234.509 126.246 234.009 126.584 233.433 126.823C232.857 127.062 232.228 127.181 231.548 127.181ZM231.536 124.649C231.8 124.649 232.046 124.596 232.274 124.49C232.502 124.384 232.702 124.231 232.874 124.033C233.046 123.834 233.181 123.59 233.277 123.303C233.372 123.016 233.421 122.691 233.421 122.329C233.421 121.967 233.372 121.642 233.277 121.355C233.181 121.067 233.046 120.824 232.874 120.625C232.702 120.426 232.502 120.274 232.274 120.168C232.046 120.062 231.8 120.009 231.536 120.009C231.272 120.009 231.026 120.062 230.798 120.168C230.569 120.274 230.369 120.426 230.197 120.625C230.025 120.824 229.891 121.067 229.795 121.355C229.699 121.642 229.651 121.967 229.651 122.329C229.651 122.691 229.699 123.016 229.795 123.303C229.891 123.59 230.025 123.834 230.197 124.033C230.369 124.231 230.569 124.384 230.798 124.49C231.026 124.596 231.272 124.649 231.536 124.649Z" fill="#020144"/>
<path d="M237.309 126.969V117.689H239.638L242.999 123.747H241.774L245.04 117.689H247.369L247.393 126.969H244.812L244.788 121.984H245.196L242.963 126.134H241.714L239.385 121.984H239.89V126.969H237.309Z" fill="#020144"/>
<path d="M251.355 121.136H255.101V123.389H251.355V121.136ZM251.547 124.609H255.749V126.969H248.762V117.689H255.593V120.049H251.547V124.609Z" fill="#020144"/>
<path d="M187.372 287.842H273.814V139.303H170.132V235.791" stroke="#020144" stroke-width="2.3182" stroke-miterlimit="10" stroke-linecap="round" stroke-linejoin="round"/>
<path d="M187.372 133.718H273.814V110.94H170.132V125.736" stroke="#020144" stroke-width="2.3182" stroke-miterlimit="10" stroke-linecap="round" stroke-linejoin="round"/>
<path d="M273.813 129.019H278.044V106.241H174.361V110.94" stroke="#020144" stroke-width="2.3182" stroke-miterlimit="10" stroke-linecap="round" stroke-linejoin="round"/>
<path d="M189.269 297.835C189.808 297.521 190.274 296.587 190.734 296.07C191.884 294.777 193.133 293.508 194.436 292.367C198.751 288.593 201.678 282.76 202.616 277.127C203.956 269.09 196.282 263.695 193.403 256.978C190.399 249.966 193.247 242.043 190.906 235.02C189.238 230.016 185.342 226.441 182.037 222.535C173.903 212.922 162.596 203.085 149.574 201.782C145.928 201.417 141.685 201.791 138.122 202.385C135.074 202.894 132.21 204.504 129.253 206.002C124.875 208.218 126.536 203.951 115.906 209.877C108.688 213.9 108.653 223.086 107.037 230.628C103.687 246.26 107.125 262.394 101.956 277.901C100.037 283.661 95.0346 297.561 102.904 301.495C104.7 302.393 108.304 302.836 110.223 302.356C111.551 302.024 112.357 301.127 113.768 301.408C114.705 301.596 114.962 304.139 117.283 305.37C119.438 306.512 122.296 307.52 124.517 308.125C125.991 308.528 132.844 308.029 133.472 306.145C134.157 304.091 133.465 301.241 133.644 299.084C133.758 297.724 134.542 295.683 134.16 294.348C133.658 292.588 131.843 291.601 130.63 290.388C128.235 287.992 126.25 284.389 123.57 282.379C121.956 281.17 118.487 282.159 116.509 281.26C111.53 278.998 109.14 273.011 109.706 267.913C109.823 266.864 110.609 266.322 110.998 265.416C113.497 259.585 119.865 271.38 123.397 270.497C126.559 269.706 128.405 261.767 128.994 259.217C131.231 249.526 127.359 239.664 127.359 229.939C127.359 225.964 127.791 220.467 132.611 219.778C138.961 218.872 142.523 225.449 145.096 230.025C150.091 238.904 154.916 251.846 166.365 254.136C167.786 254.42 168.478 253.639 167.742 252.414C166.928 251.056 165.126 250.391 164.126 249.141C161.477 245.83 160.116 243.051 158.787 239.067C158.521 238.266 157.662 234.682 158.357 233.987C158.619 233.725 158.737 233.851 158.96 234.073C161.243 236.357 162.566 239.57 164.471 242.167C166.609 245.083 169.575 248.214 172.393 250.519C173.748 251.629 176.053 252.284 177.215 253.447C178.976 255.208 177.76 260.494 177.904 262.661C178.427 270.506 179.355 278.809 177.3 286.512C176.623 289.053 175.891 291.524 174.804 293.918C174.411 294.782 173.929 295.999 173.254 296.673C173.139 296.788 172.794 296.903 172.91 297.018C173.112 297.22 176.855 297.153 177.3 297.189C180.359 297.444 186.437 299.495 189.269 297.835Z" fill="#020144"/>
<path d="M164.043 310.742C163.111 310.37 160.024 312.813 158.623 313.222C156.494 313.844 153.618 313.521 151.461 313.235C147.553 312.717 143.203 311.043 139.579 309.519C138.42 309.032 135.256 306.805 133.921 307.326C132.162 308.015 130.98 314.306 130.718 316.031C130.354 318.42 134.166 319.926 135.65 321.132C140.541 325.109 149.436 326.276 152.844 331.757C154.807 334.913 152.646 338.562 153.902 342.005C155.537 346.493 161.459 345.179 163.23 350.037C164.598 353.791 165.86 356.303 168.087 359.641C168.24 359.871 169.779 362.518 170.003 362.386C170.862 361.884 172.71 351.026 173.013 349.393C174.6 340.812 175.601 325.099 171.473 317.049C169.969 314.116 166.207 314.754 165.807 314.07C165.177 312.992 165.223 311.212 164.043 310.742Z" fill="#9395F6"/>
<path d="M260.553 346.277C261.744 352.304 265.469 356.867 270.611 360.103C272.794 361.477 274.959 362.686 277.496 363.162C277.637 363.189 278.22 363.298 278.256 363.477C278.61 365.27 277.643 372.213 276.197 373.652C274.561 375.281 268.507 371.368 267.232 370.656C265.048 369.436 254.613 362.674 255.96 358.93C256.632 357.06 257.822 355.262 258.591 353.41" fill="#9395F6"/>
<path d="M177.696 250.421C177.859 251.481 177.96 252.557 178.022 253.64C178.191 256.573 178.083 259.563 178.206 262.464C178.654 273.037 178.65 288.369 172.469 297.361C170.217 300.637 167.146 303.072 162.978 304.128C160.252 304.819 157.057 304.921 153.315 304.284C150.434 303.793 147.606 302.963 145.002 301.614C141.169 299.627 137.751 297.406 134.502 294.668C134.014 294.257 133.531 293.834 133.051 293.4C129.49 290.177 126 286.265 123.102 282.173" stroke="#020144" stroke-width="2.3182" stroke-miterlimit="10" stroke-linecap="round" stroke-linejoin="round"/>
<path d="M112.757 262.934C111.222 264.266 109.99 266.281 109.671 267.553C107.818 274.946 113.914 281.843 120.93 282.339C121.618 282.387 122.38 282.347 123.102 282.173" stroke="#020144" stroke-width="2.3182" stroke-miterlimit="10" stroke-linecap="round" stroke-linejoin="round"/>
<path d="M112.757 262.934C113.267 263.411 113.773 263.893 114.315 264.309C117.095 266.442 119.904 268.603 122.748 270.705" stroke="#020144" stroke-width="2.3182" stroke-miterlimit="10" stroke-linecap="round" stroke-linejoin="round"/>
<path d="M178.022 253.64C176.695 252.878 175.458 252.006 174.592 251.479C170.018 248.7 165.562 243.987 162.598 239.54C161.224 237.476 160.076 234.719 158.456 232.887C158.112 232.5 158.257 233.914 158.287 234.431C158.319 234.963 158.458 235.484 158.505 236.016C158.679 237.967 158.985 239.715 159.739 241.546C160.805 244.141 162.356 246.678 164.157 248.826C165.216 250.086 170.793 253.33 168.057 253.706C167.32 253.807 166.642 253.655 165.929 253.428C152.539 249.167 149.543 237.132 142.838 226.384C140.73 223.005 136.092 216.941 131.336 219.413C125.507 222.442 127.26 231.249 127.98 236.498C129.442 247.153 133.093 263.499 122.748 270.705" stroke="#020144" stroke-width="2.3182" stroke-miterlimit="10" stroke-linecap="round" stroke-linejoin="round"/>
<path d="M126.776 208.772C127.127 207.721 127.73 206.809 128.517 206.019C132.533 201.985 141.345 201.118 145.861 201.118C164.61 201.118 176.91 216.366 188.216 229.286C194.557 236.533 189.847 245.428 191.992 253.576C194.9 264.626 206.075 266.747 202.401 280.826C200.368 288.623 192.758 292.489 188.873 299.133" stroke="#020144" stroke-width="2.3182" stroke-miterlimit="10" stroke-linecap="round" stroke-linejoin="round"/>
<path d="M188.874 299.133L172.47 297.361" stroke="#020144" stroke-width="2.3182" stroke-miterlimit="10" stroke-linecap="round" stroke-linejoin="round"/>
<path d="M128.517 206.019C119.901 204.831 112.162 211.226 109.051 219.519C102.967 235.743 106.677 252.93 104.321 269.631C103.13 278.077 96.4354 287.467 98.8185 296.077C100.109 300.738 104.282 302.951 108.86 302.195C109.551 302.081 113.355 300.623 113.894 301.059C114.108 301.232 114.352 303.484 115.129 304.163C120.166 308.559 127.264 309.577 133.075 306.904C133.211 306.841 133.347 306.776 133.482 306.709" stroke="#020144" stroke-width="2.3182" stroke-miterlimit="10" stroke-linecap="round" stroke-linejoin="round"/>
<path d="M115.179 270.035C114.326 274.273 116.986 276.386 120.687 276.84" stroke="#020144" stroke-width="2.3182" stroke-miterlimit="10" stroke-linecap="round" stroke-linejoin="round"/>
<path d="M157.181 260.732C157.672 262.655 157.66 264.736 158.261 266.678C159.639 271.129 160.99 273.731 159.372 278.342" stroke="#020144" stroke-width="2.3182" stroke-miterlimit="10" stroke-linecap="round" stroke-linejoin="round"/>
<path d="M165.159 285.081C161.899 289.093 153.612 289.98 149.44 286.958" stroke="#020144" stroke-width="2.3182" stroke-miterlimit="10" stroke-linecap="round" stroke-linejoin="round"/>
<path d="M134.502 294.668C134.758 298.866 134.342 302.811 133.482 306.709C133.453 306.836 133.425 306.963 133.396 307.089C132.885 309.329 132.23 311.557 131.474 313.811C131.11 314.895 130.723 315.986 130.317 317.088" stroke="#020144" stroke-width="2.3182" stroke-miterlimit="10" stroke-linecap="round" stroke-linejoin="round"/>
<path d="M162.979 304.128C163.357 306.295 163.909 308.473 164.543 310.627C165.736 314.682 167.22 318.656 168.39 322.323" stroke="#020144" stroke-width="2.3182" stroke-miterlimit="10" stroke-linecap="round" stroke-linejoin="round"/>
<path d="M164.542 310.627C161.859 312.437 157.808 313.215 155.399 313.225C148.105 313.256 140.063 310.906 133.396 307.089C133.288 307.028 133.181 306.966 133.074 306.904" stroke="#020144" stroke-width="2.3182" stroke-miterlimit="10" stroke-linecap="round" stroke-linejoin="round"/>
<path d="M175.579 305.795C185.729 307.112 196.344 301.875 206.233 306.037C215.025 309.736 220.858 320.314 225.371 328.115C233.68 342.476 241.506 357.166 249.022 371.99" stroke="#020144" stroke-width="2.3182" stroke-miterlimit="10" stroke-linecap="round" stroke-linejoin="round"/>
<path d="M127.142 313.096C127.041 313.258 126.94 313.421 126.839 313.584C124.797 316.901 123.001 320.302 121.092 323.622C118.826 327.562 116.401 331.386 113.212 334.816C105.646 342.957 94.6768 350.376 89.7136 360.62C84.7323 370.899 85.9374 384.004 86.5753 394.915C87.8965 417.533 90.7388 439.873 97.0762 461.724" stroke="#020144" stroke-width="2.3182" stroke-miterlimit="10" stroke-linecap="round" stroke-linejoin="round"/>
<path d="M122.471 394.099C122.566 413.895 125.869 434.886 128.712 454.533" stroke="#020144" stroke-width="2.3182" stroke-miterlimit="10" stroke-linecap="round" stroke-linejoin="round"/>
<path d="M131.474 313.811L127.143 313.096" stroke="#020144" stroke-width="2.3182" stroke-miterlimit="10" stroke-linecap="round" stroke-linejoin="round"/>
<path d="M126.839 313.584C127.946 314.806 129.107 315.975 130.317 317.088C133.282 319.814 136.548 322.203 140.078 324.202C142.424 325.531 145.517 326.677 148.206 328.175C149.763 329.043 151.184 330.03 152.246 331.238C154.919 334.284 151.104 339.539 153.6 343.148C155.582 346.011 160.638 345.442 162.538 348.081C163.65 349.625 163.144 352.082 164.209 353.78C166.155 356.888 168.213 359.932 170.188 363.025C172.135 366.075 174.002 369.172 175.6 372.426C180.768 382.945 183.095 394.373 186.255 405.563C189.285 416.289 191.502 426.603 192.332 437.769" stroke="#020144" stroke-width="2.3182" stroke-miterlimit="10" stroke-linecap="round" stroke-linejoin="round"/>
<path d="M148.206 328.177C147.327 328.371 146.487 328.655 145.765 329.166C142.841 331.238 142.078 337.322 142.05 343.185" stroke="#020144" stroke-width="2.3182" stroke-miterlimit="10" stroke-linecap="round" stroke-linejoin="round"/>
<path d="M142.049 343.184C134.068 337.724 127.382 331.117 121.092 323.621" stroke="#020144" stroke-width="2.3182" stroke-miterlimit="10" stroke-linecap="round" stroke-linejoin="round"/>
<path d="M166.119 314.038C169.102 314.12 171.036 316.621 172.276 320.037C173.05 322.171 173.553 324.662 173.872 327.142C174.455 331.685 174.42 336.192 174.297 338.404C174.168 340.706 173.863 342.996 173.704 345.296C173.588 346.958 173.559 347.806 173.51 348.474C173.434 349.523 173.309 350.129 172.722 352.752C172.007 355.953 171.132 359.116 170.364 362.305C170.306 362.546 170.247 362.786 170.188 363.025" stroke="#020144" stroke-width="2.3182" stroke-miterlimit="10" stroke-linecap="round" stroke-linejoin="round"/>
<path d="M173.631 303.035C176.41 312.196 182.115 319.305 189.309 325.091" stroke="#020144" stroke-width="2.3182" stroke-miterlimit="10" stroke-linecap="round" stroke-linejoin="round"/>
<path d="M189.309 325.09C187.514 325.987 185.192 326.346 183.849 325.686C179.798 323.693 176.18 315.995 172.275 320.036" stroke="#020144" stroke-width="2.3182" stroke-miterlimit="10" stroke-linecap="round" stroke-linejoin="round"/>
<path d="M173.871 327.142C180.818 332.76 181.806 335.733 175.867 345.151C175.145 346.296 174.339 347.394 173.51 348.474" stroke="#020144" stroke-width="2.3182" stroke-miterlimit="10" stroke-linecap="round" stroke-linejoin="round"/>
<path d="M281.961 342.753C278.767 356.739 275.091 382.471 274.513 385.551C272.022 398.801 263.553 433.441 242.829 423.555C241.364 422.855 230.786 411.57 221.736 401.538" stroke="#020144" stroke-width="2.3182" stroke-miterlimit="10" stroke-linecap="round" stroke-linejoin="round"/>
<path d="M265.366 332.772C262.969 341.513 254.97 362.71 250.189 370.186C249.799 370.797 249.409 371.397 249.02 371.989C244.2 379.323 239.597 385.36 237.502 394.429" stroke="#020144" stroke-width="2.3182" stroke-miterlimit="10" stroke-linecap="round" stroke-linejoin="round"/>
<path d="M208.767 350.888C219.673 370.729 222.928 384.503 221.738 401.539C221.251 408.514 220.019 416.035 218.263 424.744" stroke="#020144" stroke-width="2.3182" stroke-miterlimit="10" stroke-linecap="round" stroke-linejoin="round"/>
<path d="M218.264 424.744C213.06 430.745 207.759 436.215 200.299 440.114C180.381 450.529 156.318 448.568 134.846 445.758C132.384 445.436 129.855 445.271 127.332 445.041" stroke="#020144" stroke-width="2.3182" stroke-miterlimit="10" stroke-linecap="round" stroke-linejoin="round"/>
<path d="M265.366 332.772C265.821 322.65 268.486 313.823 271.09 303.927C272.293 299.358 272.869 293.513 271.935 288.845C271.828 288.313 272.229 288.308 272.658 288.362C274.052 288.536 274.754 289.763 275.434 290.896C277.328 294.054 277.482 298.644 277.123 302.238C276.954 303.924 275.503 307.117 276.158 308.754C276.843 310.464 280.385 310.564 281.829 310.443C289.083 309.839 292.711 304.246 297.877 300.187C303.385 295.859 308.727 291.87 315.492 289.81" stroke="#020144" stroke-width="2.3182" stroke-miterlimit="10" stroke-linecap="round" stroke-linejoin="round"/>
<path d="M324.646 291.918C315.54 294.811 306.674 301.66 300.542 308.994" stroke="#020144" stroke-width="2.3182" stroke-miterlimit="10" stroke-linecap="round" stroke-linejoin="round"/>
<path d="M325.662 298.006C317.931 303.637 310.281 308.838 303.58 315.795" stroke="#020144" stroke-width="2.3182" stroke-miterlimit="10" stroke-linecap="round" stroke-linejoin="round"/>
<path d="M281.961 342.753C290.342 337.754 302.978 331.796 305.45 329.476C308.933 326.207 311.367 321.959 314.682 318.519C315.451 317.72 325.222 309.649 323.584 308.142C322.21 306.877 317.95 309.677 316.909 310.369C312.243 313.466 309.329 318.427 305.026 321.812C298.98 326.567 292.004 316.992 283.707 326.952" stroke="#020144" stroke-width="2.3182" stroke-miterlimit="10" stroke-linecap="round" stroke-linejoin="round"/>
<path d="M166.394 263.624C167.472 263.624 168.346 261.978 168.346 259.948C168.346 257.918 167.472 256.272 166.394 256.272C165.316 256.272 164.442 257.918 164.442 259.948C164.442 261.978 165.316 263.624 166.394 263.624Z" fill="#020144" stroke="#020144" stroke-width="2.3182" stroke-miterlimit="10" stroke-linecap="round" stroke-linejoin="round"/>
<path d="M143.188 267.73C144.266 267.73 145.14 266.084 145.14 264.053C145.14 262.023 144.266 260.377 143.188 260.377C142.11 260.377 141.236 262.023 141.236 264.053C141.236 266.084 142.11 267.73 143.188 267.73Z" fill="#020144" stroke="#020144" stroke-width="2.3182" stroke-miterlimit="10" stroke-linecap="round" stroke-linejoin="round"/>
<path d="M398.069 109.99C403.843 109.99 408.524 105.309 408.524 99.5348C408.524 93.7605 403.843 89.0795 398.069 89.0795C392.294 89.0795 387.613 93.7605 387.613 99.5348C387.613 105.309 392.294 109.99 398.069 109.99Z" fill="#9395F6"/>
<path d="M460.672 215.623C466.446 215.623 471.127 210.942 471.127 205.168C471.127 199.394 466.446 194.713 460.672 194.713C454.898 194.713 450.217 199.394 450.217 205.168C450.217 210.942 454.898 215.623 460.672 215.623Z" fill="#9395F6"/>
<path d="M58.5789 375.432C72.6281 375.432 84.0172 364.043 84.0172 349.994C84.0172 335.944 72.6281 324.555 58.5789 324.555C44.5297 324.555 33.1406 335.944 33.1406 349.994C33.1406 364.043 44.5297 375.432 58.5789 375.432Z" stroke="#9395F6" stroke-width="4.63641" stroke-miterlimit="10" stroke-linecap="round" stroke-linejoin="round"/>
<path d="M329.777 423.849C338.848 423.849 346.201 416.496 346.201 407.426C346.201 398.355 338.848 391.002 329.777 391.002C320.707 391.002 313.354 398.355 313.354 407.426C313.354 416.496 320.707 423.849 329.777 423.849Z" stroke="#9395F6" stroke-width="4.63641" stroke-miterlimit="10" stroke-linecap="round" stroke-linejoin="round"/>
<path d="M282.919 207.954C290.604 207.954 296.834 201.724 296.834 194.039C296.834 186.353 290.604 180.123 282.919 180.123C275.234 180.123 269.004 186.353 269.004 194.039C269.004 201.724 275.234 207.954 282.919 207.954Z" stroke="#9395F6" stroke-width="4.63641" stroke-miterlimit="10" stroke-linecap="round" stroke-linejoin="round"/>
<path d="M44.9523 151.151C52.6374 151.151 58.8674 144.921 58.8674 137.236C58.8674 129.551 52.6374 123.321 44.9523 123.321C37.2671 123.321 31.0371 129.551 31.0371 137.236C31.0371 144.921 37.2671 151.151 44.9523 151.151Z" stroke="#9395F6" stroke-width="4.63641" stroke-miterlimit="10" stroke-linecap="round" stroke-linejoin="round"/>
<path d="M76.7678 154.315C90.9629 154.315 102.47 142.808 102.47 128.612C102.47 114.417 90.9629 102.91 76.7678 102.91C62.5728 102.91 51.0654 114.417 51.0654 128.612C51.0654 142.808 62.5728 154.315 76.7678 154.315Z" stroke="#9395F6" stroke-width="2.3182" stroke-miterlimit="10" stroke-linecap="round" stroke-linejoin="round"/>
<path fill-rule="evenodd" clip-rule="evenodd" d="M177.08 51.5131C161.785 47.7376 150.902 38.115 150.902 26.8526C150.902 12.3002 169.072 0.485535 191.453 0.485535C213.834 0.485535 232.004 12.3002 232.004 26.8526C232.004 40.1591 216.812 51.1763 197.101 52.9656C196.288 61.4992 194.771 73.151 191.453 72.6881C188.303 72.249 181.84 60.658 177.08 51.5131Z" fill="#9395F6"/>
<path fill-rule="evenodd" clip-rule="evenodd" d="M56.243 271.718C54.0008 272.991 51.6196 274.152 49.1159 275.176C28.4019 283.651 7.11116 279.597 1.60014 266.129C-3.91088 252.66 8.43198 234.845 29.146 226.369C49.8596 217.894 71.1507 221.948 76.6614 235.416C79.8011 243.09 77.1458 252.174 70.4489 260.139C72.351 267.892 74.3992 277.97 71.8829 279.605C69.5818 281.099 62.3304 276.27 56.243 271.718Z" fill="#9395F6"/>
<path d="M51.2603 262.022L54.8467 261.023C55.5025 260.84 55.8919 260.15 55.7091 259.494L50.3783 240.367L39.6782 234.332L25.3332 238.33C24.6774 238.512 24.2883 239.203 24.4708 239.858L28.1358 253.008" stroke="#020144" stroke-width="1.56154" stroke-linecap="round" stroke-linejoin="round"/>
<path d="M39.6777 234.332L42.01 242.7L50.3778 240.367" stroke="#020144" stroke-width="1.56154" stroke-linecap="round" stroke-linejoin="round"/>
<path d="M25.3336 257.569L26.8212 257.154L28.2044 262.117C28.3323 262.576 28.3402 263.003 28.2283 263.399C28.1187 263.794 27.9075 264.134 27.5947 264.419C27.282 264.703 26.8846 264.912 26.4027 265.047C25.974 265.166 25.5638 265.199 25.1719 265.146C24.7817 265.09 24.4414 264.935 24.151 264.682C23.8599 264.426 23.6497 264.061 23.5202 263.588L25.0182 263.17C25.0752 263.357 25.1583 263.507 25.2676 263.621C25.3785 263.733 25.5077 263.807 25.6552 263.843C25.8043 263.876 25.9669 263.868 26.143 263.819C26.3284 263.768 26.4738 263.685 26.5793 263.57C26.6864 263.453 26.752 263.308 26.7759 263.134C26.7998 262.96 26.7801 262.759 26.7169 262.532L25.3336 257.569ZM31.2761 263.584L29.6635 264.033L30.1369 256.23L32.0762 255.69L36.5138 262.124L34.9011 262.573L31.5877 257.579L31.5321 257.594L31.2761 263.584ZM30.3956 260.814L34.2048 259.752L34.5322 260.927L30.723 261.989L30.3956 260.814ZM35.7838 254.656L39.0115 259.585L39.0775 259.566L39.2941 253.678L40.9624 253.213L40.4925 261.015L38.5531 261.555L34.112 255.122L35.7838 254.656ZM44.0836 260.014L42.471 260.464L42.9444 252.661L44.8837 252.12L49.3213 258.554L47.7087 259.004L44.3952 254.009L44.3396 254.025L44.0836 260.014ZM43.2031 257.244L47.0123 256.183L47.3397 257.357L43.5305 258.419L43.2031 257.244Z" fill="#020144"/>
<path d="M193.678 32.716C196.071 31.7972 197.659 29.4861 197.659 26.9223C197.659 23.5177 194.858 20.7162 191.453 20.7162C188.049 20.7162 185.248 23.5177 185.248 26.9223C185.248 29.4861 186.836 31.7972 189.229 32.716L185.049 43.6089C178.155 40.9632 173.58 34.3061 173.58 26.9223C173.58 17.1172 181.648 9.04877 191.453 9.04877C201.259 9.04877 209.327 17.1172 209.327 26.9223C209.327 34.3061 204.752 40.9632 197.858 43.6089L193.678 32.716Z" fill="#020144" fill-opacity="0.4" stroke="#020144" stroke-width="1.49107" stroke-linejoin="round"/>
<path d="M400.064 306.806C405.027 307.556 409.989 308.305 414.952 309.054" stroke="#020144" stroke-width="2.3182" stroke-miterlimit="10" stroke-linecap="round" stroke-linejoin="round"/>
<path fill-rule="evenodd" clip-rule="evenodd" d="M394.122 275.863L460.156 278.044L458.891 285.848L393.271 281.106L394.122 275.863Z" fill="#9395F6"/>
<path d="M371.807 331.166L380.633 326.531L376.409 317.501" stroke="#9395F6" stroke-width="2.3182" stroke-linecap="round" stroke-linejoin="round"/>
<path d="M361.875 327.817L372.062 316.033" stroke="#9395F6" stroke-width="2.3182" stroke-miterlimit="10" stroke-linecap="round" stroke-linejoin="round"/>
<path d="M362.127 312.689L353.301 317.323L357.524 326.353" stroke="#9395F6" stroke-width="2.3182" stroke-linecap="round" stroke-linejoin="round"/>
<path fill-rule="evenodd" clip-rule="evenodd" d="M394.12 275.863L460.155 278.044L449.374 344.554L386.031 325.765L394.12 275.863Z" stroke="#020144" stroke-width="2.3182" stroke-miterlimit="10" stroke-linecap="round" stroke-linejoin="round"/>
<path d="M407.434 332.112L395.696 366.309L336.443 337.078L352.855 289.262L390.688 297.048" stroke="#020144" stroke-width="2.3182" stroke-miterlimit="10" stroke-linecap="round" stroke-linejoin="round"/>
<path d="M402.668 288.983C408.413 289.481 414.157 289.978 419.902 290.475" stroke="#020144" stroke-width="2.3182" stroke-miterlimit="10" stroke-linecap="round" stroke-linejoin="round"/>
<path d="M401.852 294.663C406.218 295.13 410.584 295.597 414.95 296.065" stroke="#020144" stroke-width="2.3182" stroke-miterlimit="10" stroke-linecap="round" stroke-linejoin="round"/>
<path d="M400.943 300.552C408.904 301.635 416.864 302.719 424.824 303.801" stroke="#020144" stroke-width="2.3182" stroke-miterlimit="10" stroke-linecap="round" stroke-linejoin="round"/>
<path d="M399.223 313.368C405.52 314.388 411.818 315.408 418.115 316.428" stroke="#020144" stroke-width="2.3182" stroke-miterlimit="10" stroke-linecap="round" stroke-linejoin="round"/>
<path d="M398.484 319.519C403.285 320.478 408.085 321.436 412.885 322.395" stroke="#020144" stroke-width="2.3182" stroke-miterlimit="10" stroke-linecap="round" stroke-linejoin="round"/>
<path d="M383.847 77.6995L320.306 134.463L316.808 130.464L380.097 67.4037L383.847 77.6995Z" fill="#9395F6" stroke="#9395F6" stroke-width="2.3182" stroke-miterlimit="10" stroke-linecap="round" stroke-linejoin="round"/>
<path d="M95.0352 46.031L128.696 95.398L131.681 93.1373L99.1897 39.4095L95.0352 46.031Z" fill="#9395F6" stroke="#9395F6" stroke-width="1.62831" stroke-miterlimit="10" stroke-linecap="round" stroke-linejoin="round"/>
<path d="M125.752 58.1458L143.574 95.398L145.849 94.1666L129.284 54.0576L125.752 58.1458Z" fill="#9395F6" stroke="#9395F6" stroke-width="1.12757" stroke-miterlimit="10" stroke-linecap="round" stroke-linejoin="round"/>
<path d="M338.043 84.3444L296.833 134.463" stroke="#9395F6" stroke-width="9.27282" stroke-miterlimit="10" stroke-linejoin="round"/>
</g>
<defs>
<clipPath id="clip0_221_2785">
<rect width="471" height="473" fill="white"/>
</clipPath>
</defs>
</svg>
