<?xml version="1.0" encoding="UTF-8" standalone="no"?><!DOCTYPE svg PUBLIC "-//W3C//DTD SVG 1.1//EN" "http://www.w3.org/Graphics/SVG/1.1/DTD/svg11.dtd"><svg width="100%" height="100%" viewBox="0 0 1281 960" version="1.1" xmlns="http://www.w3.org/2000/svg" xmlns:xlink="http://www.w3.org/1999/xlink" xml:space="preserve" xmlns:serif="http://www.serif.com/" style="fill-rule:evenodd;clip-rule:evenodd;stroke-linecap:round;stroke-linejoin:round;stroke-miterlimit:2.99419;"><rect id="_03---Growing-tree" serif:id="03 - Growing tree" x="0.656" y="0" width="1280" height="960" style="fill:none;"/><g id="bg"><path d="M182.868,558.46c-0.93,-8.919 -1.404,-17.932 -1.404,-27.027c0,-191.159 209.273,-346.355 467.038,-346.355c11.609,0 23.119,0.315 34.515,0.933c0.99,6.045 3.17,11.806 6.095,16.403c10.797,16.967 -1.866,57.307 44.93,72.905c2.507,0.836 -1.273,19.02 -14.717,25.742c-40.82,20.41 -39.729,18.798 -74.611,48.835c-37.735,32.494 -43.019,23.398 -85.733,49.501c-30.038,18.356 -189.157,84.82 18.882,214.844c16.963,10.602 18.389,9.655 16.311,36.822c-1.893,24.75 -4.794,22.8 -10.761,47.236c-47.605,-6.174 -75.364,12.825 -75.364,12.825c0,0 -45.495,-0.131 -61.849,3.14c-16.143,3.229 -15.793,3.713 -32.563,3.442c52.207,-25.513 60.317,-28.648 62.878,-33.886c-1.485,-7.557 -11.474,-2.083 -34.908,6.969c-16.521,6.383 -26.09,6.329 -41.77,16.269c-12.519,-58.35 -12.754,-62.915 -18.709,-122.468c-2.608,-26.076 -18.7,-36.632 -21.682,-39.242c-16.859,-14.751 43.528,-145.752 -42.867,-153.606c-59.526,-5.411 -74.487,123.145 -92.368,134.214c-21.027,13.017 -28.554,11.189 -41.343,32.504Zm639.161,-138.407c1.043,1.926 1.705,3.887 2.066,5.835c-0.788,-1.94 -1.474,-3.887 -2.066,-5.835Zm2.066,5.835c1.134,2.793 2.477,5.572 4.047,8.319c13.61,23.818 19.379,50.351 20.475,55.002c-6.486,2.567 -7.629,3.138 -15.639,8.107c-11.725,-17.059 -36.414,-45.805 -17.306,-47.397c1.208,-0.101 10.686,-11.839 8.423,-24.031Zm36.816,288.897c-6.034,-0.967 -13.318,-1.553 -24.84,-2.112c-2.138,-26.094 7.502,-63.947 -14.276,-114.762c-6.759,-15.772 18.674,-20.313 23.614,-53.118c94.666,6.995 36.54,-77.462 27.418,-141.314c-1.849,-12.945 -23.347,-56.124 -23.474,-56.135c-15.752,-1.312 -38.521,35.862 -27.324,72.709c-0.23,-0.423 -0.477,-0.845 -0.744,-1.264c-42.645,-67.014 -30.646,-71.635 -41.846,-150.034c-0.404,-2.83 -5.069,-35.484 -1.021,-35.722c17.727,-1.043 23.568,-14.143 19.659,-29.782c184.501,46.289 317.464,175.811 317.464,328.182c-0,4.778 -0.131,9.533 -0.39,14.264c-13.229,-19.822 -45.37,-9.609 -52.381,-65.697c-1.321,-10.571 -3.832,-10.524 4.26,-18.616c7.908,-7.909 -3.927,-14.419 2.648,-40.717c9.577,-38.306 -9.683,-41.215 -11.586,-45.021c-12.653,-25.305 -46.222,-16.913 -50.317,-15.889c-9.835,2.459 -41.215,-7.158 -18.378,8.975c-5.087,1.149 -4.722,2.024 -10.091,2.28c-15.233,0.725 -8.963,14.59 -28.8,34.427c-2.431,2.432 11.52,4.999 4.966,8.276c-10.593,5.297 5.716,9.374 6.621,9.6c11.634,2.909 -1.872,21.085 23.503,71.834c0.67,1.341 1.706,3.412 15.227,10.924c-9.808,11.209 -16.617,1.399 -28.137,14.566c-4.936,5.64 -4.192,6.14 -55.945,75.144c-65.837,87.783 -66.588,90.55 -61.241,106.592c1.816,5.448 3.508,9.296 5.411,12.41Z" style="fill:#def1ec;"/><circle cx="1000.9" cy="291.353" r="25.887" style="fill:none;stroke:#5cba9e;stroke-width:8.33px;"/><circle cx="363.136" cy="217.761" r="18.315" style="fill:none;stroke:#5cba9e;stroke-width:8.33px;"/><g id="Layer8"></g><circle cx="310.45" cy="270.447" r="34.371" style="fill:#5cba9e;"/></g><g id="color"><path d="M847.629,345.555c-2.148,2.412 -7.773,4.071 -14.296,16.464c-3.411,6.481 -8.303,15.137 -11.251,47.56c-1.608,17.692 5.942,18.46 3.58,23.183c-1.692,3.384 -5.843,22.363 -10.228,20.797c-8.385,-2.995 -35.681,-31.493 -39.718,-53.696c-6.281,-34.547 -21.694,-30.298 -43.98,-55.061c-6.73,-7.477 -16.172,-24.261 -29.801,-33.166c3.192,-2.277 12.84,-9.781 13.948,-10.643c7.337,-5.707 12.676,-1.037 18.239,-17.728c1.891,-5.671 9.618,4.566 16.706,1.022c5.801,-2.9 6.814,4.094 13.637,0c5.595,-3.356 5.516,-5.25 15.974,-3.396c2.385,6.724 -0.371,8.601 17.949,26.921c14.609,14.609 23.543,17.823 26.081,19.092c16.888,8.444 22.695,18.092 23.183,18.58" style="fill:#020144;"/><path d="M775.687,215.157c1.261,-1.565 -4.746,-13.032 -5.305,-14.1c-2.997,-5.721 -7.895,-8.419 -8.771,-8.901c2.038,-6.221 -0.275,-33.928 -8.561,-34.214c-19.68,-0.679 -35.11,27.582 -41.253,30.653c-1.985,0.993 -17.304,14.986 -30.367,4.297c-9.836,-8.047 -0.749,-46.924 13.751,-60.733c27.289,-25.991 44.661,-20.572 52.606,-20.913c1.386,-3.864 5.037,-17.435 17.438,-23.635c14.618,-7.309 66.012,12.331 50.42,47.413c-3.192,7.182 -14.273,12.723 -15.756,13.464c-0.882,0.441 -0.728,0.462 -1.633,1.035c1.019,3.651 7.298,26.161 -0.659,47.38c-2.094,5.585 -13.744,-5.938 -15.183,8.451c-0.549,5.491 -1.441,5.153 -3.295,7.592" style="fill:#020144;"/><path d="M820.966,591.418c20.917,55.779 15.504,107.074 16.235,122.194c-29.463,1.144 -29.269,-0.633 -58.775,-1.476c-34.172,-0.977 -35.402,-3.887 -56.172,-3.173c-8.752,-10.147 -18.532,-5.952 -34.692,-10.261c-15.442,-4.118 -15.501,-3.058 -31.544,-4.31c1.501,-14.492 0.098,-54.637 6.829,-48.945c10.9,9.216 40.755,-4.268 48.597,-6.078c16.946,-3.91 57.182,25.244 80.416,-17.352c6.388,-11.711 -1.098,-19.037 15.299,-23.509c7.184,-1.959 11.511,-6.286 12.315,-7.09" style="fill:#020144;"/><path d="M723.376,714.1c2.684,6.019 -4.633,8.458 -5.412,8.718c-8.835,2.945 -9.186,3.997 -9.454,4.802c-3.409,10.226 -5.816,29.244 -37.065,44.868c-43.993,21.996 -74.092,12.502 -94.688,7.353c-1.533,-0.383 -3.602,-0.9 -18.008,-8.103c-20.962,-10.481 -32.517,-43.071 -33.613,-43.968c-1.879,-1.537 -18.35,-5.966 -14.106,-12.755c0.933,-1.493 15.511,7.664 28.812,8.403c6.316,0.351 50.69,5.336 88.385,3.452c78.286,-3.915 86.798,-10.376 93.488,-12.606" style="fill:#5cba9e;"/><path d="M519.276,459.73l-0.502,0.916c-1.648,0.824 -9.383,-2.655 -7.878,7.878c0.921,6.451 1.953,6.032 2.541,8.386c2.376,9.502 11.162,22.084 11.182,22.109c20.938,26.649 25.124,23.348 36.986,36.763c-4.157,1.106 -5.947,2.636 -11.066,1.356c-24.637,-6.159 -20.845,18.878 -18.297,23.126c3.226,5.376 33.199,22.936 45.235,-4.575c5.115,7.674 8.554,16.093 11.181,21.347c4.948,9.896 7.802,52.979 7.624,59.211c-0.129,4.52 -28.154,12.352 -55.399,-1.271c-10.393,-5.196 -10.742,-2.179 -21.855,1.525c-10.405,3.468 -20.401,3.146 -24.396,3.812c-38.971,6.495 -63.613,-32.812 -52.35,-63.785c17.396,-47.839 -49.343,-62.684 9.657,-130.113c6.242,-7.133 32.803,-72.705 35.832,-83.607c1.014,-3.652 5.238,-18.857 37.102,-29.478c15.714,-5.238 18.392,1.929 38.881,-12.707c51.231,-36.593 58.569,-27.828 94.026,-16.009c14.883,4.96 39.315,-7.472 73.951,40.151c10.299,14.162 39.037,31.118 43.455,48.792c9.29,37.158 23.524,45.109 47.267,69.885c10.354,10.803 11.122,42.73 18.552,53.874c11.424,17.137 2.208,48.109 -12.707,63.023c-1.641,1.642 -15.671,15.671 -23.125,17.535c-14.246,3.561 -4.114,21.829 -23.38,36.34c-29.625,22.314 -52.38,2.983 -84.891,9.864c-21.594,4.571 -39.864,1.416 -45.475,-5.798c-3.475,-4.468 7.273,-81.744 37.357,-100.888c8.954,-5.698 8.202,-9.067 15.41,-7.049c-4.681,12.526 -12.703,25.317 10.256,32.97c36.874,12.291 43.081,-43.076 9.149,-31.766c-4.893,1.631 -5.069,-2.476 -19.457,-0.222c6.365,-13.873 16.221,-9.249 34.704,-17.566c6.203,-2.792 -0.591,-5.413 -1.27,-10.165c-1.03,-7.21 -88.642,28.612 -107.749,19.059c-31.465,-15.733 6.043,-55.989 7.153,-76.565c-12.967,2.442 -8.712,8.256 -17.318,21.166c-5.47,8.203 -4.417,14.212 -19.568,31.257c-29.787,33.51 -62.77,3.776 -65.973,-6.983c3.291,1.079 40.673,13.341 42.847,-6.231c3.404,-30.632 -16.55,-19.685 -26.937,-20.839c-20.602,-2.289 -18.273,7.765 -16.718,27.244c-14.544,-21.654 -12.135,-30.843 -14.037,-31.972Zm175.29,1.313c0.492,-0.15 3.041,-4.52 3.279,-4.929c0.506,-0.867 5.914,-10.138 6.018,-11.011c0.273,-2.295 -0.321,-19.552 -16.773,-16.262c-14.182,2.837 -22.825,-6.375 -28.682,9.731c-2.423,6.664 2.247,23.168 17.158,23.817c6.316,0.274 6.301,1.529 12.42,-0l6.58,-1.346Z" style="fill:#5cba9e;"/><path d="M1047.17,452.245c-0.096,-0.042 -7.93,-13.534 -8.088,-14.008c-0.593,-1.779 10.622,-12.868 -5.491,-15.412c-1.815,-0.287 -4.758,-0.752 -22.444,-4.913c-8.416,-1.98 -8.13,-6.796 -13.774,-3.66c-27.755,15.419 -30.728,11.655 -41.517,7.609c-2.509,-0.941 -7.273,-4.928 -3.275,-6.261c5.595,-1.865 5.826,-7.273 2.216,-7.995c-9.213,-1.843 1.914,-4.502 10.788,-22.251c6.815,-13.629 9.298,-14.291 22.398,-17.767c-2.056,-3.996 -7.215,-8.131 -0.532,-7.759c25.045,1.391 42.048,-8.689 62.708,5.683c6.547,4.554 7.524,12.965 12.812,15.316c8.842,3.93 11.466,22.137 7.802,40.456c-1.435,7.176 -1.465,7.104 -3.42,14.142c-4.293,0.33 -6.111,-4.535 -11.8,1.752c-2.117,2.341 -1.789,2.537 -7.417,13.389" style="fill:#5cba9e;"/><path d="M1029.64,739.927c-47.119,-7.779 -46.834,-8.483 -94.306,-13.758c-20.49,-2.277 -0.179,-14.033 -4.653,-29.693c-3.799,-13.294 -2.158,-26.9 -5.599,-50.921c-1.286,1.774 -0.173,2.278 -13.015,24.109c-3.937,6.694 -4.822,5.948 -8.278,12.754c7.81,22.286 -11.094,5.164 -17.426,-4.333c-8.483,-12.725 -9.922,-0.292 -11.176,3.836c-9.14,-2.906 -7.32,2.983 -10.539,4.362c-5.549,2.378 -6.935,1.85 -7.336,7.921c-0.987,0.187 -7.592,1.439 -1.528,12.465c2.81,5.108 6.51,12.734 0.444,7.534c-1.865,-1.598 -14.868,-12.744 -11.744,-28.363c2.594,-12.973 6.709,-11.567 11.3,-31.465c3.207,-13.894 6.196,-12.449 40.994,-73.345c34.813,-60.922 48.009,-56.947 64.26,-61.822c2.2,-0.661 27.013,-6.044 27.255,-5.983c0.347,0.087 10.075,6.756 32.351,14.181c1.946,0.649 35.445,4.104 52.959,-4.653c7.816,-3.908 8.507,-0.457 8.642,0.222c0.979,4.891 32.025,14.1 45.647,49.856c15.717,41.259 10.4,42.473 19.056,85.754c4.853,24.266 7.245,69.626 3.546,84.424c-7.973,31.89 -37.944,28.064 -83.76,37.227c-9.397,1.879 -41.287,2.695 -49.635,6.869c-9.609,4.804 -14.259,-1.44 -14.985,-2.414c3.024,-0.142 2.904,-0.134 5.9,-0.467c2.478,-0.275 6.729,3.055 5.096,-2.659c-5.114,-17.901 -13.707,-26.086 -15.954,-30.579c-2.419,-4.839 -16.286,8.277 -11.079,-2.88c2.66,-5.7 9.534,0.987 19.943,-2.216c13.433,-4.133 26.943,-6.467 27.476,-7.534" style="fill:#5cba9e;"/><path d="M918.884,749.905c-1.334,-0.752 -16.482,-9.293 -19.129,0.411c-2.84,10.413 4.12,13.206 10.189,15.731c-1.322,1.253 -5.529,5.244 -19.933,11.006c-0.151,0.061 -9.938,2.309 -9.507,7.487c0.488,5.854 9.994,-0.517 15.805,8.199c3.735,5.602 14.376,2.203 10.695,7.724c-0.655,0.983 -2.585,3.877 -14.616,-2.139c-0.019,-0.009 -15.131,-10.303 -12.953,-19.013c2.503,-10.014 -0.251,-11.336 -16.637,-15.805c-4.954,-1.351 -19.158,-3.942 -42.067,-14.022c-11.269,-4.959 -10.136,-6.994 -9.388,-7.606c2.283,-1.867 7.491,-6.129 36.72,3.328c31.602,10.224 35.199,16.217 42.661,4.278c11.946,-19.114 43.858,-4.292 30.302,-0.594" style="fill:#0df228;"/></g><g id="right-man" serif:id="right man"><path d="M965.393,425.731c6.837,33.774 10.639,75.472 37.64,79.623c0.31,0.048 0.624,0.091 0.94,0.128c28.561,3.405 41.288,-17.258 45.342,-25.482" style="fill:none;stroke:#020144;stroke-width:4.17px;stroke-miterlimit:1.5;"/><path d="M973.518,430.993c23.048,1.179 19.853,26.91 18.062,40.925" style="fill:none;stroke:#020144;stroke-width:4.17px;stroke-miterlimit:1.5;"/><path d="M1002.28,440.818c8.543,-8.078 21.387,-1.274 25.986,1.861" style="fill:none;stroke:#020144;stroke-width:4.17px;stroke-miterlimit:1.5;"/><path d="M1012.73,447.755c1.177,-0.084 2.322,2.478 2.555,5.718c0.232,3.24 -0.535,5.939 -1.712,6.024c-1.178,0.084 -2.322,-2.478 -2.555,-5.718c-0.233,-3.24 0.534,-5.939 1.712,-6.024Z" style="fill:#020144;stroke:#020144;stroke-width:4.17px;stroke-miterlimit:1.5;"/><path d="M982.751,445.585c1.178,-0.084 2.322,2.478 2.555,5.718c0.233,3.24 -0.535,5.939 -1.712,6.023c-1.177,0.085 -2.322,-2.477 -2.555,-5.717c-0.232,-3.24 0.535,-5.939 1.712,-6.024Z" style="fill:#020144;stroke:#020144;stroke-width:4.17px;stroke-miterlimit:1.5;"/><path d="M999.643,411.849c3.143,2.442 8.828,5.529 19.238,7.957c3.418,0.798 20.206,2.083 22.994,6.904c1.498,2.589 -1.786,7.783 -2.723,10.707c1.088,1.088 2.046,2.044 7.996,17.491c2.072,-6.36 4.32,-21.019 14.555,-19.356c1.621,0.264 2.905,0.942 3.922,1.885c4.533,4.199 3.746,13.632 3.646,14.826c-0.741,8.886 -5.478,11.81 -8.94,13.014" style="fill:none;stroke:#020144;stroke-width:4.17px;stroke-miterlimit:1.5;"/><path d="M1065.62,437.437c1.045,-3.428 2.08,-6.944 2.262,-7.563c12.915,-43.895 -2.668,-48.693 -8.831,-51.421c-5.214,-16.846 -25.849,-20.804 -28.67,-21.242c-16.031,-2.487 -19.755,2.545 -48.365,3.06c3.332,4.482 4.358,5.899 7.918,7.905c-26.705,2.648 -23.638,17.836 -32.254,30.493c-3.571,5.244 -8.9,5.922 -8.074,7.402c0.744,1.332 7.402,3.982 8.081,4.252c-1.014,2.029 -0.408,2.833 -7.628,6.663c1.847,1.787 6.543,7.99 15.329,8.745c1.746,0.15 3.653,0.084 5.731,-0.273c2.595,-0.447 17.995,-3.098 28.519,-13.609c1.507,-1.504 2.914,-3.17 4.169,-5.014" style="fill:none;stroke:#020144;stroke-width:4.17px;stroke-miterlimit:1.5;"/><path d="M1013.15,483.558c0,0 -11.301,5.321 -20.324,-0.082" style="fill:none;stroke:#020144;stroke-width:4.17px;stroke-miterlimit:1.5;"/><path d="M1060.33,465.277c1.759,9.348 3.328,35.891 18.314,53.294c2.623,3.046 5.656,5.811 9.173,8.156c18.537,12.358 39.884,17.309 54.805,101.862c21.744,123.219 8.626,131.33 -22.095,141.459c-23.809,7.851 -53.994,11.712 -81.933,13.503m-25.505,1.138c-4.727,0.125 -9.287,0.2 -13.623,0.237c-24.919,0.213 -42.492,-0.818 -42.492,-0.818" style="fill:none;stroke:#020144;stroke-width:4.17px;stroke-miterlimit:1.5;"/><path d="M1080.63,623.729c2.873,7.924 8.681,36.961 9.328,40.198c2.109,10.547 3.711,20.067 4.932,28.614c1.412,9.884 2.316,18.465 2.909,25.825" style="fill:none;stroke:#020144;stroke-width:4.17px;stroke-miterlimit:1.5;"/><path d="M1119.26,715.847c-6.977,-0.763 -13.771,0.276 -21.462,2.519c-3.416,0.996 -7.008,2.23 -10.872,3.648c-14.205,5.216 -32.081,12.936 -58.33,20.564m-32.439,8.215c-3.313,0.724 -6.727,1.437 -10.247,2.137c-0.366,0.073 -0.733,0.145 -1.101,0.218c-25.207,4.961 -48.18,-15.591 -56.491,-10.98c-1.354,0.751 -2.497,1.966 -3.751,3.309c-1.243,1.331 -2.596,2.789 -4.372,4.048c-1.486,1.053 -3.269,1.967 -5.533,2.55c-8.252,2.125 -8.258,1.743 -16.634,2.663c-0.069,0.008 -0.138,0.015 -0.208,0.023" style="fill:none;stroke:#020144;stroke-width:4.17px;stroke-miterlimit:1.5;"/><path d="M919.51,755.498c-0.001,2.715 -6.868,13.112 -25.949,20.809c-9.924,4.003 -17.644,4.941 -13.327,10.324c3.254,4.057 11.299,0.797 13.614,3.324c3.828,4.18 2.783,8.07 9.755,7.299c9.466,-1.046 8.162,8.618 15.938,6.251c5.677,-1.728 4.031,7.943 21.809,-2.723c4.455,-2.673 16.66,-13.108 25.593,-15.827" style="fill:none;stroke:#020144;stroke-width:4.17px;stroke-miterlimit:1.5;"/><path d="M985.911,752.93c-1.585,-4.023 0.078,-5.497 2.005,-5.969c1.082,-0.266 2.246,-0.215 2.966,-0.123c0.316,0.04 0.546,0.089 0.645,0.123c1.313,0.442 2.908,1.829 4.631,3.832c7.396,8.604 17.137,28.576 16.932,33.896c-0.131,3.403 -1.177,5.068 -2.674,5.617c-0.152,0.056 -0.308,0.1 -0.468,0.133c-3.099,0.644 -7.746,-2.741 -10.481,-5.513" style="fill:none;stroke:#020144;stroke-width:4.17px;stroke-miterlimit:1.5;"/><path d="M987.916,746.961c2.681,-0.303 10.434,0.086 15.038,-0.356c9.318,-0.894 10.014,-1.153 25.643,-4.027" style="fill:none;stroke:#020144;stroke-width:4.17px;stroke-miterlimit:1.5;"/><path d="M1009.95,790.439c2.711,-0.717 19.588,-6.699 33.191,-7.247" style="fill:none;stroke:#020144;stroke-width:4.17px;stroke-miterlimit:1.5;"/><path d="M1003.03,505.354c-3.096,3.489 -8.665,5.522 -15.627,7.255c-19.744,4.916 -50.698,7.428 -68.244,33.933c-28.257,42.688 -65.374,108.607 -72.168,129.05c-7.972,23.988 -0.588,31.028 11.965,41.283" style="fill:none;stroke:#020144;stroke-width:4.17px;stroke-miterlimit:1.5;"/><path d="M1078.64,518.571c-14.915,7.829 -53.692,19.834 -91.239,-5.962" style="fill:none;stroke:#020144;stroke-width:4.17px;stroke-miterlimit:1.5;"/><path d="M925.192,608.146c0.504,13.03 -0.061,24.369 -0.083,37.737c-0.023,14.809 0.621,32.107 4.125,56.948c1.548,10.97 -6.892,10.377 -3.811,20.924c0.091,0.312 0.173,0.61 0.246,0.894" style="fill:none;stroke:#020144;stroke-width:4.17px;stroke-miterlimit:1.5;"/><path d="M1094.89,692.541c-3.358,9.775 -6.014,20.438 -7.963,29.473" style="fill:none;stroke:#020144;stroke-width:4.17px;stroke-miterlimit:1.5;"/><path d="M810.747,741.724l94.089,28.98" style="fill:none;stroke:#020144;stroke-width:4.17px;stroke-miterlimit:1.5;"/><path d="M810.371,741.086c3.175,-1.665 10.367,-2.415 27.985,2.14c19.805,5.12 45.138,17.86 48.68,10.594c7.955,-16.314 30.149,-16.713 37.532,-8.343" style="fill:none;stroke:#020144;stroke-width:4.17px;stroke-miterlimit:1.5;"/><path d="M810.371,741.086c0.108,0.206 0.233,0.419 0.376,0.638c2.056,3.141 7.912,7.603 23.989,13.365c19.257,6.901 47.37,10.609 46.214,18.609c-0.38,2.634 -0.315,5.157 0.107,7.537m2.594,7.327c5.367,9.82 16.855,15.39 24.326,12.94" style="fill:none;stroke:#020144;stroke-width:4.17px;stroke-miterlimit:1.5;"/><path d="M920.196,749.525c-4.351,-2.697 -15.394,-7.875 -21.707,3.869c-0.22,0.408 -0.373,0.86 -0.46,1.344c-0.773,4.292 3.632,11.078 12.742,11.834" style="fill:none;stroke:#020144;stroke-width:4.17px;stroke-miterlimit:1.5;"/><path d="M899.471,693.295c-2.872,-3.763 -10.383,-12.906 -11.253,-13.965c-8.386,-10.209 -12.288,-5.756 -12.948,2.237c-0.687,8.32 2.139,20.474 7.078,23.92c0.328,0.229 0.665,0.419 1.011,0.567c1.583,0.679 3.76,-0.297 1.407,-21.482" style="fill:none;stroke:#020144;stroke-width:3.33px;stroke-miterlimit:1.5;"/><path d="M875.27,681.567c-7.981,-2.139 -10.507,0.696 -10.265,5.478c0.394,7.775 8.108,20.698 11.605,25.76c0.804,1.165 1.386,1.914 1.603,2.088c2.034,1.627 2.565,0.702 3.322,-1.822c0.074,-0.247 0.201,-0.67 0.334,-1.26c0.296,-1.309 0.623,-3.445 0.479,-6.324" style="fill:none;stroke:#020144;stroke-width:3.33px;stroke-miterlimit:1.5;"/><path d="M865.005,687.045c-2.918,-0.38 -7.861,0.131 -6.494,6.954c0.458,2.284 1.624,5.277 3.81,9.181c0.769,1.373 5.18,8.043 7.352,11.248c0.672,0.992 1.129,1.652 1.198,1.721c3.76,3.76 5.198,-0.288 5.739,-3.344" style="fill:none;stroke:#020144;stroke-width:3.33px;stroke-miterlimit:1.5;"/><path d="M858.511,693.999c-3.156,-0.65 -9.011,0.907 -2.146,13.216c6.956,12.473 8.361,12.38 9.607,12.297c2.573,-0.172 3.419,-3.162 3.701,-5.084" style="fill:none;stroke:#020144;stroke-width:3.33px;stroke-miterlimit:1.5;"/><path d="M899.471,693.295c5.323,1.786 12.031,5 10.116,9.308c-1.764,3.969 -13.569,17.01 -16.62,13.45c-0.747,-0.871 -1.034,-1.905 -1.001,-3.02c0.146,-4.967 6.633,-11.57 7.053,-12.831" style="fill:none;stroke:#020144;stroke-width:3.33px;stroke-miterlimit:1.5;"/><path d="M891.966,713.033c-2.021,0.611 -4.394,0.533 -10.097,-1.222" style="fill:none;stroke:#020144;stroke-width:3.33px;stroke-miterlimit:1.5;"/><path d="M925.109,645.883c-4.472,8.799 -11.729,22.467 -16.129,28.333c-4.506,6.008 -6.954,7.74 -5.054,11.16c0.33,0.594 0.566,1.16 0.723,1.705c0.818,2.842 -0.533,5.08 -2.104,7.367" style="fill:none;stroke:#020144;stroke-width:3.33px;stroke-miterlimit:1.5;"/><path d="M904.649,687.081c-6.204,-13.755 -25.745,-32.284 -43.158,-21.977" style="fill:none;stroke:#020144;stroke-width:3.33px;stroke-miterlimit:1.5;"/></g><g id="left-woman" serif:id="left woman"><g id="color1" serif:id="color"><path d="M365.783,452.739c-3.782,19.149 -10.513,40.875 -17.762,50.767c-10.429,14.229 -23.015,13.507 -34.264,7.294c0.132,10.482 2.561,14.6 6.786,16.969c4.384,2.458 10.703,3.033 18.399,6.881c7.278,3.639 0.4,12.239 11.699,20.047c0.119,0.082 0.24,0.165 0.363,0.247c9.116,6.077 12.654,2.141 14.417,-6.09c2.233,-10.423 1.619,-27.734 5.878,-40.317c9.906,-29.27 14.278,-77.428 -3.223,-106.9c-8.649,-14.566 -25.63,-24.791 -35.861,-29.272c-16.183,-7.088 -34.569,-7.9 -47.476,-3.524c-25.797,8.747 -28.208,25.757 -33.076,56.533c-6.576,41.567 -27.496,37.632 -26.539,56.766c0.332,6.632 9.014,14.501 8.373,14.902c-6.841,4.275 -22.352,29.493 -18.825,37.753c0.108,0.251 0.233,0.487 0.376,0.706c5.664,8.646 5.217,8.959 5.677,17.456c0.599,11.086 20.708,22.818 37.182,-2.838c1.75,-2.726 3.069,-5.286 4.056,-7.707c7.534,-18.482 -4.225,-28.94 9.284,-43.951c4.075,-4.528 10.515,-10.178 6.528,-22.139c-1.397,-4.192 -4,-2.3 -7.805,-9.367c-10.062,-18.686 3.773,-27.446 9.934,-15.894c1.434,2.689 2.515,6.213 3.259,8.955c7.43,-3.582 11.909,-15.315 17.863,-24.247c1.153,-1.728 2.021,11.007 -1.045,18.161c2.029,-0.193 15.47,-1.474 23.675,-9.413c12.59,-12.184 14.945,-40.74 25.006,-34.704c5.602,3.361 5.387,32.695 17.121,42.926" style="fill:#5cba9e;"/><g id="Layer7"><path d="M363.351,626.81c2.077,-16.619 -8.633,-32.54 -11.364,-51.654c-2.018,-14.125 0.557,-15.012 -4.649,-21.953c-7.711,-10.281 -0.962,-16.224 -11.751,-19.371c-5.171,-1.508 -5.257,-2.431 -15.362,-4.815c-0.007,3.378 -4.747,40.063 -7.366,43.556c-11.352,15.136 -17.257,8.223 -45.198,-21.953c-2.919,-3.153 -4.605,-11.423 -7.361,-3.616c-5.906,16.735 -32.3,29.291 -39.128,7.103c-3.746,-12.176 -3.682,-21.144 -11.751,-16.917c-2.592,1.358 -7.93,2.43 -5.811,5.553c2.838,4.182 13.578,20.01 15.109,61.339c0.433,11.702 -3.739,14.946 -4.778,15.755c-1.362,1.059 -12.428,23.783 -10.589,30.218c8.379,29.328 6.947,30.333 9.297,31.509c0.729,0.364 22.137,-2.092 25.44,-3.616c17.712,-8.175 21.378,-3.465 30.993,-18.208c15.413,-23.634 21.189,-16.736 30.217,-22.986c8.101,-5.609 8.533,-8.626 13.174,-4.947c25.524,-19.384 49.53,-5.053 51.136,-3.447" style="fill:#020144;"/><path d="M362.594,639.282c-4.752,10.69 -4.035,10.911 -8.903,21.621c-1.852,4.075 -14.215,-1.955 -24.314,-0.887c1.494,-6.138 -1.206,-5.453 -6.973,-8.016c-3.705,-1.646 -13.147,2.991 -11.828,-0.636c1.36,-3.74 0.061,-8.435 14.117,-17.806c16.762,-11.174 34.599,-0.879 37.265,4.452" style="fill:#020144;"/><path d="M294.618,700.392c0.049,0.675 -2.204,24.434 -4.137,28.3c-2.338,4.675 -3.453,3.564 -8.649,3.179c-5.855,-0.433 -33.457,8.233 -69.824,16.026c1.447,-3.41 6.68,-12.666 9.158,-25.056c1.269,-6.347 3.605,-4.567 20.095,-13.99c32.94,-18.823 48.713,-10.937 52.526,-9.03" style="fill:#020144;"/></g></g><g id="outline"><path d="M368.076,438.7c-2.641,21.21 -10.938,52.366 -20.055,64.806c-23.365,31.88 -57.56,-11.29 -63.282,-23.117" style="fill:none;stroke:#020144;stroke-width:4.17px;stroke-miterlimit:1.5;"/><path d="M313.757,510.8c0.132,10.482 2.561,14.6 6.786,16.969c4.384,2.458 10.703,3.033 18.399,6.881c7.278,3.639 0.4,12.239 11.699,20.047c0.119,0.082 0.24,0.165 0.363,0.247c9.116,6.077 12.654,2.141 14.417,-6.09c2.233,-10.423 1.619,-27.734 5.878,-40.317c9.906,-29.27 14.278,-77.428 -3.223,-106.9c-8.649,-14.566 -25.63,-24.791 -35.861,-29.272c-16.183,-7.088 -34.569,-7.9 -47.476,-3.524c-25.797,8.747 -28.208,25.757 -33.076,56.533c-6.576,41.567 -27.496,37.632 -26.539,56.766c0.332,6.632 9.014,14.501 8.373,14.902c-6.841,4.275 -22.352,29.493 -18.825,37.753c0.108,0.251 0.233,0.487 0.376,0.706c5.664,8.646 5.217,8.959 5.677,17.456c0.599,11.086 20.708,22.818 37.182,-2.838c1.75,-2.726 3.069,-5.286 4.056,-7.707c7.534,-18.482 -4.225,-28.94 9.284,-43.951c4.075,-4.528 10.515,-10.178 6.528,-22.139c-1.397,-4.192 -4,-2.3 -7.805,-9.367c-10.062,-18.686 3.773,-27.446 9.934,-15.894c1.434,2.689 2.515,6.213 3.259,8.955" style="fill:none;stroke:#020144;stroke-width:4.17px;stroke-miterlimit:1.5;"/><path d="M365.783,452.739c-11.734,-10.231 -11.519,-39.565 -17.121,-42.926c-10.061,-6.036 -12.416,22.52 -25.006,34.704c-8.205,7.939 -21.646,9.22 -23.675,9.413c3.066,-7.154 2.198,-19.889 1.045,-18.161c-5.954,8.932 -10.433,20.665 -17.863,24.247" style="fill:none;stroke:#020144;stroke-width:4.17px;stroke-miterlimit:1.5;"/><path d="M274.333,454.179c0,-0 -4.765,3.796 1.092,11.651" style="fill:none;stroke:#020144;stroke-width:4.17px;stroke-miterlimit:1.5;"/><path d="M360.285,451.244c-0.75,-0.094 -5.843,-0.734 -9.223,2.083c-8.609,7.174 -6.545,22.218 -5.6,29.605" style="fill:none;stroke:#020144;stroke-width:4.17px;stroke-miterlimit:1.5;"/><path d="M332.229,456.063c-8.617,-3.409 -20.109,-1.967 -25.989,2.103" style="fill:none;stroke:#020144;stroke-width:4.17px;stroke-miterlimit:1.5;"/><path d="M339.612,494.156c-0,0 -9.668,5.423 -22.205,-1.09" style="fill:none;stroke:#020144;stroke-width:4.17px;stroke-miterlimit:1.5;"/><path d="M354.141,460.17c0.953,0.221 1.26,2.411 0.686,4.888c-0.575,2.476 -1.814,4.307 -2.767,4.086c-0.953,-0.221 -1.26,-2.41 -0.686,-4.887c0.575,-2.476 1.815,-4.308 2.767,-4.087Z" style="fill:none;stroke:#020144;stroke-width:4.17px;stroke-miterlimit:1.5;"/><path d="M324.181,462.537c0.953,0.221 1.26,2.411 0.685,4.887c-0.574,2.477 -1.814,4.308 -2.766,4.087c-0.953,-0.221 -1.26,-2.411 -0.686,-4.887c0.574,-2.477 1.814,-4.308 2.767,-4.087Z" style="fill:none;stroke:#020144;stroke-width:4.17px;stroke-miterlimit:1.5;"/><path d="M214.672,534.795c-3.595,1.134 -8.042,2.382 -12.776,4.929c-9.237,4.969 -19.564,14.885 -26.769,38.559c-10.218,33.573 -44.471,128.647 -44.639,132.675c-1.49,35.777 47.008,23.758 90.004,7.499c13.497,-5.105 26.452,-10.627 37.148,-15.22c2.653,-1.139 5.167,-2.22 7.515,-3.225" style="fill:none;stroke:#020144;stroke-width:4.17px;stroke-miterlimit:1.5;"/><path d="M217.603,616.707c-4.926,3.99 -9.571,9.248 -15.004,24.975c-0.361,1.046 -1.074,2.942 -2.021,5.404c-3.519,9.145 -10.267,26.092 -14.187,36.182" style="fill:none;stroke:#020144;stroke-width:4.17px;stroke-miterlimit:1.5;"/><path d="M148.542,695.387c0.042,-0.117 9.906,-7.278 18.643,-9.653c16.69,-4.538 17.948,-0.796 46.965,-3.727c22.44,-2.267 36.899,-8.39 50.043,-13.003" style="fill:none;stroke:#020144;stroke-width:4.17px;stroke-miterlimit:1.5;"/><path d="M264.237,668.401c3.759,-2.189 12.648,-23.919 22.058,-26.507c17.979,-4.944 19.551,-13.323 24.317,-11.337c3.057,1.274 -0.571,10.864 -9.363,15.334c-0.462,0.235 -0.389,0.289 -5.677,3.141c0.931,0.234 7.294,2.957 17.892,2.639c3.547,-0.107 8.193,-1.347 13.606,1.414c5.443,2.776 1.535,9.44 1.122,10.144c-1.129,1.926 -2.441,1.52 -1.834,3.659c0.882,3.105 -0.089,8.065 -0.223,8.752c-0.558,2.847 -4.686,2.859 -4.649,8.358c0.031,4.556 -0.159,5.003 -4.328,6.884c-0.7,13.537 -22.909,7.911 -24.637,7.718c-1.784,-0.2 -17.95,-4.386 -34.881,4.637" style="fill:none;stroke:#020144;stroke-width:4.17px;stroke-miterlimit:1.5;"/><path d="M220.492,718.457c0.444,12.25 -3.469,19.918 -10.328,30.792m-9.586,-102.163c3.519,10.241 7.885,23.684 11.457,35.128" style="fill:none;stroke:#020144;stroke-width:4.17px;stroke-miterlimit:1.5;"/><path d="M201.896,539.724c11.973,13.618 20.907,45.273 15.707,76.983c-1.099,6.703 -2.83,13.409 -5.297,19.948" style="fill:none;stroke:#020144;stroke-width:4.17px;stroke-miterlimit:1.5;"/><path d="M320.543,527.769c-0.206,14.328 -1.238,25.339 -6.213,41.784c-5.011,16.562 -13.336,13.649 -24.077,4.509c-8.203,-6.98 -19.62,-20.66 -28.29,-31.65" style="fill:none;stroke:#020144;stroke-width:4.17px;stroke-miterlimit:1.5;"/><path d="M380.437,666.898l-6.442,49.113m-3.444,26.26l-1.784,13.606c-0.543,4.141 -4.34,7.057 -8.481,6.514l-64.766,-8.494c-4.141,-0.543 -7.057,-4.34 -6.514,-8.481l6.079,-46.347m34.438,-38.849l44.17,5.794" style="fill:none;stroke:#020144;stroke-width:4.17px;stroke-miterlimit:1.5;"/><path d="M311.562,633.798c8.556,-8.884 21.069,-13.736 34.225,-12.011c6.998,0.918 13.341,3.587 18.644,7.509c11.378,8.413 17.975,22.59 16.006,37.602m-78.599,-16.141c0.675,-2.404 1.563,-4.706 2.641,-6.889" style="fill:none;stroke:#020144;stroke-width:4.17px;stroke-miterlimit:1.5;"/><path d="M308.681,651.611c4.774,-15.18 19.904,-25.22 36.222,-23.08c7.274,0.954 13.695,4.186 18.641,8.883c7.489,7.113 11.593,17.585 10.149,28.6" style="fill:none;stroke:#020144;stroke-width:4.17px;stroke-miterlimit:1.5;"/><path d="M373.995,716.011l100.885,-36.726l1.659,5.506l-105.988,57.48" style="fill:none;stroke:#020144;stroke-width:4.17px;stroke-miterlimit:1.5;"/><path d="M365.421,548.854c6.12,4.947 13.062,13.874 14.863,32.479c5.594,57.804 8.559,80.342 21.865,124.429" style="fill:none;stroke:#020144;stroke-width:4.17px;stroke-miterlimit:1.5;"/><path d="M363.544,637.414c-0.529,2.446 -1.958,5.753 -10.274,25.921m-2.629,-108.638c1.111,35.723 14.765,50.723 13.79,74.599" style="fill:#5cba9e;stroke:#020144;stroke-width:4.17px;stroke-miterlimit:1.5;"/></g></g><g id="Tree"><path d="M651.324,695.945c23.022,1.168 42.528,3.463 55.51,6.44c10.836,2.485 17.128,5.445 17.128,8.621c-0,1.167 -0.85,2.305 -2.463,3.401c-2.44,1.658 -6.627,3.22 -12.259,4.641c-18.664,4.709 -53.203,7.873 -92.691,7.873c-39.487,0 -74.027,-3.164 -92.69,-7.873c-5.633,-1.421 -9.819,-2.983 -12.26,-4.641c-1.613,-1.096 -2.463,-2.234 -2.463,-3.401c0,-3.176 6.292,-6.136 17.128,-8.621c13.349,-3.061 33.593,-5.401 57.467,-6.536" style="fill:none;stroke:#020144;stroke-width:4.17px;stroke-miterlimit:1.5;"/><path d="M652.672,702.817c23.485,1.244 43.204,3.666 55.907,6.785c5.967,1.465 10.385,3.083 12.92,4.805c1.613,1.096 2.463,2.234 2.463,3.401c-0,3.002 -5.619,5.81 -15.383,8.207c-18.81,4.618 -53.003,7.709 -92.03,7.709c-39.026,-0 -73.22,-3.091 -92.03,-7.709c-9.763,-2.397 -15.383,-5.205 -15.383,-8.207c0,-1.167 0.85,-2.305 2.463,-3.401c2.535,-1.722 6.954,-3.34 12.92,-4.805c12.945,-3.178 33.174,-5.633 57.251,-6.854" style="fill:none;stroke:#020144;stroke-width:4.17px;stroke-miterlimit:1.5;"/><path d="M708.579,726.015c-5.553,33.501 -44.668,59.495 -92.03,59.495c-47.362,-0 -86.476,-25.994 -92.03,-59.495" style="fill:none;stroke:#020144;stroke-width:4.17px;stroke-miterlimit:1.5;"/><path d="M742.078,513.698c-16.097,1.058 -49.797,17.755 -62.946,33.295c-40.86,48.289 -32.158,147.845 -23.438,165.284" style="fill:none;stroke:#020144;stroke-width:4.17px;stroke-miterlimit:1.5;"/><path d="M580.143,708.193c0.559,-1.834 1.102,-3.65 1.627,-5.445c0.682,-2.332 1.335,-4.632 1.961,-6.899c4.422,-16.033 7.449,-30.476 9.298,-43.54c0.704,-4.973 1.237,-9.747 1.612,-14.333c3.224,-39.469 -5.304,-65.007 -17.921,-84.068m-14.71,-18.259c-2.516,-2.659 -5.072,-5.204 -7.629,-7.673c-17.126,-16.539 -34.294,-29.686 -39.621,-50.993c-1.483,-5.936 -2.612,-10.82 -3.586,-15.01" style="fill:none;stroke:#020144;stroke-width:4.17px;stroke-miterlimit:1.5;"/><path d="M518.994,458.846c4.18,16.194 8.562,32.596 19.323,40.966c8.489,6.602 52.689,48.844 89.667,-51.442" style="fill:none;stroke:#020144;stroke-width:4.17px;stroke-miterlimit:1.5;"/><path d="M639.167,444.258c-12.209,34.431 -27.208,45.044 -22.907,65.474c3.738,17.756 36.915,16.391 65.37,7.38c27.201,-8.614 43.193,-13.095 56.314,-14.647" style="fill:none;stroke:#020144;stroke-width:4.17px;stroke-miterlimit:1.5;"/><path d="M649.037,637.712c29.016,24.019 56.351,-0.716 73.318,3.324c11.934,2.841 44.53,19.306 68.101,-17.735c7.424,-11.665 -0.229,-17.432 12.414,-22.7c24.379,-10.157 58.167,-51.571 35.824,-89.382c-12.044,-20.383 -2.134,-37.732 -21.281,-54.268c-33.951,-29.321 -37.269,-45.08 -38.307,-50.012c-10.201,-48.453 -31.323,-37.261 -53.558,-69.874c-23.263,-34.118 -39.991,-30.624 -63.136,-32.277c-0.062,-0.004 -29.091,-9.576 -43.981,-9.576c-33.055,-0 -61.005,33.258 -65.973,34.405c-1.679,0.387 -19.125,-1.331 -41.854,9.222c-35.513,16.488 -31.038,77.444 -73.066,124.142c-31.257,34.729 13.623,82.188 7.448,105.343c-1.039,3.897 -17.808,29.273 7.094,57.106c27.653,30.905 75.018,6.278 80.87,7.448c4.208,0.842 29.873,19.932 61.691,5.098" style="fill:none;stroke:#020144;stroke-width:4.17px;stroke-miterlimit:1.5;"/><path d="M722.198,532.596c31.505,-13.207 31.363,34.785 1.676,32.6c-0.056,-0.004 -27.9,1.085 -24.538,-22.418c2.397,-16.75 16.428,-12.102 22.862,-10.182Z" style="fill:#def1ec;stroke:#020144;stroke-width:4.17px;stroke-miterlimit:1.5;"/><path d="M553.225,537.908c31.504,-13.207 31.363,34.785 1.676,32.6c-0.057,-0.004 -27.9,1.085 -24.538,-22.419c2.396,-16.749 16.427,-12.101 22.862,-10.181Z" style="fill:#dff1fd;stroke:#020144;stroke-width:4.17px;stroke-miterlimit:1.5;"/><path d="M554.504,465.307c31.505,-13.207 31.363,34.785 1.677,32.6c-0.057,-0.004 -27.901,1.085 -24.539,-22.418c2.397,-16.75 16.428,-12.102 22.862,-10.182Z" style="fill:#dff1fd;stroke:#020144;stroke-width:4.17px;stroke-miterlimit:1.5;"/><path d="M680.423,430.332c31.504,-13.207 31.363,34.784 1.676,32.599c-0.057,-0.004 -27.9,1.086 -24.538,-22.418c2.396,-16.75 16.427,-12.102 22.862,-10.181Z" style="fill:#def1ec;stroke:#020144;stroke-width:4.17px;stroke-miterlimit:1.5;"/><path d="M725.938,518.277c-0.486,0.552 -2.592,2.943 -3.8,8.378c-1.476,6.644 0.91,11.576 1.347,12.48" style="fill:none;stroke:#020144;stroke-width:4.17px;stroke-miterlimit:1.5;"/><path d="M556.965,523.588c-0.487,0.553 -2.592,2.943 -3.8,8.379c-1.477,6.644 0.91,11.575 1.347,12.479" style="fill:none;stroke:#020144;stroke-width:4.17px;stroke-miterlimit:1.5;"/><path d="M558.244,450.988c-0.486,0.552 -2.592,2.943 -3.8,8.378c-1.476,6.644 0.91,11.576 1.348,12.48" style="fill:none;stroke:#020144;stroke-width:4.17px;stroke-miterlimit:1.5;"/><path d="M684.163,416.012c-0.487,0.552 -2.592,2.943 -3.8,8.378c-1.477,6.644 0.91,11.576 1.347,12.48" style="fill:none;stroke:#020144;stroke-width:4.17px;stroke-miterlimit:1.5;"/><path d="M727.243,537.812c-0.165,0.14 -2.766,3.426 -9.445,2.472" style="fill:none;stroke:#020144;stroke-width:4.17px;stroke-miterlimit:1.5;"/><path d="M558.27,543.124c-0.165,0.14 -2.766,3.426 -9.445,2.472" style="fill:none;stroke:#020144;stroke-width:4.17px;stroke-miterlimit:1.5;"/><path d="M559.549,470.523c-0.165,0.14 -2.766,3.426 -9.445,2.472" style="fill:none;stroke:#020144;stroke-width:4.17px;stroke-miterlimit:1.5;"/><path d="M685.467,435.547c-0.164,0.14 -2.765,3.426 -9.444,2.472" style="fill:none;stroke:#020144;stroke-width:4.17px;stroke-miterlimit:1.5;"/><path d="M652.899,430.67c-19.002,26.143 -36.242,17.186 -45.33,12.663c-1.129,6.548 -1.922,11.162 -13.842,15.136c-0.673,0.224 -9.315,1.673 -11.619,0.138" style="fill:none;stroke:#020144;stroke-width:4.17px;stroke-miterlimit:1.5;"/><path d="M547.614,428.59c-2.987,6.898 -24.669,43.63 -60.938,33.268" style="fill:none;stroke:#020144;stroke-width:4.17px;stroke-miterlimit:1.5;"/><path d="M695.404,473.298c0.943,3.17 10.575,14.459 37.711,12.141c2.079,29.914 32.15,40.799 35.825,41.901" style="fill:none;stroke:#020144;stroke-width:4.17px;stroke-miterlimit:1.5;"/></g><g id="table"><path d="M1110.52,773.024c3.307,3.593 5.019,7.266 5.019,11.003c-0,41.854 -214.794,75.834 -479.36,75.834c-264.566,-0 -479.36,-33.98 -479.36,-75.834c0,-12.532 19.258,-24.358 53.343,-34.778c21.408,-6.544 48.665,-12.533 80.673,-17.794m127.252,-14.965c28.789,-2.333 59.262,-4.219 91.05,-5.6m214.315,-1.44c25.771,0.751 50.822,1.828 74.977,3.204c13.237,0.755 26.204,1.598 38.873,2.527c7.32,0.537 14.54,1.102 21.655,1.694c23.336,1.943 142.07,16.901 177.393,23.677m-382.228,-32.306l0.342,0.002" style="fill:none;stroke:#020144;stroke-width:4.17px;stroke-miterlimit:1.5;"/></g><g id="standing-man" serif:id="standing man"><path d="M687.187,197.98c5.429,11.059 8.654,66.163 39.014,75.75c2.711,0.856 5.813,1.303 9.174,1.151c13.093,-0.592 30.128,-10.275 43.402,-40.275c0.336,-0.761 0.67,-1.534 1.002,-2.321" style="fill:none;stroke:#020144;stroke-width:4.17px;stroke-miterlimit:1.5;"/><path d="M779.779,232.285c16.892,-1.56 21.073,-23.742 15.06,-31.583c-2.588,-3.375 -7.065,-4.093 -13.229,0.632" style="fill:none;stroke:#020144;stroke-width:4.17px;stroke-miterlimit:1.5;"/><path d="M753.262,156.868c2.24,1.964 4.421,4.584 7.782,15.149c2.609,8.198 0.655,18.523 0.356,20.103c6.084,3.159 10.212,7.852 13.9,25.063c5.759,-5.258 6.86,-9.203 6.31,-15.849c-0.201,-2.421 -0.62,-5.201 -1.114,-8.533" style="fill:none;stroke:#020144;stroke-width:4.17px;stroke-miterlimit:1.5;"/><path d="M761.673,155.547c-39.844,3.453 -40.734,39.816 -70.865,42.259c-27.791,2.253 -14.883,-68.685 30.673,-83.18c2.467,-0.785 19.936,-6.343 32.362,-0.13" style="fill:none;stroke:#020144;stroke-width:4.17px;stroke-miterlimit:1.5;"/><path d="M747.753,112.389c-0.269,-6.774 2.094,-15.867 16.647,-24.292c16.932,-9.803 51.812,8.23 52.692,31.55c0.797,21.14 -12.289,27.927 -20.268,30.154" style="fill:none;stroke:#020144;stroke-width:4.17px;stroke-miterlimit:1.5;"/><path d="M793.324,143.403c1.216,1.567 2.411,3.758 3.5,6.398c5.332,12.934 8.092,36.67 -1.985,50.901" style="fill:none;stroke:#020144;stroke-width:4.17px;stroke-miterlimit:1.5;"/><path d="M693.374,190.853c7.801,0.748 34.454,4.25 23.277,44.766" style="fill:none;stroke:#020144;stroke-width:4.17px;stroke-miterlimit:1.5;"/><path d="M730.332,195.36c15.017,-5.578 22.242,1.691 25.318,4.265" style="fill:none;stroke:#020144;stroke-width:4.17px;stroke-miterlimit:1.5;"/><path d="M742.991,247.876c-0,-0 -10.483,9.643 -23.641,3.245" style="fill:none;stroke:#020144;stroke-width:4.17px;stroke-miterlimit:1.5;"/><path d="M740.227,207.25c1.266,-0.082 2.502,3.042 2.759,6.973c0.257,3.931 -0.563,7.19 -1.83,7.272c-1.266,0.083 -2.502,-3.041 -2.759,-6.972c-0.257,-3.931 0.563,-7.19 1.83,-7.273Z" style="fill:#020144;stroke:#020144;stroke-width:4.17px;stroke-miterlimit:1.5;"/><path d="M705.897,209.097c1.266,-0.083 2.503,3.041 2.759,6.972c0.257,3.931 -0.563,7.19 -1.829,7.273c-1.267,0.082 -2.503,-3.042 -2.76,-6.973c-0.256,-3.931 0.563,-7.19 1.83,-7.272Z" style="fill:#020144;stroke:#020144;stroke-width:4.17px;stroke-miterlimit:1.5;"/><path d="M786.988,209.095c-0,0 2.951,7.254 -3.123,12.402" style="fill:none;stroke:#020144;stroke-width:4.17px;stroke-miterlimit:1.5;"/><path d="M778.777,234.606c-0.363,11.241 0.293,30.827 3.377,45.783c1.515,7.345 3.615,13.573 6.467,17.149c23.855,29.904 44.073,28.809 60.344,48.37c6.692,8.043 12.715,19.58 18.051,38.201c35.352,123.382 54.763,160.293 -14.797,162.401c-2.117,0.064 -4.493,0.05 -6.994,-0.019" style="fill:none;stroke:#020144;stroke-width:4.17px;stroke-miterlimit:1.5;"/><path d="M880.908,487.538c-13.144,-3.857 -20.62,-1.551 -32.129,2.841c-4.482,1.71 -9.576,3.736 -15.854,5.838" style="fill:none;stroke:#020144;stroke-width:4.17px;stroke-miterlimit:1.5;"/><path d="M848.779,490.379c-1.348,-4.469 -3.501,-11.319 -6.92,-22.146c-4.392,-13.91 -10.427,-26.649 -15.806,-36.564c-1.058,-1.951 -2.091,-3.792 -3.08,-5.512c-4.371,-7.592 -7.905,-12.809 -9.097,-14.569" style="fill:none;stroke:#020144;stroke-width:4.17px;stroke-miterlimit:1.5;"/><path d="M826.053,431.669c-0.535,1.35 -1.165,2.939 -1.907,4.81c-1.826,4.602 -4.329,10.91 -7.766,19.576" style="fill:none;stroke:#020144;stroke-width:4.17px;stroke-miterlimit:1.5;"/><path d="M848.965,345.908c-11.335,3.857 -30.093,31.429 -25.992,80.249" style="fill:none;stroke:#020144;stroke-width:4.17px;stroke-miterlimit:1.5;"/><path d="M735.375,274.881c0.007,2.103 -0.171,4.729 -0.989,7.655c-1.768,6.323 -6.525,14.043 -18.87,20.901c-6.63,3.684 -11.246,6.156 -14.991,8.326" style="fill:none;stroke:#020144;stroke-width:4.17px;stroke-miterlimit:1.5;"/><path d="M782.154,280.389c-2.247,1.504 -5.219,1.516 -10.395,-0.077c-4.9,-1.507 -7.722,10.084 -16.56,4.037c-5.235,-3.582 -7.024,3.501 -14.006,-1.153c-3.491,-2.328 -5.289,-1.025 -6.807,-0.66" style="fill:none;stroke:#020144;stroke-width:4.17px;stroke-miterlimit:1.5;"/><circle cx="787.569" cy="239.409" r="3.717" style="fill:none;stroke:#020144;stroke-width:4.17px;stroke-miterlimit:1.5;"/><circle cx="694.117" cy="239.409" r="3.717" style="fill:none;stroke:#020144;stroke-width:4.17px;stroke-miterlimit:1.5;"/><path d="M820.31,589.126c10.575,29.356 16.309,50.896 16.994,126.055" style="fill:none;stroke:#020144;stroke-width:4.17px;stroke-miterlimit:1.5;"/><path d="M654.466,708.248c-0.019,0.286 -0.039,0.572 -0.059,0.859m6.084,-64.223c-2.654,15.149 -3.94,32.499 -5.21,51.274" style="fill:none;stroke:#020144;stroke-width:4.17px;stroke-miterlimit:1.5;"/><path d="M793.799,615.357c4.35,20.559 7.495,50.428 4.632,97.297" style="fill:none;stroke:#020144;stroke-width:4.17px;stroke-miterlimit:1.5;"/></g></svg>