<svg width="15" height="13" viewBox="0 0 15 13" fill="none" xmlns="http://www.w3.org/2000/svg">
<g clip-path="url(#clip0_2924_211)">
<path d="M0.540774 8.0561C0.190546 7.72894 0.0095113 7.29372 0.000355801 6.85553C-0.00867762 6.41746 0.15429 5.97535 0.49048 5.63465C0.826426 5.2942 1.27382 5.11797 1.72415 5.10918C2.17473 5.10016 2.62896 5.25821 2.97943 5.58561L6.00526 8.41794L12.0295 0.973689L12.2453 1.13388L12.0292 0.972976C12.0464 0.951245 12.066 0.93272 12.0877 0.917638C12.4461 0.615655 12.8959 0.479329 13.3356 0.502604V0.502129L13.3571 0.504029C13.7994 0.53253 14.2314 0.723718 14.5504 1.07C14.8749 1.42209 15.022 1.86931 14.9974 2.30643H14.9979L14.996 2.32733C14.9672 2.74984 14.7773 3.16274 14.4333 3.47114L7.20366 12.0319L7.20415 12.0324C7.1906 12.0491 7.17534 12.0635 7.15873 12.0761C6.82023 12.3652 6.39272 12.507 5.96767 12.4999C5.53907 12.4926 5.11132 12.3341 4.77855 12.023L0.540774 8.0561Z" fill="#5CBA9E"/>
</g>
<defs>
<clipPath id="clip0_2924_211">
<rect width="15" height="12" fill="white" transform="translate(0 0.5)"/>
</clipPath>
</defs>
</svg>
